<?xml version="1.0" encoding="utf-8" standalone="no"?>
<!DOCTYPE svg PUBLIC "-//W3C//DTD SVG 1.1//EN"
  "http://www.w3.org/Graphics/SVG/1.1/DTD/svg11.dtd">
<svg xmlns:xlink="http://www.w3.org/1999/xlink" width="460.8pt" height="345.6pt" viewBox="0 0 460.8 345.6" xmlns="http://www.w3.org/2000/svg" version="1.1">
 <metadata>
  <rdf:RDF xmlns:dc="http://purl.org/dc/elements/1.1/" xmlns:cc="http://creativecommons.org/ns#" xmlns:rdf="http://www.w3.org/1999/02/22-rdf-syntax-ns#">
   <cc:Work>
    <dc:type rdf:resource="http://purl.org/dc/dcmitype/StillImage"/>
    <dc:date>2023-08-12T11:41:42.364863</dc:date>
    <dc:format>image/svg+xml</dc:format>
    <dc:creator>
     <cc:Agent>
      <dc:title>Matplotlib v3.5.3, https://matplotlib.org/</dc:title>
     </cc:Agent>
    </dc:creator>
   </cc:Work>
  </rdf:RDF>
 </metadata>
 <defs>
  <style type="text/css">*{stroke-linejoin: round; stroke-linecap: butt}</style>
 </defs>
 <g id="figure_1">
  <g id="patch_1">
   <path d="M 0 345.6 
L 460.8 345.6 
L 460.8 0 
L 0 0 
z
" style="fill: #ffffff"/>
  </g>
  <g id="axes_1">
   <g id="patch_2">
    <path d="M 57.6 307.584 
L 414.72 307.584 
L 414.72 41.472 
L 57.6 41.472 
z
" style="fill: #ffffff"/>
   </g>
   <g id="matplotlib.axis_1">
    <g id="xtick_1">
     <g id="line2d_1">
      <defs>
       <path id="m6ff8fa76aa" d="M 0 0 
L 0 3.5 
" style="stroke: #000000; stroke-width: 0.8"/>
      </defs>
      <g>
       <use xlink:href="#m6ff8fa76aa" x="73.351758" y="307.584" style="stroke: #000000; stroke-width: 0.8"/>
      </g>
     </g>
     <g id="text_1">
      <!-- 0 -->
      <g transform="translate(70.170508 322.182437)scale(0.1 -0.1)">
       <defs>
        <path id="DejaVuSans-30" d="M 2034 4250 
Q 1547 4250 1301 3770 
Q 1056 3291 1056 2328 
Q 1056 1369 1301 889 
Q 1547 409 2034 409 
Q 2525 409 2770 889 
Q 3016 1369 3016 2328 
Q 3016 3291 2770 3770 
Q 2525 4250 2034 4250 
z
M 2034 4750 
Q 2819 4750 3233 4129 
Q 3647 3509 3647 2328 
Q 3647 1150 3233 529 
Q 2819 -91 2034 -91 
Q 1250 -91 836 529 
Q 422 1150 422 2328 
Q 422 3509 836 4129 
Q 1250 4750 2034 4750 
z
" transform="scale(0.015625)"/>
       </defs>
       <use xlink:href="#DejaVuSans-30"/>
      </g>
     </g>
    </g>
    <g id="xtick_2">
     <g id="line2d_2">
      <g>
       <use xlink:href="#m6ff8fa76aa" x="121.448727" y="307.584" style="stroke: #000000; stroke-width: 0.8"/>
      </g>
     </g>
     <g id="text_2">
      <!-- 2500 -->
      <g transform="translate(108.723727 322.182437)scale(0.1 -0.1)">
       <defs>
        <path id="DejaVuSans-32" d="M 1228 531 
L 3431 531 
L 3431 0 
L 469 0 
L 469 531 
Q 828 903 1448 1529 
Q 2069 2156 2228 2338 
Q 2531 2678 2651 2914 
Q 2772 3150 2772 3378 
Q 2772 3750 2511 3984 
Q 2250 4219 1831 4219 
Q 1534 4219 1204 4116 
Q 875 4013 500 3803 
L 500 4441 
Q 881 4594 1212 4672 
Q 1544 4750 1819 4750 
Q 2544 4750 2975 4387 
Q 3406 4025 3406 3419 
Q 3406 3131 3298 2873 
Q 3191 2616 2906 2266 
Q 2828 2175 2409 1742 
Q 1991 1309 1228 531 
z
" transform="scale(0.015625)"/>
        <path id="DejaVuSans-35" d="M 691 4666 
L 3169 4666 
L 3169 4134 
L 1269 4134 
L 1269 2991 
Q 1406 3038 1543 3061 
Q 1681 3084 1819 3084 
Q 2600 3084 3056 2656 
Q 3513 2228 3513 1497 
Q 3513 744 3044 326 
Q 2575 -91 1722 -91 
Q 1428 -91 1123 -41 
Q 819 9 494 109 
L 494 744 
Q 775 591 1075 516 
Q 1375 441 1709 441 
Q 2250 441 2565 725 
Q 2881 1009 2881 1497 
Q 2881 1984 2565 2268 
Q 2250 2553 1709 2553 
Q 1456 2553 1204 2497 
Q 953 2441 691 2322 
L 691 4666 
z
" transform="scale(0.015625)"/>
       </defs>
       <use xlink:href="#DejaVuSans-32"/>
       <use xlink:href="#DejaVuSans-35" x="63.623047"/>
       <use xlink:href="#DejaVuSans-30" x="127.246094"/>
       <use xlink:href="#DejaVuSans-30" x="190.869141"/>
      </g>
     </g>
    </g>
    <g id="xtick_3">
     <g id="line2d_3">
      <g>
       <use xlink:href="#m6ff8fa76aa" x="169.545697" y="307.584" style="stroke: #000000; stroke-width: 0.8"/>
      </g>
     </g>
     <g id="text_3">
      <!-- 5000 -->
      <g transform="translate(156.820697 322.182437)scale(0.1 -0.1)">
       <use xlink:href="#DejaVuSans-35"/>
       <use xlink:href="#DejaVuSans-30" x="63.623047"/>
       <use xlink:href="#DejaVuSans-30" x="127.246094"/>
       <use xlink:href="#DejaVuSans-30" x="190.869141"/>
      </g>
     </g>
    </g>
    <g id="xtick_4">
     <g id="line2d_4">
      <g>
       <use xlink:href="#m6ff8fa76aa" x="217.642667" y="307.584" style="stroke: #000000; stroke-width: 0.8"/>
      </g>
     </g>
     <g id="text_4">
      <!-- 7500 -->
      <g transform="translate(204.917667 322.182437)scale(0.1 -0.1)">
       <defs>
        <path id="DejaVuSans-37" d="M 525 4666 
L 3525 4666 
L 3525 4397 
L 1831 0 
L 1172 0 
L 2766 4134 
L 525 4134 
L 525 4666 
z
" transform="scale(0.015625)"/>
       </defs>
       <use xlink:href="#DejaVuSans-37"/>
       <use xlink:href="#DejaVuSans-35" x="63.623047"/>
       <use xlink:href="#DejaVuSans-30" x="127.246094"/>
       <use xlink:href="#DejaVuSans-30" x="190.869141"/>
      </g>
     </g>
    </g>
    <g id="xtick_5">
     <g id="line2d_5">
      <g>
       <use xlink:href="#m6ff8fa76aa" x="265.739636" y="307.584" style="stroke: #000000; stroke-width: 0.8"/>
      </g>
     </g>
     <g id="text_5">
      <!-- 10000 -->
      <g transform="translate(249.833386 322.182437)scale(0.1 -0.1)">
       <defs>
        <path id="DejaVuSans-31" d="M 794 531 
L 1825 531 
L 1825 4091 
L 703 3866 
L 703 4441 
L 1819 4666 
L 2450 4666 
L 2450 531 
L 3481 531 
L 3481 0 
L 794 0 
L 794 531 
z
" transform="scale(0.015625)"/>
       </defs>
       <use xlink:href="#DejaVuSans-31"/>
       <use xlink:href="#DejaVuSans-30" x="63.623047"/>
       <use xlink:href="#DejaVuSans-30" x="127.246094"/>
       <use xlink:href="#DejaVuSans-30" x="190.869141"/>
       <use xlink:href="#DejaVuSans-30" x="254.492188"/>
      </g>
     </g>
    </g>
    <g id="xtick_6">
     <g id="line2d_6">
      <g>
       <use xlink:href="#m6ff8fa76aa" x="313.836606" y="307.584" style="stroke: #000000; stroke-width: 0.8"/>
      </g>
     </g>
     <g id="text_6">
      <!-- 12500 -->
      <g transform="translate(297.930356 322.182437)scale(0.1 -0.1)">
       <use xlink:href="#DejaVuSans-31"/>
       <use xlink:href="#DejaVuSans-32" x="63.623047"/>
       <use xlink:href="#DejaVuSans-35" x="127.246094"/>
       <use xlink:href="#DejaVuSans-30" x="190.869141"/>
       <use xlink:href="#DejaVuSans-30" x="254.492188"/>
      </g>
     </g>
    </g>
    <g id="xtick_7">
     <g id="line2d_7">
      <g>
       <use xlink:href="#m6ff8fa76aa" x="361.933576" y="307.584" style="stroke: #000000; stroke-width: 0.8"/>
      </g>
     </g>
     <g id="text_7">
      <!-- 15000 -->
      <g transform="translate(346.027326 322.182437)scale(0.1 -0.1)">
       <use xlink:href="#DejaVuSans-31"/>
       <use xlink:href="#DejaVuSans-35" x="63.623047"/>
       <use xlink:href="#DejaVuSans-30" x="127.246094"/>
       <use xlink:href="#DejaVuSans-30" x="190.869141"/>
       <use xlink:href="#DejaVuSans-30" x="254.492188"/>
      </g>
     </g>
    </g>
    <g id="xtick_8">
     <g id="line2d_8">
      <g>
       <use xlink:href="#m6ff8fa76aa" x="410.030545" y="307.584" style="stroke: #000000; stroke-width: 0.8"/>
      </g>
     </g>
     <g id="text_8">
      <!-- 17500 -->
      <g transform="translate(394.124295 322.182437)scale(0.1 -0.1)">
       <use xlink:href="#DejaVuSans-31"/>
       <use xlink:href="#DejaVuSans-37" x="63.623047"/>
       <use xlink:href="#DejaVuSans-35" x="127.246094"/>
       <use xlink:href="#DejaVuSans-30" x="190.869141"/>
       <use xlink:href="#DejaVuSans-30" x="254.492188"/>
      </g>
     </g>
    </g>
    <g id="text_9">
     <!-- Number of input neurons multiplied by number of hidden neurons [N*K] -->
     <g transform="translate(56.102969 335.860562)scale(0.1 -0.1)">
      <defs>
       <path id="DejaVuSans-4e" d="M 628 4666 
L 1478 4666 
L 3547 763 
L 3547 4666 
L 4159 4666 
L 4159 0 
L 3309 0 
L 1241 3903 
L 1241 0 
L 628 0 
L 628 4666 
z
" transform="scale(0.015625)"/>
       <path id="DejaVuSans-75" d="M 544 1381 
L 544 3500 
L 1119 3500 
L 1119 1403 
Q 1119 906 1312 657 
Q 1506 409 1894 409 
Q 2359 409 2629 706 
Q 2900 1003 2900 1516 
L 2900 3500 
L 3475 3500 
L 3475 0 
L 2900 0 
L 2900 538 
Q 2691 219 2414 64 
Q 2138 -91 1772 -91 
Q 1169 -91 856 284 
Q 544 659 544 1381 
z
M 1991 3584 
L 1991 3584 
z
" transform="scale(0.015625)"/>
       <path id="DejaVuSans-6d" d="M 3328 2828 
Q 3544 3216 3844 3400 
Q 4144 3584 4550 3584 
Q 5097 3584 5394 3201 
Q 5691 2819 5691 2113 
L 5691 0 
L 5113 0 
L 5113 2094 
Q 5113 2597 4934 2840 
Q 4756 3084 4391 3084 
Q 3944 3084 3684 2787 
Q 3425 2491 3425 1978 
L 3425 0 
L 2847 0 
L 2847 2094 
Q 2847 2600 2669 2842 
Q 2491 3084 2119 3084 
Q 1678 3084 1418 2786 
Q 1159 2488 1159 1978 
L 1159 0 
L 581 0 
L 581 3500 
L 1159 3500 
L 1159 2956 
Q 1356 3278 1631 3431 
Q 1906 3584 2284 3584 
Q 2666 3584 2933 3390 
Q 3200 3197 3328 2828 
z
" transform="scale(0.015625)"/>
       <path id="DejaVuSans-62" d="M 3116 1747 
Q 3116 2381 2855 2742 
Q 2594 3103 2138 3103 
Q 1681 3103 1420 2742 
Q 1159 2381 1159 1747 
Q 1159 1113 1420 752 
Q 1681 391 2138 391 
Q 2594 391 2855 752 
Q 3116 1113 3116 1747 
z
M 1159 2969 
Q 1341 3281 1617 3432 
Q 1894 3584 2278 3584 
Q 2916 3584 3314 3078 
Q 3713 2572 3713 1747 
Q 3713 922 3314 415 
Q 2916 -91 2278 -91 
Q 1894 -91 1617 61 
Q 1341 213 1159 525 
L 1159 0 
L 581 0 
L 581 4863 
L 1159 4863 
L 1159 2969 
z
" transform="scale(0.015625)"/>
       <path id="DejaVuSans-65" d="M 3597 1894 
L 3597 1613 
L 953 1613 
Q 991 1019 1311 708 
Q 1631 397 2203 397 
Q 2534 397 2845 478 
Q 3156 559 3463 722 
L 3463 178 
Q 3153 47 2828 -22 
Q 2503 -91 2169 -91 
Q 1331 -91 842 396 
Q 353 884 353 1716 
Q 353 2575 817 3079 
Q 1281 3584 2069 3584 
Q 2775 3584 3186 3129 
Q 3597 2675 3597 1894 
z
M 3022 2063 
Q 3016 2534 2758 2815 
Q 2500 3097 2075 3097 
Q 1594 3097 1305 2825 
Q 1016 2553 972 2059 
L 3022 2063 
z
" transform="scale(0.015625)"/>
       <path id="DejaVuSans-72" d="M 2631 2963 
Q 2534 3019 2420 3045 
Q 2306 3072 2169 3072 
Q 1681 3072 1420 2755 
Q 1159 2438 1159 1844 
L 1159 0 
L 581 0 
L 581 3500 
L 1159 3500 
L 1159 2956 
Q 1341 3275 1631 3429 
Q 1922 3584 2338 3584 
Q 2397 3584 2469 3576 
Q 2541 3569 2628 3553 
L 2631 2963 
z
" transform="scale(0.015625)"/>
       <path id="DejaVuSans-20" transform="scale(0.015625)"/>
       <path id="DejaVuSans-6f" d="M 1959 3097 
Q 1497 3097 1228 2736 
Q 959 2375 959 1747 
Q 959 1119 1226 758 
Q 1494 397 1959 397 
Q 2419 397 2687 759 
Q 2956 1122 2956 1747 
Q 2956 2369 2687 2733 
Q 2419 3097 1959 3097 
z
M 1959 3584 
Q 2709 3584 3137 3096 
Q 3566 2609 3566 1747 
Q 3566 888 3137 398 
Q 2709 -91 1959 -91 
Q 1206 -91 779 398 
Q 353 888 353 1747 
Q 353 2609 779 3096 
Q 1206 3584 1959 3584 
z
" transform="scale(0.015625)"/>
       <path id="DejaVuSans-66" d="M 2375 4863 
L 2375 4384 
L 1825 4384 
Q 1516 4384 1395 4259 
Q 1275 4134 1275 3809 
L 1275 3500 
L 2222 3500 
L 2222 3053 
L 1275 3053 
L 1275 0 
L 697 0 
L 697 3053 
L 147 3053 
L 147 3500 
L 697 3500 
L 697 3744 
Q 697 4328 969 4595 
Q 1241 4863 1831 4863 
L 2375 4863 
z
" transform="scale(0.015625)"/>
       <path id="DejaVuSans-69" d="M 603 3500 
L 1178 3500 
L 1178 0 
L 603 0 
L 603 3500 
z
M 603 4863 
L 1178 4863 
L 1178 4134 
L 603 4134 
L 603 4863 
z
" transform="scale(0.015625)"/>
       <path id="DejaVuSans-6e" d="M 3513 2113 
L 3513 0 
L 2938 0 
L 2938 2094 
Q 2938 2591 2744 2837 
Q 2550 3084 2163 3084 
Q 1697 3084 1428 2787 
Q 1159 2491 1159 1978 
L 1159 0 
L 581 0 
L 581 3500 
L 1159 3500 
L 1159 2956 
Q 1366 3272 1645 3428 
Q 1925 3584 2291 3584 
Q 2894 3584 3203 3211 
Q 3513 2838 3513 2113 
z
" transform="scale(0.015625)"/>
       <path id="DejaVuSans-70" d="M 1159 525 
L 1159 -1331 
L 581 -1331 
L 581 3500 
L 1159 3500 
L 1159 2969 
Q 1341 3281 1617 3432 
Q 1894 3584 2278 3584 
Q 2916 3584 3314 3078 
Q 3713 2572 3713 1747 
Q 3713 922 3314 415 
Q 2916 -91 2278 -91 
Q 1894 -91 1617 61 
Q 1341 213 1159 525 
z
M 3116 1747 
Q 3116 2381 2855 2742 
Q 2594 3103 2138 3103 
Q 1681 3103 1420 2742 
Q 1159 2381 1159 1747 
Q 1159 1113 1420 752 
Q 1681 391 2138 391 
Q 2594 391 2855 752 
Q 3116 1113 3116 1747 
z
" transform="scale(0.015625)"/>
       <path id="DejaVuSans-74" d="M 1172 4494 
L 1172 3500 
L 2356 3500 
L 2356 3053 
L 1172 3053 
L 1172 1153 
Q 1172 725 1289 603 
Q 1406 481 1766 481 
L 2356 481 
L 2356 0 
L 1766 0 
Q 1100 0 847 248 
Q 594 497 594 1153 
L 594 3053 
L 172 3053 
L 172 3500 
L 594 3500 
L 594 4494 
L 1172 4494 
z
" transform="scale(0.015625)"/>
       <path id="DejaVuSans-73" d="M 2834 3397 
L 2834 2853 
Q 2591 2978 2328 3040 
Q 2066 3103 1784 3103 
Q 1356 3103 1142 2972 
Q 928 2841 928 2578 
Q 928 2378 1081 2264 
Q 1234 2150 1697 2047 
L 1894 2003 
Q 2506 1872 2764 1633 
Q 3022 1394 3022 966 
Q 3022 478 2636 193 
Q 2250 -91 1575 -91 
Q 1294 -91 989 -36 
Q 684 19 347 128 
L 347 722 
Q 666 556 975 473 
Q 1284 391 1588 391 
Q 1994 391 2212 530 
Q 2431 669 2431 922 
Q 2431 1156 2273 1281 
Q 2116 1406 1581 1522 
L 1381 1569 
Q 847 1681 609 1914 
Q 372 2147 372 2553 
Q 372 3047 722 3315 
Q 1072 3584 1716 3584 
Q 2034 3584 2315 3537 
Q 2597 3491 2834 3397 
z
" transform="scale(0.015625)"/>
       <path id="DejaVuSans-6c" d="M 603 4863 
L 1178 4863 
L 1178 0 
L 603 0 
L 603 4863 
z
" transform="scale(0.015625)"/>
       <path id="DejaVuSans-64" d="M 2906 2969 
L 2906 4863 
L 3481 4863 
L 3481 0 
L 2906 0 
L 2906 525 
Q 2725 213 2448 61 
Q 2172 -91 1784 -91 
Q 1150 -91 751 415 
Q 353 922 353 1747 
Q 353 2572 751 3078 
Q 1150 3584 1784 3584 
Q 2172 3584 2448 3432 
Q 2725 3281 2906 2969 
z
M 947 1747 
Q 947 1113 1208 752 
Q 1469 391 1925 391 
Q 2381 391 2643 752 
Q 2906 1113 2906 1747 
Q 2906 2381 2643 2742 
Q 2381 3103 1925 3103 
Q 1469 3103 1208 2742 
Q 947 2381 947 1747 
z
" transform="scale(0.015625)"/>
       <path id="DejaVuSans-79" d="M 2059 -325 
Q 1816 -950 1584 -1140 
Q 1353 -1331 966 -1331 
L 506 -1331 
L 506 -850 
L 844 -850 
Q 1081 -850 1212 -737 
Q 1344 -625 1503 -206 
L 1606 56 
L 191 3500 
L 800 3500 
L 1894 763 
L 2988 3500 
L 3597 3500 
L 2059 -325 
z
" transform="scale(0.015625)"/>
       <path id="DejaVuSans-68" d="M 3513 2113 
L 3513 0 
L 2938 0 
L 2938 2094 
Q 2938 2591 2744 2837 
Q 2550 3084 2163 3084 
Q 1697 3084 1428 2787 
Q 1159 2491 1159 1978 
L 1159 0 
L 581 0 
L 581 4863 
L 1159 4863 
L 1159 2956 
Q 1366 3272 1645 3428 
Q 1925 3584 2291 3584 
Q 2894 3584 3203 3211 
Q 3513 2838 3513 2113 
z
" transform="scale(0.015625)"/>
       <path id="DejaVuSans-5b" d="M 550 4863 
L 1875 4863 
L 1875 4416 
L 1125 4416 
L 1125 -397 
L 1875 -397 
L 1875 -844 
L 550 -844 
L 550 4863 
z
" transform="scale(0.015625)"/>
       <path id="DejaVuSans-2a" d="M 3009 3897 
L 1888 3291 
L 3009 2681 
L 2828 2375 
L 1778 3009 
L 1778 1831 
L 1422 1831 
L 1422 3009 
L 372 2375 
L 191 2681 
L 1313 3291 
L 191 3897 
L 372 4206 
L 1422 3572 
L 1422 4750 
L 1778 4750 
L 1778 3572 
L 2828 4206 
L 3009 3897 
z
" transform="scale(0.015625)"/>
       <path id="DejaVuSans-4b" d="M 628 4666 
L 1259 4666 
L 1259 2694 
L 3353 4666 
L 4166 4666 
L 1850 2491 
L 4331 0 
L 3500 0 
L 1259 2247 
L 1259 0 
L 628 0 
L 628 4666 
z
" transform="scale(0.015625)"/>
       <path id="DejaVuSans-5d" d="M 1947 4863 
L 1947 -844 
L 622 -844 
L 622 -397 
L 1369 -397 
L 1369 4416 
L 622 4416 
L 622 4863 
L 1947 4863 
z
" transform="scale(0.015625)"/>
      </defs>
      <use xlink:href="#DejaVuSans-4e"/>
      <use xlink:href="#DejaVuSans-75" x="74.804688"/>
      <use xlink:href="#DejaVuSans-6d" x="138.183594"/>
      <use xlink:href="#DejaVuSans-62" x="235.595703"/>
      <use xlink:href="#DejaVuSans-65" x="299.072266"/>
      <use xlink:href="#DejaVuSans-72" x="360.595703"/>
      <use xlink:href="#DejaVuSans-20" x="401.708984"/>
      <use xlink:href="#DejaVuSans-6f" x="433.496094"/>
      <use xlink:href="#DejaVuSans-66" x="494.677734"/>
      <use xlink:href="#DejaVuSans-20" x="529.882812"/>
      <use xlink:href="#DejaVuSans-69" x="561.669922"/>
      <use xlink:href="#DejaVuSans-6e" x="589.453125"/>
      <use xlink:href="#DejaVuSans-70" x="652.832031"/>
      <use xlink:href="#DejaVuSans-75" x="716.308594"/>
      <use xlink:href="#DejaVuSans-74" x="779.6875"/>
      <use xlink:href="#DejaVuSans-20" x="818.896484"/>
      <use xlink:href="#DejaVuSans-6e" x="850.683594"/>
      <use xlink:href="#DejaVuSans-65" x="914.0625"/>
      <use xlink:href="#DejaVuSans-75" x="975.585938"/>
      <use xlink:href="#DejaVuSans-72" x="1038.964844"/>
      <use xlink:href="#DejaVuSans-6f" x="1077.828125"/>
      <use xlink:href="#DejaVuSans-6e" x="1139.009766"/>
      <use xlink:href="#DejaVuSans-73" x="1202.388672"/>
      <use xlink:href="#DejaVuSans-20" x="1254.488281"/>
      <use xlink:href="#DejaVuSans-6d" x="1286.275391"/>
      <use xlink:href="#DejaVuSans-75" x="1383.6875"/>
      <use xlink:href="#DejaVuSans-6c" x="1447.066406"/>
      <use xlink:href="#DejaVuSans-74" x="1474.849609"/>
      <use xlink:href="#DejaVuSans-69" x="1514.058594"/>
      <use xlink:href="#DejaVuSans-70" x="1541.841797"/>
      <use xlink:href="#DejaVuSans-6c" x="1605.318359"/>
      <use xlink:href="#DejaVuSans-69" x="1633.101562"/>
      <use xlink:href="#DejaVuSans-65" x="1660.884766"/>
      <use xlink:href="#DejaVuSans-64" x="1722.408203"/>
      <use xlink:href="#DejaVuSans-20" x="1785.884766"/>
      <use xlink:href="#DejaVuSans-62" x="1817.671875"/>
      <use xlink:href="#DejaVuSans-79" x="1881.148438"/>
      <use xlink:href="#DejaVuSans-20" x="1940.328125"/>
      <use xlink:href="#DejaVuSans-6e" x="1972.115234"/>
      <use xlink:href="#DejaVuSans-75" x="2035.494141"/>
      <use xlink:href="#DejaVuSans-6d" x="2098.873047"/>
      <use xlink:href="#DejaVuSans-62" x="2196.285156"/>
      <use xlink:href="#DejaVuSans-65" x="2259.761719"/>
      <use xlink:href="#DejaVuSans-72" x="2321.285156"/>
      <use xlink:href="#DejaVuSans-20" x="2362.398438"/>
      <use xlink:href="#DejaVuSans-6f" x="2394.185547"/>
      <use xlink:href="#DejaVuSans-66" x="2455.367188"/>
      <use xlink:href="#DejaVuSans-20" x="2490.572266"/>
      <use xlink:href="#DejaVuSans-68" x="2522.359375"/>
      <use xlink:href="#DejaVuSans-69" x="2585.738281"/>
      <use xlink:href="#DejaVuSans-64" x="2613.521484"/>
      <use xlink:href="#DejaVuSans-64" x="2676.998047"/>
      <use xlink:href="#DejaVuSans-65" x="2740.474609"/>
      <use xlink:href="#DejaVuSans-6e" x="2801.998047"/>
      <use xlink:href="#DejaVuSans-20" x="2865.376953"/>
      <use xlink:href="#DejaVuSans-6e" x="2897.164062"/>
      <use xlink:href="#DejaVuSans-65" x="2960.542969"/>
      <use xlink:href="#DejaVuSans-75" x="3022.066406"/>
      <use xlink:href="#DejaVuSans-72" x="3085.445312"/>
      <use xlink:href="#DejaVuSans-6f" x="3124.308594"/>
      <use xlink:href="#DejaVuSans-6e" x="3185.490234"/>
      <use xlink:href="#DejaVuSans-73" x="3248.869141"/>
      <use xlink:href="#DejaVuSans-20" x="3300.96875"/>
      <use xlink:href="#DejaVuSans-5b" x="3332.755859"/>
      <use xlink:href="#DejaVuSans-4e" x="3371.769531"/>
      <use xlink:href="#DejaVuSans-2a" x="3446.574219"/>
      <use xlink:href="#DejaVuSans-4b" x="3496.574219"/>
      <use xlink:href="#DejaVuSans-5d" x="3562.150391"/>
     </g>
    </g>
   </g>
   <g id="matplotlib.axis_2">
    <g id="ytick_1">
     <g id="line2d_9">
      <defs>
       <path id="mb18d4da1b4" d="M 0 0 
L -3.5 0 
" style="stroke: #000000; stroke-width: 0.8"/>
      </defs>
      <g>
       <use xlink:href="#mb18d4da1b4" x="57.6" y="298.737464" style="stroke: #000000; stroke-width: 0.8"/>
      </g>
     </g>
     <g id="text_10">
      <!-- 0 -->
      <g transform="translate(44.2375 302.536682)scale(0.1 -0.1)">
       <use xlink:href="#DejaVuSans-30"/>
      </g>
     </g>
    </g>
    <g id="ytick_2">
     <g id="line2d_10">
      <g>
       <use xlink:href="#mb18d4da1b4" x="57.6" y="266.634709" style="stroke: #000000; stroke-width: 0.8"/>
      </g>
     </g>
     <g id="text_11">
      <!-- 20 -->
      <g transform="translate(37.875 270.433928)scale(0.1 -0.1)">
       <use xlink:href="#DejaVuSans-32"/>
       <use xlink:href="#DejaVuSans-30" x="63.623047"/>
      </g>
     </g>
    </g>
    <g id="ytick_3">
     <g id="line2d_11">
      <g>
       <use xlink:href="#mb18d4da1b4" x="57.6" y="234.531955" style="stroke: #000000; stroke-width: 0.8"/>
      </g>
     </g>
     <g id="text_12">
      <!-- 40 -->
      <g transform="translate(37.875 238.331173)scale(0.1 -0.1)">
       <defs>
        <path id="DejaVuSans-34" d="M 2419 4116 
L 825 1625 
L 2419 1625 
L 2419 4116 
z
M 2253 4666 
L 3047 4666 
L 3047 1625 
L 3713 1625 
L 3713 1100 
L 3047 1100 
L 3047 0 
L 2419 0 
L 2419 1100 
L 313 1100 
L 313 1709 
L 2253 4666 
z
" transform="scale(0.015625)"/>
       </defs>
       <use xlink:href="#DejaVuSans-34"/>
       <use xlink:href="#DejaVuSans-30" x="63.623047"/>
      </g>
     </g>
    </g>
    <g id="ytick_4">
     <g id="line2d_12">
      <g>
       <use xlink:href="#mb18d4da1b4" x="57.6" y="202.4292" style="stroke: #000000; stroke-width: 0.8"/>
      </g>
     </g>
     <g id="text_13">
      <!-- 60 -->
      <g transform="translate(37.875 206.228419)scale(0.1 -0.1)">
       <defs>
        <path id="DejaVuSans-36" d="M 2113 2584 
Q 1688 2584 1439 2293 
Q 1191 2003 1191 1497 
Q 1191 994 1439 701 
Q 1688 409 2113 409 
Q 2538 409 2786 701 
Q 3034 994 3034 1497 
Q 3034 2003 2786 2293 
Q 2538 2584 2113 2584 
z
M 3366 4563 
L 3366 3988 
Q 3128 4100 2886 4159 
Q 2644 4219 2406 4219 
Q 1781 4219 1451 3797 
Q 1122 3375 1075 2522 
Q 1259 2794 1537 2939 
Q 1816 3084 2150 3084 
Q 2853 3084 3261 2657 
Q 3669 2231 3669 1497 
Q 3669 778 3244 343 
Q 2819 -91 2113 -91 
Q 1303 -91 875 529 
Q 447 1150 447 2328 
Q 447 3434 972 4092 
Q 1497 4750 2381 4750 
Q 2619 4750 2861 4703 
Q 3103 4656 3366 4563 
z
" transform="scale(0.015625)"/>
       </defs>
       <use xlink:href="#DejaVuSans-36"/>
       <use xlink:href="#DejaVuSans-30" x="63.623047"/>
      </g>
     </g>
    </g>
    <g id="ytick_5">
     <g id="line2d_13">
      <g>
       <use xlink:href="#mb18d4da1b4" x="57.6" y="170.326446" style="stroke: #000000; stroke-width: 0.8"/>
      </g>
     </g>
     <g id="text_14">
      <!-- 80 -->
      <g transform="translate(37.875 174.125664)scale(0.1 -0.1)">
       <defs>
        <path id="DejaVuSans-38" d="M 2034 2216 
Q 1584 2216 1326 1975 
Q 1069 1734 1069 1313 
Q 1069 891 1326 650 
Q 1584 409 2034 409 
Q 2484 409 2743 651 
Q 3003 894 3003 1313 
Q 3003 1734 2745 1975 
Q 2488 2216 2034 2216 
z
M 1403 2484 
Q 997 2584 770 2862 
Q 544 3141 544 3541 
Q 544 4100 942 4425 
Q 1341 4750 2034 4750 
Q 2731 4750 3128 4425 
Q 3525 4100 3525 3541 
Q 3525 3141 3298 2862 
Q 3072 2584 2669 2484 
Q 3125 2378 3379 2068 
Q 3634 1759 3634 1313 
Q 3634 634 3220 271 
Q 2806 -91 2034 -91 
Q 1263 -91 848 271 
Q 434 634 434 1313 
Q 434 1759 690 2068 
Q 947 2378 1403 2484 
z
M 1172 3481 
Q 1172 3119 1398 2916 
Q 1625 2713 2034 2713 
Q 2441 2713 2670 2916 
Q 2900 3119 2900 3481 
Q 2900 3844 2670 4047 
Q 2441 4250 2034 4250 
Q 1625 4250 1398 4047 
Q 1172 3844 1172 3481 
z
" transform="scale(0.015625)"/>
       </defs>
       <use xlink:href="#DejaVuSans-38"/>
       <use xlink:href="#DejaVuSans-30" x="63.623047"/>
      </g>
     </g>
    </g>
    <g id="ytick_6">
     <g id="line2d_14">
      <g>
       <use xlink:href="#mb18d4da1b4" x="57.6" y="138.223691" style="stroke: #000000; stroke-width: 0.8"/>
      </g>
     </g>
     <g id="text_15">
      <!-- 100 -->
      <g transform="translate(31.5125 142.02291)scale(0.1 -0.1)">
       <use xlink:href="#DejaVuSans-31"/>
       <use xlink:href="#DejaVuSans-30" x="63.623047"/>
       <use xlink:href="#DejaVuSans-30" x="127.246094"/>
      </g>
     </g>
    </g>
    <g id="ytick_7">
     <g id="line2d_15">
      <g>
       <use xlink:href="#mb18d4da1b4" x="57.6" y="106.120937" style="stroke: #000000; stroke-width: 0.8"/>
      </g>
     </g>
     <g id="text_16">
      <!-- 120 -->
      <g transform="translate(31.5125 109.920155)scale(0.1 -0.1)">
       <use xlink:href="#DejaVuSans-31"/>
       <use xlink:href="#DejaVuSans-32" x="63.623047"/>
       <use xlink:href="#DejaVuSans-30" x="127.246094"/>
      </g>
     </g>
    </g>
    <g id="ytick_8">
     <g id="line2d_16">
      <g>
       <use xlink:href="#mb18d4da1b4" x="57.6" y="74.018182" style="stroke: #000000; stroke-width: 0.8"/>
      </g>
     </g>
     <g id="text_17">
      <!-- 140 -->
      <g transform="translate(31.5125 77.817401)scale(0.1 -0.1)">
       <use xlink:href="#DejaVuSans-31"/>
       <use xlink:href="#DejaVuSans-34" x="63.623047"/>
       <use xlink:href="#DejaVuSans-30" x="127.246094"/>
      </g>
     </g>
    </g>
    <g id="ytick_9">
     <g id="line2d_17">
      <g>
       <use xlink:href="#mb18d4da1b4" x="57.6" y="41.915428" style="stroke: #000000; stroke-width: 0.8"/>
      </g>
     </g>
     <g id="text_18">
      <!-- 160 -->
      <g transform="translate(31.5125 45.714646)scale(0.1 -0.1)">
       <use xlink:href="#DejaVuSans-31"/>
       <use xlink:href="#DejaVuSans-36" x="63.623047"/>
       <use xlink:href="#DejaVuSans-30" x="127.246094"/>
      </g>
     </g>
    </g>
    <g id="text_19">
     <!-- Mean number of required repetitions of TPM -->
     <g transform="translate(25.432812 284.968625)rotate(-90)scale(0.1 -0.1)">
      <defs>
       <path id="DejaVuSans-4d" d="M 628 4666 
L 1569 4666 
L 2759 1491 
L 3956 4666 
L 4897 4666 
L 4897 0 
L 4281 0 
L 4281 4097 
L 3078 897 
L 2444 897 
L 1241 4097 
L 1241 0 
L 628 0 
L 628 4666 
z
" transform="scale(0.015625)"/>
       <path id="DejaVuSans-61" d="M 2194 1759 
Q 1497 1759 1228 1600 
Q 959 1441 959 1056 
Q 959 750 1161 570 
Q 1363 391 1709 391 
Q 2188 391 2477 730 
Q 2766 1069 2766 1631 
L 2766 1759 
L 2194 1759 
z
M 3341 1997 
L 3341 0 
L 2766 0 
L 2766 531 
Q 2569 213 2275 61 
Q 1981 -91 1556 -91 
Q 1019 -91 701 211 
Q 384 513 384 1019 
Q 384 1609 779 1909 
Q 1175 2209 1959 2209 
L 2766 2209 
L 2766 2266 
Q 2766 2663 2505 2880 
Q 2244 3097 1772 3097 
Q 1472 3097 1187 3025 
Q 903 2953 641 2809 
L 641 3341 
Q 956 3463 1253 3523 
Q 1550 3584 1831 3584 
Q 2591 3584 2966 3190 
Q 3341 2797 3341 1997 
z
" transform="scale(0.015625)"/>
       <path id="DejaVuSans-71" d="M 947 1747 
Q 947 1113 1208 752 
Q 1469 391 1925 391 
Q 2381 391 2643 752 
Q 2906 1113 2906 1747 
Q 2906 2381 2643 2742 
Q 2381 3103 1925 3103 
Q 1469 3103 1208 2742 
Q 947 2381 947 1747 
z
M 2906 525 
Q 2725 213 2448 61 
Q 2172 -91 1784 -91 
Q 1150 -91 751 415 
Q 353 922 353 1747 
Q 353 2572 751 3078 
Q 1150 3584 1784 3584 
Q 2172 3584 2448 3432 
Q 2725 3281 2906 2969 
L 2906 3500 
L 3481 3500 
L 3481 -1331 
L 2906 -1331 
L 2906 525 
z
" transform="scale(0.015625)"/>
       <path id="DejaVuSans-54" d="M -19 4666 
L 3928 4666 
L 3928 4134 
L 2272 4134 
L 2272 0 
L 1638 0 
L 1638 4134 
L -19 4134 
L -19 4666 
z
" transform="scale(0.015625)"/>
       <path id="DejaVuSans-50" d="M 1259 4147 
L 1259 2394 
L 2053 2394 
Q 2494 2394 2734 2622 
Q 2975 2850 2975 3272 
Q 2975 3691 2734 3919 
Q 2494 4147 2053 4147 
L 1259 4147 
z
M 628 4666 
L 2053 4666 
Q 2838 4666 3239 4311 
Q 3641 3956 3641 3272 
Q 3641 2581 3239 2228 
Q 2838 1875 2053 1875 
L 1259 1875 
L 1259 0 
L 628 0 
L 628 4666 
z
" transform="scale(0.015625)"/>
      </defs>
      <use xlink:href="#DejaVuSans-4d"/>
      <use xlink:href="#DejaVuSans-65" x="86.279297"/>
      <use xlink:href="#DejaVuSans-61" x="147.802734"/>
      <use xlink:href="#DejaVuSans-6e" x="209.082031"/>
      <use xlink:href="#DejaVuSans-20" x="272.460938"/>
      <use xlink:href="#DejaVuSans-6e" x="304.248047"/>
      <use xlink:href="#DejaVuSans-75" x="367.626953"/>
      <use xlink:href="#DejaVuSans-6d" x="431.005859"/>
      <use xlink:href="#DejaVuSans-62" x="528.417969"/>
      <use xlink:href="#DejaVuSans-65" x="591.894531"/>
      <use xlink:href="#DejaVuSans-72" x="653.417969"/>
      <use xlink:href="#DejaVuSans-20" x="694.53125"/>
      <use xlink:href="#DejaVuSans-6f" x="726.318359"/>
      <use xlink:href="#DejaVuSans-66" x="787.5"/>
      <use xlink:href="#DejaVuSans-20" x="822.705078"/>
      <use xlink:href="#DejaVuSans-72" x="854.492188"/>
      <use xlink:href="#DejaVuSans-65" x="893.355469"/>
      <use xlink:href="#DejaVuSans-71" x="954.878906"/>
      <use xlink:href="#DejaVuSans-75" x="1018.355469"/>
      <use xlink:href="#DejaVuSans-69" x="1081.734375"/>
      <use xlink:href="#DejaVuSans-72" x="1109.517578"/>
      <use xlink:href="#DejaVuSans-65" x="1148.380859"/>
      <use xlink:href="#DejaVuSans-64" x="1209.904297"/>
      <use xlink:href="#DejaVuSans-20" x="1273.380859"/>
      <use xlink:href="#DejaVuSans-72" x="1305.167969"/>
      <use xlink:href="#DejaVuSans-65" x="1344.03125"/>
      <use xlink:href="#DejaVuSans-70" x="1405.554688"/>
      <use xlink:href="#DejaVuSans-65" x="1469.03125"/>
      <use xlink:href="#DejaVuSans-74" x="1530.554688"/>
      <use xlink:href="#DejaVuSans-69" x="1569.763672"/>
      <use xlink:href="#DejaVuSans-74" x="1597.546875"/>
      <use xlink:href="#DejaVuSans-69" x="1636.755859"/>
      <use xlink:href="#DejaVuSans-6f" x="1664.539062"/>
      <use xlink:href="#DejaVuSans-6e" x="1725.720703"/>
      <use xlink:href="#DejaVuSans-73" x="1789.099609"/>
      <use xlink:href="#DejaVuSans-20" x="1841.199219"/>
      <use xlink:href="#DejaVuSans-6f" x="1872.986328"/>
      <use xlink:href="#DejaVuSans-66" x="1934.167969"/>
      <use xlink:href="#DejaVuSans-20" x="1969.373047"/>
      <use xlink:href="#DejaVuSans-54" x="2001.160156"/>
      <use xlink:href="#DejaVuSans-50" x="2062.244141"/>
      <use xlink:href="#DejaVuSans-4d" x="2122.546875"/>
     </g>
    </g>
   </g>
   <g id="line2d_18">
    <path d="M 73.832727 295.488 
L 75.756606 292.353345 
L 75.756606 292.353345 
L 77.680485 289.65241 
L 77.680485 289.65241 
L 79.604364 287.325493 
L 79.604364 287.325493 
L 81.528242 285.319409 
L 81.528242 285.319409 
L 83.452121 283.58695 
L 83.452121 283.58695 
L 85.376 282.086381 
L 85.376 282.086381 
L 86.818909 281.090856 
L 86.818909 281.090856 
L 90.185697 279.11948 
L 90.185697 279.11948 
L 92.590545 277.949107 
L 92.590545 277.949107 
L 96.919273 276.191395 
L 100.76703 274.877894 
L 100.76703 274.877894 
L 106.538667 273.141548 
L 106.538667 273.141548 
L 119.524848 269.548626 
L 119.524848 269.548626 
L 133.47297 265.836631 
L 133.47297 265.836631 
L 142.611394 263.636623 
L 142.611394 263.636623 
L 150.787879 261.923957 
L 150.787879 261.923957 
L 158.002424 260.631073 
L 158.002424 260.631073 
L 167.140848 259.251071 
L 167.140848 259.251071 
L 177.241212 257.945557 
L 177.241212 257.945557 
L 196.48 255.48806 
L 205.618424 254.106551 
L 205.618424 254.106551 
L 212.352 252.960754 
L 224.857212 250.58031 
L 224.857212 250.58031 
L 253.715394 244.870088 
L 253.715394 244.870088 
L 265.258667 242.991152 
L 265.258667 242.991152 
L 273.435152 241.875926 
L 273.435152 241.875926 
L 285.459394 240.495877 
L 306.141091 238.262792 
L 327.784727 235.161006 
L 350.390303 231.88826 
L 373.957818 231.630998 
L 398.487273 223.577397 
L 398.487273 223.577397 
" clip-path="url(#p5c412169e1)" style="fill: none; stroke: #1f77b4; stroke-width: 1.5; stroke-linecap: square"/>
   </g>
   <g id="line2d_19">
    <path d="M 73.832727 291.652827 
L 75.756606 287.570728 
L 75.756606 287.570728 
L 77.680485 283.896778 
L 77.680485 283.896778 
L 79.604364 280.586586 
L 79.604364 280.586586 
L 81.528242 277.599989 
L 81.528242 277.599989 
L 83.452121 274.900714 
L 83.452121 274.900714 
L 86.337939 271.319908 
L 86.337939 271.319908 
L 88.742788 268.703836 
L 88.742788 268.703836 
L 90.666667 266.816617 
L 90.666667 266.816617 
L 92.590545 265.088442 
L 92.590545 265.088442 
L 96.438303 262.033652 
L 96.438303 262.033652 
L 99.805091 259.716838 
L 99.805091 259.716838 
L 102.209939 258.223738 
L 102.209939 258.223738 
L 106.538667 255.802404 
L 106.538667 255.802404 
L 111.829333 253.189542 
L 111.829333 253.189542 
L 117.12 250.837983 
L 117.12 250.837983 
L 125.296485 247.521251 
L 125.296485 247.521251 
L 134.915879 243.889892 
L 134.915879 243.889892 
L 152.711758 237.469031 
L 152.711758 237.469031 
L 198.403879 221.251882 
L 198.403879 221.251882 
L 208.023273 218.075789 
L 208.023273 218.075789 
L 217.161697 215.304628 
L 217.161697 215.304628 
L 224.857212 213.221057 
L 224.857212 213.221057 
L 229.666909 212.05517 
L 229.666909 212.05517 
L 239.286303 210.067247 
L 239.286303 210.067247 
L 246.981818 208.811179 
L 253.715394 207.937357 
L 253.715394 207.937357 
L 263.815758 206.938749 
L 263.815758 206.938749 
L 285.459394 205.185629 
L 298.445576 203.593197 
L 298.445576 203.593197 
L 306.141091 202.240558 
L 325.860848 197.37495 
L 325.860848 197.37495 
L 327.784727 196.832756 
L 349.909333 191.412641 
L 349.909333 191.412641 
L 350.390303 191.334876 
L 373.957818 190.453985 
L 398.487273 177.711596 
L 398.487273 177.711596 
" clip-path="url(#p5c412169e1)" style="fill: none; stroke: #ff7f0e; stroke-width: 1.5; stroke-linecap: square"/>
   </g>
   <g id="line2d_20">
    <path d="M 73.832727 288.390682 
L 75.756606 283.199661 
L 75.756606 283.199661 
L 77.680485 278.534816 
L 77.680485 278.534816 
L 79.604364 274.337448 
L 79.604364 274.337448 
L 81.528242 270.554257 
L 81.528242 270.554257 
L 83.452121 267.136959 
L 83.452121 267.136959 
L 85.376 264.041919 
L 85.376 264.041919 
L 86.818909 261.908308 
L 86.818909 261.908308 
L 90.185697 257.465797 
L 90.185697 257.465797 
L 92.590545 254.679645 
L 92.590545 254.679645 
L 96.438303 250.750797 
L 96.438303 250.750797 
L 99.805091 247.730044 
L 99.805091 247.730044 
L 102.209939 245.755741 
L 102.209939 245.755741 
L 106.538667 242.492232 
L 106.538667 242.492232 
L 111.829333 238.862489 
L 111.829333 238.862489 
L 117.12 235.486606 
L 117.12 235.486606 
L 125.296485 230.567823 
L 125.296485 230.567823 
L 134.915879 225.086715 
L 134.915879 225.086715 
L 144.054303 220.164588 
L 144.054303 220.164588 
L 152.711758 215.803402 
L 152.711758 215.803402 
L 159.926303 212.425714 
L 159.926303 212.425714 
L 167.621818 209.093525 
L 173.874424 206.587469 
L 173.874424 206.587469 
L 181.569939 203.730405 
L 181.569939 203.730405 
L 188.784485 201.249218 
L 188.784485 201.249218 
L 198.403879 198.176177 
L 198.403879 198.176177 
L 210.428121 194.602969 
L 210.428121 194.602969 
L 224.857212 190.573229 
L 224.857212 190.573229 
L 239.286303 186.790829 
L 239.286303 186.790829 
L 248.424727 184.563203 
L 248.424727 184.563203 
L 258.044121 182.407739 
L 258.044121 182.407739 
L 265.739636 180.848347 
L 277.763879 178.723556 
L 277.763879 178.723556 
L 285.459394 177.546194 
L 306.141091 174.749534 
L 325.860848 171.674869 
L 325.860848 171.674869 
L 327.784727 171.309533 
L 350.390303 165.866105 
L 373.957818 159.012422 
L 398.487273 154.44887 
L 398.487273 154.44887 
" clip-path="url(#p5c412169e1)" style="fill: none; stroke: #2ca02c; stroke-width: 1.5; stroke-linecap: square"/>
   </g>
   <g id="line2d_21">
    <path d="M 73.832727 283.720975 
L 75.756606 278.013141 
L 75.756606 278.013141 
L 77.680485 272.805786 
L 77.680485 272.805786 
L 79.604364 268.050662 
L 79.604364 268.050662 
L 81.528242 263.703368 
L 81.528242 263.703368 
L 84.414061 257.858814 
L 84.414061 257.858814 
L 86.818909 253.530155 
L 86.818909 253.530155 
L 90.185697 248.170705 
L 90.185697 248.170705 
L 92.590545 244.768104 
L 92.590545 244.768104 
L 96.438303 239.930038 
L 96.438303 239.930038 
L 98.362182 237.746307 
L 98.362182 237.746307 
L 102.209939 233.760517 
L 102.209939 233.760517 
L 106.538667 229.762583 
L 106.538667 229.762583 
L 110.386424 226.535878 
L 110.386424 226.535878 
L 115.677091 222.464726 
L 115.677091 222.464726 
L 121.448727 218.36344 
L 128.663273 213.570133 
L 128.663273 213.570133 
L 136.839758 208.449326 
L 136.839758 208.449326 
L 144.054303 204.157396 
L 144.054303 204.157396 
L 152.711758 199.287627 
L 152.711758 199.287627 
L 159.926303 195.484557 
L 159.926303 195.484557 
L 167.621818 191.706179 
L 173.874424 188.856176 
L 173.874424 188.856176 
L 181.569939 185.616756 
L 181.569939 185.616756 
L 188.784485 182.83263 
L 188.784485 182.83263 
L 198.403879 179.450612 
L 198.403879 179.450612 
L 208.023273 176.361595 
L 208.023273 176.361595 
L 221.490424 172.331547 
L 221.490424 172.331547 
L 248.424727 164.405048 
L 248.424727 164.405048 
L 285.459394 153.079568 
L 301.812364 148.702193 
L 301.812364 148.702193 
L 306.141091 147.711992 
L 323.456 144.751812 
L 323.456 144.751812 
L 327.784727 144.303788 
L 348.466424 143.994595 
L 348.466424 143.994595 
L 350.390303 144.120573 
L 373.957818 147.381516 
L 398.487273 151.145479 
L 398.487273 151.145479 
" clip-path="url(#p5c412169e1)" style="fill: none; stroke: #d62728; stroke-width: 1.5; stroke-linecap: square"/>
   </g>
   <g id="line2d_22">
    <path d="M 73.832727 280.717263 
L 75.756606 274.262584 
L 75.756606 274.262584 
L 77.680485 268.462987 
L 77.680485 268.462987 
L 79.604364 263.237308 
L 79.604364 263.237308 
L 81.528242 258.512886 
L 81.528242 258.512886 
L 83.452121 254.224883 
L 83.452121 254.224883 
L 85.376 250.31563 
L 85.376 250.31563 
L 86.818909 247.601274 
L 86.818909 247.601274 
L 90.185697 241.878784 
L 90.185697 241.878784 
L 92.590545 238.224995 
L 92.590545 238.224995 
L 96.438303 232.959283 
L 96.438303 232.959283 
L 99.805091 228.802015 
L 99.805091 228.802015 
L 103.652848 224.42932 
L 103.652848 224.42932 
L 107.981576 219.863706 
L 107.981576 219.863706 
L 113.753212 214.191557 
L 113.753212 214.191557 
L 119.524848 208.87243 
L 119.524848 208.87243 
L 125.296485 203.849665 
L 125.296485 203.849665 
L 131.549091 198.732433 
L 137.320727 194.321043 
L 137.320727 194.321043 
L 142.611394 190.554197 
L 142.611394 190.554197 
L 148.38303 186.754623 
L 148.38303 186.754623 
L 154.635636 182.997783 
L 159.926303 180.093534 
L 159.926303 180.093534 
L 167.621818 176.263379 
L 173.874424 173.431538 
L 173.874424 173.431538 
L 181.569939 170.190699 
L 181.569939 170.190699 
L 195.99903 164.463697 
L 195.99903 164.463697 
L 212.352 157.958481 
L 239.286303 147.063235 
L 239.286303 147.063235 
L 248.424727 143.671439 
L 248.424727 143.671439 
L 258.044121 140.4879 
L 258.044121 140.4879 
L 265.739636 138.286652 
L 273.435152 136.404532 
L 273.435152 136.404532 
L 281.130667 134.813192 
L 281.130667 134.813192 
L 285.459394 134.023125 
L 306.141091 130.711642 
L 325.860848 127.044357 
L 325.860848 127.044357 
L 327.784727 126.627124 
L 350.390303 121.540518 
L 373.957818 118.320758 
L 398.487273 106.332674 
L 398.487273 106.332674 
" clip-path="url(#p5c412169e1)" style="fill: none; stroke: #9467bd; stroke-width: 1.5; stroke-linecap: square"/>
   </g>
   <g id="line2d_23">
    <path d="M 73.832727 279.90105 
L 75.756606 272.490306 
L 75.756606 272.490306 
L 77.680485 265.706975 
L 77.680485 265.706975 
L 79.604364 259.490653 
L 79.604364 259.490653 
L 81.528242 253.786288 
L 81.528242 253.786288 
L 84.414061 246.081317 
L 84.414061 246.081317 
L 86.818909 240.346141 
L 86.818909 240.346141 
L 90.185697 233.211785 
L 90.185697 233.211785 
L 92.590545 228.666054 
L 92.590545 228.666054 
L 94.995394 224.514418 
L 94.995394 224.514418 
L 98.362182 219.271609 
L 98.362182 219.271609 
L 100.76703 215.876355 
L 100.76703 215.876355 
L 104.614788 210.951451 
L 104.614788 210.951451 
L 107.981576 207.071996 
L 107.981576 207.071996 
L 111.829333 203.0404 
L 111.829333 203.0404 
L 115.677091 199.361459 
L 115.677091 199.361459 
L 119.524848 195.971597 
L 119.524848 195.971597 
L 123.853576 192.441214 
L 123.853576 192.441214 
L 128.663273 188.80521 
L 128.663273 188.80521 
L 133.47297 185.414104 
L 133.47297 185.414104 
L 138.282667 182.22251 
L 138.282667 182.22251 
L 144.054303 178.606452 
L 144.054303 178.606452 
L 152.711758 173.522502 
L 152.711758 173.522502 
L 159.926303 169.519503 
L 159.926303 169.519503 
L 169.545697 164.413238 
L 169.545697 164.413238 
L 181.569939 158.277958 
L 181.569939 158.277958 
L 196.48 150.942957 
L 208.023273 145.502973 
L 208.023273 145.502973 
L 217.161697 141.418774 
L 217.161697 141.418774 
L 227.262061 137.225617 
L 227.262061 137.225617 
L 234.957576 134.311429 
L 234.957576 134.311429 
L 242.653091 131.671353 
L 242.653091 131.671353 
L 248.424727 129.877419 
L 248.424727 129.877419 
L 258.044121 127.225966 
L 258.044121 127.225966 
L 265.739636 125.366227 
L 283.535515 121.554656 
L 283.535515 121.554656 
L 285.459394 121.15005 
L 301.812364 117.421085 
L 301.812364 117.421085 
L 306.141091 116.299475 
L 327.784727 109.829032 
L 349.909333 103.697962 
L 349.909333 103.697962 
L 350.390303 103.601759 
L 373.957818 101.371996 
L 398.487273 87.054646 
L 398.487273 87.054646 
" clip-path="url(#p5c412169e1)" style="fill: none; stroke: #8c564b; stroke-width: 1.5; stroke-linecap: square"/>
   </g>
   <g id="line2d_24">
    <path d="M 73.832727 279.819131 
L 75.756606 270.914638 
L 75.756606 270.914638 
L 77.680485 262.912008 
L 77.680485 262.912008 
L 79.604364 255.710561 
L 79.604364 255.710561 
L 81.528242 249.219314 
L 81.528242 249.219314 
L 83.452121 243.356237 
L 83.452121 243.356237 
L 85.376 238.047548 
L 85.376 238.047548 
L 86.818909 234.38976 
L 86.818909 234.38976 
L 90.185697 226.78388 
L 90.185697 226.78388 
L 92.590545 222.026941 
L 92.590545 222.026941 
L 94.995394 217.73506 
L 94.995394 217.73506 
L 98.362182 212.370592 
L 98.362182 212.370592 
L 100.76703 208.916785 
L 100.76703 208.916785 
L 104.614788 203.909754 
L 104.614788 203.909754 
L 107.981576 199.944316 
L 107.981576 199.944316 
L 112.310303 195.279779 
L 117.12 190.530765 
L 117.12 190.530765 
L 121.448727 186.555181 
L 127.220364 181.601438 
L 127.220364 181.601438 
L 133.47297 176.609171 
L 133.47297 176.609171 
L 138.282667 173.005705 
L 138.282667 173.005705 
L 144.054303 168.936396 
L 144.054303 168.936396 
L 150.787879 164.522668 
L 150.787879 164.522668 
L 157.521455 160.443471 
L 157.521455 160.443471 
L 163.293091 157.186175 
L 163.293091 157.186175 
L 169.545697 153.871361 
L 169.545697 153.871361 
L 179.165091 149.111712 
L 179.165091 149.111712 
L 188.784485 144.63213 
L 188.784485 144.63213 
L 200.327758 139.466308 
L 200.327758 139.466308 
L 212.352 134.255513 
L 224.857212 129.11549 
L 224.857212 129.11549 
L 229.666909 127.264099 
L 229.666909 127.264099 
L 239.286303 123.864917 
L 239.286303 123.864917 
L 246.981818 121.503254 
L 253.715394 119.731424 
L 253.715394 119.731424 
L 261.410909 118.04477 
L 261.410909 118.04477 
L 265.739636 117.240759 
L 277.763879 115.395559 
L 277.763879 115.395559 
L 285.459394 114.320416 
L 298.445576 112.072603 
L 304.217212 110.673306 
L 304.217212 110.673306 
L 306.141091 110.129298 
L 323.456 103.083168 
L 323.456 103.083168 
L 327.784727 100.691205 
L 350.390303 86.233415 
L 373.476848 81.381046 
L 373.476848 81.381046 
L 373.957818 81.584662 
L 398.487273 120.706363 
L 398.487273 120.706363 
" clip-path="url(#p5c412169e1)" style="fill: none; stroke: #e377c2; stroke-width: 1.5; stroke-linecap: square"/>
   </g>
   <g id="line2d_25">
    <path d="M 73.832727 283.154348 
L 75.756606 272.101824 
L 75.756606 272.101824 
L 77.680485 262.357062 
L 77.680485 262.357062 
L 79.604364 253.761572 
L 79.604364 253.761572 
L 81.528242 246.172342 
L 81.528242 246.172342 
L 83.452121 239.460682 
L 83.452121 239.460682 
L 85.376 233.511134 
L 85.376 233.511134 
L 86.818909 229.486564 
L 86.818909 229.486564 
L 89.223758 223.49659 
L 89.223758 223.49659 
L 90.666667 220.276172 
L 90.666667 220.276172 
L 92.590545 216.353398 
L 92.590545 216.353398 
L 94.995394 211.955471 
L 94.995394 211.955471 
L 97.881212 207.27566 
L 97.881212 207.27566 
L 100.76703 203.099633 
L 100.76703 203.099633 
L 104.614788 198.099663 
L 104.614788 198.099663 
L 109.424485 192.454546 
L 109.424485 192.454546 
L 114.234182 187.209016 
L 114.234182 187.209016 
L 121.448727 179.732172 
L 129.625212 171.597241 
L 129.625212 171.597241 
L 136.839758 164.73728 
L 136.839758 164.73728 
L 142.611394 159.548364 
L 142.611394 159.548364 
L 148.38303 154.700431 
L 148.38303 154.700431 
L 154.154667 150.247874 
L 154.154667 150.247874 
L 158.002424 147.515227 
L 158.002424 147.515227 
L 163.293091 144.070762 
L 163.293091 144.070762 
L 167.621818 141.514965 
L 173.393455 138.447475 
L 173.393455 138.447475 
L 177.241212 136.595388 
L 177.241212 136.595388 
L 181.569939 134.669085 
L 181.569939 134.669085 
L 188.784485 131.749172 
L 188.784485 131.749172 
L 198.403879 128.203852 
L 198.403879 128.203852 
L 217.161697 121.444763 
L 217.161697 121.444763 
L 229.666909 116.631508 
L 229.666909 116.631508 
L 248.424727 109.241011 
L 248.424727 109.241011 
L 258.044121 105.754563 
L 258.044121 105.754563 
L 265.739636 103.286992 
L 273.435152 101.170045 
L 273.435152 101.170045 
L 281.130667 99.409312 
L 281.130667 99.409312 
L 285.459394 98.556911 
L 306.141091 95.044845 
L 323.456 90.804595 
L 323.456 90.804595 
L 327.784727 89.27148 
L 348.466424 78.963622 
L 348.466424 78.963622 
L 350.390303 77.831265 
L 373.476848 67.244814 
L 373.476848 67.244814 
L 373.957818 67.179852 
L 398.487273 84.740668 
L 398.487273 84.740668 
" clip-path="url(#p5c412169e1)" style="fill: none; stroke: #7f7f7f; stroke-width: 1.5; stroke-linecap: square"/>
   </g>
   <g id="line2d_26">
    <path d="M 73.832727 276.821672 
L 75.756606 267.212633 
L 75.756606 267.212633 
L 77.680485 258.459733 
L 77.680485 258.459733 
L 79.604364 250.479004 
L 79.604364 250.479004 
L 81.528242 243.193809 
L 81.528242 243.193809 
L 83.452121 236.53432 
L 83.452121 236.53432 
L 85.376 230.437013 
L 85.376 230.437013 
L 86.818909 226.198056 
L 86.818909 226.198056 
L 90.185697 217.287889 
L 90.185697 217.287889 
L 92.590545 211.655895 
L 92.590545 211.655895 
L 94.995394 206.544313 
L 94.995394 206.544313 
L 98.362182 200.133386 
L 98.362182 200.133386 
L 100.76703 196.007094 
L 100.76703 196.007094 
L 104.133818 190.759243 
L 104.133818 190.759243 
L 106.538667 187.332062 
L 106.538667 187.332062 
L 110.386424 182.309584 
L 110.386424 182.309584 
L 114.234182 177.754439 
L 114.234182 177.754439 
L 117.12 174.589209 
L 117.12 174.589209 
L 121.448727 170.17259 
L 125.296485 166.524338 
L 125.296485 166.524338 
L 131.068121 161.44974 
L 131.068121 161.44974 
L 134.915879 158.289219 
L 134.915879 158.289219 
L 140.687515 153.830875 
L 140.687515 153.830875 
L 146.940121 149.334078 
L 146.940121 149.334078 
L 152.711758 145.453254 
L 152.711758 145.453254 
L 158.002424 142.099498 
L 158.002424 142.099498 
L 164.25503 138.361131 
L 164.25503 138.361131 
L 169.545697 135.368125 
L 169.545697 135.368125 
L 177.241212 131.256246 
L 177.241212 131.256246 
L 184.455758 127.621384 
L 184.455758 127.621384 
L 195.99903 122.155096 
L 195.99903 122.155096 
L 205.618424 117.856712 
L 205.618424 117.856712 
L 217.161697 112.95099 
L 217.161697 112.95099 
L 229.666909 107.934998 
L 229.666909 107.934998 
L 242.653091 103.083461 
L 242.653091 103.083461 
L 253.715394 99.259654 
L 253.715394 99.259654 
L 265.739636 95.410745 
L 283.535515 90.148181 
L 283.535515 90.148181 
L 301.812364 85.012198 
L 301.812364 85.012198 
L 306.141091 83.830182 
L 325.860848 79.031187 
L 325.860848 79.031187 
L 327.784727 78.661888 
L 348.466424 77.043308 
L 348.466424 77.043308 
L 350.390303 77.177528 
L 373.957818 82.472776 
L 398.487273 73.313147 
L 398.487273 73.313147 
" clip-path="url(#p5c412169e1)" style="fill: none; stroke: #bcbd22; stroke-width: 1.5; stroke-linecap: square"/>
   </g>
   <g id="line2d_27">
    <path d="M 73.832727 272.211412 
L 76.718545 259.33045 
L 76.718545 259.33045 
L 79.123394 249.571587 
L 79.123394 249.571587 
L 81.528242 240.618712 
L 81.528242 240.618712 
L 84.414061 230.841522 
L 84.414061 230.841522 
L 86.818909 223.424218 
L 86.818909 223.424218 
L 90.185697 214.038152 
L 90.185697 214.038152 
L 92.590545 207.974756 
L 92.590545 207.974756 
L 94.995394 202.39067 
L 94.995394 202.39067 
L 98.362182 195.294948 
L 98.362182 195.294948 
L 100.76703 190.688147 
L 100.76703 190.688147 
L 104.133818 184.808456 
L 104.133818 184.808456 
L 106.538667 180.971788 
L 106.538667 180.971788 
L 110.386424 175.38242 
L 110.386424 175.38242 
L 114.234182 170.377988 
L 114.234182 170.377988 
L 117.12 166.953263 
L 117.12 166.953263 
L 121.448727 162.264146 
L 121.448727 162.264146 
L 125.296485 158.477907 
L 125.296485 158.477907 
L 129.625212 154.572717 
L 129.625212 154.572717 
L 133.47297 151.362407 
L 133.47297 151.362407 
L 138.282667 147.630841 
L 138.282667 147.630841 
L 144.054303 143.481327 
L 144.054303 143.481327 
L 150.787879 138.984792 
L 150.787879 138.984792 
L 158.002424 134.471277 
L 158.002424 134.471277 
L 167.140848 129.08122 
L 167.140848 129.08122 
L 173.874424 125.288748 
L 173.874424 125.288748 
L 184.455758 119.582712 
L 184.455758 119.582712 
L 196.48 113.453409 
L 196.48 113.453409 
L 205.618424 109.062244 
L 205.618424 109.062244 
L 212.352 105.989484 
L 212.352 105.989484 
L 223.414303 101.272336 
L 223.414303 101.272336 
L 229.666909 98.801663 
L 229.666909 98.801663 
L 239.286303 95.2907 
L 239.286303 95.2907 
L 248.424727 92.283698 
L 248.424727 92.283698 
L 258.044121 89.449081 
L 258.044121 89.449081 
L 265.739636 87.399948 
L 265.739636 87.399948 
L 277.763879 84.502304 
L 277.763879 84.502304 
L 306.141091 78.123134 
L 306.141091 78.123134 
L 327.303758 72.537617 
L 327.303758 72.537617 
L 327.784727 72.396823 
L 327.784727 72.396823 
L 350.390303 65.588562 
L 350.390303 65.588562 
L 373.476848 62.606292 
L 373.476848 62.606292 
L 373.957818 62.671299 
L 398.487273 82.338878 
L 398.487273 82.338878 
" clip-path="url(#p5c412169e1)" style="fill: none; stroke: #17becf; stroke-width: 1.5; stroke-linecap: square"/>
   </g>
   <g id="line2d_28">
    <path d="M 73.832727 272.752207 
L 75.756606 261.646215 
L 75.756606 261.646215 
L 77.680485 251.759166 
L 77.680485 251.759166 
L 79.604364 242.934547 
L 79.604364 242.934547 
L 81.528242 235.033504 
L 81.528242 235.033504 
L 83.452121 227.933271 
L 83.452121 227.933271 
L 85.376 221.52571 
L 85.376 221.52571 
L 86.818909 217.117067 
L 86.818909 217.117067 
L 90.185697 207.943803 
L 90.185697 207.943803 
L 92.590545 202.182685 
L 92.590545 202.182685 
L 94.995394 196.95243 
L 94.995394 196.95243 
L 98.362182 190.35062 
L 98.362182 190.35062 
L 100.76703 186.051905 
L 100.76703 186.051905 
L 104.614788 179.744206 
L 104.614788 179.744206 
L 107.981576 174.688409 
L 107.981576 174.688409 
L 112.310303 168.695375 
L 112.310303 168.695375 
L 115.677091 164.366785 
L 115.677091 164.366785 
L 119.524848 159.733502 
L 119.524848 159.733502 
L 123.853576 154.889892 
L 123.853576 154.889892 
L 128.663273 149.941457 
L 128.663273 149.941457 
L 131.549091 147.183634 
L 131.549091 147.183634 
L 134.915879 144.160035 
L 134.915879 144.160035 
L 138.282667 141.337883 
L 138.282667 141.337883 
L 142.611394 137.989188 
L 142.611394 137.989188 
L 146.940121 134.929272 
L 146.940121 134.929272 
L 150.787879 132.42349 
L 150.787879 132.42349 
L 155.597576 129.528403 
L 155.597576 129.528403 
L 159.926303 127.098939 
L 159.926303 127.098939 
L 169.545697 122.04274 
L 169.545697 122.04274 
L 181.569939 115.751195 
L 181.569939 115.751195 
L 188.784485 111.708522 
L 188.784485 111.708522 
L 196.48 107.078081 
L 196.48 107.078081 
L 204.656485 101.836612 
L 204.656485 101.836612 
L 223.414303 89.592832 
L 223.414303 89.592832 
L 229.185939 86.168872 
L 229.185939 86.168872 
L 229.666909 85.897971 
L 229.666909 85.897971 
L 234.957576 83.094951 
L 234.957576 83.094951 
L 239.286303 81.074003 
L 239.286303 81.074003 
L 245.057939 78.81305 
L 245.057939 78.81305 
L 248.424727 77.737755 
L 248.424727 77.737755 
L 253.715394 76.416675 
L 253.715394 76.416675 
L 258.044121 75.660316 
L 258.044121 75.660316 
L 263.815758 75.0619 
L 263.815758 75.0619 
L 265.739636 74.953002 
L 265.739636 74.953002 
L 273.435152 74.851667 
L 273.435152 74.851667 
L 285.459394 75.079287 
L 285.459394 75.079287 
L 298.445576 74.295993 
L 298.445576 74.295993 
L 301.812364 73.715 
L 301.812364 73.715 
L 306.141091 72.682901 
L 306.141091 72.682901 
L 323.456 65.555608 
L 323.456 65.555608 
L 327.784727 63.332146 
L 327.784727 63.332146 
L 348.466424 56.676641 
L 348.466424 56.676641 
L 350.390303 56.849599 
L 350.390303 56.849599 
L 373.476848 74.820128 
L 373.476848 74.820128 
L 373.957818 75.398456 
L 373.957818 75.398456 
L 398.487273 53.568 
L 398.487273 53.568 
" clip-path="url(#p5c412169e1)" style="fill: none; stroke: #1f77b4; stroke-width: 1.5; stroke-linecap: square"/>
   </g>
   <g id="patch_3">
    <path d="M 57.6 307.584 
L 57.6 41.472 
" style="fill: none; stroke: #000000; stroke-width: 0.8; stroke-linejoin: miter; stroke-linecap: square"/>
   </g>
   <g id="patch_4">
    <path d="M 414.72 307.584 
L 414.72 41.472 
" style="fill: none; stroke: #000000; stroke-width: 0.8; stroke-linejoin: miter; stroke-linecap: square"/>
   </g>
   <g id="patch_5">
    <path d="M 57.6 307.584 
L 414.72 307.584 
" style="fill: none; stroke: #000000; stroke-width: 0.8; stroke-linejoin: miter; stroke-linecap: square"/>
   </g>
   <g id="patch_6">
    <path d="M 57.6 41.472 
L 414.72 41.472 
" style="fill: none; stroke: #000000; stroke-width: 0.8; stroke-linejoin: miter; stroke-linecap: square"/>
   </g>
   <g id="text_20">
    <!-- QBER influence on mean number of required re-runs of TPM with L=5 -->
    <g transform="translate(27.479062 35.472)scale(0.12 -0.12)">
     <defs>
      <path id="DejaVuSans-51" d="M 2522 4238 
Q 1834 4238 1429 3725 
Q 1025 3213 1025 2328 
Q 1025 1447 1429 934 
Q 1834 422 2522 422 
Q 3209 422 3611 934 
Q 4013 1447 4013 2328 
Q 4013 3213 3611 3725 
Q 3209 4238 2522 4238 
z
M 3406 84 
L 4238 -825 
L 3475 -825 
L 2784 -78 
Q 2681 -84 2626 -87 
Q 2572 -91 2522 -91 
Q 1538 -91 948 567 
Q 359 1225 359 2328 
Q 359 3434 948 4092 
Q 1538 4750 2522 4750 
Q 3503 4750 4090 4092 
Q 4678 3434 4678 2328 
Q 4678 1516 4351 937 
Q 4025 359 3406 84 
z
" transform="scale(0.015625)"/>
      <path id="DejaVuSans-42" d="M 1259 2228 
L 1259 519 
L 2272 519 
Q 2781 519 3026 730 
Q 3272 941 3272 1375 
Q 3272 1813 3026 2020 
Q 2781 2228 2272 2228 
L 1259 2228 
z
M 1259 4147 
L 1259 2741 
L 2194 2741 
Q 2656 2741 2882 2914 
Q 3109 3088 3109 3444 
Q 3109 3797 2882 3972 
Q 2656 4147 2194 4147 
L 1259 4147 
z
M 628 4666 
L 2241 4666 
Q 2963 4666 3353 4366 
Q 3744 4066 3744 3513 
Q 3744 3084 3544 2831 
Q 3344 2578 2956 2516 
Q 3422 2416 3680 2098 
Q 3938 1781 3938 1306 
Q 3938 681 3513 340 
Q 3088 0 2303 0 
L 628 0 
L 628 4666 
z
" transform="scale(0.015625)"/>
      <path id="DejaVuSans-45" d="M 628 4666 
L 3578 4666 
L 3578 4134 
L 1259 4134 
L 1259 2753 
L 3481 2753 
L 3481 2222 
L 1259 2222 
L 1259 531 
L 3634 531 
L 3634 0 
L 628 0 
L 628 4666 
z
" transform="scale(0.015625)"/>
      <path id="DejaVuSans-52" d="M 2841 2188 
Q 3044 2119 3236 1894 
Q 3428 1669 3622 1275 
L 4263 0 
L 3584 0 
L 2988 1197 
Q 2756 1666 2539 1819 
Q 2322 1972 1947 1972 
L 1259 1972 
L 1259 0 
L 628 0 
L 628 4666 
L 2053 4666 
Q 2853 4666 3247 4331 
Q 3641 3997 3641 3322 
Q 3641 2881 3436 2590 
Q 3231 2300 2841 2188 
z
M 1259 4147 
L 1259 2491 
L 2053 2491 
Q 2509 2491 2742 2702 
Q 2975 2913 2975 3322 
Q 2975 3731 2742 3939 
Q 2509 4147 2053 4147 
L 1259 4147 
z
" transform="scale(0.015625)"/>
      <path id="DejaVuSans-63" d="M 3122 3366 
L 3122 2828 
Q 2878 2963 2633 3030 
Q 2388 3097 2138 3097 
Q 1578 3097 1268 2742 
Q 959 2388 959 1747 
Q 959 1106 1268 751 
Q 1578 397 2138 397 
Q 2388 397 2633 464 
Q 2878 531 3122 666 
L 3122 134 
Q 2881 22 2623 -34 
Q 2366 -91 2075 -91 
Q 1284 -91 818 406 
Q 353 903 353 1747 
Q 353 2603 823 3093 
Q 1294 3584 2113 3584 
Q 2378 3584 2631 3529 
Q 2884 3475 3122 3366 
z
" transform="scale(0.015625)"/>
      <path id="DejaVuSans-2d" d="M 313 2009 
L 1997 2009 
L 1997 1497 
L 313 1497 
L 313 2009 
z
" transform="scale(0.015625)"/>
      <path id="DejaVuSans-77" d="M 269 3500 
L 844 3500 
L 1563 769 
L 2278 3500 
L 2956 3500 
L 3675 769 
L 4391 3500 
L 4966 3500 
L 4050 0 
L 3372 0 
L 2619 2869 
L 1863 0 
L 1184 0 
L 269 3500 
z
" transform="scale(0.015625)"/>
      <path id="DejaVuSans-4c" d="M 628 4666 
L 1259 4666 
L 1259 531 
L 3531 531 
L 3531 0 
L 628 0 
L 628 4666 
z
" transform="scale(0.015625)"/>
      <path id="DejaVuSans-3d" d="M 678 2906 
L 4684 2906 
L 4684 2381 
L 678 2381 
L 678 2906 
z
M 678 1631 
L 4684 1631 
L 4684 1100 
L 678 1100 
L 678 1631 
z
" transform="scale(0.015625)"/>
     </defs>
     <use xlink:href="#DejaVuSans-51"/>
     <use xlink:href="#DejaVuSans-42" x="78.710938"/>
     <use xlink:href="#DejaVuSans-45" x="147.314453"/>
     <use xlink:href="#DejaVuSans-52" x="210.498047"/>
     <use xlink:href="#DejaVuSans-20" x="279.980469"/>
     <use xlink:href="#DejaVuSans-69" x="311.767578"/>
     <use xlink:href="#DejaVuSans-6e" x="339.550781"/>
     <use xlink:href="#DejaVuSans-66" x="402.929688"/>
     <use xlink:href="#DejaVuSans-6c" x="438.134766"/>
     <use xlink:href="#DejaVuSans-75" x="465.917969"/>
     <use xlink:href="#DejaVuSans-65" x="529.296875"/>
     <use xlink:href="#DejaVuSans-6e" x="590.820312"/>
     <use xlink:href="#DejaVuSans-63" x="654.199219"/>
     <use xlink:href="#DejaVuSans-65" x="709.179688"/>
     <use xlink:href="#DejaVuSans-20" x="770.703125"/>
     <use xlink:href="#DejaVuSans-6f" x="802.490234"/>
     <use xlink:href="#DejaVuSans-6e" x="863.671875"/>
     <use xlink:href="#DejaVuSans-20" x="927.050781"/>
     <use xlink:href="#DejaVuSans-6d" x="958.837891"/>
     <use xlink:href="#DejaVuSans-65" x="1056.25"/>
     <use xlink:href="#DejaVuSans-61" x="1117.773438"/>
     <use xlink:href="#DejaVuSans-6e" x="1179.052734"/>
     <use xlink:href="#DejaVuSans-20" x="1242.431641"/>
     <use xlink:href="#DejaVuSans-6e" x="1274.21875"/>
     <use xlink:href="#DejaVuSans-75" x="1337.597656"/>
     <use xlink:href="#DejaVuSans-6d" x="1400.976562"/>
     <use xlink:href="#DejaVuSans-62" x="1498.388672"/>
     <use xlink:href="#DejaVuSans-65" x="1561.865234"/>
     <use xlink:href="#DejaVuSans-72" x="1623.388672"/>
     <use xlink:href="#DejaVuSans-20" x="1664.501953"/>
     <use xlink:href="#DejaVuSans-6f" x="1696.289062"/>
     <use xlink:href="#DejaVuSans-66" x="1757.470703"/>
     <use xlink:href="#DejaVuSans-20" x="1792.675781"/>
     <use xlink:href="#DejaVuSans-72" x="1824.462891"/>
     <use xlink:href="#DejaVuSans-65" x="1863.326172"/>
     <use xlink:href="#DejaVuSans-71" x="1924.849609"/>
     <use xlink:href="#DejaVuSans-75" x="1988.326172"/>
     <use xlink:href="#DejaVuSans-69" x="2051.705078"/>
     <use xlink:href="#DejaVuSans-72" x="2079.488281"/>
     <use xlink:href="#DejaVuSans-65" x="2118.351562"/>
     <use xlink:href="#DejaVuSans-64" x="2179.875"/>
     <use xlink:href="#DejaVuSans-20" x="2243.351562"/>
     <use xlink:href="#DejaVuSans-72" x="2275.138672"/>
     <use xlink:href="#DejaVuSans-65" x="2314.001953"/>
     <use xlink:href="#DejaVuSans-2d" x="2375.525391"/>
     <use xlink:href="#DejaVuSans-72" x="2411.609375"/>
     <use xlink:href="#DejaVuSans-75" x="2452.722656"/>
     <use xlink:href="#DejaVuSans-6e" x="2516.101562"/>
     <use xlink:href="#DejaVuSans-73" x="2579.480469"/>
     <use xlink:href="#DejaVuSans-20" x="2631.580078"/>
     <use xlink:href="#DejaVuSans-6f" x="2663.367188"/>
     <use xlink:href="#DejaVuSans-66" x="2724.548828"/>
     <use xlink:href="#DejaVuSans-20" x="2759.753906"/>
     <use xlink:href="#DejaVuSans-54" x="2791.541016"/>
     <use xlink:href="#DejaVuSans-50" x="2852.625"/>
     <use xlink:href="#DejaVuSans-4d" x="2912.927734"/>
     <use xlink:href="#DejaVuSans-20" x="2999.207031"/>
     <use xlink:href="#DejaVuSans-77" x="3030.994141"/>
     <use xlink:href="#DejaVuSans-69" x="3112.78125"/>
     <use xlink:href="#DejaVuSans-74" x="3140.564453"/>
     <use xlink:href="#DejaVuSans-68" x="3179.773438"/>
     <use xlink:href="#DejaVuSans-20" x="3243.152344"/>
     <use xlink:href="#DejaVuSans-4c" x="3274.939453"/>
     <use xlink:href="#DejaVuSans-3d" x="3330.652344"/>
     <use xlink:href="#DejaVuSans-35" x="3414.441406"/>
    </g>
   </g>
   <g id="legend_1">
    <g id="patch_7">
     <path d="M 328.760625 302.584 
L 407.72 302.584 
Q 409.72 302.584 409.72 300.584 
L 409.72 140.124625 
Q 409.72 138.124625 407.72 138.124625 
L 328.760625 138.124625 
Q 326.760625 138.124625 326.760625 140.124625 
L 326.760625 300.584 
Q 326.760625 302.584 328.760625 302.584 
z
" style="fill: #ffffff; opacity: 0.8; stroke: #cccccc; stroke-linejoin: miter"/>
    </g>
    <g id="line2d_29">
     <path d="M 330.760625 146.223062 
L 340.760625 146.223062 
L 350.760625 146.223062 
" style="fill: none; stroke: #1f77b4; stroke-width: 1.5; stroke-linecap: square"/>
    </g>
    <g id="text_21">
     <!-- QBER: 1 -->
     <g transform="translate(358.760625 149.723062)scale(0.1 -0.1)">
      <defs>
       <path id="DejaVuSans-3a" d="M 750 794 
L 1409 794 
L 1409 0 
L 750 0 
L 750 794 
z
M 750 3309 
L 1409 3309 
L 1409 2516 
L 750 2516 
L 750 3309 
z
" transform="scale(0.015625)"/>
      </defs>
      <use xlink:href="#DejaVuSans-51"/>
      <use xlink:href="#DejaVuSans-42" x="78.710938"/>
      <use xlink:href="#DejaVuSans-45" x="147.314453"/>
      <use xlink:href="#DejaVuSans-52" x="210.498047"/>
      <use xlink:href="#DejaVuSans-3a" x="276.855469"/>
      <use xlink:href="#DejaVuSans-20" x="310.546875"/>
      <use xlink:href="#DejaVuSans-31" x="342.333984"/>
     </g>
    </g>
    <g id="line2d_30">
     <path d="M 330.760625 160.901188 
L 340.760625 160.901188 
L 350.760625 160.901188 
" style="fill: none; stroke: #ff7f0e; stroke-width: 1.5; stroke-linecap: square"/>
    </g>
    <g id="text_22">
     <!-- QBER: 2 -->
     <g transform="translate(358.760625 164.401188)scale(0.1 -0.1)">
      <use xlink:href="#DejaVuSans-51"/>
      <use xlink:href="#DejaVuSans-42" x="78.710938"/>
      <use xlink:href="#DejaVuSans-45" x="147.314453"/>
      <use xlink:href="#DejaVuSans-52" x="210.498047"/>
      <use xlink:href="#DejaVuSans-3a" x="276.855469"/>
      <use xlink:href="#DejaVuSans-20" x="310.546875"/>
      <use xlink:href="#DejaVuSans-32" x="342.333984"/>
     </g>
    </g>
    <g id="line2d_31">
     <path d="M 330.760625 175.579313 
L 340.760625 175.579313 
L 350.760625 175.579313 
" style="fill: none; stroke: #2ca02c; stroke-width: 1.5; stroke-linecap: square"/>
    </g>
    <g id="text_23">
     <!-- QBER: 3 -->
     <g transform="translate(358.760625 179.079313)scale(0.1 -0.1)">
      <defs>
       <path id="DejaVuSans-33" d="M 2597 2516 
Q 3050 2419 3304 2112 
Q 3559 1806 3559 1356 
Q 3559 666 3084 287 
Q 2609 -91 1734 -91 
Q 1441 -91 1130 -33 
Q 819 25 488 141 
L 488 750 
Q 750 597 1062 519 
Q 1375 441 1716 441 
Q 2309 441 2620 675 
Q 2931 909 2931 1356 
Q 2931 1769 2642 2001 
Q 2353 2234 1838 2234 
L 1294 2234 
L 1294 2753 
L 1863 2753 
Q 2328 2753 2575 2939 
Q 2822 3125 2822 3475 
Q 2822 3834 2567 4026 
Q 2313 4219 1838 4219 
Q 1578 4219 1281 4162 
Q 984 4106 628 3988 
L 628 4550 
Q 988 4650 1302 4700 
Q 1616 4750 1894 4750 
Q 2613 4750 3031 4423 
Q 3450 4097 3450 3541 
Q 3450 3153 3228 2886 
Q 3006 2619 2597 2516 
z
" transform="scale(0.015625)"/>
      </defs>
      <use xlink:href="#DejaVuSans-51"/>
      <use xlink:href="#DejaVuSans-42" x="78.710938"/>
      <use xlink:href="#DejaVuSans-45" x="147.314453"/>
      <use xlink:href="#DejaVuSans-52" x="210.498047"/>
      <use xlink:href="#DejaVuSans-3a" x="276.855469"/>
      <use xlink:href="#DejaVuSans-20" x="310.546875"/>
      <use xlink:href="#DejaVuSans-33" x="342.333984"/>
     </g>
    </g>
    <g id="line2d_32">
     <path d="M 330.760625 190.257438 
L 340.760625 190.257438 
L 350.760625 190.257438 
" style="fill: none; stroke: #d62728; stroke-width: 1.5; stroke-linecap: square"/>
    </g>
    <g id="text_24">
     <!-- QBER: 4 -->
     <g transform="translate(358.760625 193.757438)scale(0.1 -0.1)">
      <use xlink:href="#DejaVuSans-51"/>
      <use xlink:href="#DejaVuSans-42" x="78.710938"/>
      <use xlink:href="#DejaVuSans-45" x="147.314453"/>
      <use xlink:href="#DejaVuSans-52" x="210.498047"/>
      <use xlink:href="#DejaVuSans-3a" x="276.855469"/>
      <use xlink:href="#DejaVuSans-20" x="310.546875"/>
      <use xlink:href="#DejaVuSans-34" x="342.333984"/>
     </g>
    </g>
    <g id="line2d_33">
     <path d="M 330.760625 204.935563 
L 340.760625 204.935563 
L 350.760625 204.935563 
" style="fill: none; stroke: #9467bd; stroke-width: 1.5; stroke-linecap: square"/>
    </g>
    <g id="text_25">
     <!-- QBER: 5 -->
     <g transform="translate(358.760625 208.435563)scale(0.1 -0.1)">
      <use xlink:href="#DejaVuSans-51"/>
      <use xlink:href="#DejaVuSans-42" x="78.710938"/>
      <use xlink:href="#DejaVuSans-45" x="147.314453"/>
      <use xlink:href="#DejaVuSans-52" x="210.498047"/>
      <use xlink:href="#DejaVuSans-3a" x="276.855469"/>
      <use xlink:href="#DejaVuSans-20" x="310.546875"/>
      <use xlink:href="#DejaVuSans-35" x="342.333984"/>
     </g>
    </g>
    <g id="line2d_34">
     <path d="M 330.760625 219.613688 
L 340.760625 219.613688 
L 350.760625 219.613688 
" style="fill: none; stroke: #8c564b; stroke-width: 1.5; stroke-linecap: square"/>
    </g>
    <g id="text_26">
     <!-- QBER: 6 -->
     <g transform="translate(358.760625 223.113688)scale(0.1 -0.1)">
      <use xlink:href="#DejaVuSans-51"/>
      <use xlink:href="#DejaVuSans-42" x="78.710938"/>
      <use xlink:href="#DejaVuSans-45" x="147.314453"/>
      <use xlink:href="#DejaVuSans-52" x="210.498047"/>
      <use xlink:href="#DejaVuSans-3a" x="276.855469"/>
      <use xlink:href="#DejaVuSans-20" x="310.546875"/>
      <use xlink:href="#DejaVuSans-36" x="342.333984"/>
     </g>
    </g>
    <g id="line2d_35">
     <path d="M 330.760625 234.291812 
L 340.760625 234.291812 
L 350.760625 234.291812 
" style="fill: none; stroke: #e377c2; stroke-width: 1.5; stroke-linecap: square"/>
    </g>
    <g id="text_27">
     <!-- QBER: 7 -->
     <g transform="translate(358.760625 237.791812)scale(0.1 -0.1)">
      <use xlink:href="#DejaVuSans-51"/>
      <use xlink:href="#DejaVuSans-42" x="78.710938"/>
      <use xlink:href="#DejaVuSans-45" x="147.314453"/>
      <use xlink:href="#DejaVuSans-52" x="210.498047"/>
      <use xlink:href="#DejaVuSans-3a" x="276.855469"/>
      <use xlink:href="#DejaVuSans-20" x="310.546875"/>
      <use xlink:href="#DejaVuSans-37" x="342.333984"/>
     </g>
    </g>
    <g id="line2d_36">
     <path d="M 330.760625 248.969938 
L 340.760625 248.969938 
L 350.760625 248.969938 
" style="fill: none; stroke: #7f7f7f; stroke-width: 1.5; stroke-linecap: square"/>
    </g>
    <g id="text_28">
     <!-- QBER: 8 -->
     <g transform="translate(358.760625 252.469938)scale(0.1 -0.1)">
      <use xlink:href="#DejaVuSans-51"/>
      <use xlink:href="#DejaVuSans-42" x="78.710938"/>
      <use xlink:href="#DejaVuSans-45" x="147.314453"/>
      <use xlink:href="#DejaVuSans-52" x="210.498047"/>
      <use xlink:href="#DejaVuSans-3a" x="276.855469"/>
      <use xlink:href="#DejaVuSans-20" x="310.546875"/>
      <use xlink:href="#DejaVuSans-38" x="342.333984"/>
     </g>
    </g>
    <g id="line2d_37">
     <path d="M 330.760625 263.648062 
L 340.760625 263.648062 
L 350.760625 263.648062 
" style="fill: none; stroke: #bcbd22; stroke-width: 1.5; stroke-linecap: square"/>
    </g>
    <g id="text_29">
     <!-- QBER: 9 -->
     <g transform="translate(358.760625 267.148062)scale(0.1 -0.1)">
      <defs>
       <path id="DejaVuSans-39" d="M 703 97 
L 703 672 
Q 941 559 1184 500 
Q 1428 441 1663 441 
Q 2288 441 2617 861 
Q 2947 1281 2994 2138 
Q 2813 1869 2534 1725 
Q 2256 1581 1919 1581 
Q 1219 1581 811 2004 
Q 403 2428 403 3163 
Q 403 3881 828 4315 
Q 1253 4750 1959 4750 
Q 2769 4750 3195 4129 
Q 3622 3509 3622 2328 
Q 3622 1225 3098 567 
Q 2575 -91 1691 -91 
Q 1453 -91 1209 -44 
Q 966 3 703 97 
z
M 1959 2075 
Q 2384 2075 2632 2365 
Q 2881 2656 2881 3163 
Q 2881 3666 2632 3958 
Q 2384 4250 1959 4250 
Q 1534 4250 1286 3958 
Q 1038 3666 1038 3163 
Q 1038 2656 1286 2365 
Q 1534 2075 1959 2075 
z
" transform="scale(0.015625)"/>
      </defs>
      <use xlink:href="#DejaVuSans-51"/>
      <use xlink:href="#DejaVuSans-42" x="78.710938"/>
      <use xlink:href="#DejaVuSans-45" x="147.314453"/>
      <use xlink:href="#DejaVuSans-52" x="210.498047"/>
      <use xlink:href="#DejaVuSans-3a" x="276.855469"/>
      <use xlink:href="#DejaVuSans-20" x="310.546875"/>
      <use xlink:href="#DejaVuSans-39" x="342.333984"/>
     </g>
    </g>
    <g id="line2d_38">
     <path d="M 330.760625 278.326187 
L 340.760625 278.326187 
L 350.760625 278.326187 
" style="fill: none; stroke: #17becf; stroke-width: 1.5; stroke-linecap: square"/>
    </g>
    <g id="text_30">
     <!-- QBER: 10 -->
     <g transform="translate(358.760625 281.826187)scale(0.1 -0.1)">
      <use xlink:href="#DejaVuSans-51"/>
      <use xlink:href="#DejaVuSans-42" x="78.710938"/>
      <use xlink:href="#DejaVuSans-45" x="147.314453"/>
      <use xlink:href="#DejaVuSans-52" x="210.498047"/>
      <use xlink:href="#DejaVuSans-3a" x="276.855469"/>
      <use xlink:href="#DejaVuSans-20" x="310.546875"/>
      <use xlink:href="#DejaVuSans-31" x="342.333984"/>
      <use xlink:href="#DejaVuSans-30" x="405.957031"/>
     </g>
    </g>
    <g id="line2d_39">
     <path d="M 330.760625 293.004312 
L 340.760625 293.004312 
L 350.760625 293.004312 
" style="fill: none; stroke: #1f77b4; stroke-width: 1.5; stroke-linecap: square"/>
    </g>
    <g id="text_31">
     <!-- QBER: 11 -->
     <g transform="translate(358.760625 296.504312)scale(0.1 -0.1)">
      <use xlink:href="#DejaVuSans-51"/>
      <use xlink:href="#DejaVuSans-42" x="78.710938"/>
      <use xlink:href="#DejaVuSans-45" x="147.314453"/>
      <use xlink:href="#DejaVuSans-52" x="210.498047"/>
      <use xlink:href="#DejaVuSans-3a" x="276.855469"/>
      <use xlink:href="#DejaVuSans-20" x="310.546875"/>
      <use xlink:href="#DejaVuSans-31" x="342.333984"/>
      <use xlink:href="#DejaVuSans-31" x="405.957031"/>
     </g>
    </g>
   </g>
  </g>
 </g>
 <defs>
  <clipPath id="p5c412169e1">
   <rect x="57.6" y="41.472" width="357.12" height="266.112"/>
  </clipPath>
 </defs>
</svg>
