<?xml version="1.0" encoding="utf-8" standalone="no"?>
<!DOCTYPE svg PUBLIC "-//W3C//DTD SVG 1.1//EN"
  "http://www.w3.org/Graphics/SVG/1.1/DTD/svg11.dtd">
<svg xmlns:xlink="http://www.w3.org/1999/xlink" width="460.8pt" height="345.6pt" viewBox="0 0 460.8 345.6" xmlns="http://www.w3.org/2000/svg" version="1.1">
 <metadata>
  <rdf:RDF xmlns:dc="http://purl.org/dc/elements/1.1/" xmlns:cc="http://creativecommons.org/ns#" xmlns:rdf="http://www.w3.org/1999/02/22-rdf-syntax-ns#">
   <cc:Work>
    <dc:type rdf:resource="http://purl.org/dc/dcmitype/StillImage"/>
    <dc:date>2023-08-12T11:06:52.869488</dc:date>
    <dc:format>image/svg+xml</dc:format>
    <dc:creator>
     <cc:Agent>
      <dc:title>Matplotlib v3.5.3, https://matplotlib.org/</dc:title>
     </cc:Agent>
    </dc:creator>
   </cc:Work>
  </rdf:RDF>
 </metadata>
 <defs>
  <style type="text/css">*{stroke-linejoin: round; stroke-linecap: butt}</style>
 </defs>
 <g id="figure_1">
  <g id="patch_1">
   <path d="M 0 345.6 
L 460.8 345.6 
L 460.8 0 
L 0 0 
z
" style="fill: #ffffff"/>
  </g>
  <g id="axes_1">
   <g id="patch_2">
    <path d="M 57.6 307.584 
L 414.72 307.584 
L 414.72 41.472 
L 57.6 41.472 
z
" style="fill: #ffffff"/>
   </g>
   <g id="matplotlib.axis_1">
    <g id="xtick_1">
     <g id="line2d_1">
      <defs>
       <path id="m2ee26fa297" d="M 0 0 
L 0 3.5 
" style="stroke: #000000; stroke-width: 0.8"/>
      </defs>
      <g>
       <use xlink:href="#m2ee26fa297" x="73.351758" y="307.584" style="stroke: #000000; stroke-width: 0.8"/>
      </g>
     </g>
     <g id="text_1">
      <!-- 0 -->
      <g transform="translate(70.170508 322.182437)scale(0.1 -0.1)">
       <defs>
        <path id="DejaVuSans-30" d="M 2034 4250 
Q 1547 4250 1301 3770 
Q 1056 3291 1056 2328 
Q 1056 1369 1301 889 
Q 1547 409 2034 409 
Q 2525 409 2770 889 
Q 3016 1369 3016 2328 
Q 3016 3291 2770 3770 
Q 2525 4250 2034 4250 
z
M 2034 4750 
Q 2819 4750 3233 4129 
Q 3647 3509 3647 2328 
Q 3647 1150 3233 529 
Q 2819 -91 2034 -91 
Q 1250 -91 836 529 
Q 422 1150 422 2328 
Q 422 3509 836 4129 
Q 1250 4750 2034 4750 
z
" transform="scale(0.015625)"/>
       </defs>
       <use xlink:href="#DejaVuSans-30"/>
      </g>
     </g>
    </g>
    <g id="xtick_2">
     <g id="line2d_2">
      <g>
       <use xlink:href="#m2ee26fa297" x="121.448727" y="307.584" style="stroke: #000000; stroke-width: 0.8"/>
      </g>
     </g>
     <g id="text_2">
      <!-- 2500 -->
      <g transform="translate(108.723727 322.182437)scale(0.1 -0.1)">
       <defs>
        <path id="DejaVuSans-32" d="M 1228 531 
L 3431 531 
L 3431 0 
L 469 0 
L 469 531 
Q 828 903 1448 1529 
Q 2069 2156 2228 2338 
Q 2531 2678 2651 2914 
Q 2772 3150 2772 3378 
Q 2772 3750 2511 3984 
Q 2250 4219 1831 4219 
Q 1534 4219 1204 4116 
Q 875 4013 500 3803 
L 500 4441 
Q 881 4594 1212 4672 
Q 1544 4750 1819 4750 
Q 2544 4750 2975 4387 
Q 3406 4025 3406 3419 
Q 3406 3131 3298 2873 
Q 3191 2616 2906 2266 
Q 2828 2175 2409 1742 
Q 1991 1309 1228 531 
z
" transform="scale(0.015625)"/>
        <path id="DejaVuSans-35" d="M 691 4666 
L 3169 4666 
L 3169 4134 
L 1269 4134 
L 1269 2991 
Q 1406 3038 1543 3061 
Q 1681 3084 1819 3084 
Q 2600 3084 3056 2656 
Q 3513 2228 3513 1497 
Q 3513 744 3044 326 
Q 2575 -91 1722 -91 
Q 1428 -91 1123 -41 
Q 819 9 494 109 
L 494 744 
Q 775 591 1075 516 
Q 1375 441 1709 441 
Q 2250 441 2565 725 
Q 2881 1009 2881 1497 
Q 2881 1984 2565 2268 
Q 2250 2553 1709 2553 
Q 1456 2553 1204 2497 
Q 953 2441 691 2322 
L 691 4666 
z
" transform="scale(0.015625)"/>
       </defs>
       <use xlink:href="#DejaVuSans-32"/>
       <use xlink:href="#DejaVuSans-35" x="63.623047"/>
       <use xlink:href="#DejaVuSans-30" x="127.246094"/>
       <use xlink:href="#DejaVuSans-30" x="190.869141"/>
      </g>
     </g>
    </g>
    <g id="xtick_3">
     <g id="line2d_3">
      <g>
       <use xlink:href="#m2ee26fa297" x="169.545697" y="307.584" style="stroke: #000000; stroke-width: 0.8"/>
      </g>
     </g>
     <g id="text_3">
      <!-- 5000 -->
      <g transform="translate(156.820697 322.182437)scale(0.1 -0.1)">
       <use xlink:href="#DejaVuSans-35"/>
       <use xlink:href="#DejaVuSans-30" x="63.623047"/>
       <use xlink:href="#DejaVuSans-30" x="127.246094"/>
       <use xlink:href="#DejaVuSans-30" x="190.869141"/>
      </g>
     </g>
    </g>
    <g id="xtick_4">
     <g id="line2d_4">
      <g>
       <use xlink:href="#m2ee26fa297" x="217.642667" y="307.584" style="stroke: #000000; stroke-width: 0.8"/>
      </g>
     </g>
     <g id="text_4">
      <!-- 7500 -->
      <g transform="translate(204.917667 322.182437)scale(0.1 -0.1)">
       <defs>
        <path id="DejaVuSans-37" d="M 525 4666 
L 3525 4666 
L 3525 4397 
L 1831 0 
L 1172 0 
L 2766 4134 
L 525 4134 
L 525 4666 
z
" transform="scale(0.015625)"/>
       </defs>
       <use xlink:href="#DejaVuSans-37"/>
       <use xlink:href="#DejaVuSans-35" x="63.623047"/>
       <use xlink:href="#DejaVuSans-30" x="127.246094"/>
       <use xlink:href="#DejaVuSans-30" x="190.869141"/>
      </g>
     </g>
    </g>
    <g id="xtick_5">
     <g id="line2d_5">
      <g>
       <use xlink:href="#m2ee26fa297" x="265.739636" y="307.584" style="stroke: #000000; stroke-width: 0.8"/>
      </g>
     </g>
     <g id="text_5">
      <!-- 10000 -->
      <g transform="translate(249.833386 322.182437)scale(0.1 -0.1)">
       <defs>
        <path id="DejaVuSans-31" d="M 794 531 
L 1825 531 
L 1825 4091 
L 703 3866 
L 703 4441 
L 1819 4666 
L 2450 4666 
L 2450 531 
L 3481 531 
L 3481 0 
L 794 0 
L 794 531 
z
" transform="scale(0.015625)"/>
       </defs>
       <use xlink:href="#DejaVuSans-31"/>
       <use xlink:href="#DejaVuSans-30" x="63.623047"/>
       <use xlink:href="#DejaVuSans-30" x="127.246094"/>
       <use xlink:href="#DejaVuSans-30" x="190.869141"/>
       <use xlink:href="#DejaVuSans-30" x="254.492188"/>
      </g>
     </g>
    </g>
    <g id="xtick_6">
     <g id="line2d_6">
      <g>
       <use xlink:href="#m2ee26fa297" x="313.836606" y="307.584" style="stroke: #000000; stroke-width: 0.8"/>
      </g>
     </g>
     <g id="text_6">
      <!-- 12500 -->
      <g transform="translate(297.930356 322.182437)scale(0.1 -0.1)">
       <use xlink:href="#DejaVuSans-31"/>
       <use xlink:href="#DejaVuSans-32" x="63.623047"/>
       <use xlink:href="#DejaVuSans-35" x="127.246094"/>
       <use xlink:href="#DejaVuSans-30" x="190.869141"/>
       <use xlink:href="#DejaVuSans-30" x="254.492188"/>
      </g>
     </g>
    </g>
    <g id="xtick_7">
     <g id="line2d_7">
      <g>
       <use xlink:href="#m2ee26fa297" x="361.933576" y="307.584" style="stroke: #000000; stroke-width: 0.8"/>
      </g>
     </g>
     <g id="text_7">
      <!-- 15000 -->
      <g transform="translate(346.027326 322.182437)scale(0.1 -0.1)">
       <use xlink:href="#DejaVuSans-31"/>
       <use xlink:href="#DejaVuSans-35" x="63.623047"/>
       <use xlink:href="#DejaVuSans-30" x="127.246094"/>
       <use xlink:href="#DejaVuSans-30" x="190.869141"/>
       <use xlink:href="#DejaVuSans-30" x="254.492188"/>
      </g>
     </g>
    </g>
    <g id="xtick_8">
     <g id="line2d_8">
      <g>
       <use xlink:href="#m2ee26fa297" x="410.030545" y="307.584" style="stroke: #000000; stroke-width: 0.8"/>
      </g>
     </g>
     <g id="text_8">
      <!-- 17500 -->
      <g transform="translate(394.124295 322.182437)scale(0.1 -0.1)">
       <use xlink:href="#DejaVuSans-31"/>
       <use xlink:href="#DejaVuSans-37" x="63.623047"/>
       <use xlink:href="#DejaVuSans-35" x="127.246094"/>
       <use xlink:href="#DejaVuSans-30" x="190.869141"/>
       <use xlink:href="#DejaVuSans-30" x="254.492188"/>
      </g>
     </g>
    </g>
    <g id="text_9">
     <!-- Number of input neurons multiplied by number of hidden neurons [N*K] -->
     <g transform="translate(56.102969 335.860562)scale(0.1 -0.1)">
      <defs>
       <path id="DejaVuSans-4e" d="M 628 4666 
L 1478 4666 
L 3547 763 
L 3547 4666 
L 4159 4666 
L 4159 0 
L 3309 0 
L 1241 3903 
L 1241 0 
L 628 0 
L 628 4666 
z
" transform="scale(0.015625)"/>
       <path id="DejaVuSans-75" d="M 544 1381 
L 544 3500 
L 1119 3500 
L 1119 1403 
Q 1119 906 1312 657 
Q 1506 409 1894 409 
Q 2359 409 2629 706 
Q 2900 1003 2900 1516 
L 2900 3500 
L 3475 3500 
L 3475 0 
L 2900 0 
L 2900 538 
Q 2691 219 2414 64 
Q 2138 -91 1772 -91 
Q 1169 -91 856 284 
Q 544 659 544 1381 
z
M 1991 3584 
L 1991 3584 
z
" transform="scale(0.015625)"/>
       <path id="DejaVuSans-6d" d="M 3328 2828 
Q 3544 3216 3844 3400 
Q 4144 3584 4550 3584 
Q 5097 3584 5394 3201 
Q 5691 2819 5691 2113 
L 5691 0 
L 5113 0 
L 5113 2094 
Q 5113 2597 4934 2840 
Q 4756 3084 4391 3084 
Q 3944 3084 3684 2787 
Q 3425 2491 3425 1978 
L 3425 0 
L 2847 0 
L 2847 2094 
Q 2847 2600 2669 2842 
Q 2491 3084 2119 3084 
Q 1678 3084 1418 2786 
Q 1159 2488 1159 1978 
L 1159 0 
L 581 0 
L 581 3500 
L 1159 3500 
L 1159 2956 
Q 1356 3278 1631 3431 
Q 1906 3584 2284 3584 
Q 2666 3584 2933 3390 
Q 3200 3197 3328 2828 
z
" transform="scale(0.015625)"/>
       <path id="DejaVuSans-62" d="M 3116 1747 
Q 3116 2381 2855 2742 
Q 2594 3103 2138 3103 
Q 1681 3103 1420 2742 
Q 1159 2381 1159 1747 
Q 1159 1113 1420 752 
Q 1681 391 2138 391 
Q 2594 391 2855 752 
Q 3116 1113 3116 1747 
z
M 1159 2969 
Q 1341 3281 1617 3432 
Q 1894 3584 2278 3584 
Q 2916 3584 3314 3078 
Q 3713 2572 3713 1747 
Q 3713 922 3314 415 
Q 2916 -91 2278 -91 
Q 1894 -91 1617 61 
Q 1341 213 1159 525 
L 1159 0 
L 581 0 
L 581 4863 
L 1159 4863 
L 1159 2969 
z
" transform="scale(0.015625)"/>
       <path id="DejaVuSans-65" d="M 3597 1894 
L 3597 1613 
L 953 1613 
Q 991 1019 1311 708 
Q 1631 397 2203 397 
Q 2534 397 2845 478 
Q 3156 559 3463 722 
L 3463 178 
Q 3153 47 2828 -22 
Q 2503 -91 2169 -91 
Q 1331 -91 842 396 
Q 353 884 353 1716 
Q 353 2575 817 3079 
Q 1281 3584 2069 3584 
Q 2775 3584 3186 3129 
Q 3597 2675 3597 1894 
z
M 3022 2063 
Q 3016 2534 2758 2815 
Q 2500 3097 2075 3097 
Q 1594 3097 1305 2825 
Q 1016 2553 972 2059 
L 3022 2063 
z
" transform="scale(0.015625)"/>
       <path id="DejaVuSans-72" d="M 2631 2963 
Q 2534 3019 2420 3045 
Q 2306 3072 2169 3072 
Q 1681 3072 1420 2755 
Q 1159 2438 1159 1844 
L 1159 0 
L 581 0 
L 581 3500 
L 1159 3500 
L 1159 2956 
Q 1341 3275 1631 3429 
Q 1922 3584 2338 3584 
Q 2397 3584 2469 3576 
Q 2541 3569 2628 3553 
L 2631 2963 
z
" transform="scale(0.015625)"/>
       <path id="DejaVuSans-20" transform="scale(0.015625)"/>
       <path id="DejaVuSans-6f" d="M 1959 3097 
Q 1497 3097 1228 2736 
Q 959 2375 959 1747 
Q 959 1119 1226 758 
Q 1494 397 1959 397 
Q 2419 397 2687 759 
Q 2956 1122 2956 1747 
Q 2956 2369 2687 2733 
Q 2419 3097 1959 3097 
z
M 1959 3584 
Q 2709 3584 3137 3096 
Q 3566 2609 3566 1747 
Q 3566 888 3137 398 
Q 2709 -91 1959 -91 
Q 1206 -91 779 398 
Q 353 888 353 1747 
Q 353 2609 779 3096 
Q 1206 3584 1959 3584 
z
" transform="scale(0.015625)"/>
       <path id="DejaVuSans-66" d="M 2375 4863 
L 2375 4384 
L 1825 4384 
Q 1516 4384 1395 4259 
Q 1275 4134 1275 3809 
L 1275 3500 
L 2222 3500 
L 2222 3053 
L 1275 3053 
L 1275 0 
L 697 0 
L 697 3053 
L 147 3053 
L 147 3500 
L 697 3500 
L 697 3744 
Q 697 4328 969 4595 
Q 1241 4863 1831 4863 
L 2375 4863 
z
" transform="scale(0.015625)"/>
       <path id="DejaVuSans-69" d="M 603 3500 
L 1178 3500 
L 1178 0 
L 603 0 
L 603 3500 
z
M 603 4863 
L 1178 4863 
L 1178 4134 
L 603 4134 
L 603 4863 
z
" transform="scale(0.015625)"/>
       <path id="DejaVuSans-6e" d="M 3513 2113 
L 3513 0 
L 2938 0 
L 2938 2094 
Q 2938 2591 2744 2837 
Q 2550 3084 2163 3084 
Q 1697 3084 1428 2787 
Q 1159 2491 1159 1978 
L 1159 0 
L 581 0 
L 581 3500 
L 1159 3500 
L 1159 2956 
Q 1366 3272 1645 3428 
Q 1925 3584 2291 3584 
Q 2894 3584 3203 3211 
Q 3513 2838 3513 2113 
z
" transform="scale(0.015625)"/>
       <path id="DejaVuSans-70" d="M 1159 525 
L 1159 -1331 
L 581 -1331 
L 581 3500 
L 1159 3500 
L 1159 2969 
Q 1341 3281 1617 3432 
Q 1894 3584 2278 3584 
Q 2916 3584 3314 3078 
Q 3713 2572 3713 1747 
Q 3713 922 3314 415 
Q 2916 -91 2278 -91 
Q 1894 -91 1617 61 
Q 1341 213 1159 525 
z
M 3116 1747 
Q 3116 2381 2855 2742 
Q 2594 3103 2138 3103 
Q 1681 3103 1420 2742 
Q 1159 2381 1159 1747 
Q 1159 1113 1420 752 
Q 1681 391 2138 391 
Q 2594 391 2855 752 
Q 3116 1113 3116 1747 
z
" transform="scale(0.015625)"/>
       <path id="DejaVuSans-74" d="M 1172 4494 
L 1172 3500 
L 2356 3500 
L 2356 3053 
L 1172 3053 
L 1172 1153 
Q 1172 725 1289 603 
Q 1406 481 1766 481 
L 2356 481 
L 2356 0 
L 1766 0 
Q 1100 0 847 248 
Q 594 497 594 1153 
L 594 3053 
L 172 3053 
L 172 3500 
L 594 3500 
L 594 4494 
L 1172 4494 
z
" transform="scale(0.015625)"/>
       <path id="DejaVuSans-73" d="M 2834 3397 
L 2834 2853 
Q 2591 2978 2328 3040 
Q 2066 3103 1784 3103 
Q 1356 3103 1142 2972 
Q 928 2841 928 2578 
Q 928 2378 1081 2264 
Q 1234 2150 1697 2047 
L 1894 2003 
Q 2506 1872 2764 1633 
Q 3022 1394 3022 966 
Q 3022 478 2636 193 
Q 2250 -91 1575 -91 
Q 1294 -91 989 -36 
Q 684 19 347 128 
L 347 722 
Q 666 556 975 473 
Q 1284 391 1588 391 
Q 1994 391 2212 530 
Q 2431 669 2431 922 
Q 2431 1156 2273 1281 
Q 2116 1406 1581 1522 
L 1381 1569 
Q 847 1681 609 1914 
Q 372 2147 372 2553 
Q 372 3047 722 3315 
Q 1072 3584 1716 3584 
Q 2034 3584 2315 3537 
Q 2597 3491 2834 3397 
z
" transform="scale(0.015625)"/>
       <path id="DejaVuSans-6c" d="M 603 4863 
L 1178 4863 
L 1178 0 
L 603 0 
L 603 4863 
z
" transform="scale(0.015625)"/>
       <path id="DejaVuSans-64" d="M 2906 2969 
L 2906 4863 
L 3481 4863 
L 3481 0 
L 2906 0 
L 2906 525 
Q 2725 213 2448 61 
Q 2172 -91 1784 -91 
Q 1150 -91 751 415 
Q 353 922 353 1747 
Q 353 2572 751 3078 
Q 1150 3584 1784 3584 
Q 2172 3584 2448 3432 
Q 2725 3281 2906 2969 
z
M 947 1747 
Q 947 1113 1208 752 
Q 1469 391 1925 391 
Q 2381 391 2643 752 
Q 2906 1113 2906 1747 
Q 2906 2381 2643 2742 
Q 2381 3103 1925 3103 
Q 1469 3103 1208 2742 
Q 947 2381 947 1747 
z
" transform="scale(0.015625)"/>
       <path id="DejaVuSans-79" d="M 2059 -325 
Q 1816 -950 1584 -1140 
Q 1353 -1331 966 -1331 
L 506 -1331 
L 506 -850 
L 844 -850 
Q 1081 -850 1212 -737 
Q 1344 -625 1503 -206 
L 1606 56 
L 191 3500 
L 800 3500 
L 1894 763 
L 2988 3500 
L 3597 3500 
L 2059 -325 
z
" transform="scale(0.015625)"/>
       <path id="DejaVuSans-68" d="M 3513 2113 
L 3513 0 
L 2938 0 
L 2938 2094 
Q 2938 2591 2744 2837 
Q 2550 3084 2163 3084 
Q 1697 3084 1428 2787 
Q 1159 2491 1159 1978 
L 1159 0 
L 581 0 
L 581 4863 
L 1159 4863 
L 1159 2956 
Q 1366 3272 1645 3428 
Q 1925 3584 2291 3584 
Q 2894 3584 3203 3211 
Q 3513 2838 3513 2113 
z
" transform="scale(0.015625)"/>
       <path id="DejaVuSans-5b" d="M 550 4863 
L 1875 4863 
L 1875 4416 
L 1125 4416 
L 1125 -397 
L 1875 -397 
L 1875 -844 
L 550 -844 
L 550 4863 
z
" transform="scale(0.015625)"/>
       <path id="DejaVuSans-2a" d="M 3009 3897 
L 1888 3291 
L 3009 2681 
L 2828 2375 
L 1778 3009 
L 1778 1831 
L 1422 1831 
L 1422 3009 
L 372 2375 
L 191 2681 
L 1313 3291 
L 191 3897 
L 372 4206 
L 1422 3572 
L 1422 4750 
L 1778 4750 
L 1778 3572 
L 2828 4206 
L 3009 3897 
z
" transform="scale(0.015625)"/>
       <path id="DejaVuSans-4b" d="M 628 4666 
L 1259 4666 
L 1259 2694 
L 3353 4666 
L 4166 4666 
L 1850 2491 
L 4331 0 
L 3500 0 
L 1259 2247 
L 1259 0 
L 628 0 
L 628 4666 
z
" transform="scale(0.015625)"/>
       <path id="DejaVuSans-5d" d="M 1947 4863 
L 1947 -844 
L 622 -844 
L 622 -397 
L 1369 -397 
L 1369 4416 
L 622 4416 
L 622 4863 
L 1947 4863 
z
" transform="scale(0.015625)"/>
      </defs>
      <use xlink:href="#DejaVuSans-4e"/>
      <use xlink:href="#DejaVuSans-75" x="74.804688"/>
      <use xlink:href="#DejaVuSans-6d" x="138.183594"/>
      <use xlink:href="#DejaVuSans-62" x="235.595703"/>
      <use xlink:href="#DejaVuSans-65" x="299.072266"/>
      <use xlink:href="#DejaVuSans-72" x="360.595703"/>
      <use xlink:href="#DejaVuSans-20" x="401.708984"/>
      <use xlink:href="#DejaVuSans-6f" x="433.496094"/>
      <use xlink:href="#DejaVuSans-66" x="494.677734"/>
      <use xlink:href="#DejaVuSans-20" x="529.882812"/>
      <use xlink:href="#DejaVuSans-69" x="561.669922"/>
      <use xlink:href="#DejaVuSans-6e" x="589.453125"/>
      <use xlink:href="#DejaVuSans-70" x="652.832031"/>
      <use xlink:href="#DejaVuSans-75" x="716.308594"/>
      <use xlink:href="#DejaVuSans-74" x="779.6875"/>
      <use xlink:href="#DejaVuSans-20" x="818.896484"/>
      <use xlink:href="#DejaVuSans-6e" x="850.683594"/>
      <use xlink:href="#DejaVuSans-65" x="914.0625"/>
      <use xlink:href="#DejaVuSans-75" x="975.585938"/>
      <use xlink:href="#DejaVuSans-72" x="1038.964844"/>
      <use xlink:href="#DejaVuSans-6f" x="1077.828125"/>
      <use xlink:href="#DejaVuSans-6e" x="1139.009766"/>
      <use xlink:href="#DejaVuSans-73" x="1202.388672"/>
      <use xlink:href="#DejaVuSans-20" x="1254.488281"/>
      <use xlink:href="#DejaVuSans-6d" x="1286.275391"/>
      <use xlink:href="#DejaVuSans-75" x="1383.6875"/>
      <use xlink:href="#DejaVuSans-6c" x="1447.066406"/>
      <use xlink:href="#DejaVuSans-74" x="1474.849609"/>
      <use xlink:href="#DejaVuSans-69" x="1514.058594"/>
      <use xlink:href="#DejaVuSans-70" x="1541.841797"/>
      <use xlink:href="#DejaVuSans-6c" x="1605.318359"/>
      <use xlink:href="#DejaVuSans-69" x="1633.101562"/>
      <use xlink:href="#DejaVuSans-65" x="1660.884766"/>
      <use xlink:href="#DejaVuSans-64" x="1722.408203"/>
      <use xlink:href="#DejaVuSans-20" x="1785.884766"/>
      <use xlink:href="#DejaVuSans-62" x="1817.671875"/>
      <use xlink:href="#DejaVuSans-79" x="1881.148438"/>
      <use xlink:href="#DejaVuSans-20" x="1940.328125"/>
      <use xlink:href="#DejaVuSans-6e" x="1972.115234"/>
      <use xlink:href="#DejaVuSans-75" x="2035.494141"/>
      <use xlink:href="#DejaVuSans-6d" x="2098.873047"/>
      <use xlink:href="#DejaVuSans-62" x="2196.285156"/>
      <use xlink:href="#DejaVuSans-65" x="2259.761719"/>
      <use xlink:href="#DejaVuSans-72" x="2321.285156"/>
      <use xlink:href="#DejaVuSans-20" x="2362.398438"/>
      <use xlink:href="#DejaVuSans-6f" x="2394.185547"/>
      <use xlink:href="#DejaVuSans-66" x="2455.367188"/>
      <use xlink:href="#DejaVuSans-20" x="2490.572266"/>
      <use xlink:href="#DejaVuSans-68" x="2522.359375"/>
      <use xlink:href="#DejaVuSans-69" x="2585.738281"/>
      <use xlink:href="#DejaVuSans-64" x="2613.521484"/>
      <use xlink:href="#DejaVuSans-64" x="2676.998047"/>
      <use xlink:href="#DejaVuSans-65" x="2740.474609"/>
      <use xlink:href="#DejaVuSans-6e" x="2801.998047"/>
      <use xlink:href="#DejaVuSans-20" x="2865.376953"/>
      <use xlink:href="#DejaVuSans-6e" x="2897.164062"/>
      <use xlink:href="#DejaVuSans-65" x="2960.542969"/>
      <use xlink:href="#DejaVuSans-75" x="3022.066406"/>
      <use xlink:href="#DejaVuSans-72" x="3085.445312"/>
      <use xlink:href="#DejaVuSans-6f" x="3124.308594"/>
      <use xlink:href="#DejaVuSans-6e" x="3185.490234"/>
      <use xlink:href="#DejaVuSans-73" x="3248.869141"/>
      <use xlink:href="#DejaVuSans-20" x="3300.96875"/>
      <use xlink:href="#DejaVuSans-5b" x="3332.755859"/>
      <use xlink:href="#DejaVuSans-4e" x="3371.769531"/>
      <use xlink:href="#DejaVuSans-2a" x="3446.574219"/>
      <use xlink:href="#DejaVuSans-4b" x="3496.574219"/>
      <use xlink:href="#DejaVuSans-5d" x="3562.150391"/>
     </g>
    </g>
   </g>
   <g id="matplotlib.axis_2">
    <g id="ytick_1">
     <g id="line2d_9">
      <defs>
       <path id="mec14055e4b" d="M 0 0 
L -3.5 0 
" style="stroke: #000000; stroke-width: 0.8"/>
      </defs>
      <g>
       <use xlink:href="#mec14055e4b" x="57.6" y="292.60864" style="stroke: #000000; stroke-width: 0.8"/>
      </g>
     </g>
     <g id="text_10">
      <!-- 20 -->
      <g transform="translate(37.875 296.407859)scale(0.1 -0.1)">
       <use xlink:href="#DejaVuSans-32"/>
       <use xlink:href="#DejaVuSans-30" x="63.623047"/>
      </g>
     </g>
    </g>
    <g id="ytick_2">
     <g id="line2d_10">
      <g>
       <use xlink:href="#mec14055e4b" x="57.6" y="262.878983" style="stroke: #000000; stroke-width: 0.8"/>
      </g>
     </g>
     <g id="text_11">
      <!-- 40 -->
      <g transform="translate(37.875 266.678202)scale(0.1 -0.1)">
       <defs>
        <path id="DejaVuSans-34" d="M 2419 4116 
L 825 1625 
L 2419 1625 
L 2419 4116 
z
M 2253 4666 
L 3047 4666 
L 3047 1625 
L 3713 1625 
L 3713 1100 
L 3047 1100 
L 3047 0 
L 2419 0 
L 2419 1100 
L 313 1100 
L 313 1709 
L 2253 4666 
z
" transform="scale(0.015625)"/>
       </defs>
       <use xlink:href="#DejaVuSans-34"/>
       <use xlink:href="#DejaVuSans-30" x="63.623047"/>
      </g>
     </g>
    </g>
    <g id="ytick_3">
     <g id="line2d_11">
      <g>
       <use xlink:href="#mec14055e4b" x="57.6" y="233.149326" style="stroke: #000000; stroke-width: 0.8"/>
      </g>
     </g>
     <g id="text_12">
      <!-- 60 -->
      <g transform="translate(37.875 236.948545)scale(0.1 -0.1)">
       <defs>
        <path id="DejaVuSans-36" d="M 2113 2584 
Q 1688 2584 1439 2293 
Q 1191 2003 1191 1497 
Q 1191 994 1439 701 
Q 1688 409 2113 409 
Q 2538 409 2786 701 
Q 3034 994 3034 1497 
Q 3034 2003 2786 2293 
Q 2538 2584 2113 2584 
z
M 3366 4563 
L 3366 3988 
Q 3128 4100 2886 4159 
Q 2644 4219 2406 4219 
Q 1781 4219 1451 3797 
Q 1122 3375 1075 2522 
Q 1259 2794 1537 2939 
Q 1816 3084 2150 3084 
Q 2853 3084 3261 2657 
Q 3669 2231 3669 1497 
Q 3669 778 3244 343 
Q 2819 -91 2113 -91 
Q 1303 -91 875 529 
Q 447 1150 447 2328 
Q 447 3434 972 4092 
Q 1497 4750 2381 4750 
Q 2619 4750 2861 4703 
Q 3103 4656 3366 4563 
z
" transform="scale(0.015625)"/>
       </defs>
       <use xlink:href="#DejaVuSans-36"/>
       <use xlink:href="#DejaVuSans-30" x="63.623047"/>
      </g>
     </g>
    </g>
    <g id="ytick_4">
     <g id="line2d_12">
      <g>
       <use xlink:href="#mec14055e4b" x="57.6" y="203.41967" style="stroke: #000000; stroke-width: 0.8"/>
      </g>
     </g>
     <g id="text_13">
      <!-- 80 -->
      <g transform="translate(37.875 207.218888)scale(0.1 -0.1)">
       <defs>
        <path id="DejaVuSans-38" d="M 2034 2216 
Q 1584 2216 1326 1975 
Q 1069 1734 1069 1313 
Q 1069 891 1326 650 
Q 1584 409 2034 409 
Q 2484 409 2743 651 
Q 3003 894 3003 1313 
Q 3003 1734 2745 1975 
Q 2488 2216 2034 2216 
z
M 1403 2484 
Q 997 2584 770 2862 
Q 544 3141 544 3541 
Q 544 4100 942 4425 
Q 1341 4750 2034 4750 
Q 2731 4750 3128 4425 
Q 3525 4100 3525 3541 
Q 3525 3141 3298 2862 
Q 3072 2584 2669 2484 
Q 3125 2378 3379 2068 
Q 3634 1759 3634 1313 
Q 3634 634 3220 271 
Q 2806 -91 2034 -91 
Q 1263 -91 848 271 
Q 434 634 434 1313 
Q 434 1759 690 2068 
Q 947 2378 1403 2484 
z
M 1172 3481 
Q 1172 3119 1398 2916 
Q 1625 2713 2034 2713 
Q 2441 2713 2670 2916 
Q 2900 3119 2900 3481 
Q 2900 3844 2670 4047 
Q 2441 4250 2034 4250 
Q 1625 4250 1398 4047 
Q 1172 3844 1172 3481 
z
" transform="scale(0.015625)"/>
       </defs>
       <use xlink:href="#DejaVuSans-38"/>
       <use xlink:href="#DejaVuSans-30" x="63.623047"/>
      </g>
     </g>
    </g>
    <g id="ytick_5">
     <g id="line2d_13">
      <g>
       <use xlink:href="#mec14055e4b" x="57.6" y="173.690013" style="stroke: #000000; stroke-width: 0.8"/>
      </g>
     </g>
     <g id="text_14">
      <!-- 100 -->
      <g transform="translate(31.5125 177.489231)scale(0.1 -0.1)">
       <use xlink:href="#DejaVuSans-31"/>
       <use xlink:href="#DejaVuSans-30" x="63.623047"/>
       <use xlink:href="#DejaVuSans-30" x="127.246094"/>
      </g>
     </g>
    </g>
    <g id="ytick_6">
     <g id="line2d_14">
      <g>
       <use xlink:href="#mec14055e4b" x="57.6" y="143.960356" style="stroke: #000000; stroke-width: 0.8"/>
      </g>
     </g>
     <g id="text_15">
      <!-- 120 -->
      <g transform="translate(31.5125 147.759575)scale(0.1 -0.1)">
       <use xlink:href="#DejaVuSans-31"/>
       <use xlink:href="#DejaVuSans-32" x="63.623047"/>
       <use xlink:href="#DejaVuSans-30" x="127.246094"/>
      </g>
     </g>
    </g>
    <g id="ytick_7">
     <g id="line2d_15">
      <g>
       <use xlink:href="#mec14055e4b" x="57.6" y="114.230699" style="stroke: #000000; stroke-width: 0.8"/>
      </g>
     </g>
     <g id="text_16">
      <!-- 140 -->
      <g transform="translate(31.5125 118.029918)scale(0.1 -0.1)">
       <use xlink:href="#DejaVuSans-31"/>
       <use xlink:href="#DejaVuSans-34" x="63.623047"/>
       <use xlink:href="#DejaVuSans-30" x="127.246094"/>
      </g>
     </g>
    </g>
    <g id="ytick_8">
     <g id="line2d_16">
      <g>
       <use xlink:href="#mec14055e4b" x="57.6" y="84.501042" style="stroke: #000000; stroke-width: 0.8"/>
      </g>
     </g>
     <g id="text_17">
      <!-- 160 -->
      <g transform="translate(31.5125 88.300261)scale(0.1 -0.1)">
       <use xlink:href="#DejaVuSans-31"/>
       <use xlink:href="#DejaVuSans-36" x="63.623047"/>
       <use xlink:href="#DejaVuSans-30" x="127.246094"/>
      </g>
     </g>
    </g>
    <g id="ytick_9">
     <g id="line2d_17">
      <g>
       <use xlink:href="#mec14055e4b" x="57.6" y="54.771385" style="stroke: #000000; stroke-width: 0.8"/>
      </g>
     </g>
     <g id="text_18">
      <!-- 180 -->
      <g transform="translate(31.5125 58.570604)scale(0.1 -0.1)">
       <use xlink:href="#DejaVuSans-31"/>
       <use xlink:href="#DejaVuSans-38" x="63.623047"/>
       <use xlink:href="#DejaVuSans-30" x="127.246094"/>
      </g>
     </g>
    </g>
    <g id="text_19">
     <!-- Mean number of required repetitions of TPM -->
     <g transform="translate(25.432812 284.968625)rotate(-90)scale(0.1 -0.1)">
      <defs>
       <path id="DejaVuSans-4d" d="M 628 4666 
L 1569 4666 
L 2759 1491 
L 3956 4666 
L 4897 4666 
L 4897 0 
L 4281 0 
L 4281 4097 
L 3078 897 
L 2444 897 
L 1241 4097 
L 1241 0 
L 628 0 
L 628 4666 
z
" transform="scale(0.015625)"/>
       <path id="DejaVuSans-61" d="M 2194 1759 
Q 1497 1759 1228 1600 
Q 959 1441 959 1056 
Q 959 750 1161 570 
Q 1363 391 1709 391 
Q 2188 391 2477 730 
Q 2766 1069 2766 1631 
L 2766 1759 
L 2194 1759 
z
M 3341 1997 
L 3341 0 
L 2766 0 
L 2766 531 
Q 2569 213 2275 61 
Q 1981 -91 1556 -91 
Q 1019 -91 701 211 
Q 384 513 384 1019 
Q 384 1609 779 1909 
Q 1175 2209 1959 2209 
L 2766 2209 
L 2766 2266 
Q 2766 2663 2505 2880 
Q 2244 3097 1772 3097 
Q 1472 3097 1187 3025 
Q 903 2953 641 2809 
L 641 3341 
Q 956 3463 1253 3523 
Q 1550 3584 1831 3584 
Q 2591 3584 2966 3190 
Q 3341 2797 3341 1997 
z
" transform="scale(0.015625)"/>
       <path id="DejaVuSans-71" d="M 947 1747 
Q 947 1113 1208 752 
Q 1469 391 1925 391 
Q 2381 391 2643 752 
Q 2906 1113 2906 1747 
Q 2906 2381 2643 2742 
Q 2381 3103 1925 3103 
Q 1469 3103 1208 2742 
Q 947 2381 947 1747 
z
M 2906 525 
Q 2725 213 2448 61 
Q 2172 -91 1784 -91 
Q 1150 -91 751 415 
Q 353 922 353 1747 
Q 353 2572 751 3078 
Q 1150 3584 1784 3584 
Q 2172 3584 2448 3432 
Q 2725 3281 2906 2969 
L 2906 3500 
L 3481 3500 
L 3481 -1331 
L 2906 -1331 
L 2906 525 
z
" transform="scale(0.015625)"/>
       <path id="DejaVuSans-54" d="M -19 4666 
L 3928 4666 
L 3928 4134 
L 2272 4134 
L 2272 0 
L 1638 0 
L 1638 4134 
L -19 4134 
L -19 4666 
z
" transform="scale(0.015625)"/>
       <path id="DejaVuSans-50" d="M 1259 4147 
L 1259 2394 
L 2053 2394 
Q 2494 2394 2734 2622 
Q 2975 2850 2975 3272 
Q 2975 3691 2734 3919 
Q 2494 4147 2053 4147 
L 1259 4147 
z
M 628 4666 
L 2053 4666 
Q 2838 4666 3239 4311 
Q 3641 3956 3641 3272 
Q 3641 2581 3239 2228 
Q 2838 1875 2053 1875 
L 1259 1875 
L 1259 0 
L 628 0 
L 628 4666 
z
" transform="scale(0.015625)"/>
      </defs>
      <use xlink:href="#DejaVuSans-4d"/>
      <use xlink:href="#DejaVuSans-65" x="86.279297"/>
      <use xlink:href="#DejaVuSans-61" x="147.802734"/>
      <use xlink:href="#DejaVuSans-6e" x="209.082031"/>
      <use xlink:href="#DejaVuSans-20" x="272.460938"/>
      <use xlink:href="#DejaVuSans-6e" x="304.248047"/>
      <use xlink:href="#DejaVuSans-75" x="367.626953"/>
      <use xlink:href="#DejaVuSans-6d" x="431.005859"/>
      <use xlink:href="#DejaVuSans-62" x="528.417969"/>
      <use xlink:href="#DejaVuSans-65" x="591.894531"/>
      <use xlink:href="#DejaVuSans-72" x="653.417969"/>
      <use xlink:href="#DejaVuSans-20" x="694.53125"/>
      <use xlink:href="#DejaVuSans-6f" x="726.318359"/>
      <use xlink:href="#DejaVuSans-66" x="787.5"/>
      <use xlink:href="#DejaVuSans-20" x="822.705078"/>
      <use xlink:href="#DejaVuSans-72" x="854.492188"/>
      <use xlink:href="#DejaVuSans-65" x="893.355469"/>
      <use xlink:href="#DejaVuSans-71" x="954.878906"/>
      <use xlink:href="#DejaVuSans-75" x="1018.355469"/>
      <use xlink:href="#DejaVuSans-69" x="1081.734375"/>
      <use xlink:href="#DejaVuSans-72" x="1109.517578"/>
      <use xlink:href="#DejaVuSans-65" x="1148.380859"/>
      <use xlink:href="#DejaVuSans-64" x="1209.904297"/>
      <use xlink:href="#DejaVuSans-20" x="1273.380859"/>
      <use xlink:href="#DejaVuSans-72" x="1305.167969"/>
      <use xlink:href="#DejaVuSans-65" x="1344.03125"/>
      <use xlink:href="#DejaVuSans-70" x="1405.554688"/>
      <use xlink:href="#DejaVuSans-65" x="1469.03125"/>
      <use xlink:href="#DejaVuSans-74" x="1530.554688"/>
      <use xlink:href="#DejaVuSans-69" x="1569.763672"/>
      <use xlink:href="#DejaVuSans-74" x="1597.546875"/>
      <use xlink:href="#DejaVuSans-69" x="1636.755859"/>
      <use xlink:href="#DejaVuSans-6f" x="1664.539062"/>
      <use xlink:href="#DejaVuSans-6e" x="1725.720703"/>
      <use xlink:href="#DejaVuSans-73" x="1789.099609"/>
      <use xlink:href="#DejaVuSans-20" x="1841.199219"/>
      <use xlink:href="#DejaVuSans-6f" x="1872.986328"/>
      <use xlink:href="#DejaVuSans-66" x="1934.167969"/>
      <use xlink:href="#DejaVuSans-20" x="1969.373047"/>
      <use xlink:href="#DejaVuSans-54" x="2001.160156"/>
      <use xlink:href="#DejaVuSans-50" x="2062.244141"/>
      <use xlink:href="#DejaVuSans-4d" x="2122.546875"/>
     </g>
    </g>
   </g>
   <g id="line2d_18">
    <path d="M 73.832727 295.488 
L 75.756606 282.70493 
L 75.756606 282.70493 
L 77.680485 271.662727 
L 77.680485 271.662727 
L 79.604364 262.142249 
L 79.604364 262.142249 
L 81.528242 253.946486 
L 81.528242 253.946486 
L 83.452121 246.898836 
L 83.452121 246.898836 
L 85.376 240.84149 
L 85.376 240.84149 
L 86.818909 236.863212 
L 86.818909 236.863212 
L 89.223758 231.151354 
L 89.223758 231.151354 
L 90.666667 228.198433 
L 90.666667 228.198433 
L 92.590545 224.727464 
L 92.590545 224.727464 
L 94.995394 221.016579 
L 94.995394 221.016579 
L 97.881212 217.29327 
L 97.881212 217.29327 
L 100.286061 214.656774 
L 100.286061 214.656774 
L 102.209939 212.780877 
L 102.209939 212.780877 
L 104.614788 210.659229 
L 104.614788 210.659229 
L 107.981576 207.989482 
L 107.981576 207.989482 
L 112.310303 204.877819 
L 119.524848 200.053546 
L 119.524848 200.053546 
L 131.549091 192.325701 
L 138.282667 188.214433 
L 138.282667 188.214433 
L 144.054303 184.94126 
L 144.054303 184.94126 
L 150.306909 181.7563 
L 150.306909 181.7563 
L 154.635636 179.807626 
L 158.002424 178.445592 
L 158.002424 178.445592 
L 163.293091 176.576075 
L 163.293091 176.576075 
L 167.621818 175.2807 
L 173.393455 173.844418 
L 173.393455 173.844418 
L 179.165091 172.679906 
L 179.165091 172.679906 
L 184.455758 171.785315 
L 184.455758 171.785315 
L 212.352 167.539117 
L 223.414303 165.376297 
L 223.414303 165.376297 
L 239.286303 161.909071 
L 239.286303 161.909071 
L 248.424727 160.020293 
L 248.424727 160.020293 
L 258.044121 158.353124 
L 258.044121 158.353124 
L 265.739636 157.334572 
L 277.763879 156.281406 
L 277.763879 156.281406 
L 298.445576 154.96896 
L 298.445576 154.96896 
L 306.141091 154.131403 
L 323.456 150.710076 
L 323.456 150.710076 
L 327.784727 149.552033 
L 348.466424 144.457289 
L 348.466424 144.457289 
L 350.390303 144.211722 
L 373.957818 147.829387 
L 398.487273 137.276364 
L 398.487273 137.276364 
" clip-path="url(#p16166aadcb)" style="fill: none; stroke: #1f77b4; stroke-width: 1.5; stroke-linecap: square"/>
   </g>
   <g id="line2d_19">
    <path d="M 73.832727 283.310716 
L 75.756606 270.417972 
L 75.756606 270.417972 
L 77.680485 259.178643 
L 77.680485 259.178643 
L 79.604364 249.391211 
L 79.604364 249.391211 
L 81.528242 240.874374 
L 81.528242 240.874374 
L 83.452121 233.465463 
L 83.452121 233.465463 
L 85.376 227.018952 
L 85.376 227.018952 
L 86.818909 222.737015 
L 86.818909 222.737015 
L 89.223758 216.508419 
L 89.223758 216.508419 
L 90.666667 213.244723 
L 90.666667 213.244723 
L 92.590545 209.364748 
L 92.590545 209.364748 
L 94.995394 205.159561 
L 94.995394 205.159561 
L 97.881212 200.880389 
L 97.881212 200.880389 
L 100.286061 197.820265 
L 100.286061 197.820265 
L 102.209939 195.635219 
L 102.209939 195.635219 
L 104.614788 193.167395 
L 104.614788 193.167395 
L 107.981576 190.091963 
L 107.981576 190.091963 
L 112.310303 186.596537 
L 117.12 183.103452 
L 117.12 183.103452 
L 123.372606 178.940764 
L 123.372606 178.940764 
L 129.625212 175.080544 
L 129.625212 175.080544 
L 134.915879 172.036973 
L 134.915879 172.036973 
L 140.687515 168.979379 
L 140.687515 168.979379 
L 144.054303 167.338278 
L 144.054303 167.338278 
L 150.306909 164.595581 
L 150.306909 164.595581 
L 154.635636 162.937796 
L 159.926303 161.175756 
L 159.926303 161.175756 
L 165.697939 159.560419 
L 165.697939 159.560419 
L 169.545697 158.638907 
L 169.545697 158.638907 
L 177.241212 157.084833 
L 177.241212 157.084833 
L 184.455758 155.851891 
L 184.455758 155.851891 
L 200.327758 153.228275 
L 200.327758 153.228275 
L 210.428121 151.253075 
L 210.428121 151.253075 
L 217.161697 149.74244 
L 217.161697 149.74244 
L 229.666909 146.620717 
L 229.666909 146.620717 
L 246.500848 142.361734 
L 246.500848 142.361734 
L 253.715394 140.74955 
L 253.715394 140.74955 
L 261.410909 139.26035 
L 261.410909 139.26035 
L 265.739636 138.53181 
L 277.763879 136.840542 
L 277.763879 136.840542 
L 285.459394 135.879088 
L 298.445576 134.015995 
L 306.141091 132.541126 
L 325.860848 127.231198 
L 325.860848 127.231198 
L 327.784727 126.654031 
L 348.466424 122.508722 
L 348.466424 122.508722 
L 350.390303 122.523861 
L 373.476848 131.281164 
L 373.476848 131.281164 
L 373.957818 131.590235 
L 398.487273 124.011057 
L 398.487273 124.011057 
" clip-path="url(#p16166aadcb)" style="fill: none; stroke: #ff7f0e; stroke-width: 1.5; stroke-linecap: square"/>
   </g>
   <g id="line2d_20">
    <path d="M 73.832727 273.891713 
L 75.756606 261.254325 
L 75.756606 261.254325 
L 77.680485 250.240986 
L 77.680485 250.240986 
L 79.604364 240.658437 
L 79.604364 240.658437 
L 81.528242 232.331794 
L 81.528242 232.331794 
L 83.452121 225.103213 
L 83.452121 225.103213 
L 85.376 218.830634 
L 85.376 218.830634 
L 86.818909 214.676375 
L 86.818909 214.676375 
L 89.223758 208.657045 
L 89.223758 208.657045 
L 90.666667 205.517227 
L 90.666667 205.517227 
L 92.590545 201.800473 
L 92.590545 201.800473 
L 94.995394 197.79541 
L 94.995394 197.79541 
L 97.881212 193.74814 
L 97.881212 193.74814 
L 100.286061 190.871401 
L 100.286061 190.871401 
L 102.209939 188.824499 
L 102.209939 188.824499 
L 104.614788 186.516076 
L 104.614788 186.516076 
L 107.981576 183.633667 
L 107.981576 183.633667 
L 112.310303 180.323952 
L 117.12 176.941209 
L 117.12 176.941209 
L 125.296485 171.495346 
L 125.296485 171.495346 
L 134.915879 165.348348 
L 134.915879 165.348348 
L 142.130424 161.028505 
L 142.130424 161.028505 
L 146.940121 158.373656 
L 146.940121 158.373656 
L 150.787879 156.414041 
L 150.787879 156.414041 
L 155.597576 154.196809 
L 155.597576 154.196809 
L 159.926303 152.436264 
L 159.926303 152.436264 
L 165.697939 150.439156 
L 165.697939 150.439156 
L 169.545697 149.3208 
L 169.545697 149.3208 
L 173.874424 148.247528 
L 173.874424 148.247528 
L 181.08897 146.820614 
L 181.08897 146.820614 
L 184.455758 146.272756 
L 184.455758 146.272756 
L 198.403879 144.34362 
L 198.403879 144.34362 
L 205.618424 143.281673 
L 205.618424 143.281673 
L 212.352 142.09232 
L 217.161697 141.086323 
L 217.161697 141.086323 
L 224.857212 139.178096 
L 224.857212 139.178096 
L 229.666909 137.805864 
L 229.666909 137.805864 
L 239.286303 134.737145 
L 239.286303 134.737145 
L 258.044121 128.475895 
L 258.044121 128.475895 
L 265.739636 126.285366 
L 273.435152 124.557842 
L 273.435152 124.557842 
L 277.763879 123.82977 
L 277.763879 123.82977 
L 283.535515 123.149483 
L 283.535515 123.149483 
L 285.459394 122.995917 
L 298.445576 122.791362 
L 298.445576 122.791362 
L 306.141091 123.12698 
L 323.456 123.480484 
L 323.456 123.480484 
L 327.784727 123.146057 
L 348.466424 116.980314 
L 348.466424 116.980314 
L 350.390303 115.9767 
L 373.957818 100.714373 
L 398.487273 102.583762 
L 398.487273 102.583762 
" clip-path="url(#p16166aadcb)" style="fill: none; stroke: #2ca02c; stroke-width: 1.5; stroke-linecap: square"/>
   </g>
   <g id="line2d_21">
    <path d="M 73.832727 264.401707 
L 75.756606 252.682309 
L 75.756606 252.682309 
L 77.680485 242.385512 
L 77.680485 242.385512 
L 79.604364 233.353749 
L 79.604364 233.353749 
L 81.528242 225.443312 
L 81.528242 225.443312 
L 83.452121 218.523415 
L 83.452121 218.523415 
L 85.376 212.475311 
L 85.376 212.475311 
L 86.818909 208.446244 
L 86.818909 208.446244 
L 89.223758 202.574633 
L 89.223758 202.574633 
L 90.666667 199.496792 
L 90.666667 199.496792 
L 92.590545 195.842116 
L 92.590545 195.842116 
L 94.995394 191.895192 
L 94.995394 191.895192 
L 97.881212 187.908346 
L 97.881212 187.908346 
L 100.286061 185.086365 
L 100.286061 185.086365 
L 102.209939 183.091085 
L 102.209939 183.091085 
L 104.614788 180.860229 
L 104.614788 180.860229 
L 107.981576 178.113218 
L 107.981576 178.113218 
L 112.310303 175.019769 
L 117.12 171.913578 
L 117.12 171.913578 
L 128.663273 164.891821 
L 128.663273 164.891821 
L 150.787879 151.590757 
L 150.787879 151.590757 
L 158.002424 147.632551 
L 158.002424 147.632551 
L 164.25503 144.519239 
L 164.25503 144.519239 
L 169.545697 142.153817 
L 169.545697 142.153817 
L 173.874424 140.412092 
L 173.874424 140.412092 
L 179.646061 138.359546 
L 179.646061 138.359546 
L 184.455758 136.872694 
L 184.455758 136.872694 
L 192.151273 134.866363 
L 192.151273 134.866363 
L 198.403879 133.511118 
L 198.403879 133.511118 
L 205.618424 132.163563 
L 205.618424 132.163563 
L 217.161697 130.253102 
L 217.161697 130.253102 
L 229.666909 128.189941 
L 229.666909 128.189941 
L 242.653091 125.810322 
L 242.653091 125.810322 
L 258.044121 122.684328 
L 258.044121 122.684328 
L 273.435152 119.560213 
L 273.435152 119.560213 
L 285.459394 117.40404 
L 301.812364 115.089347 
L 301.812364 115.089347 
L 306.141091 114.58548 
L 327.784727 112.294822 
L 350.390303 109.220148 
L 373.957818 105.699637 
L 398.487273 106.890395 
L 398.487273 106.890395 
" clip-path="url(#p16166aadcb)" style="fill: none; stroke: #d62728; stroke-width: 1.5; stroke-linecap: square"/>
   </g>
   <g id="line2d_22">
    <path d="M 73.832727 259.235124 
L 75.756606 247.589469 
L 75.756606 247.589469 
L 77.680485 237.322019 
L 77.680485 237.322019 
L 79.604364 228.276663 
L 79.604364 228.276663 
L 81.528242 220.311912 
L 81.528242 220.311912 
L 83.452121 213.299829 
L 83.452121 213.299829 
L 85.376 207.125004 
L 85.376 207.125004 
L 86.818909 202.980461 
L 86.818909 202.980461 
L 89.223758 196.882438 
L 89.223758 196.882438 
L 90.666667 193.651237 
L 90.666667 193.651237 
L 92.590545 189.775373 
L 92.590545 189.775373 
L 94.995394 185.531147 
L 94.995394 185.531147 
L 97.881212 181.167946 
L 97.881212 181.167946 
L 100.286061 178.025424 
L 100.286061 178.025424 
L 102.209939 175.774678 
L 102.209939 175.774678 
L 104.614788 173.231668 
L 104.614788 173.231668 
L 107.981576 170.072627 
L 107.981576 170.072627 
L 111.829333 166.888083 
L 111.829333 166.888083 
L 115.677091 164.022228 
L 115.677091 164.022228 
L 120.967758 160.425989 
L 120.967758 160.425989 
L 125.296485 157.682911 
L 125.296485 157.682911 
L 131.549091 153.945393 
L 138.282667 150.179024 
L 138.282667 150.179024 
L 144.054303 147.176024 
L 144.054303 147.176024 
L 150.787879 143.971925 
L 150.787879 143.971925 
L 155.597576 141.900615 
L 155.597576 141.900615 
L 159.926303 140.198721 
L 159.926303 140.198721 
L 167.140848 137.702415 
L 167.140848 137.702415 
L 172.912485 135.993628 
L 172.912485 135.993628 
L 179.165091 134.394575 
L 179.165091 134.394575 
L 184.455758 133.209647 
L 184.455758 133.209647 
L 195.037091 131.154346 
L 195.037091 131.154346 
L 224.857212 125.709661 
L 224.857212 125.709661 
L 234.957576 123.596316 
L 234.957576 123.596316 
L 253.715394 119.383428 
L 253.715394 119.383428 
L 265.739636 116.692298 
L 281.130667 113.469697 
L 281.130667 113.469697 
L 285.459394 112.62033 
L 305.660121 109.010837 
L 305.660121 109.010837 
L 306.141091 108.9331 
L 325.860848 106.336901 
L 325.860848 106.336901 
L 327.784727 106.1732 
L 348.466424 106.030176 
L 348.466424 106.030176 
L 350.390303 106.167308 
L 373.476848 105.85308 
L 373.476848 105.85308 
L 373.957818 105.68033 
L 398.487273 53.568 
L 398.487273 53.568 
" clip-path="url(#p16166aadcb)" style="fill: none; stroke: #9467bd; stroke-width: 1.5; stroke-linecap: square"/>
   </g>
   <g id="line2d_23">
    <path d="M 73.832727 257.309709 
L 75.756606 245.419761 
L 75.756606 245.419761 
L 77.680485 234.842686 
L 77.680485 234.842686 
L 79.604364 225.446728 
L 79.604364 225.446728 
L 81.528242 217.110828 
L 81.528242 217.110828 
L 83.452121 209.723949 
L 83.452121 209.723949 
L 85.376 203.184424 
L 85.376 203.184424 
L 86.818909 198.779655 
L 86.818909 198.779655 
L 89.223758 192.283979 
L 89.223758 192.283979 
L 90.666667 188.840288 
L 90.666667 188.840288 
L 92.590545 184.715633 
L 92.590545 184.715633 
L 94.995394 180.219911 
L 94.995394 180.219911 
L 97.881212 175.64533 
L 97.881212 175.64533 
L 100.286061 172.401385 
L 100.286061 172.401385 
L 102.209939 170.116331 
L 102.209939 170.116331 
L 104.614788 167.584994 
L 104.614788 167.584994 
L 107.981576 164.5331 
L 107.981576 164.5331 
L 110.386424 162.630472 
L 110.386424 162.630472 
L 114.234182 159.943354 
L 114.234182 159.943354 
L 117.12 158.140712 
L 117.12 158.140712 
L 121.448727 155.665095 
L 128.663273 151.881733 
L 128.663273 151.881733 
L 140.687515 145.918199 
L 140.687515 145.918199 
L 152.711758 140.178956 
L 152.711758 140.178956 
L 159.926303 136.947125 
L 159.926303 136.947125 
L 167.621818 133.784406 
L 173.874424 131.483062 
L 173.874424 131.483062 
L 181.569939 129.017693 
L 181.569939 129.017693 
L 188.784485 127.078864 
L 188.784485 127.078864 
L 196.48 125.380047 
L 200.327758 124.656403 
L 200.327758 124.656403 
L 208.023273 123.4132 
L 208.023273 123.4132 
L 217.161697 122.187869 
L 217.161697 122.187869 
L 242.653091 119.002781 
L 242.653091 119.002781 
L 248.424727 118.132733 
L 248.424727 118.132733 
L 258.044121 116.454988 
L 258.044121 116.454988 
L 265.739636 114.88767 
L 277.763879 112.046577 
L 277.763879 112.046577 
L 285.459394 110.014645 
L 306.141091 104.166427 
L 325.860848 99.239052 
L 325.860848 99.239052 
L 327.784727 98.864973 
L 348.466424 97.079509 
L 348.466424 97.079509 
L 350.390303 97.178893 
L 373.957818 102.944374 
L 398.487273 112.398527 
L 398.487273 112.398527 
" clip-path="url(#p16166aadcb)" style="fill: none; stroke: #8c564b; stroke-width: 1.5; stroke-linecap: square"/>
   </g>
   <g id="line2d_24">
    <path d="M 73.832727 260.400617 
L 75.756606 247.385142 
L 75.756606 247.385142 
L 77.680485 236.009174 
L 77.680485 236.009174 
L 79.604364 226.077984 
L 79.604364 226.077984 
L 81.528242 217.415689 
L 81.528242 217.415689 
L 83.452121 209.863838 
L 83.452121 209.863838 
L 85.376 203.280076 
L 85.376 203.280076 
L 86.818909 198.900331 
L 86.818909 198.900331 
L 89.223758 192.520406 
L 89.223758 192.520406 
L 90.666667 189.173548 
L 90.666667 189.173548 
L 92.590545 185.191923 
L 92.590545 185.191923 
L 94.995394 180.874341 
L 94.995394 180.874341 
L 97.881212 176.480415 
L 97.881212 176.480415 
L 100.286061 173.339392 
L 100.286061 173.339392 
L 102.209939 171.097669 
L 102.209939 171.097669 
L 104.614788 168.566926 
L 104.614788 168.566926 
L 107.981576 165.413406 
L 107.981576 165.413406 
L 112.310303 161.823912 
L 117.12 158.218333 
L 117.12 158.218333 
L 123.853576 153.547646 
L 123.853576 153.547646 
L 131.549091 148.539417 
L 138.282667 144.434202 
L 138.282667 144.434202 
L 144.054303 141.175654 
L 144.054303 141.175654 
L 150.787879 137.747813 
L 150.787879 137.747813 
L 155.597576 135.574902 
L 155.597576 135.574902 
L 159.926303 133.822493 
L 159.926303 133.822493 
L 165.697939 131.776214 
L 165.697939 131.776214 
L 169.545697 130.581667 
L 169.545697 130.581667 
L 177.241212 128.529668 
L 177.241212 128.529668 
L 184.455758 126.894986 
L 184.455758 126.894986 
L 204.656485 122.560833 
L 204.656485 122.560833 
L 212.352 120.608241 
L 221.490424 117.921782 
L 221.490424 117.921782 
L 229.666909 115.200525 
L 229.666909 115.200525 
L 258.044121 105.159981 
L 258.044121 105.159981 
L 265.739636 102.895255 
L 273.435152 101.056428 
L 273.435152 101.056428 
L 281.130667 99.705211 
L 281.130667 99.705211 
L 285.459394 99.165726 
L 298.445576 98.425893 
L 298.445576 98.425893 
L 306.141091 98.494065 
L 350.390303 100.834491 
L 373.476848 98.122922 
L 373.476848 98.122922 
L 373.957818 97.915856 
L 398.487273 54.030196 
L 398.487273 54.030196 
" clip-path="url(#p16166aadcb)" style="fill: none; stroke: #e377c2; stroke-width: 1.5; stroke-linecap: square"/>
   </g>
   <g id="line2d_25">
    <path d="M 73.832727 252.141283 
L 75.756606 240.669875 
L 75.756606 240.669875 
L 77.680485 230.443828 
L 77.680485 230.443828 
L 79.604364 221.330318 
L 79.604364 221.330318 
L 81.528242 213.208758 
L 81.528242 213.208758 
L 83.452121 205.969879 
L 83.452121 205.969879 
L 85.376 199.514856 
L 85.376 199.514856 
L 86.818909 195.133997 
L 86.818909 195.133997 
L 89.223758 188.608455 
L 89.223758 188.608455 
L 90.666667 185.108363 
L 90.666667 185.108363 
L 92.590545 180.868197 
L 92.590545 180.868197 
L 94.995394 176.171069 
L 94.995394 176.171069 
L 97.881212 171.285774 
L 97.881212 171.285774 
L 100.286061 167.738383 
L 100.286061 167.738383 
L 102.209939 165.189244 
L 102.209939 165.189244 
L 104.614788 162.309872 
L 104.614788 162.309872 
L 107.981576 158.754659 
L 107.981576 158.754659 
L 110.386424 156.493108 
L 110.386424 156.493108 
L 114.234182 153.254185 
L 114.234182 153.254185 
L 117.12 151.069544 
L 117.12 151.069544 
L 121.448727 148.092753 
L 125.296485 145.680263 
L 125.296485 145.680263 
L 131.068121 142.366916 
L 131.068121 142.366916 
L 136.839758 139.329732 
L 136.839758 139.329732 
L 142.611394 136.507018 
L 142.611394 136.507018 
L 150.306909 133.016696 
L 150.306909 133.016696 
L 158.002424 129.79142 
L 158.002424 129.79142 
L 167.140848 126.249928 
L 167.140848 126.249928 
L 173.874424 123.806068 
L 173.874424 123.806068 
L 184.455758 120.190851 
L 184.455758 120.190851 
L 196.48 116.36084 
L 205.618424 113.654508 
L 205.618424 113.654508 
L 212.352 111.802749 
L 221.490424 109.542096 
L 221.490424 109.542096 
L 229.185939 107.919617 
L 234.957576 106.899702 
L 234.957576 106.899702 
L 242.653091 105.823319 
L 242.653091 105.823319 
L 248.424727 105.229158 
L 248.424727 105.229158 
L 258.044121 104.602894 
L 258.044121 104.602894 
L 265.739636 104.346216 
L 283.535515 103.876392 
L 283.535515 103.876392 
L 285.459394 103.779252 
L 298.445576 102.552303 
L 298.445576 102.552303 
L 304.217212 101.605935 
L 304.217212 101.605935 
L 306.141091 101.229997 
L 325.860848 95.956269 
L 325.860848 95.956269 
L 327.784727 95.369104 
L 348.466424 90.566425 
L 348.466424 90.566425 
L 350.390303 90.402745 
L 373.957818 92.568694 
L 398.487273 62.201172 
L 398.487273 62.201172 
" clip-path="url(#p16166aadcb)" style="fill: none; stroke: #7f7f7f; stroke-width: 1.5; stroke-linecap: square"/>
   </g>
   <g id="line2d_26">
    <path d="M 73.832727 267.539534 
L 75.756606 248.273017 
L 75.756606 248.273017 
L 77.680485 232.1115 
L 77.680485 232.1115 
L 79.604364 218.62504 
L 79.604364 218.62504 
L 81.528242 207.430137 
L 81.528242 207.430137 
L 83.452121 198.185935 
L 83.452121 198.185935 
L 85.376 190.590633 
L 85.376 190.590633 
L 86.818909 185.814921 
L 86.818909 185.814921 
L 89.223758 179.314896 
L 89.223758 179.314896 
L 90.666667 176.147956 
L 90.666667 176.147956 
L 92.590545 172.621461 
L 92.590545 172.621461 
L 94.995394 169.113118 
L 94.995394 169.113118 
L 96.919273 166.863481 
L 98.362182 165.426662 
L 98.362182 165.426662 
L 100.76703 163.390613 
L 100.76703 163.390613 
L 104.133818 161.043181 
L 104.133818 161.043181 
L 107.981576 158.72112 
L 107.981576 158.72112 
L 115.677091 154.174106 
L 115.677091 154.174106 
L 120.967758 150.723928 
L 120.967758 150.723928 
L 125.296485 147.679523 
L 125.296485 147.679523 
L 140.687515 136.597729 
L 140.687515 136.597729 
L 144.054303 134.432454 
L 144.054303 134.432454 
L 148.38303 131.916875 
L 148.38303 131.916875 
L 152.711758 129.743871 
L 152.711758 129.743871 
L 155.597576 128.495078 
L 155.597576 128.495078 
L 159.926303 126.917456 
L 159.926303 126.917456 
L 165.697939 125.31918 
L 165.697939 125.31918 
L 169.545697 124.522379 
L 169.545697 124.522379 
L 173.874424 123.817624 
L 173.874424 123.817624 
L 184.455758 122.497914 
L 184.455758 122.497914 
L 192.151273 121.424027 
L 192.151273 121.424027 
L 196.48 120.631747 
L 200.327758 119.771944 
L 200.327758 119.771944 
L 205.618424 118.322687 
L 205.618424 118.322687 
L 210.428121 116.733079 
L 210.428121 116.733079 
L 212.352 116.028799 
L 217.161697 114.118804 
L 217.161697 114.118804 
L 227.262061 109.648078 
L 227.262061 109.648078 
L 234.957576 106.193211 
L 234.957576 106.193211 
L 242.653091 103.097667 
L 242.653091 103.097667 
L 246.981818 101.641435 
L 248.424727 101.213181 
L 248.424727 101.213181 
L 253.715394 99.91691 
L 253.715394 99.91691 
L 258.044121 99.197688 
L 258.044121 99.197688 
L 261.410909 98.855828 
L 261.410909 98.855828 
L 265.739636 98.686283 
L 273.435152 99.034118 
L 273.435152 99.034118 
L 281.130667 99.926865 
L 281.130667 99.926865 
L 285.459394 100.495388 
L 298.445576 101.332401 
L 298.445576 101.332401 
L 301.812364 101.101893 
L 301.812364 101.101893 
L 306.141091 100.413306 
L 323.456 92.64516 
L 323.456 92.64516 
L 327.784727 89.620914 
L 348.466424 76.386294 
L 348.466424 76.386294 
L 350.390303 75.892983 
L 373.476848 91.949939 
L 373.476848 91.949939 
L 373.957818 92.683117 
L 398.487273 86.019354 
L 398.487273 86.019354 
" clip-path="url(#p16166aadcb)" style="fill: none; stroke: #bcbd22; stroke-width: 1.5; stroke-linecap: square"/>
   </g>
   <g id="line2d_27">
    <path d="M 73.832727 248.786173 
L 75.756606 235.511097 
L 75.756606 235.511097 
L 77.680485 223.987422 
L 77.680485 223.987422 
L 79.604364 214.011456 
L 79.604364 214.011456 
L 81.528242 205.397738 
L 81.528242 205.397738 
L 83.452121 197.977827 
L 83.452121 197.977827 
L 85.376 191.599147 
L 85.376 191.599147 
L 86.818909 187.415018 
L 86.818909 187.415018 
L 89.223758 181.427963 
L 89.223758 181.427963 
L 90.666667 178.350016 
L 90.666667 178.350016 
L 92.590545 174.757093 
L 92.590545 174.757093 
L 94.995394 170.960647 
L 94.995394 170.960647 
L 96.919273 168.381925 
L 96.919273 168.381925 
L 98.362182 166.669043 
L 98.362182 166.669043 
L 100.76703 164.158752 
L 100.76703 164.158752 
L 103.652848 161.588089 
L 103.652848 161.588089 
L 106.538667 159.359035 
L 106.538667 159.359035 
L 110.386424 156.717213 
L 110.386424 156.717213 
L 117.12 152.467249 
L 117.12 152.467249 
L 125.296485 147.244149 
L 125.296485 147.244149 
L 133.47297 141.666627 
L 133.47297 141.666627 
L 148.38303 131.274188 
L 148.38303 131.274188 
L 154.635636 127.274907 
L 154.635636 127.274907 
L 158.002424 125.292136 
L 158.002424 125.292136 
L 163.293091 122.465114 
L 163.293091 122.465114 
L 167.621818 120.436276 
L 167.621818 120.436276 
L 169.545697 119.618993 
L 169.545697 119.618993 
L 173.874424 117.967965 
L 173.874424 117.967965 
L 179.646061 116.150183 
L 179.646061 116.150183 
L 184.455758 114.932101 
L 184.455758 114.932101 
L 192.151273 113.41849 
L 192.151273 113.41849 
L 200.327758 112.165033 
L 200.327758 112.165033 
L 212.352 110.378631 
L 212.352 110.378631 
L 217.161697 109.523835 
L 217.161697 109.523835 
L 224.857212 107.858975 
L 224.857212 107.858975 
L 229.666909 106.604402 
L 229.666909 106.604402 
L 234.957576 105.0315 
L 234.957576 105.0315 
L 242.653091 102.426746 
L 242.653091 102.426746 
L 248.424727 100.296711 
L 248.424727 100.296711 
L 261.410909 95.41927 
L 261.410909 95.41927 
L 265.739636 93.918188 
L 265.739636 93.918188 
L 273.435152 91.610103 
L 273.435152 91.610103 
L 277.763879 90.581867 
L 277.763879 90.581867 
L 283.535515 89.577581 
L 283.535515 89.577581 
L 285.459394 89.343264 
L 285.459394 89.343264 
L 298.445576 89.100565 
L 298.445576 89.100565 
L 304.217212 89.659101 
L 304.217212 89.659101 
L 306.141091 89.912965 
L 306.141091 89.912965 
L 323.456 92.536832 
L 323.456 92.536832 
L 327.784727 92.884609 
L 327.784727 92.884609 
L 348.466424 88.516205 
L 348.466424 88.516205 
L 350.390303 87.435441 
L 350.390303 87.435441 
L 373.957818 67.939514 
L 373.957818 67.939514 
L 398.487273 91.078542 
L 398.487273 91.078542 
" clip-path="url(#p16166aadcb)" style="fill: none; stroke: #17becf; stroke-width: 1.5; stroke-linecap: square"/>
   </g>
   <g id="line2d_28">
    <path d="M 73.832727 250.575561 
L 75.756606 236.285477 
L 75.756606 236.285477 
L 77.680485 223.973829 
L 77.680485 223.973829 
L 79.604364 213.387381 
L 79.604364 213.387381 
L 81.528242 204.298917 
L 81.528242 204.298917 
L 83.452121 196.505181 
L 83.452121 196.505181 
L 85.376 189.824944 
L 85.376 189.824944 
L 86.818909 185.447919 
L 86.818909 185.447919 
L 89.223758 179.179337 
L 89.223758 179.179337 
L 90.666667 175.946296 
L 90.666667 175.946296 
L 92.590545 172.152799 
L 92.590545 172.152799 
L 94.995394 168.10442 
L 94.995394 168.10442 
L 97.881212 164.047692 
L 97.881212 164.047692 
L 100.286061 161.175349 
L 100.286061 161.175349 
L 102.209939 159.129742 
L 102.209939 159.129742 
L 104.614788 156.81201 
L 104.614788 156.81201 
L 107.981576 153.885631 
L 107.981576 153.885631 
L 112.310303 150.456666 
L 112.310303 150.456666 
L 119.524848 145.104091 
L 119.524848 145.104091 
L 131.549091 136.497118 
L 131.549091 136.497118 
L 138.282667 131.929689 
L 138.282667 131.929689 
L 144.054303 128.304039 
L 144.054303 128.304039 
L 150.306909 124.782013 
L 150.306909 124.782013 
L 154.635636 122.625076 
L 154.635636 122.625076 
L 158.002424 121.112446 
L 158.002424 121.112446 
L 163.293091 119.019583 
L 163.293091 119.019583 
L 167.621818 117.546173 
L 167.621818 117.546173 
L 173.393455 115.86585 
L 173.393455 115.86585 
L 179.165091 114.434435 
L 179.165091 114.434435 
L 184.455758 113.262716 
L 184.455758 113.262716 
L 200.327758 109.876861 
L 200.327758 109.876861 
L 210.428121 107.389472 
L 210.428121 107.389472 
L 217.161697 105.511894 
L 217.161697 105.511894 
L 229.666909 101.697268 
L 229.666909 101.697268 
L 242.653091 97.76161 
L 242.653091 97.76161 
L 248.424727 96.194366 
L 248.424727 96.194366 
L 253.715394 94.91507 
L 253.715394 94.91507 
L 261.410909 93.362152 
L 261.410909 93.362152 
L 265.739636 92.648977 
L 265.739636 92.648977 
L 277.763879 91.133648 
L 277.763879 91.133648 
L 285.459394 90.30482 
L 285.459394 90.30482 
L 298.445576 88.424914 
L 298.445576 88.424914 
L 304.217212 87.148269 
L 304.217212 87.148269 
L 306.141091 86.641266 
L 306.141091 86.641266 
L 323.456 80.152418 
L 323.456 80.152418 
L 327.784727 78.114415 
L 327.784727 78.114415 
L 348.466424 70.048756 
L 348.466424 70.048756 
L 350.390303 69.782105 
L 350.390303 69.782105 
L 373.476848 80.130307 
L 373.476848 80.130307 
L 373.957818 80.615736 
L 373.957818 80.615736 
L 398.487273 91.242683 
L 398.487273 91.242683 
" clip-path="url(#p16166aadcb)" style="fill: none; stroke: #1f77b4; stroke-width: 1.5; stroke-linecap: square"/>
   </g>
   <g id="patch_3">
    <path d="M 57.6 307.584 
L 57.6 41.472 
" style="fill: none; stroke: #000000; stroke-width: 0.8; stroke-linejoin: miter; stroke-linecap: square"/>
   </g>
   <g id="patch_4">
    <path d="M 414.72 307.584 
L 414.72 41.472 
" style="fill: none; stroke: #000000; stroke-width: 0.8; stroke-linejoin: miter; stroke-linecap: square"/>
   </g>
   <g id="patch_5">
    <path d="M 57.6 307.584 
L 414.72 307.584 
" style="fill: none; stroke: #000000; stroke-width: 0.8; stroke-linejoin: miter; stroke-linecap: square"/>
   </g>
   <g id="patch_6">
    <path d="M 57.6 41.472 
L 414.72 41.472 
" style="fill: none; stroke: #000000; stroke-width: 0.8; stroke-linejoin: miter; stroke-linecap: square"/>
   </g>
   <g id="text_20">
    <!-- QBER influence on mean number of required repetitions of TPM with L=3 -->
    <g transform="translate(16.7025 35.472)scale(0.12 -0.12)">
     <defs>
      <path id="DejaVuSans-51" d="M 2522 4238 
Q 1834 4238 1429 3725 
Q 1025 3213 1025 2328 
Q 1025 1447 1429 934 
Q 1834 422 2522 422 
Q 3209 422 3611 934 
Q 4013 1447 4013 2328 
Q 4013 3213 3611 3725 
Q 3209 4238 2522 4238 
z
M 3406 84 
L 4238 -825 
L 3475 -825 
L 2784 -78 
Q 2681 -84 2626 -87 
Q 2572 -91 2522 -91 
Q 1538 -91 948 567 
Q 359 1225 359 2328 
Q 359 3434 948 4092 
Q 1538 4750 2522 4750 
Q 3503 4750 4090 4092 
Q 4678 3434 4678 2328 
Q 4678 1516 4351 937 
Q 4025 359 3406 84 
z
" transform="scale(0.015625)"/>
      <path id="DejaVuSans-42" d="M 1259 2228 
L 1259 519 
L 2272 519 
Q 2781 519 3026 730 
Q 3272 941 3272 1375 
Q 3272 1813 3026 2020 
Q 2781 2228 2272 2228 
L 1259 2228 
z
M 1259 4147 
L 1259 2741 
L 2194 2741 
Q 2656 2741 2882 2914 
Q 3109 3088 3109 3444 
Q 3109 3797 2882 3972 
Q 2656 4147 2194 4147 
L 1259 4147 
z
M 628 4666 
L 2241 4666 
Q 2963 4666 3353 4366 
Q 3744 4066 3744 3513 
Q 3744 3084 3544 2831 
Q 3344 2578 2956 2516 
Q 3422 2416 3680 2098 
Q 3938 1781 3938 1306 
Q 3938 681 3513 340 
Q 3088 0 2303 0 
L 628 0 
L 628 4666 
z
" transform="scale(0.015625)"/>
      <path id="DejaVuSans-45" d="M 628 4666 
L 3578 4666 
L 3578 4134 
L 1259 4134 
L 1259 2753 
L 3481 2753 
L 3481 2222 
L 1259 2222 
L 1259 531 
L 3634 531 
L 3634 0 
L 628 0 
L 628 4666 
z
" transform="scale(0.015625)"/>
      <path id="DejaVuSans-52" d="M 2841 2188 
Q 3044 2119 3236 1894 
Q 3428 1669 3622 1275 
L 4263 0 
L 3584 0 
L 2988 1197 
Q 2756 1666 2539 1819 
Q 2322 1972 1947 1972 
L 1259 1972 
L 1259 0 
L 628 0 
L 628 4666 
L 2053 4666 
Q 2853 4666 3247 4331 
Q 3641 3997 3641 3322 
Q 3641 2881 3436 2590 
Q 3231 2300 2841 2188 
z
M 1259 4147 
L 1259 2491 
L 2053 2491 
Q 2509 2491 2742 2702 
Q 2975 2913 2975 3322 
Q 2975 3731 2742 3939 
Q 2509 4147 2053 4147 
L 1259 4147 
z
" transform="scale(0.015625)"/>
      <path id="DejaVuSans-63" d="M 3122 3366 
L 3122 2828 
Q 2878 2963 2633 3030 
Q 2388 3097 2138 3097 
Q 1578 3097 1268 2742 
Q 959 2388 959 1747 
Q 959 1106 1268 751 
Q 1578 397 2138 397 
Q 2388 397 2633 464 
Q 2878 531 3122 666 
L 3122 134 
Q 2881 22 2623 -34 
Q 2366 -91 2075 -91 
Q 1284 -91 818 406 
Q 353 903 353 1747 
Q 353 2603 823 3093 
Q 1294 3584 2113 3584 
Q 2378 3584 2631 3529 
Q 2884 3475 3122 3366 
z
" transform="scale(0.015625)"/>
      <path id="DejaVuSans-77" d="M 269 3500 
L 844 3500 
L 1563 769 
L 2278 3500 
L 2956 3500 
L 3675 769 
L 4391 3500 
L 4966 3500 
L 4050 0 
L 3372 0 
L 2619 2869 
L 1863 0 
L 1184 0 
L 269 3500 
z
" transform="scale(0.015625)"/>
      <path id="DejaVuSans-4c" d="M 628 4666 
L 1259 4666 
L 1259 531 
L 3531 531 
L 3531 0 
L 628 0 
L 628 4666 
z
" transform="scale(0.015625)"/>
      <path id="DejaVuSans-3d" d="M 678 2906 
L 4684 2906 
L 4684 2381 
L 678 2381 
L 678 2906 
z
M 678 1631 
L 4684 1631 
L 4684 1100 
L 678 1100 
L 678 1631 
z
" transform="scale(0.015625)"/>
      <path id="DejaVuSans-33" d="M 2597 2516 
Q 3050 2419 3304 2112 
Q 3559 1806 3559 1356 
Q 3559 666 3084 287 
Q 2609 -91 1734 -91 
Q 1441 -91 1130 -33 
Q 819 25 488 141 
L 488 750 
Q 750 597 1062 519 
Q 1375 441 1716 441 
Q 2309 441 2620 675 
Q 2931 909 2931 1356 
Q 2931 1769 2642 2001 
Q 2353 2234 1838 2234 
L 1294 2234 
L 1294 2753 
L 1863 2753 
Q 2328 2753 2575 2939 
Q 2822 3125 2822 3475 
Q 2822 3834 2567 4026 
Q 2313 4219 1838 4219 
Q 1578 4219 1281 4162 
Q 984 4106 628 3988 
L 628 4550 
Q 988 4650 1302 4700 
Q 1616 4750 1894 4750 
Q 2613 4750 3031 4423 
Q 3450 4097 3450 3541 
Q 3450 3153 3228 2886 
Q 3006 2619 2597 2516 
z
" transform="scale(0.015625)"/>
     </defs>
     <use xlink:href="#DejaVuSans-51"/>
     <use xlink:href="#DejaVuSans-42" x="78.710938"/>
     <use xlink:href="#DejaVuSans-45" x="147.314453"/>
     <use xlink:href="#DejaVuSans-52" x="210.498047"/>
     <use xlink:href="#DejaVuSans-20" x="279.980469"/>
     <use xlink:href="#DejaVuSans-69" x="311.767578"/>
     <use xlink:href="#DejaVuSans-6e" x="339.550781"/>
     <use xlink:href="#DejaVuSans-66" x="402.929688"/>
     <use xlink:href="#DejaVuSans-6c" x="438.134766"/>
     <use xlink:href="#DejaVuSans-75" x="465.917969"/>
     <use xlink:href="#DejaVuSans-65" x="529.296875"/>
     <use xlink:href="#DejaVuSans-6e" x="590.820312"/>
     <use xlink:href="#DejaVuSans-63" x="654.199219"/>
     <use xlink:href="#DejaVuSans-65" x="709.179688"/>
     <use xlink:href="#DejaVuSans-20" x="770.703125"/>
     <use xlink:href="#DejaVuSans-6f" x="802.490234"/>
     <use xlink:href="#DejaVuSans-6e" x="863.671875"/>
     <use xlink:href="#DejaVuSans-20" x="927.050781"/>
     <use xlink:href="#DejaVuSans-6d" x="958.837891"/>
     <use xlink:href="#DejaVuSans-65" x="1056.25"/>
     <use xlink:href="#DejaVuSans-61" x="1117.773438"/>
     <use xlink:href="#DejaVuSans-6e" x="1179.052734"/>
     <use xlink:href="#DejaVuSans-20" x="1242.431641"/>
     <use xlink:href="#DejaVuSans-6e" x="1274.21875"/>
     <use xlink:href="#DejaVuSans-75" x="1337.597656"/>
     <use xlink:href="#DejaVuSans-6d" x="1400.976562"/>
     <use xlink:href="#DejaVuSans-62" x="1498.388672"/>
     <use xlink:href="#DejaVuSans-65" x="1561.865234"/>
     <use xlink:href="#DejaVuSans-72" x="1623.388672"/>
     <use xlink:href="#DejaVuSans-20" x="1664.501953"/>
     <use xlink:href="#DejaVuSans-6f" x="1696.289062"/>
     <use xlink:href="#DejaVuSans-66" x="1757.470703"/>
     <use xlink:href="#DejaVuSans-20" x="1792.675781"/>
     <use xlink:href="#DejaVuSans-72" x="1824.462891"/>
     <use xlink:href="#DejaVuSans-65" x="1863.326172"/>
     <use xlink:href="#DejaVuSans-71" x="1924.849609"/>
     <use xlink:href="#DejaVuSans-75" x="1988.326172"/>
     <use xlink:href="#DejaVuSans-69" x="2051.705078"/>
     <use xlink:href="#DejaVuSans-72" x="2079.488281"/>
     <use xlink:href="#DejaVuSans-65" x="2118.351562"/>
     <use xlink:href="#DejaVuSans-64" x="2179.875"/>
     <use xlink:href="#DejaVuSans-20" x="2243.351562"/>
     <use xlink:href="#DejaVuSans-72" x="2275.138672"/>
     <use xlink:href="#DejaVuSans-65" x="2314.001953"/>
     <use xlink:href="#DejaVuSans-70" x="2375.525391"/>
     <use xlink:href="#DejaVuSans-65" x="2439.001953"/>
     <use xlink:href="#DejaVuSans-74" x="2500.525391"/>
     <use xlink:href="#DejaVuSans-69" x="2539.734375"/>
     <use xlink:href="#DejaVuSans-74" x="2567.517578"/>
     <use xlink:href="#DejaVuSans-69" x="2606.726562"/>
     <use xlink:href="#DejaVuSans-6f" x="2634.509766"/>
     <use xlink:href="#DejaVuSans-6e" x="2695.691406"/>
     <use xlink:href="#DejaVuSans-73" x="2759.070312"/>
     <use xlink:href="#DejaVuSans-20" x="2811.169922"/>
     <use xlink:href="#DejaVuSans-6f" x="2842.957031"/>
     <use xlink:href="#DejaVuSans-66" x="2904.138672"/>
     <use xlink:href="#DejaVuSans-20" x="2939.34375"/>
     <use xlink:href="#DejaVuSans-54" x="2971.130859"/>
     <use xlink:href="#DejaVuSans-50" x="3032.214844"/>
     <use xlink:href="#DejaVuSans-4d" x="3092.517578"/>
     <use xlink:href="#DejaVuSans-20" x="3178.796875"/>
     <use xlink:href="#DejaVuSans-77" x="3210.583984"/>
     <use xlink:href="#DejaVuSans-69" x="3292.371094"/>
     <use xlink:href="#DejaVuSans-74" x="3320.154297"/>
     <use xlink:href="#DejaVuSans-68" x="3359.363281"/>
     <use xlink:href="#DejaVuSans-20" x="3422.742188"/>
     <use xlink:href="#DejaVuSans-4c" x="3454.529297"/>
     <use xlink:href="#DejaVuSans-3d" x="3510.242188"/>
     <use xlink:href="#DejaVuSans-33" x="3594.03125"/>
    </g>
   </g>
   <g id="legend_1">
    <g id="patch_7">
     <path d="M 328.760625 302.584 
L 407.72 302.584 
Q 409.72 302.584 409.72 300.584 
L 409.72 140.124625 
Q 409.72 138.124625 407.72 138.124625 
L 328.760625 138.124625 
Q 326.760625 138.124625 326.760625 140.124625 
L 326.760625 300.584 
Q 326.760625 302.584 328.760625 302.584 
z
" style="fill: #ffffff; opacity: 0.8; stroke: #cccccc; stroke-linejoin: miter"/>
    </g>
    <g id="line2d_29">
     <path d="M 330.760625 146.223062 
L 340.760625 146.223062 
L 350.760625 146.223062 
" style="fill: none; stroke: #1f77b4; stroke-width: 1.5; stroke-linecap: square"/>
    </g>
    <g id="text_21">
     <!-- QBER: 1 -->
     <g transform="translate(358.760625 149.723062)scale(0.1 -0.1)">
      <defs>
       <path id="DejaVuSans-3a" d="M 750 794 
L 1409 794 
L 1409 0 
L 750 0 
L 750 794 
z
M 750 3309 
L 1409 3309 
L 1409 2516 
L 750 2516 
L 750 3309 
z
" transform="scale(0.015625)"/>
      </defs>
      <use xlink:href="#DejaVuSans-51"/>
      <use xlink:href="#DejaVuSans-42" x="78.710938"/>
      <use xlink:href="#DejaVuSans-45" x="147.314453"/>
      <use xlink:href="#DejaVuSans-52" x="210.498047"/>
      <use xlink:href="#DejaVuSans-3a" x="276.855469"/>
      <use xlink:href="#DejaVuSans-20" x="310.546875"/>
      <use xlink:href="#DejaVuSans-31" x="342.333984"/>
     </g>
    </g>
    <g id="line2d_30">
     <path d="M 330.760625 160.901188 
L 340.760625 160.901188 
L 350.760625 160.901188 
" style="fill: none; stroke: #ff7f0e; stroke-width: 1.5; stroke-linecap: square"/>
    </g>
    <g id="text_22">
     <!-- QBER: 2 -->
     <g transform="translate(358.760625 164.401188)scale(0.1 -0.1)">
      <use xlink:href="#DejaVuSans-51"/>
      <use xlink:href="#DejaVuSans-42" x="78.710938"/>
      <use xlink:href="#DejaVuSans-45" x="147.314453"/>
      <use xlink:href="#DejaVuSans-52" x="210.498047"/>
      <use xlink:href="#DejaVuSans-3a" x="276.855469"/>
      <use xlink:href="#DejaVuSans-20" x="310.546875"/>
      <use xlink:href="#DejaVuSans-32" x="342.333984"/>
     </g>
    </g>
    <g id="line2d_31">
     <path d="M 330.760625 175.579313 
L 340.760625 175.579313 
L 350.760625 175.579313 
" style="fill: none; stroke: #2ca02c; stroke-width: 1.5; stroke-linecap: square"/>
    </g>
    <g id="text_23">
     <!-- QBER: 3 -->
     <g transform="translate(358.760625 179.079313)scale(0.1 -0.1)">
      <use xlink:href="#DejaVuSans-51"/>
      <use xlink:href="#DejaVuSans-42" x="78.710938"/>
      <use xlink:href="#DejaVuSans-45" x="147.314453"/>
      <use xlink:href="#DejaVuSans-52" x="210.498047"/>
      <use xlink:href="#DejaVuSans-3a" x="276.855469"/>
      <use xlink:href="#DejaVuSans-20" x="310.546875"/>
      <use xlink:href="#DejaVuSans-33" x="342.333984"/>
     </g>
    </g>
    <g id="line2d_32">
     <path d="M 330.760625 190.257438 
L 340.760625 190.257438 
L 350.760625 190.257438 
" style="fill: none; stroke: #d62728; stroke-width: 1.5; stroke-linecap: square"/>
    </g>
    <g id="text_24">
     <!-- QBER: 4 -->
     <g transform="translate(358.760625 193.757438)scale(0.1 -0.1)">
      <use xlink:href="#DejaVuSans-51"/>
      <use xlink:href="#DejaVuSans-42" x="78.710938"/>
      <use xlink:href="#DejaVuSans-45" x="147.314453"/>
      <use xlink:href="#DejaVuSans-52" x="210.498047"/>
      <use xlink:href="#DejaVuSans-3a" x="276.855469"/>
      <use xlink:href="#DejaVuSans-20" x="310.546875"/>
      <use xlink:href="#DejaVuSans-34" x="342.333984"/>
     </g>
    </g>
    <g id="line2d_33">
     <path d="M 330.760625 204.935563 
L 340.760625 204.935563 
L 350.760625 204.935563 
" style="fill: none; stroke: #9467bd; stroke-width: 1.5; stroke-linecap: square"/>
    </g>
    <g id="text_25">
     <!-- QBER: 5 -->
     <g transform="translate(358.760625 208.435563)scale(0.1 -0.1)">
      <use xlink:href="#DejaVuSans-51"/>
      <use xlink:href="#DejaVuSans-42" x="78.710938"/>
      <use xlink:href="#DejaVuSans-45" x="147.314453"/>
      <use xlink:href="#DejaVuSans-52" x="210.498047"/>
      <use xlink:href="#DejaVuSans-3a" x="276.855469"/>
      <use xlink:href="#DejaVuSans-20" x="310.546875"/>
      <use xlink:href="#DejaVuSans-35" x="342.333984"/>
     </g>
    </g>
    <g id="line2d_34">
     <path d="M 330.760625 219.613688 
L 340.760625 219.613688 
L 350.760625 219.613688 
" style="fill: none; stroke: #8c564b; stroke-width: 1.5; stroke-linecap: square"/>
    </g>
    <g id="text_26">
     <!-- QBER: 6 -->
     <g transform="translate(358.760625 223.113688)scale(0.1 -0.1)">
      <use xlink:href="#DejaVuSans-51"/>
      <use xlink:href="#DejaVuSans-42" x="78.710938"/>
      <use xlink:href="#DejaVuSans-45" x="147.314453"/>
      <use xlink:href="#DejaVuSans-52" x="210.498047"/>
      <use xlink:href="#DejaVuSans-3a" x="276.855469"/>
      <use xlink:href="#DejaVuSans-20" x="310.546875"/>
      <use xlink:href="#DejaVuSans-36" x="342.333984"/>
     </g>
    </g>
    <g id="line2d_35">
     <path d="M 330.760625 234.291812 
L 340.760625 234.291812 
L 350.760625 234.291812 
" style="fill: none; stroke: #e377c2; stroke-width: 1.5; stroke-linecap: square"/>
    </g>
    <g id="text_27">
     <!-- QBER: 7 -->
     <g transform="translate(358.760625 237.791812)scale(0.1 -0.1)">
      <use xlink:href="#DejaVuSans-51"/>
      <use xlink:href="#DejaVuSans-42" x="78.710938"/>
      <use xlink:href="#DejaVuSans-45" x="147.314453"/>
      <use xlink:href="#DejaVuSans-52" x="210.498047"/>
      <use xlink:href="#DejaVuSans-3a" x="276.855469"/>
      <use xlink:href="#DejaVuSans-20" x="310.546875"/>
      <use xlink:href="#DejaVuSans-37" x="342.333984"/>
     </g>
    </g>
    <g id="line2d_36">
     <path d="M 330.760625 248.969938 
L 340.760625 248.969938 
L 350.760625 248.969938 
" style="fill: none; stroke: #7f7f7f; stroke-width: 1.5; stroke-linecap: square"/>
    </g>
    <g id="text_28">
     <!-- QBER: 8 -->
     <g transform="translate(358.760625 252.469938)scale(0.1 -0.1)">
      <use xlink:href="#DejaVuSans-51"/>
      <use xlink:href="#DejaVuSans-42" x="78.710938"/>
      <use xlink:href="#DejaVuSans-45" x="147.314453"/>
      <use xlink:href="#DejaVuSans-52" x="210.498047"/>
      <use xlink:href="#DejaVuSans-3a" x="276.855469"/>
      <use xlink:href="#DejaVuSans-20" x="310.546875"/>
      <use xlink:href="#DejaVuSans-38" x="342.333984"/>
     </g>
    </g>
    <g id="line2d_37">
     <path d="M 330.760625 263.648062 
L 340.760625 263.648062 
L 350.760625 263.648062 
" style="fill: none; stroke: #bcbd22; stroke-width: 1.5; stroke-linecap: square"/>
    </g>
    <g id="text_29">
     <!-- QBER: 9 -->
     <g transform="translate(358.760625 267.148062)scale(0.1 -0.1)">
      <defs>
       <path id="DejaVuSans-39" d="M 703 97 
L 703 672 
Q 941 559 1184 500 
Q 1428 441 1663 441 
Q 2288 441 2617 861 
Q 2947 1281 2994 2138 
Q 2813 1869 2534 1725 
Q 2256 1581 1919 1581 
Q 1219 1581 811 2004 
Q 403 2428 403 3163 
Q 403 3881 828 4315 
Q 1253 4750 1959 4750 
Q 2769 4750 3195 4129 
Q 3622 3509 3622 2328 
Q 3622 1225 3098 567 
Q 2575 -91 1691 -91 
Q 1453 -91 1209 -44 
Q 966 3 703 97 
z
M 1959 2075 
Q 2384 2075 2632 2365 
Q 2881 2656 2881 3163 
Q 2881 3666 2632 3958 
Q 2384 4250 1959 4250 
Q 1534 4250 1286 3958 
Q 1038 3666 1038 3163 
Q 1038 2656 1286 2365 
Q 1534 2075 1959 2075 
z
" transform="scale(0.015625)"/>
      </defs>
      <use xlink:href="#DejaVuSans-51"/>
      <use xlink:href="#DejaVuSans-42" x="78.710938"/>
      <use xlink:href="#DejaVuSans-45" x="147.314453"/>
      <use xlink:href="#DejaVuSans-52" x="210.498047"/>
      <use xlink:href="#DejaVuSans-3a" x="276.855469"/>
      <use xlink:href="#DejaVuSans-20" x="310.546875"/>
      <use xlink:href="#DejaVuSans-39" x="342.333984"/>
     </g>
    </g>
    <g id="line2d_38">
     <path d="M 330.760625 278.326187 
L 340.760625 278.326187 
L 350.760625 278.326187 
" style="fill: none; stroke: #17becf; stroke-width: 1.5; stroke-linecap: square"/>
    </g>
    <g id="text_30">
     <!-- QBER: 10 -->
     <g transform="translate(358.760625 281.826187)scale(0.1 -0.1)">
      <use xlink:href="#DejaVuSans-51"/>
      <use xlink:href="#DejaVuSans-42" x="78.710938"/>
      <use xlink:href="#DejaVuSans-45" x="147.314453"/>
      <use xlink:href="#DejaVuSans-52" x="210.498047"/>
      <use xlink:href="#DejaVuSans-3a" x="276.855469"/>
      <use xlink:href="#DejaVuSans-20" x="310.546875"/>
      <use xlink:href="#DejaVuSans-31" x="342.333984"/>
      <use xlink:href="#DejaVuSans-30" x="405.957031"/>
     </g>
    </g>
    <g id="line2d_39">
     <path d="M 330.760625 293.004312 
L 340.760625 293.004312 
L 350.760625 293.004312 
" style="fill: none; stroke: #1f77b4; stroke-width: 1.5; stroke-linecap: square"/>
    </g>
    <g id="text_31">
     <!-- QBER: 11 -->
     <g transform="translate(358.760625 296.504312)scale(0.1 -0.1)">
      <use xlink:href="#DejaVuSans-51"/>
      <use xlink:href="#DejaVuSans-42" x="78.710938"/>
      <use xlink:href="#DejaVuSans-45" x="147.314453"/>
      <use xlink:href="#DejaVuSans-52" x="210.498047"/>
      <use xlink:href="#DejaVuSans-3a" x="276.855469"/>
      <use xlink:href="#DejaVuSans-20" x="310.546875"/>
      <use xlink:href="#DejaVuSans-31" x="342.333984"/>
      <use xlink:href="#DejaVuSans-31" x="405.957031"/>
     </g>
    </g>
   </g>
  </g>
 </g>
 <defs>
  <clipPath id="p16166aadcb">
   <rect x="57.6" y="41.472" width="357.12" height="266.112"/>
  </clipPath>
 </defs>
</svg>
