<?xml version="1.0" encoding="utf-8" standalone="no"?>
<!DOCTYPE svg PUBLIC "-//W3C//DTD SVG 1.1//EN"
  "http://www.w3.org/Graphics/SVG/1.1/DTD/svg11.dtd">
<svg xmlns:xlink="http://www.w3.org/1999/xlink" width="460.8pt" height="345.6pt" viewBox="0 0 460.8 345.6" xmlns="http://www.w3.org/2000/svg" version="1.1">
 <metadata>
  <rdf:RDF xmlns:dc="http://purl.org/dc/elements/1.1/" xmlns:cc="http://creativecommons.org/ns#" xmlns:rdf="http://www.w3.org/1999/02/22-rdf-syntax-ns#">
   <cc:Work>
    <dc:type rdf:resource="http://purl.org/dc/dcmitype/StillImage"/>
    <dc:date>2023-09-07T07:52:27.772380</dc:date>
    <dc:format>image/svg+xml</dc:format>
    <dc:creator>
     <cc:Agent>
      <dc:title>Matplotlib v3.5.3, https://matplotlib.org/</dc:title>
     </cc:Agent>
    </dc:creator>
   </cc:Work>
  </rdf:RDF>
 </metadata>
 <defs>
  <style type="text/css">*{stroke-linejoin: round; stroke-linecap: butt}</style>
 </defs>
 <g id="figure_1">
  <g id="patch_1">
   <path d="M 0 345.6 
L 460.8 345.6 
L 460.8 0 
L 0 0 
z
" style="fill: #ffffff"/>
  </g>
  <g id="axes_1">
   <g id="patch_2">
    <path d="M 57.6 307.584 
L 414.72 307.584 
L 414.72 41.472 
L 57.6 41.472 
z
" style="fill: #ffffff"/>
   </g>
   <g id="matplotlib.axis_1">
    <g id="xtick_1">
     <g id="line2d_1">
      <defs>
       <path id="m872f7a1ae8" d="M 0 0 
L 0 3.5 
" style="stroke: #000000; stroke-width: 0.8"/>
      </defs>
      <g>
       <use xlink:href="#m872f7a1ae8" x="73.351758" y="307.584" style="stroke: #000000; stroke-width: 0.8"/>
      </g>
     </g>
     <g id="text_1">
      <!-- 0 -->
      <g transform="translate(70.170508 322.182437)scale(0.1 -0.1)">
       <defs>
        <path id="DejaVuSans-30" d="M 2034 4250 
Q 1547 4250 1301 3770 
Q 1056 3291 1056 2328 
Q 1056 1369 1301 889 
Q 1547 409 2034 409 
Q 2525 409 2770 889 
Q 3016 1369 3016 2328 
Q 3016 3291 2770 3770 
Q 2525 4250 2034 4250 
z
M 2034 4750 
Q 2819 4750 3233 4129 
Q 3647 3509 3647 2328 
Q 3647 1150 3233 529 
Q 2819 -91 2034 -91 
Q 1250 -91 836 529 
Q 422 1150 422 2328 
Q 422 3509 836 4129 
Q 1250 4750 2034 4750 
z
" transform="scale(0.015625)"/>
       </defs>
       <use xlink:href="#DejaVuSans-30"/>
      </g>
     </g>
    </g>
    <g id="xtick_2">
     <g id="line2d_2">
      <g>
       <use xlink:href="#m872f7a1ae8" x="121.448727" y="307.584" style="stroke: #000000; stroke-width: 0.8"/>
      </g>
     </g>
     <g id="text_2">
      <!-- 2500 -->
      <g transform="translate(108.723727 322.182437)scale(0.1 -0.1)">
       <defs>
        <path id="DejaVuSans-32" d="M 1228 531 
L 3431 531 
L 3431 0 
L 469 0 
L 469 531 
Q 828 903 1448 1529 
Q 2069 2156 2228 2338 
Q 2531 2678 2651 2914 
Q 2772 3150 2772 3378 
Q 2772 3750 2511 3984 
Q 2250 4219 1831 4219 
Q 1534 4219 1204 4116 
Q 875 4013 500 3803 
L 500 4441 
Q 881 4594 1212 4672 
Q 1544 4750 1819 4750 
Q 2544 4750 2975 4387 
Q 3406 4025 3406 3419 
Q 3406 3131 3298 2873 
Q 3191 2616 2906 2266 
Q 2828 2175 2409 1742 
Q 1991 1309 1228 531 
z
" transform="scale(0.015625)"/>
        <path id="DejaVuSans-35" d="M 691 4666 
L 3169 4666 
L 3169 4134 
L 1269 4134 
L 1269 2991 
Q 1406 3038 1543 3061 
Q 1681 3084 1819 3084 
Q 2600 3084 3056 2656 
Q 3513 2228 3513 1497 
Q 3513 744 3044 326 
Q 2575 -91 1722 -91 
Q 1428 -91 1123 -41 
Q 819 9 494 109 
L 494 744 
Q 775 591 1075 516 
Q 1375 441 1709 441 
Q 2250 441 2565 725 
Q 2881 1009 2881 1497 
Q 2881 1984 2565 2268 
Q 2250 2553 1709 2553 
Q 1456 2553 1204 2497 
Q 953 2441 691 2322 
L 691 4666 
z
" transform="scale(0.015625)"/>
       </defs>
       <use xlink:href="#DejaVuSans-32"/>
       <use xlink:href="#DejaVuSans-35" x="63.623047"/>
       <use xlink:href="#DejaVuSans-30" x="127.246094"/>
       <use xlink:href="#DejaVuSans-30" x="190.869141"/>
      </g>
     </g>
    </g>
    <g id="xtick_3">
     <g id="line2d_3">
      <g>
       <use xlink:href="#m872f7a1ae8" x="169.545697" y="307.584" style="stroke: #000000; stroke-width: 0.8"/>
      </g>
     </g>
     <g id="text_3">
      <!-- 5000 -->
      <g transform="translate(156.820697 322.182437)scale(0.1 -0.1)">
       <use xlink:href="#DejaVuSans-35"/>
       <use xlink:href="#DejaVuSans-30" x="63.623047"/>
       <use xlink:href="#DejaVuSans-30" x="127.246094"/>
       <use xlink:href="#DejaVuSans-30" x="190.869141"/>
      </g>
     </g>
    </g>
    <g id="xtick_4">
     <g id="line2d_4">
      <g>
       <use xlink:href="#m872f7a1ae8" x="217.642667" y="307.584" style="stroke: #000000; stroke-width: 0.8"/>
      </g>
     </g>
     <g id="text_4">
      <!-- 7500 -->
      <g transform="translate(204.917667 322.182437)scale(0.1 -0.1)">
       <defs>
        <path id="DejaVuSans-37" d="M 525 4666 
L 3525 4666 
L 3525 4397 
L 1831 0 
L 1172 0 
L 2766 4134 
L 525 4134 
L 525 4666 
z
" transform="scale(0.015625)"/>
       </defs>
       <use xlink:href="#DejaVuSans-37"/>
       <use xlink:href="#DejaVuSans-35" x="63.623047"/>
       <use xlink:href="#DejaVuSans-30" x="127.246094"/>
       <use xlink:href="#DejaVuSans-30" x="190.869141"/>
      </g>
     </g>
    </g>
    <g id="xtick_5">
     <g id="line2d_5">
      <g>
       <use xlink:href="#m872f7a1ae8" x="265.739636" y="307.584" style="stroke: #000000; stroke-width: 0.8"/>
      </g>
     </g>
     <g id="text_5">
      <!-- 10000 -->
      <g transform="translate(249.833386 322.182437)scale(0.1 -0.1)">
       <defs>
        <path id="DejaVuSans-31" d="M 794 531 
L 1825 531 
L 1825 4091 
L 703 3866 
L 703 4441 
L 1819 4666 
L 2450 4666 
L 2450 531 
L 3481 531 
L 3481 0 
L 794 0 
L 794 531 
z
" transform="scale(0.015625)"/>
       </defs>
       <use xlink:href="#DejaVuSans-31"/>
       <use xlink:href="#DejaVuSans-30" x="63.623047"/>
       <use xlink:href="#DejaVuSans-30" x="127.246094"/>
       <use xlink:href="#DejaVuSans-30" x="190.869141"/>
       <use xlink:href="#DejaVuSans-30" x="254.492188"/>
      </g>
     </g>
    </g>
    <g id="xtick_6">
     <g id="line2d_6">
      <g>
       <use xlink:href="#m872f7a1ae8" x="313.836606" y="307.584" style="stroke: #000000; stroke-width: 0.8"/>
      </g>
     </g>
     <g id="text_6">
      <!-- 12500 -->
      <g transform="translate(297.930356 322.182437)scale(0.1 -0.1)">
       <use xlink:href="#DejaVuSans-31"/>
       <use xlink:href="#DejaVuSans-32" x="63.623047"/>
       <use xlink:href="#DejaVuSans-35" x="127.246094"/>
       <use xlink:href="#DejaVuSans-30" x="190.869141"/>
       <use xlink:href="#DejaVuSans-30" x="254.492188"/>
      </g>
     </g>
    </g>
    <g id="xtick_7">
     <g id="line2d_7">
      <g>
       <use xlink:href="#m872f7a1ae8" x="361.933576" y="307.584" style="stroke: #000000; stroke-width: 0.8"/>
      </g>
     </g>
     <g id="text_7">
      <!-- 15000 -->
      <g transform="translate(346.027326 322.182437)scale(0.1 -0.1)">
       <use xlink:href="#DejaVuSans-31"/>
       <use xlink:href="#DejaVuSans-35" x="63.623047"/>
       <use xlink:href="#DejaVuSans-30" x="127.246094"/>
       <use xlink:href="#DejaVuSans-30" x="190.869141"/>
       <use xlink:href="#DejaVuSans-30" x="254.492188"/>
      </g>
     </g>
    </g>
    <g id="xtick_8">
     <g id="line2d_8">
      <g>
       <use xlink:href="#m872f7a1ae8" x="410.030545" y="307.584" style="stroke: #000000; stroke-width: 0.8"/>
      </g>
     </g>
     <g id="text_8">
      <!-- 17500 -->
      <g transform="translate(394.124295 322.182437)scale(0.1 -0.1)">
       <use xlink:href="#DejaVuSans-31"/>
       <use xlink:href="#DejaVuSans-37" x="63.623047"/>
       <use xlink:href="#DejaVuSans-35" x="127.246094"/>
       <use xlink:href="#DejaVuSans-30" x="190.869141"/>
       <use xlink:href="#DejaVuSans-30" x="254.492188"/>
      </g>
     </g>
    </g>
    <g id="text_9">
     <!-- Number of input neurons multiplied by number of hidden neurons [N*K] -->
     <g transform="translate(56.102969 335.860562)scale(0.1 -0.1)">
      <defs>
       <path id="DejaVuSans-4e" d="M 628 4666 
L 1478 4666 
L 3547 763 
L 3547 4666 
L 4159 4666 
L 4159 0 
L 3309 0 
L 1241 3903 
L 1241 0 
L 628 0 
L 628 4666 
z
" transform="scale(0.015625)"/>
       <path id="DejaVuSans-75" d="M 544 1381 
L 544 3500 
L 1119 3500 
L 1119 1403 
Q 1119 906 1312 657 
Q 1506 409 1894 409 
Q 2359 409 2629 706 
Q 2900 1003 2900 1516 
L 2900 3500 
L 3475 3500 
L 3475 0 
L 2900 0 
L 2900 538 
Q 2691 219 2414 64 
Q 2138 -91 1772 -91 
Q 1169 -91 856 284 
Q 544 659 544 1381 
z
M 1991 3584 
L 1991 3584 
z
" transform="scale(0.015625)"/>
       <path id="DejaVuSans-6d" d="M 3328 2828 
Q 3544 3216 3844 3400 
Q 4144 3584 4550 3584 
Q 5097 3584 5394 3201 
Q 5691 2819 5691 2113 
L 5691 0 
L 5113 0 
L 5113 2094 
Q 5113 2597 4934 2840 
Q 4756 3084 4391 3084 
Q 3944 3084 3684 2787 
Q 3425 2491 3425 1978 
L 3425 0 
L 2847 0 
L 2847 2094 
Q 2847 2600 2669 2842 
Q 2491 3084 2119 3084 
Q 1678 3084 1418 2786 
Q 1159 2488 1159 1978 
L 1159 0 
L 581 0 
L 581 3500 
L 1159 3500 
L 1159 2956 
Q 1356 3278 1631 3431 
Q 1906 3584 2284 3584 
Q 2666 3584 2933 3390 
Q 3200 3197 3328 2828 
z
" transform="scale(0.015625)"/>
       <path id="DejaVuSans-62" d="M 3116 1747 
Q 3116 2381 2855 2742 
Q 2594 3103 2138 3103 
Q 1681 3103 1420 2742 
Q 1159 2381 1159 1747 
Q 1159 1113 1420 752 
Q 1681 391 2138 391 
Q 2594 391 2855 752 
Q 3116 1113 3116 1747 
z
M 1159 2969 
Q 1341 3281 1617 3432 
Q 1894 3584 2278 3584 
Q 2916 3584 3314 3078 
Q 3713 2572 3713 1747 
Q 3713 922 3314 415 
Q 2916 -91 2278 -91 
Q 1894 -91 1617 61 
Q 1341 213 1159 525 
L 1159 0 
L 581 0 
L 581 4863 
L 1159 4863 
L 1159 2969 
z
" transform="scale(0.015625)"/>
       <path id="DejaVuSans-65" d="M 3597 1894 
L 3597 1613 
L 953 1613 
Q 991 1019 1311 708 
Q 1631 397 2203 397 
Q 2534 397 2845 478 
Q 3156 559 3463 722 
L 3463 178 
Q 3153 47 2828 -22 
Q 2503 -91 2169 -91 
Q 1331 -91 842 396 
Q 353 884 353 1716 
Q 353 2575 817 3079 
Q 1281 3584 2069 3584 
Q 2775 3584 3186 3129 
Q 3597 2675 3597 1894 
z
M 3022 2063 
Q 3016 2534 2758 2815 
Q 2500 3097 2075 3097 
Q 1594 3097 1305 2825 
Q 1016 2553 972 2059 
L 3022 2063 
z
" transform="scale(0.015625)"/>
       <path id="DejaVuSans-72" d="M 2631 2963 
Q 2534 3019 2420 3045 
Q 2306 3072 2169 3072 
Q 1681 3072 1420 2755 
Q 1159 2438 1159 1844 
L 1159 0 
L 581 0 
L 581 3500 
L 1159 3500 
L 1159 2956 
Q 1341 3275 1631 3429 
Q 1922 3584 2338 3584 
Q 2397 3584 2469 3576 
Q 2541 3569 2628 3553 
L 2631 2963 
z
" transform="scale(0.015625)"/>
       <path id="DejaVuSans-20" transform="scale(0.015625)"/>
       <path id="DejaVuSans-6f" d="M 1959 3097 
Q 1497 3097 1228 2736 
Q 959 2375 959 1747 
Q 959 1119 1226 758 
Q 1494 397 1959 397 
Q 2419 397 2687 759 
Q 2956 1122 2956 1747 
Q 2956 2369 2687 2733 
Q 2419 3097 1959 3097 
z
M 1959 3584 
Q 2709 3584 3137 3096 
Q 3566 2609 3566 1747 
Q 3566 888 3137 398 
Q 2709 -91 1959 -91 
Q 1206 -91 779 398 
Q 353 888 353 1747 
Q 353 2609 779 3096 
Q 1206 3584 1959 3584 
z
" transform="scale(0.015625)"/>
       <path id="DejaVuSans-66" d="M 2375 4863 
L 2375 4384 
L 1825 4384 
Q 1516 4384 1395 4259 
Q 1275 4134 1275 3809 
L 1275 3500 
L 2222 3500 
L 2222 3053 
L 1275 3053 
L 1275 0 
L 697 0 
L 697 3053 
L 147 3053 
L 147 3500 
L 697 3500 
L 697 3744 
Q 697 4328 969 4595 
Q 1241 4863 1831 4863 
L 2375 4863 
z
" transform="scale(0.015625)"/>
       <path id="DejaVuSans-69" d="M 603 3500 
L 1178 3500 
L 1178 0 
L 603 0 
L 603 3500 
z
M 603 4863 
L 1178 4863 
L 1178 4134 
L 603 4134 
L 603 4863 
z
" transform="scale(0.015625)"/>
       <path id="DejaVuSans-6e" d="M 3513 2113 
L 3513 0 
L 2938 0 
L 2938 2094 
Q 2938 2591 2744 2837 
Q 2550 3084 2163 3084 
Q 1697 3084 1428 2787 
Q 1159 2491 1159 1978 
L 1159 0 
L 581 0 
L 581 3500 
L 1159 3500 
L 1159 2956 
Q 1366 3272 1645 3428 
Q 1925 3584 2291 3584 
Q 2894 3584 3203 3211 
Q 3513 2838 3513 2113 
z
" transform="scale(0.015625)"/>
       <path id="DejaVuSans-70" d="M 1159 525 
L 1159 -1331 
L 581 -1331 
L 581 3500 
L 1159 3500 
L 1159 2969 
Q 1341 3281 1617 3432 
Q 1894 3584 2278 3584 
Q 2916 3584 3314 3078 
Q 3713 2572 3713 1747 
Q 3713 922 3314 415 
Q 2916 -91 2278 -91 
Q 1894 -91 1617 61 
Q 1341 213 1159 525 
z
M 3116 1747 
Q 3116 2381 2855 2742 
Q 2594 3103 2138 3103 
Q 1681 3103 1420 2742 
Q 1159 2381 1159 1747 
Q 1159 1113 1420 752 
Q 1681 391 2138 391 
Q 2594 391 2855 752 
Q 3116 1113 3116 1747 
z
" transform="scale(0.015625)"/>
       <path id="DejaVuSans-74" d="M 1172 4494 
L 1172 3500 
L 2356 3500 
L 2356 3053 
L 1172 3053 
L 1172 1153 
Q 1172 725 1289 603 
Q 1406 481 1766 481 
L 2356 481 
L 2356 0 
L 1766 0 
Q 1100 0 847 248 
Q 594 497 594 1153 
L 594 3053 
L 172 3053 
L 172 3500 
L 594 3500 
L 594 4494 
L 1172 4494 
z
" transform="scale(0.015625)"/>
       <path id="DejaVuSans-73" d="M 2834 3397 
L 2834 2853 
Q 2591 2978 2328 3040 
Q 2066 3103 1784 3103 
Q 1356 3103 1142 2972 
Q 928 2841 928 2578 
Q 928 2378 1081 2264 
Q 1234 2150 1697 2047 
L 1894 2003 
Q 2506 1872 2764 1633 
Q 3022 1394 3022 966 
Q 3022 478 2636 193 
Q 2250 -91 1575 -91 
Q 1294 -91 989 -36 
Q 684 19 347 128 
L 347 722 
Q 666 556 975 473 
Q 1284 391 1588 391 
Q 1994 391 2212 530 
Q 2431 669 2431 922 
Q 2431 1156 2273 1281 
Q 2116 1406 1581 1522 
L 1381 1569 
Q 847 1681 609 1914 
Q 372 2147 372 2553 
Q 372 3047 722 3315 
Q 1072 3584 1716 3584 
Q 2034 3584 2315 3537 
Q 2597 3491 2834 3397 
z
" transform="scale(0.015625)"/>
       <path id="DejaVuSans-6c" d="M 603 4863 
L 1178 4863 
L 1178 0 
L 603 0 
L 603 4863 
z
" transform="scale(0.015625)"/>
       <path id="DejaVuSans-64" d="M 2906 2969 
L 2906 4863 
L 3481 4863 
L 3481 0 
L 2906 0 
L 2906 525 
Q 2725 213 2448 61 
Q 2172 -91 1784 -91 
Q 1150 -91 751 415 
Q 353 922 353 1747 
Q 353 2572 751 3078 
Q 1150 3584 1784 3584 
Q 2172 3584 2448 3432 
Q 2725 3281 2906 2969 
z
M 947 1747 
Q 947 1113 1208 752 
Q 1469 391 1925 391 
Q 2381 391 2643 752 
Q 2906 1113 2906 1747 
Q 2906 2381 2643 2742 
Q 2381 3103 1925 3103 
Q 1469 3103 1208 2742 
Q 947 2381 947 1747 
z
" transform="scale(0.015625)"/>
       <path id="DejaVuSans-79" d="M 2059 -325 
Q 1816 -950 1584 -1140 
Q 1353 -1331 966 -1331 
L 506 -1331 
L 506 -850 
L 844 -850 
Q 1081 -850 1212 -737 
Q 1344 -625 1503 -206 
L 1606 56 
L 191 3500 
L 800 3500 
L 1894 763 
L 2988 3500 
L 3597 3500 
L 2059 -325 
z
" transform="scale(0.015625)"/>
       <path id="DejaVuSans-68" d="M 3513 2113 
L 3513 0 
L 2938 0 
L 2938 2094 
Q 2938 2591 2744 2837 
Q 2550 3084 2163 3084 
Q 1697 3084 1428 2787 
Q 1159 2491 1159 1978 
L 1159 0 
L 581 0 
L 581 4863 
L 1159 4863 
L 1159 2956 
Q 1366 3272 1645 3428 
Q 1925 3584 2291 3584 
Q 2894 3584 3203 3211 
Q 3513 2838 3513 2113 
z
" transform="scale(0.015625)"/>
       <path id="DejaVuSans-5b" d="M 550 4863 
L 1875 4863 
L 1875 4416 
L 1125 4416 
L 1125 -397 
L 1875 -397 
L 1875 -844 
L 550 -844 
L 550 4863 
z
" transform="scale(0.015625)"/>
       <path id="DejaVuSans-2a" d="M 3009 3897 
L 1888 3291 
L 3009 2681 
L 2828 2375 
L 1778 3009 
L 1778 1831 
L 1422 1831 
L 1422 3009 
L 372 2375 
L 191 2681 
L 1313 3291 
L 191 3897 
L 372 4206 
L 1422 3572 
L 1422 4750 
L 1778 4750 
L 1778 3572 
L 2828 4206 
L 3009 3897 
z
" transform="scale(0.015625)"/>
       <path id="DejaVuSans-4b" d="M 628 4666 
L 1259 4666 
L 1259 2694 
L 3353 4666 
L 4166 4666 
L 1850 2491 
L 4331 0 
L 3500 0 
L 1259 2247 
L 1259 0 
L 628 0 
L 628 4666 
z
" transform="scale(0.015625)"/>
       <path id="DejaVuSans-5d" d="M 1947 4863 
L 1947 -844 
L 622 -844 
L 622 -397 
L 1369 -397 
L 1369 4416 
L 622 4416 
L 622 4863 
L 1947 4863 
z
" transform="scale(0.015625)"/>
      </defs>
      <use xlink:href="#DejaVuSans-4e"/>
      <use xlink:href="#DejaVuSans-75" x="74.804688"/>
      <use xlink:href="#DejaVuSans-6d" x="138.183594"/>
      <use xlink:href="#DejaVuSans-62" x="235.595703"/>
      <use xlink:href="#DejaVuSans-65" x="299.072266"/>
      <use xlink:href="#DejaVuSans-72" x="360.595703"/>
      <use xlink:href="#DejaVuSans-20" x="401.708984"/>
      <use xlink:href="#DejaVuSans-6f" x="433.496094"/>
      <use xlink:href="#DejaVuSans-66" x="494.677734"/>
      <use xlink:href="#DejaVuSans-20" x="529.882812"/>
      <use xlink:href="#DejaVuSans-69" x="561.669922"/>
      <use xlink:href="#DejaVuSans-6e" x="589.453125"/>
      <use xlink:href="#DejaVuSans-70" x="652.832031"/>
      <use xlink:href="#DejaVuSans-75" x="716.308594"/>
      <use xlink:href="#DejaVuSans-74" x="779.6875"/>
      <use xlink:href="#DejaVuSans-20" x="818.896484"/>
      <use xlink:href="#DejaVuSans-6e" x="850.683594"/>
      <use xlink:href="#DejaVuSans-65" x="914.0625"/>
      <use xlink:href="#DejaVuSans-75" x="975.585938"/>
      <use xlink:href="#DejaVuSans-72" x="1038.964844"/>
      <use xlink:href="#DejaVuSans-6f" x="1077.828125"/>
      <use xlink:href="#DejaVuSans-6e" x="1139.009766"/>
      <use xlink:href="#DejaVuSans-73" x="1202.388672"/>
      <use xlink:href="#DejaVuSans-20" x="1254.488281"/>
      <use xlink:href="#DejaVuSans-6d" x="1286.275391"/>
      <use xlink:href="#DejaVuSans-75" x="1383.6875"/>
      <use xlink:href="#DejaVuSans-6c" x="1447.066406"/>
      <use xlink:href="#DejaVuSans-74" x="1474.849609"/>
      <use xlink:href="#DejaVuSans-69" x="1514.058594"/>
      <use xlink:href="#DejaVuSans-70" x="1541.841797"/>
      <use xlink:href="#DejaVuSans-6c" x="1605.318359"/>
      <use xlink:href="#DejaVuSans-69" x="1633.101562"/>
      <use xlink:href="#DejaVuSans-65" x="1660.884766"/>
      <use xlink:href="#DejaVuSans-64" x="1722.408203"/>
      <use xlink:href="#DejaVuSans-20" x="1785.884766"/>
      <use xlink:href="#DejaVuSans-62" x="1817.671875"/>
      <use xlink:href="#DejaVuSans-79" x="1881.148438"/>
      <use xlink:href="#DejaVuSans-20" x="1940.328125"/>
      <use xlink:href="#DejaVuSans-6e" x="1972.115234"/>
      <use xlink:href="#DejaVuSans-75" x="2035.494141"/>
      <use xlink:href="#DejaVuSans-6d" x="2098.873047"/>
      <use xlink:href="#DejaVuSans-62" x="2196.285156"/>
      <use xlink:href="#DejaVuSans-65" x="2259.761719"/>
      <use xlink:href="#DejaVuSans-72" x="2321.285156"/>
      <use xlink:href="#DejaVuSans-20" x="2362.398438"/>
      <use xlink:href="#DejaVuSans-6f" x="2394.185547"/>
      <use xlink:href="#DejaVuSans-66" x="2455.367188"/>
      <use xlink:href="#DejaVuSans-20" x="2490.572266"/>
      <use xlink:href="#DejaVuSans-68" x="2522.359375"/>
      <use xlink:href="#DejaVuSans-69" x="2585.738281"/>
      <use xlink:href="#DejaVuSans-64" x="2613.521484"/>
      <use xlink:href="#DejaVuSans-64" x="2676.998047"/>
      <use xlink:href="#DejaVuSans-65" x="2740.474609"/>
      <use xlink:href="#DejaVuSans-6e" x="2801.998047"/>
      <use xlink:href="#DejaVuSans-20" x="2865.376953"/>
      <use xlink:href="#DejaVuSans-6e" x="2897.164062"/>
      <use xlink:href="#DejaVuSans-65" x="2960.542969"/>
      <use xlink:href="#DejaVuSans-75" x="3022.066406"/>
      <use xlink:href="#DejaVuSans-72" x="3085.445312"/>
      <use xlink:href="#DejaVuSans-6f" x="3124.308594"/>
      <use xlink:href="#DejaVuSans-6e" x="3185.490234"/>
      <use xlink:href="#DejaVuSans-73" x="3248.869141"/>
      <use xlink:href="#DejaVuSans-20" x="3300.96875"/>
      <use xlink:href="#DejaVuSans-5b" x="3332.755859"/>
      <use xlink:href="#DejaVuSans-4e" x="3371.769531"/>
      <use xlink:href="#DejaVuSans-2a" x="3446.574219"/>
      <use xlink:href="#DejaVuSans-4b" x="3496.574219"/>
      <use xlink:href="#DejaVuSans-5d" x="3562.150391"/>
     </g>
    </g>
   </g>
   <g id="matplotlib.axis_2">
    <g id="ytick_1">
     <g id="line2d_9">
      <defs>
       <path id="mbf7c6ad151" d="M 0 0 
L -3.5 0 
" style="stroke: #000000; stroke-width: 0.8"/>
      </defs>
      <g>
       <use xlink:href="#mbf7c6ad151" x="57.6" y="301.023799" style="stroke: #000000; stroke-width: 0.8"/>
      </g>
     </g>
     <g id="text_10">
      <!-- 0 -->
      <g transform="translate(44.2375 304.823018)scale(0.1 -0.1)">
       <use xlink:href="#DejaVuSans-30"/>
      </g>
     </g>
    </g>
    <g id="ytick_2">
     <g id="line2d_10">
      <g>
       <use xlink:href="#mbf7c6ad151" x="57.6" y="253.028165" style="stroke: #000000; stroke-width: 0.8"/>
      </g>
     </g>
     <g id="text_11">
      <!-- 20 -->
      <g transform="translate(37.875 256.827384)scale(0.1 -0.1)">
       <use xlink:href="#DejaVuSans-32"/>
       <use xlink:href="#DejaVuSans-30" x="63.623047"/>
      </g>
     </g>
    </g>
    <g id="ytick_3">
     <g id="line2d_11">
      <g>
       <use xlink:href="#mbf7c6ad151" x="57.6" y="205.03253" style="stroke: #000000; stroke-width: 0.8"/>
      </g>
     </g>
     <g id="text_12">
      <!-- 40 -->
      <g transform="translate(37.875 208.831749)scale(0.1 -0.1)">
       <defs>
        <path id="DejaVuSans-34" d="M 2419 4116 
L 825 1625 
L 2419 1625 
L 2419 4116 
z
M 2253 4666 
L 3047 4666 
L 3047 1625 
L 3713 1625 
L 3713 1100 
L 3047 1100 
L 3047 0 
L 2419 0 
L 2419 1100 
L 313 1100 
L 313 1709 
L 2253 4666 
z
" transform="scale(0.015625)"/>
       </defs>
       <use xlink:href="#DejaVuSans-34"/>
       <use xlink:href="#DejaVuSans-30" x="63.623047"/>
      </g>
     </g>
    </g>
    <g id="ytick_4">
     <g id="line2d_12">
      <g>
       <use xlink:href="#mbf7c6ad151" x="57.6" y="157.036896" style="stroke: #000000; stroke-width: 0.8"/>
      </g>
     </g>
     <g id="text_13">
      <!-- 60 -->
      <g transform="translate(37.875 160.836114)scale(0.1 -0.1)">
       <defs>
        <path id="DejaVuSans-36" d="M 2113 2584 
Q 1688 2584 1439 2293 
Q 1191 2003 1191 1497 
Q 1191 994 1439 701 
Q 1688 409 2113 409 
Q 2538 409 2786 701 
Q 3034 994 3034 1497 
Q 3034 2003 2786 2293 
Q 2538 2584 2113 2584 
z
M 3366 4563 
L 3366 3988 
Q 3128 4100 2886 4159 
Q 2644 4219 2406 4219 
Q 1781 4219 1451 3797 
Q 1122 3375 1075 2522 
Q 1259 2794 1537 2939 
Q 1816 3084 2150 3084 
Q 2853 3084 3261 2657 
Q 3669 2231 3669 1497 
Q 3669 778 3244 343 
Q 2819 -91 2113 -91 
Q 1303 -91 875 529 
Q 447 1150 447 2328 
Q 447 3434 972 4092 
Q 1497 4750 2381 4750 
Q 2619 4750 2861 4703 
Q 3103 4656 3366 4563 
z
" transform="scale(0.015625)"/>
       </defs>
       <use xlink:href="#DejaVuSans-36"/>
       <use xlink:href="#DejaVuSans-30" x="63.623047"/>
      </g>
     </g>
    </g>
    <g id="ytick_5">
     <g id="line2d_13">
      <g>
       <use xlink:href="#mbf7c6ad151" x="57.6" y="109.041261" style="stroke: #000000; stroke-width: 0.8"/>
      </g>
     </g>
     <g id="text_14">
      <!-- 80 -->
      <g transform="translate(37.875 112.84048)scale(0.1 -0.1)">
       <defs>
        <path id="DejaVuSans-38" d="M 2034 2216 
Q 1584 2216 1326 1975 
Q 1069 1734 1069 1313 
Q 1069 891 1326 650 
Q 1584 409 2034 409 
Q 2484 409 2743 651 
Q 3003 894 3003 1313 
Q 3003 1734 2745 1975 
Q 2488 2216 2034 2216 
z
M 1403 2484 
Q 997 2584 770 2862 
Q 544 3141 544 3541 
Q 544 4100 942 4425 
Q 1341 4750 2034 4750 
Q 2731 4750 3128 4425 
Q 3525 4100 3525 3541 
Q 3525 3141 3298 2862 
Q 3072 2584 2669 2484 
Q 3125 2378 3379 2068 
Q 3634 1759 3634 1313 
Q 3634 634 3220 271 
Q 2806 -91 2034 -91 
Q 1263 -91 848 271 
Q 434 634 434 1313 
Q 434 1759 690 2068 
Q 947 2378 1403 2484 
z
M 1172 3481 
Q 1172 3119 1398 2916 
Q 1625 2713 2034 2713 
Q 2441 2713 2670 2916 
Q 2900 3119 2900 3481 
Q 2900 3844 2670 4047 
Q 2441 4250 2034 4250 
Q 1625 4250 1398 4047 
Q 1172 3844 1172 3481 
z
" transform="scale(0.015625)"/>
       </defs>
       <use xlink:href="#DejaVuSans-38"/>
       <use xlink:href="#DejaVuSans-30" x="63.623047"/>
      </g>
     </g>
    </g>
    <g id="ytick_6">
     <g id="line2d_14">
      <g>
       <use xlink:href="#mbf7c6ad151" x="57.6" y="61.045626" style="stroke: #000000; stroke-width: 0.8"/>
      </g>
     </g>
     <g id="text_15">
      <!-- 100 -->
      <g transform="translate(31.5125 64.844845)scale(0.1 -0.1)">
       <use xlink:href="#DejaVuSans-31"/>
       <use xlink:href="#DejaVuSans-30" x="63.623047"/>
       <use xlink:href="#DejaVuSans-30" x="127.246094"/>
      </g>
     </g>
    </g>
    <g id="text_16">
     <!-- Mean number of required iterations of TPM -->
     <g transform="translate(25.432812 281.894406)rotate(-90)scale(0.1 -0.1)">
      <defs>
       <path id="DejaVuSans-4d" d="M 628 4666 
L 1569 4666 
L 2759 1491 
L 3956 4666 
L 4897 4666 
L 4897 0 
L 4281 0 
L 4281 4097 
L 3078 897 
L 2444 897 
L 1241 4097 
L 1241 0 
L 628 0 
L 628 4666 
z
" transform="scale(0.015625)"/>
       <path id="DejaVuSans-61" d="M 2194 1759 
Q 1497 1759 1228 1600 
Q 959 1441 959 1056 
Q 959 750 1161 570 
Q 1363 391 1709 391 
Q 2188 391 2477 730 
Q 2766 1069 2766 1631 
L 2766 1759 
L 2194 1759 
z
M 3341 1997 
L 3341 0 
L 2766 0 
L 2766 531 
Q 2569 213 2275 61 
Q 1981 -91 1556 -91 
Q 1019 -91 701 211 
Q 384 513 384 1019 
Q 384 1609 779 1909 
Q 1175 2209 1959 2209 
L 2766 2209 
L 2766 2266 
Q 2766 2663 2505 2880 
Q 2244 3097 1772 3097 
Q 1472 3097 1187 3025 
Q 903 2953 641 2809 
L 641 3341 
Q 956 3463 1253 3523 
Q 1550 3584 1831 3584 
Q 2591 3584 2966 3190 
Q 3341 2797 3341 1997 
z
" transform="scale(0.015625)"/>
       <path id="DejaVuSans-71" d="M 947 1747 
Q 947 1113 1208 752 
Q 1469 391 1925 391 
Q 2381 391 2643 752 
Q 2906 1113 2906 1747 
Q 2906 2381 2643 2742 
Q 2381 3103 1925 3103 
Q 1469 3103 1208 2742 
Q 947 2381 947 1747 
z
M 2906 525 
Q 2725 213 2448 61 
Q 2172 -91 1784 -91 
Q 1150 -91 751 415 
Q 353 922 353 1747 
Q 353 2572 751 3078 
Q 1150 3584 1784 3584 
Q 2172 3584 2448 3432 
Q 2725 3281 2906 2969 
L 2906 3500 
L 3481 3500 
L 3481 -1331 
L 2906 -1331 
L 2906 525 
z
" transform="scale(0.015625)"/>
       <path id="DejaVuSans-54" d="M -19 4666 
L 3928 4666 
L 3928 4134 
L 2272 4134 
L 2272 0 
L 1638 0 
L 1638 4134 
L -19 4134 
L -19 4666 
z
" transform="scale(0.015625)"/>
       <path id="DejaVuSans-50" d="M 1259 4147 
L 1259 2394 
L 2053 2394 
Q 2494 2394 2734 2622 
Q 2975 2850 2975 3272 
Q 2975 3691 2734 3919 
Q 2494 4147 2053 4147 
L 1259 4147 
z
M 628 4666 
L 2053 4666 
Q 2838 4666 3239 4311 
Q 3641 3956 3641 3272 
Q 3641 2581 3239 2228 
Q 2838 1875 2053 1875 
L 1259 1875 
L 1259 0 
L 628 0 
L 628 4666 
z
" transform="scale(0.015625)"/>
      </defs>
      <use xlink:href="#DejaVuSans-4d"/>
      <use xlink:href="#DejaVuSans-65" x="86.279297"/>
      <use xlink:href="#DejaVuSans-61" x="147.802734"/>
      <use xlink:href="#DejaVuSans-6e" x="209.082031"/>
      <use xlink:href="#DejaVuSans-20" x="272.460938"/>
      <use xlink:href="#DejaVuSans-6e" x="304.248047"/>
      <use xlink:href="#DejaVuSans-75" x="367.626953"/>
      <use xlink:href="#DejaVuSans-6d" x="431.005859"/>
      <use xlink:href="#DejaVuSans-62" x="528.417969"/>
      <use xlink:href="#DejaVuSans-65" x="591.894531"/>
      <use xlink:href="#DejaVuSans-72" x="653.417969"/>
      <use xlink:href="#DejaVuSans-20" x="694.53125"/>
      <use xlink:href="#DejaVuSans-6f" x="726.318359"/>
      <use xlink:href="#DejaVuSans-66" x="787.5"/>
      <use xlink:href="#DejaVuSans-20" x="822.705078"/>
      <use xlink:href="#DejaVuSans-72" x="854.492188"/>
      <use xlink:href="#DejaVuSans-65" x="893.355469"/>
      <use xlink:href="#DejaVuSans-71" x="954.878906"/>
      <use xlink:href="#DejaVuSans-75" x="1018.355469"/>
      <use xlink:href="#DejaVuSans-69" x="1081.734375"/>
      <use xlink:href="#DejaVuSans-72" x="1109.517578"/>
      <use xlink:href="#DejaVuSans-65" x="1148.380859"/>
      <use xlink:href="#DejaVuSans-64" x="1209.904297"/>
      <use xlink:href="#DejaVuSans-20" x="1273.380859"/>
      <use xlink:href="#DejaVuSans-69" x="1305.167969"/>
      <use xlink:href="#DejaVuSans-74" x="1332.951172"/>
      <use xlink:href="#DejaVuSans-65" x="1372.160156"/>
      <use xlink:href="#DejaVuSans-72" x="1433.683594"/>
      <use xlink:href="#DejaVuSans-61" x="1474.796875"/>
      <use xlink:href="#DejaVuSans-74" x="1536.076172"/>
      <use xlink:href="#DejaVuSans-69" x="1575.285156"/>
      <use xlink:href="#DejaVuSans-6f" x="1603.068359"/>
      <use xlink:href="#DejaVuSans-6e" x="1664.25"/>
      <use xlink:href="#DejaVuSans-73" x="1727.628906"/>
      <use xlink:href="#DejaVuSans-20" x="1779.728516"/>
      <use xlink:href="#DejaVuSans-6f" x="1811.515625"/>
      <use xlink:href="#DejaVuSans-66" x="1872.697266"/>
      <use xlink:href="#DejaVuSans-20" x="1907.902344"/>
      <use xlink:href="#DejaVuSans-54" x="1939.689453"/>
      <use xlink:href="#DejaVuSans-50" x="2000.773438"/>
      <use xlink:href="#DejaVuSans-4d" x="2061.076172"/>
     </g>
    </g>
   </g>
   <g id="line2d_15">
    <path d="M 73.832727 295.488 
L 75.756606 289.838467 
L 75.756606 289.838467 
L 77.680485 284.674081 
L 77.680485 284.674081 
L 79.604364 279.94644 
L 79.604364 279.94644 
L 82.490182 273.578473 
L 82.490182 273.578473 
L 84.89503 268.851311 
L 84.89503 268.851311 
L 86.818909 265.400061 
L 86.818909 265.400061 
L 90.185697 259.970176 
L 90.185697 259.970176 
L 92.590545 256.500788 
L 92.590545 256.500788 
L 96.438303 251.536752 
L 96.438303 251.536752 
L 98.362182 249.285066 
L 98.362182 249.285066 
L 102.209939 245.162466 
L 102.209939 245.162466 
L 104.614788 242.805501 
L 104.614788 242.805501 
L 109.424485 238.501679 
L 109.424485 238.501679 
L 113.753212 235.006897 
L 113.753212 235.006897 
L 117.12 232.488351 
L 117.12 232.488351 
L 121.448727 229.463335 
L 127.220364 225.742758 
L 127.220364 225.742758 
L 133.47297 222.052211 
L 133.47297 222.052211 
L 138.282667 219.424006 
L 138.282667 219.424006 
L 144.054303 216.489094 
L 144.054303 216.489094 
L 150.787879 213.342128 
L 150.787879 213.342128 
L 158.002424 210.269925 
L 158.002424 210.269925 
L 165.697939 207.291108 
L 165.697939 207.291108 
L 173.874424 204.403197 
L 173.874424 204.403197 
L 184.455758 200.973793 
L 184.455758 200.973793 
L 200.327758 196.177442 
L 200.327758 196.177442 
L 229.666909 187.618472 
L 229.666909 187.618472 
L 242.653091 184.125387 
L 242.653091 184.125387 
L 248.424727 182.727106 
L 248.424727 182.727106 
L 258.044121 180.705257 
L 258.044121 180.705257 
L 265.739636 179.427441 
L 273.435152 178.491463 
L 273.435152 178.491463 
L 281.130667 177.905331 
L 281.130667 177.905331 
L 285.459394 177.720857 
L 301.812364 177.723869 
L 301.812364 177.723869 
L 306.141091 177.817222 
L 323.456 177.732222 
L 323.456 177.732222 
L 327.784727 177.423143 
L 348.466424 172.882306 
L 348.466424 172.882306 
L 350.390303 172.148506 
L 373.957818 159.311936 
L 398.487273 148.779038 
L 398.487273 148.779038 
" clip-path="url(#p4feebe5a58)" style="fill: none; stroke: #1f77b4; stroke-width: 1.5; stroke-linecap: square"/>
   </g>
   <g id="line2d_16">
    <path d="M 73.832727 294.074568 
L 75.756606 284.615847 
L 75.756606 284.615847 
L 77.680485 276.273585 
L 77.680485 276.273585 
L 79.604364 268.913727 
L 79.604364 268.913727 
L 81.528242 262.415496 
L 81.528242 262.415496 
L 83.452121 256.670375 
L 83.452121 256.670375 
L 85.376 251.581144 
L 85.376 251.581144 
L 86.818909 248.142044 
L 86.818909 248.142044 
L 89.223758 243.032539 
L 89.223758 243.032539 
L 90.666667 240.292375 
L 90.666667 240.292375 
L 92.590545 236.964342 
L 92.590545 236.964342 
L 94.995394 233.251254 
L 94.995394 233.251254 
L 97.881212 229.330566 
L 97.881212 229.330566 
L 100.76703 225.869164 
L 100.76703 225.869164 
L 104.614788 221.787132 
L 104.614788 221.787132 
L 107.981576 218.578292 
L 107.981576 218.578292 
L 112.310303 214.794844 
L 117.12 210.89526 
L 117.12 210.89526 
L 123.853576 205.787458 
L 123.853576 205.787458 
L 131.068121 200.659503 
L 131.068121 200.659503 
L 137.320727 196.500997 
L 137.320727 196.500997 
L 142.611394 193.216838 
L 142.611394 193.216838 
L 148.38303 189.909139 
L 148.38303 189.909139 
L 154.154667 186.908946 
L 154.154667 186.908946 
L 158.002424 185.083043 
L 158.002424 185.083043 
L 164.25503 182.404823 
L 164.25503 182.404823 
L 169.545697 180.397835 
L 169.545697 180.397835 
L 177.241212 177.839951 
L 177.241212 177.839951 
L 184.455758 175.742781 
L 184.455758 175.742781 
L 196.48 172.632722 
L 229.666909 164.548119 
L 229.666909 164.548119 
L 242.653091 161.60791 
L 242.653091 161.60791 
L 248.424727 160.44697 
L 248.424727 160.44697 
L 258.044121 158.786589 
L 258.044121 158.786589 
L 265.739636 157.722441 
L 277.763879 156.44651 
L 277.763879 156.44651 
L 285.459394 155.744275 
L 298.445576 154.323629 
L 298.445576 154.323629 
L 305.660121 153.172796 
L 305.660121 153.172796 
L 306.141091 153.082766 
L 323.456 148.491132 
L 323.456 148.491132 
L 327.784727 146.930796 
L 350.390303 137.849738 
L 373.476848 135.1386 
L 373.476848 135.1386 
L 373.957818 135.235451 
L 398.487273 144.079694 
L 398.487273 144.079694 
" clip-path="url(#p4feebe5a58)" style="fill: none; stroke: #ff7f0e; stroke-width: 1.5; stroke-linecap: square"/>
   </g>
   <g id="line2d_17">
    <path d="M 73.832727 281.72235 
L 75.756606 272.987637 
L 75.756606 272.987637 
L 77.680485 265.092155 
L 77.680485 265.092155 
L 79.604364 257.95904 
L 79.604364 257.95904 
L 81.528242 251.51656 
L 81.528242 251.51656 
L 83.452121 245.697909 
L 83.452121 245.697909 
L 85.376 240.441009 
L 85.376 240.441009 
L 86.818909 236.832197 
L 86.818909 236.832197 
L 90.185697 229.389334 
L 90.185697 229.389334 
L 92.590545 224.798276 
L 92.590545 224.798276 
L 94.995394 220.715803 
L 94.995394 220.715803 
L 97.881212 216.383428 
L 97.881212 216.383428 
L 100.286061 213.168076 
L 100.286061 213.168076 
L 102.209939 210.81244 
L 102.209939 210.81244 
L 104.614788 208.095807 
L 104.614788 208.095807 
L 107.981576 204.638733 
L 107.981576 204.638733 
L 112.310303 200.639041 
L 117.12 196.593437 
L 117.12 196.593437 
L 123.853576 191.341675 
L 123.853576 191.341675 
L 131.549091 185.641662 
L 140.687515 179.126807 
L 140.687515 179.126807 
L 148.38303 173.905931 
L 148.38303 173.905931 
L 154.635636 169.936306 
L 159.926303 166.831143 
L 159.926303 166.831143 
L 165.697939 163.761094 
L 165.697939 163.761094 
L 169.545697 161.917867 
L 169.545697 161.917867 
L 173.874424 160.049272 
L 173.874424 160.049272 
L 179.646061 157.89955 
L 179.646061 157.89955 
L 184.455758 156.398149 
L 184.455758 156.398149 
L 188.784485 155.256561 
L 188.784485 155.256561 
L 195.037091 153.915121 
L 195.037091 153.915121 
L 200.327758 153.010533 
L 200.327758 153.010533 
L 210.428121 151.648058 
L 210.428121 151.648058 
L 224.857212 149.78425 
L 224.857212 149.78425 
L 229.666909 149.008428 
L 229.666909 149.008428 
L 234.957576 148.000956 
L 234.957576 148.000956 
L 242.653091 146.198658 
L 242.653091 146.198658 
L 248.424727 144.573293 
L 248.424727 144.573293 
L 258.044121 141.400127 
L 258.044121 141.400127 
L 265.739636 138.57382 
L 277.763879 134.102125 
L 277.763879 134.102125 
L 285.459394 131.535627 
L 298.445576 128.393738 
L 298.445576 128.393738 
L 304.217212 127.627946 
L 304.217212 127.627946 
L 306.141091 127.465946 
L 323.456 127.828347 
L 323.456 127.828347 
L 327.784727 128.246164 
L 348.466424 128.734005 
L 348.466424 128.734005 
L 350.390303 128.432174 
L 373.957818 117.183164 
L 398.487273 118.439049 
L 398.487273 118.439049 
" clip-path="url(#p4feebe5a58)" style="fill: none; stroke: #2ca02c; stroke-width: 1.5; stroke-linecap: square"/>
   </g>
   <g id="line2d_18">
    <path d="M 73.832727 278.948386 
L 75.756606 269.064101 
L 75.756606 269.064101 
L 77.680485 260.228005 
L 77.680485 260.228005 
L 79.604364 252.327275 
L 79.604364 252.327275 
L 81.528242 245.259214 
L 81.528242 245.259214 
L 83.452121 238.930543 
L 83.452121 238.930543 
L 85.376 233.256729 
L 85.376 233.256729 
L 86.818909 229.384857 
L 86.818909 229.384857 
L 89.223758 223.575488 
L 89.223758 223.575488 
L 90.666667 220.432936 
L 90.666667 220.432936 
L 92.590545 216.593476 
L 92.590545 216.593476 
L 94.995394 212.286768 
L 94.995394 212.286768 
L 97.881212 207.727029 
L 97.881212 207.727029 
L 100.286061 204.346719 
L 100.286061 204.346719 
L 102.209939 201.871116 
L 102.209939 201.871116 
L 104.614788 199.016897 
L 104.614788 199.016897 
L 107.981576 195.388248 
L 107.981576 195.388248 
L 111.829333 191.648721 
L 111.829333 191.648721 
L 115.677091 188.23402 
L 115.677091 188.23402 
L 120.967758 183.922088 
L 120.967758 183.922088 
L 125.296485 180.63909 
L 125.296485 180.63909 
L 131.549091 176.197595 
L 138.282667 171.760318 
L 138.282667 171.760318 
L 144.054303 168.235496 
L 144.054303 168.235496 
L 150.787879 164.461101 
L 150.787879 164.461101 
L 155.597576 161.995678 
L 155.597576 161.995678 
L 159.926303 159.942265 
L 159.926303 159.942265 
L 167.140848 156.85717 
L 167.140848 156.85717 
L 172.912485 154.668505 
L 172.912485 154.668505 
L 179.165091 152.536221 
L 179.165091 152.536221 
L 184.455758 150.886956 
L 184.455758 150.886956 
L 196.48 147.462076 
L 212.352 143.0465 
L 224.857212 139.258849 
L 224.857212 139.258849 
L 234.957576 135.942406 
L 234.957576 135.942406 
L 258.044121 128.174579 
L 258.044121 128.174579 
L 265.739636 125.855582 
L 273.435152 123.837645 
L 273.435152 123.837645 
L 281.130667 122.197788 
L 281.130667 122.197788 
L 285.459394 121.460069 
L 298.445576 120.059254 
L 298.445576 120.059254 
L 306.141091 119.745899 
L 327.784727 119.933544 
L 349.909333 119.184047 
L 349.909333 119.184047 
L 350.390303 119.136047 
L 373.957818 115.154124 
L 398.487273 111.618808 
L 398.487273 111.618808 
" clip-path="url(#p4feebe5a58)" style="fill: none; stroke: #d62728; stroke-width: 1.5; stroke-linecap: square"/>
   </g>
   <g id="line2d_19">
    <path d="M 73.832727 272.191879 
L 75.756606 262.037348 
L 75.756606 262.037348 
L 77.680485 252.989125 
L 77.680485 252.989125 
L 79.604364 244.927715 
L 79.604364 244.927715 
L 81.528242 237.744129 
L 81.528242 237.744129 
L 83.452121 231.33917 
L 83.452121 231.33917 
L 85.376 225.622758 
L 85.376 225.622758 
L 86.818909 221.737911 
L 86.818909 221.737911 
L 89.223758 215.936982 
L 89.223758 215.936982 
L 90.666667 212.814417 
L 90.666667 212.814417 
L 92.590545 209.015318 
L 92.590545 209.015318 
L 94.995394 204.775656 
L 94.995394 204.775656 
L 97.881212 200.311644 
L 97.881212 200.311644 
L 100.286061 197.016648 
L 100.286061 197.016648 
L 102.209939 194.609035 
L 102.209939 194.609035 
L 104.614788 191.835514 
L 104.614788 191.835514 
L 107.981576 188.30462 
L 107.981576 188.30462 
L 112.310303 184.208937 
L 117.12 180.051047 
L 117.12 180.051047 
L 123.853576 174.645378 
L 123.853576 174.645378 
L 131.549091 168.812444 
L 138.282667 163.934766 
L 138.282667 163.934766 
L 144.054303 159.937689 
L 144.054303 159.937689 
L 150.787879 155.540481 
L 150.787879 155.540481 
L 155.597576 152.608964 
L 155.597576 152.608964 
L 159.926303 150.138797 
L 159.926303 150.138797 
L 165.697939 147.111096 
L 165.697939 147.111096 
L 169.545697 145.266796 
L 169.545697 145.266796 
L 173.874424 143.358445 
L 173.874424 143.358445 
L 179.646061 141.079187 
L 179.646061 141.079187 
L 184.455758 139.395873 
L 184.455758 139.395873 
L 192.151273 137.059254 
L 192.151273 137.059254 
L 198.403879 135.42438 
L 198.403879 135.42438 
L 205.618424 133.749026 
L 205.618424 133.749026 
L 217.161697 131.322686 
L 217.161697 131.322686 
L 234.957576 127.573388 
L 234.957576 127.573388 
L 246.981818 124.747907 
L 258.044121 121.902095 
L 258.044121 121.902095 
L 277.763879 116.51005 
L 277.763879 116.51005 
L 285.459394 114.425451 
L 301.812364 110.316746 
L 301.812364 110.316746 
L 306.141091 109.338037 
L 325.860848 105.673072 
L 325.860848 105.673072 
L 327.784727 105.3958 
L 350.390303 103.40126 
L 373.957818 103.202961 
L 398.487273 95.054136 
L 398.487273 95.054136 
" clip-path="url(#p4feebe5a58)" style="fill: none; stroke: #9467bd; stroke-width: 1.5; stroke-linecap: square"/>
   </g>
   <g id="line2d_20">
    <path d="M 73.832727 272.838868 
L 75.756606 261.419488 
L 75.756606 261.419488 
L 77.680485 251.200922 
L 77.680485 251.200922 
L 79.604364 242.06492 
L 79.604364 242.06492 
L 81.528242 233.902516 
L 81.528242 233.902516 
L 83.452121 226.613482 
L 83.452121 226.613482 
L 85.376 220.105803 
L 85.376 220.105803 
L 86.818909 215.686818 
L 86.818909 215.686818 
L 89.223758 209.104521 
L 89.223758 209.104521 
L 90.666667 205.575854 
L 90.666667 205.575854 
L 92.590545 201.304807 
L 92.590545 201.304807 
L 94.995394 196.580585 
L 94.995394 196.580585 
L 97.881212 191.677359 
L 97.881212 191.677359 
L 100.286061 188.123586 
L 100.286061 188.123586 
L 102.209939 185.572101 
L 102.209939 185.572101 
L 104.614788 182.689506 
L 104.614788 182.689506 
L 107.981576 179.120942 
L 107.981576 179.120942 
L 111.829333 175.552998 
L 111.829333 175.552998 
L 114.234182 173.530349 
L 114.234182 173.530349 
L 119.043879 169.822946 
L 119.043879 169.822946 
L 123.853576 166.419123 
L 123.853576 166.419123 
L 131.068121 161.637942 
L 131.068121 161.637942 
L 138.282667 157.087429 
L 138.282667 157.087429 
L 146.940121 151.885198 
L 146.940121 151.885198 
L 154.154667 147.824677 
L 154.154667 147.824677 
L 159.926303 144.81127 
L 159.926303 144.81127 
L 167.140848 141.395049 
L 167.140848 141.395049 
L 169.545697 140.350058 
L 169.545697 140.350058 
L 173.874424 138.590856 
L 173.874424 138.590856 
L 181.08897 136.002085 
L 181.08897 136.002085 
L 184.455758 134.933124 
L 184.455758 134.933124 
L 192.151273 132.780721 
L 192.151273 132.780721 
L 200.327758 130.842892 
L 200.327758 130.842892 
L 212.352 128.341561 
L 224.857212 125.72956 
L 224.857212 125.72956 
L 229.666909 124.632924 
L 229.666909 124.632924 
L 239.286303 122.2089 
L 239.286303 122.2089 
L 248.424727 119.611728 
L 248.424727 119.611728 
L 263.815758 114.814149 
L 263.815758 114.814149 
L 273.435152 111.833114 
L 273.435152 111.833114 
L 281.130667 109.646292 
L 281.130667 109.646292 
L 285.459394 108.540331 
L 298.445576 105.925755 
L 298.445576 105.925755 
L 306.141091 104.917197 
L 327.784727 103.554409 
L 348.466424 101.225443 
L 348.466424 101.225443 
L 350.390303 100.803937 
L 373.957818 93.18625 
L 398.487273 103.29735 
L 398.487273 103.29735 
" clip-path="url(#p4feebe5a58)" style="fill: none; stroke: #8c564b; stroke-width: 1.5; stroke-linecap: square"/>
   </g>
   <g id="line2d_21">
    <path d="M 73.832727 269.4071 
L 75.756606 257.521298 
L 75.756606 257.521298 
L 77.680485 247.103394 
L 77.680485 247.103394 
L 79.604364 237.964401 
L 79.604364 237.964401 
L 81.528242 229.93542 
L 81.528242 229.93542 
L 83.452121 222.865999 
L 83.452121 222.865999 
L 85.376 216.622597 
L 85.376 216.622597 
L 86.818909 212.410548 
L 86.818909 212.410548 
L 89.223758 206.155656 
L 89.223758 206.155656 
L 90.666667 202.798136 
L 90.666667 202.798136 
L 92.590545 198.711395 
L 92.590545 198.711395 
L 94.995394 194.130984 
L 94.995394 194.130984 
L 97.881212 189.255588 
L 97.881212 189.255588 
L 100.76703 184.903258 
L 100.76703 184.903258 
L 104.614788 179.696112 
L 104.614788 179.696112 
L 107.981576 175.541556 
L 107.981576 175.541556 
L 112.310303 170.584245 
L 117.12 165.442627 
L 117.12 165.442627 
L 121.448727 161.078615 
L 127.220364 155.624723 
L 127.220364 155.624723 
L 131.549091 151.825866 
L 136.839758 147.562872 
L 136.839758 147.562872 
L 140.687515 144.749975 
L 140.687515 144.749975 
L 144.054303 142.499542 
L 144.054303 142.499542 
L 148.38303 139.9034 
L 148.38303 139.9034 
L 152.711758 137.641401 
L 152.711758 137.641401 
L 155.597576 136.313791 
L 155.597576 136.313791 
L 159.926303 134.577267 
L 159.926303 134.577267 
L 165.697939 132.688929 
L 165.697939 132.688929 
L 169.545697 131.659379 
L 169.545697 131.659379 
L 173.874424 130.674059 
L 173.874424 130.674059 
L 181.569939 129.22514 
L 181.569939 129.22514 
L 196.48 126.632604 
L 200.327758 125.852977 
L 200.327758 125.852977 
L 208.023273 124.031253 
L 208.023273 124.031253 
L 212.352 122.833686 
L 217.161697 121.355608 
L 217.161697 121.355608 
L 224.857212 118.701613 
L 224.857212 118.701613 
L 229.666909 116.901364 
L 229.666909 116.901364 
L 253.715394 107.658592 
L 253.715394 107.658592 
L 261.410909 105.101134 
L 261.410909 105.101134 
L 265.739636 103.819059 
L 273.435152 101.833318 
L 273.435152 101.833318 
L 281.130667 100.193746 
L 281.130667 100.193746 
L 285.459394 99.394049 
L 327.784727 92.619909 
L 348.466424 92.724186 
L 348.466424 92.724186 
L 350.390303 93.183548 
L 373.957818 106.309236 
L 398.487273 87.354907 
L 398.487273 87.354907 
" clip-path="url(#p4feebe5a58)" style="fill: none; stroke: #e377c2; stroke-width: 1.5; stroke-linecap: square"/>
   </g>
   <g id="line2d_22">
    <path d="M 73.832727 263.289123 
L 75.756606 252.741591 
L 75.756606 252.741591 
L 77.680485 243.220817 
L 77.680485 243.220817 
L 79.604364 234.625684 
L 79.604364 234.625684 
L 81.528242 226.863419 
L 81.528242 226.863419 
L 83.452121 219.849053 
L 83.452121 219.849053 
L 85.376 213.504924 
L 85.376 213.504924 
L 86.818909 209.143811 
L 86.818909 209.143811 
L 90.185697 200.127547 
L 90.185697 200.127547 
L 92.590545 194.547365 
L 92.590545 194.547365 
L 94.995394 189.572121 
L 94.995394 189.572121 
L 97.881212 184.280727 
L 97.881212 184.280727 
L 100.286061 180.350396 
L 100.286061 180.350396 
L 102.209939 177.473557 
L 102.209939 177.473557 
L 104.614788 174.165158 
L 104.614788 174.165158 
L 107.981576 169.985385 
L 107.981576 169.985385 
L 111.829333 165.72851 
L 111.829333 165.72851 
L 114.234182 163.294383 
L 114.234182 163.294383 
L 117.12 160.561084 
L 117.12 160.561084 
L 121.448727 156.775337 
L 125.296485 153.666289 
L 125.296485 153.666289 
L 131.068121 149.364173 
L 131.068121 149.364173 
L 134.915879 146.701315 
L 134.915879 146.701315 
L 140.687515 142.981937 
L 140.687515 142.981937 
L 144.054303 140.957495 
L 144.054303 140.957495 
L 150.787879 137.222035 
L 150.787879 137.222035 
L 155.597576 134.806781 
L 155.597576 134.806781 
L 159.926303 132.809677 
L 159.926303 132.809677 
L 167.140848 129.835953 
L 167.140848 129.835953 
L 172.912485 127.748803 
L 172.912485 127.748803 
L 179.165091 125.736252 
L 179.165091 125.736252 
L 184.455758 124.194 
L 184.455758 124.194 
L 196.48 121.015602 
L 212.352 116.857992 
L 223.414303 113.594318 
L 223.414303 113.594318 
L 229.666909 111.56711 
L 229.666909 111.56711 
L 242.653091 107.025639 
L 242.653091 107.025639 
L 253.715394 103.076358 
L 253.715394 103.076358 
L 261.410909 100.50691 
L 261.410909 100.50691 
L 265.739636 99.191937 
L 273.435152 97.182241 
L 273.435152 97.182241 
L 277.763879 96.274848 
L 277.763879 96.274848 
L 283.535515 95.349908 
L 283.535515 95.349908 
L 285.459394 95.117595 
L 298.445576 94.538151 
L 298.445576 94.538151 
L 305.660121 94.865081 
L 305.660121 94.865081 
L 306.141091 94.899206 
L 325.860848 96.568214 
L 325.860848 96.568214 
L 327.784727 96.647348 
L 348.466424 93.99756 
L 348.466424 93.99756 
L 350.390303 93.323993 
L 373.957818 80.77663 
L 398.487273 94.000592 
L 398.487273 94.000592 
" clip-path="url(#p4feebe5a58)" style="fill: none; stroke: #7f7f7f; stroke-width: 1.5; stroke-linecap: square"/>
   </g>
   <g id="line2d_23">
    <path d="M 73.832727 261.359005 
L 75.756606 250.44787 
L 75.756606 250.44787 
L 77.680485 240.57144 
L 77.680485 240.57144 
L 79.604364 231.627636 
L 79.604364 231.627636 
L 81.528242 223.523628 
L 81.528242 223.523628 
L 83.452121 216.175129 
L 83.452121 216.175129 
L 85.376 209.505721 
L 85.376 209.505721 
L 86.818909 204.907453 
L 86.818909 204.907453 
L 90.185697 195.365541 
L 90.185697 195.365541 
L 92.590545 189.438723 
L 92.590545 189.438723 
L 94.995394 184.145778 
L 94.995394 184.145778 
L 97.881212 178.517215 
L 97.881212 178.517215 
L 100.286061 174.34709 
L 100.286061 174.34709 
L 102.209939 171.307734 
L 102.209939 171.307734 
L 104.614788 167.835065 
L 104.614788 167.835065 
L 107.981576 163.501289 
L 107.981576 163.501289 
L 110.386424 160.729666 
L 110.386424 160.729666 
L 113.753212 157.233059 
L 113.753212 157.233059 
L 117.12 154.11676 
L 117.12 154.11676 
L 121.448727 150.571286 
L 125.296485 147.778418 
L 125.296485 147.778418 
L 129.625212 144.965491 
L 129.625212 144.965491 
L 133.47297 142.706783 
L 133.47297 142.706783 
L 138.282667 140.144324 
L 138.282667 140.144324 
L 144.054303 137.373563 
L 144.054303 137.373563 
L 150.787879 134.452602 
L 150.787879 134.452602 
L 158.002424 131.572124 
L 158.002424 131.572124 
L 169.545697 127.217395 
L 169.545697 127.217395 
L 184.455758 121.561028 
L 184.455758 121.561028 
L 198.403879 115.951875 
L 198.403879 115.951875 
L 221.490424 106.492162 
L 221.490424 106.492162 
L 229.666909 103.463873 
L 229.666909 103.463873 
L 234.957576 101.694926 
L 234.957576 101.694926 
L 242.653091 99.456782 
L 242.653091 99.456782 
L 248.424727 98.069721 
L 248.424727 98.069721 
L 253.715394 97.027282 
L 253.715394 97.027282 
L 261.410909 95.887621 
L 261.410909 95.887621 
L 265.739636 95.421916 
L 277.763879 94.591697 
L 277.763879 94.591697 
L 285.459394 94.201042 
L 298.445576 93.169508 
L 298.445576 93.169508 
L 304.217212 92.361993 
L 304.217212 92.361993 
L 306.141091 92.027459 
L 323.456 87.350119 
L 323.456 87.350119 
L 327.784727 85.744195 
L 350.390303 76.803854 
L 373.476848 74.255505 
L 373.476848 74.255505 
L 373.957818 74.31617 
L 398.487273 71.601467 
L 398.487273 71.601467 
" clip-path="url(#p4feebe5a58)" style="fill: none; stroke: #bcbd22; stroke-width: 1.5; stroke-linecap: square"/>
   </g>
   <g id="line2d_24">
    <path d="M 73.832727 255.240286 
L 75.756606 245.346769 
L 75.756606 245.346769 
L 77.680485 236.26618 
L 77.680485 236.26618 
L 79.604364 227.937386 
L 79.604364 227.937386 
L 81.528242 220.30283 
L 81.528242 220.30283 
L 83.452121 213.308382 
L 83.452121 213.308382 
L 85.376 206.90319 
L 85.376 206.90319 
L 86.818909 202.457182 
L 86.818909 202.457182 
L 90.185697 193.162466 
L 90.185697 193.162466 
L 92.590545 187.352042 
L 92.590545 187.352042 
L 94.995394 182.148502 
L 94.995394 182.148502 
L 97.881212 176.611375 
L 97.881212 176.611375 
L 100.286061 172.51515 
L 100.286061 172.51515 
L 102.209939 169.53744 
L 102.209939 169.53744 
L 104.614788 166.147182 
L 104.614788 166.147182 
L 107.981576 161.939146 
L 107.981576 161.939146 
L 110.386424 159.262563 
L 110.386424 159.262563 
L 113.753212 155.899874 
L 113.753212 155.899874 
L 117.12 152.908713 
L 117.12 152.908713 
L 121.448727 149.492261 
L 121.448727 149.492261 
L 125.296485 146.765956 
L 125.296485 146.765956 
L 131.068121 143.064903 
L 131.068121 143.064903 
L 136.839758 139.673031 
L 136.839758 139.673031 
L 144.054303 135.685334 
L 144.054303 135.685334 
L 155.597576 129.594788 
L 155.597576 129.594788 
L 167.621818 123.48217 
L 167.621818 123.48217 
L 177.241212 118.807153 
L 177.241212 118.807153 
L 184.455758 115.482273 
L 184.455758 115.482273 
L 192.151273 112.152711 
L 192.151273 112.152711 
L 200.327758 108.898087 
L 200.327758 108.898087 
L 208.023273 106.123433 
L 208.023273 106.123433 
L 212.352 104.688876 
L 212.352 104.688876 
L 221.490424 101.955371 
L 221.490424 101.955371 
L 229.666909 99.834516 
L 229.666909 99.834516 
L 239.286303 97.699316 
L 239.286303 97.699316 
L 248.424727 95.991688 
L 248.424727 95.991688 
L 258.044121 94.486262 
L 258.044121 94.486262 
L 265.739636 93.466337 
L 265.739636 93.466337 
L 281.130667 91.806654 
L 281.130667 91.806654 
L 306.141091 89.48118 
L 306.141091 89.48118 
L 323.456 87.011267 
L 323.456 87.011267 
L 327.784727 86.101601 
L 327.784727 86.101601 
L 348.466424 79.03142 
L 348.466424 79.03142 
L 350.390303 78.096626 
L 350.390303 78.096626 
L 373.957818 63.167779 
L 373.957818 63.167779 
L 398.487273 53.568 
L 398.487273 53.568 
" clip-path="url(#p4feebe5a58)" style="fill: none; stroke: #17becf; stroke-width: 1.5; stroke-linecap: square"/>
   </g>
   <g id="line2d_25">
    <path d="M 73.832727 263.375527 
L 75.756606 250.07149 
L 75.756606 250.07149 
L 77.680485 238.394752 
L 77.680485 238.394752 
L 79.604364 228.141206 
L 79.604364 228.141206 
L 81.528242 219.128389 
L 81.528242 219.128389 
L 83.452121 211.193678 
L 83.452121 211.193678 
L 85.376 204.192608 
L 85.376 204.192608 
L 86.818909 199.476991 
L 86.818909 199.476991 
L 89.223758 192.49492 
L 89.223758 192.49492 
L 90.666667 188.762816 
L 90.666667 188.762816 
L 92.590545 184.242234 
L 92.590545 184.242234 
L 94.995394 179.215696 
L 94.995394 179.215696 
L 97.881212 173.930747 
L 97.881212 173.930747 
L 100.286061 170.024779 
L 100.286061 170.024779 
L 102.209939 167.163538 
L 102.209939 167.163538 
L 104.614788 163.857262 
L 104.614788 163.857262 
L 107.981576 159.633001 
L 107.981576 159.633001 
L 111.829333 155.248837 
L 111.829333 155.248837 
L 115.677091 151.223639 
L 115.677091 151.223639 
L 119.524848 147.482655 
L 119.524848 147.482655 
L 123.853576 143.562332 
L 123.853576 143.562332 
L 128.663273 139.533675 
L 128.663273 139.533675 
L 133.47297 135.840345 
L 133.47297 135.840345 
L 138.282667 132.484009 
L 138.282667 132.484009 
L 142.611394 129.75226 
L 142.611394 129.75226 
L 146.940121 127.289095 
L 146.940121 127.289095 
L 150.787879 125.314695 
L 150.787879 125.314695 
L 155.597576 123.10749 
L 155.597576 123.10749 
L 159.926303 121.337578 
L 159.926303 121.337578 
L 167.621818 118.578997 
L 167.621818 118.578997 
L 177.241212 115.517306 
L 177.241212 115.517306 
L 188.784485 111.825543 
L 188.784485 111.825543 
L 196.48 109.090538 
L 196.48 109.090538 
L 200.327758 107.608912 
L 200.327758 107.608912 
L 208.023273 104.421501 
L 208.023273 104.421501 
L 217.161697 100.350407 
L 217.161697 100.350407 
L 229.666909 94.74293 
L 229.666909 94.74293 
L 234.957576 92.546277 
L 234.957576 92.546277 
L 242.653091 89.724811 
L 242.653091 89.724811 
L 248.424727 87.983839 
L 248.424727 87.983839 
L 253.715394 86.710787 
L 253.715394 86.710787 
L 258.044121 85.905985 
L 258.044121 85.905985 
L 263.815758 85.150284 
L 263.815758 85.150284 
L 265.739636 84.972119 
L 265.739636 84.972119 
L 273.435152 84.555364 
L 273.435152 84.555364 
L 285.459394 84.370927 
L 285.459394 84.370927 
L 298.445576 83.589239 
L 298.445576 83.589239 
L 304.217212 82.673521 
L 304.217212 82.673521 
L 306.141091 82.265253 
L 306.141091 82.265253 
L 323.456 76.222259 
L 323.456 76.222259 
L 327.784727 74.214168 
L 327.784727 74.214168 
L 348.466424 66.498562 
L 348.466424 66.498562 
L 350.390303 66.304013 
L 350.390303 66.304013 
L 373.476848 76.341699 
L 373.476848 76.341699 
L 373.957818 76.73371 
L 373.957818 76.73371 
L 398.487273 60.757596 
L 398.487273 60.757596 
" clip-path="url(#p4feebe5a58)" style="fill: none; stroke: #1f77b4; stroke-width: 1.5; stroke-linecap: square"/>
   </g>
   <g id="patch_3">
    <path d="M 57.6 307.584 
L 57.6 41.472 
" style="fill: none; stroke: #000000; stroke-width: 0.8; stroke-linejoin: miter; stroke-linecap: square"/>
   </g>
   <g id="patch_4">
    <path d="M 414.72 307.584 
L 414.72 41.472 
" style="fill: none; stroke: #000000; stroke-width: 0.8; stroke-linejoin: miter; stroke-linecap: square"/>
   </g>
   <g id="patch_5">
    <path d="M 57.6 307.584 
L 414.72 307.584 
" style="fill: none; stroke: #000000; stroke-width: 0.8; stroke-linejoin: miter; stroke-linecap: square"/>
   </g>
   <g id="patch_6">
    <path d="M 57.6 41.472 
L 414.72 41.472 
" style="fill: none; stroke: #000000; stroke-width: 0.8; stroke-linejoin: miter; stroke-linecap: square"/>
   </g>
   <g id="legend_1">
    <g id="patch_7">
     <path d="M 328.760625 302.584 
L 407.72 302.584 
Q 409.72 302.584 409.72 300.584 
L 409.72 140.124625 
Q 409.72 138.124625 407.72 138.124625 
L 328.760625 138.124625 
Q 326.760625 138.124625 326.760625 140.124625 
L 326.760625 300.584 
Q 326.760625 302.584 328.760625 302.584 
z
" style="fill: #ffffff; opacity: 0.8; stroke: #cccccc; stroke-linejoin: miter"/>
    </g>
    <g id="line2d_26">
     <path d="M 330.760625 146.223062 
L 340.760625 146.223062 
L 350.760625 146.223062 
" style="fill: none; stroke: #1f77b4; stroke-width: 1.5; stroke-linecap: square"/>
    </g>
    <g id="text_17">
     <!-- QBER: 1 -->
     <g transform="translate(358.760625 149.723062)scale(0.1 -0.1)">
      <defs>
       <path id="DejaVuSans-51" d="M 2522 4238 
Q 1834 4238 1429 3725 
Q 1025 3213 1025 2328 
Q 1025 1447 1429 934 
Q 1834 422 2522 422 
Q 3209 422 3611 934 
Q 4013 1447 4013 2328 
Q 4013 3213 3611 3725 
Q 3209 4238 2522 4238 
z
M 3406 84 
L 4238 -825 
L 3475 -825 
L 2784 -78 
Q 2681 -84 2626 -87 
Q 2572 -91 2522 -91 
Q 1538 -91 948 567 
Q 359 1225 359 2328 
Q 359 3434 948 4092 
Q 1538 4750 2522 4750 
Q 3503 4750 4090 4092 
Q 4678 3434 4678 2328 
Q 4678 1516 4351 937 
Q 4025 359 3406 84 
z
" transform="scale(0.015625)"/>
       <path id="DejaVuSans-42" d="M 1259 2228 
L 1259 519 
L 2272 519 
Q 2781 519 3026 730 
Q 3272 941 3272 1375 
Q 3272 1813 3026 2020 
Q 2781 2228 2272 2228 
L 1259 2228 
z
M 1259 4147 
L 1259 2741 
L 2194 2741 
Q 2656 2741 2882 2914 
Q 3109 3088 3109 3444 
Q 3109 3797 2882 3972 
Q 2656 4147 2194 4147 
L 1259 4147 
z
M 628 4666 
L 2241 4666 
Q 2963 4666 3353 4366 
Q 3744 4066 3744 3513 
Q 3744 3084 3544 2831 
Q 3344 2578 2956 2516 
Q 3422 2416 3680 2098 
Q 3938 1781 3938 1306 
Q 3938 681 3513 340 
Q 3088 0 2303 0 
L 628 0 
L 628 4666 
z
" transform="scale(0.015625)"/>
       <path id="DejaVuSans-45" d="M 628 4666 
L 3578 4666 
L 3578 4134 
L 1259 4134 
L 1259 2753 
L 3481 2753 
L 3481 2222 
L 1259 2222 
L 1259 531 
L 3634 531 
L 3634 0 
L 628 0 
L 628 4666 
z
" transform="scale(0.015625)"/>
       <path id="DejaVuSans-52" d="M 2841 2188 
Q 3044 2119 3236 1894 
Q 3428 1669 3622 1275 
L 4263 0 
L 3584 0 
L 2988 1197 
Q 2756 1666 2539 1819 
Q 2322 1972 1947 1972 
L 1259 1972 
L 1259 0 
L 628 0 
L 628 4666 
L 2053 4666 
Q 2853 4666 3247 4331 
Q 3641 3997 3641 3322 
Q 3641 2881 3436 2590 
Q 3231 2300 2841 2188 
z
M 1259 4147 
L 1259 2491 
L 2053 2491 
Q 2509 2491 2742 2702 
Q 2975 2913 2975 3322 
Q 2975 3731 2742 3939 
Q 2509 4147 2053 4147 
L 1259 4147 
z
" transform="scale(0.015625)"/>
       <path id="DejaVuSans-3a" d="M 750 794 
L 1409 794 
L 1409 0 
L 750 0 
L 750 794 
z
M 750 3309 
L 1409 3309 
L 1409 2516 
L 750 2516 
L 750 3309 
z
" transform="scale(0.015625)"/>
      </defs>
      <use xlink:href="#DejaVuSans-51"/>
      <use xlink:href="#DejaVuSans-42" x="78.710938"/>
      <use xlink:href="#DejaVuSans-45" x="147.314453"/>
      <use xlink:href="#DejaVuSans-52" x="210.498047"/>
      <use xlink:href="#DejaVuSans-3a" x="276.855469"/>
      <use xlink:href="#DejaVuSans-20" x="310.546875"/>
      <use xlink:href="#DejaVuSans-31" x="342.333984"/>
     </g>
    </g>
    <g id="line2d_27">
     <path d="M 330.760625 160.901188 
L 340.760625 160.901188 
L 350.760625 160.901188 
" style="fill: none; stroke: #ff7f0e; stroke-width: 1.5; stroke-linecap: square"/>
    </g>
    <g id="text_18">
     <!-- QBER: 2 -->
     <g transform="translate(358.760625 164.401188)scale(0.1 -0.1)">
      <use xlink:href="#DejaVuSans-51"/>
      <use xlink:href="#DejaVuSans-42" x="78.710938"/>
      <use xlink:href="#DejaVuSans-45" x="147.314453"/>
      <use xlink:href="#DejaVuSans-52" x="210.498047"/>
      <use xlink:href="#DejaVuSans-3a" x="276.855469"/>
      <use xlink:href="#DejaVuSans-20" x="310.546875"/>
      <use xlink:href="#DejaVuSans-32" x="342.333984"/>
     </g>
    </g>
    <g id="line2d_28">
     <path d="M 330.760625 175.579313 
L 340.760625 175.579313 
L 350.760625 175.579313 
" style="fill: none; stroke: #2ca02c; stroke-width: 1.5; stroke-linecap: square"/>
    </g>
    <g id="text_19">
     <!-- QBER: 3 -->
     <g transform="translate(358.760625 179.079313)scale(0.1 -0.1)">
      <defs>
       <path id="DejaVuSans-33" d="M 2597 2516 
Q 3050 2419 3304 2112 
Q 3559 1806 3559 1356 
Q 3559 666 3084 287 
Q 2609 -91 1734 -91 
Q 1441 -91 1130 -33 
Q 819 25 488 141 
L 488 750 
Q 750 597 1062 519 
Q 1375 441 1716 441 
Q 2309 441 2620 675 
Q 2931 909 2931 1356 
Q 2931 1769 2642 2001 
Q 2353 2234 1838 2234 
L 1294 2234 
L 1294 2753 
L 1863 2753 
Q 2328 2753 2575 2939 
Q 2822 3125 2822 3475 
Q 2822 3834 2567 4026 
Q 2313 4219 1838 4219 
Q 1578 4219 1281 4162 
Q 984 4106 628 3988 
L 628 4550 
Q 988 4650 1302 4700 
Q 1616 4750 1894 4750 
Q 2613 4750 3031 4423 
Q 3450 4097 3450 3541 
Q 3450 3153 3228 2886 
Q 3006 2619 2597 2516 
z
" transform="scale(0.015625)"/>
      </defs>
      <use xlink:href="#DejaVuSans-51"/>
      <use xlink:href="#DejaVuSans-42" x="78.710938"/>
      <use xlink:href="#DejaVuSans-45" x="147.314453"/>
      <use xlink:href="#DejaVuSans-52" x="210.498047"/>
      <use xlink:href="#DejaVuSans-3a" x="276.855469"/>
      <use xlink:href="#DejaVuSans-20" x="310.546875"/>
      <use xlink:href="#DejaVuSans-33" x="342.333984"/>
     </g>
    </g>
    <g id="line2d_29">
     <path d="M 330.760625 190.257438 
L 340.760625 190.257438 
L 350.760625 190.257438 
" style="fill: none; stroke: #d62728; stroke-width: 1.5; stroke-linecap: square"/>
    </g>
    <g id="text_20">
     <!-- QBER: 4 -->
     <g transform="translate(358.760625 193.757438)scale(0.1 -0.1)">
      <use xlink:href="#DejaVuSans-51"/>
      <use xlink:href="#DejaVuSans-42" x="78.710938"/>
      <use xlink:href="#DejaVuSans-45" x="147.314453"/>
      <use xlink:href="#DejaVuSans-52" x="210.498047"/>
      <use xlink:href="#DejaVuSans-3a" x="276.855469"/>
      <use xlink:href="#DejaVuSans-20" x="310.546875"/>
      <use xlink:href="#DejaVuSans-34" x="342.333984"/>
     </g>
    </g>
    <g id="line2d_30">
     <path d="M 330.760625 204.935563 
L 340.760625 204.935563 
L 350.760625 204.935563 
" style="fill: none; stroke: #9467bd; stroke-width: 1.5; stroke-linecap: square"/>
    </g>
    <g id="text_21">
     <!-- QBER: 5 -->
     <g transform="translate(358.760625 208.435563)scale(0.1 -0.1)">
      <use xlink:href="#DejaVuSans-51"/>
      <use xlink:href="#DejaVuSans-42" x="78.710938"/>
      <use xlink:href="#DejaVuSans-45" x="147.314453"/>
      <use xlink:href="#DejaVuSans-52" x="210.498047"/>
      <use xlink:href="#DejaVuSans-3a" x="276.855469"/>
      <use xlink:href="#DejaVuSans-20" x="310.546875"/>
      <use xlink:href="#DejaVuSans-35" x="342.333984"/>
     </g>
    </g>
    <g id="line2d_31">
     <path d="M 330.760625 219.613688 
L 340.760625 219.613688 
L 350.760625 219.613688 
" style="fill: none; stroke: #8c564b; stroke-width: 1.5; stroke-linecap: square"/>
    </g>
    <g id="text_22">
     <!-- QBER: 6 -->
     <g transform="translate(358.760625 223.113688)scale(0.1 -0.1)">
      <use xlink:href="#DejaVuSans-51"/>
      <use xlink:href="#DejaVuSans-42" x="78.710938"/>
      <use xlink:href="#DejaVuSans-45" x="147.314453"/>
      <use xlink:href="#DejaVuSans-52" x="210.498047"/>
      <use xlink:href="#DejaVuSans-3a" x="276.855469"/>
      <use xlink:href="#DejaVuSans-20" x="310.546875"/>
      <use xlink:href="#DejaVuSans-36" x="342.333984"/>
     </g>
    </g>
    <g id="line2d_32">
     <path d="M 330.760625 234.291812 
L 340.760625 234.291812 
L 350.760625 234.291812 
" style="fill: none; stroke: #e377c2; stroke-width: 1.5; stroke-linecap: square"/>
    </g>
    <g id="text_23">
     <!-- QBER: 7 -->
     <g transform="translate(358.760625 237.791812)scale(0.1 -0.1)">
      <use xlink:href="#DejaVuSans-51"/>
      <use xlink:href="#DejaVuSans-42" x="78.710938"/>
      <use xlink:href="#DejaVuSans-45" x="147.314453"/>
      <use xlink:href="#DejaVuSans-52" x="210.498047"/>
      <use xlink:href="#DejaVuSans-3a" x="276.855469"/>
      <use xlink:href="#DejaVuSans-20" x="310.546875"/>
      <use xlink:href="#DejaVuSans-37" x="342.333984"/>
     </g>
    </g>
    <g id="line2d_33">
     <path d="M 330.760625 248.969938 
L 340.760625 248.969938 
L 350.760625 248.969938 
" style="fill: none; stroke: #7f7f7f; stroke-width: 1.5; stroke-linecap: square"/>
    </g>
    <g id="text_24">
     <!-- QBER: 8 -->
     <g transform="translate(358.760625 252.469938)scale(0.1 -0.1)">
      <use xlink:href="#DejaVuSans-51"/>
      <use xlink:href="#DejaVuSans-42" x="78.710938"/>
      <use xlink:href="#DejaVuSans-45" x="147.314453"/>
      <use xlink:href="#DejaVuSans-52" x="210.498047"/>
      <use xlink:href="#DejaVuSans-3a" x="276.855469"/>
      <use xlink:href="#DejaVuSans-20" x="310.546875"/>
      <use xlink:href="#DejaVuSans-38" x="342.333984"/>
     </g>
    </g>
    <g id="line2d_34">
     <path d="M 330.760625 263.648062 
L 340.760625 263.648062 
L 350.760625 263.648062 
" style="fill: none; stroke: #bcbd22; stroke-width: 1.5; stroke-linecap: square"/>
    </g>
    <g id="text_25">
     <!-- QBER: 9 -->
     <g transform="translate(358.760625 267.148062)scale(0.1 -0.1)">
      <defs>
       <path id="DejaVuSans-39" d="M 703 97 
L 703 672 
Q 941 559 1184 500 
Q 1428 441 1663 441 
Q 2288 441 2617 861 
Q 2947 1281 2994 2138 
Q 2813 1869 2534 1725 
Q 2256 1581 1919 1581 
Q 1219 1581 811 2004 
Q 403 2428 403 3163 
Q 403 3881 828 4315 
Q 1253 4750 1959 4750 
Q 2769 4750 3195 4129 
Q 3622 3509 3622 2328 
Q 3622 1225 3098 567 
Q 2575 -91 1691 -91 
Q 1453 -91 1209 -44 
Q 966 3 703 97 
z
M 1959 2075 
Q 2384 2075 2632 2365 
Q 2881 2656 2881 3163 
Q 2881 3666 2632 3958 
Q 2384 4250 1959 4250 
Q 1534 4250 1286 3958 
Q 1038 3666 1038 3163 
Q 1038 2656 1286 2365 
Q 1534 2075 1959 2075 
z
" transform="scale(0.015625)"/>
      </defs>
      <use xlink:href="#DejaVuSans-51"/>
      <use xlink:href="#DejaVuSans-42" x="78.710938"/>
      <use xlink:href="#DejaVuSans-45" x="147.314453"/>
      <use xlink:href="#DejaVuSans-52" x="210.498047"/>
      <use xlink:href="#DejaVuSans-3a" x="276.855469"/>
      <use xlink:href="#DejaVuSans-20" x="310.546875"/>
      <use xlink:href="#DejaVuSans-39" x="342.333984"/>
     </g>
    </g>
    <g id="line2d_35">
     <path d="M 330.760625 278.326187 
L 340.760625 278.326187 
L 350.760625 278.326187 
" style="fill: none; stroke: #17becf; stroke-width: 1.5; stroke-linecap: square"/>
    </g>
    <g id="text_26">
     <!-- QBER: 10 -->
     <g transform="translate(358.760625 281.826187)scale(0.1 -0.1)">
      <use xlink:href="#DejaVuSans-51"/>
      <use xlink:href="#DejaVuSans-42" x="78.710938"/>
      <use xlink:href="#DejaVuSans-45" x="147.314453"/>
      <use xlink:href="#DejaVuSans-52" x="210.498047"/>
      <use xlink:href="#DejaVuSans-3a" x="276.855469"/>
      <use xlink:href="#DejaVuSans-20" x="310.546875"/>
      <use xlink:href="#DejaVuSans-31" x="342.333984"/>
      <use xlink:href="#DejaVuSans-30" x="405.957031"/>
     </g>
    </g>
    <g id="line2d_36">
     <path d="M 330.760625 293.004312 
L 340.760625 293.004312 
L 350.760625 293.004312 
" style="fill: none; stroke: #1f77b4; stroke-width: 1.5; stroke-linecap: square"/>
    </g>
    <g id="text_27">
     <!-- QBER: 11 -->
     <g transform="translate(358.760625 296.504312)scale(0.1 -0.1)">
      <use xlink:href="#DejaVuSans-51"/>
      <use xlink:href="#DejaVuSans-42" x="78.710938"/>
      <use xlink:href="#DejaVuSans-45" x="147.314453"/>
      <use xlink:href="#DejaVuSans-52" x="210.498047"/>
      <use xlink:href="#DejaVuSans-3a" x="276.855469"/>
      <use xlink:href="#DejaVuSans-20" x="310.546875"/>
      <use xlink:href="#DejaVuSans-31" x="342.333984"/>
      <use xlink:href="#DejaVuSans-31" x="405.957031"/>
     </g>
    </g>
   </g>
  </g>
 </g>
 <defs>
  <clipPath id="p4feebe5a58">
   <rect x="57.6" y="41.472" width="357.12" height="266.112"/>
  </clipPath>
 </defs>
</svg>
