<?xml version="1.0" encoding="utf-8" standalone="no"?>
<!DOCTYPE svg PUBLIC "-//W3C//DTD SVG 1.1//EN"
  "http://www.w3.org/Graphics/SVG/1.1/DTD/svg11.dtd">
<svg xmlns:xlink="http://www.w3.org/1999/xlink" width="460.8pt" height="345.6pt" viewBox="0 0 460.8 345.6" xmlns="http://www.w3.org/2000/svg" version="1.1">
 <metadata>
  <rdf:RDF xmlns:dc="http://purl.org/dc/elements/1.1/" xmlns:cc="http://creativecommons.org/ns#" xmlns:rdf="http://www.w3.org/1999/02/22-rdf-syntax-ns#">
   <cc:Work>
    <dc:type rdf:resource="http://purl.org/dc/dcmitype/StillImage"/>
    <dc:date>2023-09-07T07:52:32.736206</dc:date>
    <dc:format>image/svg+xml</dc:format>
    <dc:creator>
     <cc:Agent>
      <dc:title>Matplotlib v3.5.3, https://matplotlib.org/</dc:title>
     </cc:Agent>
    </dc:creator>
   </cc:Work>
  </rdf:RDF>
 </metadata>
 <defs>
  <style type="text/css">*{stroke-linejoin: round; stroke-linecap: butt}</style>
 </defs>
 <g id="figure_1">
  <g id="patch_1">
   <path d="M 0 345.6 
L 460.8 345.6 
L 460.8 0 
L 0 0 
z
" style="fill: #ffffff"/>
  </g>
  <g id="axes_1">
   <g id="patch_2">
    <path d="M 57.6 307.584 
L 414.72 307.584 
L 414.72 41.472 
L 57.6 41.472 
z
" style="fill: #ffffff"/>
   </g>
   <g id="matplotlib.axis_1">
    <g id="xtick_1">
     <g id="line2d_1">
      <defs>
       <path id="mb290f71a5c" d="M 0 0 
L 0 3.5 
" style="stroke: #000000; stroke-width: 0.8"/>
      </defs>
      <g>
       <use xlink:href="#mb290f71a5c" x="73.351758" y="307.584" style="stroke: #000000; stroke-width: 0.8"/>
      </g>
     </g>
     <g id="text_1">
      <!-- 0 -->
      <g transform="translate(70.170508 322.182437)scale(0.1 -0.1)">
       <defs>
        <path id="DejaVuSans-30" d="M 2034 4250 
Q 1547 4250 1301 3770 
Q 1056 3291 1056 2328 
Q 1056 1369 1301 889 
Q 1547 409 2034 409 
Q 2525 409 2770 889 
Q 3016 1369 3016 2328 
Q 3016 3291 2770 3770 
Q 2525 4250 2034 4250 
z
M 2034 4750 
Q 2819 4750 3233 4129 
Q 3647 3509 3647 2328 
Q 3647 1150 3233 529 
Q 2819 -91 2034 -91 
Q 1250 -91 836 529 
Q 422 1150 422 2328 
Q 422 3509 836 4129 
Q 1250 4750 2034 4750 
z
" transform="scale(0.015625)"/>
       </defs>
       <use xlink:href="#DejaVuSans-30"/>
      </g>
     </g>
    </g>
    <g id="xtick_2">
     <g id="line2d_2">
      <g>
       <use xlink:href="#mb290f71a5c" x="121.448727" y="307.584" style="stroke: #000000; stroke-width: 0.8"/>
      </g>
     </g>
     <g id="text_2">
      <!-- 2500 -->
      <g transform="translate(108.723727 322.182437)scale(0.1 -0.1)">
       <defs>
        <path id="DejaVuSans-32" d="M 1228 531 
L 3431 531 
L 3431 0 
L 469 0 
L 469 531 
Q 828 903 1448 1529 
Q 2069 2156 2228 2338 
Q 2531 2678 2651 2914 
Q 2772 3150 2772 3378 
Q 2772 3750 2511 3984 
Q 2250 4219 1831 4219 
Q 1534 4219 1204 4116 
Q 875 4013 500 3803 
L 500 4441 
Q 881 4594 1212 4672 
Q 1544 4750 1819 4750 
Q 2544 4750 2975 4387 
Q 3406 4025 3406 3419 
Q 3406 3131 3298 2873 
Q 3191 2616 2906 2266 
Q 2828 2175 2409 1742 
Q 1991 1309 1228 531 
z
" transform="scale(0.015625)"/>
        <path id="DejaVuSans-35" d="M 691 4666 
L 3169 4666 
L 3169 4134 
L 1269 4134 
L 1269 2991 
Q 1406 3038 1543 3061 
Q 1681 3084 1819 3084 
Q 2600 3084 3056 2656 
Q 3513 2228 3513 1497 
Q 3513 744 3044 326 
Q 2575 -91 1722 -91 
Q 1428 -91 1123 -41 
Q 819 9 494 109 
L 494 744 
Q 775 591 1075 516 
Q 1375 441 1709 441 
Q 2250 441 2565 725 
Q 2881 1009 2881 1497 
Q 2881 1984 2565 2268 
Q 2250 2553 1709 2553 
Q 1456 2553 1204 2497 
Q 953 2441 691 2322 
L 691 4666 
z
" transform="scale(0.015625)"/>
       </defs>
       <use xlink:href="#DejaVuSans-32"/>
       <use xlink:href="#DejaVuSans-35" x="63.623047"/>
       <use xlink:href="#DejaVuSans-30" x="127.246094"/>
       <use xlink:href="#DejaVuSans-30" x="190.869141"/>
      </g>
     </g>
    </g>
    <g id="xtick_3">
     <g id="line2d_3">
      <g>
       <use xlink:href="#mb290f71a5c" x="169.545697" y="307.584" style="stroke: #000000; stroke-width: 0.8"/>
      </g>
     </g>
     <g id="text_3">
      <!-- 5000 -->
      <g transform="translate(156.820697 322.182437)scale(0.1 -0.1)">
       <use xlink:href="#DejaVuSans-35"/>
       <use xlink:href="#DejaVuSans-30" x="63.623047"/>
       <use xlink:href="#DejaVuSans-30" x="127.246094"/>
       <use xlink:href="#DejaVuSans-30" x="190.869141"/>
      </g>
     </g>
    </g>
    <g id="xtick_4">
     <g id="line2d_4">
      <g>
       <use xlink:href="#mb290f71a5c" x="217.642667" y="307.584" style="stroke: #000000; stroke-width: 0.8"/>
      </g>
     </g>
     <g id="text_4">
      <!-- 7500 -->
      <g transform="translate(204.917667 322.182437)scale(0.1 -0.1)">
       <defs>
        <path id="DejaVuSans-37" d="M 525 4666 
L 3525 4666 
L 3525 4397 
L 1831 0 
L 1172 0 
L 2766 4134 
L 525 4134 
L 525 4666 
z
" transform="scale(0.015625)"/>
       </defs>
       <use xlink:href="#DejaVuSans-37"/>
       <use xlink:href="#DejaVuSans-35" x="63.623047"/>
       <use xlink:href="#DejaVuSans-30" x="127.246094"/>
       <use xlink:href="#DejaVuSans-30" x="190.869141"/>
      </g>
     </g>
    </g>
    <g id="xtick_5">
     <g id="line2d_5">
      <g>
       <use xlink:href="#mb290f71a5c" x="265.739636" y="307.584" style="stroke: #000000; stroke-width: 0.8"/>
      </g>
     </g>
     <g id="text_5">
      <!-- 10000 -->
      <g transform="translate(249.833386 322.182437)scale(0.1 -0.1)">
       <defs>
        <path id="DejaVuSans-31" d="M 794 531 
L 1825 531 
L 1825 4091 
L 703 3866 
L 703 4441 
L 1819 4666 
L 2450 4666 
L 2450 531 
L 3481 531 
L 3481 0 
L 794 0 
L 794 531 
z
" transform="scale(0.015625)"/>
       </defs>
       <use xlink:href="#DejaVuSans-31"/>
       <use xlink:href="#DejaVuSans-30" x="63.623047"/>
       <use xlink:href="#DejaVuSans-30" x="127.246094"/>
       <use xlink:href="#DejaVuSans-30" x="190.869141"/>
       <use xlink:href="#DejaVuSans-30" x="254.492188"/>
      </g>
     </g>
    </g>
    <g id="xtick_6">
     <g id="line2d_6">
      <g>
       <use xlink:href="#mb290f71a5c" x="313.836606" y="307.584" style="stroke: #000000; stroke-width: 0.8"/>
      </g>
     </g>
     <g id="text_6">
      <!-- 12500 -->
      <g transform="translate(297.930356 322.182437)scale(0.1 -0.1)">
       <use xlink:href="#DejaVuSans-31"/>
       <use xlink:href="#DejaVuSans-32" x="63.623047"/>
       <use xlink:href="#DejaVuSans-35" x="127.246094"/>
       <use xlink:href="#DejaVuSans-30" x="190.869141"/>
       <use xlink:href="#DejaVuSans-30" x="254.492188"/>
      </g>
     </g>
    </g>
    <g id="xtick_7">
     <g id="line2d_7">
      <g>
       <use xlink:href="#mb290f71a5c" x="361.933576" y="307.584" style="stroke: #000000; stroke-width: 0.8"/>
      </g>
     </g>
     <g id="text_7">
      <!-- 15000 -->
      <g transform="translate(346.027326 322.182437)scale(0.1 -0.1)">
       <use xlink:href="#DejaVuSans-31"/>
       <use xlink:href="#DejaVuSans-35" x="63.623047"/>
       <use xlink:href="#DejaVuSans-30" x="127.246094"/>
       <use xlink:href="#DejaVuSans-30" x="190.869141"/>
       <use xlink:href="#DejaVuSans-30" x="254.492188"/>
      </g>
     </g>
    </g>
    <g id="xtick_8">
     <g id="line2d_8">
      <g>
       <use xlink:href="#mb290f71a5c" x="410.030545" y="307.584" style="stroke: #000000; stroke-width: 0.8"/>
      </g>
     </g>
     <g id="text_8">
      <!-- 17500 -->
      <g transform="translate(394.124295 322.182437)scale(0.1 -0.1)">
       <use xlink:href="#DejaVuSans-31"/>
       <use xlink:href="#DejaVuSans-37" x="63.623047"/>
       <use xlink:href="#DejaVuSans-35" x="127.246094"/>
       <use xlink:href="#DejaVuSans-30" x="190.869141"/>
       <use xlink:href="#DejaVuSans-30" x="254.492188"/>
      </g>
     </g>
    </g>
    <g id="text_9">
     <!-- Number of input neurons multiplied by number of hidden neurons [N*K] -->
     <g transform="translate(56.102969 335.860562)scale(0.1 -0.1)">
      <defs>
       <path id="DejaVuSans-4e" d="M 628 4666 
L 1478 4666 
L 3547 763 
L 3547 4666 
L 4159 4666 
L 4159 0 
L 3309 0 
L 1241 3903 
L 1241 0 
L 628 0 
L 628 4666 
z
" transform="scale(0.015625)"/>
       <path id="DejaVuSans-75" d="M 544 1381 
L 544 3500 
L 1119 3500 
L 1119 1403 
Q 1119 906 1312 657 
Q 1506 409 1894 409 
Q 2359 409 2629 706 
Q 2900 1003 2900 1516 
L 2900 3500 
L 3475 3500 
L 3475 0 
L 2900 0 
L 2900 538 
Q 2691 219 2414 64 
Q 2138 -91 1772 -91 
Q 1169 -91 856 284 
Q 544 659 544 1381 
z
M 1991 3584 
L 1991 3584 
z
" transform="scale(0.015625)"/>
       <path id="DejaVuSans-6d" d="M 3328 2828 
Q 3544 3216 3844 3400 
Q 4144 3584 4550 3584 
Q 5097 3584 5394 3201 
Q 5691 2819 5691 2113 
L 5691 0 
L 5113 0 
L 5113 2094 
Q 5113 2597 4934 2840 
Q 4756 3084 4391 3084 
Q 3944 3084 3684 2787 
Q 3425 2491 3425 1978 
L 3425 0 
L 2847 0 
L 2847 2094 
Q 2847 2600 2669 2842 
Q 2491 3084 2119 3084 
Q 1678 3084 1418 2786 
Q 1159 2488 1159 1978 
L 1159 0 
L 581 0 
L 581 3500 
L 1159 3500 
L 1159 2956 
Q 1356 3278 1631 3431 
Q 1906 3584 2284 3584 
Q 2666 3584 2933 3390 
Q 3200 3197 3328 2828 
z
" transform="scale(0.015625)"/>
       <path id="DejaVuSans-62" d="M 3116 1747 
Q 3116 2381 2855 2742 
Q 2594 3103 2138 3103 
Q 1681 3103 1420 2742 
Q 1159 2381 1159 1747 
Q 1159 1113 1420 752 
Q 1681 391 2138 391 
Q 2594 391 2855 752 
Q 3116 1113 3116 1747 
z
M 1159 2969 
Q 1341 3281 1617 3432 
Q 1894 3584 2278 3584 
Q 2916 3584 3314 3078 
Q 3713 2572 3713 1747 
Q 3713 922 3314 415 
Q 2916 -91 2278 -91 
Q 1894 -91 1617 61 
Q 1341 213 1159 525 
L 1159 0 
L 581 0 
L 581 4863 
L 1159 4863 
L 1159 2969 
z
" transform="scale(0.015625)"/>
       <path id="DejaVuSans-65" d="M 3597 1894 
L 3597 1613 
L 953 1613 
Q 991 1019 1311 708 
Q 1631 397 2203 397 
Q 2534 397 2845 478 
Q 3156 559 3463 722 
L 3463 178 
Q 3153 47 2828 -22 
Q 2503 -91 2169 -91 
Q 1331 -91 842 396 
Q 353 884 353 1716 
Q 353 2575 817 3079 
Q 1281 3584 2069 3584 
Q 2775 3584 3186 3129 
Q 3597 2675 3597 1894 
z
M 3022 2063 
Q 3016 2534 2758 2815 
Q 2500 3097 2075 3097 
Q 1594 3097 1305 2825 
Q 1016 2553 972 2059 
L 3022 2063 
z
" transform="scale(0.015625)"/>
       <path id="DejaVuSans-72" d="M 2631 2963 
Q 2534 3019 2420 3045 
Q 2306 3072 2169 3072 
Q 1681 3072 1420 2755 
Q 1159 2438 1159 1844 
L 1159 0 
L 581 0 
L 581 3500 
L 1159 3500 
L 1159 2956 
Q 1341 3275 1631 3429 
Q 1922 3584 2338 3584 
Q 2397 3584 2469 3576 
Q 2541 3569 2628 3553 
L 2631 2963 
z
" transform="scale(0.015625)"/>
       <path id="DejaVuSans-20" transform="scale(0.015625)"/>
       <path id="DejaVuSans-6f" d="M 1959 3097 
Q 1497 3097 1228 2736 
Q 959 2375 959 1747 
Q 959 1119 1226 758 
Q 1494 397 1959 397 
Q 2419 397 2687 759 
Q 2956 1122 2956 1747 
Q 2956 2369 2687 2733 
Q 2419 3097 1959 3097 
z
M 1959 3584 
Q 2709 3584 3137 3096 
Q 3566 2609 3566 1747 
Q 3566 888 3137 398 
Q 2709 -91 1959 -91 
Q 1206 -91 779 398 
Q 353 888 353 1747 
Q 353 2609 779 3096 
Q 1206 3584 1959 3584 
z
" transform="scale(0.015625)"/>
       <path id="DejaVuSans-66" d="M 2375 4863 
L 2375 4384 
L 1825 4384 
Q 1516 4384 1395 4259 
Q 1275 4134 1275 3809 
L 1275 3500 
L 2222 3500 
L 2222 3053 
L 1275 3053 
L 1275 0 
L 697 0 
L 697 3053 
L 147 3053 
L 147 3500 
L 697 3500 
L 697 3744 
Q 697 4328 969 4595 
Q 1241 4863 1831 4863 
L 2375 4863 
z
" transform="scale(0.015625)"/>
       <path id="DejaVuSans-69" d="M 603 3500 
L 1178 3500 
L 1178 0 
L 603 0 
L 603 3500 
z
M 603 4863 
L 1178 4863 
L 1178 4134 
L 603 4134 
L 603 4863 
z
" transform="scale(0.015625)"/>
       <path id="DejaVuSans-6e" d="M 3513 2113 
L 3513 0 
L 2938 0 
L 2938 2094 
Q 2938 2591 2744 2837 
Q 2550 3084 2163 3084 
Q 1697 3084 1428 2787 
Q 1159 2491 1159 1978 
L 1159 0 
L 581 0 
L 581 3500 
L 1159 3500 
L 1159 2956 
Q 1366 3272 1645 3428 
Q 1925 3584 2291 3584 
Q 2894 3584 3203 3211 
Q 3513 2838 3513 2113 
z
" transform="scale(0.015625)"/>
       <path id="DejaVuSans-70" d="M 1159 525 
L 1159 -1331 
L 581 -1331 
L 581 3500 
L 1159 3500 
L 1159 2969 
Q 1341 3281 1617 3432 
Q 1894 3584 2278 3584 
Q 2916 3584 3314 3078 
Q 3713 2572 3713 1747 
Q 3713 922 3314 415 
Q 2916 -91 2278 -91 
Q 1894 -91 1617 61 
Q 1341 213 1159 525 
z
M 3116 1747 
Q 3116 2381 2855 2742 
Q 2594 3103 2138 3103 
Q 1681 3103 1420 2742 
Q 1159 2381 1159 1747 
Q 1159 1113 1420 752 
Q 1681 391 2138 391 
Q 2594 391 2855 752 
Q 3116 1113 3116 1747 
z
" transform="scale(0.015625)"/>
       <path id="DejaVuSans-74" d="M 1172 4494 
L 1172 3500 
L 2356 3500 
L 2356 3053 
L 1172 3053 
L 1172 1153 
Q 1172 725 1289 603 
Q 1406 481 1766 481 
L 2356 481 
L 2356 0 
L 1766 0 
Q 1100 0 847 248 
Q 594 497 594 1153 
L 594 3053 
L 172 3053 
L 172 3500 
L 594 3500 
L 594 4494 
L 1172 4494 
z
" transform="scale(0.015625)"/>
       <path id="DejaVuSans-73" d="M 2834 3397 
L 2834 2853 
Q 2591 2978 2328 3040 
Q 2066 3103 1784 3103 
Q 1356 3103 1142 2972 
Q 928 2841 928 2578 
Q 928 2378 1081 2264 
Q 1234 2150 1697 2047 
L 1894 2003 
Q 2506 1872 2764 1633 
Q 3022 1394 3022 966 
Q 3022 478 2636 193 
Q 2250 -91 1575 -91 
Q 1294 -91 989 -36 
Q 684 19 347 128 
L 347 722 
Q 666 556 975 473 
Q 1284 391 1588 391 
Q 1994 391 2212 530 
Q 2431 669 2431 922 
Q 2431 1156 2273 1281 
Q 2116 1406 1581 1522 
L 1381 1569 
Q 847 1681 609 1914 
Q 372 2147 372 2553 
Q 372 3047 722 3315 
Q 1072 3584 1716 3584 
Q 2034 3584 2315 3537 
Q 2597 3491 2834 3397 
z
" transform="scale(0.015625)"/>
       <path id="DejaVuSans-6c" d="M 603 4863 
L 1178 4863 
L 1178 0 
L 603 0 
L 603 4863 
z
" transform="scale(0.015625)"/>
       <path id="DejaVuSans-64" d="M 2906 2969 
L 2906 4863 
L 3481 4863 
L 3481 0 
L 2906 0 
L 2906 525 
Q 2725 213 2448 61 
Q 2172 -91 1784 -91 
Q 1150 -91 751 415 
Q 353 922 353 1747 
Q 353 2572 751 3078 
Q 1150 3584 1784 3584 
Q 2172 3584 2448 3432 
Q 2725 3281 2906 2969 
z
M 947 1747 
Q 947 1113 1208 752 
Q 1469 391 1925 391 
Q 2381 391 2643 752 
Q 2906 1113 2906 1747 
Q 2906 2381 2643 2742 
Q 2381 3103 1925 3103 
Q 1469 3103 1208 2742 
Q 947 2381 947 1747 
z
" transform="scale(0.015625)"/>
       <path id="DejaVuSans-79" d="M 2059 -325 
Q 1816 -950 1584 -1140 
Q 1353 -1331 966 -1331 
L 506 -1331 
L 506 -850 
L 844 -850 
Q 1081 -850 1212 -737 
Q 1344 -625 1503 -206 
L 1606 56 
L 191 3500 
L 800 3500 
L 1894 763 
L 2988 3500 
L 3597 3500 
L 2059 -325 
z
" transform="scale(0.015625)"/>
       <path id="DejaVuSans-68" d="M 3513 2113 
L 3513 0 
L 2938 0 
L 2938 2094 
Q 2938 2591 2744 2837 
Q 2550 3084 2163 3084 
Q 1697 3084 1428 2787 
Q 1159 2491 1159 1978 
L 1159 0 
L 581 0 
L 581 4863 
L 1159 4863 
L 1159 2956 
Q 1366 3272 1645 3428 
Q 1925 3584 2291 3584 
Q 2894 3584 3203 3211 
Q 3513 2838 3513 2113 
z
" transform="scale(0.015625)"/>
       <path id="DejaVuSans-5b" d="M 550 4863 
L 1875 4863 
L 1875 4416 
L 1125 4416 
L 1125 -397 
L 1875 -397 
L 1875 -844 
L 550 -844 
L 550 4863 
z
" transform="scale(0.015625)"/>
       <path id="DejaVuSans-2a" d="M 3009 3897 
L 1888 3291 
L 3009 2681 
L 2828 2375 
L 1778 3009 
L 1778 1831 
L 1422 1831 
L 1422 3009 
L 372 2375 
L 191 2681 
L 1313 3291 
L 191 3897 
L 372 4206 
L 1422 3572 
L 1422 4750 
L 1778 4750 
L 1778 3572 
L 2828 4206 
L 3009 3897 
z
" transform="scale(0.015625)"/>
       <path id="DejaVuSans-4b" d="M 628 4666 
L 1259 4666 
L 1259 2694 
L 3353 4666 
L 4166 4666 
L 1850 2491 
L 4331 0 
L 3500 0 
L 1259 2247 
L 1259 0 
L 628 0 
L 628 4666 
z
" transform="scale(0.015625)"/>
       <path id="DejaVuSans-5d" d="M 1947 4863 
L 1947 -844 
L 622 -844 
L 622 -397 
L 1369 -397 
L 1369 4416 
L 622 4416 
L 622 4863 
L 1947 4863 
z
" transform="scale(0.015625)"/>
      </defs>
      <use xlink:href="#DejaVuSans-4e"/>
      <use xlink:href="#DejaVuSans-75" x="74.804688"/>
      <use xlink:href="#DejaVuSans-6d" x="138.183594"/>
      <use xlink:href="#DejaVuSans-62" x="235.595703"/>
      <use xlink:href="#DejaVuSans-65" x="299.072266"/>
      <use xlink:href="#DejaVuSans-72" x="360.595703"/>
      <use xlink:href="#DejaVuSans-20" x="401.708984"/>
      <use xlink:href="#DejaVuSans-6f" x="433.496094"/>
      <use xlink:href="#DejaVuSans-66" x="494.677734"/>
      <use xlink:href="#DejaVuSans-20" x="529.882812"/>
      <use xlink:href="#DejaVuSans-69" x="561.669922"/>
      <use xlink:href="#DejaVuSans-6e" x="589.453125"/>
      <use xlink:href="#DejaVuSans-70" x="652.832031"/>
      <use xlink:href="#DejaVuSans-75" x="716.308594"/>
      <use xlink:href="#DejaVuSans-74" x="779.6875"/>
      <use xlink:href="#DejaVuSans-20" x="818.896484"/>
      <use xlink:href="#DejaVuSans-6e" x="850.683594"/>
      <use xlink:href="#DejaVuSans-65" x="914.0625"/>
      <use xlink:href="#DejaVuSans-75" x="975.585938"/>
      <use xlink:href="#DejaVuSans-72" x="1038.964844"/>
      <use xlink:href="#DejaVuSans-6f" x="1077.828125"/>
      <use xlink:href="#DejaVuSans-6e" x="1139.009766"/>
      <use xlink:href="#DejaVuSans-73" x="1202.388672"/>
      <use xlink:href="#DejaVuSans-20" x="1254.488281"/>
      <use xlink:href="#DejaVuSans-6d" x="1286.275391"/>
      <use xlink:href="#DejaVuSans-75" x="1383.6875"/>
      <use xlink:href="#DejaVuSans-6c" x="1447.066406"/>
      <use xlink:href="#DejaVuSans-74" x="1474.849609"/>
      <use xlink:href="#DejaVuSans-69" x="1514.058594"/>
      <use xlink:href="#DejaVuSans-70" x="1541.841797"/>
      <use xlink:href="#DejaVuSans-6c" x="1605.318359"/>
      <use xlink:href="#DejaVuSans-69" x="1633.101562"/>
      <use xlink:href="#DejaVuSans-65" x="1660.884766"/>
      <use xlink:href="#DejaVuSans-64" x="1722.408203"/>
      <use xlink:href="#DejaVuSans-20" x="1785.884766"/>
      <use xlink:href="#DejaVuSans-62" x="1817.671875"/>
      <use xlink:href="#DejaVuSans-79" x="1881.148438"/>
      <use xlink:href="#DejaVuSans-20" x="1940.328125"/>
      <use xlink:href="#DejaVuSans-6e" x="1972.115234"/>
      <use xlink:href="#DejaVuSans-75" x="2035.494141"/>
      <use xlink:href="#DejaVuSans-6d" x="2098.873047"/>
      <use xlink:href="#DejaVuSans-62" x="2196.285156"/>
      <use xlink:href="#DejaVuSans-65" x="2259.761719"/>
      <use xlink:href="#DejaVuSans-72" x="2321.285156"/>
      <use xlink:href="#DejaVuSans-20" x="2362.398438"/>
      <use xlink:href="#DejaVuSans-6f" x="2394.185547"/>
      <use xlink:href="#DejaVuSans-66" x="2455.367188"/>
      <use xlink:href="#DejaVuSans-20" x="2490.572266"/>
      <use xlink:href="#DejaVuSans-68" x="2522.359375"/>
      <use xlink:href="#DejaVuSans-69" x="2585.738281"/>
      <use xlink:href="#DejaVuSans-64" x="2613.521484"/>
      <use xlink:href="#DejaVuSans-64" x="2676.998047"/>
      <use xlink:href="#DejaVuSans-65" x="2740.474609"/>
      <use xlink:href="#DejaVuSans-6e" x="2801.998047"/>
      <use xlink:href="#DejaVuSans-20" x="2865.376953"/>
      <use xlink:href="#DejaVuSans-6e" x="2897.164062"/>
      <use xlink:href="#DejaVuSans-65" x="2960.542969"/>
      <use xlink:href="#DejaVuSans-75" x="3022.066406"/>
      <use xlink:href="#DejaVuSans-72" x="3085.445312"/>
      <use xlink:href="#DejaVuSans-6f" x="3124.308594"/>
      <use xlink:href="#DejaVuSans-6e" x="3185.490234"/>
      <use xlink:href="#DejaVuSans-73" x="3248.869141"/>
      <use xlink:href="#DejaVuSans-20" x="3300.96875"/>
      <use xlink:href="#DejaVuSans-5b" x="3332.755859"/>
      <use xlink:href="#DejaVuSans-4e" x="3371.769531"/>
      <use xlink:href="#DejaVuSans-2a" x="3446.574219"/>
      <use xlink:href="#DejaVuSans-4b" x="3496.574219"/>
      <use xlink:href="#DejaVuSans-5d" x="3562.150391"/>
     </g>
    </g>
   </g>
   <g id="matplotlib.axis_2">
    <g id="ytick_1">
     <g id="line2d_9">
      <defs>
       <path id="mdae0bf9677" d="M 0 0 
L -3.5 0 
" style="stroke: #000000; stroke-width: 0.8"/>
      </defs>
      <g>
       <use xlink:href="#mdae0bf9677" x="57.6" y="289.097292" style="stroke: #000000; stroke-width: 0.8"/>
      </g>
     </g>
     <g id="text_10">
      <!-- 50 -->
      <g transform="translate(37.875 292.89651)scale(0.1 -0.1)">
       <use xlink:href="#DejaVuSans-35"/>
       <use xlink:href="#DejaVuSans-30" x="63.623047"/>
      </g>
     </g>
    </g>
    <g id="ytick_2">
     <g id="line2d_10">
      <g>
       <use xlink:href="#mdae0bf9677" x="57.6" y="255.981557" style="stroke: #000000; stroke-width: 0.8"/>
      </g>
     </g>
     <g id="text_11">
      <!-- 100 -->
      <g transform="translate(31.5125 259.780776)scale(0.1 -0.1)">
       <use xlink:href="#DejaVuSans-31"/>
       <use xlink:href="#DejaVuSans-30" x="63.623047"/>
       <use xlink:href="#DejaVuSans-30" x="127.246094"/>
      </g>
     </g>
    </g>
    <g id="ytick_3">
     <g id="line2d_11">
      <g>
       <use xlink:href="#mdae0bf9677" x="57.6" y="222.865823" style="stroke: #000000; stroke-width: 0.8"/>
      </g>
     </g>
     <g id="text_12">
      <!-- 150 -->
      <g transform="translate(31.5125 226.665042)scale(0.1 -0.1)">
       <use xlink:href="#DejaVuSans-31"/>
       <use xlink:href="#DejaVuSans-35" x="63.623047"/>
       <use xlink:href="#DejaVuSans-30" x="127.246094"/>
      </g>
     </g>
    </g>
    <g id="ytick_4">
     <g id="line2d_12">
      <g>
       <use xlink:href="#mdae0bf9677" x="57.6" y="189.750089" style="stroke: #000000; stroke-width: 0.8"/>
      </g>
     </g>
     <g id="text_13">
      <!-- 200 -->
      <g transform="translate(31.5125 193.549308)scale(0.1 -0.1)">
       <use xlink:href="#DejaVuSans-32"/>
       <use xlink:href="#DejaVuSans-30" x="63.623047"/>
       <use xlink:href="#DejaVuSans-30" x="127.246094"/>
      </g>
     </g>
    </g>
    <g id="ytick_5">
     <g id="line2d_13">
      <g>
       <use xlink:href="#mdae0bf9677" x="57.6" y="156.634355" style="stroke: #000000; stroke-width: 0.8"/>
      </g>
     </g>
     <g id="text_14">
      <!-- 250 -->
      <g transform="translate(31.5125 160.433573)scale(0.1 -0.1)">
       <use xlink:href="#DejaVuSans-32"/>
       <use xlink:href="#DejaVuSans-35" x="63.623047"/>
       <use xlink:href="#DejaVuSans-30" x="127.246094"/>
      </g>
     </g>
    </g>
    <g id="ytick_6">
     <g id="line2d_14">
      <g>
       <use xlink:href="#mdae0bf9677" x="57.6" y="123.51862" style="stroke: #000000; stroke-width: 0.8"/>
      </g>
     </g>
     <g id="text_15">
      <!-- 300 -->
      <g transform="translate(31.5125 127.317839)scale(0.1 -0.1)">
       <defs>
        <path id="DejaVuSans-33" d="M 2597 2516 
Q 3050 2419 3304 2112 
Q 3559 1806 3559 1356 
Q 3559 666 3084 287 
Q 2609 -91 1734 -91 
Q 1441 -91 1130 -33 
Q 819 25 488 141 
L 488 750 
Q 750 597 1062 519 
Q 1375 441 1716 441 
Q 2309 441 2620 675 
Q 2931 909 2931 1356 
Q 2931 1769 2642 2001 
Q 2353 2234 1838 2234 
L 1294 2234 
L 1294 2753 
L 1863 2753 
Q 2328 2753 2575 2939 
Q 2822 3125 2822 3475 
Q 2822 3834 2567 4026 
Q 2313 4219 1838 4219 
Q 1578 4219 1281 4162 
Q 984 4106 628 3988 
L 628 4550 
Q 988 4650 1302 4700 
Q 1616 4750 1894 4750 
Q 2613 4750 3031 4423 
Q 3450 4097 3450 3541 
Q 3450 3153 3228 2886 
Q 3006 2619 2597 2516 
z
" transform="scale(0.015625)"/>
       </defs>
       <use xlink:href="#DejaVuSans-33"/>
       <use xlink:href="#DejaVuSans-30" x="63.623047"/>
       <use xlink:href="#DejaVuSans-30" x="127.246094"/>
      </g>
     </g>
    </g>
    <g id="ytick_7">
     <g id="line2d_15">
      <g>
       <use xlink:href="#mdae0bf9677" x="57.6" y="90.402886" style="stroke: #000000; stroke-width: 0.8"/>
      </g>
     </g>
     <g id="text_16">
      <!-- 350 -->
      <g transform="translate(31.5125 94.202105)scale(0.1 -0.1)">
       <use xlink:href="#DejaVuSans-33"/>
       <use xlink:href="#DejaVuSans-35" x="63.623047"/>
       <use xlink:href="#DejaVuSans-30" x="127.246094"/>
      </g>
     </g>
    </g>
    <g id="ytick_8">
     <g id="line2d_16">
      <g>
       <use xlink:href="#mdae0bf9677" x="57.6" y="57.287152" style="stroke: #000000; stroke-width: 0.8"/>
      </g>
     </g>
     <g id="text_17">
      <!-- 400 -->
      <g transform="translate(31.5125 61.086371)scale(0.1 -0.1)">
       <defs>
        <path id="DejaVuSans-34" d="M 2419 4116 
L 825 1625 
L 2419 1625 
L 2419 4116 
z
M 2253 4666 
L 3047 4666 
L 3047 1625 
L 3713 1625 
L 3713 1100 
L 3047 1100 
L 3047 0 
L 2419 0 
L 2419 1100 
L 313 1100 
L 313 1709 
L 2253 4666 
z
" transform="scale(0.015625)"/>
       </defs>
       <use xlink:href="#DejaVuSans-34"/>
       <use xlink:href="#DejaVuSans-30" x="63.623047"/>
       <use xlink:href="#DejaVuSans-30" x="127.246094"/>
      </g>
     </g>
    </g>
    <g id="text_18">
     <!-- Mean number of required iterations of TPM -->
     <g transform="translate(25.432812 281.894406)rotate(-90)scale(0.1 -0.1)">
      <defs>
       <path id="DejaVuSans-4d" d="M 628 4666 
L 1569 4666 
L 2759 1491 
L 3956 4666 
L 4897 4666 
L 4897 0 
L 4281 0 
L 4281 4097 
L 3078 897 
L 2444 897 
L 1241 4097 
L 1241 0 
L 628 0 
L 628 4666 
z
" transform="scale(0.015625)"/>
       <path id="DejaVuSans-61" d="M 2194 1759 
Q 1497 1759 1228 1600 
Q 959 1441 959 1056 
Q 959 750 1161 570 
Q 1363 391 1709 391 
Q 2188 391 2477 730 
Q 2766 1069 2766 1631 
L 2766 1759 
L 2194 1759 
z
M 3341 1997 
L 3341 0 
L 2766 0 
L 2766 531 
Q 2569 213 2275 61 
Q 1981 -91 1556 -91 
Q 1019 -91 701 211 
Q 384 513 384 1019 
Q 384 1609 779 1909 
Q 1175 2209 1959 2209 
L 2766 2209 
L 2766 2266 
Q 2766 2663 2505 2880 
Q 2244 3097 1772 3097 
Q 1472 3097 1187 3025 
Q 903 2953 641 2809 
L 641 3341 
Q 956 3463 1253 3523 
Q 1550 3584 1831 3584 
Q 2591 3584 2966 3190 
Q 3341 2797 3341 1997 
z
" transform="scale(0.015625)"/>
       <path id="DejaVuSans-71" d="M 947 1747 
Q 947 1113 1208 752 
Q 1469 391 1925 391 
Q 2381 391 2643 752 
Q 2906 1113 2906 1747 
Q 2906 2381 2643 2742 
Q 2381 3103 1925 3103 
Q 1469 3103 1208 2742 
Q 947 2381 947 1747 
z
M 2906 525 
Q 2725 213 2448 61 
Q 2172 -91 1784 -91 
Q 1150 -91 751 415 
Q 353 922 353 1747 
Q 353 2572 751 3078 
Q 1150 3584 1784 3584 
Q 2172 3584 2448 3432 
Q 2725 3281 2906 2969 
L 2906 3500 
L 3481 3500 
L 3481 -1331 
L 2906 -1331 
L 2906 525 
z
" transform="scale(0.015625)"/>
       <path id="DejaVuSans-54" d="M -19 4666 
L 3928 4666 
L 3928 4134 
L 2272 4134 
L 2272 0 
L 1638 0 
L 1638 4134 
L -19 4134 
L -19 4666 
z
" transform="scale(0.015625)"/>
       <path id="DejaVuSans-50" d="M 1259 4147 
L 1259 2394 
L 2053 2394 
Q 2494 2394 2734 2622 
Q 2975 2850 2975 3272 
Q 2975 3691 2734 3919 
Q 2494 4147 2053 4147 
L 1259 4147 
z
M 628 4666 
L 2053 4666 
Q 2838 4666 3239 4311 
Q 3641 3956 3641 3272 
Q 3641 2581 3239 2228 
Q 2838 1875 2053 1875 
L 1259 1875 
L 1259 0 
L 628 0 
L 628 4666 
z
" transform="scale(0.015625)"/>
      </defs>
      <use xlink:href="#DejaVuSans-4d"/>
      <use xlink:href="#DejaVuSans-65" x="86.279297"/>
      <use xlink:href="#DejaVuSans-61" x="147.802734"/>
      <use xlink:href="#DejaVuSans-6e" x="209.082031"/>
      <use xlink:href="#DejaVuSans-20" x="272.460938"/>
      <use xlink:href="#DejaVuSans-6e" x="304.248047"/>
      <use xlink:href="#DejaVuSans-75" x="367.626953"/>
      <use xlink:href="#DejaVuSans-6d" x="431.005859"/>
      <use xlink:href="#DejaVuSans-62" x="528.417969"/>
      <use xlink:href="#DejaVuSans-65" x="591.894531"/>
      <use xlink:href="#DejaVuSans-72" x="653.417969"/>
      <use xlink:href="#DejaVuSans-20" x="694.53125"/>
      <use xlink:href="#DejaVuSans-6f" x="726.318359"/>
      <use xlink:href="#DejaVuSans-66" x="787.5"/>
      <use xlink:href="#DejaVuSans-20" x="822.705078"/>
      <use xlink:href="#DejaVuSans-72" x="854.492188"/>
      <use xlink:href="#DejaVuSans-65" x="893.355469"/>
      <use xlink:href="#DejaVuSans-71" x="954.878906"/>
      <use xlink:href="#DejaVuSans-75" x="1018.355469"/>
      <use xlink:href="#DejaVuSans-69" x="1081.734375"/>
      <use xlink:href="#DejaVuSans-72" x="1109.517578"/>
      <use xlink:href="#DejaVuSans-65" x="1148.380859"/>
      <use xlink:href="#DejaVuSans-64" x="1209.904297"/>
      <use xlink:href="#DejaVuSans-20" x="1273.380859"/>
      <use xlink:href="#DejaVuSans-69" x="1305.167969"/>
      <use xlink:href="#DejaVuSans-74" x="1332.951172"/>
      <use xlink:href="#DejaVuSans-65" x="1372.160156"/>
      <use xlink:href="#DejaVuSans-72" x="1433.683594"/>
      <use xlink:href="#DejaVuSans-61" x="1474.796875"/>
      <use xlink:href="#DejaVuSans-74" x="1536.076172"/>
      <use xlink:href="#DejaVuSans-69" x="1575.285156"/>
      <use xlink:href="#DejaVuSans-6f" x="1603.068359"/>
      <use xlink:href="#DejaVuSans-6e" x="1664.25"/>
      <use xlink:href="#DejaVuSans-73" x="1727.628906"/>
      <use xlink:href="#DejaVuSans-20" x="1779.728516"/>
      <use xlink:href="#DejaVuSans-6f" x="1811.515625"/>
      <use xlink:href="#DejaVuSans-66" x="1872.697266"/>
      <use xlink:href="#DejaVuSans-20" x="1907.902344"/>
      <use xlink:href="#DejaVuSans-54" x="1939.689453"/>
      <use xlink:href="#DejaVuSans-50" x="2000.773438"/>
      <use xlink:href="#DejaVuSans-4d" x="2061.076172"/>
     </g>
    </g>
   </g>
   <g id="line2d_17">
    <path d="M 73.832727 295.488 
L 75.756606 282.599117 
L 75.756606 282.599117 
L 77.680485 271.291147 
L 77.680485 271.291147 
L 79.604364 261.386523 
L 79.604364 261.386523 
L 81.528242 252.723628 
L 81.528242 252.723628 
L 83.452121 245.155693 
L 83.452121 245.155693 
L 85.376 238.549752 
L 85.376 238.549752 
L 86.818909 234.15387 
L 86.818909 234.15387 
L 89.223758 227.755111 
L 89.223758 227.755111 
L 90.666667 224.404687 
L 90.666667 224.404687 
L 92.590545 220.429897 
L 92.590545 220.429897 
L 94.995394 216.141851 
L 94.995394 216.141851 
L 97.881212 211.815678 
L 97.881212 211.815678 
L 100.286061 208.757128 
L 100.286061 208.757128 
L 102.209939 206.59676 
L 102.209939 206.59676 
L 104.614788 204.184055 
L 104.614788 204.184055 
L 107.981576 201.218704 
L 107.981576 201.218704 
L 111.829333 198.241073 
L 111.829333 198.241073 
L 115.677091 195.538466 
L 115.677091 195.538466 
L 121.448727 191.751188 
L 134.915879 183.263246 
L 134.915879 183.263246 
L 144.054303 177.662155 
L 144.054303 177.662155 
L 150.787879 173.757547 
L 150.787879 173.757547 
L 157.521455 170.159311 
L 157.521455 170.159311 
L 159.926303 168.964353 
L 159.926303 168.964353 
L 165.697939 166.310056 
L 165.697939 166.310056 
L 169.545697 164.713404 
L 169.545697 164.713404 
L 173.874424 163.081405 
L 173.874424 163.081405 
L 181.08897 160.723716 
L 181.08897 160.723716 
L 184.455758 159.761955 
L 184.455758 159.761955 
L 192.151273 157.829708 
L 192.151273 157.829708 
L 200.327758 156.062238 
L 200.327758 156.062238 
L 229.666909 150.065654 
L 229.666909 150.065654 
L 248.424727 145.709089 
L 248.424727 145.709089 
L 261.410909 142.825614 
L 261.410909 142.825614 
L 265.739636 141.969847 
L 273.435152 140.634521 
L 273.435152 140.634521 
L 281.130667 139.561579 
L 281.130667 139.561579 
L 285.459394 139.069402 
L 306.141091 137.282107 
L 323.456 134.731687 
L 323.456 134.731687 
L 327.784727 133.629717 
L 348.466424 124.638728 
L 348.466424 124.638728 
L 373.476848 109.972831 
L 373.476848 109.972831 
L 373.957818 109.790193 
L 398.487273 123.395681 
L 398.487273 123.395681 
" clip-path="url(#pc80c14798e)" style="fill: none; stroke: #1f77b4; stroke-width: 1.5; stroke-linecap: square"/>
   </g>
   <g id="line2d_18">
    <path d="M 73.832727 278.626701 
L 75.756606 266.066907 
L 75.756606 266.066907 
L 77.680485 255.061994 
L 77.680485 255.061994 
L 79.604364 245.428274 
L 79.604364 245.428274 
L 81.528242 236.999896 
L 81.528242 236.999896 
L 83.452121 229.627492 
L 83.452121 229.627492 
L 85.376 223.1769 
L 85.376 223.1769 
L 86.818909 218.871118 
L 86.818909 218.871118 
L 89.223758 212.57339 
L 89.223758 212.57339 
L 90.666667 209.255289 
L 90.666667 209.255289 
L 92.590545 205.292656 
L 92.590545 205.292656 
L 94.995394 200.974213 
L 94.995394 200.974213 
L 97.881212 196.553398 
L 97.881212 196.553398 
L 100.286061 193.375988 
L 100.286061 193.375988 
L 102.209939 191.099797 
L 102.209939 191.099797 
L 104.614788 188.522811 
L 104.614788 188.522811 
L 107.981576 185.304434 
L 107.981576 185.304434 
L 111.829333 182.027216 
L 111.829333 182.027216 
L 115.677091 179.038553 
L 115.677091 179.038553 
L 121.448727 174.893116 
L 128.663273 170.059945 
L 128.663273 170.059945 
L 134.915879 166.108625 
L 134.915879 166.108625 
L 142.130424 161.841027 
L 142.130424 161.841027 
L 146.940121 159.198182 
L 146.940121 159.198182 
L 152.711758 156.265863 
L 152.711758 156.265863 
L 158.002424 153.816199 
L 158.002424 153.816199 
L 164.25503 151.206234 
L 164.25503 151.206234 
L 169.545697 149.214436 
L 169.545697 149.214436 
L 177.241212 146.597417 
L 177.241212 146.597417 
L 184.455758 144.340578 
L 184.455758 144.340578 
L 204.656485 138.113854 
L 204.656485 138.113854 
L 212.352 135.538581 
L 224.857212 131.07898 
L 224.857212 131.07898 
L 239.286303 125.902913 
L 239.286303 125.902913 
L 246.981818 123.392698 
L 253.715394 121.472347 
L 253.715394 121.472347 
L 261.410909 119.686288 
L 261.410909 119.686288 
L 265.739636 118.896891 
L 273.435152 117.888215 
L 273.435152 117.888215 
L 281.130667 117.351896 
L 281.130667 117.351896 
L 285.459394 117.224687 
L 306.141091 117.393378 
L 323.456 116.697463 
L 323.456 116.697463 
L 327.784727 116.212244 
L 350.390303 112.123298 
L 373.957818 109.203655 
L 398.487273 96.545801 
L 398.487273 96.545801 
" clip-path="url(#pc80c14798e)" style="fill: none; stroke: #ff7f0e; stroke-width: 1.5; stroke-linecap: square"/>
   </g>
   <g id="line2d_19">
    <path d="M 73.832727 274.140719 
L 75.756606 259.248845 
L 75.756606 259.248845 
L 77.680485 246.428171 
L 77.680485 246.428171 
L 79.604364 235.417375 
L 79.604364 235.417375 
L 81.528242 225.981344 
L 81.528242 225.981344 
L 83.452121 217.909168 
L 83.452121 217.909168 
L 85.376 211.012235 
L 85.376 211.012235 
L 86.818909 206.508943 
L 86.818909 206.508943 
L 89.223758 200.090526 
L 89.223758 200.090526 
L 90.666667 196.799538 
L 90.666667 196.799538 
L 92.590545 192.960741 
L 92.590545 192.960741 
L 94.995394 188.899153 
L 94.995394 188.899153 
L 96.919273 186.129196 
L 98.362182 184.279874 
L 98.362182 184.279874 
L 100.76703 181.548598 
L 100.76703 181.548598 
L 104.133818 178.279416 
L 104.133818 178.279416 
L 106.538667 176.220673 
L 106.538667 176.220673 
L 110.386424 173.222127 
L 110.386424 173.222127 
L 117.12 168.376131 
L 117.12 168.376131 
L 140.687515 151.897002 
L 140.687515 151.897002 
L 144.054303 149.72474 
L 144.054303 149.72474 
L 150.306909 145.993164 
L 150.306909 145.993164 
L 154.635636 143.679814 
L 158.002424 142.045643 
L 158.002424 142.045643 
L 163.293091 139.770885 
L 163.293091 139.770885 
L 167.621818 138.162984 
L 173.393455 136.329309 
L 173.393455 136.329309 
L 179.165091 134.775358 
L 179.165091 134.775358 
L 184.455758 133.514206 
L 184.455758 133.514206 
L 200.327758 129.89331 
L 200.327758 129.89331 
L 208.023273 127.860653 
L 208.023273 127.860653 
L 212.352 126.576434 
L 221.490424 123.52208 
L 221.490424 123.52208 
L 229.666909 120.475012 
L 229.666909 120.475012 
L 245.057939 114.59239 
L 245.057939 114.59239 
L 248.424727 113.401454 
L 248.424727 113.401454 
L 253.715394 111.678689 
L 253.715394 111.678689 
L 258.044121 110.43731 
L 258.044121 110.43731 
L 263.815758 109.059986 
L 263.815758 109.059986 
L 265.739636 108.677066 
L 273.435152 107.538172 
L 273.435152 107.538172 
L 277.763879 107.164404 
L 277.763879 107.164404 
L 284.978424 106.906677 
L 284.978424 106.906677 
L 285.459394 106.902974 
L 306.141091 107.191426 
L 323.456 105.403453 
L 323.456 105.403453 
L 327.784727 104.332108 
L 350.390303 95.356407 
L 373.476848 89.793692 
L 373.476848 89.793692 
L 373.957818 89.832183 
L 398.487273 95.142374 
L 398.487273 95.142374 
" clip-path="url(#pc80c14798e)" style="fill: none; stroke: #2ca02c; stroke-width: 1.5; stroke-linecap: square"/>
   </g>
   <g id="line2d_20">
    <path d="M 73.832727 269.942536 
L 75.756606 255.693738 
L 75.756606 255.693738 
L 77.680485 243.340856 
L 77.680485 243.340856 
L 79.604364 232.655501 
L 79.604364 232.655501 
L 81.528242 223.430814 
L 81.528242 223.430814 
L 83.452121 215.479934 
L 83.452121 215.479934 
L 85.376 208.634545 
L 85.376 208.634545 
L 86.818909 204.134449 
L 86.818909 204.134449 
L 89.223758 197.671516 
L 89.223758 197.671516 
L 90.666667 194.331945 
L 90.666667 194.331945 
L 92.590545 190.411166 
L 92.590545 190.411166 
L 94.995394 186.229767 
L 94.995394 186.229767 
L 97.881212 182.052162 
L 97.881212 182.052162 
L 100.286061 179.108849 
L 100.286061 179.108849 
L 102.209939 177.023038 
L 102.209939 177.023038 
L 104.614788 174.671281 
L 104.614788 174.671281 
L 107.981576 171.716559 
L 107.981576 171.716559 
L 112.310303 168.258048 
L 146.940121 141.742444 
L 146.940121 141.742444 
L 150.787879 139.082377 
L 150.787879 139.082377 
L 155.597576 136.015351 
L 155.597576 136.015351 
L 159.926303 133.534756 
L 159.926303 133.534756 
L 165.697939 130.671993 
L 165.697939 130.671993 
L 169.545697 129.049483 
L 169.545697 129.049483 
L 173.874424 127.487434 
L 173.874424 127.487434 
L 179.646061 125.800259 
L 179.646061 125.800259 
L 184.455758 124.688943 
L 184.455758 124.688943 
L 192.151273 123.3213 
L 192.151273 123.3213 
L 200.327758 122.173565 
L 200.327758 122.173565 
L 212.352 120.457576 
L 217.161697 119.615584 
L 217.161697 119.615584 
L 224.857212 117.974009 
L 224.857212 117.974009 
L 229.666909 116.74438 
L 229.666909 116.74438 
L 234.957576 115.213563 
L 234.957576 115.213563 
L 242.653091 112.698967 
L 242.653091 112.698967 
L 253.715394 108.715613 
L 253.715394 108.715613 
L 265.739636 104.412823 
L 273.435152 101.965193 
L 273.435152 101.965193 
L 281.130667 99.913121 
L 281.130667 99.913121 
L 285.459394 98.959094 
L 298.445576 96.93111 
L 298.445576 96.93111 
L 325.860848 93.946594 
L 325.860848 93.946594 
L 327.784727 93.590728 
L 348.466424 86.7147 
L 348.466424 86.7147 
L 373.957818 74.531662 
L 398.487273 91.71621 
L 398.487273 91.71621 
" clip-path="url(#pc80c14798e)" style="fill: none; stroke: #d62728; stroke-width: 1.5; stroke-linecap: square"/>
   </g>
   <g id="line2d_21">
    <path d="M 73.832727 262.711066 
L 75.756606 249.32373 
L 75.756606 249.32373 
L 77.680485 237.555602 
L 77.680485 237.555602 
L 79.604364 227.222451 
L 79.604364 227.222451 
L 81.528242 218.157206 
L 81.528242 218.157206 
L 83.452121 210.208707 
L 83.452121 210.208707 
L 85.376 203.240524 
L 85.376 203.240524 
L 86.818909 198.583361 
L 86.818909 198.583361 
L 89.223758 191.766439 
L 89.223758 191.766439 
L 90.666667 188.174511 
L 90.666667 188.174511 
L 92.590545 183.887831 
L 92.590545 183.887831 
L 94.995394 179.22546 
L 94.995394 179.22546 
L 97.881212 174.472529 
L 97.881212 174.472529 
L 100.286061 171.077456 
L 100.286061 171.077456 
L 102.209939 168.660951 
L 102.209939 168.660951 
L 104.614788 165.945341 
L 104.614788 165.945341 
L 107.981576 162.590353 
L 107.981576 162.590353 
L 111.829333 159.220588 
L 111.829333 159.220588 
L 115.677091 156.186883 
L 115.677091 156.186883 
L 120.967758 152.358437 
L 120.967758 152.358437 
L 127.220364 148.135232 
L 127.220364 148.135232 
L 134.915879 143.222413 
L 134.915879 143.222413 
L 142.611394 138.609828 
L 142.611394 138.609828 
L 148.38303 135.391153 
L 148.38303 135.391153 
L 154.635636 132.182 
L 159.926303 129.712361 
L 159.926303 129.712361 
L 167.140848 126.711187 
L 167.140848 126.711187 
L 172.912485 124.593162 
L 172.912485 124.593162 
L 179.165091 122.537746 
L 179.165091 122.537746 
L 184.455758 120.948869 
L 184.455758 120.948869 
L 198.403879 117.105123 
L 198.403879 117.105123 
L 212.352 113.254434 
L 224.857212 109.536754 
L 224.857212 109.536754 
L 246.500848 102.985603 
L 246.500848 102.985603 
L 253.715394 101.060976 
L 253.715394 101.060976 
L 261.410909 99.303301 
L 261.410909 99.303301 
L 265.739636 98.473551 
L 273.435152 97.299345 
L 273.435152 97.299345 
L 281.130667 96.489473 
L 281.130667 96.489473 
L 285.459394 96.166149 
L 306.141091 94.99145 
L 323.456 92.373167 
L 323.456 92.373167 
L 327.784727 91.209429 
L 349.909333 82.010956 
L 349.909333 82.010956 
L 350.390303 81.77503 
L 373.476848 73.822292 
L 373.476848 73.822292 
L 373.957818 73.812534 
L 398.487273 91.399908 
L 398.487273 91.399908 
" clip-path="url(#pc80c14798e)" style="fill: none; stroke: #9467bd; stroke-width: 1.5; stroke-linecap: square"/>
   </g>
   <g id="line2d_22">
    <path d="M 73.832727 260.833555 
L 75.756606 246.985147 
L 75.756606 246.985147 
L 77.680485 234.97669 
L 77.680485 234.97669 
L 79.604364 224.572414 
L 79.604364 224.572414 
L 81.528242 215.561197 
L 81.528242 215.561197 
L 83.452121 207.754566 
L 83.452121 207.754566 
L 85.376 200.984824 
L 85.376 200.984824 
L 86.818909 196.497869 
L 86.818909 196.497869 
L 89.223758 189.978654 
L 89.223758 189.978654 
L 90.666667 186.561857 
L 90.666667 186.561857 
L 92.590545 182.492578 
L 92.590545 182.492578 
L 94.995394 178.061707 
L 94.995394 178.061707 
L 97.881212 173.509441 
L 97.881212 173.509441 
L 100.286061 170.208051 
L 100.286061 170.208051 
L 102.209939 167.816129 
L 102.209939 167.816129 
L 104.614788 165.068911 
L 104.614788 165.068911 
L 107.981576 161.560147 
L 107.981576 161.560147 
L 112.310303 157.435982 
L 117.12 153.162633 
L 117.12 153.162633 
L 123.853576 147.503536 
L 123.853576 147.503536 
L 130.587152 142.150008 
L 130.587152 142.150008 
L 134.915879 138.895603 
L 134.915879 138.895603 
L 140.687515 134.841016 
L 140.687515 134.841016 
L 144.054303 132.648789 
L 144.054303 132.648789 
L 148.38303 130.035102 
L 148.38303 130.035102 
L 152.711758 127.65988 
L 152.711758 127.65988 
L 157.521455 125.297561 
L 157.521455 125.297561 
L 159.926303 124.220569 
L 159.926303 124.220569 
L 165.697939 121.891362 
L 165.697939 121.891362 
L 169.545697 120.512007 
L 169.545697 120.512007 
L 177.241212 118.05846 
L 177.241212 118.05846 
L 188.784485 114.748905 
L 188.784485 114.748905 
L 200.327758 111.359622 
L 200.327758 111.359622 
L 210.428121 108.089476 
L 210.428121 108.089476 
L 224.857212 103.069128 
L 224.857212 103.069128 
L 229.666909 101.421926 
L 229.666909 101.421926 
L 239.286303 98.400625 
L 239.286303 98.400625 
L 246.500848 96.517823 
L 246.500848 96.517823 
L 248.424727 96.085301 
L 248.424727 96.085301 
L 253.715394 95.059783 
L 253.715394 95.059783 
L 261.410909 93.997516 
L 261.410909 93.997516 
L 265.739636 93.603262 
L 277.763879 93.000919 
L 277.763879 93.000919 
L 285.459394 92.658829 
L 298.445576 91.142289 
L 298.445576 91.142289 
L 304.217212 89.763608 
L 304.217212 89.763608 
L 306.141091 89.180258 
L 323.456 80.990134 
L 323.456 80.990134 
L 327.784727 78.250075 
L 348.466424 65.657852 
L 348.466424 65.657852 
L 350.390303 64.891637 
L 373.476848 67.568107 
L 373.476848 67.568107 
L 373.957818 67.828295 
L 398.487273 53.568 
L 398.487273 53.568 
" clip-path="url(#pc80c14798e)" style="fill: none; stroke: #8c564b; stroke-width: 1.5; stroke-linecap: square"/>
   </g>
   <g id="line2d_23">
    <path d="M 73.832727 261.620533 
L 75.756606 247.032658 
L 75.756606 247.032658 
L 77.680485 234.306428 
L 77.680485 234.306428 
L 79.604364 223.216076 
L 79.604364 223.216076 
L 81.528242 213.558369 
L 81.528242 213.558369 
L 83.452121 205.150856 
L 83.452121 205.150856 
L 85.376 197.830202 
L 85.376 197.830202 
L 86.818909 192.964652 
L 86.818909 192.964652 
L 89.223758 185.882473 
L 89.223758 185.882473 
L 90.666667 182.169169 
L 90.666667 182.169169 
L 92.590545 177.752489 
L 92.590545 177.752489 
L 94.995394 172.962856 
L 94.995394 172.962856 
L 97.881212 168.085996 
L 97.881212 168.085996 
L 100.286061 164.596599 
L 100.286061 164.596599 
L 102.209939 162.104006 
L 102.209939 162.104006 
L 104.614788 159.287566 
L 104.614788 159.287566 
L 107.981576 155.774914 
L 107.981576 155.774914 
L 111.829333 152.198323 
L 111.829333 152.198323 
L 115.677091 148.933075 
L 115.677091 148.933075 
L 121.448727 144.39766 
L 128.663273 139.113287 
L 128.663273 139.113287 
L 134.915879 134.815274 
L 134.915879 134.815274 
L 140.687515 131.103445 
L 140.687515 131.103445 
L 144.054303 129.067814 
L 144.054303 129.067814 
L 150.787879 125.314483 
L 150.787879 125.314483 
L 155.597576 122.904621 
L 155.597576 122.904621 
L 159.926303 120.926454 
L 159.926303 120.926454 
L 167.140848 117.996699 
L 167.140848 117.996699 
L 173.393455 115.765456 
L 173.393455 115.765456 
L 181.08897 113.288002 
L 181.08897 113.288002 
L 212.352 103.532003 
L 234.957576 95.91648 
L 234.957576 95.91648 
L 242.653091 93.644043 
L 242.653091 93.644043 
L 248.424727 92.174872 
L 248.424727 92.174872 
L 253.715394 91.040584 
L 253.715394 91.040584 
L 261.410909 89.779164 
L 261.410909 89.779164 
L 265.739636 89.266409 
L 273.435152 88.650951 
L 273.435152 88.650951 
L 298.445576 87.293974 
L 298.445576 87.293974 
L 304.217212 86.560163 
L 304.217212 86.560163 
L 306.141091 86.244207 
L 323.456 81.629324 
L 323.456 81.629324 
L 327.784727 80.060702 
L 348.466424 73.335566 
L 348.466424 73.335566 
L 350.390303 73.039844 
L 373.476848 78.715492 
L 373.476848 78.715492 
L 373.957818 78.99429 
L 398.487273 72.870108 
L 398.487273 72.870108 
" clip-path="url(#pc80c14798e)" style="fill: none; stroke: #e377c2; stroke-width: 1.5; stroke-linecap: square"/>
   </g>
   <g id="line2d_24">
    <path d="M 73.832727 257.94089 
L 75.756606 243.428357 
L 75.756606 243.428357 
L 77.680485 230.71698 
L 77.680485 230.71698 
L 79.604364 219.599041 
L 79.604364 219.599041 
L 81.528242 209.886278 
L 81.528242 209.886278 
L 83.452121 201.408475 
L 83.452121 201.408475 
L 85.376 194.012112 
L 85.376 194.012112 
L 86.818909 189.09092 
L 86.818909 189.09092 
L 89.223758 181.925596 
L 89.223758 181.925596 
L 90.666667 178.171189 
L 90.666667 178.171189 
L 92.590545 173.71264 
L 92.590545 173.71264 
L 94.995394 168.893982 
L 94.995394 168.893982 
L 97.881212 164.018226 
L 97.881212 164.018226 
L 100.286061 160.558955 
L 100.286061 160.558955 
L 102.209939 158.108043 
L 102.209939 158.108043 
L 104.614788 155.362953 
L 104.614788 155.362953 
L 107.981576 151.978929 
L 107.981576 151.978929 
L 111.829333 148.575999 
L 111.829333 148.575999 
L 115.677091 145.49462 
L 115.677091 145.49462 
L 121.448727 141.215373 
L 129.625212 135.492965 
L 129.625212 135.492965 
L 138.282667 129.700587 
L 138.282667 129.700587 
L 144.054303 126.033183 
L 144.054303 126.033183 
L 150.787879 122.035839 
L 150.787879 122.035839 
L 155.597576 119.40764 
L 155.597576 119.40764 
L 159.926303 117.221974 
L 159.926303 117.221974 
L 165.697939 114.580965 
L 165.697939 114.580965 
L 169.545697 112.989992 
L 169.545697 112.989992 
L 173.874424 111.351334 
L 173.874424 111.351334 
L 181.569939 108.779083 
L 181.569939 108.779083 
L 188.784485 106.666089 
L 188.784485 106.666089 
L 200.327758 103.588776 
L 200.327758 103.588776 
L 212.352 100.387393 
L 224.857212 96.781777 
L 224.857212 96.781777 
L 242.653091 91.276582 
L 242.653091 91.276582 
L 253.715394 88.003126 
L 253.715394 88.003126 
L 261.410909 85.979644 
L 261.410909 85.979644 
L 265.739636 84.967749 
L 273.435152 83.423284 
L 273.435152 83.423284 
L 281.130667 82.207759 
L 281.130667 82.207759 
L 285.459394 81.655222 
L 306.141091 79.730043 
L 325.860848 77.303111 
L 325.860848 77.303111 
L 327.784727 76.966411 
L 350.390303 71.902904 
L 373.957818 67.712896 
L 398.487273 58.549782 
L 398.487273 58.549782 
" clip-path="url(#pc80c14798e)" style="fill: none; stroke: #7f7f7f; stroke-width: 1.5; stroke-linecap: square"/>
   </g>
   <g id="line2d_25">
    <path d="M 73.832727 249.318009 
L 75.756606 237.61734 
L 75.756606 237.61734 
L 77.680485 227.130245 
L 77.680485 227.130245 
L 79.604364 217.734405 
L 79.604364 217.734405 
L 81.528242 209.317814 
L 81.528242 209.317814 
L 83.452121 201.778088 
L 83.452121 201.778088 
L 85.376 195.021806 
L 85.376 195.021806 
L 86.818909 190.417253 
L 86.818909 190.417253 
L 89.223758 183.527015 
L 89.223758 183.527015 
L 90.666667 179.814472 
L 90.666667 179.814472 
L 92.590545 175.299693 
L 92.590545 175.299693 
L 94.995394 170.274152 
L 94.995394 170.274152 
L 97.881212 165.016692 
L 97.881212 165.016692 
L 100.286061 161.176355 
L 100.286061 161.176355 
L 102.209939 158.402899 
L 102.209939 158.402899 
L 104.614788 155.253833 
L 104.614788 155.253833 
L 107.981576 151.33654 
L 107.981576 151.33654 
L 111.829333 147.410748 
L 111.829333 147.410748 
L 114.234182 145.189064 
L 114.234182 145.189064 
L 117.12 142.707356 
L 117.12 142.707356 
L 121.448727 139.276769 
L 127.220364 135.091674 
L 127.220364 135.091674 
L 133.47297 130.897002 
L 133.47297 130.897002 
L 140.687515 126.366484 
L 140.687515 126.366484 
L 148.38303 121.839333 
L 148.38303 121.839333 
L 155.597576 117.87829 
L 155.597576 117.87829 
L 159.926303 115.639521 
L 159.926303 115.639521 
L 167.621818 111.924839 
L 173.874424 109.157648 
L 173.874424 109.157648 
L 181.569939 106.046942 
L 181.569939 106.046942 
L 188.784485 103.397847 
L 188.784485 103.397847 
L 198.403879 100.200112 
L 198.403879 100.200112 
L 208.023273 97.294241 
L 208.023273 97.294241 
L 217.161697 94.726297 
L 217.161697 94.726297 
L 229.666909 91.434758 
L 229.666909 91.434758 
L 242.653091 88.273249 
L 242.653091 88.273249 
L 253.715394 85.840869 
L 253.715394 85.840869 
L 263.815758 83.8917 
L 263.815758 83.8917 
L 265.739636 83.553632 
L 277.763879 81.690355 
L 277.763879 81.690355 
L 285.459394 80.709315 
L 323.456 76.522333 
L 323.456 76.522333 
L 327.784727 75.878422 
L 350.390303 71.249706 
L 373.957818 64.764472 
L 398.487273 55.733762 
L 398.487273 55.733762 
" clip-path="url(#pc80c14798e)" style="fill: none; stroke: #bcbd22; stroke-width: 1.5; stroke-linecap: square"/>
   </g>
   <g id="line2d_26">
    <path d="M 73.832727 255.958436 
L 75.756606 240.297329 
L 75.756606 240.297329 
L 77.680485 226.765493 
L 77.680485 226.765493 
L 79.604364 215.102163 
L 79.604364 215.102163 
L 81.528242 205.071638 
L 81.528242 205.071638 
L 83.452121 196.461457 
L 83.452121 196.461457 
L 85.376 189.080671 
L 85.376 189.080671 
L 86.818909 184.248261 
L 86.818909 184.248261 
L 89.223758 177.341352 
L 89.223758 177.341352 
L 90.666667 173.790687 
L 90.666667 173.790687 
L 92.590545 169.641115 
L 92.590545 169.641115 
L 94.995394 165.242121 
L 94.995394 165.242121 
L 96.919273 162.23787 
L 96.919273 162.23787 
L 98.362182 160.230801 
L 98.362182 160.230801 
L 100.76703 157.265594 
L 100.76703 157.265594 
L 103.652848 154.18943 
L 103.652848 154.18943 
L 106.538667 151.481791 
L 106.538667 151.481791 
L 110.386424 148.224686 
L 110.386424 148.224686 
L 117.12 142.933885 
L 117.12 142.933885 
L 127.220364 134.995665 
L 127.220364 134.995665 
L 142.611394 122.725866 
L 142.611394 122.725866 
L 148.38303 118.463373 
L 148.38303 118.463373 
L 152.711758 115.513121 
L 152.711758 115.513121 
L 157.521455 112.532691 
L 157.521455 112.532691 
L 159.926303 111.169082 
L 159.926303 111.169082 
L 165.697939 108.249324 
L 165.697939 108.249324 
L 169.545697 106.572671 
L 169.545697 106.572671 
L 173.874424 104.924049 
L 173.874424 104.924049 
L 179.646061 103.062504 
L 179.646061 103.062504 
L 184.455758 101.740249 
L 184.455758 101.740249 
L 195.037091 99.225056 
L 195.037091 99.225056 
L 204.656485 96.934523 
L 204.656485 96.934523 
L 210.428121 95.370659 
L 210.428121 95.370659 
L 212.352 94.803214 
L 212.352 94.803214 
L 217.161697 93.270736 
L 217.161697 93.270736 
L 224.857212 90.470983 
L 224.857212 90.470983 
L 229.666909 88.521657 
L 229.666909 88.521657 
L 239.286303 84.311282 
L 239.286303 84.311282 
L 248.424727 80.239834 
L 248.424727 80.239834 
L 253.715394 78.024854 
L 253.715394 78.024854 
L 258.044121 76.3691 
L 258.044121 76.3691 
L 263.815758 74.466679 
L 263.815758 74.466679 
L 265.739636 73.925471 
L 265.739636 73.925471 
L 273.435152 72.304692 
L 273.435152 72.304692 
L 277.763879 71.809993 
L 277.763879 71.809993 
L 281.130667 71.642368 
L 281.130667 71.642368 
L 285.459394 71.703606 
L 285.459394 71.703606 
L 298.445576 73.531842 
L 298.445576 73.531842 
L 306.141091 75.39686 
L 306.141091 75.39686 
L 323.456 79.155409 
L 323.456 79.155409 
L 327.784727 79.478835 
L 327.784727 79.478835 
L 348.466424 74.155506 
L 348.466424 74.155506 
L 350.390303 73.013096 
L 350.390303 73.013096 
L 373.957818 55.048083 
L 373.957818 55.048083 
L 398.487273 69.46879 
L 398.487273 69.46879 
" clip-path="url(#pc80c14798e)" style="fill: none; stroke: #17becf; stroke-width: 1.5; stroke-linecap: square"/>
   </g>
   <g id="line2d_27">
    <path d="M 73.832727 251.697439 
L 75.756606 236.895279 
L 75.756606 236.895279 
L 77.680485 224.005431 
L 77.680485 224.005431 
L 79.604364 212.79499 
L 79.604364 212.79499 
L 81.528242 203.054168 
L 81.528242 203.054168 
L 83.452121 194.594504 
L 83.452121 194.594504 
L 85.376 187.247183 
L 85.376 187.247183 
L 86.818909 182.375339 
L 86.818909 182.375339 
L 89.223758 175.3031 
L 89.223758 175.3031 
L 90.666667 171.605185 
L 90.666667 171.605185 
L 92.590545 167.216764 
L 92.590545 167.216764 
L 94.995394 162.470267 
L 94.995394 162.470267 
L 97.881212 157.64923 
L 97.881212 157.64923 
L 100.286061 154.204167 
L 100.286061 154.204167 
L 102.209939 151.742765 
L 102.209939 151.742765 
L 104.614788 148.957262 
L 104.614788 148.957262 
L 107.981576 145.468381 
L 107.981576 145.468381 
L 112.310303 141.459193 
L 112.310303 141.459193 
L 117.12 137.377732 
L 117.12 137.377732 
L 123.853576 132.000867 
L 123.853576 132.000867 
L 131.549091 126.128818 
L 131.549091 126.128818 
L 138.282667 121.237709 
L 138.282667 121.237709 
L 144.054303 117.300318 
L 144.054303 117.300318 
L 150.787879 113.09047 
L 150.787879 113.09047 
L 155.597576 110.372571 
L 155.597576 110.372571 
L 159.926303 108.142652 
L 159.926303 108.142652 
L 165.697939 105.482407 
L 165.697939 105.482407 
L 169.545697 103.895067 
L 169.545697 103.895067 
L 173.874424 102.26829 
L 173.874424 102.26829 
L 181.569939 99.71851 
L 181.569939 99.71851 
L 188.784485 97.611834 
L 188.784485 97.611834 
L 200.327758 94.515829 
L 200.327758 94.515829 
L 239.286303 84.313227 
L 239.286303 84.313227 
L 248.424727 82.31436 
L 248.424727 82.31436 
L 258.044121 80.609641 
L 258.044121 80.609641 
L 265.739636 79.541452 
L 265.739636 79.541452 
L 285.459394 77.379887 
L 285.459394 77.379887 
L 298.445576 75.428192 
L 298.445576 75.428192 
L 304.217212 74.176236 
L 304.217212 74.176236 
L 306.141091 73.694638 
L 306.141091 73.694638 
L 323.456 68.036237 
L 323.456 68.036237 
L 327.784727 66.406711 
L 327.784727 66.406711 
L 348.466424 60.994259 
L 348.466424 60.994259 
L 350.390303 60.956561 
L 350.390303 60.956561 
L 373.476848 70.251175 
L 373.476848 70.251175 
L 373.957818 70.582021 
L 373.957818 70.582021 
L 398.487273 58.985937 
L 398.487273 58.985937 
" clip-path="url(#pc80c14798e)" style="fill: none; stroke: #1f77b4; stroke-width: 1.5; stroke-linecap: square"/>
   </g>
   <g id="patch_3">
    <path d="M 57.6 307.584 
L 57.6 41.472 
" style="fill: none; stroke: #000000; stroke-width: 0.8; stroke-linejoin: miter; stroke-linecap: square"/>
   </g>
   <g id="patch_4">
    <path d="M 414.72 307.584 
L 414.72 41.472 
" style="fill: none; stroke: #000000; stroke-width: 0.8; stroke-linejoin: miter; stroke-linecap: square"/>
   </g>
   <g id="patch_5">
    <path d="M 57.6 307.584 
L 414.72 307.584 
" style="fill: none; stroke: #000000; stroke-width: 0.8; stroke-linejoin: miter; stroke-linecap: square"/>
   </g>
   <g id="patch_6">
    <path d="M 57.6 41.472 
L 414.72 41.472 
" style="fill: none; stroke: #000000; stroke-width: 0.8; stroke-linejoin: miter; stroke-linecap: square"/>
   </g>
   <g id="legend_1">
    <g id="patch_7">
     <path d="M 328.760625 302.584 
L 407.72 302.584 
Q 409.72 302.584 409.72 300.584 
L 409.72 140.124625 
Q 409.72 138.124625 407.72 138.124625 
L 328.760625 138.124625 
Q 326.760625 138.124625 326.760625 140.124625 
L 326.760625 300.584 
Q 326.760625 302.584 328.760625 302.584 
z
" style="fill: #ffffff; opacity: 0.8; stroke: #cccccc; stroke-linejoin: miter"/>
    </g>
    <g id="line2d_28">
     <path d="M 330.760625 146.223062 
L 340.760625 146.223062 
L 350.760625 146.223062 
" style="fill: none; stroke: #1f77b4; stroke-width: 1.5; stroke-linecap: square"/>
    </g>
    <g id="text_19">
     <!-- QBER: 1 -->
     <g transform="translate(358.760625 149.723062)scale(0.1 -0.1)">
      <defs>
       <path id="DejaVuSans-51" d="M 2522 4238 
Q 1834 4238 1429 3725 
Q 1025 3213 1025 2328 
Q 1025 1447 1429 934 
Q 1834 422 2522 422 
Q 3209 422 3611 934 
Q 4013 1447 4013 2328 
Q 4013 3213 3611 3725 
Q 3209 4238 2522 4238 
z
M 3406 84 
L 4238 -825 
L 3475 -825 
L 2784 -78 
Q 2681 -84 2626 -87 
Q 2572 -91 2522 -91 
Q 1538 -91 948 567 
Q 359 1225 359 2328 
Q 359 3434 948 4092 
Q 1538 4750 2522 4750 
Q 3503 4750 4090 4092 
Q 4678 3434 4678 2328 
Q 4678 1516 4351 937 
Q 4025 359 3406 84 
z
" transform="scale(0.015625)"/>
       <path id="DejaVuSans-42" d="M 1259 2228 
L 1259 519 
L 2272 519 
Q 2781 519 3026 730 
Q 3272 941 3272 1375 
Q 3272 1813 3026 2020 
Q 2781 2228 2272 2228 
L 1259 2228 
z
M 1259 4147 
L 1259 2741 
L 2194 2741 
Q 2656 2741 2882 2914 
Q 3109 3088 3109 3444 
Q 3109 3797 2882 3972 
Q 2656 4147 2194 4147 
L 1259 4147 
z
M 628 4666 
L 2241 4666 
Q 2963 4666 3353 4366 
Q 3744 4066 3744 3513 
Q 3744 3084 3544 2831 
Q 3344 2578 2956 2516 
Q 3422 2416 3680 2098 
Q 3938 1781 3938 1306 
Q 3938 681 3513 340 
Q 3088 0 2303 0 
L 628 0 
L 628 4666 
z
" transform="scale(0.015625)"/>
       <path id="DejaVuSans-45" d="M 628 4666 
L 3578 4666 
L 3578 4134 
L 1259 4134 
L 1259 2753 
L 3481 2753 
L 3481 2222 
L 1259 2222 
L 1259 531 
L 3634 531 
L 3634 0 
L 628 0 
L 628 4666 
z
" transform="scale(0.015625)"/>
       <path id="DejaVuSans-52" d="M 2841 2188 
Q 3044 2119 3236 1894 
Q 3428 1669 3622 1275 
L 4263 0 
L 3584 0 
L 2988 1197 
Q 2756 1666 2539 1819 
Q 2322 1972 1947 1972 
L 1259 1972 
L 1259 0 
L 628 0 
L 628 4666 
L 2053 4666 
Q 2853 4666 3247 4331 
Q 3641 3997 3641 3322 
Q 3641 2881 3436 2590 
Q 3231 2300 2841 2188 
z
M 1259 4147 
L 1259 2491 
L 2053 2491 
Q 2509 2491 2742 2702 
Q 2975 2913 2975 3322 
Q 2975 3731 2742 3939 
Q 2509 4147 2053 4147 
L 1259 4147 
z
" transform="scale(0.015625)"/>
       <path id="DejaVuSans-3a" d="M 750 794 
L 1409 794 
L 1409 0 
L 750 0 
L 750 794 
z
M 750 3309 
L 1409 3309 
L 1409 2516 
L 750 2516 
L 750 3309 
z
" transform="scale(0.015625)"/>
      </defs>
      <use xlink:href="#DejaVuSans-51"/>
      <use xlink:href="#DejaVuSans-42" x="78.710938"/>
      <use xlink:href="#DejaVuSans-45" x="147.314453"/>
      <use xlink:href="#DejaVuSans-52" x="210.498047"/>
      <use xlink:href="#DejaVuSans-3a" x="276.855469"/>
      <use xlink:href="#DejaVuSans-20" x="310.546875"/>
      <use xlink:href="#DejaVuSans-31" x="342.333984"/>
     </g>
    </g>
    <g id="line2d_29">
     <path d="M 330.760625 160.901188 
L 340.760625 160.901188 
L 350.760625 160.901188 
" style="fill: none; stroke: #ff7f0e; stroke-width: 1.5; stroke-linecap: square"/>
    </g>
    <g id="text_20">
     <!-- QBER: 2 -->
     <g transform="translate(358.760625 164.401188)scale(0.1 -0.1)">
      <use xlink:href="#DejaVuSans-51"/>
      <use xlink:href="#DejaVuSans-42" x="78.710938"/>
      <use xlink:href="#DejaVuSans-45" x="147.314453"/>
      <use xlink:href="#DejaVuSans-52" x="210.498047"/>
      <use xlink:href="#DejaVuSans-3a" x="276.855469"/>
      <use xlink:href="#DejaVuSans-20" x="310.546875"/>
      <use xlink:href="#DejaVuSans-32" x="342.333984"/>
     </g>
    </g>
    <g id="line2d_30">
     <path d="M 330.760625 175.579313 
L 340.760625 175.579313 
L 350.760625 175.579313 
" style="fill: none; stroke: #2ca02c; stroke-width: 1.5; stroke-linecap: square"/>
    </g>
    <g id="text_21">
     <!-- QBER: 3 -->
     <g transform="translate(358.760625 179.079313)scale(0.1 -0.1)">
      <use xlink:href="#DejaVuSans-51"/>
      <use xlink:href="#DejaVuSans-42" x="78.710938"/>
      <use xlink:href="#DejaVuSans-45" x="147.314453"/>
      <use xlink:href="#DejaVuSans-52" x="210.498047"/>
      <use xlink:href="#DejaVuSans-3a" x="276.855469"/>
      <use xlink:href="#DejaVuSans-20" x="310.546875"/>
      <use xlink:href="#DejaVuSans-33" x="342.333984"/>
     </g>
    </g>
    <g id="line2d_31">
     <path d="M 330.760625 190.257438 
L 340.760625 190.257438 
L 350.760625 190.257438 
" style="fill: none; stroke: #d62728; stroke-width: 1.5; stroke-linecap: square"/>
    </g>
    <g id="text_22">
     <!-- QBER: 4 -->
     <g transform="translate(358.760625 193.757438)scale(0.1 -0.1)">
      <use xlink:href="#DejaVuSans-51"/>
      <use xlink:href="#DejaVuSans-42" x="78.710938"/>
      <use xlink:href="#DejaVuSans-45" x="147.314453"/>
      <use xlink:href="#DejaVuSans-52" x="210.498047"/>
      <use xlink:href="#DejaVuSans-3a" x="276.855469"/>
      <use xlink:href="#DejaVuSans-20" x="310.546875"/>
      <use xlink:href="#DejaVuSans-34" x="342.333984"/>
     </g>
    </g>
    <g id="line2d_32">
     <path d="M 330.760625 204.935563 
L 340.760625 204.935563 
L 350.760625 204.935563 
" style="fill: none; stroke: #9467bd; stroke-width: 1.5; stroke-linecap: square"/>
    </g>
    <g id="text_23">
     <!-- QBER: 5 -->
     <g transform="translate(358.760625 208.435563)scale(0.1 -0.1)">
      <use xlink:href="#DejaVuSans-51"/>
      <use xlink:href="#DejaVuSans-42" x="78.710938"/>
      <use xlink:href="#DejaVuSans-45" x="147.314453"/>
      <use xlink:href="#DejaVuSans-52" x="210.498047"/>
      <use xlink:href="#DejaVuSans-3a" x="276.855469"/>
      <use xlink:href="#DejaVuSans-20" x="310.546875"/>
      <use xlink:href="#DejaVuSans-35" x="342.333984"/>
     </g>
    </g>
    <g id="line2d_33">
     <path d="M 330.760625 219.613688 
L 340.760625 219.613688 
L 350.760625 219.613688 
" style="fill: none; stroke: #8c564b; stroke-width: 1.5; stroke-linecap: square"/>
    </g>
    <g id="text_24">
     <!-- QBER: 6 -->
     <g transform="translate(358.760625 223.113688)scale(0.1 -0.1)">
      <defs>
       <path id="DejaVuSans-36" d="M 2113 2584 
Q 1688 2584 1439 2293 
Q 1191 2003 1191 1497 
Q 1191 994 1439 701 
Q 1688 409 2113 409 
Q 2538 409 2786 701 
Q 3034 994 3034 1497 
Q 3034 2003 2786 2293 
Q 2538 2584 2113 2584 
z
M 3366 4563 
L 3366 3988 
Q 3128 4100 2886 4159 
Q 2644 4219 2406 4219 
Q 1781 4219 1451 3797 
Q 1122 3375 1075 2522 
Q 1259 2794 1537 2939 
Q 1816 3084 2150 3084 
Q 2853 3084 3261 2657 
Q 3669 2231 3669 1497 
Q 3669 778 3244 343 
Q 2819 -91 2113 -91 
Q 1303 -91 875 529 
Q 447 1150 447 2328 
Q 447 3434 972 4092 
Q 1497 4750 2381 4750 
Q 2619 4750 2861 4703 
Q 3103 4656 3366 4563 
z
" transform="scale(0.015625)"/>
      </defs>
      <use xlink:href="#DejaVuSans-51"/>
      <use xlink:href="#DejaVuSans-42" x="78.710938"/>
      <use xlink:href="#DejaVuSans-45" x="147.314453"/>
      <use xlink:href="#DejaVuSans-52" x="210.498047"/>
      <use xlink:href="#DejaVuSans-3a" x="276.855469"/>
      <use xlink:href="#DejaVuSans-20" x="310.546875"/>
      <use xlink:href="#DejaVuSans-36" x="342.333984"/>
     </g>
    </g>
    <g id="line2d_34">
     <path d="M 330.760625 234.291812 
L 340.760625 234.291812 
L 350.760625 234.291812 
" style="fill: none; stroke: #e377c2; stroke-width: 1.5; stroke-linecap: square"/>
    </g>
    <g id="text_25">
     <!-- QBER: 7 -->
     <g transform="translate(358.760625 237.791812)scale(0.1 -0.1)">
      <use xlink:href="#DejaVuSans-51"/>
      <use xlink:href="#DejaVuSans-42" x="78.710938"/>
      <use xlink:href="#DejaVuSans-45" x="147.314453"/>
      <use xlink:href="#DejaVuSans-52" x="210.498047"/>
      <use xlink:href="#DejaVuSans-3a" x="276.855469"/>
      <use xlink:href="#DejaVuSans-20" x="310.546875"/>
      <use xlink:href="#DejaVuSans-37" x="342.333984"/>
     </g>
    </g>
    <g id="line2d_35">
     <path d="M 330.760625 248.969938 
L 340.760625 248.969938 
L 350.760625 248.969938 
" style="fill: none; stroke: #7f7f7f; stroke-width: 1.5; stroke-linecap: square"/>
    </g>
    <g id="text_26">
     <!-- QBER: 8 -->
     <g transform="translate(358.760625 252.469938)scale(0.1 -0.1)">
      <defs>
       <path id="DejaVuSans-38" d="M 2034 2216 
Q 1584 2216 1326 1975 
Q 1069 1734 1069 1313 
Q 1069 891 1326 650 
Q 1584 409 2034 409 
Q 2484 409 2743 651 
Q 3003 894 3003 1313 
Q 3003 1734 2745 1975 
Q 2488 2216 2034 2216 
z
M 1403 2484 
Q 997 2584 770 2862 
Q 544 3141 544 3541 
Q 544 4100 942 4425 
Q 1341 4750 2034 4750 
Q 2731 4750 3128 4425 
Q 3525 4100 3525 3541 
Q 3525 3141 3298 2862 
Q 3072 2584 2669 2484 
Q 3125 2378 3379 2068 
Q 3634 1759 3634 1313 
Q 3634 634 3220 271 
Q 2806 -91 2034 -91 
Q 1263 -91 848 271 
Q 434 634 434 1313 
Q 434 1759 690 2068 
Q 947 2378 1403 2484 
z
M 1172 3481 
Q 1172 3119 1398 2916 
Q 1625 2713 2034 2713 
Q 2441 2713 2670 2916 
Q 2900 3119 2900 3481 
Q 2900 3844 2670 4047 
Q 2441 4250 2034 4250 
Q 1625 4250 1398 4047 
Q 1172 3844 1172 3481 
z
" transform="scale(0.015625)"/>
      </defs>
      <use xlink:href="#DejaVuSans-51"/>
      <use xlink:href="#DejaVuSans-42" x="78.710938"/>
      <use xlink:href="#DejaVuSans-45" x="147.314453"/>
      <use xlink:href="#DejaVuSans-52" x="210.498047"/>
      <use xlink:href="#DejaVuSans-3a" x="276.855469"/>
      <use xlink:href="#DejaVuSans-20" x="310.546875"/>
      <use xlink:href="#DejaVuSans-38" x="342.333984"/>
     </g>
    </g>
    <g id="line2d_36">
     <path d="M 330.760625 263.648062 
L 340.760625 263.648062 
L 350.760625 263.648062 
" style="fill: none; stroke: #bcbd22; stroke-width: 1.5; stroke-linecap: square"/>
    </g>
    <g id="text_27">
     <!-- QBER: 9 -->
     <g transform="translate(358.760625 267.148062)scale(0.1 -0.1)">
      <defs>
       <path id="DejaVuSans-39" d="M 703 97 
L 703 672 
Q 941 559 1184 500 
Q 1428 441 1663 441 
Q 2288 441 2617 861 
Q 2947 1281 2994 2138 
Q 2813 1869 2534 1725 
Q 2256 1581 1919 1581 
Q 1219 1581 811 2004 
Q 403 2428 403 3163 
Q 403 3881 828 4315 
Q 1253 4750 1959 4750 
Q 2769 4750 3195 4129 
Q 3622 3509 3622 2328 
Q 3622 1225 3098 567 
Q 2575 -91 1691 -91 
Q 1453 -91 1209 -44 
Q 966 3 703 97 
z
M 1959 2075 
Q 2384 2075 2632 2365 
Q 2881 2656 2881 3163 
Q 2881 3666 2632 3958 
Q 2384 4250 1959 4250 
Q 1534 4250 1286 3958 
Q 1038 3666 1038 3163 
Q 1038 2656 1286 2365 
Q 1534 2075 1959 2075 
z
" transform="scale(0.015625)"/>
      </defs>
      <use xlink:href="#DejaVuSans-51"/>
      <use xlink:href="#DejaVuSans-42" x="78.710938"/>
      <use xlink:href="#DejaVuSans-45" x="147.314453"/>
      <use xlink:href="#DejaVuSans-52" x="210.498047"/>
      <use xlink:href="#DejaVuSans-3a" x="276.855469"/>
      <use xlink:href="#DejaVuSans-20" x="310.546875"/>
      <use xlink:href="#DejaVuSans-39" x="342.333984"/>
     </g>
    </g>
    <g id="line2d_37">
     <path d="M 330.760625 278.326187 
L 340.760625 278.326187 
L 350.760625 278.326187 
" style="fill: none; stroke: #17becf; stroke-width: 1.5; stroke-linecap: square"/>
    </g>
    <g id="text_28">
     <!-- QBER: 10 -->
     <g transform="translate(358.760625 281.826187)scale(0.1 -0.1)">
      <use xlink:href="#DejaVuSans-51"/>
      <use xlink:href="#DejaVuSans-42" x="78.710938"/>
      <use xlink:href="#DejaVuSans-45" x="147.314453"/>
      <use xlink:href="#DejaVuSans-52" x="210.498047"/>
      <use xlink:href="#DejaVuSans-3a" x="276.855469"/>
      <use xlink:href="#DejaVuSans-20" x="310.546875"/>
      <use xlink:href="#DejaVuSans-31" x="342.333984"/>
      <use xlink:href="#DejaVuSans-30" x="405.957031"/>
     </g>
    </g>
    <g id="line2d_38">
     <path d="M 330.760625 293.004312 
L 340.760625 293.004312 
L 350.760625 293.004312 
" style="fill: none; stroke: #1f77b4; stroke-width: 1.5; stroke-linecap: square"/>
    </g>
    <g id="text_29">
     <!-- QBER: 11 -->
     <g transform="translate(358.760625 296.504312)scale(0.1 -0.1)">
      <use xlink:href="#DejaVuSans-51"/>
      <use xlink:href="#DejaVuSans-42" x="78.710938"/>
      <use xlink:href="#DejaVuSans-45" x="147.314453"/>
      <use xlink:href="#DejaVuSans-52" x="210.498047"/>
      <use xlink:href="#DejaVuSans-3a" x="276.855469"/>
      <use xlink:href="#DejaVuSans-20" x="310.546875"/>
      <use xlink:href="#DejaVuSans-31" x="342.333984"/>
      <use xlink:href="#DejaVuSans-31" x="405.957031"/>
     </g>
    </g>
   </g>
  </g>
 </g>
 <defs>
  <clipPath id="pc80c14798e">
   <rect x="57.6" y="41.472" width="357.12" height="266.112"/>
  </clipPath>
 </defs>
</svg>
