<?xml version="1.0" encoding="utf-8" standalone="no"?>
<!DOCTYPE svg PUBLIC "-//W3C//DTD SVG 1.1//EN"
  "http://www.w3.org/Graphics/SVG/1.1/DTD/svg11.dtd">
<svg xmlns:xlink="http://www.w3.org/1999/xlink" width="460.8pt" height="345.6pt" viewBox="0 0 460.8 345.6" xmlns="http://www.w3.org/2000/svg" version="1.1">
 <metadata>
  <rdf:RDF xmlns:dc="http://purl.org/dc/elements/1.1/" xmlns:cc="http://creativecommons.org/ns#" xmlns:rdf="http://www.w3.org/1999/02/22-rdf-syntax-ns#">
   <cc:Work>
    <dc:type rdf:resource="http://purl.org/dc/dcmitype/StillImage"/>
    <dc:date>2023-08-12T11:06:46.876468</dc:date>
    <dc:format>image/svg+xml</dc:format>
    <dc:creator>
     <cc:Agent>
      <dc:title>Matplotlib v3.5.3, https://matplotlib.org/</dc:title>
     </cc:Agent>
    </dc:creator>
   </cc:Work>
  </rdf:RDF>
 </metadata>
 <defs>
  <style type="text/css">*{stroke-linejoin: round; stroke-linecap: butt}</style>
 </defs>
 <g id="figure_1">
  <g id="patch_1">
   <path d="M 0 345.6 
L 460.8 345.6 
L 460.8 0 
L 0 0 
z
" style="fill: #ffffff"/>
  </g>
  <g id="axes_1">
   <g id="patch_2">
    <path d="M 57.6 307.584 
L 414.72 307.584 
L 414.72 41.472 
L 57.6 41.472 
z
" style="fill: #ffffff"/>
   </g>
   <g id="matplotlib.axis_1">
    <g id="xtick_1">
     <g id="line2d_1">
      <defs>
       <path id="m6fc7c1c473" d="M 0 0 
L 0 3.5 
" style="stroke: #000000; stroke-width: 0.8"/>
      </defs>
      <g>
       <use xlink:href="#m6fc7c1c473" x="73.351758" y="307.584" style="stroke: #000000; stroke-width: 0.8"/>
      </g>
     </g>
     <g id="text_1">
      <!-- 0 -->
      <g transform="translate(70.170508 322.182437)scale(0.1 -0.1)">
       <defs>
        <path id="DejaVuSans-30" d="M 2034 4250 
Q 1547 4250 1301 3770 
Q 1056 3291 1056 2328 
Q 1056 1369 1301 889 
Q 1547 409 2034 409 
Q 2525 409 2770 889 
Q 3016 1369 3016 2328 
Q 3016 3291 2770 3770 
Q 2525 4250 2034 4250 
z
M 2034 4750 
Q 2819 4750 3233 4129 
Q 3647 3509 3647 2328 
Q 3647 1150 3233 529 
Q 2819 -91 2034 -91 
Q 1250 -91 836 529 
Q 422 1150 422 2328 
Q 422 3509 836 4129 
Q 1250 4750 2034 4750 
z
" transform="scale(0.015625)"/>
       </defs>
       <use xlink:href="#DejaVuSans-30"/>
      </g>
     </g>
    </g>
    <g id="xtick_2">
     <g id="line2d_2">
      <g>
       <use xlink:href="#m6fc7c1c473" x="121.448727" y="307.584" style="stroke: #000000; stroke-width: 0.8"/>
      </g>
     </g>
     <g id="text_2">
      <!-- 2500 -->
      <g transform="translate(108.723727 322.182437)scale(0.1 -0.1)">
       <defs>
        <path id="DejaVuSans-32" d="M 1228 531 
L 3431 531 
L 3431 0 
L 469 0 
L 469 531 
Q 828 903 1448 1529 
Q 2069 2156 2228 2338 
Q 2531 2678 2651 2914 
Q 2772 3150 2772 3378 
Q 2772 3750 2511 3984 
Q 2250 4219 1831 4219 
Q 1534 4219 1204 4116 
Q 875 4013 500 3803 
L 500 4441 
Q 881 4594 1212 4672 
Q 1544 4750 1819 4750 
Q 2544 4750 2975 4387 
Q 3406 4025 3406 3419 
Q 3406 3131 3298 2873 
Q 3191 2616 2906 2266 
Q 2828 2175 2409 1742 
Q 1991 1309 1228 531 
z
" transform="scale(0.015625)"/>
        <path id="DejaVuSans-35" d="M 691 4666 
L 3169 4666 
L 3169 4134 
L 1269 4134 
L 1269 2991 
Q 1406 3038 1543 3061 
Q 1681 3084 1819 3084 
Q 2600 3084 3056 2656 
Q 3513 2228 3513 1497 
Q 3513 744 3044 326 
Q 2575 -91 1722 -91 
Q 1428 -91 1123 -41 
Q 819 9 494 109 
L 494 744 
Q 775 591 1075 516 
Q 1375 441 1709 441 
Q 2250 441 2565 725 
Q 2881 1009 2881 1497 
Q 2881 1984 2565 2268 
Q 2250 2553 1709 2553 
Q 1456 2553 1204 2497 
Q 953 2441 691 2322 
L 691 4666 
z
" transform="scale(0.015625)"/>
       </defs>
       <use xlink:href="#DejaVuSans-32"/>
       <use xlink:href="#DejaVuSans-35" x="63.623047"/>
       <use xlink:href="#DejaVuSans-30" x="127.246094"/>
       <use xlink:href="#DejaVuSans-30" x="190.869141"/>
      </g>
     </g>
    </g>
    <g id="xtick_3">
     <g id="line2d_3">
      <g>
       <use xlink:href="#m6fc7c1c473" x="169.545697" y="307.584" style="stroke: #000000; stroke-width: 0.8"/>
      </g>
     </g>
     <g id="text_3">
      <!-- 5000 -->
      <g transform="translate(156.820697 322.182437)scale(0.1 -0.1)">
       <use xlink:href="#DejaVuSans-35"/>
       <use xlink:href="#DejaVuSans-30" x="63.623047"/>
       <use xlink:href="#DejaVuSans-30" x="127.246094"/>
       <use xlink:href="#DejaVuSans-30" x="190.869141"/>
      </g>
     </g>
    </g>
    <g id="xtick_4">
     <g id="line2d_4">
      <g>
       <use xlink:href="#m6fc7c1c473" x="217.642667" y="307.584" style="stroke: #000000; stroke-width: 0.8"/>
      </g>
     </g>
     <g id="text_4">
      <!-- 7500 -->
      <g transform="translate(204.917667 322.182437)scale(0.1 -0.1)">
       <defs>
        <path id="DejaVuSans-37" d="M 525 4666 
L 3525 4666 
L 3525 4397 
L 1831 0 
L 1172 0 
L 2766 4134 
L 525 4134 
L 525 4666 
z
" transform="scale(0.015625)"/>
       </defs>
       <use xlink:href="#DejaVuSans-37"/>
       <use xlink:href="#DejaVuSans-35" x="63.623047"/>
       <use xlink:href="#DejaVuSans-30" x="127.246094"/>
       <use xlink:href="#DejaVuSans-30" x="190.869141"/>
      </g>
     </g>
    </g>
    <g id="xtick_5">
     <g id="line2d_5">
      <g>
       <use xlink:href="#m6fc7c1c473" x="265.739636" y="307.584" style="stroke: #000000; stroke-width: 0.8"/>
      </g>
     </g>
     <g id="text_5">
      <!-- 10000 -->
      <g transform="translate(249.833386 322.182437)scale(0.1 -0.1)">
       <defs>
        <path id="DejaVuSans-31" d="M 794 531 
L 1825 531 
L 1825 4091 
L 703 3866 
L 703 4441 
L 1819 4666 
L 2450 4666 
L 2450 531 
L 3481 531 
L 3481 0 
L 794 0 
L 794 531 
z
" transform="scale(0.015625)"/>
       </defs>
       <use xlink:href="#DejaVuSans-31"/>
       <use xlink:href="#DejaVuSans-30" x="63.623047"/>
       <use xlink:href="#DejaVuSans-30" x="127.246094"/>
       <use xlink:href="#DejaVuSans-30" x="190.869141"/>
       <use xlink:href="#DejaVuSans-30" x="254.492188"/>
      </g>
     </g>
    </g>
    <g id="xtick_6">
     <g id="line2d_6">
      <g>
       <use xlink:href="#m6fc7c1c473" x="313.836606" y="307.584" style="stroke: #000000; stroke-width: 0.8"/>
      </g>
     </g>
     <g id="text_6">
      <!-- 12500 -->
      <g transform="translate(297.930356 322.182437)scale(0.1 -0.1)">
       <use xlink:href="#DejaVuSans-31"/>
       <use xlink:href="#DejaVuSans-32" x="63.623047"/>
       <use xlink:href="#DejaVuSans-35" x="127.246094"/>
       <use xlink:href="#DejaVuSans-30" x="190.869141"/>
       <use xlink:href="#DejaVuSans-30" x="254.492188"/>
      </g>
     </g>
    </g>
    <g id="xtick_7">
     <g id="line2d_7">
      <g>
       <use xlink:href="#m6fc7c1c473" x="361.933576" y="307.584" style="stroke: #000000; stroke-width: 0.8"/>
      </g>
     </g>
     <g id="text_7">
      <!-- 15000 -->
      <g transform="translate(346.027326 322.182437)scale(0.1 -0.1)">
       <use xlink:href="#DejaVuSans-31"/>
       <use xlink:href="#DejaVuSans-35" x="63.623047"/>
       <use xlink:href="#DejaVuSans-30" x="127.246094"/>
       <use xlink:href="#DejaVuSans-30" x="190.869141"/>
       <use xlink:href="#DejaVuSans-30" x="254.492188"/>
      </g>
     </g>
    </g>
    <g id="xtick_8">
     <g id="line2d_8">
      <g>
       <use xlink:href="#m6fc7c1c473" x="410.030545" y="307.584" style="stroke: #000000; stroke-width: 0.8"/>
      </g>
     </g>
     <g id="text_8">
      <!-- 17500 -->
      <g transform="translate(394.124295 322.182437)scale(0.1 -0.1)">
       <use xlink:href="#DejaVuSans-31"/>
       <use xlink:href="#DejaVuSans-37" x="63.623047"/>
       <use xlink:href="#DejaVuSans-35" x="127.246094"/>
       <use xlink:href="#DejaVuSans-30" x="190.869141"/>
       <use xlink:href="#DejaVuSans-30" x="254.492188"/>
      </g>
     </g>
    </g>
    <g id="text_9">
     <!-- Number of input neurons multiplied by number of hidden neurons [N*K] -->
     <g transform="translate(56.102969 335.860562)scale(0.1 -0.1)">
      <defs>
       <path id="DejaVuSans-4e" d="M 628 4666 
L 1478 4666 
L 3547 763 
L 3547 4666 
L 4159 4666 
L 4159 0 
L 3309 0 
L 1241 3903 
L 1241 0 
L 628 0 
L 628 4666 
z
" transform="scale(0.015625)"/>
       <path id="DejaVuSans-75" d="M 544 1381 
L 544 3500 
L 1119 3500 
L 1119 1403 
Q 1119 906 1312 657 
Q 1506 409 1894 409 
Q 2359 409 2629 706 
Q 2900 1003 2900 1516 
L 2900 3500 
L 3475 3500 
L 3475 0 
L 2900 0 
L 2900 538 
Q 2691 219 2414 64 
Q 2138 -91 1772 -91 
Q 1169 -91 856 284 
Q 544 659 544 1381 
z
M 1991 3584 
L 1991 3584 
z
" transform="scale(0.015625)"/>
       <path id="DejaVuSans-6d" d="M 3328 2828 
Q 3544 3216 3844 3400 
Q 4144 3584 4550 3584 
Q 5097 3584 5394 3201 
Q 5691 2819 5691 2113 
L 5691 0 
L 5113 0 
L 5113 2094 
Q 5113 2597 4934 2840 
Q 4756 3084 4391 3084 
Q 3944 3084 3684 2787 
Q 3425 2491 3425 1978 
L 3425 0 
L 2847 0 
L 2847 2094 
Q 2847 2600 2669 2842 
Q 2491 3084 2119 3084 
Q 1678 3084 1418 2786 
Q 1159 2488 1159 1978 
L 1159 0 
L 581 0 
L 581 3500 
L 1159 3500 
L 1159 2956 
Q 1356 3278 1631 3431 
Q 1906 3584 2284 3584 
Q 2666 3584 2933 3390 
Q 3200 3197 3328 2828 
z
" transform="scale(0.015625)"/>
       <path id="DejaVuSans-62" d="M 3116 1747 
Q 3116 2381 2855 2742 
Q 2594 3103 2138 3103 
Q 1681 3103 1420 2742 
Q 1159 2381 1159 1747 
Q 1159 1113 1420 752 
Q 1681 391 2138 391 
Q 2594 391 2855 752 
Q 3116 1113 3116 1747 
z
M 1159 2969 
Q 1341 3281 1617 3432 
Q 1894 3584 2278 3584 
Q 2916 3584 3314 3078 
Q 3713 2572 3713 1747 
Q 3713 922 3314 415 
Q 2916 -91 2278 -91 
Q 1894 -91 1617 61 
Q 1341 213 1159 525 
L 1159 0 
L 581 0 
L 581 4863 
L 1159 4863 
L 1159 2969 
z
" transform="scale(0.015625)"/>
       <path id="DejaVuSans-65" d="M 3597 1894 
L 3597 1613 
L 953 1613 
Q 991 1019 1311 708 
Q 1631 397 2203 397 
Q 2534 397 2845 478 
Q 3156 559 3463 722 
L 3463 178 
Q 3153 47 2828 -22 
Q 2503 -91 2169 -91 
Q 1331 -91 842 396 
Q 353 884 353 1716 
Q 353 2575 817 3079 
Q 1281 3584 2069 3584 
Q 2775 3584 3186 3129 
Q 3597 2675 3597 1894 
z
M 3022 2063 
Q 3016 2534 2758 2815 
Q 2500 3097 2075 3097 
Q 1594 3097 1305 2825 
Q 1016 2553 972 2059 
L 3022 2063 
z
" transform="scale(0.015625)"/>
       <path id="DejaVuSans-72" d="M 2631 2963 
Q 2534 3019 2420 3045 
Q 2306 3072 2169 3072 
Q 1681 3072 1420 2755 
Q 1159 2438 1159 1844 
L 1159 0 
L 581 0 
L 581 3500 
L 1159 3500 
L 1159 2956 
Q 1341 3275 1631 3429 
Q 1922 3584 2338 3584 
Q 2397 3584 2469 3576 
Q 2541 3569 2628 3553 
L 2631 2963 
z
" transform="scale(0.015625)"/>
       <path id="DejaVuSans-20" transform="scale(0.015625)"/>
       <path id="DejaVuSans-6f" d="M 1959 3097 
Q 1497 3097 1228 2736 
Q 959 2375 959 1747 
Q 959 1119 1226 758 
Q 1494 397 1959 397 
Q 2419 397 2687 759 
Q 2956 1122 2956 1747 
Q 2956 2369 2687 2733 
Q 2419 3097 1959 3097 
z
M 1959 3584 
Q 2709 3584 3137 3096 
Q 3566 2609 3566 1747 
Q 3566 888 3137 398 
Q 2709 -91 1959 -91 
Q 1206 -91 779 398 
Q 353 888 353 1747 
Q 353 2609 779 3096 
Q 1206 3584 1959 3584 
z
" transform="scale(0.015625)"/>
       <path id="DejaVuSans-66" d="M 2375 4863 
L 2375 4384 
L 1825 4384 
Q 1516 4384 1395 4259 
Q 1275 4134 1275 3809 
L 1275 3500 
L 2222 3500 
L 2222 3053 
L 1275 3053 
L 1275 0 
L 697 0 
L 697 3053 
L 147 3053 
L 147 3500 
L 697 3500 
L 697 3744 
Q 697 4328 969 4595 
Q 1241 4863 1831 4863 
L 2375 4863 
z
" transform="scale(0.015625)"/>
       <path id="DejaVuSans-69" d="M 603 3500 
L 1178 3500 
L 1178 0 
L 603 0 
L 603 3500 
z
M 603 4863 
L 1178 4863 
L 1178 4134 
L 603 4134 
L 603 4863 
z
" transform="scale(0.015625)"/>
       <path id="DejaVuSans-6e" d="M 3513 2113 
L 3513 0 
L 2938 0 
L 2938 2094 
Q 2938 2591 2744 2837 
Q 2550 3084 2163 3084 
Q 1697 3084 1428 2787 
Q 1159 2491 1159 1978 
L 1159 0 
L 581 0 
L 581 3500 
L 1159 3500 
L 1159 2956 
Q 1366 3272 1645 3428 
Q 1925 3584 2291 3584 
Q 2894 3584 3203 3211 
Q 3513 2838 3513 2113 
z
" transform="scale(0.015625)"/>
       <path id="DejaVuSans-70" d="M 1159 525 
L 1159 -1331 
L 581 -1331 
L 581 3500 
L 1159 3500 
L 1159 2969 
Q 1341 3281 1617 3432 
Q 1894 3584 2278 3584 
Q 2916 3584 3314 3078 
Q 3713 2572 3713 1747 
Q 3713 922 3314 415 
Q 2916 -91 2278 -91 
Q 1894 -91 1617 61 
Q 1341 213 1159 525 
z
M 3116 1747 
Q 3116 2381 2855 2742 
Q 2594 3103 2138 3103 
Q 1681 3103 1420 2742 
Q 1159 2381 1159 1747 
Q 1159 1113 1420 752 
Q 1681 391 2138 391 
Q 2594 391 2855 752 
Q 3116 1113 3116 1747 
z
" transform="scale(0.015625)"/>
       <path id="DejaVuSans-74" d="M 1172 4494 
L 1172 3500 
L 2356 3500 
L 2356 3053 
L 1172 3053 
L 1172 1153 
Q 1172 725 1289 603 
Q 1406 481 1766 481 
L 2356 481 
L 2356 0 
L 1766 0 
Q 1100 0 847 248 
Q 594 497 594 1153 
L 594 3053 
L 172 3053 
L 172 3500 
L 594 3500 
L 594 4494 
L 1172 4494 
z
" transform="scale(0.015625)"/>
       <path id="DejaVuSans-73" d="M 2834 3397 
L 2834 2853 
Q 2591 2978 2328 3040 
Q 2066 3103 1784 3103 
Q 1356 3103 1142 2972 
Q 928 2841 928 2578 
Q 928 2378 1081 2264 
Q 1234 2150 1697 2047 
L 1894 2003 
Q 2506 1872 2764 1633 
Q 3022 1394 3022 966 
Q 3022 478 2636 193 
Q 2250 -91 1575 -91 
Q 1294 -91 989 -36 
Q 684 19 347 128 
L 347 722 
Q 666 556 975 473 
Q 1284 391 1588 391 
Q 1994 391 2212 530 
Q 2431 669 2431 922 
Q 2431 1156 2273 1281 
Q 2116 1406 1581 1522 
L 1381 1569 
Q 847 1681 609 1914 
Q 372 2147 372 2553 
Q 372 3047 722 3315 
Q 1072 3584 1716 3584 
Q 2034 3584 2315 3537 
Q 2597 3491 2834 3397 
z
" transform="scale(0.015625)"/>
       <path id="DejaVuSans-6c" d="M 603 4863 
L 1178 4863 
L 1178 0 
L 603 0 
L 603 4863 
z
" transform="scale(0.015625)"/>
       <path id="DejaVuSans-64" d="M 2906 2969 
L 2906 4863 
L 3481 4863 
L 3481 0 
L 2906 0 
L 2906 525 
Q 2725 213 2448 61 
Q 2172 -91 1784 -91 
Q 1150 -91 751 415 
Q 353 922 353 1747 
Q 353 2572 751 3078 
Q 1150 3584 1784 3584 
Q 2172 3584 2448 3432 
Q 2725 3281 2906 2969 
z
M 947 1747 
Q 947 1113 1208 752 
Q 1469 391 1925 391 
Q 2381 391 2643 752 
Q 2906 1113 2906 1747 
Q 2906 2381 2643 2742 
Q 2381 3103 1925 3103 
Q 1469 3103 1208 2742 
Q 947 2381 947 1747 
z
" transform="scale(0.015625)"/>
       <path id="DejaVuSans-79" d="M 2059 -325 
Q 1816 -950 1584 -1140 
Q 1353 -1331 966 -1331 
L 506 -1331 
L 506 -850 
L 844 -850 
Q 1081 -850 1212 -737 
Q 1344 -625 1503 -206 
L 1606 56 
L 191 3500 
L 800 3500 
L 1894 763 
L 2988 3500 
L 3597 3500 
L 2059 -325 
z
" transform="scale(0.015625)"/>
       <path id="DejaVuSans-68" d="M 3513 2113 
L 3513 0 
L 2938 0 
L 2938 2094 
Q 2938 2591 2744 2837 
Q 2550 3084 2163 3084 
Q 1697 3084 1428 2787 
Q 1159 2491 1159 1978 
L 1159 0 
L 581 0 
L 581 4863 
L 1159 4863 
L 1159 2956 
Q 1366 3272 1645 3428 
Q 1925 3584 2291 3584 
Q 2894 3584 3203 3211 
Q 3513 2838 3513 2113 
z
" transform="scale(0.015625)"/>
       <path id="DejaVuSans-5b" d="M 550 4863 
L 1875 4863 
L 1875 4416 
L 1125 4416 
L 1125 -397 
L 1875 -397 
L 1875 -844 
L 550 -844 
L 550 4863 
z
" transform="scale(0.015625)"/>
       <path id="DejaVuSans-2a" d="M 3009 3897 
L 1888 3291 
L 3009 2681 
L 2828 2375 
L 1778 3009 
L 1778 1831 
L 1422 1831 
L 1422 3009 
L 372 2375 
L 191 2681 
L 1313 3291 
L 191 3897 
L 372 4206 
L 1422 3572 
L 1422 4750 
L 1778 4750 
L 1778 3572 
L 2828 4206 
L 3009 3897 
z
" transform="scale(0.015625)"/>
       <path id="DejaVuSans-4b" d="M 628 4666 
L 1259 4666 
L 1259 2694 
L 3353 4666 
L 4166 4666 
L 1850 2491 
L 4331 0 
L 3500 0 
L 1259 2247 
L 1259 0 
L 628 0 
L 628 4666 
z
" transform="scale(0.015625)"/>
       <path id="DejaVuSans-5d" d="M 1947 4863 
L 1947 -844 
L 622 -844 
L 622 -397 
L 1369 -397 
L 1369 4416 
L 622 4416 
L 622 4863 
L 1947 4863 
z
" transform="scale(0.015625)"/>
      </defs>
      <use xlink:href="#DejaVuSans-4e"/>
      <use xlink:href="#DejaVuSans-75" x="74.804688"/>
      <use xlink:href="#DejaVuSans-6d" x="138.183594"/>
      <use xlink:href="#DejaVuSans-62" x="235.595703"/>
      <use xlink:href="#DejaVuSans-65" x="299.072266"/>
      <use xlink:href="#DejaVuSans-72" x="360.595703"/>
      <use xlink:href="#DejaVuSans-20" x="401.708984"/>
      <use xlink:href="#DejaVuSans-6f" x="433.496094"/>
      <use xlink:href="#DejaVuSans-66" x="494.677734"/>
      <use xlink:href="#DejaVuSans-20" x="529.882812"/>
      <use xlink:href="#DejaVuSans-69" x="561.669922"/>
      <use xlink:href="#DejaVuSans-6e" x="589.453125"/>
      <use xlink:href="#DejaVuSans-70" x="652.832031"/>
      <use xlink:href="#DejaVuSans-75" x="716.308594"/>
      <use xlink:href="#DejaVuSans-74" x="779.6875"/>
      <use xlink:href="#DejaVuSans-20" x="818.896484"/>
      <use xlink:href="#DejaVuSans-6e" x="850.683594"/>
      <use xlink:href="#DejaVuSans-65" x="914.0625"/>
      <use xlink:href="#DejaVuSans-75" x="975.585938"/>
      <use xlink:href="#DejaVuSans-72" x="1038.964844"/>
      <use xlink:href="#DejaVuSans-6f" x="1077.828125"/>
      <use xlink:href="#DejaVuSans-6e" x="1139.009766"/>
      <use xlink:href="#DejaVuSans-73" x="1202.388672"/>
      <use xlink:href="#DejaVuSans-20" x="1254.488281"/>
      <use xlink:href="#DejaVuSans-6d" x="1286.275391"/>
      <use xlink:href="#DejaVuSans-75" x="1383.6875"/>
      <use xlink:href="#DejaVuSans-6c" x="1447.066406"/>
      <use xlink:href="#DejaVuSans-74" x="1474.849609"/>
      <use xlink:href="#DejaVuSans-69" x="1514.058594"/>
      <use xlink:href="#DejaVuSans-70" x="1541.841797"/>
      <use xlink:href="#DejaVuSans-6c" x="1605.318359"/>
      <use xlink:href="#DejaVuSans-69" x="1633.101562"/>
      <use xlink:href="#DejaVuSans-65" x="1660.884766"/>
      <use xlink:href="#DejaVuSans-64" x="1722.408203"/>
      <use xlink:href="#DejaVuSans-20" x="1785.884766"/>
      <use xlink:href="#DejaVuSans-62" x="1817.671875"/>
      <use xlink:href="#DejaVuSans-79" x="1881.148438"/>
      <use xlink:href="#DejaVuSans-20" x="1940.328125"/>
      <use xlink:href="#DejaVuSans-6e" x="1972.115234"/>
      <use xlink:href="#DejaVuSans-75" x="2035.494141"/>
      <use xlink:href="#DejaVuSans-6d" x="2098.873047"/>
      <use xlink:href="#DejaVuSans-62" x="2196.285156"/>
      <use xlink:href="#DejaVuSans-65" x="2259.761719"/>
      <use xlink:href="#DejaVuSans-72" x="2321.285156"/>
      <use xlink:href="#DejaVuSans-20" x="2362.398438"/>
      <use xlink:href="#DejaVuSans-6f" x="2394.185547"/>
      <use xlink:href="#DejaVuSans-66" x="2455.367188"/>
      <use xlink:href="#DejaVuSans-20" x="2490.572266"/>
      <use xlink:href="#DejaVuSans-68" x="2522.359375"/>
      <use xlink:href="#DejaVuSans-69" x="2585.738281"/>
      <use xlink:href="#DejaVuSans-64" x="2613.521484"/>
      <use xlink:href="#DejaVuSans-64" x="2676.998047"/>
      <use xlink:href="#DejaVuSans-65" x="2740.474609"/>
      <use xlink:href="#DejaVuSans-6e" x="2801.998047"/>
      <use xlink:href="#DejaVuSans-20" x="2865.376953"/>
      <use xlink:href="#DejaVuSans-6e" x="2897.164062"/>
      <use xlink:href="#DejaVuSans-65" x="2960.542969"/>
      <use xlink:href="#DejaVuSans-75" x="3022.066406"/>
      <use xlink:href="#DejaVuSans-72" x="3085.445312"/>
      <use xlink:href="#DejaVuSans-6f" x="3124.308594"/>
      <use xlink:href="#DejaVuSans-6e" x="3185.490234"/>
      <use xlink:href="#DejaVuSans-73" x="3248.869141"/>
      <use xlink:href="#DejaVuSans-20" x="3300.96875"/>
      <use xlink:href="#DejaVuSans-5b" x="3332.755859"/>
      <use xlink:href="#DejaVuSans-4e" x="3371.769531"/>
      <use xlink:href="#DejaVuSans-2a" x="3446.574219"/>
      <use xlink:href="#DejaVuSans-4b" x="3496.574219"/>
      <use xlink:href="#DejaVuSans-5d" x="3562.150391"/>
     </g>
    </g>
   </g>
   <g id="matplotlib.axis_2">
    <g id="ytick_1">
     <g id="line2d_9">
      <defs>
       <path id="mb96072f69a" d="M 0 0 
L -3.5 0 
" style="stroke: #000000; stroke-width: 0.8"/>
      </defs>
      <g>
       <use xlink:href="#mb96072f69a" x="57.6" y="296.668858" style="stroke: #000000; stroke-width: 0.8"/>
      </g>
     </g>
     <g id="text_10">
      <!-- 0 -->
      <g transform="translate(44.2375 300.468076)scale(0.1 -0.1)">
       <use xlink:href="#DejaVuSans-30"/>
      </g>
     </g>
    </g>
    <g id="ytick_2">
     <g id="line2d_10">
      <g>
       <use xlink:href="#mb96072f69a" x="57.6" y="253.542188" style="stroke: #000000; stroke-width: 0.8"/>
      </g>
     </g>
     <g id="text_11">
      <!-- 5 -->
      <g transform="translate(44.2375 257.341406)scale(0.1 -0.1)">
       <use xlink:href="#DejaVuSans-35"/>
      </g>
     </g>
    </g>
    <g id="ytick_3">
     <g id="line2d_11">
      <g>
       <use xlink:href="#mb96072f69a" x="57.6" y="210.415518" style="stroke: #000000; stroke-width: 0.8"/>
      </g>
     </g>
     <g id="text_12">
      <!-- 10 -->
      <g transform="translate(37.875 214.214736)scale(0.1 -0.1)">
       <use xlink:href="#DejaVuSans-31"/>
       <use xlink:href="#DejaVuSans-30" x="63.623047"/>
      </g>
     </g>
    </g>
    <g id="ytick_4">
     <g id="line2d_12">
      <g>
       <use xlink:href="#mb96072f69a" x="57.6" y="167.288848" style="stroke: #000000; stroke-width: 0.8"/>
      </g>
     </g>
     <g id="text_13">
      <!-- 15 -->
      <g transform="translate(37.875 171.088067)scale(0.1 -0.1)">
       <use xlink:href="#DejaVuSans-31"/>
       <use xlink:href="#DejaVuSans-35" x="63.623047"/>
      </g>
     </g>
    </g>
    <g id="ytick_5">
     <g id="line2d_13">
      <g>
       <use xlink:href="#mb96072f69a" x="57.6" y="124.162178" style="stroke: #000000; stroke-width: 0.8"/>
      </g>
     </g>
     <g id="text_14">
      <!-- 20 -->
      <g transform="translate(37.875 127.961397)scale(0.1 -0.1)">
       <use xlink:href="#DejaVuSans-32"/>
       <use xlink:href="#DejaVuSans-30" x="63.623047"/>
      </g>
     </g>
    </g>
    <g id="ytick_6">
     <g id="line2d_14">
      <g>
       <use xlink:href="#mb96072f69a" x="57.6" y="81.035508" style="stroke: #000000; stroke-width: 0.8"/>
      </g>
     </g>
     <g id="text_15">
      <!-- 25 -->
      <g transform="translate(37.875 84.834727)scale(0.1 -0.1)">
       <use xlink:href="#DejaVuSans-32"/>
       <use xlink:href="#DejaVuSans-35" x="63.623047"/>
      </g>
     </g>
    </g>
    <g id="text_16">
     <!-- Mean number of required repetitions of TPM -->
     <g transform="translate(31.795312 284.968625)rotate(-90)scale(0.1 -0.1)">
      <defs>
       <path id="DejaVuSans-4d" d="M 628 4666 
L 1569 4666 
L 2759 1491 
L 3956 4666 
L 4897 4666 
L 4897 0 
L 4281 0 
L 4281 4097 
L 3078 897 
L 2444 897 
L 1241 4097 
L 1241 0 
L 628 0 
L 628 4666 
z
" transform="scale(0.015625)"/>
       <path id="DejaVuSans-61" d="M 2194 1759 
Q 1497 1759 1228 1600 
Q 959 1441 959 1056 
Q 959 750 1161 570 
Q 1363 391 1709 391 
Q 2188 391 2477 730 
Q 2766 1069 2766 1631 
L 2766 1759 
L 2194 1759 
z
M 3341 1997 
L 3341 0 
L 2766 0 
L 2766 531 
Q 2569 213 2275 61 
Q 1981 -91 1556 -91 
Q 1019 -91 701 211 
Q 384 513 384 1019 
Q 384 1609 779 1909 
Q 1175 2209 1959 2209 
L 2766 2209 
L 2766 2266 
Q 2766 2663 2505 2880 
Q 2244 3097 1772 3097 
Q 1472 3097 1187 3025 
Q 903 2953 641 2809 
L 641 3341 
Q 956 3463 1253 3523 
Q 1550 3584 1831 3584 
Q 2591 3584 2966 3190 
Q 3341 2797 3341 1997 
z
" transform="scale(0.015625)"/>
       <path id="DejaVuSans-71" d="M 947 1747 
Q 947 1113 1208 752 
Q 1469 391 1925 391 
Q 2381 391 2643 752 
Q 2906 1113 2906 1747 
Q 2906 2381 2643 2742 
Q 2381 3103 1925 3103 
Q 1469 3103 1208 2742 
Q 947 2381 947 1747 
z
M 2906 525 
Q 2725 213 2448 61 
Q 2172 -91 1784 -91 
Q 1150 -91 751 415 
Q 353 922 353 1747 
Q 353 2572 751 3078 
Q 1150 3584 1784 3584 
Q 2172 3584 2448 3432 
Q 2725 3281 2906 2969 
L 2906 3500 
L 3481 3500 
L 3481 -1331 
L 2906 -1331 
L 2906 525 
z
" transform="scale(0.015625)"/>
       <path id="DejaVuSans-54" d="M -19 4666 
L 3928 4666 
L 3928 4134 
L 2272 4134 
L 2272 0 
L 1638 0 
L 1638 4134 
L -19 4134 
L -19 4666 
z
" transform="scale(0.015625)"/>
       <path id="DejaVuSans-50" d="M 1259 4147 
L 1259 2394 
L 2053 2394 
Q 2494 2394 2734 2622 
Q 2975 2850 2975 3272 
Q 2975 3691 2734 3919 
Q 2494 4147 2053 4147 
L 1259 4147 
z
M 628 4666 
L 2053 4666 
Q 2838 4666 3239 4311 
Q 3641 3956 3641 3272 
Q 3641 2581 3239 2228 
Q 2838 1875 2053 1875 
L 1259 1875 
L 1259 0 
L 628 0 
L 628 4666 
z
" transform="scale(0.015625)"/>
      </defs>
      <use xlink:href="#DejaVuSans-4d"/>
      <use xlink:href="#DejaVuSans-65" x="86.279297"/>
      <use xlink:href="#DejaVuSans-61" x="147.802734"/>
      <use xlink:href="#DejaVuSans-6e" x="209.082031"/>
      <use xlink:href="#DejaVuSans-20" x="272.460938"/>
      <use xlink:href="#DejaVuSans-6e" x="304.248047"/>
      <use xlink:href="#DejaVuSans-75" x="367.626953"/>
      <use xlink:href="#DejaVuSans-6d" x="431.005859"/>
      <use xlink:href="#DejaVuSans-62" x="528.417969"/>
      <use xlink:href="#DejaVuSans-65" x="591.894531"/>
      <use xlink:href="#DejaVuSans-72" x="653.417969"/>
      <use xlink:href="#DejaVuSans-20" x="694.53125"/>
      <use xlink:href="#DejaVuSans-6f" x="726.318359"/>
      <use xlink:href="#DejaVuSans-66" x="787.5"/>
      <use xlink:href="#DejaVuSans-20" x="822.705078"/>
      <use xlink:href="#DejaVuSans-72" x="854.492188"/>
      <use xlink:href="#DejaVuSans-65" x="893.355469"/>
      <use xlink:href="#DejaVuSans-71" x="954.878906"/>
      <use xlink:href="#DejaVuSans-75" x="1018.355469"/>
      <use xlink:href="#DejaVuSans-69" x="1081.734375"/>
      <use xlink:href="#DejaVuSans-72" x="1109.517578"/>
      <use xlink:href="#DejaVuSans-65" x="1148.380859"/>
      <use xlink:href="#DejaVuSans-64" x="1209.904297"/>
      <use xlink:href="#DejaVuSans-20" x="1273.380859"/>
      <use xlink:href="#DejaVuSans-72" x="1305.167969"/>
      <use xlink:href="#DejaVuSans-65" x="1344.03125"/>
      <use xlink:href="#DejaVuSans-70" x="1405.554688"/>
      <use xlink:href="#DejaVuSans-65" x="1469.03125"/>
      <use xlink:href="#DejaVuSans-74" x="1530.554688"/>
      <use xlink:href="#DejaVuSans-69" x="1569.763672"/>
      <use xlink:href="#DejaVuSans-74" x="1597.546875"/>
      <use xlink:href="#DejaVuSans-69" x="1636.755859"/>
      <use xlink:href="#DejaVuSans-6f" x="1664.539062"/>
      <use xlink:href="#DejaVuSans-6e" x="1725.720703"/>
      <use xlink:href="#DejaVuSans-73" x="1789.099609"/>
      <use xlink:href="#DejaVuSans-20" x="1841.199219"/>
      <use xlink:href="#DejaVuSans-6f" x="1872.986328"/>
      <use xlink:href="#DejaVuSans-66" x="1934.167969"/>
      <use xlink:href="#DejaVuSans-20" x="1969.373047"/>
      <use xlink:href="#DejaVuSans-54" x="2001.160156"/>
      <use xlink:href="#DejaVuSans-50" x="2062.244141"/>
      <use xlink:href="#DejaVuSans-4d" x="2122.546875"/>
     </g>
    </g>
   </g>
   <g id="line2d_15">
    <path d="M 73.832727 295.488 
L 75.756606 283.099961 
L 75.756606 283.099961 
L 77.680485 272.41641 
L 77.680485 272.41641 
L 79.604364 263.224451 
L 79.604364 263.224451 
L 81.528242 255.332919 
L 81.528242 255.332919 
L 83.452121 248.570649 
L 83.452121 248.570649 
L 85.376 242.784845 
L 85.376 242.784845 
L 86.818909 239.003921 
L 86.818909 239.003921 
L 89.223758 233.614226 
L 89.223758 233.614226 
L 90.666667 230.853157 
L 90.666667 230.853157 
L 92.590545 227.639286 
L 92.590545 227.639286 
L 94.995394 224.256029 
L 94.995394 224.256029 
L 96.919273 221.967962 
L 98.362182 220.454621 
L 98.362182 220.454621 
L 100.76703 218.251074 
L 100.76703 218.251074 
L 103.652848 216.023541 
L 103.652848 216.023541 
L 106.538667 214.132695 
L 106.538667 214.132695 
L 110.386424 211.971158 
L 110.386424 211.971158 
L 114.234182 210.073423 
L 114.234182 210.073423 
L 119.524848 207.707409 
L 119.524848 207.707409 
L 127.220364 204.52747 
L 127.220364 204.52747 
L 134.915879 201.573268 
L 134.915879 201.573268 
L 142.130424 199.063839 
L 142.130424 199.063839 
L 146.940121 197.569601 
L 146.940121 197.569601 
L 152.711758 195.987614 
L 152.711758 195.987614 
L 158.002424 194.739262 
L 158.002424 194.739262 
L 164.25503 193.485444 
L 164.25503 193.485444 
L 169.545697 192.570217 
L 169.545697 192.570217 
L 195.037091 188.412051 
L 195.037091 188.412051 
L 200.327758 187.308773 
L 200.327758 187.308773 
L 208.023273 185.458716 
L 208.023273 185.458716 
L 212.352 184.297101 
L 223.414303 181.045899 
L 223.414303 181.045899 
L 234.957576 177.552329 
L 234.957576 177.552329 
L 242.653091 175.409769 
L 242.653091 175.409769 
L 248.424727 173.995166 
L 248.424727 173.995166 
L 253.715394 172.878991 
L 253.715394 172.878991 
L 261.410909 171.584722 
L 261.410909 171.584722 
L 265.739636 171.01839 
L 277.763879 169.866178 
L 277.763879 169.866178 
L 285.459394 169.204311 
L 298.445576 167.453749 
L 298.445576 167.453749 
L 304.217212 166.176695 
L 304.217212 166.176695 
L 306.141091 165.663241 
L 323.456 159.052199 
L 323.456 159.052199 
L 327.784727 156.989899 
L 348.466424 149.066021 
L 348.466424 149.066021 
L 350.390303 148.842406 
L 373.476848 160.226494 
L 373.476848 160.226494 
L 373.957818 160.746746 
L 398.487273 175.376927 
L 398.487273 175.376927 
" clip-path="url(#p2e50c48dac)" style="fill: none; stroke: #1f77b4; stroke-width: 1.5; stroke-linecap: square"/>
   </g>
   <g id="line2d_16">
    <path d="M 73.832727 265.985563 
L 76.718545 255.213647 
L 76.718545 255.213647 
L 79.123394 247.155088 
L 79.123394 247.155088 
L 81.528242 239.864435 
L 81.528242 239.864435 
L 84.414061 232.045659 
L 84.414061 232.045659 
L 86.818909 226.238789 
L 86.818909 226.238789 
L 90.185697 219.084315 
L 90.185697 219.084315 
L 92.590545 214.602385 
L 92.590545 214.602385 
L 94.995394 210.590733 
L 94.995394 210.590733 
L 97.881212 206.335482 
L 97.881212 206.335482 
L 100.286061 203.206563 
L 100.286061 203.206563 
L 102.209939 200.948536 
L 102.209939 200.948536 
L 104.614788 198.401918 
L 104.614788 198.401918 
L 107.981576 195.291259 
L 107.981576 195.291259 
L 110.386424 193.351589 
L 110.386424 193.351589 
L 113.753212 190.970528 
L 113.753212 190.970528 
L 117.12 188.916042 
L 117.12 188.916042 
L 121.448727 186.654161 
L 125.296485 184.916682 
L 125.296485 184.916682 
L 131.068121 182.641018 
L 131.068121 182.641018 
L 137.320727 180.440618 
L 137.320727 180.440618 
L 165.697939 170.766729 
L 165.697939 170.766729 
L 184.455758 164.054652 
L 184.455758 164.054652 
L 194.556121 160.742748 
L 194.556121 160.742748 
L 200.327758 159.047836 
L 200.327758 159.047836 
L 208.023273 157.067324 
L 208.023273 157.067324 
L 212.352 156.105279 
L 217.161697 155.166976 
L 217.161697 155.166976 
L 224.857212 153.939332 
L 224.857212 153.939332 
L 229.666909 153.325516 
L 229.666909 153.325516 
L 239.286303 152.368637 
L 239.286303 152.368637 
L 265.739636 150.08654 
L 273.435152 149.056733 
L 273.435152 149.056733 
L 281.130667 147.718013 
L 281.130667 147.718013 
L 285.459394 146.821316 
L 301.812364 142.662797 
L 301.812364 142.662797 
L 306.141091 141.450847 
L 323.456 137.147474 
L 323.456 137.147474 
L 327.784727 136.429042 
L 348.466424 136.740571 
L 350.390303 137.121065 
L 373.957818 143.100502 
L 398.487273 115.986776 
L 398.487273 115.986776 
" clip-path="url(#p2e50c48dac)" style="fill: none; stroke: #ff7f0e; stroke-width: 1.5; stroke-linecap: square"/>
   </g>
   <g id="line2d_17">
    <path d="M 73.832727 262.319307 
L 75.756606 253.117715 
L 75.756606 253.117715 
L 77.680485 244.841432 
L 77.680485 244.841432 
L 79.604364 237.403532 
L 79.604364 237.403532 
L 81.528242 230.72379 
L 81.528242 230.72379 
L 83.452121 224.728279 
L 83.452121 224.728279 
L 85.376 219.348979 
L 85.376 219.348979 
L 86.818909 215.681112 
L 86.818909 215.681112 
L 89.223758 210.194303 
L 89.223758 210.194303 
L 90.666667 207.241549 
L 90.666667 207.241549 
L 92.590545 203.657796 
L 92.590545 203.657796 
L 94.995394 199.683706 
L 94.995394 199.683706 
L 97.881212 195.553874 
L 97.881212 195.553874 
L 100.286061 192.564222 
L 100.286061 192.564222 
L 102.209939 190.424593 
L 102.209939 190.424593 
L 104.614788 188.020405 
L 104.614788 188.020405 
L 107.981576 185.076161 
L 107.981576 185.076161 
L 111.829333 182.188007 
L 111.829333 182.188007 
L 114.234182 180.584402 
L 114.234182 180.584402 
L 117.12 178.819879 
L 117.12 178.819879 
L 121.448727 176.423152 
L 127.220364 173.547393 
L 127.220364 173.547393 
L 134.915879 170.043549 
L 134.915879 170.043549 
L 144.054303 166.132251 
L 144.054303 166.132251 
L 155.597576 161.415636 
L 155.597576 161.415636 
L 167.140848 156.947557 
L 167.140848 156.947557 
L 177.241212 153.280107 
L 177.241212 153.280107 
L 184.455758 150.804046 
L 184.455758 150.804046 
L 196.48 146.912397 
L 210.428121 142.669466 
L 210.428121 142.669466 
L 227.262061 137.799474 
L 227.262061 137.799474 
L 239.286303 134.512584 
L 239.286303 134.512584 
L 248.424727 132.205806 
L 248.424727 132.205806 
L 258.044121 130.061594 
L 258.044121 130.061594 
L 265.739636 128.631203 
L 273.435152 127.511376 
L 273.435152 127.511376 
L 281.130667 126.738371 
L 281.130667 126.738371 
L 285.459394 126.461205 
L 298.445576 126.265448 
L 298.445576 126.265448 
L 306.141091 126.506063 
L 327.784727 127.405923 
L 348.466424 126.126227 
L 350.390303 125.832738 
L 373.957818 121.984343 
L 398.487273 140.133437 
L 398.487273 140.133437 
" clip-path="url(#p2e50c48dac)" style="fill: none; stroke: #2ca02c; stroke-width: 1.5; stroke-linecap: square"/>
   </g>
   <g id="line2d_18">
    <path d="M 73.832727 263.91395 
L 75.756606 248.956642 
L 75.756606 248.956642 
L 77.680485 236.599523 
L 77.680485 236.599523 
L 79.604364 226.452082 
L 79.604364 226.452082 
L 81.528242 218.168498 
L 81.528242 218.168498 
L 83.452121 211.443827 
L 83.452121 211.443827 
L 85.376 206.010429 
L 85.376 206.010429 
L 86.818909 202.641017 
L 86.818909 202.641017 
L 89.223758 198.11355 
L 89.223758 198.11355 
L 90.666667 195.927449 
L 90.666667 195.927449 
L 92.590545 193.496422 
L 92.590545 193.496422 
L 94.995394 191.052544 
L 94.995394 191.052544 
L 97.881212 188.716508 
L 97.881212 188.716508 
L 100.76703 186.764227 
L 100.76703 186.764227 
L 112.310303 179.47593 
L 115.677091 177.030818 
L 115.677091 177.030818 
L 119.524848 174.008137 
L 119.524848 174.008137 
L 125.296485 169.150847 
L 125.296485 169.150847 
L 134.915879 160.986259 
L 134.915879 160.986259 
L 138.282667 158.344641 
L 138.282667 158.344641 
L 142.611394 155.251083 
L 142.611394 155.251083 
L 144.054303 154.308839 
L 144.054303 154.308839 
L 148.38303 151.77884 
L 148.38303 151.77884 
L 150.787879 150.574336 
L 150.787879 150.574336 
L 154.635636 148.950086 
L 158.002424 147.826168 
L 158.002424 147.826168 
L 159.926303 147.301403 
L 159.926303 147.301403 
L 164.25503 146.402757 
L 164.25503 146.402757 
L 167.621818 145.937077 
L 172.912485 145.514637 
L 172.912485 145.514637 
L 179.165091 145.296818 
L 179.165091 145.296818 
L 184.455758 145.152218 
L 184.455758 145.152218 
L 192.151273 144.673407 
L 192.151273 144.673407 
L 196.48 144.140498 
L 200.327758 143.460442 
L 200.327758 143.460442 
L 205.618424 142.17882 
L 205.618424 142.17882 
L 210.428121 140.664534 
L 210.428121 140.664534 
L 212.352 139.971227 
L 217.161697 138.045686 
L 224.857212 134.540526 
L 224.857212 134.540526 
L 234.957576 129.699561 
L 234.957576 129.699561 
L 242.653091 126.353512 
L 242.653091 126.353512 
L 246.981818 124.762435 
L 248.424727 124.291398 
L 248.424727 124.291398 
L 253.715394 122.85009 
L 253.715394 122.85009 
L 258.044121 122.027373 
L 258.044121 122.027373 
L 261.410909 121.614285 
L 261.410909 121.614285 
L 265.739636 121.363294 
L 273.435152 121.582677 
L 273.435152 121.582677 
L 281.130667 122.341059 
L 281.130667 122.341059 
L 285.459394 122.818101 
L 298.445576 123.251802 
L 298.445576 123.251802 
L 301.812364 122.879762 
L 301.812364 122.879762 
L 306.141091 121.989342 
L 323.456 113.38646 
L 323.456 113.38646 
L 327.784727 110.232447 
L 348.466424 97.86339 
L 348.466424 97.86339 
L 350.390303 97.618506 
L 373.476848 117.343964 
L 373.476848 117.343964 
L 373.957818 118.0962 
L 398.487273 88.674956 
L 398.487273 88.674956 
" clip-path="url(#p2e50c48dac)" style="fill: none; stroke: #d62728; stroke-width: 1.5; stroke-linecap: square"/>
   </g>
   <g id="line2d_19">
    <path d="M 73.832727 258.140478 
L 75.756606 247.100598 
L 75.756606 247.100598 
L 77.680485 237.277814 
L 77.680485 237.277814 
L 79.604364 228.547397 
L 79.604364 228.547397 
L 81.528242 220.795064 
L 81.528242 220.795064 
L 83.452121 213.916287 
L 83.452121 213.916287 
L 85.376 207.815648 
L 85.376 207.815648 
L 86.818909 203.698229 
L 86.818909 203.698229 
L 89.223758 197.608986 
L 89.223758 197.608986 
L 90.666667 194.369432 
L 90.666667 194.369432 
L 92.590545 190.475188 
L 92.590545 190.475188 
L 94.995394 186.2073 
L 94.995394 186.2073 
L 97.881212 181.829824 
L 97.881212 181.829824 
L 100.286061 178.696436 
L 100.286061 178.696436 
L 102.209939 176.470281 
L 102.209939 176.470281 
L 104.614788 173.98165 
L 104.614788 173.98165 
L 107.981576 170.943489 
L 107.981576 170.943489 
L 111.829333 167.956378 
L 111.829333 167.956378 
L 114.234182 166.285621 
L 114.234182 166.285621 
L 119.043879 163.262483 
L 119.043879 163.262483 
L 123.853576 160.523905 
L 123.853576 160.523905 
L 131.068121 156.715697 
L 131.068121 156.715697 
L 138.282667 153.10947 
L 138.282667 153.10947 
L 148.38303 148.318387 
L 148.38303 148.318387 
L 155.597576 145.118648 
L 155.597576 145.118648 
L 163.293091 141.969692 
L 163.293091 141.969692 
L 169.545697 139.640953 
L 169.545697 139.640953 
L 177.241212 137.070083 
L 177.241212 137.070083 
L 184.455758 134.942163 
L 184.455758 134.942163 
L 192.151273 132.932831 
L 192.151273 132.932831 
L 200.327758 131.025082 
L 200.327758 131.025082 
L 212.352 128.476497 
L 258.044121 119.254164 
L 258.044121 119.254164 
L 265.739636 117.867218 
L 277.763879 116.013267 
L 277.763879 116.013267 
L 285.459394 115.062497 
L 304.217212 113.400901 
L 304.217212 113.400901 
L 306.141091 113.259104 
L 325.860848 111.469226 
L 325.860848 111.469226 
L 327.784727 111.217364 
L 348.466424 106.899007 
L 348.466424 106.899007 
L 350.390303 106.333394 
L 373.957818 98.421161 
L 398.487273 99.234805 
L 398.487273 99.234805 
" clip-path="url(#p2e50c48dac)" style="fill: none; stroke: #9467bd; stroke-width: 1.5; stroke-linecap: square"/>
   </g>
   <g id="line2d_20">
    <path d="M 73.832727 248.461566 
L 75.756606 238.061325 
L 75.756606 238.061325 
L 77.680485 228.932409 
L 77.680485 228.932409 
L 79.604364 220.931841 
L 79.604364 220.931841 
L 81.528242 213.928936 
L 81.528242 213.928936 
L 83.452121 207.804531 
L 83.452121 207.804531 
L 85.376 202.450242 
L 85.376 202.450242 
L 86.818909 198.880414 
L 86.818909 198.880414 
L 89.223758 193.668163 
L 89.223758 193.668163 
L 90.666667 190.927458 
L 90.666667 190.927458 
L 92.590545 187.659965 
L 92.590545 187.659965 
L 94.995394 184.105285 
L 94.995394 184.105285 
L 97.881212 180.468343 
L 97.881212 180.468343 
L 100.286061 177.848076 
L 100.286061 177.848076 
L 102.209939 175.961215 
L 102.209939 175.961215 
L 104.614788 173.805833 
L 104.614788 173.805833 
L 107.981576 171.064209 
L 107.981576 171.064209 
L 112.310303 167.829713 
L 138.282667 149.053011 
L 138.282667 149.053011 
L 146.940121 142.76732 
L 146.940121 142.76732 
L 152.711758 138.835355 
L 152.711758 138.835355 
L 158.002424 135.523418 
L 158.002424 135.523418 
L 163.293091 132.561166 
L 163.293091 132.561166 
L 167.621818 130.431255 
L 169.545697 129.57423 
L 169.545697 129.57423 
L 173.874424 127.851758 
L 173.874424 127.851758 
L 179.646061 125.99523 
L 179.646061 125.99523 
L 184.455758 124.814783 
L 184.455758 124.814783 
L 188.784485 124.012632 
L 188.784485 124.012632 
L 195.037091 123.229382 
L 195.037091 123.229382 
L 200.327758 122.844571 
L 200.327758 122.844571 
L 208.023273 122.588492 
L 208.023273 122.588492 
L 227.262061 122.225659 
L 227.262061 122.225659 
L 229.666909 122.106723 
L 229.666909 122.106723 
L 234.957576 121.735704 
L 234.957576 121.735704 
L 242.653091 120.892716 
L 242.653091 120.892716 
L 248.424727 120.014974 
L 248.424727 120.014974 
L 258.044121 118.132231 
L 258.044121 118.132231 
L 265.739636 116.349405 
L 284.978424 111.722861 
L 284.978424 111.722861 
L 285.459394 111.617168 
L 298.445576 109.163782 
L 298.445576 109.163782 
L 306.141091 108.113384 
L 327.784727 106.009531 
L 348.466424 101.68054 
L 348.466424 101.68054 
L 350.390303 100.99003 
L 373.957818 89.202134 
L 398.487273 97.371714 
L 398.487273 97.371714 
" clip-path="url(#p2e50c48dac)" style="fill: none; stroke: #8c564b; stroke-width: 1.5; stroke-linecap: square"/>
   </g>
   <g id="line2d_21">
    <path d="M 73.832727 253.468262 
L 75.756606 239.241865 
L 75.756606 239.241865 
L 77.680485 227.160728 
L 77.680485 227.160728 
L 79.604364 216.930495 
L 79.604364 216.930495 
L 81.528242 208.288319 
L 81.528242 208.288319 
L 83.452121 201.000333 
L 83.452121 201.000333 
L 85.376 194.859264 
L 85.376 194.859264 
L 86.818909 190.895237 
L 86.818909 190.895237 
L 89.223758 185.308479 
L 89.223758 185.308479 
L 90.666667 182.470226 
L 90.666667 182.470226 
L 92.590545 179.175725 
L 92.590545 179.175725 
L 94.995394 175.694025 
L 94.995394 175.694025 
L 97.881212 172.216709 
L 97.881212 172.216709 
L 100.286061 169.734361 
L 100.286061 169.734361 
L 102.209939 167.937594 
L 102.209939 167.937594 
L 106.538667 164.268217 
L 106.538667 164.268217 
L 131.549091 144.303472 
L 137.320727 139.959235 
L 137.320727 139.959235 
L 140.687515 137.628428 
L 140.687515 137.628428 
L 144.054303 135.48923 
L 144.054303 135.48923 
L 148.38303 133.060574 
L 148.38303 133.060574 
L 152.711758 131.024517 
L 152.711758 131.024517 
L 155.597576 129.891638 
L 155.597576 129.891638 
L 159.926303 128.523097 
L 159.926303 128.523097 
L 164.25503 127.527222 
L 164.25503 127.527222 
L 167.621818 126.982739 
L 169.545697 126.75084 
L 169.545697 126.75084 
L 173.874424 126.404964 
L 173.874424 126.404964 
L 181.569939 126.199119 
L 181.569939 126.199119 
L 192.151273 126.09568 
L 192.151273 126.09568 
L 198.403879 125.76673 
L 198.403879 125.76673 
L 200.327758 125.591637 
L 200.327758 125.591637 
L 205.618424 124.889922 
L 205.618424 124.889922 
L 210.428121 123.943443 
L 210.428121 123.943443 
L 212.352 123.478911 
L 217.161697 122.105233 
L 217.161697 122.105233 
L 223.414303 119.899381 
L 223.414303 119.899381 
L 229.185939 117.519163 
L 234.957576 114.921894 
L 234.957576 114.921894 
L 246.981818 109.419055 
L 248.424727 108.798333 
L 248.424727 108.798333 
L 253.715394 106.677842 
L 253.715394 106.677842 
L 258.044121 105.174819 
L 258.044121 105.174819 
L 263.815758 103.576808 
L 263.815758 103.576808 
L 265.739636 103.159284 
L 273.435152 102.106072 
L 273.435152 102.106072 
L 277.763879 101.948315 
L 277.763879 101.948315 
L 283.535515 102.18834 
L 283.535515 102.18834 
L 285.459394 102.370049 
L 301.812364 105.132263 
L 301.812364 105.132263 
L 306.141091 105.926306 
L 323.456 107.092842 
L 323.456 107.092842 
L 327.784727 106.577302 
L 348.466424 99.289719 
L 348.466424 99.289719 
L 350.390303 98.344895 
L 398.487273 79.888785 
L 398.487273 79.888785 
" clip-path="url(#p2e50c48dac)" style="fill: none; stroke: #e377c2; stroke-width: 1.5; stroke-linecap: square"/>
   </g>
   <g id="line2d_22">
    <path d="M 73.832727 240.035063 
L 75.756606 230.901063 
L 75.756606 230.901063 
L 77.680485 222.593824 
L 77.680485 222.593824 
L 79.604364 215.042093 
L 79.604364 215.042093 
L 81.528242 208.180062 
L 81.528242 208.180062 
L 83.452121 201.947001 
L 83.452121 201.947001 
L 85.376 196.286914 
L 85.376 196.286914 
L 86.818909 192.386667 
L 86.818909 192.386667 
L 90.185697 184.314871 
L 90.185697 184.314871 
L 92.590545 179.330788 
L 92.590545 179.330788 
L 94.995394 174.912687 
L 94.995394 174.912687 
L 97.881212 170.26446 
L 97.881212 170.26446 
L 100.286061 166.865922 
L 100.286061 166.865922 
L 102.209939 164.41975 
L 102.209939 164.41975 
L 104.614788 161.662963 
L 104.614788 161.662963 
L 107.981576 158.289577 
L 107.981576 158.289577 
L 110.386424 156.176347 
L 110.386424 156.176347 
L 113.753212 153.563415 
L 113.753212 153.563415 
L 117.12 151.284376 
L 117.12 151.284376 
L 121.448727 148.740622 
L 125.296485 146.759704 
L 125.296485 146.759704 
L 131.068121 144.138917 
L 131.068121 144.138917 
L 137.320727 141.606579 
L 137.320727 141.606579 
L 146.940121 138.013017 
L 146.940121 138.013017 
L 169.545697 129.697068 
L 169.545697 129.697068 
L 200.327758 118.132022 
L 200.327758 118.132022 
L 211.87103 114.164999 
L 211.87103 114.164999 
L 217.161697 112.477666 
L 217.161697 112.477666 
L 227.262061 109.50595 
L 227.262061 109.50595 
L 234.957576 107.447551 
L 234.957576 107.447551 
L 248.424727 104.138615 
L 248.424727 104.138615 
L 265.258667 100.013109 
L 265.258667 100.013109 
L 273.435152 97.771793 
L 273.435152 97.771793 
L 281.130667 95.422386 
L 281.130667 95.422386 
L 285.459394 93.988466 
L 305.660121 86.546248 
L 305.660121 86.546248 
L 306.141091 86.366585 
L 323.456 80.936748 
L 323.456 80.936748 
L 327.784727 80.175481 
L 348.466424 82.990279 
L 348.466424 82.990279 
L 350.390303 83.915999 
L 373.957818 101.551482 
L 398.487273 80.877724 
L 398.487273 80.877724 
" clip-path="url(#p2e50c48dac)" style="fill: none; stroke: #7f7f7f; stroke-width: 1.5; stroke-linecap: square"/>
   </g>
   <g id="line2d_23">
    <path d="M 73.832727 245.991476 
L 75.756606 232.529163 
L 75.756606 232.529163 
L 77.680485 220.746462 
L 77.680485 220.746462 
L 79.604364 210.464346 
L 79.604364 210.464346 
L 81.528242 201.518625 
L 81.528242 201.518625 
L 83.452121 193.759018 
L 83.452121 193.759018 
L 85.376 187.048252 
L 85.376 187.048252 
L 86.818909 182.627785 
L 86.818909 182.627785 
L 89.223758 176.284167 
L 89.223758 176.284167 
L 90.666667 173.020487 
L 90.666667 173.020487 
L 92.590545 169.218603 
L 92.590545 169.218603 
L 94.995394 165.229773 
L 94.995394 165.229773 
L 96.919273 162.556051 
L 98.362182 160.807438 
L 98.362182 160.807438 
L 100.76703 158.305833 
L 100.76703 158.305833 
L 103.652848 155.85647 
L 103.652848 155.85647 
L 104.614788 155.148392 
L 104.614788 155.148392 
L 107.981576 152.997887 
L 107.981576 152.997887 
L 111.829333 150.988717 
L 111.829333 150.988717 
L 115.677091 149.255994 
L 115.677091 149.255994 
L 131.549091 142.464035 
L 138.282667 139.19291 
L 138.282667 139.19291 
L 146.940121 134.664758 
L 146.940121 134.664758 
L 159.926303 127.83749 
L 159.926303 127.83749 
L 167.621818 124.167104 
L 173.874424 121.539215 
L 173.874424 121.539215 
L 179.646061 119.440404 
L 179.646061 119.440404 
L 184.455758 117.938422 
L 184.455758 117.938422 
L 192.151273 115.977791 
L 192.151273 115.977791 
L 198.403879 114.732112 
L 198.403879 114.732112 
L 205.618424 113.58349 
L 205.618424 113.58349 
L 217.161697 112.073246 
L 217.161697 112.073246 
L 229.185939 110.411179 
L 234.957576 109.426533 
L 234.957576 109.426533 
L 242.653091 107.830387 
L 242.653091 107.830387 
L 248.424727 106.392566 
L 248.424727 106.392566 
L 253.715394 104.888549 
L 253.715394 104.888549 
L 261.410909 102.404511 
L 261.410909 102.404511 
L 265.739636 100.874721 
L 281.130667 94.992992 
L 281.130667 94.992992 
L 285.459394 93.319001 
L 298.445576 88.669491 
L 298.445576 88.669491 
L 305.660121 86.531986 
L 305.660121 86.531986 
L 306.141091 86.404776 
L 323.456 83.375591 
L 323.456 83.375591 
L 327.784727 83.125501 
L 350.390303 84.448667 
L 373.476848 83.865608 
L 373.476848 83.865608 
L 373.957818 83.710277 
L 398.487273 53.568 
L 398.487273 53.568 
" clip-path="url(#p2e50c48dac)" style="fill: none; stroke: #bcbd22; stroke-width: 1.5; stroke-linecap: square"/>
   </g>
   <g id="line2d_24">
    <path d="M 73.832727 238.291932 
L 75.756606 226.743924 
L 75.756606 226.743924 
L 77.680485 216.601157 
L 77.680485 216.601157 
L 79.604364 207.705222 
L 79.604364 207.705222 
L 81.528242 199.912061 
L 81.528242 199.912061 
L 83.452121 193.090973 
L 83.452121 193.090973 
L 85.376 187.123666 
L 85.376 187.123666 
L 86.818909 183.143838 
L 86.818909 183.143838 
L 89.223758 177.33396 
L 89.223758 177.33396 
L 90.666667 174.281829 
L 90.666667 174.281829 
L 92.590545 170.649479 
L 92.590545 170.649479 
L 94.995394 166.713518 
L 94.995394 166.713518 
L 97.881212 162.719454 
L 97.881212 162.719454 
L 100.286061 159.87868 
L 100.286061 159.87868 
L 102.209939 157.862649 
L 102.209939 157.862649 
L 104.614788 155.601805 
L 104.614788 155.601805 
L 107.981576 152.811745 
L 107.981576 152.811745 
L 111.829333 150.004713 
L 111.829333 150.004713 
L 115.677091 147.463665 
L 115.677091 147.463665 
L 121.448727 143.938624 
L 121.448727 143.938624 
L 130.587152 138.696378 
L 130.587152 138.696378 
L 138.282667 134.494651 
L 138.282667 134.494651 
L 144.054303 131.511847 
L 144.054303 131.511847 
L 150.787879 128.289981 
L 150.787879 128.289981 
L 155.597576 126.197231 
L 155.597576 126.197231 
L 159.926303 124.478865 
L 159.926303 124.478865 
L 167.140848 121.971513 
L 167.140848 121.971513 
L 169.545697 121.231407 
L 169.545697 121.231407 
L 177.241212 119.145491 
L 177.241212 119.145491 
L 184.455758 117.494172 
L 184.455758 117.494172 
L 205.618424 113.02887 
L 205.618424 113.02887 
L 212.352 111.322352 
L 212.352 111.322352 
L 217.161697 109.932787 
L 217.161697 109.932787 
L 224.857212 107.371985 
L 224.857212 107.371985 
L 229.666909 105.556289 
L 229.666909 105.556289 
L 234.957576 103.380962 
L 234.957576 103.380962 
L 242.653091 99.942881 
L 242.653091 99.942881 
L 265.739636 89.155992 
L 265.739636 89.155992 
L 273.435152 86.062062 
L 273.435152 86.062062 
L 277.763879 84.566083 
L 277.763879 84.566083 
L 283.535515 82.907969 
L 283.535515 82.907969 
L 285.459394 82.449409 
L 285.459394 82.449409 
L 298.445576 80.702298 
L 298.445576 80.702298 
L 304.217212 80.691091 
L 304.217212 80.691091 
L 306.141091 80.786732 
L 306.141091 80.786732 
L 323.456 83.421132 
L 323.456 83.421132 
L 327.784727 84.39647 
L 327.784727 84.39647 
L 348.466424 88.387752 
L 348.466424 88.387752 
L 350.390303 88.561281 
L 350.390303 88.561281 
L 373.476848 85.521526 
L 373.476848 85.521526 
L 373.957818 85.345517 
L 398.487273 71.687974 
L 398.487273 71.687974 
" clip-path="url(#p2e50c48dac)" style="fill: none; stroke: #17becf; stroke-width: 1.5; stroke-linecap: square"/>
   </g>
   <g id="line2d_25">
    <path d="M 73.832727 248.302977 
L 75.756606 233.067302 
L 75.756606 233.067302 
L 77.680485 220.049814 
L 77.680485 220.049814 
L 79.604364 208.951791 
L 79.604364 208.951791 
L 81.528242 199.506708 
L 81.528242 199.506708 
L 83.452121 191.47758 
L 83.452121 191.47758 
L 85.376 184.65447 
L 85.376 184.65447 
L 86.818909 180.216292 
L 86.818909 180.216292 
L 89.223758 173.907903 
L 89.223758 173.907903 
L 90.666667 170.676552 
L 90.666667 170.676552 
L 92.590545 166.90291 
L 92.590545 166.90291 
L 94.995394 162.892236 
L 94.995394 162.892236 
L 97.881212 158.878499 
L 97.881212 158.878499 
L 100.286061 156.027258 
L 100.286061 156.027258 
L 102.209939 153.984064 
L 102.209939 153.984064 
L 104.614788 151.648526 
L 104.614788 151.648526 
L 109.424485 147.442318 
L 109.424485 147.442318 
L 115.677091 142.413192 
L 115.677091 142.413192 
L 125.296485 134.987221 
L 125.296485 134.987221 
L 131.549091 130.377283 
L 131.549091 130.377283 
L 137.320727 126.427898 
L 137.320727 126.427898 
L 142.130424 123.459356 
L 142.130424 123.459356 
L 144.054303 122.369169 
L 144.054303 122.369169 
L 148.38303 120.138037 
L 148.38303 120.138037 
L 152.711758 118.225708 
L 152.711758 118.225708 
L 155.597576 117.128012 
L 155.597576 117.128012 
L 159.926303 115.735587 
L 159.926303 115.735587 
L 165.697939 114.305407 
L 165.697939 114.305407 
L 169.545697 113.577566 
L 169.545697 113.577566 
L 173.874424 112.922289 
L 173.874424 112.922289 
L 181.569939 112.015051 
L 181.569939 112.015051 
L 192.151273 110.82161 
L 192.151273 110.82161 
L 198.403879 109.913627 
L 198.403879 109.913627 
L 204.656485 108.756102 
L 204.656485 108.756102 
L 210.428121 107.446517 
L 210.428121 107.446517 
L 217.161697 105.655242 
L 217.161697 105.655242 
L 229.666909 101.895861 
L 229.666909 101.895861 
L 239.286303 99.0869 
L 239.286303 99.0869 
L 246.500848 97.306474 
L 246.500848 97.306474 
L 248.424727 96.89971 
L 248.424727 96.89971 
L 253.715394 95.9505 
L 253.715394 95.9505 
L 258.044121 95.366069 
L 258.044121 95.366069 
L 263.815758 94.84721 
L 263.815758 94.84721 
L 265.739636 94.733991 
L 265.739636 94.733991 
L 277.763879 94.467092 
L 277.763879 94.467092 
L 285.459394 94.349617 
L 285.459394 94.349617 
L 298.445576 93.131248 
L 298.445576 93.131248 
L 301.812364 92.447629 
L 301.812364 92.447629 
L 306.141091 91.288524 
L 306.141091 91.288524 
L 323.456 83.639959 
L 323.456 83.639959 
L 327.784727 81.271686 
L 327.784727 81.271686 
L 348.466424 74.193457 
L 348.466424 74.193457 
L 350.390303 74.407302 
L 350.390303 74.407302 
L 373.476848 96.372879 
L 373.476848 96.372879 
L 373.957818 97.136433 
L 373.957818 97.136433 
L 398.487273 91.546294 
L 398.487273 91.546294 
" clip-path="url(#p2e50c48dac)" style="fill: none; stroke: #1f77b4; stroke-width: 1.5; stroke-linecap: square"/>
   </g>
   <g id="patch_3">
    <path d="M 57.6 307.584 
L 57.6 41.472 
" style="fill: none; stroke: #000000; stroke-width: 0.8; stroke-linejoin: miter; stroke-linecap: square"/>
   </g>
   <g id="patch_4">
    <path d="M 414.72 307.584 
L 414.72 41.472 
" style="fill: none; stroke: #000000; stroke-width: 0.8; stroke-linejoin: miter; stroke-linecap: square"/>
   </g>
   <g id="patch_5">
    <path d="M 57.6 307.584 
L 414.72 307.584 
" style="fill: none; stroke: #000000; stroke-width: 0.8; stroke-linejoin: miter; stroke-linecap: square"/>
   </g>
   <g id="patch_6">
    <path d="M 57.6 41.472 
L 414.72 41.472 
" style="fill: none; stroke: #000000; stroke-width: 0.8; stroke-linejoin: miter; stroke-linecap: square"/>
   </g>
   <g id="text_17">
    <!-- QBER influence on mean number of required repetitions of TPM with L=1 -->
    <g transform="translate(16.7025 35.472)scale(0.12 -0.12)">
     <defs>
      <path id="DejaVuSans-51" d="M 2522 4238 
Q 1834 4238 1429 3725 
Q 1025 3213 1025 2328 
Q 1025 1447 1429 934 
Q 1834 422 2522 422 
Q 3209 422 3611 934 
Q 4013 1447 4013 2328 
Q 4013 3213 3611 3725 
Q 3209 4238 2522 4238 
z
M 3406 84 
L 4238 -825 
L 3475 -825 
L 2784 -78 
Q 2681 -84 2626 -87 
Q 2572 -91 2522 -91 
Q 1538 -91 948 567 
Q 359 1225 359 2328 
Q 359 3434 948 4092 
Q 1538 4750 2522 4750 
Q 3503 4750 4090 4092 
Q 4678 3434 4678 2328 
Q 4678 1516 4351 937 
Q 4025 359 3406 84 
z
" transform="scale(0.015625)"/>
      <path id="DejaVuSans-42" d="M 1259 2228 
L 1259 519 
L 2272 519 
Q 2781 519 3026 730 
Q 3272 941 3272 1375 
Q 3272 1813 3026 2020 
Q 2781 2228 2272 2228 
L 1259 2228 
z
M 1259 4147 
L 1259 2741 
L 2194 2741 
Q 2656 2741 2882 2914 
Q 3109 3088 3109 3444 
Q 3109 3797 2882 3972 
Q 2656 4147 2194 4147 
L 1259 4147 
z
M 628 4666 
L 2241 4666 
Q 2963 4666 3353 4366 
Q 3744 4066 3744 3513 
Q 3744 3084 3544 2831 
Q 3344 2578 2956 2516 
Q 3422 2416 3680 2098 
Q 3938 1781 3938 1306 
Q 3938 681 3513 340 
Q 3088 0 2303 0 
L 628 0 
L 628 4666 
z
" transform="scale(0.015625)"/>
      <path id="DejaVuSans-45" d="M 628 4666 
L 3578 4666 
L 3578 4134 
L 1259 4134 
L 1259 2753 
L 3481 2753 
L 3481 2222 
L 1259 2222 
L 1259 531 
L 3634 531 
L 3634 0 
L 628 0 
L 628 4666 
z
" transform="scale(0.015625)"/>
      <path id="DejaVuSans-52" d="M 2841 2188 
Q 3044 2119 3236 1894 
Q 3428 1669 3622 1275 
L 4263 0 
L 3584 0 
L 2988 1197 
Q 2756 1666 2539 1819 
Q 2322 1972 1947 1972 
L 1259 1972 
L 1259 0 
L 628 0 
L 628 4666 
L 2053 4666 
Q 2853 4666 3247 4331 
Q 3641 3997 3641 3322 
Q 3641 2881 3436 2590 
Q 3231 2300 2841 2188 
z
M 1259 4147 
L 1259 2491 
L 2053 2491 
Q 2509 2491 2742 2702 
Q 2975 2913 2975 3322 
Q 2975 3731 2742 3939 
Q 2509 4147 2053 4147 
L 1259 4147 
z
" transform="scale(0.015625)"/>
      <path id="DejaVuSans-63" d="M 3122 3366 
L 3122 2828 
Q 2878 2963 2633 3030 
Q 2388 3097 2138 3097 
Q 1578 3097 1268 2742 
Q 959 2388 959 1747 
Q 959 1106 1268 751 
Q 1578 397 2138 397 
Q 2388 397 2633 464 
Q 2878 531 3122 666 
L 3122 134 
Q 2881 22 2623 -34 
Q 2366 -91 2075 -91 
Q 1284 -91 818 406 
Q 353 903 353 1747 
Q 353 2603 823 3093 
Q 1294 3584 2113 3584 
Q 2378 3584 2631 3529 
Q 2884 3475 3122 3366 
z
" transform="scale(0.015625)"/>
      <path id="DejaVuSans-77" d="M 269 3500 
L 844 3500 
L 1563 769 
L 2278 3500 
L 2956 3500 
L 3675 769 
L 4391 3500 
L 4966 3500 
L 4050 0 
L 3372 0 
L 2619 2869 
L 1863 0 
L 1184 0 
L 269 3500 
z
" transform="scale(0.015625)"/>
      <path id="DejaVuSans-4c" d="M 628 4666 
L 1259 4666 
L 1259 531 
L 3531 531 
L 3531 0 
L 628 0 
L 628 4666 
z
" transform="scale(0.015625)"/>
      <path id="DejaVuSans-3d" d="M 678 2906 
L 4684 2906 
L 4684 2381 
L 678 2381 
L 678 2906 
z
M 678 1631 
L 4684 1631 
L 4684 1100 
L 678 1100 
L 678 1631 
z
" transform="scale(0.015625)"/>
     </defs>
     <use xlink:href="#DejaVuSans-51"/>
     <use xlink:href="#DejaVuSans-42" x="78.710938"/>
     <use xlink:href="#DejaVuSans-45" x="147.314453"/>
     <use xlink:href="#DejaVuSans-52" x="210.498047"/>
     <use xlink:href="#DejaVuSans-20" x="279.980469"/>
     <use xlink:href="#DejaVuSans-69" x="311.767578"/>
     <use xlink:href="#DejaVuSans-6e" x="339.550781"/>
     <use xlink:href="#DejaVuSans-66" x="402.929688"/>
     <use xlink:href="#DejaVuSans-6c" x="438.134766"/>
     <use xlink:href="#DejaVuSans-75" x="465.917969"/>
     <use xlink:href="#DejaVuSans-65" x="529.296875"/>
     <use xlink:href="#DejaVuSans-6e" x="590.820312"/>
     <use xlink:href="#DejaVuSans-63" x="654.199219"/>
     <use xlink:href="#DejaVuSans-65" x="709.179688"/>
     <use xlink:href="#DejaVuSans-20" x="770.703125"/>
     <use xlink:href="#DejaVuSans-6f" x="802.490234"/>
     <use xlink:href="#DejaVuSans-6e" x="863.671875"/>
     <use xlink:href="#DejaVuSans-20" x="927.050781"/>
     <use xlink:href="#DejaVuSans-6d" x="958.837891"/>
     <use xlink:href="#DejaVuSans-65" x="1056.25"/>
     <use xlink:href="#DejaVuSans-61" x="1117.773438"/>
     <use xlink:href="#DejaVuSans-6e" x="1179.052734"/>
     <use xlink:href="#DejaVuSans-20" x="1242.431641"/>
     <use xlink:href="#DejaVuSans-6e" x="1274.21875"/>
     <use xlink:href="#DejaVuSans-75" x="1337.597656"/>
     <use xlink:href="#DejaVuSans-6d" x="1400.976562"/>
     <use xlink:href="#DejaVuSans-62" x="1498.388672"/>
     <use xlink:href="#DejaVuSans-65" x="1561.865234"/>
     <use xlink:href="#DejaVuSans-72" x="1623.388672"/>
     <use xlink:href="#DejaVuSans-20" x="1664.501953"/>
     <use xlink:href="#DejaVuSans-6f" x="1696.289062"/>
     <use xlink:href="#DejaVuSans-66" x="1757.470703"/>
     <use xlink:href="#DejaVuSans-20" x="1792.675781"/>
     <use xlink:href="#DejaVuSans-72" x="1824.462891"/>
     <use xlink:href="#DejaVuSans-65" x="1863.326172"/>
     <use xlink:href="#DejaVuSans-71" x="1924.849609"/>
     <use xlink:href="#DejaVuSans-75" x="1988.326172"/>
     <use xlink:href="#DejaVuSans-69" x="2051.705078"/>
     <use xlink:href="#DejaVuSans-72" x="2079.488281"/>
     <use xlink:href="#DejaVuSans-65" x="2118.351562"/>
     <use xlink:href="#DejaVuSans-64" x="2179.875"/>
     <use xlink:href="#DejaVuSans-20" x="2243.351562"/>
     <use xlink:href="#DejaVuSans-72" x="2275.138672"/>
     <use xlink:href="#DejaVuSans-65" x="2314.001953"/>
     <use xlink:href="#DejaVuSans-70" x="2375.525391"/>
     <use xlink:href="#DejaVuSans-65" x="2439.001953"/>
     <use xlink:href="#DejaVuSans-74" x="2500.525391"/>
     <use xlink:href="#DejaVuSans-69" x="2539.734375"/>
     <use xlink:href="#DejaVuSans-74" x="2567.517578"/>
     <use xlink:href="#DejaVuSans-69" x="2606.726562"/>
     <use xlink:href="#DejaVuSans-6f" x="2634.509766"/>
     <use xlink:href="#DejaVuSans-6e" x="2695.691406"/>
     <use xlink:href="#DejaVuSans-73" x="2759.070312"/>
     <use xlink:href="#DejaVuSans-20" x="2811.169922"/>
     <use xlink:href="#DejaVuSans-6f" x="2842.957031"/>
     <use xlink:href="#DejaVuSans-66" x="2904.138672"/>
     <use xlink:href="#DejaVuSans-20" x="2939.34375"/>
     <use xlink:href="#DejaVuSans-54" x="2971.130859"/>
     <use xlink:href="#DejaVuSans-50" x="3032.214844"/>
     <use xlink:href="#DejaVuSans-4d" x="3092.517578"/>
     <use xlink:href="#DejaVuSans-20" x="3178.796875"/>
     <use xlink:href="#DejaVuSans-77" x="3210.583984"/>
     <use xlink:href="#DejaVuSans-69" x="3292.371094"/>
     <use xlink:href="#DejaVuSans-74" x="3320.154297"/>
     <use xlink:href="#DejaVuSans-68" x="3359.363281"/>
     <use xlink:href="#DejaVuSans-20" x="3422.742188"/>
     <use xlink:href="#DejaVuSans-4c" x="3454.529297"/>
     <use xlink:href="#DejaVuSans-3d" x="3510.242188"/>
     <use xlink:href="#DejaVuSans-31" x="3594.03125"/>
    </g>
   </g>
   <g id="legend_1">
    <g id="patch_7">
     <path d="M 328.760625 302.584 
L 407.72 302.584 
Q 409.72 302.584 409.72 300.584 
L 409.72 140.124625 
Q 409.72 138.124625 407.72 138.124625 
L 328.760625 138.124625 
Q 326.760625 138.124625 326.760625 140.124625 
L 326.760625 300.584 
Q 326.760625 302.584 328.760625 302.584 
z
" style="fill: #ffffff; opacity: 0.8; stroke: #cccccc; stroke-linejoin: miter"/>
    </g>
    <g id="line2d_26">
     <path d="M 330.760625 146.223062 
L 340.760625 146.223062 
L 350.760625 146.223062 
" style="fill: none; stroke: #1f77b4; stroke-width: 1.5; stroke-linecap: square"/>
    </g>
    <g id="text_18">
     <!-- QBER: 1 -->
     <g transform="translate(358.760625 149.723062)scale(0.1 -0.1)">
      <defs>
       <path id="DejaVuSans-3a" d="M 750 794 
L 1409 794 
L 1409 0 
L 750 0 
L 750 794 
z
M 750 3309 
L 1409 3309 
L 1409 2516 
L 750 2516 
L 750 3309 
z
" transform="scale(0.015625)"/>
      </defs>
      <use xlink:href="#DejaVuSans-51"/>
      <use xlink:href="#DejaVuSans-42" x="78.710938"/>
      <use xlink:href="#DejaVuSans-45" x="147.314453"/>
      <use xlink:href="#DejaVuSans-52" x="210.498047"/>
      <use xlink:href="#DejaVuSans-3a" x="276.855469"/>
      <use xlink:href="#DejaVuSans-20" x="310.546875"/>
      <use xlink:href="#DejaVuSans-31" x="342.333984"/>
     </g>
    </g>
    <g id="line2d_27">
     <path d="M 330.760625 160.901188 
L 340.760625 160.901188 
L 350.760625 160.901188 
" style="fill: none; stroke: #ff7f0e; stroke-width: 1.5; stroke-linecap: square"/>
    </g>
    <g id="text_19">
     <!-- QBER: 2 -->
     <g transform="translate(358.760625 164.401188)scale(0.1 -0.1)">
      <use xlink:href="#DejaVuSans-51"/>
      <use xlink:href="#DejaVuSans-42" x="78.710938"/>
      <use xlink:href="#DejaVuSans-45" x="147.314453"/>
      <use xlink:href="#DejaVuSans-52" x="210.498047"/>
      <use xlink:href="#DejaVuSans-3a" x="276.855469"/>
      <use xlink:href="#DejaVuSans-20" x="310.546875"/>
      <use xlink:href="#DejaVuSans-32" x="342.333984"/>
     </g>
    </g>
    <g id="line2d_28">
     <path d="M 330.760625 175.579313 
L 340.760625 175.579313 
L 350.760625 175.579313 
" style="fill: none; stroke: #2ca02c; stroke-width: 1.5; stroke-linecap: square"/>
    </g>
    <g id="text_20">
     <!-- QBER: 3 -->
     <g transform="translate(358.760625 179.079313)scale(0.1 -0.1)">
      <defs>
       <path id="DejaVuSans-33" d="M 2597 2516 
Q 3050 2419 3304 2112 
Q 3559 1806 3559 1356 
Q 3559 666 3084 287 
Q 2609 -91 1734 -91 
Q 1441 -91 1130 -33 
Q 819 25 488 141 
L 488 750 
Q 750 597 1062 519 
Q 1375 441 1716 441 
Q 2309 441 2620 675 
Q 2931 909 2931 1356 
Q 2931 1769 2642 2001 
Q 2353 2234 1838 2234 
L 1294 2234 
L 1294 2753 
L 1863 2753 
Q 2328 2753 2575 2939 
Q 2822 3125 2822 3475 
Q 2822 3834 2567 4026 
Q 2313 4219 1838 4219 
Q 1578 4219 1281 4162 
Q 984 4106 628 3988 
L 628 4550 
Q 988 4650 1302 4700 
Q 1616 4750 1894 4750 
Q 2613 4750 3031 4423 
Q 3450 4097 3450 3541 
Q 3450 3153 3228 2886 
Q 3006 2619 2597 2516 
z
" transform="scale(0.015625)"/>
      </defs>
      <use xlink:href="#DejaVuSans-51"/>
      <use xlink:href="#DejaVuSans-42" x="78.710938"/>
      <use xlink:href="#DejaVuSans-45" x="147.314453"/>
      <use xlink:href="#DejaVuSans-52" x="210.498047"/>
      <use xlink:href="#DejaVuSans-3a" x="276.855469"/>
      <use xlink:href="#DejaVuSans-20" x="310.546875"/>
      <use xlink:href="#DejaVuSans-33" x="342.333984"/>
     </g>
    </g>
    <g id="line2d_29">
     <path d="M 330.760625 190.257438 
L 340.760625 190.257438 
L 350.760625 190.257438 
" style="fill: none; stroke: #d62728; stroke-width: 1.5; stroke-linecap: square"/>
    </g>
    <g id="text_21">
     <!-- QBER: 4 -->
     <g transform="translate(358.760625 193.757438)scale(0.1 -0.1)">
      <defs>
       <path id="DejaVuSans-34" d="M 2419 4116 
L 825 1625 
L 2419 1625 
L 2419 4116 
z
M 2253 4666 
L 3047 4666 
L 3047 1625 
L 3713 1625 
L 3713 1100 
L 3047 1100 
L 3047 0 
L 2419 0 
L 2419 1100 
L 313 1100 
L 313 1709 
L 2253 4666 
z
" transform="scale(0.015625)"/>
      </defs>
      <use xlink:href="#DejaVuSans-51"/>
      <use xlink:href="#DejaVuSans-42" x="78.710938"/>
      <use xlink:href="#DejaVuSans-45" x="147.314453"/>
      <use xlink:href="#DejaVuSans-52" x="210.498047"/>
      <use xlink:href="#DejaVuSans-3a" x="276.855469"/>
      <use xlink:href="#DejaVuSans-20" x="310.546875"/>
      <use xlink:href="#DejaVuSans-34" x="342.333984"/>
     </g>
    </g>
    <g id="line2d_30">
     <path d="M 330.760625 204.935563 
L 340.760625 204.935563 
L 350.760625 204.935563 
" style="fill: none; stroke: #9467bd; stroke-width: 1.5; stroke-linecap: square"/>
    </g>
    <g id="text_22">
     <!-- QBER: 5 -->
     <g transform="translate(358.760625 208.435563)scale(0.1 -0.1)">
      <use xlink:href="#DejaVuSans-51"/>
      <use xlink:href="#DejaVuSans-42" x="78.710938"/>
      <use xlink:href="#DejaVuSans-45" x="147.314453"/>
      <use xlink:href="#DejaVuSans-52" x="210.498047"/>
      <use xlink:href="#DejaVuSans-3a" x="276.855469"/>
      <use xlink:href="#DejaVuSans-20" x="310.546875"/>
      <use xlink:href="#DejaVuSans-35" x="342.333984"/>
     </g>
    </g>
    <g id="line2d_31">
     <path d="M 330.760625 219.613688 
L 340.760625 219.613688 
L 350.760625 219.613688 
" style="fill: none; stroke: #8c564b; stroke-width: 1.5; stroke-linecap: square"/>
    </g>
    <g id="text_23">
     <!-- QBER: 6 -->
     <g transform="translate(358.760625 223.113688)scale(0.1 -0.1)">
      <defs>
       <path id="DejaVuSans-36" d="M 2113 2584 
Q 1688 2584 1439 2293 
Q 1191 2003 1191 1497 
Q 1191 994 1439 701 
Q 1688 409 2113 409 
Q 2538 409 2786 701 
Q 3034 994 3034 1497 
Q 3034 2003 2786 2293 
Q 2538 2584 2113 2584 
z
M 3366 4563 
L 3366 3988 
Q 3128 4100 2886 4159 
Q 2644 4219 2406 4219 
Q 1781 4219 1451 3797 
Q 1122 3375 1075 2522 
Q 1259 2794 1537 2939 
Q 1816 3084 2150 3084 
Q 2853 3084 3261 2657 
Q 3669 2231 3669 1497 
Q 3669 778 3244 343 
Q 2819 -91 2113 -91 
Q 1303 -91 875 529 
Q 447 1150 447 2328 
Q 447 3434 972 4092 
Q 1497 4750 2381 4750 
Q 2619 4750 2861 4703 
Q 3103 4656 3366 4563 
z
" transform="scale(0.015625)"/>
      </defs>
      <use xlink:href="#DejaVuSans-51"/>
      <use xlink:href="#DejaVuSans-42" x="78.710938"/>
      <use xlink:href="#DejaVuSans-45" x="147.314453"/>
      <use xlink:href="#DejaVuSans-52" x="210.498047"/>
      <use xlink:href="#DejaVuSans-3a" x="276.855469"/>
      <use xlink:href="#DejaVuSans-20" x="310.546875"/>
      <use xlink:href="#DejaVuSans-36" x="342.333984"/>
     </g>
    </g>
    <g id="line2d_32">
     <path d="M 330.760625 234.291812 
L 340.760625 234.291812 
L 350.760625 234.291812 
" style="fill: none; stroke: #e377c2; stroke-width: 1.5; stroke-linecap: square"/>
    </g>
    <g id="text_24">
     <!-- QBER: 7 -->
     <g transform="translate(358.760625 237.791812)scale(0.1 -0.1)">
      <use xlink:href="#DejaVuSans-51"/>
      <use xlink:href="#DejaVuSans-42" x="78.710938"/>
      <use xlink:href="#DejaVuSans-45" x="147.314453"/>
      <use xlink:href="#DejaVuSans-52" x="210.498047"/>
      <use xlink:href="#DejaVuSans-3a" x="276.855469"/>
      <use xlink:href="#DejaVuSans-20" x="310.546875"/>
      <use xlink:href="#DejaVuSans-37" x="342.333984"/>
     </g>
    </g>
    <g id="line2d_33">
     <path d="M 330.760625 248.969938 
L 340.760625 248.969938 
L 350.760625 248.969938 
" style="fill: none; stroke: #7f7f7f; stroke-width: 1.5; stroke-linecap: square"/>
    </g>
    <g id="text_25">
     <!-- QBER: 8 -->
     <g transform="translate(358.760625 252.469938)scale(0.1 -0.1)">
      <defs>
       <path id="DejaVuSans-38" d="M 2034 2216 
Q 1584 2216 1326 1975 
Q 1069 1734 1069 1313 
Q 1069 891 1326 650 
Q 1584 409 2034 409 
Q 2484 409 2743 651 
Q 3003 894 3003 1313 
Q 3003 1734 2745 1975 
Q 2488 2216 2034 2216 
z
M 1403 2484 
Q 997 2584 770 2862 
Q 544 3141 544 3541 
Q 544 4100 942 4425 
Q 1341 4750 2034 4750 
Q 2731 4750 3128 4425 
Q 3525 4100 3525 3541 
Q 3525 3141 3298 2862 
Q 3072 2584 2669 2484 
Q 3125 2378 3379 2068 
Q 3634 1759 3634 1313 
Q 3634 634 3220 271 
Q 2806 -91 2034 -91 
Q 1263 -91 848 271 
Q 434 634 434 1313 
Q 434 1759 690 2068 
Q 947 2378 1403 2484 
z
M 1172 3481 
Q 1172 3119 1398 2916 
Q 1625 2713 2034 2713 
Q 2441 2713 2670 2916 
Q 2900 3119 2900 3481 
Q 2900 3844 2670 4047 
Q 2441 4250 2034 4250 
Q 1625 4250 1398 4047 
Q 1172 3844 1172 3481 
z
" transform="scale(0.015625)"/>
      </defs>
      <use xlink:href="#DejaVuSans-51"/>
      <use xlink:href="#DejaVuSans-42" x="78.710938"/>
      <use xlink:href="#DejaVuSans-45" x="147.314453"/>
      <use xlink:href="#DejaVuSans-52" x="210.498047"/>
      <use xlink:href="#DejaVuSans-3a" x="276.855469"/>
      <use xlink:href="#DejaVuSans-20" x="310.546875"/>
      <use xlink:href="#DejaVuSans-38" x="342.333984"/>
     </g>
    </g>
    <g id="line2d_34">
     <path d="M 330.760625 263.648062 
L 340.760625 263.648062 
L 350.760625 263.648062 
" style="fill: none; stroke: #bcbd22; stroke-width: 1.5; stroke-linecap: square"/>
    </g>
    <g id="text_26">
     <!-- QBER: 9 -->
     <g transform="translate(358.760625 267.148062)scale(0.1 -0.1)">
      <defs>
       <path id="DejaVuSans-39" d="M 703 97 
L 703 672 
Q 941 559 1184 500 
Q 1428 441 1663 441 
Q 2288 441 2617 861 
Q 2947 1281 2994 2138 
Q 2813 1869 2534 1725 
Q 2256 1581 1919 1581 
Q 1219 1581 811 2004 
Q 403 2428 403 3163 
Q 403 3881 828 4315 
Q 1253 4750 1959 4750 
Q 2769 4750 3195 4129 
Q 3622 3509 3622 2328 
Q 3622 1225 3098 567 
Q 2575 -91 1691 -91 
Q 1453 -91 1209 -44 
Q 966 3 703 97 
z
M 1959 2075 
Q 2384 2075 2632 2365 
Q 2881 2656 2881 3163 
Q 2881 3666 2632 3958 
Q 2384 4250 1959 4250 
Q 1534 4250 1286 3958 
Q 1038 3666 1038 3163 
Q 1038 2656 1286 2365 
Q 1534 2075 1959 2075 
z
" transform="scale(0.015625)"/>
      </defs>
      <use xlink:href="#DejaVuSans-51"/>
      <use xlink:href="#DejaVuSans-42" x="78.710938"/>
      <use xlink:href="#DejaVuSans-45" x="147.314453"/>
      <use xlink:href="#DejaVuSans-52" x="210.498047"/>
      <use xlink:href="#DejaVuSans-3a" x="276.855469"/>
      <use xlink:href="#DejaVuSans-20" x="310.546875"/>
      <use xlink:href="#DejaVuSans-39" x="342.333984"/>
     </g>
    </g>
    <g id="line2d_35">
     <path d="M 330.760625 278.326187 
L 340.760625 278.326187 
L 350.760625 278.326187 
" style="fill: none; stroke: #17becf; stroke-width: 1.5; stroke-linecap: square"/>
    </g>
    <g id="text_27">
     <!-- QBER: 10 -->
     <g transform="translate(358.760625 281.826187)scale(0.1 -0.1)">
      <use xlink:href="#DejaVuSans-51"/>
      <use xlink:href="#DejaVuSans-42" x="78.710938"/>
      <use xlink:href="#DejaVuSans-45" x="147.314453"/>
      <use xlink:href="#DejaVuSans-52" x="210.498047"/>
      <use xlink:href="#DejaVuSans-3a" x="276.855469"/>
      <use xlink:href="#DejaVuSans-20" x="310.546875"/>
      <use xlink:href="#DejaVuSans-31" x="342.333984"/>
      <use xlink:href="#DejaVuSans-30" x="405.957031"/>
     </g>
    </g>
    <g id="line2d_36">
     <path d="M 330.760625 293.004312 
L 340.760625 293.004312 
L 350.760625 293.004312 
" style="fill: none; stroke: #1f77b4; stroke-width: 1.5; stroke-linecap: square"/>
    </g>
    <g id="text_28">
     <!-- QBER: 11 -->
     <g transform="translate(358.760625 296.504312)scale(0.1 -0.1)">
      <use xlink:href="#DejaVuSans-51"/>
      <use xlink:href="#DejaVuSans-42" x="78.710938"/>
      <use xlink:href="#DejaVuSans-45" x="147.314453"/>
      <use xlink:href="#DejaVuSans-52" x="210.498047"/>
      <use xlink:href="#DejaVuSans-3a" x="276.855469"/>
      <use xlink:href="#DejaVuSans-20" x="310.546875"/>
      <use xlink:href="#DejaVuSans-31" x="342.333984"/>
      <use xlink:href="#DejaVuSans-31" x="405.957031"/>
     </g>
    </g>
   </g>
  </g>
 </g>
 <defs>
  <clipPath id="p2e50c48dac">
   <rect x="57.6" y="41.472" width="357.12" height="266.112"/>
  </clipPath>
 </defs>
</svg>
