<?xml version="1.0" encoding="utf-8" standalone="no"?>
<!DOCTYPE svg PUBLIC "-//W3C//DTD SVG 1.1//EN"
  "http://www.w3.org/Graphics/SVG/1.1/DTD/svg11.dtd">
<svg xmlns:xlink="http://www.w3.org/1999/xlink" width="460.8pt" height="345.6pt" viewBox="0 0 460.8 345.6" xmlns="http://www.w3.org/2000/svg" version="1.1">
 <metadata>
  <rdf:RDF xmlns:dc="http://purl.org/dc/elements/1.1/" xmlns:cc="http://creativecommons.org/ns#" xmlns:rdf="http://www.w3.org/1999/02/22-rdf-syntax-ns#">
   <cc:Work>
    <dc:type rdf:resource="http://purl.org/dc/dcmitype/StillImage"/>
    <dc:date>2023-09-07T07:52:24.051275</dc:date>
    <dc:format>image/svg+xml</dc:format>
    <dc:creator>
     <cc:Agent>
      <dc:title>Matplotlib v3.5.3, https://matplotlib.org/</dc:title>
     </cc:Agent>
    </dc:creator>
   </cc:Work>
  </rdf:RDF>
 </metadata>
 <defs>
  <style type="text/css">*{stroke-linejoin: round; stroke-linecap: butt}</style>
 </defs>
 <g id="figure_1">
  <g id="patch_1">
   <path d="M 0 345.6 
L 460.8 345.6 
L 460.8 0 
L 0 0 
z
" style="fill: #ffffff"/>
  </g>
  <g id="axes_1">
   <g id="patch_2">
    <path d="M 57.6 307.584 
L 414.72 307.584 
L 414.72 41.472 
L 57.6 41.472 
z
" style="fill: #ffffff"/>
   </g>
   <g id="matplotlib.axis_1">
    <g id="xtick_1">
     <g id="line2d_1">
      <defs>
       <path id="maf3e019551" d="M 0 0 
L 0 3.5 
" style="stroke: #000000; stroke-width: 0.8"/>
      </defs>
      <g>
       <use xlink:href="#maf3e019551" x="73.351758" y="307.584" style="stroke: #000000; stroke-width: 0.8"/>
      </g>
     </g>
     <g id="text_1">
      <!-- 0 -->
      <g transform="translate(70.170508 322.182437)scale(0.1 -0.1)">
       <defs>
        <path id="DejaVuSans-30" d="M 2034 4250 
Q 1547 4250 1301 3770 
Q 1056 3291 1056 2328 
Q 1056 1369 1301 889 
Q 1547 409 2034 409 
Q 2525 409 2770 889 
Q 3016 1369 3016 2328 
Q 3016 3291 2770 3770 
Q 2525 4250 2034 4250 
z
M 2034 4750 
Q 2819 4750 3233 4129 
Q 3647 3509 3647 2328 
Q 3647 1150 3233 529 
Q 2819 -91 2034 -91 
Q 1250 -91 836 529 
Q 422 1150 422 2328 
Q 422 3509 836 4129 
Q 1250 4750 2034 4750 
z
" transform="scale(0.015625)"/>
       </defs>
       <use xlink:href="#DejaVuSans-30"/>
      </g>
     </g>
    </g>
    <g id="xtick_2">
     <g id="line2d_2">
      <g>
       <use xlink:href="#maf3e019551" x="121.448727" y="307.584" style="stroke: #000000; stroke-width: 0.8"/>
      </g>
     </g>
     <g id="text_2">
      <!-- 2500 -->
      <g transform="translate(108.723727 322.182437)scale(0.1 -0.1)">
       <defs>
        <path id="DejaVuSans-32" d="M 1228 531 
L 3431 531 
L 3431 0 
L 469 0 
L 469 531 
Q 828 903 1448 1529 
Q 2069 2156 2228 2338 
Q 2531 2678 2651 2914 
Q 2772 3150 2772 3378 
Q 2772 3750 2511 3984 
Q 2250 4219 1831 4219 
Q 1534 4219 1204 4116 
Q 875 4013 500 3803 
L 500 4441 
Q 881 4594 1212 4672 
Q 1544 4750 1819 4750 
Q 2544 4750 2975 4387 
Q 3406 4025 3406 3419 
Q 3406 3131 3298 2873 
Q 3191 2616 2906 2266 
Q 2828 2175 2409 1742 
Q 1991 1309 1228 531 
z
" transform="scale(0.015625)"/>
        <path id="DejaVuSans-35" d="M 691 4666 
L 3169 4666 
L 3169 4134 
L 1269 4134 
L 1269 2991 
Q 1406 3038 1543 3061 
Q 1681 3084 1819 3084 
Q 2600 3084 3056 2656 
Q 3513 2228 3513 1497 
Q 3513 744 3044 326 
Q 2575 -91 1722 -91 
Q 1428 -91 1123 -41 
Q 819 9 494 109 
L 494 744 
Q 775 591 1075 516 
Q 1375 441 1709 441 
Q 2250 441 2565 725 
Q 2881 1009 2881 1497 
Q 2881 1984 2565 2268 
Q 2250 2553 1709 2553 
Q 1456 2553 1204 2497 
Q 953 2441 691 2322 
L 691 4666 
z
" transform="scale(0.015625)"/>
       </defs>
       <use xlink:href="#DejaVuSans-32"/>
       <use xlink:href="#DejaVuSans-35" x="63.623047"/>
       <use xlink:href="#DejaVuSans-30" x="127.246094"/>
       <use xlink:href="#DejaVuSans-30" x="190.869141"/>
      </g>
     </g>
    </g>
    <g id="xtick_3">
     <g id="line2d_3">
      <g>
       <use xlink:href="#maf3e019551" x="169.545697" y="307.584" style="stroke: #000000; stroke-width: 0.8"/>
      </g>
     </g>
     <g id="text_3">
      <!-- 5000 -->
      <g transform="translate(156.820697 322.182437)scale(0.1 -0.1)">
       <use xlink:href="#DejaVuSans-35"/>
       <use xlink:href="#DejaVuSans-30" x="63.623047"/>
       <use xlink:href="#DejaVuSans-30" x="127.246094"/>
       <use xlink:href="#DejaVuSans-30" x="190.869141"/>
      </g>
     </g>
    </g>
    <g id="xtick_4">
     <g id="line2d_4">
      <g>
       <use xlink:href="#maf3e019551" x="217.642667" y="307.584" style="stroke: #000000; stroke-width: 0.8"/>
      </g>
     </g>
     <g id="text_4">
      <!-- 7500 -->
      <g transform="translate(204.917667 322.182437)scale(0.1 -0.1)">
       <defs>
        <path id="DejaVuSans-37" d="M 525 4666 
L 3525 4666 
L 3525 4397 
L 1831 0 
L 1172 0 
L 2766 4134 
L 525 4134 
L 525 4666 
z
" transform="scale(0.015625)"/>
       </defs>
       <use xlink:href="#DejaVuSans-37"/>
       <use xlink:href="#DejaVuSans-35" x="63.623047"/>
       <use xlink:href="#DejaVuSans-30" x="127.246094"/>
       <use xlink:href="#DejaVuSans-30" x="190.869141"/>
      </g>
     </g>
    </g>
    <g id="xtick_5">
     <g id="line2d_5">
      <g>
       <use xlink:href="#maf3e019551" x="265.739636" y="307.584" style="stroke: #000000; stroke-width: 0.8"/>
      </g>
     </g>
     <g id="text_5">
      <!-- 10000 -->
      <g transform="translate(249.833386 322.182437)scale(0.1 -0.1)">
       <defs>
        <path id="DejaVuSans-31" d="M 794 531 
L 1825 531 
L 1825 4091 
L 703 3866 
L 703 4441 
L 1819 4666 
L 2450 4666 
L 2450 531 
L 3481 531 
L 3481 0 
L 794 0 
L 794 531 
z
" transform="scale(0.015625)"/>
       </defs>
       <use xlink:href="#DejaVuSans-31"/>
       <use xlink:href="#DejaVuSans-30" x="63.623047"/>
       <use xlink:href="#DejaVuSans-30" x="127.246094"/>
       <use xlink:href="#DejaVuSans-30" x="190.869141"/>
       <use xlink:href="#DejaVuSans-30" x="254.492188"/>
      </g>
     </g>
    </g>
    <g id="xtick_6">
     <g id="line2d_6">
      <g>
       <use xlink:href="#maf3e019551" x="313.836606" y="307.584" style="stroke: #000000; stroke-width: 0.8"/>
      </g>
     </g>
     <g id="text_6">
      <!-- 12500 -->
      <g transform="translate(297.930356 322.182437)scale(0.1 -0.1)">
       <use xlink:href="#DejaVuSans-31"/>
       <use xlink:href="#DejaVuSans-32" x="63.623047"/>
       <use xlink:href="#DejaVuSans-35" x="127.246094"/>
       <use xlink:href="#DejaVuSans-30" x="190.869141"/>
       <use xlink:href="#DejaVuSans-30" x="254.492188"/>
      </g>
     </g>
    </g>
    <g id="xtick_7">
     <g id="line2d_7">
      <g>
       <use xlink:href="#maf3e019551" x="361.933576" y="307.584" style="stroke: #000000; stroke-width: 0.8"/>
      </g>
     </g>
     <g id="text_7">
      <!-- 15000 -->
      <g transform="translate(346.027326 322.182437)scale(0.1 -0.1)">
       <use xlink:href="#DejaVuSans-31"/>
       <use xlink:href="#DejaVuSans-35" x="63.623047"/>
       <use xlink:href="#DejaVuSans-30" x="127.246094"/>
       <use xlink:href="#DejaVuSans-30" x="190.869141"/>
       <use xlink:href="#DejaVuSans-30" x="254.492188"/>
      </g>
     </g>
    </g>
    <g id="xtick_8">
     <g id="line2d_8">
      <g>
       <use xlink:href="#maf3e019551" x="410.030545" y="307.584" style="stroke: #000000; stroke-width: 0.8"/>
      </g>
     </g>
     <g id="text_8">
      <!-- 17500 -->
      <g transform="translate(394.124295 322.182437)scale(0.1 -0.1)">
       <use xlink:href="#DejaVuSans-31"/>
       <use xlink:href="#DejaVuSans-37" x="63.623047"/>
       <use xlink:href="#DejaVuSans-35" x="127.246094"/>
       <use xlink:href="#DejaVuSans-30" x="190.869141"/>
       <use xlink:href="#DejaVuSans-30" x="254.492188"/>
      </g>
     </g>
    </g>
    <g id="text_9">
     <!-- Number of input neurons multiplied by number of hidden neurons [N*K] -->
     <g transform="translate(56.102969 335.860562)scale(0.1 -0.1)">
      <defs>
       <path id="DejaVuSans-4e" d="M 628 4666 
L 1478 4666 
L 3547 763 
L 3547 4666 
L 4159 4666 
L 4159 0 
L 3309 0 
L 1241 3903 
L 1241 0 
L 628 0 
L 628 4666 
z
" transform="scale(0.015625)"/>
       <path id="DejaVuSans-75" d="M 544 1381 
L 544 3500 
L 1119 3500 
L 1119 1403 
Q 1119 906 1312 657 
Q 1506 409 1894 409 
Q 2359 409 2629 706 
Q 2900 1003 2900 1516 
L 2900 3500 
L 3475 3500 
L 3475 0 
L 2900 0 
L 2900 538 
Q 2691 219 2414 64 
Q 2138 -91 1772 -91 
Q 1169 -91 856 284 
Q 544 659 544 1381 
z
M 1991 3584 
L 1991 3584 
z
" transform="scale(0.015625)"/>
       <path id="DejaVuSans-6d" d="M 3328 2828 
Q 3544 3216 3844 3400 
Q 4144 3584 4550 3584 
Q 5097 3584 5394 3201 
Q 5691 2819 5691 2113 
L 5691 0 
L 5113 0 
L 5113 2094 
Q 5113 2597 4934 2840 
Q 4756 3084 4391 3084 
Q 3944 3084 3684 2787 
Q 3425 2491 3425 1978 
L 3425 0 
L 2847 0 
L 2847 2094 
Q 2847 2600 2669 2842 
Q 2491 3084 2119 3084 
Q 1678 3084 1418 2786 
Q 1159 2488 1159 1978 
L 1159 0 
L 581 0 
L 581 3500 
L 1159 3500 
L 1159 2956 
Q 1356 3278 1631 3431 
Q 1906 3584 2284 3584 
Q 2666 3584 2933 3390 
Q 3200 3197 3328 2828 
z
" transform="scale(0.015625)"/>
       <path id="DejaVuSans-62" d="M 3116 1747 
Q 3116 2381 2855 2742 
Q 2594 3103 2138 3103 
Q 1681 3103 1420 2742 
Q 1159 2381 1159 1747 
Q 1159 1113 1420 752 
Q 1681 391 2138 391 
Q 2594 391 2855 752 
Q 3116 1113 3116 1747 
z
M 1159 2969 
Q 1341 3281 1617 3432 
Q 1894 3584 2278 3584 
Q 2916 3584 3314 3078 
Q 3713 2572 3713 1747 
Q 3713 922 3314 415 
Q 2916 -91 2278 -91 
Q 1894 -91 1617 61 
Q 1341 213 1159 525 
L 1159 0 
L 581 0 
L 581 4863 
L 1159 4863 
L 1159 2969 
z
" transform="scale(0.015625)"/>
       <path id="DejaVuSans-65" d="M 3597 1894 
L 3597 1613 
L 953 1613 
Q 991 1019 1311 708 
Q 1631 397 2203 397 
Q 2534 397 2845 478 
Q 3156 559 3463 722 
L 3463 178 
Q 3153 47 2828 -22 
Q 2503 -91 2169 -91 
Q 1331 -91 842 396 
Q 353 884 353 1716 
Q 353 2575 817 3079 
Q 1281 3584 2069 3584 
Q 2775 3584 3186 3129 
Q 3597 2675 3597 1894 
z
M 3022 2063 
Q 3016 2534 2758 2815 
Q 2500 3097 2075 3097 
Q 1594 3097 1305 2825 
Q 1016 2553 972 2059 
L 3022 2063 
z
" transform="scale(0.015625)"/>
       <path id="DejaVuSans-72" d="M 2631 2963 
Q 2534 3019 2420 3045 
Q 2306 3072 2169 3072 
Q 1681 3072 1420 2755 
Q 1159 2438 1159 1844 
L 1159 0 
L 581 0 
L 581 3500 
L 1159 3500 
L 1159 2956 
Q 1341 3275 1631 3429 
Q 1922 3584 2338 3584 
Q 2397 3584 2469 3576 
Q 2541 3569 2628 3553 
L 2631 2963 
z
" transform="scale(0.015625)"/>
       <path id="DejaVuSans-20" transform="scale(0.015625)"/>
       <path id="DejaVuSans-6f" d="M 1959 3097 
Q 1497 3097 1228 2736 
Q 959 2375 959 1747 
Q 959 1119 1226 758 
Q 1494 397 1959 397 
Q 2419 397 2687 759 
Q 2956 1122 2956 1747 
Q 2956 2369 2687 2733 
Q 2419 3097 1959 3097 
z
M 1959 3584 
Q 2709 3584 3137 3096 
Q 3566 2609 3566 1747 
Q 3566 888 3137 398 
Q 2709 -91 1959 -91 
Q 1206 -91 779 398 
Q 353 888 353 1747 
Q 353 2609 779 3096 
Q 1206 3584 1959 3584 
z
" transform="scale(0.015625)"/>
       <path id="DejaVuSans-66" d="M 2375 4863 
L 2375 4384 
L 1825 4384 
Q 1516 4384 1395 4259 
Q 1275 4134 1275 3809 
L 1275 3500 
L 2222 3500 
L 2222 3053 
L 1275 3053 
L 1275 0 
L 697 0 
L 697 3053 
L 147 3053 
L 147 3500 
L 697 3500 
L 697 3744 
Q 697 4328 969 4595 
Q 1241 4863 1831 4863 
L 2375 4863 
z
" transform="scale(0.015625)"/>
       <path id="DejaVuSans-69" d="M 603 3500 
L 1178 3500 
L 1178 0 
L 603 0 
L 603 3500 
z
M 603 4863 
L 1178 4863 
L 1178 4134 
L 603 4134 
L 603 4863 
z
" transform="scale(0.015625)"/>
       <path id="DejaVuSans-6e" d="M 3513 2113 
L 3513 0 
L 2938 0 
L 2938 2094 
Q 2938 2591 2744 2837 
Q 2550 3084 2163 3084 
Q 1697 3084 1428 2787 
Q 1159 2491 1159 1978 
L 1159 0 
L 581 0 
L 581 3500 
L 1159 3500 
L 1159 2956 
Q 1366 3272 1645 3428 
Q 1925 3584 2291 3584 
Q 2894 3584 3203 3211 
Q 3513 2838 3513 2113 
z
" transform="scale(0.015625)"/>
       <path id="DejaVuSans-70" d="M 1159 525 
L 1159 -1331 
L 581 -1331 
L 581 3500 
L 1159 3500 
L 1159 2969 
Q 1341 3281 1617 3432 
Q 1894 3584 2278 3584 
Q 2916 3584 3314 3078 
Q 3713 2572 3713 1747 
Q 3713 922 3314 415 
Q 2916 -91 2278 -91 
Q 1894 -91 1617 61 
Q 1341 213 1159 525 
z
M 3116 1747 
Q 3116 2381 2855 2742 
Q 2594 3103 2138 3103 
Q 1681 3103 1420 2742 
Q 1159 2381 1159 1747 
Q 1159 1113 1420 752 
Q 1681 391 2138 391 
Q 2594 391 2855 752 
Q 3116 1113 3116 1747 
z
" transform="scale(0.015625)"/>
       <path id="DejaVuSans-74" d="M 1172 4494 
L 1172 3500 
L 2356 3500 
L 2356 3053 
L 1172 3053 
L 1172 1153 
Q 1172 725 1289 603 
Q 1406 481 1766 481 
L 2356 481 
L 2356 0 
L 1766 0 
Q 1100 0 847 248 
Q 594 497 594 1153 
L 594 3053 
L 172 3053 
L 172 3500 
L 594 3500 
L 594 4494 
L 1172 4494 
z
" transform="scale(0.015625)"/>
       <path id="DejaVuSans-73" d="M 2834 3397 
L 2834 2853 
Q 2591 2978 2328 3040 
Q 2066 3103 1784 3103 
Q 1356 3103 1142 2972 
Q 928 2841 928 2578 
Q 928 2378 1081 2264 
Q 1234 2150 1697 2047 
L 1894 2003 
Q 2506 1872 2764 1633 
Q 3022 1394 3022 966 
Q 3022 478 2636 193 
Q 2250 -91 1575 -91 
Q 1294 -91 989 -36 
Q 684 19 347 128 
L 347 722 
Q 666 556 975 473 
Q 1284 391 1588 391 
Q 1994 391 2212 530 
Q 2431 669 2431 922 
Q 2431 1156 2273 1281 
Q 2116 1406 1581 1522 
L 1381 1569 
Q 847 1681 609 1914 
Q 372 2147 372 2553 
Q 372 3047 722 3315 
Q 1072 3584 1716 3584 
Q 2034 3584 2315 3537 
Q 2597 3491 2834 3397 
z
" transform="scale(0.015625)"/>
       <path id="DejaVuSans-6c" d="M 603 4863 
L 1178 4863 
L 1178 0 
L 603 0 
L 603 4863 
z
" transform="scale(0.015625)"/>
       <path id="DejaVuSans-64" d="M 2906 2969 
L 2906 4863 
L 3481 4863 
L 3481 0 
L 2906 0 
L 2906 525 
Q 2725 213 2448 61 
Q 2172 -91 1784 -91 
Q 1150 -91 751 415 
Q 353 922 353 1747 
Q 353 2572 751 3078 
Q 1150 3584 1784 3584 
Q 2172 3584 2448 3432 
Q 2725 3281 2906 2969 
z
M 947 1747 
Q 947 1113 1208 752 
Q 1469 391 1925 391 
Q 2381 391 2643 752 
Q 2906 1113 2906 1747 
Q 2906 2381 2643 2742 
Q 2381 3103 1925 3103 
Q 1469 3103 1208 2742 
Q 947 2381 947 1747 
z
" transform="scale(0.015625)"/>
       <path id="DejaVuSans-79" d="M 2059 -325 
Q 1816 -950 1584 -1140 
Q 1353 -1331 966 -1331 
L 506 -1331 
L 506 -850 
L 844 -850 
Q 1081 -850 1212 -737 
Q 1344 -625 1503 -206 
L 1606 56 
L 191 3500 
L 800 3500 
L 1894 763 
L 2988 3500 
L 3597 3500 
L 2059 -325 
z
" transform="scale(0.015625)"/>
       <path id="DejaVuSans-68" d="M 3513 2113 
L 3513 0 
L 2938 0 
L 2938 2094 
Q 2938 2591 2744 2837 
Q 2550 3084 2163 3084 
Q 1697 3084 1428 2787 
Q 1159 2491 1159 1978 
L 1159 0 
L 581 0 
L 581 4863 
L 1159 4863 
L 1159 2956 
Q 1366 3272 1645 3428 
Q 1925 3584 2291 3584 
Q 2894 3584 3203 3211 
Q 3513 2838 3513 2113 
z
" transform="scale(0.015625)"/>
       <path id="DejaVuSans-5b" d="M 550 4863 
L 1875 4863 
L 1875 4416 
L 1125 4416 
L 1125 -397 
L 1875 -397 
L 1875 -844 
L 550 -844 
L 550 4863 
z
" transform="scale(0.015625)"/>
       <path id="DejaVuSans-2a" d="M 3009 3897 
L 1888 3291 
L 3009 2681 
L 2828 2375 
L 1778 3009 
L 1778 1831 
L 1422 1831 
L 1422 3009 
L 372 2375 
L 191 2681 
L 1313 3291 
L 191 3897 
L 372 4206 
L 1422 3572 
L 1422 4750 
L 1778 4750 
L 1778 3572 
L 2828 4206 
L 3009 3897 
z
" transform="scale(0.015625)"/>
       <path id="DejaVuSans-4b" d="M 628 4666 
L 1259 4666 
L 1259 2694 
L 3353 4666 
L 4166 4666 
L 1850 2491 
L 4331 0 
L 3500 0 
L 1259 2247 
L 1259 0 
L 628 0 
L 628 4666 
z
" transform="scale(0.015625)"/>
       <path id="DejaVuSans-5d" d="M 1947 4863 
L 1947 -844 
L 622 -844 
L 622 -397 
L 1369 -397 
L 1369 4416 
L 622 4416 
L 622 4863 
L 1947 4863 
z
" transform="scale(0.015625)"/>
      </defs>
      <use xlink:href="#DejaVuSans-4e"/>
      <use xlink:href="#DejaVuSans-75" x="74.804688"/>
      <use xlink:href="#DejaVuSans-6d" x="138.183594"/>
      <use xlink:href="#DejaVuSans-62" x="235.595703"/>
      <use xlink:href="#DejaVuSans-65" x="299.072266"/>
      <use xlink:href="#DejaVuSans-72" x="360.595703"/>
      <use xlink:href="#DejaVuSans-20" x="401.708984"/>
      <use xlink:href="#DejaVuSans-6f" x="433.496094"/>
      <use xlink:href="#DejaVuSans-66" x="494.677734"/>
      <use xlink:href="#DejaVuSans-20" x="529.882812"/>
      <use xlink:href="#DejaVuSans-69" x="561.669922"/>
      <use xlink:href="#DejaVuSans-6e" x="589.453125"/>
      <use xlink:href="#DejaVuSans-70" x="652.832031"/>
      <use xlink:href="#DejaVuSans-75" x="716.308594"/>
      <use xlink:href="#DejaVuSans-74" x="779.6875"/>
      <use xlink:href="#DejaVuSans-20" x="818.896484"/>
      <use xlink:href="#DejaVuSans-6e" x="850.683594"/>
      <use xlink:href="#DejaVuSans-65" x="914.0625"/>
      <use xlink:href="#DejaVuSans-75" x="975.585938"/>
      <use xlink:href="#DejaVuSans-72" x="1038.964844"/>
      <use xlink:href="#DejaVuSans-6f" x="1077.828125"/>
      <use xlink:href="#DejaVuSans-6e" x="1139.009766"/>
      <use xlink:href="#DejaVuSans-73" x="1202.388672"/>
      <use xlink:href="#DejaVuSans-20" x="1254.488281"/>
      <use xlink:href="#DejaVuSans-6d" x="1286.275391"/>
      <use xlink:href="#DejaVuSans-75" x="1383.6875"/>
      <use xlink:href="#DejaVuSans-6c" x="1447.066406"/>
      <use xlink:href="#DejaVuSans-74" x="1474.849609"/>
      <use xlink:href="#DejaVuSans-69" x="1514.058594"/>
      <use xlink:href="#DejaVuSans-70" x="1541.841797"/>
      <use xlink:href="#DejaVuSans-6c" x="1605.318359"/>
      <use xlink:href="#DejaVuSans-69" x="1633.101562"/>
      <use xlink:href="#DejaVuSans-65" x="1660.884766"/>
      <use xlink:href="#DejaVuSans-64" x="1722.408203"/>
      <use xlink:href="#DejaVuSans-20" x="1785.884766"/>
      <use xlink:href="#DejaVuSans-62" x="1817.671875"/>
      <use xlink:href="#DejaVuSans-79" x="1881.148438"/>
      <use xlink:href="#DejaVuSans-20" x="1940.328125"/>
      <use xlink:href="#DejaVuSans-6e" x="1972.115234"/>
      <use xlink:href="#DejaVuSans-75" x="2035.494141"/>
      <use xlink:href="#DejaVuSans-6d" x="2098.873047"/>
      <use xlink:href="#DejaVuSans-62" x="2196.285156"/>
      <use xlink:href="#DejaVuSans-65" x="2259.761719"/>
      <use xlink:href="#DejaVuSans-72" x="2321.285156"/>
      <use xlink:href="#DejaVuSans-20" x="2362.398438"/>
      <use xlink:href="#DejaVuSans-6f" x="2394.185547"/>
      <use xlink:href="#DejaVuSans-66" x="2455.367188"/>
      <use xlink:href="#DejaVuSans-20" x="2490.572266"/>
      <use xlink:href="#DejaVuSans-68" x="2522.359375"/>
      <use xlink:href="#DejaVuSans-69" x="2585.738281"/>
      <use xlink:href="#DejaVuSans-64" x="2613.521484"/>
      <use xlink:href="#DejaVuSans-64" x="2676.998047"/>
      <use xlink:href="#DejaVuSans-65" x="2740.474609"/>
      <use xlink:href="#DejaVuSans-6e" x="2801.998047"/>
      <use xlink:href="#DejaVuSans-20" x="2865.376953"/>
      <use xlink:href="#DejaVuSans-6e" x="2897.164062"/>
      <use xlink:href="#DejaVuSans-65" x="2960.542969"/>
      <use xlink:href="#DejaVuSans-75" x="3022.066406"/>
      <use xlink:href="#DejaVuSans-72" x="3085.445312"/>
      <use xlink:href="#DejaVuSans-6f" x="3124.308594"/>
      <use xlink:href="#DejaVuSans-6e" x="3185.490234"/>
      <use xlink:href="#DejaVuSans-73" x="3248.869141"/>
      <use xlink:href="#DejaVuSans-20" x="3300.96875"/>
      <use xlink:href="#DejaVuSans-5b" x="3332.755859"/>
      <use xlink:href="#DejaVuSans-4e" x="3371.769531"/>
      <use xlink:href="#DejaVuSans-2a" x="3446.574219"/>
      <use xlink:href="#DejaVuSans-4b" x="3496.574219"/>
      <use xlink:href="#DejaVuSans-5d" x="3562.150391"/>
     </g>
    </g>
   </g>
   <g id="matplotlib.axis_2">
    <g id="ytick_1">
     <g id="line2d_9">
      <defs>
       <path id="m5cd0acb94e" d="M 0 0 
L -3.5 0 
" style="stroke: #000000; stroke-width: 0.8"/>
      </defs>
      <g>
       <use xlink:href="#m5cd0acb94e" x="57.6" y="297.169124" style="stroke: #000000; stroke-width: 0.8"/>
      </g>
     </g>
     <g id="text_10">
      <!-- 10 -->
      <g transform="translate(37.875 300.968342)scale(0.1 -0.1)">
       <use xlink:href="#DejaVuSans-31"/>
       <use xlink:href="#DejaVuSans-30" x="63.623047"/>
      </g>
     </g>
    </g>
    <g id="ytick_2">
     <g id="line2d_10">
      <g>
       <use xlink:href="#m5cd0acb94e" x="57.6" y="267.047567" style="stroke: #000000; stroke-width: 0.8"/>
      </g>
     </g>
     <g id="text_11">
      <!-- 20 -->
      <g transform="translate(37.875 270.846786)scale(0.1 -0.1)">
       <use xlink:href="#DejaVuSans-32"/>
       <use xlink:href="#DejaVuSans-30" x="63.623047"/>
      </g>
     </g>
    </g>
    <g id="ytick_3">
     <g id="line2d_11">
      <g>
       <use xlink:href="#m5cd0acb94e" x="57.6" y="236.926011" style="stroke: #000000; stroke-width: 0.8"/>
      </g>
     </g>
     <g id="text_12">
      <!-- 30 -->
      <g transform="translate(37.875 240.725229)scale(0.1 -0.1)">
       <defs>
        <path id="DejaVuSans-33" d="M 2597 2516 
Q 3050 2419 3304 2112 
Q 3559 1806 3559 1356 
Q 3559 666 3084 287 
Q 2609 -91 1734 -91 
Q 1441 -91 1130 -33 
Q 819 25 488 141 
L 488 750 
Q 750 597 1062 519 
Q 1375 441 1716 441 
Q 2309 441 2620 675 
Q 2931 909 2931 1356 
Q 2931 1769 2642 2001 
Q 2353 2234 1838 2234 
L 1294 2234 
L 1294 2753 
L 1863 2753 
Q 2328 2753 2575 2939 
Q 2822 3125 2822 3475 
Q 2822 3834 2567 4026 
Q 2313 4219 1838 4219 
Q 1578 4219 1281 4162 
Q 984 4106 628 3988 
L 628 4550 
Q 988 4650 1302 4700 
Q 1616 4750 1894 4750 
Q 2613 4750 3031 4423 
Q 3450 4097 3450 3541 
Q 3450 3153 3228 2886 
Q 3006 2619 2597 2516 
z
" transform="scale(0.015625)"/>
       </defs>
       <use xlink:href="#DejaVuSans-33"/>
       <use xlink:href="#DejaVuSans-30" x="63.623047"/>
      </g>
     </g>
    </g>
    <g id="ytick_4">
     <g id="line2d_12">
      <g>
       <use xlink:href="#m5cd0acb94e" x="57.6" y="206.804454" style="stroke: #000000; stroke-width: 0.8"/>
      </g>
     </g>
     <g id="text_13">
      <!-- 40 -->
      <g transform="translate(37.875 210.603673)scale(0.1 -0.1)">
       <defs>
        <path id="DejaVuSans-34" d="M 2419 4116 
L 825 1625 
L 2419 1625 
L 2419 4116 
z
M 2253 4666 
L 3047 4666 
L 3047 1625 
L 3713 1625 
L 3713 1100 
L 3047 1100 
L 3047 0 
L 2419 0 
L 2419 1100 
L 313 1100 
L 313 1709 
L 2253 4666 
z
" transform="scale(0.015625)"/>
       </defs>
       <use xlink:href="#DejaVuSans-34"/>
       <use xlink:href="#DejaVuSans-30" x="63.623047"/>
      </g>
     </g>
    </g>
    <g id="ytick_5">
     <g id="line2d_13">
      <g>
       <use xlink:href="#m5cd0acb94e" x="57.6" y="176.682898" style="stroke: #000000; stroke-width: 0.8"/>
      </g>
     </g>
     <g id="text_14">
      <!-- 50 -->
      <g transform="translate(37.875 180.482117)scale(0.1 -0.1)">
       <use xlink:href="#DejaVuSans-35"/>
       <use xlink:href="#DejaVuSans-30" x="63.623047"/>
      </g>
     </g>
    </g>
    <g id="ytick_6">
     <g id="line2d_14">
      <g>
       <use xlink:href="#m5cd0acb94e" x="57.6" y="146.561341" style="stroke: #000000; stroke-width: 0.8"/>
      </g>
     </g>
     <g id="text_15">
      <!-- 60 -->
      <g transform="translate(37.875 150.36056)scale(0.1 -0.1)">
       <defs>
        <path id="DejaVuSans-36" d="M 2113 2584 
Q 1688 2584 1439 2293 
Q 1191 2003 1191 1497 
Q 1191 994 1439 701 
Q 1688 409 2113 409 
Q 2538 409 2786 701 
Q 3034 994 3034 1497 
Q 3034 2003 2786 2293 
Q 2538 2584 2113 2584 
z
M 3366 4563 
L 3366 3988 
Q 3128 4100 2886 4159 
Q 2644 4219 2406 4219 
Q 1781 4219 1451 3797 
Q 1122 3375 1075 2522 
Q 1259 2794 1537 2939 
Q 1816 3084 2150 3084 
Q 2853 3084 3261 2657 
Q 3669 2231 3669 1497 
Q 3669 778 3244 343 
Q 2819 -91 2113 -91 
Q 1303 -91 875 529 
Q 447 1150 447 2328 
Q 447 3434 972 4092 
Q 1497 4750 2381 4750 
Q 2619 4750 2861 4703 
Q 3103 4656 3366 4563 
z
" transform="scale(0.015625)"/>
       </defs>
       <use xlink:href="#DejaVuSans-36"/>
       <use xlink:href="#DejaVuSans-30" x="63.623047"/>
      </g>
     </g>
    </g>
    <g id="ytick_7">
     <g id="line2d_15">
      <g>
       <use xlink:href="#m5cd0acb94e" x="57.6" y="116.439785" style="stroke: #000000; stroke-width: 0.8"/>
      </g>
     </g>
     <g id="text_16">
      <!-- 70 -->
      <g transform="translate(37.875 120.239004)scale(0.1 -0.1)">
       <use xlink:href="#DejaVuSans-37"/>
       <use xlink:href="#DejaVuSans-30" x="63.623047"/>
      </g>
     </g>
    </g>
    <g id="ytick_8">
     <g id="line2d_16">
      <g>
       <use xlink:href="#m5cd0acb94e" x="57.6" y="86.318228" style="stroke: #000000; stroke-width: 0.8"/>
      </g>
     </g>
     <g id="text_17">
      <!-- 80 -->
      <g transform="translate(37.875 90.117447)scale(0.1 -0.1)">
       <defs>
        <path id="DejaVuSans-38" d="M 2034 2216 
Q 1584 2216 1326 1975 
Q 1069 1734 1069 1313 
Q 1069 891 1326 650 
Q 1584 409 2034 409 
Q 2484 409 2743 651 
Q 3003 894 3003 1313 
Q 3003 1734 2745 1975 
Q 2488 2216 2034 2216 
z
M 1403 2484 
Q 997 2584 770 2862 
Q 544 3141 544 3541 
Q 544 4100 942 4425 
Q 1341 4750 2034 4750 
Q 2731 4750 3128 4425 
Q 3525 4100 3525 3541 
Q 3525 3141 3298 2862 
Q 3072 2584 2669 2484 
Q 3125 2378 3379 2068 
Q 3634 1759 3634 1313 
Q 3634 634 3220 271 
Q 2806 -91 2034 -91 
Q 1263 -91 848 271 
Q 434 634 434 1313 
Q 434 1759 690 2068 
Q 947 2378 1403 2484 
z
M 1172 3481 
Q 1172 3119 1398 2916 
Q 1625 2713 2034 2713 
Q 2441 2713 2670 2916 
Q 2900 3119 2900 3481 
Q 2900 3844 2670 4047 
Q 2441 4250 2034 4250 
Q 1625 4250 1398 4047 
Q 1172 3844 1172 3481 
z
" transform="scale(0.015625)"/>
       </defs>
       <use xlink:href="#DejaVuSans-38"/>
       <use xlink:href="#DejaVuSans-30" x="63.623047"/>
      </g>
     </g>
    </g>
    <g id="ytick_9">
     <g id="line2d_17">
      <g>
       <use xlink:href="#m5cd0acb94e" x="57.6" y="56.196672" style="stroke: #000000; stroke-width: 0.8"/>
      </g>
     </g>
     <g id="text_18">
      <!-- 90 -->
      <g transform="translate(37.875 59.995891)scale(0.1 -0.1)">
       <defs>
        <path id="DejaVuSans-39" d="M 703 97 
L 703 672 
Q 941 559 1184 500 
Q 1428 441 1663 441 
Q 2288 441 2617 861 
Q 2947 1281 2994 2138 
Q 2813 1869 2534 1725 
Q 2256 1581 1919 1581 
Q 1219 1581 811 2004 
Q 403 2428 403 3163 
Q 403 3881 828 4315 
Q 1253 4750 1959 4750 
Q 2769 4750 3195 4129 
Q 3622 3509 3622 2328 
Q 3622 1225 3098 567 
Q 2575 -91 1691 -91 
Q 1453 -91 1209 -44 
Q 966 3 703 97 
z
M 1959 2075 
Q 2384 2075 2632 2365 
Q 2881 2656 2881 3163 
Q 2881 3666 2632 3958 
Q 2384 4250 1959 4250 
Q 1534 4250 1286 3958 
Q 1038 3666 1038 3163 
Q 1038 2656 1286 2365 
Q 1534 2075 1959 2075 
z
" transform="scale(0.015625)"/>
       </defs>
       <use xlink:href="#DejaVuSans-39"/>
       <use xlink:href="#DejaVuSans-30" x="63.623047"/>
      </g>
     </g>
    </g>
    <g id="text_19">
     <!-- Mean number of required iterations of TPM -->
     <g transform="translate(31.795312 281.894406)rotate(-90)scale(0.1 -0.1)">
      <defs>
       <path id="DejaVuSans-4d" d="M 628 4666 
L 1569 4666 
L 2759 1491 
L 3956 4666 
L 4897 4666 
L 4897 0 
L 4281 0 
L 4281 4097 
L 3078 897 
L 2444 897 
L 1241 4097 
L 1241 0 
L 628 0 
L 628 4666 
z
" transform="scale(0.015625)"/>
       <path id="DejaVuSans-61" d="M 2194 1759 
Q 1497 1759 1228 1600 
Q 959 1441 959 1056 
Q 959 750 1161 570 
Q 1363 391 1709 391 
Q 2188 391 2477 730 
Q 2766 1069 2766 1631 
L 2766 1759 
L 2194 1759 
z
M 3341 1997 
L 3341 0 
L 2766 0 
L 2766 531 
Q 2569 213 2275 61 
Q 1981 -91 1556 -91 
Q 1019 -91 701 211 
Q 384 513 384 1019 
Q 384 1609 779 1909 
Q 1175 2209 1959 2209 
L 2766 2209 
L 2766 2266 
Q 2766 2663 2505 2880 
Q 2244 3097 1772 3097 
Q 1472 3097 1187 3025 
Q 903 2953 641 2809 
L 641 3341 
Q 956 3463 1253 3523 
Q 1550 3584 1831 3584 
Q 2591 3584 2966 3190 
Q 3341 2797 3341 1997 
z
" transform="scale(0.015625)"/>
       <path id="DejaVuSans-71" d="M 947 1747 
Q 947 1113 1208 752 
Q 1469 391 1925 391 
Q 2381 391 2643 752 
Q 2906 1113 2906 1747 
Q 2906 2381 2643 2742 
Q 2381 3103 1925 3103 
Q 1469 3103 1208 2742 
Q 947 2381 947 1747 
z
M 2906 525 
Q 2725 213 2448 61 
Q 2172 -91 1784 -91 
Q 1150 -91 751 415 
Q 353 922 353 1747 
Q 353 2572 751 3078 
Q 1150 3584 1784 3584 
Q 2172 3584 2448 3432 
Q 2725 3281 2906 2969 
L 2906 3500 
L 3481 3500 
L 3481 -1331 
L 2906 -1331 
L 2906 525 
z
" transform="scale(0.015625)"/>
       <path id="DejaVuSans-54" d="M -19 4666 
L 3928 4666 
L 3928 4134 
L 2272 4134 
L 2272 0 
L 1638 0 
L 1638 4134 
L -19 4134 
L -19 4666 
z
" transform="scale(0.015625)"/>
       <path id="DejaVuSans-50" d="M 1259 4147 
L 1259 2394 
L 2053 2394 
Q 2494 2394 2734 2622 
Q 2975 2850 2975 3272 
Q 2975 3691 2734 3919 
Q 2494 4147 2053 4147 
L 1259 4147 
z
M 628 4666 
L 2053 4666 
Q 2838 4666 3239 4311 
Q 3641 3956 3641 3272 
Q 3641 2581 3239 2228 
Q 2838 1875 2053 1875 
L 1259 1875 
L 1259 0 
L 628 0 
L 628 4666 
z
" transform="scale(0.015625)"/>
      </defs>
      <use xlink:href="#DejaVuSans-4d"/>
      <use xlink:href="#DejaVuSans-65" x="86.279297"/>
      <use xlink:href="#DejaVuSans-61" x="147.802734"/>
      <use xlink:href="#DejaVuSans-6e" x="209.082031"/>
      <use xlink:href="#DejaVuSans-20" x="272.460938"/>
      <use xlink:href="#DejaVuSans-6e" x="304.248047"/>
      <use xlink:href="#DejaVuSans-75" x="367.626953"/>
      <use xlink:href="#DejaVuSans-6d" x="431.005859"/>
      <use xlink:href="#DejaVuSans-62" x="528.417969"/>
      <use xlink:href="#DejaVuSans-65" x="591.894531"/>
      <use xlink:href="#DejaVuSans-72" x="653.417969"/>
      <use xlink:href="#DejaVuSans-20" x="694.53125"/>
      <use xlink:href="#DejaVuSans-6f" x="726.318359"/>
      <use xlink:href="#DejaVuSans-66" x="787.5"/>
      <use xlink:href="#DejaVuSans-20" x="822.705078"/>
      <use xlink:href="#DejaVuSans-72" x="854.492188"/>
      <use xlink:href="#DejaVuSans-65" x="893.355469"/>
      <use xlink:href="#DejaVuSans-71" x="954.878906"/>
      <use xlink:href="#DejaVuSans-75" x="1018.355469"/>
      <use xlink:href="#DejaVuSans-69" x="1081.734375"/>
      <use xlink:href="#DejaVuSans-72" x="1109.517578"/>
      <use xlink:href="#DejaVuSans-65" x="1148.380859"/>
      <use xlink:href="#DejaVuSans-64" x="1209.904297"/>
      <use xlink:href="#DejaVuSans-20" x="1273.380859"/>
      <use xlink:href="#DejaVuSans-69" x="1305.167969"/>
      <use xlink:href="#DejaVuSans-74" x="1332.951172"/>
      <use xlink:href="#DejaVuSans-65" x="1372.160156"/>
      <use xlink:href="#DejaVuSans-72" x="1433.683594"/>
      <use xlink:href="#DejaVuSans-61" x="1474.796875"/>
      <use xlink:href="#DejaVuSans-74" x="1536.076172"/>
      <use xlink:href="#DejaVuSans-69" x="1575.285156"/>
      <use xlink:href="#DejaVuSans-6f" x="1603.068359"/>
      <use xlink:href="#DejaVuSans-6e" x="1664.25"/>
      <use xlink:href="#DejaVuSans-73" x="1727.628906"/>
      <use xlink:href="#DejaVuSans-20" x="1779.728516"/>
      <use xlink:href="#DejaVuSans-6f" x="1811.515625"/>
      <use xlink:href="#DejaVuSans-66" x="1872.697266"/>
      <use xlink:href="#DejaVuSans-20" x="1907.902344"/>
      <use xlink:href="#DejaVuSans-54" x="1939.689453"/>
      <use xlink:href="#DejaVuSans-50" x="2000.773438"/>
      <use xlink:href="#DejaVuSans-4d" x="2061.076172"/>
     </g>
    </g>
   </g>
   <g id="line2d_18">
    <path d="M 73.832727 295.488 
L 75.756606 283.552491 
L 75.756606 283.552491 
L 77.680485 273.133289 
L 77.680485 273.133289 
L 79.604364 264.056353 
L 79.604364 264.056353 
L 81.528242 256.163337 
L 81.528242 256.163337 
L 83.452121 249.310519 
L 83.452121 249.310519 
L 85.376 243.367786 
L 85.376 243.367786 
L 86.818909 239.436862 
L 86.818909 239.436862 
L 89.223758 233.754401 
L 89.223758 233.754401 
L 90.666667 230.800235 
L 90.666667 230.800235 
L 92.590545 227.3167 
L 92.590545 227.3167 
L 94.995394 223.586204 
L 94.995394 223.586204 
L 97.881212 219.851619 
L 97.881212 219.851619 
L 100.286061 217.226109 
L 100.286061 217.226109 
L 102.209939 215.375656 
L 102.209939 215.375656 
L 104.614788 213.307773 
L 104.614788 213.307773 
L 107.981576 210.752061 
L 107.981576 210.752061 
L 112.310303 207.839675 
L 119.524848 203.402534 
L 119.524848 203.402534 
L 134.915879 194.043985 
L 134.915879 194.043985 
L 144.054303 188.495737 
L 144.054303 188.495737 
L 150.787879 184.639163 
L 150.787879 184.639163 
L 155.597576 182.094078 
L 155.597576 182.094078 
L 159.926303 179.991129 
L 159.926303 179.991129 
L 165.697939 177.497693 
L 165.697939 177.497693 
L 169.545697 176.041922 
L 169.545697 176.041922 
L 173.874424 174.600633 
L 173.874424 174.600633 
L 179.646061 172.984418 
L 179.646061 172.984418 
L 184.455758 171.875004 
L 184.455758 171.875004 
L 192.151273 170.45454 
L 192.151273 170.45454 
L 200.327758 169.2512 
L 200.327758 169.2512 
L 212.352 167.6054 
L 221.490424 166.132464 
L 221.490424 166.132464 
L 229.185939 164.604755 
L 234.957576 163.262566 
L 234.957576 163.262566 
L 242.653091 161.228589 
L 242.653091 161.228589 
L 248.424727 159.558284 
L 248.424727 159.558284 
L 265.739636 154.339494 
L 273.435152 152.234618 
L 273.435152 152.234618 
L 281.130667 150.459679 
L 281.130667 150.459679 
L 285.459394 149.645796 
L 298.445576 148.10047 
L 298.445576 148.10047 
L 306.141091 147.783997 
L 327.784727 147.95334 
L 348.466424 145.678723 
L 348.466424 145.678723 
L 350.390303 145.16823 
L 373.957818 134.18511 
L 398.487273 123.817199 
L 398.487273 123.817199 
" clip-path="url(#p0801e670fe)" style="fill: none; stroke: #1f77b4; stroke-width: 1.5; stroke-linecap: square"/>
   </g>
   <g id="line2d_19">
    <path d="M 73.832727 288.213882 
L 75.756606 273.151887 
L 75.756606 273.151887 
L 77.680485 260.270632 
L 77.680485 260.270632 
L 79.604364 249.284483 
L 79.604364 249.284483 
L 81.528242 239.937599 
L 81.528242 239.937599 
L 83.452121 232.00155 
L 83.452121 232.00155 
L 85.376 225.273084 
L 85.376 225.273084 
L 86.818909 220.910012 
L 86.818909 220.910012 
L 89.223758 214.739298 
L 89.223758 214.739298 
L 90.666667 211.599812 
L 90.666667 211.599812 
L 92.590545 207.960828 
L 92.590545 207.960828 
L 94.995394 204.138896 
L 94.995394 204.138896 
L 96.919273 201.54851 
L 98.362182 199.825347 
L 98.362182 199.825347 
L 100.76703 197.286684 
L 100.76703 197.286684 
L 104.133818 194.249417 
L 104.133818 194.249417 
L 106.538667 192.330881 
L 106.538667 192.330881 
L 110.386424 189.519453 
L 110.386424 189.519453 
L 117.12 184.930004 
L 117.12 184.930004 
L 133.47297 174.074762 
L 133.47297 174.074762 
L 138.282667 171.077165 
L 138.282667 171.077165 
L 144.054303 167.76853 
L 144.054303 167.76853 
L 148.38303 165.550081 
L 148.38303 165.550081 
L 152.711758 163.586216 
L 152.711758 163.586216 
L 157.521455 161.712479 
L 157.521455 161.712479 
L 159.926303 160.894473 
L 159.926303 160.894473 
L 165.697939 159.227237 
L 165.697939 159.227237 
L 169.545697 158.317059 
L 169.545697 158.317059 
L 177.241212 156.841617 
L 177.241212 156.841617 
L 196.48 153.547051 
L 200.327758 152.714548 
L 200.327758 152.714548 
L 208.023273 150.734304 
L 208.023273 150.734304 
L 212.352 149.430183 
L 221.490424 146.297136 
L 221.490424 146.297136 
L 239.286303 139.746632 
L 239.286303 139.746632 
L 246.500848 137.483564 
L 246.500848 137.483564 
L 248.424727 136.962123 
L 248.424727 136.962123 
L 253.715394 135.747303 
L 253.715394 135.747303 
L 258.044121 135.018712 
L 258.044121 135.018712 
L 263.815758 134.447205 
L 263.815758 134.447205 
L 265.739636 134.359311 
L 273.435152 134.490564 
L 273.435152 134.490564 
L 277.763879 134.860465 
L 277.763879 134.860465 
L 285.459394 135.871411 
L 298.445576 137.677372 
L 298.445576 137.677372 
L 304.217212 138.060598 
L 304.217212 138.060598 
L 306.141091 138.0813 
L 323.456 134.864304 
L 323.456 134.864304 
L 327.784727 132.990077 
L 350.390303 119.283334 
L 373.476848 117.102762 
L 373.476848 117.102762 
L 373.957818 117.390973 
L 398.487273 142.213165 
L 398.487273 142.213165 
" clip-path="url(#p0801e670fe)" style="fill: none; stroke: #ff7f0e; stroke-width: 1.5; stroke-linecap: square"/>
   </g>
   <g id="line2d_20">
    <path d="M 73.832727 274.999453 
L 75.756606 261.395056 
L 75.756606 261.395056 
L 77.680485 249.618882 
L 77.680485 249.618882 
L 79.604364 239.443914 
L 79.604364 239.443914 
L 81.528242 230.665932 
L 81.528242 230.665932 
L 83.452121 223.101734 
L 83.452121 223.101734 
L 85.376 216.587457 
L 85.376 216.587457 
L 86.818909 212.302244 
L 86.818909 212.302244 
L 89.223758 206.140531 
L 89.223758 206.140531 
L 90.666667 202.951453 
L 90.666667 202.951453 
L 92.590545 199.20114 
L 92.590545 199.20114 
L 94.995394 195.192492 
L 94.995394 195.192492 
L 97.881212 191.177724 
L 97.881212 191.177724 
L 100.286061 188.345498 
L 100.286061 188.345498 
L 102.209939 186.339559 
L 102.209939 186.339559 
L 104.614788 184.083929 
L 104.614788 184.083929 
L 107.981576 181.270969 
L 107.981576 181.270969 
L 112.310303 178.0331 
L 119.043879 173.407094 
L 119.043879 173.407094 
L 131.068121 165.507758 
L 131.068121 165.507758 
L 138.282667 160.933288 
L 138.282667 160.933288 
L 144.054303 157.463287 
L 144.054303 157.463287 
L 150.787879 153.731493 
L 150.787879 153.731493 
L 155.597576 151.318234 
L 155.597576 151.318234 
L 159.926303 149.340898 
L 159.926303 149.340898 
L 165.697939 146.992032 
L 165.697939 146.992032 
L 169.545697 145.600058 
L 169.545697 145.600058 
L 173.874424 144.185213 
L 173.874424 144.185213 
L 181.569939 142.003257 
L 181.569939 142.003257 
L 188.784485 140.247094 
L 188.784485 140.247094 
L 200.327758 137.763294 
L 200.327758 137.763294 
L 223.414303 133.165178 
L 223.414303 133.165178 
L 234.957576 131.067135 
L 234.957576 131.067135 
L 245.057939 129.510537 
L 245.057939 129.510537 
L 253.715394 128.448467 
L 253.715394 128.448467 
L 265.258667 127.383298 
L 265.258667 127.383298 
L 283.535515 125.808922 
L 283.535515 125.808922 
L 285.459394 125.586749 
L 298.445576 123.457716 
L 298.445576 123.457716 
L 305.660121 121.703774 
L 305.660121 121.703774 
L 306.141091 121.572091 
L 327.784727 114.755801 
L 348.466424 113.141859 
L 348.466424 113.141859 
L 350.390303 113.677904 
L 373.957818 131.11123 
L 398.487273 105.708054 
L 398.487273 105.708054 
" clip-path="url(#p0801e670fe)" style="fill: none; stroke: #2ca02c; stroke-width: 1.5; stroke-linecap: square"/>
   </g>
   <g id="line2d_21">
    <path d="M 73.832727 266.744336 
L 75.756606 252.302661 
L 75.756606 252.302661 
L 77.680485 240.017815 
L 77.680485 240.017815 
L 79.604364 229.59521 
L 79.604364 229.59521 
L 81.528242 220.772117 
L 81.528242 220.772117 
L 83.452121 213.315051 
L 83.452121 213.315051 
L 85.376 207.01731 
L 85.376 207.01731 
L 86.818909 202.944332 
L 86.818909 202.944332 
L 89.223758 197.1932 
L 89.223758 197.1932 
L 90.666667 194.267167 
L 90.666667 194.267167 
L 92.590545 190.868904 
L 92.590545 190.868904 
L 94.995394 187.279744 
L 94.995394 187.279744 
L 97.881212 183.707443 
L 97.881212 183.707443 
L 100.286061 181.175059 
L 100.286061 181.175059 
L 102.209939 179.357549 
L 102.209939 179.357549 
L 104.614788 177.2703 
L 104.614788 177.2703 
L 109.424485 173.460377 
L 109.424485 173.460377 
L 119.524848 165.917818 
L 119.524848 165.917818 
L 131.549091 157.072806 
L 137.320727 153.130398 
L 137.320727 153.130398 
L 142.130424 150.146457 
L 142.130424 150.146457 
L 144.054303 149.046756 
L 144.054303 149.046756 
L 148.38303 146.789958 
L 148.38303 146.789958 
L 152.711758 144.848452 
L 152.711758 144.848452 
L 155.597576 143.730162 
L 155.597576 143.730162 
L 159.926303 142.305251 
L 159.926303 142.305251 
L 165.697939 140.826744 
L 165.697939 140.826744 
L 169.545697 140.060774 
L 169.545697 140.060774 
L 177.241212 138.878377 
L 177.241212 138.878377 
L 192.151273 136.811692 
L 192.151273 136.811692 
L 198.403879 135.62551 
L 198.403879 135.62551 
L 200.327758 135.195668 
L 200.327758 135.195668 
L 205.618424 133.839152 
L 205.618424 133.839152 
L 211.87103 131.904141 
L 211.87103 131.904141 
L 217.161697 130.013468 
L 217.161697 130.013468 
L 227.262061 125.970416 
L 227.262061 125.970416 
L 234.957576 122.796561 
L 234.957576 122.796561 
L 242.653091 119.859013 
L 242.653091 119.859013 
L 248.424727 117.976861 
L 248.424727 117.976861 
L 253.715394 116.583338 
L 253.715394 116.583338 
L 258.044121 115.714853 
L 258.044121 115.714853 
L 263.815758 114.959205 
L 263.815758 114.959205 
L 265.739636 114.808795 
L 273.435152 114.671055 
L 281.130667 115.11739 
L 281.130667 115.11739 
L 285.459394 115.512664 
L 298.445576 116.517143 
L 304.217212 116.499513 
L 304.217212 116.499513 
L 306.141091 116.388453 
L 323.456 112.455239 
L 323.456 112.455239 
L 327.784727 110.688513 
L 348.466424 101.961361 
L 348.466424 101.961361 
L 350.390303 101.522484 
L 373.476848 109.695205 
L 373.476848 109.695205 
L 373.957818 110.127403 
L 398.487273 107.572619 
L 398.487273 107.572619 
" clip-path="url(#p0801e670fe)" style="fill: none; stroke: #d62728; stroke-width: 1.5; stroke-linecap: square"/>
   </g>
   <g id="line2d_22">
    <path d="M 73.832727 262.582087 
L 75.756606 248.643907 
L 75.756606 248.643907 
L 77.680485 236.680234 
L 77.680485 236.680234 
L 79.604364 226.437221 
L 79.604364 226.437221 
L 81.528242 217.686639 
L 81.528242 217.686639 
L 83.452121 210.223923 
L 83.452121 210.223923 
L 85.376 203.866324 
L 85.376 203.866324 
L 86.818909 199.724797 
L 86.818909 199.724797 
L 89.223758 193.834255 
L 89.223758 193.834255 
L 90.666667 190.81821 
L 90.666667 190.81821 
L 92.590545 187.301149 
L 92.590545 187.301149 
L 94.995394 183.575466 
L 94.995394 183.575466 
L 97.881212 179.868972 
L 97.881212 179.868972 
L 100.286061 177.255064 
L 100.286061 177.255064 
L 102.209939 175.393097 
L 102.209939 175.393097 
L 104.614788 173.275048 
L 104.614788 173.275048 
L 109.424485 169.472189 
L 109.424485 169.472189 
L 117.12 163.827682 
L 117.12 163.827682 
L 129.625212 154.570205 
L 129.625212 154.570205 
L 138.282667 148.261647 
L 138.282667 148.261647 
L 144.054303 144.369723 
L 144.054303 144.369723 
L 148.38303 141.711845 
L 148.38303 141.711845 
L 152.711758 139.323581 
L 152.711758 139.323581 
L 155.597576 137.893756 
L 155.597576 137.893756 
L 159.926303 135.999935 
L 159.926303 135.999935 
L 165.697939 133.933149 
L 165.697939 133.933149 
L 169.545697 132.823942 
L 169.545697 132.823942 
L 173.874424 131.797906 
L 173.874424 131.797906 
L 181.08897 130.488069 
L 181.08897 130.488069 
L 188.784485 129.400188 
L 188.784485 129.400188 
L 198.403879 128.031309 
L 198.403879 128.031309 
L 204.656485 126.90656 
L 204.656485 126.90656 
L 208.023273 126.17781 
L 208.023273 126.17781 
L 212.352 125.092232 
L 217.161697 123.677349 
L 217.161697 123.677349 
L 224.857212 120.963111 
L 224.857212 120.963111 
L 229.666909 119.018298 
L 229.666909 119.018298 
L 239.286303 114.74576 
L 239.286303 114.74576 
L 248.424727 110.568156 
L 248.424727 110.568156 
L 253.715394 108.280547 
L 253.715394 108.280547 
L 258.044121 106.55929 
L 258.044121 106.55929 
L 263.815758 104.557062 
L 263.815758 104.557062 
L 265.739636 103.978166 
L 273.435152 102.174241 
L 273.435152 102.174241 
L 277.763879 101.546643 
L 277.763879 101.546643 
L 283.535515 101.155383 
L 283.535515 101.155383 
L 285.459394 101.135225 
L 298.445576 102.234264 
L 298.445576 102.234264 
L 306.141091 103.584472 
L 323.456 106.536251 
L 323.456 106.536251 
L 327.784727 106.904836 
L 348.466424 104.976402 
L 348.466424 104.976402 
L 373.957818 98.872692 
L 398.487273 106.27563 
L 398.487273 106.27563 
" clip-path="url(#p0801e670fe)" style="fill: none; stroke: #9467bd; stroke-width: 1.5; stroke-linecap: square"/>
   </g>
   <g id="line2d_23">
    <path d="M 73.832727 255.609937 
L 75.756606 243.700126 
L 75.756606 243.700126 
L 77.680485 233.128582 
L 77.680485 233.128582 
L 79.604364 223.75811 
L 79.604364 223.75811 
L 81.528242 215.462839 
L 81.528242 215.462839 
L 83.452121 208.127498 
L 83.452121 208.127498 
L 85.376 201.646728 
L 85.376 201.646728 
L 86.818909 197.288819 
L 86.818909 197.288819 
L 89.223758 190.873108 
L 89.223758 190.873108 
L 90.666667 187.476885 
L 90.666667 187.476885 
L 92.590545 183.41317 
L 92.590545 183.41317 
L 94.995394 178.987555 
L 94.995394 178.987555 
L 97.881212 174.484924 
L 97.881212 174.484924 
L 100.286061 171.288682 
L 100.286061 171.288682 
L 102.209939 169.032908 
L 102.209939 169.032908 
L 104.614788 166.526508 
L 104.614788 166.526508 
L 107.981576 163.487373 
L 107.981576 163.487373 
L 111.829333 160.515469 
L 111.829333 160.515469 
L 114.234182 158.855274 
L 114.234182 158.855274 
L 119.043879 155.840301 
L 119.043879 155.840301 
L 123.853576 153.077429 
L 123.853576 153.077429 
L 133.47297 147.867833 
L 133.47297 147.867833 
L 146.940121 140.815 
L 146.940121 140.815 
L 155.597576 136.494895 
L 155.597576 136.494895 
L 163.293091 132.926093 
L 163.293091 132.926093 
L 169.545697 130.275309 
L 169.545697 130.275309 
L 177.241212 127.359885 
L 177.241212 127.359885 
L 181.569939 125.892192 
L 181.569939 125.892192 
L 188.784485 123.708286 
L 188.784485 123.708286 
L 196.48 121.698248 
L 204.656485 119.845801 
L 204.656485 119.845801 
L 212.352 118.284079 
L 234.957576 114.051518 
L 234.957576 114.051518 
L 265.739636 108.364411 
L 277.763879 106.512355 
L 277.763879 106.512355 
L 285.459394 105.566018 
L 301.812364 104.256307 
L 301.812364 104.256307 
L 306.141091 104.047895 
L 327.784727 103.200032 
L 348.466424 100.857991 
L 348.466424 100.857991 
L 350.390303 100.480899 
L 373.957818 93.571175 
L 398.487273 87.77846 
L 398.487273 87.77846 
" clip-path="url(#p0801e670fe)" style="fill: none; stroke: #8c564b; stroke-width: 1.5; stroke-linecap: square"/>
   </g>
   <g id="line2d_24">
    <path d="M 73.832727 251.690632 
L 75.756606 239.905026 
L 75.756606 239.905026 
L 77.680485 229.595387 
L 77.680485 229.595387 
L 79.604364 220.582905 
L 79.604364 220.582905 
L 81.528242 212.706294 
L 81.528242 212.706294 
L 83.452121 205.820468 
L 83.452121 205.820468 
L 85.376 199.795303 
L 85.376 199.795303 
L 86.818909 195.770764 
L 86.818909 195.770764 
L 89.223758 189.874263 
L 89.223758 189.874263 
L 90.666667 186.758778 
L 90.666667 186.758778 
L 92.590545 183.024736 
L 92.590545 183.024736 
L 94.995394 178.929709 
L 94.995394 178.929709 
L 97.881212 174.69345 
L 97.881212 174.69345 
L 100.286061 171.60691 
L 100.286061 171.60691 
L 102.209939 169.366177 
L 102.209939 169.366177 
L 104.614788 166.791412 
L 104.614788 166.791412 
L 107.981576 163.506721 
L 107.981576 163.506721 
L 112.310303 159.658151 
L 117.12 155.684063 
L 117.12 155.684063 
L 123.853576 150.422175 
L 123.853576 150.422175 
L 131.549091 144.716031 
L 138.282667 140.038689 
L 138.282667 140.038689 
L 144.054303 136.346943 
L 144.054303 136.346943 
L 150.306909 132.758818 
L 150.306909 132.758818 
L 154.635636 130.556147 
L 158.002424 129.009852 
L 158.002424 129.009852 
L 163.293091 126.874968 
L 163.293091 126.874968 
L 167.621818 125.386245 
L 172.912485 123.854255 
L 172.912485 123.854255 
L 177.241212 122.805849 
L 177.241212 122.805849 
L 181.569939 121.909113 
L 181.569939 121.909113 
L 188.784485 120.658883 
L 188.784485 120.658883 
L 212.352 116.985337 
L 221.490424 115.144879 
L 221.490424 115.144879 
L 229.666909 113.192906 
L 229.666909 113.192906 
L 239.286303 110.594992 
L 239.286303 110.594992 
L 261.410909 104.366437 
L 261.410909 104.366437 
L 265.739636 103.273056 
L 273.435152 101.533003 
L 273.435152 101.533003 
L 281.130667 100.088753 
L 281.130667 100.088753 
L 285.459394 99.408557 
L 301.812364 97.542659 
L 301.812364 97.542659 
L 350.390303 93.375763 
L 373.957818 93.879409 
L 398.487273 85.678696 
L 398.487273 85.678696 
" clip-path="url(#p0801e670fe)" style="fill: none; stroke: #e377c2; stroke-width: 1.5; stroke-linecap: square"/>
   </g>
   <g id="line2d_25">
    <path d="M 73.832727 252.580114 
L 75.756606 238.56427 
L 75.756606 238.56427 
L 77.680485 226.497944 
L 77.680485 226.497944 
L 79.604364 216.130292 
L 79.604364 216.130292 
L 81.528242 207.236131 
L 81.528242 207.236131 
L 83.452121 199.613953 
L 83.452121 199.613953 
L 85.376 193.084035 
L 85.376 193.084035 
L 86.818909 188.806615 
L 86.818909 188.806615 
L 89.223758 182.680514 
L 89.223758 182.680514 
L 90.666667 179.519597 
L 90.666667 179.519597 
L 92.590545 175.807568 
L 92.590545 175.807568 
L 94.995394 171.838777 
L 94.995394 171.838777 
L 97.881212 167.847378 
L 97.881212 167.847378 
L 100.286061 165.006511 
L 100.286061 165.006511 
L 102.209939 162.972423 
L 102.209939 162.972423 
L 104.614788 160.653669 
L 104.614788 160.653669 
L 107.981576 157.700769 
L 107.981576 157.700769 
L 112.310303 154.203482 
L 120.967758 147.601576 
L 120.967758 147.601576 
L 131.068121 140.164992 
L 131.068121 140.164992 
L 136.839758 136.163905 
L 136.839758 136.163905 
L 140.687515 133.674715 
L 140.687515 133.674715 
L 144.054303 131.646173 
L 144.054303 131.646173 
L 148.38303 129.274731 
L 148.38303 129.274731 
L 152.711758 127.194746 
L 152.711758 127.194746 
L 155.597576 125.976779 
L 155.597576 125.976779 
L 159.926303 124.402116 
L 159.926303 124.402116 
L 165.697939 122.748267 
L 165.697939 122.748267 
L 169.545697 121.897606 
L 169.545697 121.897606 
L 173.874424 121.139979 
L 173.874424 121.139979 
L 181.569939 120.162573 
L 181.569939 120.162573 
L 198.403879 118.352024 
L 198.403879 118.352024 
L 204.656485 117.360005 
L 204.656485 117.360005 
L 208.023273 116.69563 
L 208.023273 116.69563 
L 212.352 115.692753 
L 217.161697 114.37847 
L 217.161697 114.37847 
L 224.857212 111.869143 
L 224.857212 111.869143 
L 229.666909 110.093923 
L 229.666909 110.093923 
L 248.424727 102.71549 
L 248.424727 102.71549 
L 253.715394 100.845779 
L 253.715394 100.845779 
L 258.044121 99.493055 
L 258.044121 99.493055 
L 263.815758 98.002482 
L 263.815758 98.002482 
L 265.739636 97.595113 
L 273.435152 96.450297 
L 273.435152 96.450297 
L 277.763879 96.151474 
L 277.763879 96.151474 
L 283.535515 96.116085 
L 283.535515 96.116085 
L 285.459394 96.187267 
L 301.812364 97.818394 
L 301.812364 97.818394 
L 306.141091 98.31236 
L 323.456 98.567664 
L 323.456 98.567664 
L 327.784727 97.900625 
L 348.466424 89.675411 
L 348.466424 89.675411 
L 350.390303 88.563046 
L 373.957818 75.612279 
L 398.487273 72.275034 
L 398.487273 72.275034 
" clip-path="url(#p0801e670fe)" style="fill: none; stroke: #7f7f7f; stroke-width: 1.5; stroke-linecap: square"/>
   </g>
   <g id="line2d_26">
    <path d="M 73.832727 246.762736 
L 75.756606 232.999379 
L 75.756606 232.999379 
L 77.680485 221.228393 
L 77.680485 221.228393 
L 79.604364 211.175744 
L 79.604364 211.175744 
L 81.528242 202.597677 
L 81.528242 202.597677 
L 83.452121 195.278173 
L 83.452121 195.278173 
L 85.376 189.026545 
L 85.376 189.026545 
L 86.818909 184.936993 
L 86.818909 184.936993 
L 89.223758 179.077548 
L 89.223758 179.077548 
L 90.666667 176.046516 
L 90.666667 176.046516 
L 92.590545 172.471287 
L 92.590545 172.471287 
L 94.995394 168.615431 
L 94.995394 168.615431 
L 97.881212 164.678822 
L 97.881212 164.678822 
L 100.286061 161.823065 
L 100.286061 161.823065 
L 102.209939 159.742793 
L 102.209939 159.742793 
L 104.614788 157.330645 
L 104.614788 157.330645 
L 109.424485 152.913345 
L 109.424485 152.913345 
L 115.677091 147.588908 
L 115.677091 147.588908 
L 123.853576 140.976746 
L 123.853576 140.976746 
L 129.625212 136.576763 
L 129.625212 136.576763 
L 134.915879 132.844165 
L 134.915879 132.844165 
L 138.282667 130.662127 
L 138.282667 130.662127 
L 142.611394 128.113045 
L 142.611394 128.113045 
L 146.940121 125.874927 
L 146.940121 125.874927 
L 150.787879 124.15271 
L 150.787879 124.15271 
L 155.597576 122.341547 
L 155.597576 122.341547 
L 159.926303 121.006531 
L 159.926303 121.006531 
L 165.697939 119.583977 
L 165.697939 119.583977 
L 169.545697 118.804646 
L 169.545697 118.804646 
L 188.784485 115.327393 
L 188.784485 115.327393 
L 195.037091 113.82907 
L 195.037091 113.82907 
L 200.327758 112.282278 
L 200.327758 112.282278 
L 205.618424 110.461657 
L 205.618424 110.461657 
L 211.87103 107.979706 
L 211.87103 107.979706 
L 217.161697 105.654131 
L 217.161697 105.654131 
L 234.957576 97.422919 
L 234.957576 97.422919 
L 239.286303 95.618948 
L 239.286303 95.618948 
L 245.057939 93.513052 
L 245.057939 93.513052 
L 248.424727 92.479475 
L 248.424727 92.479475 
L 253.715394 91.188872 
L 258.044121 90.456421 
L 258.044121 90.456421 
L 263.815758 89.93716 
L 263.815758 89.93716 
L 265.739636 89.87544 
L 273.435152 90.113084 
L 273.435152 90.113084 
L 281.130667 90.914308 
L 281.130667 90.914308 
L 285.459394 91.474931 
L 298.445576 92.725911 
L 304.217212 92.678849 
L 304.217212 92.678849 
L 306.141091 92.540033 
L 323.456 88.139156 
L 323.456 88.139156 
L 327.784727 86.27233 
L 348.466424 78.043766 
L 348.466424 78.043766 
L 350.390303 77.755532 
L 373.476848 86.761353 
L 373.476848 86.761353 
L 373.957818 87.109841 
L 398.487273 53.568 
L 398.487273 53.568 
" clip-path="url(#p0801e670fe)" style="fill: none; stroke: #bcbd22; stroke-width: 1.5; stroke-linecap: square"/>
   </g>
   <g id="line2d_27">
    <path d="M 73.832727 253.166209 
L 75.756606 237.900816 
L 75.756606 237.900816 
L 77.680485 224.563888 
L 77.680485 224.563888 
L 79.604364 212.943544 
L 79.604364 212.943544 
L 81.528242 202.846467 
L 81.528242 202.846467 
L 83.452121 194.096647 
L 83.452121 194.096647 
L 85.376 186.534184 
L 85.376 186.534184 
L 86.818909 181.55383 
L 86.818909 181.55383 
L 89.223758 174.405561 
L 89.223758 174.405561 
L 90.666667 170.725719 
L 90.666667 170.725719 
L 92.590545 166.435087 
L 92.590545 166.435087 
L 94.995394 161.925794 
L 94.995394 161.925794 
L 96.919273 158.896417 
L 96.919273 158.896417 
L 98.362182 156.911182 
L 98.362182 156.911182 
L 100.76703 154.064231 
L 100.76703 154.064231 
L 103.652848 151.268345 
L 103.652848 151.268345 
L 104.614788 150.458827 
L 104.614788 150.458827 
L 107.981576 148.000368 
L 107.981576 148.000368 
L 110.386424 146.521588 
L 110.386424 146.521588 
L 114.234182 144.47567 
L 114.234182 144.47567 
L 119.524848 142.024801 
L 119.524848 142.024801 
L 138.282667 133.674948 
L 138.282667 133.674948 
L 159.926303 123.579989 
L 159.926303 123.579989 
L 167.621818 120.347997 
L 167.621818 120.347997 
L 173.874424 117.953383 
L 173.874424 117.953383 
L 181.569939 115.281125 
L 181.569939 115.281125 
L 188.784485 112.998359 
L 188.784485 112.998359 
L 204.656485 108.32984 
L 204.656485 108.32984 
L 217.161697 104.566933 
L 217.161697 104.566933 
L 229.666909 100.53886 
L 229.666909 100.53886 
L 246.500848 95.073779 
L 246.500848 95.073779 
L 253.715394 92.986716 
L 253.715394 92.986716 
L 261.410909 91.120847 
L 261.410909 91.120847 
L 265.739636 90.283481 
L 265.739636 90.283481 
L 273.435152 89.23871 
L 273.435152 89.23871 
L 277.763879 88.917757 
L 277.763879 88.917757 
L 283.535515 88.789057 
L 283.535515 88.789057 
L 285.459394 88.818687 
L 285.459394 88.818687 
L 298.445576 89.777332 
L 298.445576 89.777332 
L 306.141091 90.683511 
L 306.141091 90.683511 
L 323.456 91.730499 
L 323.456 91.730499 
L 327.784727 91.401834 
L 327.784727 91.401834 
L 348.466424 84.285036 
L 348.466424 84.285036 
L 350.390303 83.138981 
L 350.390303 83.138981 
L 373.957818 68.249116 
L 373.957818 68.249116 
L 398.487273 96.240978 
L 398.487273 96.240978 
" clip-path="url(#p0801e670fe)" style="fill: none; stroke: #17becf; stroke-width: 1.5; stroke-linecap: square"/>
   </g>
   <g id="line2d_28">
    <path d="M 73.832727 242.291456 
L 75.756606 230.123386 
L 75.756606 230.123386 
L 77.680485 219.459638 
L 77.680485 219.459638 
L 79.604364 210.120873 
L 79.604364 210.120873 
L 81.528242 201.945436 
L 81.528242 201.945436 
L 83.452121 194.78798 
L 83.452121 194.78798 
L 85.376 188.518174 
L 85.376 188.518174 
L 86.818909 184.327757 
L 86.818909 184.327757 
L 89.223758 178.188079 
L 89.223758 178.188079 
L 90.666667 174.946498 
L 90.666667 174.946498 
L 92.590545 171.067182 
L 92.590545 171.067182 
L 94.995394 166.826752 
L 94.995394 166.826752 
L 97.881212 162.467804 
L 97.881212 162.467804 
L 100.286061 159.32071 
L 100.286061 159.32071 
L 102.209939 157.057702 
L 102.209939 157.057702 
L 104.614788 154.486234 
L 104.614788 154.486234 
L 107.981576 151.260367 
L 107.981576 151.260367 
L 112.310303 147.570036 
L 112.310303 147.570036 
L 117.12 143.86122 
L 117.12 143.86122 
L 123.853576 139.07886 
L 123.853576 139.07886 
L 131.068121 134.289789 
L 131.068121 134.289789 
L 137.320727 130.377683 
L 137.320727 130.377683 
L 144.054303 126.43807 
L 144.054303 126.43807 
L 150.787879 122.822394 
L 150.787879 122.822394 
L 155.597576 120.453014 
L 155.597576 120.453014 
L 159.926303 118.473521 
L 159.926303 118.473521 
L 167.621818 115.291862 
L 167.621818 115.291862 
L 173.874424 112.984916 
L 173.874424 112.984916 
L 181.569939 110.410259 
L 181.569939 110.410259 
L 192.151273 107.179815 
L 192.151273 107.179815 
L 208.023273 102.648585 
L 208.023273 102.648585 
L 217.161697 100.164735 
L 217.161697 100.164735 
L 227.262061 97.632952 
L 227.262061 97.632952 
L 234.957576 95.961091 
L 234.957576 95.961091 
L 242.653091 94.601777 
L 242.653091 94.601777 
L 248.424727 93.824019 
L 248.424727 93.824019 
L 253.715394 93.303519 
L 253.715394 93.303519 
L 261.410909 92.859739 
L 261.410909 92.859739 
L 265.739636 92.749684 
L 265.739636 92.749684 
L 285.459394 92.677636 
L 285.459394 92.677636 
L 298.445576 91.7017 
L 298.445576 91.7017 
L 304.217212 90.647732 
L 304.217212 90.647732 
L 306.141091 90.187545 
L 306.141091 90.187545 
L 323.456 83.317211 
L 323.456 83.317211 
L 327.784727 80.874874 
L 327.784727 80.874874 
L 350.390303 66.690948 
L 350.390303 66.690948 
L 373.476848 61.245842 
L 373.476848 61.245842 
L 373.957818 61.306448 
L 373.957818 61.306448 
L 398.487273 57.963264 
L 398.487273 57.963264 
" clip-path="url(#p0801e670fe)" style="fill: none; stroke: #1f77b4; stroke-width: 1.5; stroke-linecap: square"/>
   </g>
   <g id="patch_3">
    <path d="M 57.6 307.584 
L 57.6 41.472 
" style="fill: none; stroke: #000000; stroke-width: 0.8; stroke-linejoin: miter; stroke-linecap: square"/>
   </g>
   <g id="patch_4">
    <path d="M 414.72 307.584 
L 414.72 41.472 
" style="fill: none; stroke: #000000; stroke-width: 0.8; stroke-linejoin: miter; stroke-linecap: square"/>
   </g>
   <g id="patch_5">
    <path d="M 57.6 307.584 
L 414.72 307.584 
" style="fill: none; stroke: #000000; stroke-width: 0.8; stroke-linejoin: miter; stroke-linecap: square"/>
   </g>
   <g id="patch_6">
    <path d="M 57.6 41.472 
L 414.72 41.472 
" style="fill: none; stroke: #000000; stroke-width: 0.8; stroke-linejoin: miter; stroke-linecap: square"/>
   </g>
   <g id="legend_1">
    <g id="patch_7">
     <path d="M 328.760625 302.584 
L 407.72 302.584 
Q 409.72 302.584 409.72 300.584 
L 409.72 140.124625 
Q 409.72 138.124625 407.72 138.124625 
L 328.760625 138.124625 
Q 326.760625 138.124625 326.760625 140.124625 
L 326.760625 300.584 
Q 326.760625 302.584 328.760625 302.584 
z
" style="fill: #ffffff; opacity: 0.8; stroke: #cccccc; stroke-linejoin: miter"/>
    </g>
    <g id="line2d_29">
     <path d="M 330.760625 146.223062 
L 340.760625 146.223062 
L 350.760625 146.223062 
" style="fill: none; stroke: #1f77b4; stroke-width: 1.5; stroke-linecap: square"/>
    </g>
    <g id="text_20">
     <!-- QBER: 1 -->
     <g transform="translate(358.760625 149.723062)scale(0.1 -0.1)">
      <defs>
       <path id="DejaVuSans-51" d="M 2522 4238 
Q 1834 4238 1429 3725 
Q 1025 3213 1025 2328 
Q 1025 1447 1429 934 
Q 1834 422 2522 422 
Q 3209 422 3611 934 
Q 4013 1447 4013 2328 
Q 4013 3213 3611 3725 
Q 3209 4238 2522 4238 
z
M 3406 84 
L 4238 -825 
L 3475 -825 
L 2784 -78 
Q 2681 -84 2626 -87 
Q 2572 -91 2522 -91 
Q 1538 -91 948 567 
Q 359 1225 359 2328 
Q 359 3434 948 4092 
Q 1538 4750 2522 4750 
Q 3503 4750 4090 4092 
Q 4678 3434 4678 2328 
Q 4678 1516 4351 937 
Q 4025 359 3406 84 
z
" transform="scale(0.015625)"/>
       <path id="DejaVuSans-42" d="M 1259 2228 
L 1259 519 
L 2272 519 
Q 2781 519 3026 730 
Q 3272 941 3272 1375 
Q 3272 1813 3026 2020 
Q 2781 2228 2272 2228 
L 1259 2228 
z
M 1259 4147 
L 1259 2741 
L 2194 2741 
Q 2656 2741 2882 2914 
Q 3109 3088 3109 3444 
Q 3109 3797 2882 3972 
Q 2656 4147 2194 4147 
L 1259 4147 
z
M 628 4666 
L 2241 4666 
Q 2963 4666 3353 4366 
Q 3744 4066 3744 3513 
Q 3744 3084 3544 2831 
Q 3344 2578 2956 2516 
Q 3422 2416 3680 2098 
Q 3938 1781 3938 1306 
Q 3938 681 3513 340 
Q 3088 0 2303 0 
L 628 0 
L 628 4666 
z
" transform="scale(0.015625)"/>
       <path id="DejaVuSans-45" d="M 628 4666 
L 3578 4666 
L 3578 4134 
L 1259 4134 
L 1259 2753 
L 3481 2753 
L 3481 2222 
L 1259 2222 
L 1259 531 
L 3634 531 
L 3634 0 
L 628 0 
L 628 4666 
z
" transform="scale(0.015625)"/>
       <path id="DejaVuSans-52" d="M 2841 2188 
Q 3044 2119 3236 1894 
Q 3428 1669 3622 1275 
L 4263 0 
L 3584 0 
L 2988 1197 
Q 2756 1666 2539 1819 
Q 2322 1972 1947 1972 
L 1259 1972 
L 1259 0 
L 628 0 
L 628 4666 
L 2053 4666 
Q 2853 4666 3247 4331 
Q 3641 3997 3641 3322 
Q 3641 2881 3436 2590 
Q 3231 2300 2841 2188 
z
M 1259 4147 
L 1259 2491 
L 2053 2491 
Q 2509 2491 2742 2702 
Q 2975 2913 2975 3322 
Q 2975 3731 2742 3939 
Q 2509 4147 2053 4147 
L 1259 4147 
z
" transform="scale(0.015625)"/>
       <path id="DejaVuSans-3a" d="M 750 794 
L 1409 794 
L 1409 0 
L 750 0 
L 750 794 
z
M 750 3309 
L 1409 3309 
L 1409 2516 
L 750 2516 
L 750 3309 
z
" transform="scale(0.015625)"/>
      </defs>
      <use xlink:href="#DejaVuSans-51"/>
      <use xlink:href="#DejaVuSans-42" x="78.710938"/>
      <use xlink:href="#DejaVuSans-45" x="147.314453"/>
      <use xlink:href="#DejaVuSans-52" x="210.498047"/>
      <use xlink:href="#DejaVuSans-3a" x="276.855469"/>
      <use xlink:href="#DejaVuSans-20" x="310.546875"/>
      <use xlink:href="#DejaVuSans-31" x="342.333984"/>
     </g>
    </g>
    <g id="line2d_30">
     <path d="M 330.760625 160.901188 
L 340.760625 160.901188 
L 350.760625 160.901188 
" style="fill: none; stroke: #ff7f0e; stroke-width: 1.5; stroke-linecap: square"/>
    </g>
    <g id="text_21">
     <!-- QBER: 2 -->
     <g transform="translate(358.760625 164.401188)scale(0.1 -0.1)">
      <use xlink:href="#DejaVuSans-51"/>
      <use xlink:href="#DejaVuSans-42" x="78.710938"/>
      <use xlink:href="#DejaVuSans-45" x="147.314453"/>
      <use xlink:href="#DejaVuSans-52" x="210.498047"/>
      <use xlink:href="#DejaVuSans-3a" x="276.855469"/>
      <use xlink:href="#DejaVuSans-20" x="310.546875"/>
      <use xlink:href="#DejaVuSans-32" x="342.333984"/>
     </g>
    </g>
    <g id="line2d_31">
     <path d="M 330.760625 175.579313 
L 340.760625 175.579313 
L 350.760625 175.579313 
" style="fill: none; stroke: #2ca02c; stroke-width: 1.5; stroke-linecap: square"/>
    </g>
    <g id="text_22">
     <!-- QBER: 3 -->
     <g transform="translate(358.760625 179.079313)scale(0.1 -0.1)">
      <use xlink:href="#DejaVuSans-51"/>
      <use xlink:href="#DejaVuSans-42" x="78.710938"/>
      <use xlink:href="#DejaVuSans-45" x="147.314453"/>
      <use xlink:href="#DejaVuSans-52" x="210.498047"/>
      <use xlink:href="#DejaVuSans-3a" x="276.855469"/>
      <use xlink:href="#DejaVuSans-20" x="310.546875"/>
      <use xlink:href="#DejaVuSans-33" x="342.333984"/>
     </g>
    </g>
    <g id="line2d_32">
     <path d="M 330.760625 190.257438 
L 340.760625 190.257438 
L 350.760625 190.257438 
" style="fill: none; stroke: #d62728; stroke-width: 1.5; stroke-linecap: square"/>
    </g>
    <g id="text_23">
     <!-- QBER: 4 -->
     <g transform="translate(358.760625 193.757438)scale(0.1 -0.1)">
      <use xlink:href="#DejaVuSans-51"/>
      <use xlink:href="#DejaVuSans-42" x="78.710938"/>
      <use xlink:href="#DejaVuSans-45" x="147.314453"/>
      <use xlink:href="#DejaVuSans-52" x="210.498047"/>
      <use xlink:href="#DejaVuSans-3a" x="276.855469"/>
      <use xlink:href="#DejaVuSans-20" x="310.546875"/>
      <use xlink:href="#DejaVuSans-34" x="342.333984"/>
     </g>
    </g>
    <g id="line2d_33">
     <path d="M 330.760625 204.935563 
L 340.760625 204.935563 
L 350.760625 204.935563 
" style="fill: none; stroke: #9467bd; stroke-width: 1.5; stroke-linecap: square"/>
    </g>
    <g id="text_24">
     <!-- QBER: 5 -->
     <g transform="translate(358.760625 208.435563)scale(0.1 -0.1)">
      <use xlink:href="#DejaVuSans-51"/>
      <use xlink:href="#DejaVuSans-42" x="78.710938"/>
      <use xlink:href="#DejaVuSans-45" x="147.314453"/>
      <use xlink:href="#DejaVuSans-52" x="210.498047"/>
      <use xlink:href="#DejaVuSans-3a" x="276.855469"/>
      <use xlink:href="#DejaVuSans-20" x="310.546875"/>
      <use xlink:href="#DejaVuSans-35" x="342.333984"/>
     </g>
    </g>
    <g id="line2d_34">
     <path d="M 330.760625 219.613688 
L 340.760625 219.613688 
L 350.760625 219.613688 
" style="fill: none; stroke: #8c564b; stroke-width: 1.5; stroke-linecap: square"/>
    </g>
    <g id="text_25">
     <!-- QBER: 6 -->
     <g transform="translate(358.760625 223.113688)scale(0.1 -0.1)">
      <use xlink:href="#DejaVuSans-51"/>
      <use xlink:href="#DejaVuSans-42" x="78.710938"/>
      <use xlink:href="#DejaVuSans-45" x="147.314453"/>
      <use xlink:href="#DejaVuSans-52" x="210.498047"/>
      <use xlink:href="#DejaVuSans-3a" x="276.855469"/>
      <use xlink:href="#DejaVuSans-20" x="310.546875"/>
      <use xlink:href="#DejaVuSans-36" x="342.333984"/>
     </g>
    </g>
    <g id="line2d_35">
     <path d="M 330.760625 234.291812 
L 340.760625 234.291812 
L 350.760625 234.291812 
" style="fill: none; stroke: #e377c2; stroke-width: 1.5; stroke-linecap: square"/>
    </g>
    <g id="text_26">
     <!-- QBER: 7 -->
     <g transform="translate(358.760625 237.791812)scale(0.1 -0.1)">
      <use xlink:href="#DejaVuSans-51"/>
      <use xlink:href="#DejaVuSans-42" x="78.710938"/>
      <use xlink:href="#DejaVuSans-45" x="147.314453"/>
      <use xlink:href="#DejaVuSans-52" x="210.498047"/>
      <use xlink:href="#DejaVuSans-3a" x="276.855469"/>
      <use xlink:href="#DejaVuSans-20" x="310.546875"/>
      <use xlink:href="#DejaVuSans-37" x="342.333984"/>
     </g>
    </g>
    <g id="line2d_36">
     <path d="M 330.760625 248.969938 
L 340.760625 248.969938 
L 350.760625 248.969938 
" style="fill: none; stroke: #7f7f7f; stroke-width: 1.5; stroke-linecap: square"/>
    </g>
    <g id="text_27">
     <!-- QBER: 8 -->
     <g transform="translate(358.760625 252.469938)scale(0.1 -0.1)">
      <use xlink:href="#DejaVuSans-51"/>
      <use xlink:href="#DejaVuSans-42" x="78.710938"/>
      <use xlink:href="#DejaVuSans-45" x="147.314453"/>
      <use xlink:href="#DejaVuSans-52" x="210.498047"/>
      <use xlink:href="#DejaVuSans-3a" x="276.855469"/>
      <use xlink:href="#DejaVuSans-20" x="310.546875"/>
      <use xlink:href="#DejaVuSans-38" x="342.333984"/>
     </g>
    </g>
    <g id="line2d_37">
     <path d="M 330.760625 263.648062 
L 340.760625 263.648062 
L 350.760625 263.648062 
" style="fill: none; stroke: #bcbd22; stroke-width: 1.5; stroke-linecap: square"/>
    </g>
    <g id="text_28">
     <!-- QBER: 9 -->
     <g transform="translate(358.760625 267.148062)scale(0.1 -0.1)">
      <use xlink:href="#DejaVuSans-51"/>
      <use xlink:href="#DejaVuSans-42" x="78.710938"/>
      <use xlink:href="#DejaVuSans-45" x="147.314453"/>
      <use xlink:href="#DejaVuSans-52" x="210.498047"/>
      <use xlink:href="#DejaVuSans-3a" x="276.855469"/>
      <use xlink:href="#DejaVuSans-20" x="310.546875"/>
      <use xlink:href="#DejaVuSans-39" x="342.333984"/>
     </g>
    </g>
    <g id="line2d_38">
     <path d="M 330.760625 278.326187 
L 340.760625 278.326187 
L 350.760625 278.326187 
" style="fill: none; stroke: #17becf; stroke-width: 1.5; stroke-linecap: square"/>
    </g>
    <g id="text_29">
     <!-- QBER: 10 -->
     <g transform="translate(358.760625 281.826187)scale(0.1 -0.1)">
      <use xlink:href="#DejaVuSans-51"/>
      <use xlink:href="#DejaVuSans-42" x="78.710938"/>
      <use xlink:href="#DejaVuSans-45" x="147.314453"/>
      <use xlink:href="#DejaVuSans-52" x="210.498047"/>
      <use xlink:href="#DejaVuSans-3a" x="276.855469"/>
      <use xlink:href="#DejaVuSans-20" x="310.546875"/>
      <use xlink:href="#DejaVuSans-31" x="342.333984"/>
      <use xlink:href="#DejaVuSans-30" x="405.957031"/>
     </g>
    </g>
    <g id="line2d_39">
     <path d="M 330.760625 293.004312 
L 340.760625 293.004312 
L 350.760625 293.004312 
" style="fill: none; stroke: #1f77b4; stroke-width: 1.5; stroke-linecap: square"/>
    </g>
    <g id="text_30">
     <!-- QBER: 11 -->
     <g transform="translate(358.760625 296.504312)scale(0.1 -0.1)">
      <use xlink:href="#DejaVuSans-51"/>
      <use xlink:href="#DejaVuSans-42" x="78.710938"/>
      <use xlink:href="#DejaVuSans-45" x="147.314453"/>
      <use xlink:href="#DejaVuSans-52" x="210.498047"/>
      <use xlink:href="#DejaVuSans-3a" x="276.855469"/>
      <use xlink:href="#DejaVuSans-20" x="310.546875"/>
      <use xlink:href="#DejaVuSans-31" x="342.333984"/>
      <use xlink:href="#DejaVuSans-31" x="405.957031"/>
     </g>
    </g>
   </g>
  </g>
 </g>
 <defs>
  <clipPath id="p0801e670fe">
   <rect x="57.6" y="41.472" width="357.12" height="266.112"/>
  </clipPath>
 </defs>
</svg>
