<?xml version="1.0" encoding="utf-8" standalone="no"?>
<!DOCTYPE svg PUBLIC "-//W3C//DTD SVG 1.1//EN"
  "http://www.w3.org/Graphics/SVG/1.1/DTD/svg11.dtd">
<svg xmlns:xlink="http://www.w3.org/1999/xlink" width="460.8pt" height="345.6pt" viewBox="0 0 460.8 345.6" xmlns="http://www.w3.org/2000/svg" version="1.1">
 <metadata>
  <rdf:RDF xmlns:dc="http://purl.org/dc/elements/1.1/" xmlns:cc="http://creativecommons.org/ns#" xmlns:rdf="http://www.w3.org/1999/02/22-rdf-syntax-ns#">
   <cc:Work>
    <dc:type rdf:resource="http://purl.org/dc/dcmitype/StillImage"/>
    <dc:date>2023-09-06T21:23:32.663116</dc:date>
    <dc:format>image/svg+xml</dc:format>
    <dc:creator>
     <cc:Agent>
      <dc:title>Matplotlib v3.5.3, https://matplotlib.org/</dc:title>
     </cc:Agent>
    </dc:creator>
   </cc:Work>
  </rdf:RDF>
 </metadata>
 <defs>
  <style type="text/css">*{stroke-linejoin: round; stroke-linecap: butt}</style>
 </defs>
 <g id="figure_1">
  <g id="patch_1">
   <path d="M 0 345.6 
L 460.8 345.6 
L 460.8 0 
L 0 0 
z
" style="fill: #ffffff"/>
  </g>
  <g id="axes_1">
   <g id="patch_2">
    <path d="M 57.6 307.584 
L 414.72 307.584 
L 414.72 41.472 
L 57.6 41.472 
z
" style="fill: #ffffff"/>
   </g>
   <g id="matplotlib.axis_1">
    <g id="xtick_1">
     <g id="line2d_1">
      <defs>
       <path id="m402948b118" d="M 0 0 
L 0 3.5 
" style="stroke: #000000; stroke-width: 0.8"/>
      </defs>
      <g>
       <use xlink:href="#m402948b118" x="73.351758" y="307.584" style="stroke: #000000; stroke-width: 0.8"/>
      </g>
     </g>
     <g id="text_1">
      <!-- 0 -->
      <g transform="translate(70.170508 322.182437)scale(0.1 -0.1)">
       <defs>
        <path id="DejaVuSans-30" d="M 2034 4250 
Q 1547 4250 1301 3770 
Q 1056 3291 1056 2328 
Q 1056 1369 1301 889 
Q 1547 409 2034 409 
Q 2525 409 2770 889 
Q 3016 1369 3016 2328 
Q 3016 3291 2770 3770 
Q 2525 4250 2034 4250 
z
M 2034 4750 
Q 2819 4750 3233 4129 
Q 3647 3509 3647 2328 
Q 3647 1150 3233 529 
Q 2819 -91 2034 -91 
Q 1250 -91 836 529 
Q 422 1150 422 2328 
Q 422 3509 836 4129 
Q 1250 4750 2034 4750 
z
" transform="scale(0.015625)"/>
       </defs>
       <use xlink:href="#DejaVuSans-30"/>
      </g>
     </g>
    </g>
    <g id="xtick_2">
     <g id="line2d_2">
      <g>
       <use xlink:href="#m402948b118" x="121.448727" y="307.584" style="stroke: #000000; stroke-width: 0.8"/>
      </g>
     </g>
     <g id="text_2">
      <!-- 2500 -->
      <g transform="translate(108.723727 322.182437)scale(0.1 -0.1)">
       <defs>
        <path id="DejaVuSans-32" d="M 1228 531 
L 3431 531 
L 3431 0 
L 469 0 
L 469 531 
Q 828 903 1448 1529 
Q 2069 2156 2228 2338 
Q 2531 2678 2651 2914 
Q 2772 3150 2772 3378 
Q 2772 3750 2511 3984 
Q 2250 4219 1831 4219 
Q 1534 4219 1204 4116 
Q 875 4013 500 3803 
L 500 4441 
Q 881 4594 1212 4672 
Q 1544 4750 1819 4750 
Q 2544 4750 2975 4387 
Q 3406 4025 3406 3419 
Q 3406 3131 3298 2873 
Q 3191 2616 2906 2266 
Q 2828 2175 2409 1742 
Q 1991 1309 1228 531 
z
" transform="scale(0.015625)"/>
        <path id="DejaVuSans-35" d="M 691 4666 
L 3169 4666 
L 3169 4134 
L 1269 4134 
L 1269 2991 
Q 1406 3038 1543 3061 
Q 1681 3084 1819 3084 
Q 2600 3084 3056 2656 
Q 3513 2228 3513 1497 
Q 3513 744 3044 326 
Q 2575 -91 1722 -91 
Q 1428 -91 1123 -41 
Q 819 9 494 109 
L 494 744 
Q 775 591 1075 516 
Q 1375 441 1709 441 
Q 2250 441 2565 725 
Q 2881 1009 2881 1497 
Q 2881 1984 2565 2268 
Q 2250 2553 1709 2553 
Q 1456 2553 1204 2497 
Q 953 2441 691 2322 
L 691 4666 
z
" transform="scale(0.015625)"/>
       </defs>
       <use xlink:href="#DejaVuSans-32"/>
       <use xlink:href="#DejaVuSans-35" x="63.623047"/>
       <use xlink:href="#DejaVuSans-30" x="127.246094"/>
       <use xlink:href="#DejaVuSans-30" x="190.869141"/>
      </g>
     </g>
    </g>
    <g id="xtick_3">
     <g id="line2d_3">
      <g>
       <use xlink:href="#m402948b118" x="169.545697" y="307.584" style="stroke: #000000; stroke-width: 0.8"/>
      </g>
     </g>
     <g id="text_3">
      <!-- 5000 -->
      <g transform="translate(156.820697 322.182437)scale(0.1 -0.1)">
       <use xlink:href="#DejaVuSans-35"/>
       <use xlink:href="#DejaVuSans-30" x="63.623047"/>
       <use xlink:href="#DejaVuSans-30" x="127.246094"/>
       <use xlink:href="#DejaVuSans-30" x="190.869141"/>
      </g>
     </g>
    </g>
    <g id="xtick_4">
     <g id="line2d_4">
      <g>
       <use xlink:href="#m402948b118" x="217.642667" y="307.584" style="stroke: #000000; stroke-width: 0.8"/>
      </g>
     </g>
     <g id="text_4">
      <!-- 7500 -->
      <g transform="translate(204.917667 322.182437)scale(0.1 -0.1)">
       <defs>
        <path id="DejaVuSans-37" d="M 525 4666 
L 3525 4666 
L 3525 4397 
L 1831 0 
L 1172 0 
L 2766 4134 
L 525 4134 
L 525 4666 
z
" transform="scale(0.015625)"/>
       </defs>
       <use xlink:href="#DejaVuSans-37"/>
       <use xlink:href="#DejaVuSans-35" x="63.623047"/>
       <use xlink:href="#DejaVuSans-30" x="127.246094"/>
       <use xlink:href="#DejaVuSans-30" x="190.869141"/>
      </g>
     </g>
    </g>
    <g id="xtick_5">
     <g id="line2d_5">
      <g>
       <use xlink:href="#m402948b118" x="265.739636" y="307.584" style="stroke: #000000; stroke-width: 0.8"/>
      </g>
     </g>
     <g id="text_5">
      <!-- 10000 -->
      <g transform="translate(249.833386 322.182437)scale(0.1 -0.1)">
       <defs>
        <path id="DejaVuSans-31" d="M 794 531 
L 1825 531 
L 1825 4091 
L 703 3866 
L 703 4441 
L 1819 4666 
L 2450 4666 
L 2450 531 
L 3481 531 
L 3481 0 
L 794 0 
L 794 531 
z
" transform="scale(0.015625)"/>
       </defs>
       <use xlink:href="#DejaVuSans-31"/>
       <use xlink:href="#DejaVuSans-30" x="63.623047"/>
       <use xlink:href="#DejaVuSans-30" x="127.246094"/>
       <use xlink:href="#DejaVuSans-30" x="190.869141"/>
       <use xlink:href="#DejaVuSans-30" x="254.492188"/>
      </g>
     </g>
    </g>
    <g id="xtick_6">
     <g id="line2d_6">
      <g>
       <use xlink:href="#m402948b118" x="313.836606" y="307.584" style="stroke: #000000; stroke-width: 0.8"/>
      </g>
     </g>
     <g id="text_6">
      <!-- 12500 -->
      <g transform="translate(297.930356 322.182437)scale(0.1 -0.1)">
       <use xlink:href="#DejaVuSans-31"/>
       <use xlink:href="#DejaVuSans-32" x="63.623047"/>
       <use xlink:href="#DejaVuSans-35" x="127.246094"/>
       <use xlink:href="#DejaVuSans-30" x="190.869141"/>
       <use xlink:href="#DejaVuSans-30" x="254.492188"/>
      </g>
     </g>
    </g>
    <g id="xtick_7">
     <g id="line2d_7">
      <g>
       <use xlink:href="#m402948b118" x="361.933576" y="307.584" style="stroke: #000000; stroke-width: 0.8"/>
      </g>
     </g>
     <g id="text_7">
      <!-- 15000 -->
      <g transform="translate(346.027326 322.182437)scale(0.1 -0.1)">
       <use xlink:href="#DejaVuSans-31"/>
       <use xlink:href="#DejaVuSans-35" x="63.623047"/>
       <use xlink:href="#DejaVuSans-30" x="127.246094"/>
       <use xlink:href="#DejaVuSans-30" x="190.869141"/>
       <use xlink:href="#DejaVuSans-30" x="254.492188"/>
      </g>
     </g>
    </g>
    <g id="xtick_8">
     <g id="line2d_8">
      <g>
       <use xlink:href="#m402948b118" x="410.030545" y="307.584" style="stroke: #000000; stroke-width: 0.8"/>
      </g>
     </g>
     <g id="text_8">
      <!-- 17500 -->
      <g transform="translate(394.124295 322.182437)scale(0.1 -0.1)">
       <use xlink:href="#DejaVuSans-31"/>
       <use xlink:href="#DejaVuSans-37" x="63.623047"/>
       <use xlink:href="#DejaVuSans-35" x="127.246094"/>
       <use xlink:href="#DejaVuSans-30" x="190.869141"/>
       <use xlink:href="#DejaVuSans-30" x="254.492188"/>
      </g>
     </g>
    </g>
    <g id="text_9">
     <!-- Number of input neurons multiplied by number of hidden neurons [N*K] -->
     <g transform="translate(56.102969 335.860562)scale(0.1 -0.1)">
      <defs>
       <path id="DejaVuSans-4e" d="M 628 4666 
L 1478 4666 
L 3547 763 
L 3547 4666 
L 4159 4666 
L 4159 0 
L 3309 0 
L 1241 3903 
L 1241 0 
L 628 0 
L 628 4666 
z
" transform="scale(0.015625)"/>
       <path id="DejaVuSans-75" d="M 544 1381 
L 544 3500 
L 1119 3500 
L 1119 1403 
Q 1119 906 1312 657 
Q 1506 409 1894 409 
Q 2359 409 2629 706 
Q 2900 1003 2900 1516 
L 2900 3500 
L 3475 3500 
L 3475 0 
L 2900 0 
L 2900 538 
Q 2691 219 2414 64 
Q 2138 -91 1772 -91 
Q 1169 -91 856 284 
Q 544 659 544 1381 
z
M 1991 3584 
L 1991 3584 
z
" transform="scale(0.015625)"/>
       <path id="DejaVuSans-6d" d="M 3328 2828 
Q 3544 3216 3844 3400 
Q 4144 3584 4550 3584 
Q 5097 3584 5394 3201 
Q 5691 2819 5691 2113 
L 5691 0 
L 5113 0 
L 5113 2094 
Q 5113 2597 4934 2840 
Q 4756 3084 4391 3084 
Q 3944 3084 3684 2787 
Q 3425 2491 3425 1978 
L 3425 0 
L 2847 0 
L 2847 2094 
Q 2847 2600 2669 2842 
Q 2491 3084 2119 3084 
Q 1678 3084 1418 2786 
Q 1159 2488 1159 1978 
L 1159 0 
L 581 0 
L 581 3500 
L 1159 3500 
L 1159 2956 
Q 1356 3278 1631 3431 
Q 1906 3584 2284 3584 
Q 2666 3584 2933 3390 
Q 3200 3197 3328 2828 
z
" transform="scale(0.015625)"/>
       <path id="DejaVuSans-62" d="M 3116 1747 
Q 3116 2381 2855 2742 
Q 2594 3103 2138 3103 
Q 1681 3103 1420 2742 
Q 1159 2381 1159 1747 
Q 1159 1113 1420 752 
Q 1681 391 2138 391 
Q 2594 391 2855 752 
Q 3116 1113 3116 1747 
z
M 1159 2969 
Q 1341 3281 1617 3432 
Q 1894 3584 2278 3584 
Q 2916 3584 3314 3078 
Q 3713 2572 3713 1747 
Q 3713 922 3314 415 
Q 2916 -91 2278 -91 
Q 1894 -91 1617 61 
Q 1341 213 1159 525 
L 1159 0 
L 581 0 
L 581 4863 
L 1159 4863 
L 1159 2969 
z
" transform="scale(0.015625)"/>
       <path id="DejaVuSans-65" d="M 3597 1894 
L 3597 1613 
L 953 1613 
Q 991 1019 1311 708 
Q 1631 397 2203 397 
Q 2534 397 2845 478 
Q 3156 559 3463 722 
L 3463 178 
Q 3153 47 2828 -22 
Q 2503 -91 2169 -91 
Q 1331 -91 842 396 
Q 353 884 353 1716 
Q 353 2575 817 3079 
Q 1281 3584 2069 3584 
Q 2775 3584 3186 3129 
Q 3597 2675 3597 1894 
z
M 3022 2063 
Q 3016 2534 2758 2815 
Q 2500 3097 2075 3097 
Q 1594 3097 1305 2825 
Q 1016 2553 972 2059 
L 3022 2063 
z
" transform="scale(0.015625)"/>
       <path id="DejaVuSans-72" d="M 2631 2963 
Q 2534 3019 2420 3045 
Q 2306 3072 2169 3072 
Q 1681 3072 1420 2755 
Q 1159 2438 1159 1844 
L 1159 0 
L 581 0 
L 581 3500 
L 1159 3500 
L 1159 2956 
Q 1341 3275 1631 3429 
Q 1922 3584 2338 3584 
Q 2397 3584 2469 3576 
Q 2541 3569 2628 3553 
L 2631 2963 
z
" transform="scale(0.015625)"/>
       <path id="DejaVuSans-20" transform="scale(0.015625)"/>
       <path id="DejaVuSans-6f" d="M 1959 3097 
Q 1497 3097 1228 2736 
Q 959 2375 959 1747 
Q 959 1119 1226 758 
Q 1494 397 1959 397 
Q 2419 397 2687 759 
Q 2956 1122 2956 1747 
Q 2956 2369 2687 2733 
Q 2419 3097 1959 3097 
z
M 1959 3584 
Q 2709 3584 3137 3096 
Q 3566 2609 3566 1747 
Q 3566 888 3137 398 
Q 2709 -91 1959 -91 
Q 1206 -91 779 398 
Q 353 888 353 1747 
Q 353 2609 779 3096 
Q 1206 3584 1959 3584 
z
" transform="scale(0.015625)"/>
       <path id="DejaVuSans-66" d="M 2375 4863 
L 2375 4384 
L 1825 4384 
Q 1516 4384 1395 4259 
Q 1275 4134 1275 3809 
L 1275 3500 
L 2222 3500 
L 2222 3053 
L 1275 3053 
L 1275 0 
L 697 0 
L 697 3053 
L 147 3053 
L 147 3500 
L 697 3500 
L 697 3744 
Q 697 4328 969 4595 
Q 1241 4863 1831 4863 
L 2375 4863 
z
" transform="scale(0.015625)"/>
       <path id="DejaVuSans-69" d="M 603 3500 
L 1178 3500 
L 1178 0 
L 603 0 
L 603 3500 
z
M 603 4863 
L 1178 4863 
L 1178 4134 
L 603 4134 
L 603 4863 
z
" transform="scale(0.015625)"/>
       <path id="DejaVuSans-6e" d="M 3513 2113 
L 3513 0 
L 2938 0 
L 2938 2094 
Q 2938 2591 2744 2837 
Q 2550 3084 2163 3084 
Q 1697 3084 1428 2787 
Q 1159 2491 1159 1978 
L 1159 0 
L 581 0 
L 581 3500 
L 1159 3500 
L 1159 2956 
Q 1366 3272 1645 3428 
Q 1925 3584 2291 3584 
Q 2894 3584 3203 3211 
Q 3513 2838 3513 2113 
z
" transform="scale(0.015625)"/>
       <path id="DejaVuSans-70" d="M 1159 525 
L 1159 -1331 
L 581 -1331 
L 581 3500 
L 1159 3500 
L 1159 2969 
Q 1341 3281 1617 3432 
Q 1894 3584 2278 3584 
Q 2916 3584 3314 3078 
Q 3713 2572 3713 1747 
Q 3713 922 3314 415 
Q 2916 -91 2278 -91 
Q 1894 -91 1617 61 
Q 1341 213 1159 525 
z
M 3116 1747 
Q 3116 2381 2855 2742 
Q 2594 3103 2138 3103 
Q 1681 3103 1420 2742 
Q 1159 2381 1159 1747 
Q 1159 1113 1420 752 
Q 1681 391 2138 391 
Q 2594 391 2855 752 
Q 3116 1113 3116 1747 
z
" transform="scale(0.015625)"/>
       <path id="DejaVuSans-74" d="M 1172 4494 
L 1172 3500 
L 2356 3500 
L 2356 3053 
L 1172 3053 
L 1172 1153 
Q 1172 725 1289 603 
Q 1406 481 1766 481 
L 2356 481 
L 2356 0 
L 1766 0 
Q 1100 0 847 248 
Q 594 497 594 1153 
L 594 3053 
L 172 3053 
L 172 3500 
L 594 3500 
L 594 4494 
L 1172 4494 
z
" transform="scale(0.015625)"/>
       <path id="DejaVuSans-73" d="M 2834 3397 
L 2834 2853 
Q 2591 2978 2328 3040 
Q 2066 3103 1784 3103 
Q 1356 3103 1142 2972 
Q 928 2841 928 2578 
Q 928 2378 1081 2264 
Q 1234 2150 1697 2047 
L 1894 2003 
Q 2506 1872 2764 1633 
Q 3022 1394 3022 966 
Q 3022 478 2636 193 
Q 2250 -91 1575 -91 
Q 1294 -91 989 -36 
Q 684 19 347 128 
L 347 722 
Q 666 556 975 473 
Q 1284 391 1588 391 
Q 1994 391 2212 530 
Q 2431 669 2431 922 
Q 2431 1156 2273 1281 
Q 2116 1406 1581 1522 
L 1381 1569 
Q 847 1681 609 1914 
Q 372 2147 372 2553 
Q 372 3047 722 3315 
Q 1072 3584 1716 3584 
Q 2034 3584 2315 3537 
Q 2597 3491 2834 3397 
z
" transform="scale(0.015625)"/>
       <path id="DejaVuSans-6c" d="M 603 4863 
L 1178 4863 
L 1178 0 
L 603 0 
L 603 4863 
z
" transform="scale(0.015625)"/>
       <path id="DejaVuSans-64" d="M 2906 2969 
L 2906 4863 
L 3481 4863 
L 3481 0 
L 2906 0 
L 2906 525 
Q 2725 213 2448 61 
Q 2172 -91 1784 -91 
Q 1150 -91 751 415 
Q 353 922 353 1747 
Q 353 2572 751 3078 
Q 1150 3584 1784 3584 
Q 2172 3584 2448 3432 
Q 2725 3281 2906 2969 
z
M 947 1747 
Q 947 1113 1208 752 
Q 1469 391 1925 391 
Q 2381 391 2643 752 
Q 2906 1113 2906 1747 
Q 2906 2381 2643 2742 
Q 2381 3103 1925 3103 
Q 1469 3103 1208 2742 
Q 947 2381 947 1747 
z
" transform="scale(0.015625)"/>
       <path id="DejaVuSans-79" d="M 2059 -325 
Q 1816 -950 1584 -1140 
Q 1353 -1331 966 -1331 
L 506 -1331 
L 506 -850 
L 844 -850 
Q 1081 -850 1212 -737 
Q 1344 -625 1503 -206 
L 1606 56 
L 191 3500 
L 800 3500 
L 1894 763 
L 2988 3500 
L 3597 3500 
L 2059 -325 
z
" transform="scale(0.015625)"/>
       <path id="DejaVuSans-68" d="M 3513 2113 
L 3513 0 
L 2938 0 
L 2938 2094 
Q 2938 2591 2744 2837 
Q 2550 3084 2163 3084 
Q 1697 3084 1428 2787 
Q 1159 2491 1159 1978 
L 1159 0 
L 581 0 
L 581 4863 
L 1159 4863 
L 1159 2956 
Q 1366 3272 1645 3428 
Q 1925 3584 2291 3584 
Q 2894 3584 3203 3211 
Q 3513 2838 3513 2113 
z
" transform="scale(0.015625)"/>
       <path id="DejaVuSans-5b" d="M 550 4863 
L 1875 4863 
L 1875 4416 
L 1125 4416 
L 1125 -397 
L 1875 -397 
L 1875 -844 
L 550 -844 
L 550 4863 
z
" transform="scale(0.015625)"/>
       <path id="DejaVuSans-2a" d="M 3009 3897 
L 1888 3291 
L 3009 2681 
L 2828 2375 
L 1778 3009 
L 1778 1831 
L 1422 1831 
L 1422 3009 
L 372 2375 
L 191 2681 
L 1313 3291 
L 191 3897 
L 372 4206 
L 1422 3572 
L 1422 4750 
L 1778 4750 
L 1778 3572 
L 2828 4206 
L 3009 3897 
z
" transform="scale(0.015625)"/>
       <path id="DejaVuSans-4b" d="M 628 4666 
L 1259 4666 
L 1259 2694 
L 3353 4666 
L 4166 4666 
L 1850 2491 
L 4331 0 
L 3500 0 
L 1259 2247 
L 1259 0 
L 628 0 
L 628 4666 
z
" transform="scale(0.015625)"/>
       <path id="DejaVuSans-5d" d="M 1947 4863 
L 1947 -844 
L 622 -844 
L 622 -397 
L 1369 -397 
L 1369 4416 
L 622 4416 
L 622 4863 
L 1947 4863 
z
" transform="scale(0.015625)"/>
      </defs>
      <use xlink:href="#DejaVuSans-4e"/>
      <use xlink:href="#DejaVuSans-75" x="74.804688"/>
      <use xlink:href="#DejaVuSans-6d" x="138.183594"/>
      <use xlink:href="#DejaVuSans-62" x="235.595703"/>
      <use xlink:href="#DejaVuSans-65" x="299.072266"/>
      <use xlink:href="#DejaVuSans-72" x="360.595703"/>
      <use xlink:href="#DejaVuSans-20" x="401.708984"/>
      <use xlink:href="#DejaVuSans-6f" x="433.496094"/>
      <use xlink:href="#DejaVuSans-66" x="494.677734"/>
      <use xlink:href="#DejaVuSans-20" x="529.882812"/>
      <use xlink:href="#DejaVuSans-69" x="561.669922"/>
      <use xlink:href="#DejaVuSans-6e" x="589.453125"/>
      <use xlink:href="#DejaVuSans-70" x="652.832031"/>
      <use xlink:href="#DejaVuSans-75" x="716.308594"/>
      <use xlink:href="#DejaVuSans-74" x="779.6875"/>
      <use xlink:href="#DejaVuSans-20" x="818.896484"/>
      <use xlink:href="#DejaVuSans-6e" x="850.683594"/>
      <use xlink:href="#DejaVuSans-65" x="914.0625"/>
      <use xlink:href="#DejaVuSans-75" x="975.585938"/>
      <use xlink:href="#DejaVuSans-72" x="1038.964844"/>
      <use xlink:href="#DejaVuSans-6f" x="1077.828125"/>
      <use xlink:href="#DejaVuSans-6e" x="1139.009766"/>
      <use xlink:href="#DejaVuSans-73" x="1202.388672"/>
      <use xlink:href="#DejaVuSans-20" x="1254.488281"/>
      <use xlink:href="#DejaVuSans-6d" x="1286.275391"/>
      <use xlink:href="#DejaVuSans-75" x="1383.6875"/>
      <use xlink:href="#DejaVuSans-6c" x="1447.066406"/>
      <use xlink:href="#DejaVuSans-74" x="1474.849609"/>
      <use xlink:href="#DejaVuSans-69" x="1514.058594"/>
      <use xlink:href="#DejaVuSans-70" x="1541.841797"/>
      <use xlink:href="#DejaVuSans-6c" x="1605.318359"/>
      <use xlink:href="#DejaVuSans-69" x="1633.101562"/>
      <use xlink:href="#DejaVuSans-65" x="1660.884766"/>
      <use xlink:href="#DejaVuSans-64" x="1722.408203"/>
      <use xlink:href="#DejaVuSans-20" x="1785.884766"/>
      <use xlink:href="#DejaVuSans-62" x="1817.671875"/>
      <use xlink:href="#DejaVuSans-79" x="1881.148438"/>
      <use xlink:href="#DejaVuSans-20" x="1940.328125"/>
      <use xlink:href="#DejaVuSans-6e" x="1972.115234"/>
      <use xlink:href="#DejaVuSans-75" x="2035.494141"/>
      <use xlink:href="#DejaVuSans-6d" x="2098.873047"/>
      <use xlink:href="#DejaVuSans-62" x="2196.285156"/>
      <use xlink:href="#DejaVuSans-65" x="2259.761719"/>
      <use xlink:href="#DejaVuSans-72" x="2321.285156"/>
      <use xlink:href="#DejaVuSans-20" x="2362.398438"/>
      <use xlink:href="#DejaVuSans-6f" x="2394.185547"/>
      <use xlink:href="#DejaVuSans-66" x="2455.367188"/>
      <use xlink:href="#DejaVuSans-20" x="2490.572266"/>
      <use xlink:href="#DejaVuSans-68" x="2522.359375"/>
      <use xlink:href="#DejaVuSans-69" x="2585.738281"/>
      <use xlink:href="#DejaVuSans-64" x="2613.521484"/>
      <use xlink:href="#DejaVuSans-64" x="2676.998047"/>
      <use xlink:href="#DejaVuSans-65" x="2740.474609"/>
      <use xlink:href="#DejaVuSans-6e" x="2801.998047"/>
      <use xlink:href="#DejaVuSans-20" x="2865.376953"/>
      <use xlink:href="#DejaVuSans-6e" x="2897.164062"/>
      <use xlink:href="#DejaVuSans-65" x="2960.542969"/>
      <use xlink:href="#DejaVuSans-75" x="3022.066406"/>
      <use xlink:href="#DejaVuSans-72" x="3085.445312"/>
      <use xlink:href="#DejaVuSans-6f" x="3124.308594"/>
      <use xlink:href="#DejaVuSans-6e" x="3185.490234"/>
      <use xlink:href="#DejaVuSans-73" x="3248.869141"/>
      <use xlink:href="#DejaVuSans-20" x="3300.96875"/>
      <use xlink:href="#DejaVuSans-5b" x="3332.755859"/>
      <use xlink:href="#DejaVuSans-4e" x="3371.769531"/>
      <use xlink:href="#DejaVuSans-2a" x="3446.574219"/>
      <use xlink:href="#DejaVuSans-4b" x="3496.574219"/>
      <use xlink:href="#DejaVuSans-5d" x="3562.150391"/>
     </g>
    </g>
   </g>
   <g id="matplotlib.axis_2">
    <g id="ytick_1">
     <g id="line2d_9">
      <defs>
       <path id="m3705472bce" d="M 0 0 
L -3.5 0 
" style="stroke: #000000; stroke-width: 0.8"/>
      </defs>
      <g>
       <use xlink:href="#m3705472bce" x="57.6" y="279.268334" style="stroke: #000000; stroke-width: 0.8"/>
      </g>
     </g>
     <g id="text_10">
      <!-- 20 -->
      <g transform="translate(37.875 283.067553)scale(0.1 -0.1)">
       <use xlink:href="#DejaVuSans-32"/>
       <use xlink:href="#DejaVuSans-30" x="63.623047"/>
      </g>
     </g>
    </g>
    <g id="ytick_2">
     <g id="line2d_10">
      <g>
       <use xlink:href="#m3705472bce" x="57.6" y="246.653545" style="stroke: #000000; stroke-width: 0.8"/>
      </g>
     </g>
     <g id="text_11">
      <!-- 40 -->
      <g transform="translate(37.875 250.452763)scale(0.1 -0.1)">
       <defs>
        <path id="DejaVuSans-34" d="M 2419 4116 
L 825 1625 
L 2419 1625 
L 2419 4116 
z
M 2253 4666 
L 3047 4666 
L 3047 1625 
L 3713 1625 
L 3713 1100 
L 3047 1100 
L 3047 0 
L 2419 0 
L 2419 1100 
L 313 1100 
L 313 1709 
L 2253 4666 
z
" transform="scale(0.015625)"/>
       </defs>
       <use xlink:href="#DejaVuSans-34"/>
       <use xlink:href="#DejaVuSans-30" x="63.623047"/>
      </g>
     </g>
    </g>
    <g id="ytick_3">
     <g id="line2d_11">
      <g>
       <use xlink:href="#m3705472bce" x="57.6" y="214.038755" style="stroke: #000000; stroke-width: 0.8"/>
      </g>
     </g>
     <g id="text_12">
      <!-- 60 -->
      <g transform="translate(37.875 217.837973)scale(0.1 -0.1)">
       <defs>
        <path id="DejaVuSans-36" d="M 2113 2584 
Q 1688 2584 1439 2293 
Q 1191 2003 1191 1497 
Q 1191 994 1439 701 
Q 1688 409 2113 409 
Q 2538 409 2786 701 
Q 3034 994 3034 1497 
Q 3034 2003 2786 2293 
Q 2538 2584 2113 2584 
z
M 3366 4563 
L 3366 3988 
Q 3128 4100 2886 4159 
Q 2644 4219 2406 4219 
Q 1781 4219 1451 3797 
Q 1122 3375 1075 2522 
Q 1259 2794 1537 2939 
Q 1816 3084 2150 3084 
Q 2853 3084 3261 2657 
Q 3669 2231 3669 1497 
Q 3669 778 3244 343 
Q 2819 -91 2113 -91 
Q 1303 -91 875 529 
Q 447 1150 447 2328 
Q 447 3434 972 4092 
Q 1497 4750 2381 4750 
Q 2619 4750 2861 4703 
Q 3103 4656 3366 4563 
z
" transform="scale(0.015625)"/>
       </defs>
       <use xlink:href="#DejaVuSans-36"/>
       <use xlink:href="#DejaVuSans-30" x="63.623047"/>
      </g>
     </g>
    </g>
    <g id="ytick_4">
     <g id="line2d_12">
      <g>
       <use xlink:href="#m3705472bce" x="57.6" y="181.423965" style="stroke: #000000; stroke-width: 0.8"/>
      </g>
     </g>
     <g id="text_13">
      <!-- 80 -->
      <g transform="translate(37.875 185.223184)scale(0.1 -0.1)">
       <defs>
        <path id="DejaVuSans-38" d="M 2034 2216 
Q 1584 2216 1326 1975 
Q 1069 1734 1069 1313 
Q 1069 891 1326 650 
Q 1584 409 2034 409 
Q 2484 409 2743 651 
Q 3003 894 3003 1313 
Q 3003 1734 2745 1975 
Q 2488 2216 2034 2216 
z
M 1403 2484 
Q 997 2584 770 2862 
Q 544 3141 544 3541 
Q 544 4100 942 4425 
Q 1341 4750 2034 4750 
Q 2731 4750 3128 4425 
Q 3525 4100 3525 3541 
Q 3525 3141 3298 2862 
Q 3072 2584 2669 2484 
Q 3125 2378 3379 2068 
Q 3634 1759 3634 1313 
Q 3634 634 3220 271 
Q 2806 -91 2034 -91 
Q 1263 -91 848 271 
Q 434 634 434 1313 
Q 434 1759 690 2068 
Q 947 2378 1403 2484 
z
M 1172 3481 
Q 1172 3119 1398 2916 
Q 1625 2713 2034 2713 
Q 2441 2713 2670 2916 
Q 2900 3119 2900 3481 
Q 2900 3844 2670 4047 
Q 2441 4250 2034 4250 
Q 1625 4250 1398 4047 
Q 1172 3844 1172 3481 
z
" transform="scale(0.015625)"/>
       </defs>
       <use xlink:href="#DejaVuSans-38"/>
       <use xlink:href="#DejaVuSans-30" x="63.623047"/>
      </g>
     </g>
    </g>
    <g id="ytick_5">
     <g id="line2d_13">
      <g>
       <use xlink:href="#m3705472bce" x="57.6" y="148.809175" style="stroke: #000000; stroke-width: 0.8"/>
      </g>
     </g>
     <g id="text_14">
      <!-- 100 -->
      <g transform="translate(31.5125 152.608394)scale(0.1 -0.1)">
       <use xlink:href="#DejaVuSans-31"/>
       <use xlink:href="#DejaVuSans-30" x="63.623047"/>
       <use xlink:href="#DejaVuSans-30" x="127.246094"/>
      </g>
     </g>
    </g>
    <g id="ytick_6">
     <g id="line2d_14">
      <g>
       <use xlink:href="#m3705472bce" x="57.6" y="116.194385" style="stroke: #000000; stroke-width: 0.8"/>
      </g>
     </g>
     <g id="text_15">
      <!-- 120 -->
      <g transform="translate(31.5125 119.993604)scale(0.1 -0.1)">
       <use xlink:href="#DejaVuSans-31"/>
       <use xlink:href="#DejaVuSans-32" x="63.623047"/>
       <use xlink:href="#DejaVuSans-30" x="127.246094"/>
      </g>
     </g>
    </g>
    <g id="ytick_7">
     <g id="line2d_15">
      <g>
       <use xlink:href="#m3705472bce" x="57.6" y="83.579595" style="stroke: #000000; stroke-width: 0.8"/>
      </g>
     </g>
     <g id="text_16">
      <!-- 140 -->
      <g transform="translate(31.5125 87.378814)scale(0.1 -0.1)">
       <use xlink:href="#DejaVuSans-31"/>
       <use xlink:href="#DejaVuSans-34" x="63.623047"/>
       <use xlink:href="#DejaVuSans-30" x="127.246094"/>
      </g>
     </g>
    </g>
    <g id="ytick_8">
     <g id="line2d_16">
      <g>
       <use xlink:href="#m3705472bce" x="57.6" y="50.964806" style="stroke: #000000; stroke-width: 0.8"/>
      </g>
     </g>
     <g id="text_17">
      <!-- 160 -->
      <g transform="translate(31.5125 54.764024)scale(0.1 -0.1)">
       <use xlink:href="#DejaVuSans-31"/>
       <use xlink:href="#DejaVuSans-36" x="63.623047"/>
       <use xlink:href="#DejaVuSans-30" x="127.246094"/>
      </g>
     </g>
    </g>
    <g id="text_18">
     <!-- Mean number of required iterations of TPM -->
     <g transform="translate(25.432812 281.894406)rotate(-90)scale(0.1 -0.1)">
      <defs>
       <path id="DejaVuSans-4d" d="M 628 4666 
L 1569 4666 
L 2759 1491 
L 3956 4666 
L 4897 4666 
L 4897 0 
L 4281 0 
L 4281 4097 
L 3078 897 
L 2444 897 
L 1241 4097 
L 1241 0 
L 628 0 
L 628 4666 
z
" transform="scale(0.015625)"/>
       <path id="DejaVuSans-61" d="M 2194 1759 
Q 1497 1759 1228 1600 
Q 959 1441 959 1056 
Q 959 750 1161 570 
Q 1363 391 1709 391 
Q 2188 391 2477 730 
Q 2766 1069 2766 1631 
L 2766 1759 
L 2194 1759 
z
M 3341 1997 
L 3341 0 
L 2766 0 
L 2766 531 
Q 2569 213 2275 61 
Q 1981 -91 1556 -91 
Q 1019 -91 701 211 
Q 384 513 384 1019 
Q 384 1609 779 1909 
Q 1175 2209 1959 2209 
L 2766 2209 
L 2766 2266 
Q 2766 2663 2505 2880 
Q 2244 3097 1772 3097 
Q 1472 3097 1187 3025 
Q 903 2953 641 2809 
L 641 3341 
Q 956 3463 1253 3523 
Q 1550 3584 1831 3584 
Q 2591 3584 2966 3190 
Q 3341 2797 3341 1997 
z
" transform="scale(0.015625)"/>
       <path id="DejaVuSans-71" d="M 947 1747 
Q 947 1113 1208 752 
Q 1469 391 1925 391 
Q 2381 391 2643 752 
Q 2906 1113 2906 1747 
Q 2906 2381 2643 2742 
Q 2381 3103 1925 3103 
Q 1469 3103 1208 2742 
Q 947 2381 947 1747 
z
M 2906 525 
Q 2725 213 2448 61 
Q 2172 -91 1784 -91 
Q 1150 -91 751 415 
Q 353 922 353 1747 
Q 353 2572 751 3078 
Q 1150 3584 1784 3584 
Q 2172 3584 2448 3432 
Q 2725 3281 2906 2969 
L 2906 3500 
L 3481 3500 
L 3481 -1331 
L 2906 -1331 
L 2906 525 
z
" transform="scale(0.015625)"/>
       <path id="DejaVuSans-54" d="M -19 4666 
L 3928 4666 
L 3928 4134 
L 2272 4134 
L 2272 0 
L 1638 0 
L 1638 4134 
L -19 4134 
L -19 4666 
z
" transform="scale(0.015625)"/>
       <path id="DejaVuSans-50" d="M 1259 4147 
L 1259 2394 
L 2053 2394 
Q 2494 2394 2734 2622 
Q 2975 2850 2975 3272 
Q 2975 3691 2734 3919 
Q 2494 4147 2053 4147 
L 1259 4147 
z
M 628 4666 
L 2053 4666 
Q 2838 4666 3239 4311 
Q 3641 3956 3641 3272 
Q 3641 2581 3239 2228 
Q 2838 1875 2053 1875 
L 1259 1875 
L 1259 0 
L 628 0 
L 628 4666 
z
" transform="scale(0.015625)"/>
      </defs>
      <use xlink:href="#DejaVuSans-4d"/>
      <use xlink:href="#DejaVuSans-65" x="86.279297"/>
      <use xlink:href="#DejaVuSans-61" x="147.802734"/>
      <use xlink:href="#DejaVuSans-6e" x="209.082031"/>
      <use xlink:href="#DejaVuSans-20" x="272.460938"/>
      <use xlink:href="#DejaVuSans-6e" x="304.248047"/>
      <use xlink:href="#DejaVuSans-75" x="367.626953"/>
      <use xlink:href="#DejaVuSans-6d" x="431.005859"/>
      <use xlink:href="#DejaVuSans-62" x="528.417969"/>
      <use xlink:href="#DejaVuSans-65" x="591.894531"/>
      <use xlink:href="#DejaVuSans-72" x="653.417969"/>
      <use xlink:href="#DejaVuSans-20" x="694.53125"/>
      <use xlink:href="#DejaVuSans-6f" x="726.318359"/>
      <use xlink:href="#DejaVuSans-66" x="787.5"/>
      <use xlink:href="#DejaVuSans-20" x="822.705078"/>
      <use xlink:href="#DejaVuSans-72" x="854.492188"/>
      <use xlink:href="#DejaVuSans-65" x="893.355469"/>
      <use xlink:href="#DejaVuSans-71" x="954.878906"/>
      <use xlink:href="#DejaVuSans-75" x="1018.355469"/>
      <use xlink:href="#DejaVuSans-69" x="1081.734375"/>
      <use xlink:href="#DejaVuSans-72" x="1109.517578"/>
      <use xlink:href="#DejaVuSans-65" x="1148.380859"/>
      <use xlink:href="#DejaVuSans-64" x="1209.904297"/>
      <use xlink:href="#DejaVuSans-20" x="1273.380859"/>
      <use xlink:href="#DejaVuSans-69" x="1305.167969"/>
      <use xlink:href="#DejaVuSans-74" x="1332.951172"/>
      <use xlink:href="#DejaVuSans-65" x="1372.160156"/>
      <use xlink:href="#DejaVuSans-72" x="1433.683594"/>
      <use xlink:href="#DejaVuSans-61" x="1474.796875"/>
      <use xlink:href="#DejaVuSans-74" x="1536.076172"/>
      <use xlink:href="#DejaVuSans-69" x="1575.285156"/>
      <use xlink:href="#DejaVuSans-6f" x="1603.068359"/>
      <use xlink:href="#DejaVuSans-6e" x="1664.25"/>
      <use xlink:href="#DejaVuSans-73" x="1727.628906"/>
      <use xlink:href="#DejaVuSans-20" x="1779.728516"/>
      <use xlink:href="#DejaVuSans-6f" x="1811.515625"/>
      <use xlink:href="#DejaVuSans-66" x="1872.697266"/>
      <use xlink:href="#DejaVuSans-20" x="1907.902344"/>
      <use xlink:href="#DejaVuSans-54" x="1939.689453"/>
      <use xlink:href="#DejaVuSans-50" x="2000.773438"/>
      <use xlink:href="#DejaVuSans-4d" x="2061.076172"/>
     </g>
    </g>
   </g>
   <g id="line2d_17">
    <path d="M 73.832727 295.488 
L 75.756606 283.267639 
L 75.756606 283.267639 
L 77.680485 272.696401 
L 77.680485 272.696401 
L 79.604364 263.562801 
L 79.604364 263.562801 
L 81.528242 255.677213 
L 81.528242 255.677213 
L 83.452121 248.870135 
L 83.452121 248.870135 
L 85.376 242.990557 
L 85.376 242.990557 
L 86.818909 239.108309 
L 86.818909 239.108309 
L 89.223758 233.49321 
L 89.223758 233.49321 
L 90.666667 230.564425 
L 90.666667 230.564425 
L 92.590545 227.090965 
L 92.590545 227.090965 
L 94.995394 223.32863 
L 94.995394 223.32863 
L 97.881212 219.485289 
L 97.881212 219.485289 
L 100.286061 216.710469 
L 100.286061 216.710469 
L 102.209939 214.704592 
L 102.209939 214.704592 
L 104.614788 212.402386 
L 104.614788 212.402386 
L 107.981576 209.457636 
L 107.981576 209.457636 
L 112.310303 205.976666 
L 119.043879 200.914036 
L 119.043879 200.914036 
L 127.220364 195.062417 
L 127.220364 195.062417 
L 133.47297 190.815704 
L 133.47297 190.815704 
L 138.282667 187.748421 
L 138.282667 187.748421 
L 144.054303 184.372095 
L 144.054303 184.372095 
L 148.38303 182.096595 
L 148.38303 182.096595 
L 152.711758 180.06128 
L 152.711758 180.06128 
L 157.521455 178.088008 
L 157.521455 178.088008 
L 159.926303 177.212929 
L 159.926303 177.212929 
L 165.697939 175.395906 
L 165.697939 175.395906 
L 169.545697 174.383772 
L 169.545697 174.383772 
L 173.874424 173.403396 
L 173.874424 173.403396 
L 181.569939 171.961291 
L 181.569939 171.961291 
L 204.656485 168.04594 
L 204.656485 168.04594 
L 211.87103 166.487233 
L 211.87103 166.487233 
L 217.161697 165.191516 
L 217.161697 165.191516 
L 227.262061 162.419357 
L 227.262061 162.419357 
L 248.424727 156.34715 
L 248.424727 156.34715 
L 258.044121 154.046115 
L 258.044121 154.046115 
L 265.739636 152.574357 
L 273.435152 151.426462 
L 273.435152 151.426462 
L 285.459394 150.06087 
L 298.445576 148.509842 
L 298.445576 148.509842 
L 305.660121 147.268275 
L 305.660121 147.268275 
L 306.141091 147.170825 
L 323.456 142.238037 
L 323.456 142.238037 
L 327.784727 140.620739 
L 348.466424 133.305827 
L 348.466424 133.305827 
L 350.390303 132.899501 
L 373.476848 136.806827 
L 373.476848 136.806827 
L 373.957818 137.062285 
L 398.487273 137.275462 
L 398.487273 137.275462 
" clip-path="url(#p3c870e64cd)" style="fill: none; stroke: #1f77b4; stroke-width: 1.5; stroke-linecap: square"/>
   </g>
   <g id="line2d_18">
    <path d="M 73.832727 281.444126 
L 75.756606 269.204005 
L 75.756606 269.204005 
L 77.680485 258.517932 
L 77.680485 258.517932 
L 79.604364 249.205575 
L 79.604364 249.205575 
L 81.528242 241.103108 
L 81.528242 241.103108 
L 83.452121 234.062072 
L 83.452121 234.062072 
L 85.376 227.948278 
L 85.376 227.948278 
L 86.818909 223.89821 
L 86.818909 223.89821 
L 89.223758 218.030903 
L 89.223758 218.030903 
L 90.666667 214.972344 
L 90.666667 214.972344 
L 92.590545 211.355385 
L 92.590545 211.355385 
L 94.995394 207.46501 
L 94.995394 207.46501 
L 97.881212 203.545315 
L 97.881212 203.545315 
L 100.286061 200.768986 
L 100.286061 200.768986 
L 102.209939 198.799211 
L 102.209939 198.799211 
L 104.614788 196.583167 
L 104.614788 196.583167 
L 107.981576 193.821158 
L 107.981576 193.821158 
L 112.310303 190.645234 
L 119.043879 186.094621 
L 119.043879 186.094621 
L 146.940121 167.762458 
L 146.940121 167.762458 
L 152.711758 164.290849 
L 152.711758 164.290849 
L 158.002424 161.354743 
L 158.002424 161.354743 
L 163.293091 158.691286 
L 163.293091 158.691286 
L 167.621818 156.725984 
L 173.393455 154.40071 
L 173.393455 154.40071 
L 177.241212 153.0255 
L 177.241212 153.0255 
L 181.569939 151.626235 
L 181.569939 151.626235 
L 188.784485 149.574452 
L 188.784485 149.574452 
L 198.403879 147.174463 
L 198.403879 147.174463 
L 212.352 143.767807 
L 221.490424 141.273137 
L 221.490424 141.273137 
L 229.666909 138.78325 
L 229.666909 138.78325 
L 242.653091 134.453696 
L 242.653091 134.453696 
L 253.715394 130.763508 
L 253.715394 130.763508 
L 261.410909 128.461436 
L 261.410909 128.461436 
L 265.739636 127.335275 
L 273.435152 125.728068 
L 277.763879 125.07823 
L 277.763879 125.07823 
L 283.535515 124.516554 
L 283.535515 124.516554 
L 285.459394 124.406662 
L 298.445576 124.557387 
L 298.445576 124.557387 
L 306.141091 125.145114 
L 323.456 125.968907 
L 323.456 125.968907 
L 327.784727 125.65317 
L 348.466424 117.970858 
L 348.466424 117.970858 
L 350.390303 116.621583 
L 373.957818 93.289405 
L 398.487273 87.051892 
L 398.487273 87.051892 
" clip-path="url(#p3c870e64cd)" style="fill: none; stroke: #ff7f0e; stroke-width: 1.5; stroke-linecap: square"/>
   </g>
   <g id="line2d_19">
    <path d="M 73.832727 272.344579 
L 75.756606 260.824185 
L 75.756606 260.824185 
L 77.680485 250.636159 
L 77.680485 250.636159 
L 79.604364 241.635378 
L 79.604364 241.635378 
L 81.528242 233.689462 
L 81.528242 233.689462 
L 83.452121 226.677913 
L 83.452121 226.677913 
L 85.376 220.491282 
L 85.376 220.491282 
L 86.818909 216.332635 
L 86.818909 216.332635 
L 89.223758 210.205599 
L 89.223758 210.205599 
L 90.666667 206.955514 
L 90.666667 206.955514 
L 92.590545 203.054368 
L 92.590545 203.054368 
L 94.995394 198.779876 
L 94.995394 198.779876 
L 97.881212 194.383327 
L 97.881212 194.383327 
L 100.286061 191.215011 
L 100.286061 191.215011 
L 102.209939 188.94399 
L 102.209939 188.94399 
L 104.614788 186.374437 
L 104.614788 186.374437 
L 107.981576 183.171677 
L 107.981576 183.171677 
L 111.829333 179.919278 
L 111.829333 179.919278 
L 115.677091 176.9559 
L 115.677091 176.9559 
L 121.448727 172.823726 
L 131.549091 165.978523 
L 142.611394 158.754899 
L 142.611394 158.754899 
L 150.306909 153.996982 
L 150.306909 153.996982 
L 155.597576 150.932997 
L 155.597576 150.932997 
L 159.926303 148.585126 
L 159.926303 148.585126 
L 165.697939 145.709509 
L 165.697939 145.709509 
L 169.545697 143.966756 
L 169.545697 143.966756 
L 173.874424 142.178863 
L 173.874424 142.178863 
L 179.646061 140.078928 
L 179.646061 140.078928 
L 184.455758 138.567868 
L 184.455758 138.567868 
L 192.151273 136.561012 
L 192.151273 136.561012 
L 198.403879 135.249402 
L 198.403879 135.249402 
L 205.618424 134.011456 
L 205.618424 134.011456 
L 212.352 133.043296 
L 245.057939 128.697844 
L 245.057939 128.697844 
L 253.715394 127.197268 
L 253.715394 127.197268 
L 263.815758 125.126042 
L 263.815758 125.126042 
L 265.739636 124.690123 
L 277.763879 121.661164 
L 277.763879 121.661164 
L 285.459394 119.453409 
L 301.812364 114.153875 
L 301.812364 114.153875 
L 327.784727 105.16477 
L 348.466424 100.611483 
L 348.466424 100.611483 
L 350.390303 100.486366 
L 373.476848 105.451599 
L 373.476848 105.451599 
L 373.957818 105.695592 
L 398.487273 121.409434 
L 398.487273 121.409434 
" clip-path="url(#p3c870e64cd)" style="fill: none; stroke: #2ca02c; stroke-width: 1.5; stroke-linecap: square"/>
   </g>
   <g id="line2d_20">
    <path d="M 73.832727 271.995228 
L 75.756606 257.001809 
L 75.756606 257.001809 
L 77.680485 244.165272 
L 77.680485 244.165272 
L 79.604364 233.203551 
L 79.604364 233.203551 
L 81.528242 223.863777 
L 81.528242 223.863777 
L 83.452121 215.919972 
L 83.452121 215.919972 
L 85.376 209.170881 
L 85.376 209.170881 
L 86.818909 204.784874 
L 86.818909 204.784874 
L 89.223758 198.563327 
L 89.223758 198.563327 
L 90.666667 195.386478 
L 90.666667 195.386478 
L 92.590545 191.690362 
L 92.590545 191.690362 
L 94.995394 187.786076 
L 94.995394 187.786076 
L 97.881212 183.914426 
L 97.881212 183.914426 
L 100.286061 181.192089 
L 100.286061 181.192089 
L 102.209939 179.257052 
L 102.209939 179.257052 
L 104.614788 177.060128 
L 104.614788 177.060128 
L 109.424485 173.127338 
L 109.424485 173.127338 
L 117.12 167.322853 
L 117.12 167.322853 
L 138.282667 151.612601 
L 138.282667 151.612601 
L 144.054303 147.763719 
L 144.054303 147.763719 
L 148.38303 145.153246 
L 148.38303 145.153246 
L 152.711758 142.818338 
L 152.711758 142.818338 
L 155.597576 141.42384 
L 155.597576 141.42384 
L 159.926303 139.577182 
L 159.926303 139.577182 
L 165.697939 137.551671 
L 165.697939 137.551671 
L 169.545697 136.450095 
L 169.545697 136.450095 
L 173.874424 135.409521 
L 173.874424 135.409521 
L 181.569939 133.935175 
L 181.569939 133.935175 
L 200.327758 130.789525 
L 200.327758 130.789525 
L 208.023273 129.110151 
L 208.023273 129.110151 
L 212.352 127.995632 
L 221.490424 125.25566 
L 221.490424 125.25566 
L 229.666909 122.480948 
L 229.666909 122.480948 
L 242.653091 118.020931 
L 242.653091 118.020931 
L 248.424727 116.259829 
L 248.424727 116.259829 
L 253.715394 114.87545 
L 258.044121 113.945479 
L 258.044121 113.945479 
L 263.815758 113.024868 
L 263.815758 113.024868 
L 265.739636 112.80239 
L 273.435152 112.324357 
L 273.435152 112.324357 
L 281.130667 112.4179 
L 281.130667 112.4179 
L 285.459394 112.646076 
L 298.445576 113.452228 
L 304.217212 113.528313 
L 304.217212 113.528313 
L 306.141091 113.471839 
L 323.456 110.172897 
L 323.456 110.172897 
L 327.784727 108.422377 
L 350.390303 94.895999 
L 373.476848 85.78145 
L 373.476848 85.78145 
L 373.957818 85.762615 
L 398.487273 81.072809 
L 398.487273 81.072809 
" clip-path="url(#p3c870e64cd)" style="fill: none; stroke: #d62728; stroke-width: 1.5; stroke-linecap: square"/>
   </g>
   <g id="line2d_21">
    <path d="M 73.832727 268.183026 
L 75.756606 254.707333 
L 75.756606 254.707333 
L 77.680485 242.833092 
L 77.680485 242.833092 
L 79.604364 232.379731 
L 79.604364 232.379731 
L 81.528242 223.183598 
L 81.528242 223.183598 
L 83.452121 215.096716 
L 83.452121 215.096716 
L 85.376 207.985595 
L 85.376 207.985595 
L 86.818909 203.219871 
L 86.818909 203.219871 
L 89.223758 196.222526 
L 89.223758 196.222526 
L 90.666667 192.524199 
L 90.666667 192.524199 
L 92.590545 188.099604 
L 92.590545 188.099604 
L 94.995394 183.273706 
L 94.995394 183.273706 
L 97.881212 178.341538 
L 97.881212 178.341538 
L 100.286061 174.814197 
L 100.286061 174.814197 
L 102.209939 172.30451 
L 102.209939 172.30451 
L 104.614788 169.489497 
L 104.614788 169.489497 
L 107.981576 166.029123 
L 107.981576 166.029123 
L 111.829333 162.589001 
L 111.829333 162.589001 
L 114.234182 160.645245 
L 114.234182 160.645245 
L 119.043879 157.095435 
L 119.043879 157.095435 
L 123.853576 153.861641 
L 123.853576 153.861641 
L 129.625212 150.262977 
L 129.625212 150.262977 
L 134.915879 147.172323 
L 134.915879 147.172323 
L 142.130424 143.249211 
L 142.130424 143.249211 
L 148.38303 140.128808 
L 148.38303 140.128808 
L 154.635636 137.279692 
L 159.926303 135.079465 
L 159.926303 135.079465 
L 167.621818 132.19418 
L 173.874424 130.07569 
L 173.874424 130.07569 
L 184.455758 126.773926 
L 184.455758 126.773926 
L 200.327758 121.890387 
L 200.327758 121.890387 
L 211.87103 118.0121 
L 211.87103 118.0121 
L 221.490424 114.519684 
L 221.490424 114.519684 
L 239.286303 107.915987 
L 239.286303 107.915987 
L 246.981818 105.30958 
L 248.424727 104.855453 
L 248.424727 104.855453 
L 253.715394 103.307567 
L 253.715394 103.307567 
L 261.410909 101.439566 
L 261.410909 101.439566 
L 265.739636 100.613458 
L 273.435152 99.563908 
L 273.435152 99.563908 
L 281.130667 99.025911 
L 281.130667 99.025911 
L 285.459394 98.916807 
L 306.141091 99.304462 
L 323.456 98.613424 
L 323.456 98.613424 
L 327.784727 98.022263 
L 349.909333 92.344722 
L 349.909333 92.344722 
L 350.390303 92.194226 
L 373.476848 87.726208 
L 373.476848 87.726208 
L 373.957818 87.747509 
L 398.487273 97.475882 
L 398.487273 97.475882 
" clip-path="url(#p3c870e64cd)" style="fill: none; stroke: #9467bd; stroke-width: 1.5; stroke-linecap: square"/>
   </g>
   <g id="line2d_22">
    <path d="M 73.832727 262.387191 
L 75.756606 248.535118 
L 75.756606 248.535118 
L 77.680485 236.494584 
L 77.680485 236.494584 
L 79.604364 226.036457 
L 79.604364 226.036457 
L 81.528242 216.955385 
L 81.528242 216.955385 
L 83.452121 209.067892 
L 83.452121 209.067892 
L 85.376 202.21059 
L 85.376 202.21059 
L 86.818909 197.655812 
L 86.818909 197.655812 
L 89.223758 191.023448 
L 89.223758 191.023448 
L 90.666667 187.540576 
L 90.666667 187.540576 
L 92.590545 183.387362 
L 92.590545 183.387362 
L 94.995394 178.861 
L 94.995394 178.861 
L 97.881212 174.212064 
L 97.881212 174.212064 
L 100.286061 170.847915 
L 100.286061 170.847915 
L 102.209939 168.418799 
L 102.209939 168.418799 
L 104.614788 165.642561 
L 104.614788 165.642561 
L 107.981576 162.127669 
L 107.981576 162.127669 
L 112.310303 158.057537 
L 117.12 153.928188 
L 117.12 153.928188 
L 121.448727 150.460439 
L 127.220364 146.142152 
L 127.220364 146.142152 
L 131.549091 143.136005 
L 136.839758 139.765877 
L 136.839758 139.765877 
L 140.687515 137.549114 
L 140.687515 137.549114 
L 144.054303 135.784139 
L 144.054303 135.784139 
L 148.38303 133.763815 
L 148.38303 133.763815 
L 152.711758 132.024574 
L 152.711758 132.024574 
L 157.521455 130.408263 
L 157.521455 130.408263 
L 159.926303 129.715726 
L 159.926303 129.715726 
L 165.697939 128.326243 
L 165.697939 128.326243 
L 169.545697 127.575427 
L 169.545697 127.575427 
L 177.241212 126.341283 
L 177.241212 126.341283 
L 188.784485 124.613915 
L 188.784485 124.613915 
L 196.48 123.160482 
L 200.327758 122.2681 
L 200.327758 122.2681 
L 205.618424 120.826029 
L 205.618424 120.826029 
L 211.87103 118.785211 
L 211.87103 118.785211 
L 217.161697 116.785911 
L 217.161697 116.785911 
L 224.857212 113.509938 
L 224.857212 113.509938 
L 234.957576 108.830604 
L 234.957576 108.830604 
L 245.057939 104.212368 
L 245.057939 104.212368 
L 248.424727 102.783575 
L 248.424727 102.783575 
L 253.715394 100.720725 
L 253.715394 100.720725 
L 258.044121 99.234795 
L 258.044121 99.234795 
L 263.815758 97.579901 
L 263.815758 97.579901 
L 265.739636 97.116402 
L 273.435152 95.708762 
L 273.435152 95.708762 
L 277.763879 95.215845 
L 277.763879 95.215845 
L 283.535515 94.84594 
L 283.535515 94.84594 
L 285.459394 94.783317 
L 306.141091 94.757686 
L 323.456 93.062647 
L 323.456 93.062647 
L 327.784727 92.161829 
L 350.390303 86.213756 
L 373.476848 88.274042 
L 373.476848 88.274042 
L 373.957818 88.483057 
L 398.487273 91.685549 
L 398.487273 91.685549 
" clip-path="url(#p3c870e64cd)" style="fill: none; stroke: #8c564b; stroke-width: 1.5; stroke-linecap: square"/>
   </g>
   <g id="line2d_23">
    <path d="M 73.832727 256.224038 
L 75.756606 243.186557 
L 75.756606 243.186557 
L 77.680485 231.808559 
L 77.680485 231.808559 
L 79.604364 221.881387 
L 79.604364 221.881387 
L 81.528242 213.218398 
L 81.528242 213.218398 
L 83.452121 205.653135 
L 83.452121 205.653135 
L 85.376 199.037617 
L 85.376 199.037617 
L 86.818909 194.619786 
L 86.818909 194.619786 
L 89.223758 188.146744 
L 89.223758 188.146744 
L 90.666667 184.725815 
L 90.666667 184.725815 
L 92.590545 180.624663 
L 92.590545 180.624663 
L 94.995394 176.126503 
L 94.995394 176.126503 
L 97.881212 171.476346 
L 97.881212 171.476346 
L 100.286061 168.095839 
L 100.286061 168.095839 
L 102.209939 165.650408 
L 102.209939 165.650408 
L 104.614788 162.85589 
L 104.614788 162.85589 
L 107.981576 159.328878 
L 107.981576 159.328878 
L 111.829333 155.707685 
L 111.829333 155.707685 
L 115.677091 152.402953 
L 115.677091 152.402953 
L 120.967758 148.235192 
L 120.967758 148.235192 
L 125.296485 145.083153 
L 125.296485 145.083153 
L 131.068121 141.200805 
L 131.068121 141.200805 
L 134.915879 138.812405 
L 134.915879 138.812405 
L 140.687515 135.534688 
L 140.687515 135.534688 
L 144.054303 133.79283 
L 144.054303 133.79283 
L 150.306909 130.881356 
L 150.306909 130.881356 
L 155.597576 128.720617 
L 155.597576 128.720617 
L 159.926303 127.129527 
L 159.926303 127.129527 
L 167.621818 124.595551 
L 181.569939 120.412661 
L 181.569939 120.412661 
L 188.784485 118.172502 
L 188.784485 118.172502 
L 196.48 115.585435 
L 204.656485 112.587691 
L 204.656485 112.587691 
L 217.161697 107.699392 
L 217.161697 107.699392 
L 227.262061 103.87759 
L 227.262061 103.87759 
L 229.666909 103.037523 
L 229.666909 103.037523 
L 234.957576 101.335983 
L 234.957576 101.335983 
L 239.286303 100.125581 
L 239.286303 100.125581 
L 245.057939 98.812276 
L 245.057939 98.812276 
L 248.424727 98.2191 
L 248.424727 98.2191 
L 253.715394 97.553495 
L 253.715394 97.553495 
L 258.044121 97.245982 
L 258.044121 97.245982 
L 263.815758 97.136758 
L 263.815758 97.136758 
L 265.739636 97.166429 
L 277.763879 97.810311 
L 277.763879 97.810311 
L 285.459394 98.261548 
L 298.445576 97.964316 
L 298.445576 97.964316 
L 301.812364 97.514948 
L 306.141091 96.654568 
L 323.456 90.047777 
L 323.456 90.047777 
L 327.784727 87.822227 
L 348.466424 79.125586 
L 348.466424 79.125586 
L 350.390303 78.856632 
L 373.476848 87.094048 
L 373.476848 87.094048 
L 373.957818 87.391652 
L 398.487273 53.568 
L 398.487273 53.568 
" clip-path="url(#p3c870e64cd)" style="fill: none; stroke: #e377c2; stroke-width: 1.5; stroke-linecap: square"/>
   </g>
   <g id="line2d_24">
    <path d="M 73.832727 258.551389 
L 75.756606 243.37942 
L 75.756606 243.37942 
L 77.680485 230.297026 
L 77.680485 230.297026 
L 79.604364 219.041537 
L 79.604364 219.041537 
L 81.528242 209.376705 
L 81.528242 209.376705 
L 83.452121 201.090665 
L 83.452121 201.090665 
L 85.376 193.993999 
L 85.376 193.993999 
L 86.818909 189.349769 
L 86.818909 189.349769 
L 89.223758 182.712606 
L 89.223758 182.712606 
L 90.666667 179.29971 
L 90.666667 179.29971 
L 92.590545 175.308877 
L 92.590545 175.308877 
L 94.995394 171.073576 
L 94.995394 171.073576 
L 96.919273 168.177276 
L 98.362182 166.240342 
L 98.362182 166.240342 
L 100.76703 163.376245 
L 100.76703 163.376245 
L 103.652848 160.404344 
L 103.652848 160.404344 
L 106.538667 157.793427 
L 106.538667 157.793427 
L 110.386424 154.671506 
L 110.386424 154.671506 
L 115.677091 150.730161 
L 115.677091 150.730161 
L 128.663273 141.480034 
L 128.663273 141.480034 
L 137.320727 135.486447 
L 137.320727 135.486447 
L 142.611394 132.030828 
L 142.611394 132.030828 
L 148.38303 128.550581 
L 148.38303 128.550581 
L 152.711758 126.182772 
L 152.711758 126.182772 
L 157.521455 123.819679 
L 157.521455 123.819679 
L 159.926303 122.745858 
L 159.926303 122.745858 
L 165.697939 120.452034 
L 165.697939 120.452034 
L 169.545697 119.128085 
L 169.545697 119.128085 
L 173.874424 117.807347 
L 173.874424 117.807347 
L 181.569939 115.794317 
L 181.569939 115.794317 
L 195.99903 112.504876 
L 195.99903 112.504876 
L 204.656485 110.405274 
L 204.656485 110.405274 
L 212.352 108.292884 
L 221.490424 105.462238 
L 221.490424 105.462238 
L 234.957576 100.928081 
L 234.957576 100.928081 
L 245.057939 97.668551 
L 245.057939 97.668551 
L 248.424727 96.685273 
L 248.424727 96.685273 
L 253.715394 95.292495 
L 253.715394 95.292495 
L 261.410909 93.664535 
L 261.410909 93.664535 
L 265.739636 92.976134 
L 273.435152 92.150393 
L 273.435152 92.150393 
L 281.130667 91.755252 
L 281.130667 91.755252 
L 285.459394 91.660894 
L 301.812364 91.278078 
L 301.812364 91.278078 
L 306.141091 90.943093 
L 323.456 87.461656 
L 323.456 87.461656 
L 327.784727 85.996393 
L 349.909333 77.105549 
L 349.909333 77.105549 
L 350.390303 76.946952 
L 373.476848 77.624652 
L 373.476848 77.624652 
L 373.957818 77.856008 
L 398.487273 88.620629 
L 398.487273 88.620629 
" clip-path="url(#p3c870e64cd)" style="fill: none; stroke: #7f7f7f; stroke-width: 1.5; stroke-linecap: square"/>
   </g>
   <g id="line2d_25">
    <path d="M 73.832727 253.877778 
L 75.756606 239.740344 
L 75.756606 239.740344 
L 77.680485 227.506435 
L 77.680485 227.506435 
L 79.604364 216.933199 
L 79.604364 216.933199 
L 81.528242 207.802568 
L 81.528242 207.802568 
L 83.452121 199.919338 
L 83.452121 199.919338 
L 85.376 193.109357 
L 85.376 193.109357 
L 86.818909 188.612381 
L 86.818909 188.612381 
L 89.223758 182.107629 
L 89.223758 182.107629 
L 90.666667 178.714487 
L 90.666667 178.714487 
L 92.590545 174.689832 
L 92.590545 174.689832 
L 94.995394 170.329381 
L 94.995394 170.329381 
L 97.881212 165.8727 
L 97.881212 165.8727 
L 100.286061 162.652291 
L 100.286061 162.652291 
L 102.209939 160.321982 
L 102.209939 160.321982 
L 104.614788 157.64403 
L 104.614788 157.64403 
L 107.981576 154.211708 
L 107.981576 154.211708 
L 112.310303 150.142034 
L 119.043879 144.19897 
L 119.043879 144.19897 
L 125.296485 138.899419 
L 125.296485 138.899419 
L 131.549091 133.814837 
L 137.320727 129.41416 
L 137.320727 129.41416 
L 142.130424 126.047121 
L 142.130424 126.047121 
L 144.054303 124.791497 
L 144.054303 124.791497 
L 148.38303 122.177994 
L 148.38303 122.177994 
L 152.711758 119.875513 
L 152.711758 119.875513 
L 155.597576 118.518336 
L 155.597576 118.518336 
L 159.926303 116.746251 
L 159.926303 116.746251 
L 165.697939 114.846345 
L 165.697939 114.846345 
L 169.545697 113.840162 
L 169.545697 113.840162 
L 173.874424 112.91378 
L 173.874424 112.91378 
L 181.569939 111.647695 
L 181.569939 111.647695 
L 198.403879 109.221188 
L 198.403879 109.221188 
L 204.656485 107.992994 
L 204.656485 107.992994 
L 208.023273 107.19723 
L 208.023273 107.19723 
L 212.352 106.019681 
L 217.161697 104.502148 
L 217.161697 104.502148 
L 224.857212 101.643383 
L 224.857212 101.643383 
L 229.666909 99.632563 
L 229.666909 99.632563 
L 253.715394 89.011094 
L 253.715394 89.011094 
L 258.044121 87.389339 
L 258.044121 87.389339 
L 263.815758 85.543057 
L 263.815758 85.543057 
L 265.739636 85.019728 
L 273.435152 83.438211 
L 273.435152 83.438211 
L 277.763879 82.923147 
L 277.763879 82.923147 
L 283.535515 82.648738 
L 283.535515 82.648738 
L 285.459394 82.6558 
L 298.445576 83.717449 
L 298.445576 83.717449 
L 306.141091 84.816916 
L 323.456 86.515806 
L 323.456 86.515806 
L 327.784727 86.443036 
L 348.466424 82.11263 
L 348.466424 82.11263 
L 350.390303 81.416202 
L 373.957818 72.727805 
L 398.487273 66.905387 
L 398.487273 66.905387 
" clip-path="url(#p3c870e64cd)" style="fill: none; stroke: #bcbd22; stroke-width: 1.5; stroke-linecap: square"/>
   </g>
   <g id="line2d_26">
    <path d="M 73.832727 255.21524 
L 75.756606 240.708485 
L 75.756606 240.708485 
L 77.680485 227.999386 
L 77.680485 227.999386 
L 79.604364 216.882338 
L 79.604364 216.882338 
L 81.528242 207.170864 
L 81.528242 207.170864 
L 83.452121 198.696229 
L 83.452121 198.696229 
L 85.376 191.306129 
L 85.376 191.306129 
L 86.818909 186.392264 
L 86.818909 186.392264 
L 89.223758 179.245129 
L 89.223758 179.245129 
L 90.666667 175.505636 
L 90.666667 175.505636 
L 92.590545 171.072031 
L 92.590545 171.072031 
L 94.995394 166.293086 
L 94.995394 166.293086 
L 96.919273 162.984595 
L 96.919273 162.984595 
L 98.362182 160.757943 
L 98.362182 160.757943 
L 100.76703 157.456521 
L 100.76703 157.456521 
L 103.652848 154.045788 
L 103.652848 154.045788 
L 104.614788 153.018013 
L 104.614788 153.018013 
L 107.981576 149.75821 
L 107.981576 149.75821 
L 111.829333 146.516194 
L 111.829333 146.516194 
L 115.677091 143.613068 
L 115.677091 143.613068 
L 121.448727 139.626505 
L 121.448727 139.626505 
L 129.625212 134.350521 
L 129.625212 134.350521 
L 138.282667 129.039934 
L 138.282667 129.039934 
L 144.054303 125.682641 
L 144.054303 125.682641 
L 150.787879 122.022668 
L 150.787879 122.022668 
L 155.597576 119.613363 
L 155.597576 119.613363 
L 159.926303 117.605709 
L 159.926303 117.605709 
L 167.140848 114.603787 
L 167.140848 114.603787 
L 172.912485 112.493511 
L 172.912485 112.493511 
L 179.165091 110.454545 
L 179.165091 110.454545 
L 184.455758 108.883834 
L 184.455758 108.883834 
L 198.403879 105.083149 
L 198.403879 105.083149 
L 211.87103 101.366331 
L 211.87103 101.366331 
L 221.490424 98.496019 
L 221.490424 98.496019 
L 248.424727 90.267646 
L 248.424727 90.267646 
L 253.715394 88.898586 
L 253.715394 88.898586 
L 261.410909 87.221776 
L 261.410909 87.221776 
L 265.739636 86.467816 
L 265.739636 86.467816 
L 273.435152 85.484294 
L 273.435152 85.484294 
L 281.130667 84.929701 
L 281.130667 84.929701 
L 285.459394 84.770889 
L 285.459394 84.770889 
L 304.217212 84.431673 
L 304.217212 84.431673 
L 306.141091 84.335998 
L 306.141091 84.335998 
L 323.456 81.64318 
L 323.456 81.64318 
L 327.784727 80.261266 
L 327.784727 80.261266 
L 348.466424 69.341233 
L 348.466424 69.341233 
L 350.390303 68.070667 
L 350.390303 68.070667 
L 373.476848 56.718857 
L 373.476848 56.718857 
L 373.957818 56.69296 
L 373.957818 56.69296 
L 398.487273 85.057011 
L 398.487273 85.057011 
" clip-path="url(#p3c870e64cd)" style="fill: none; stroke: #17becf; stroke-width: 1.5; stroke-linecap: square"/>
   </g>
   <g id="line2d_27">
    <path d="M 73.832727 248.548237 
L 75.756606 234.026455 
L 75.756606 234.026455 
L 77.680485 221.438431 
L 77.680485 221.438431 
L 79.604364 210.54687 
L 79.604364 210.54687 
L 81.528242 201.137873 
L 81.528242 201.137873 
L 83.452121 193.019149 
L 83.452121 193.019149 
L 85.376 186.018335 
L 85.376 186.018335 
L 86.818909 181.40805 
L 86.818909 181.40805 
L 89.223758 174.77118 
L 89.223758 174.77118 
L 90.666667 171.332263 
L 90.666667 171.332263 
L 92.590545 167.284401 
L 92.590545 167.284401 
L 94.995394 162.952827 
L 94.995394 162.952827 
L 97.881212 158.608955 
L 97.881212 158.608955 
L 100.286061 155.540566 
L 100.286061 155.540566 
L 102.209939 153.364946 
L 102.209939 153.364946 
L 104.614788 150.915547 
L 104.614788 150.915547 
L 107.981576 147.855176 
L 107.981576 147.855176 
L 112.310303 144.321429 
L 112.310303 144.321429 
L 119.043879 139.243356 
L 119.043879 139.243356 
L 133.47297 128.738686 
L 133.47297 128.738686 
L 140.687515 123.670609 
L 140.687515 123.670609 
L 146.940121 119.542549 
L 146.940121 119.542549 
L 152.711758 116.047671 
L 152.711758 116.047671 
L 158.002424 113.16199 
L 158.002424 113.16199 
L 163.293091 110.602848 
L 163.293091 110.602848 
L 167.621818 108.751778 
L 167.621818 108.751778 
L 173.393455 106.603804 
L 173.393455 106.603804 
L 177.241212 105.355253 
L 177.241212 105.355253 
L 181.569939 104.101578 
L 181.569939 104.101578 
L 188.784485 102.294642 
L 188.784485 102.294642 
L 198.403879 100.238509 
L 198.403879 100.238509 
L 248.424727 90.343983 
L 248.424727 90.343983 
L 258.044121 88.744809 
L 258.044121 88.744809 
L 265.739636 87.633621 
L 265.739636 87.633621 
L 285.459394 85.025667 
L 285.459394 85.025667 
L 298.445576 82.720689 
L 298.445576 82.720689 
L 305.660121 80.951167 
L 305.660121 80.951167 
L 306.141091 80.818292 
L 306.141091 80.818292 
L 323.456 74.883516 
L 323.456 74.883516 
L 327.784727 73.174055 
L 327.784727 73.174055 
L 348.466424 66.753901 
L 348.466424 66.753901 
L 350.390303 66.531878 
L 350.390303 66.531878 
L 373.957818 72.216672 
L 373.957818 72.216672 
L 398.487273 58.744399 
L 398.487273 58.744399 
" clip-path="url(#p3c870e64cd)" style="fill: none; stroke: #1f77b4; stroke-width: 1.5; stroke-linecap: square"/>
   </g>
   <g id="patch_3">
    <path d="M 57.6 307.584 
L 57.6 41.472 
" style="fill: none; stroke: #000000; stroke-width: 0.8; stroke-linejoin: miter; stroke-linecap: square"/>
   </g>
   <g id="patch_4">
    <path d="M 414.72 307.584 
L 414.72 41.472 
" style="fill: none; stroke: #000000; stroke-width: 0.8; stroke-linejoin: miter; stroke-linecap: square"/>
   </g>
   <g id="patch_5">
    <path d="M 57.6 307.584 
L 414.72 307.584 
" style="fill: none; stroke: #000000; stroke-width: 0.8; stroke-linejoin: miter; stroke-linecap: square"/>
   </g>
   <g id="patch_6">
    <path d="M 57.6 41.472 
L 414.72 41.472 
" style="fill: none; stroke: #000000; stroke-width: 0.8; stroke-linejoin: miter; stroke-linecap: square"/>
   </g>
   <g id="legend_1">
    <g id="patch_7">
     <path d="M 328.760625 302.584 
L 407.72 302.584 
Q 409.72 302.584 409.72 300.584 
L 409.72 140.124625 
Q 409.72 138.124625 407.72 138.124625 
L 328.760625 138.124625 
Q 326.760625 138.124625 326.760625 140.124625 
L 326.760625 300.584 
Q 326.760625 302.584 328.760625 302.584 
z
" style="fill: #ffffff; opacity: 0.8; stroke: #cccccc; stroke-linejoin: miter"/>
    </g>
    <g id="line2d_28">
     <path d="M 330.760625 146.223062 
L 340.760625 146.223062 
L 350.760625 146.223062 
" style="fill: none; stroke: #1f77b4; stroke-width: 1.5; stroke-linecap: square"/>
    </g>
    <g id="text_19">
     <!-- QBER: 1 -->
     <g transform="translate(358.760625 149.723062)scale(0.1 -0.1)">
      <defs>
       <path id="DejaVuSans-51" d="M 2522 4238 
Q 1834 4238 1429 3725 
Q 1025 3213 1025 2328 
Q 1025 1447 1429 934 
Q 1834 422 2522 422 
Q 3209 422 3611 934 
Q 4013 1447 4013 2328 
Q 4013 3213 3611 3725 
Q 3209 4238 2522 4238 
z
M 3406 84 
L 4238 -825 
L 3475 -825 
L 2784 -78 
Q 2681 -84 2626 -87 
Q 2572 -91 2522 -91 
Q 1538 -91 948 567 
Q 359 1225 359 2328 
Q 359 3434 948 4092 
Q 1538 4750 2522 4750 
Q 3503 4750 4090 4092 
Q 4678 3434 4678 2328 
Q 4678 1516 4351 937 
Q 4025 359 3406 84 
z
" transform="scale(0.015625)"/>
       <path id="DejaVuSans-42" d="M 1259 2228 
L 1259 519 
L 2272 519 
Q 2781 519 3026 730 
Q 3272 941 3272 1375 
Q 3272 1813 3026 2020 
Q 2781 2228 2272 2228 
L 1259 2228 
z
M 1259 4147 
L 1259 2741 
L 2194 2741 
Q 2656 2741 2882 2914 
Q 3109 3088 3109 3444 
Q 3109 3797 2882 3972 
Q 2656 4147 2194 4147 
L 1259 4147 
z
M 628 4666 
L 2241 4666 
Q 2963 4666 3353 4366 
Q 3744 4066 3744 3513 
Q 3744 3084 3544 2831 
Q 3344 2578 2956 2516 
Q 3422 2416 3680 2098 
Q 3938 1781 3938 1306 
Q 3938 681 3513 340 
Q 3088 0 2303 0 
L 628 0 
L 628 4666 
z
" transform="scale(0.015625)"/>
       <path id="DejaVuSans-45" d="M 628 4666 
L 3578 4666 
L 3578 4134 
L 1259 4134 
L 1259 2753 
L 3481 2753 
L 3481 2222 
L 1259 2222 
L 1259 531 
L 3634 531 
L 3634 0 
L 628 0 
L 628 4666 
z
" transform="scale(0.015625)"/>
       <path id="DejaVuSans-52" d="M 2841 2188 
Q 3044 2119 3236 1894 
Q 3428 1669 3622 1275 
L 4263 0 
L 3584 0 
L 2988 1197 
Q 2756 1666 2539 1819 
Q 2322 1972 1947 1972 
L 1259 1972 
L 1259 0 
L 628 0 
L 628 4666 
L 2053 4666 
Q 2853 4666 3247 4331 
Q 3641 3997 3641 3322 
Q 3641 2881 3436 2590 
Q 3231 2300 2841 2188 
z
M 1259 4147 
L 1259 2491 
L 2053 2491 
Q 2509 2491 2742 2702 
Q 2975 2913 2975 3322 
Q 2975 3731 2742 3939 
Q 2509 4147 2053 4147 
L 1259 4147 
z
" transform="scale(0.015625)"/>
       <path id="DejaVuSans-3a" d="M 750 794 
L 1409 794 
L 1409 0 
L 750 0 
L 750 794 
z
M 750 3309 
L 1409 3309 
L 1409 2516 
L 750 2516 
L 750 3309 
z
" transform="scale(0.015625)"/>
      </defs>
      <use xlink:href="#DejaVuSans-51"/>
      <use xlink:href="#DejaVuSans-42" x="78.710938"/>
      <use xlink:href="#DejaVuSans-45" x="147.314453"/>
      <use xlink:href="#DejaVuSans-52" x="210.498047"/>
      <use xlink:href="#DejaVuSans-3a" x="276.855469"/>
      <use xlink:href="#DejaVuSans-20" x="310.546875"/>
      <use xlink:href="#DejaVuSans-31" x="342.333984"/>
     </g>
    </g>
    <g id="line2d_29">
     <path d="M 330.760625 160.901188 
L 340.760625 160.901188 
L 350.760625 160.901188 
" style="fill: none; stroke: #ff7f0e; stroke-width: 1.5; stroke-linecap: square"/>
    </g>
    <g id="text_20">
     <!-- QBER: 2 -->
     <g transform="translate(358.760625 164.401188)scale(0.1 -0.1)">
      <use xlink:href="#DejaVuSans-51"/>
      <use xlink:href="#DejaVuSans-42" x="78.710938"/>
      <use xlink:href="#DejaVuSans-45" x="147.314453"/>
      <use xlink:href="#DejaVuSans-52" x="210.498047"/>
      <use xlink:href="#DejaVuSans-3a" x="276.855469"/>
      <use xlink:href="#DejaVuSans-20" x="310.546875"/>
      <use xlink:href="#DejaVuSans-32" x="342.333984"/>
     </g>
    </g>
    <g id="line2d_30">
     <path d="M 330.760625 175.579313 
L 340.760625 175.579313 
L 350.760625 175.579313 
" style="fill: none; stroke: #2ca02c; stroke-width: 1.5; stroke-linecap: square"/>
    </g>
    <g id="text_21">
     <!-- QBER: 3 -->
     <g transform="translate(358.760625 179.079313)scale(0.1 -0.1)">
      <defs>
       <path id="DejaVuSans-33" d="M 2597 2516 
Q 3050 2419 3304 2112 
Q 3559 1806 3559 1356 
Q 3559 666 3084 287 
Q 2609 -91 1734 -91 
Q 1441 -91 1130 -33 
Q 819 25 488 141 
L 488 750 
Q 750 597 1062 519 
Q 1375 441 1716 441 
Q 2309 441 2620 675 
Q 2931 909 2931 1356 
Q 2931 1769 2642 2001 
Q 2353 2234 1838 2234 
L 1294 2234 
L 1294 2753 
L 1863 2753 
Q 2328 2753 2575 2939 
Q 2822 3125 2822 3475 
Q 2822 3834 2567 4026 
Q 2313 4219 1838 4219 
Q 1578 4219 1281 4162 
Q 984 4106 628 3988 
L 628 4550 
Q 988 4650 1302 4700 
Q 1616 4750 1894 4750 
Q 2613 4750 3031 4423 
Q 3450 4097 3450 3541 
Q 3450 3153 3228 2886 
Q 3006 2619 2597 2516 
z
" transform="scale(0.015625)"/>
      </defs>
      <use xlink:href="#DejaVuSans-51"/>
      <use xlink:href="#DejaVuSans-42" x="78.710938"/>
      <use xlink:href="#DejaVuSans-45" x="147.314453"/>
      <use xlink:href="#DejaVuSans-52" x="210.498047"/>
      <use xlink:href="#DejaVuSans-3a" x="276.855469"/>
      <use xlink:href="#DejaVuSans-20" x="310.546875"/>
      <use xlink:href="#DejaVuSans-33" x="342.333984"/>
     </g>
    </g>
    <g id="line2d_31">
     <path d="M 330.760625 190.257438 
L 340.760625 190.257438 
L 350.760625 190.257438 
" style="fill: none; stroke: #d62728; stroke-width: 1.5; stroke-linecap: square"/>
    </g>
    <g id="text_22">
     <!-- QBER: 4 -->
     <g transform="translate(358.760625 193.757438)scale(0.1 -0.1)">
      <use xlink:href="#DejaVuSans-51"/>
      <use xlink:href="#DejaVuSans-42" x="78.710938"/>
      <use xlink:href="#DejaVuSans-45" x="147.314453"/>
      <use xlink:href="#DejaVuSans-52" x="210.498047"/>
      <use xlink:href="#DejaVuSans-3a" x="276.855469"/>
      <use xlink:href="#DejaVuSans-20" x="310.546875"/>
      <use xlink:href="#DejaVuSans-34" x="342.333984"/>
     </g>
    </g>
    <g id="line2d_32">
     <path d="M 330.760625 204.935563 
L 340.760625 204.935563 
L 350.760625 204.935563 
" style="fill: none; stroke: #9467bd; stroke-width: 1.5; stroke-linecap: square"/>
    </g>
    <g id="text_23">
     <!-- QBER: 5 -->
     <g transform="translate(358.760625 208.435563)scale(0.1 -0.1)">
      <use xlink:href="#DejaVuSans-51"/>
      <use xlink:href="#DejaVuSans-42" x="78.710938"/>
      <use xlink:href="#DejaVuSans-45" x="147.314453"/>
      <use xlink:href="#DejaVuSans-52" x="210.498047"/>
      <use xlink:href="#DejaVuSans-3a" x="276.855469"/>
      <use xlink:href="#DejaVuSans-20" x="310.546875"/>
      <use xlink:href="#DejaVuSans-35" x="342.333984"/>
     </g>
    </g>
    <g id="line2d_33">
     <path d="M 330.760625 219.613688 
L 340.760625 219.613688 
L 350.760625 219.613688 
" style="fill: none; stroke: #8c564b; stroke-width: 1.5; stroke-linecap: square"/>
    </g>
    <g id="text_24">
     <!-- QBER: 6 -->
     <g transform="translate(358.760625 223.113688)scale(0.1 -0.1)">
      <use xlink:href="#DejaVuSans-51"/>
      <use xlink:href="#DejaVuSans-42" x="78.710938"/>
      <use xlink:href="#DejaVuSans-45" x="147.314453"/>
      <use xlink:href="#DejaVuSans-52" x="210.498047"/>
      <use xlink:href="#DejaVuSans-3a" x="276.855469"/>
      <use xlink:href="#DejaVuSans-20" x="310.546875"/>
      <use xlink:href="#DejaVuSans-36" x="342.333984"/>
     </g>
    </g>
    <g id="line2d_34">
     <path d="M 330.760625 234.291812 
L 340.760625 234.291812 
L 350.760625 234.291812 
" style="fill: none; stroke: #e377c2; stroke-width: 1.5; stroke-linecap: square"/>
    </g>
    <g id="text_25">
     <!-- QBER: 7 -->
     <g transform="translate(358.760625 237.791812)scale(0.1 -0.1)">
      <use xlink:href="#DejaVuSans-51"/>
      <use xlink:href="#DejaVuSans-42" x="78.710938"/>
      <use xlink:href="#DejaVuSans-45" x="147.314453"/>
      <use xlink:href="#DejaVuSans-52" x="210.498047"/>
      <use xlink:href="#DejaVuSans-3a" x="276.855469"/>
      <use xlink:href="#DejaVuSans-20" x="310.546875"/>
      <use xlink:href="#DejaVuSans-37" x="342.333984"/>
     </g>
    </g>
    <g id="line2d_35">
     <path d="M 330.760625 248.969938 
L 340.760625 248.969938 
L 350.760625 248.969938 
" style="fill: none; stroke: #7f7f7f; stroke-width: 1.5; stroke-linecap: square"/>
    </g>
    <g id="text_26">
     <!-- QBER: 8 -->
     <g transform="translate(358.760625 252.469938)scale(0.1 -0.1)">
      <use xlink:href="#DejaVuSans-51"/>
      <use xlink:href="#DejaVuSans-42" x="78.710938"/>
      <use xlink:href="#DejaVuSans-45" x="147.314453"/>
      <use xlink:href="#DejaVuSans-52" x="210.498047"/>
      <use xlink:href="#DejaVuSans-3a" x="276.855469"/>
      <use xlink:href="#DejaVuSans-20" x="310.546875"/>
      <use xlink:href="#DejaVuSans-38" x="342.333984"/>
     </g>
    </g>
    <g id="line2d_36">
     <path d="M 330.760625 263.648062 
L 340.760625 263.648062 
L 350.760625 263.648062 
" style="fill: none; stroke: #bcbd22; stroke-width: 1.5; stroke-linecap: square"/>
    </g>
    <g id="text_27">
     <!-- QBER: 9 -->
     <g transform="translate(358.760625 267.148062)scale(0.1 -0.1)">
      <defs>
       <path id="DejaVuSans-39" d="M 703 97 
L 703 672 
Q 941 559 1184 500 
Q 1428 441 1663 441 
Q 2288 441 2617 861 
Q 2947 1281 2994 2138 
Q 2813 1869 2534 1725 
Q 2256 1581 1919 1581 
Q 1219 1581 811 2004 
Q 403 2428 403 3163 
Q 403 3881 828 4315 
Q 1253 4750 1959 4750 
Q 2769 4750 3195 4129 
Q 3622 3509 3622 2328 
Q 3622 1225 3098 567 
Q 2575 -91 1691 -91 
Q 1453 -91 1209 -44 
Q 966 3 703 97 
z
M 1959 2075 
Q 2384 2075 2632 2365 
Q 2881 2656 2881 3163 
Q 2881 3666 2632 3958 
Q 2384 4250 1959 4250 
Q 1534 4250 1286 3958 
Q 1038 3666 1038 3163 
Q 1038 2656 1286 2365 
Q 1534 2075 1959 2075 
z
" transform="scale(0.015625)"/>
      </defs>
      <use xlink:href="#DejaVuSans-51"/>
      <use xlink:href="#DejaVuSans-42" x="78.710938"/>
      <use xlink:href="#DejaVuSans-45" x="147.314453"/>
      <use xlink:href="#DejaVuSans-52" x="210.498047"/>
      <use xlink:href="#DejaVuSans-3a" x="276.855469"/>
      <use xlink:href="#DejaVuSans-20" x="310.546875"/>
      <use xlink:href="#DejaVuSans-39" x="342.333984"/>
     </g>
    </g>
    <g id="line2d_37">
     <path d="M 330.760625 278.326187 
L 340.760625 278.326187 
L 350.760625 278.326187 
" style="fill: none; stroke: #17becf; stroke-width: 1.5; stroke-linecap: square"/>
    </g>
    <g id="text_28">
     <!-- QBER: 10 -->
     <g transform="translate(358.760625 281.826187)scale(0.1 -0.1)">
      <use xlink:href="#DejaVuSans-51"/>
      <use xlink:href="#DejaVuSans-42" x="78.710938"/>
      <use xlink:href="#DejaVuSans-45" x="147.314453"/>
      <use xlink:href="#DejaVuSans-52" x="210.498047"/>
      <use xlink:href="#DejaVuSans-3a" x="276.855469"/>
      <use xlink:href="#DejaVuSans-20" x="310.546875"/>
      <use xlink:href="#DejaVuSans-31" x="342.333984"/>
      <use xlink:href="#DejaVuSans-30" x="405.957031"/>
     </g>
    </g>
    <g id="line2d_38">
     <path d="M 330.760625 293.004312 
L 340.760625 293.004312 
L 350.760625 293.004312 
" style="fill: none; stroke: #1f77b4; stroke-width: 1.5; stroke-linecap: square"/>
    </g>
    <g id="text_29">
     <!-- QBER: 11 -->
     <g transform="translate(358.760625 296.504312)scale(0.1 -0.1)">
      <use xlink:href="#DejaVuSans-51"/>
      <use xlink:href="#DejaVuSans-42" x="78.710938"/>
      <use xlink:href="#DejaVuSans-45" x="147.314453"/>
      <use xlink:href="#DejaVuSans-52" x="210.498047"/>
      <use xlink:href="#DejaVuSans-3a" x="276.855469"/>
      <use xlink:href="#DejaVuSans-20" x="310.546875"/>
      <use xlink:href="#DejaVuSans-31" x="342.333984"/>
      <use xlink:href="#DejaVuSans-31" x="405.957031"/>
     </g>
    </g>
   </g>
  </g>
 </g>
 <defs>
  <clipPath id="p3c870e64cd">
   <rect x="57.6" y="41.472" width="357.12" height="266.112"/>
  </clipPath>
 </defs>
</svg>
