<?xml version="1.0" encoding="utf-8" standalone="no"?>
<!DOCTYPE svg PUBLIC "-//W3C//DTD SVG 1.1//EN"
  "http://www.w3.org/Graphics/SVG/1.1/DTD/svg11.dtd">
<svg xmlns:xlink="http://www.w3.org/1999/xlink" width="460.8pt" height="345.6pt" viewBox="0 0 460.8 345.6" xmlns="http://www.w3.org/2000/svg" version="1.1">
 <metadata>
  <rdf:RDF xmlns:dc="http://purl.org/dc/elements/1.1/" xmlns:cc="http://creativecommons.org/ns#" xmlns:rdf="http://www.w3.org/1999/02/22-rdf-syntax-ns#">
   <cc:Work>
    <dc:type rdf:resource="http://purl.org/dc/dcmitype/StillImage"/>
    <dc:date>2023-09-07T07:52:24.794835</dc:date>
    <dc:format>image/svg+xml</dc:format>
    <dc:creator>
     <cc:Agent>
      <dc:title>Matplotlib v3.5.3, https://matplotlib.org/</dc:title>
     </cc:Agent>
    </dc:creator>
   </cc:Work>
  </rdf:RDF>
 </metadata>
 <defs>
  <style type="text/css">*{stroke-linejoin: round; stroke-linecap: butt}</style>
 </defs>
 <g id="figure_1">
  <g id="patch_1">
   <path d="M 0 345.6 
L 460.8 345.6 
L 460.8 0 
L 0 0 
z
" style="fill: #ffffff"/>
  </g>
  <g id="axes_1">
   <g id="patch_2">
    <path d="M 57.6 307.584 
L 414.72 307.584 
L 414.72 41.472 
L 57.6 41.472 
z
" style="fill: #ffffff"/>
   </g>
   <g id="matplotlib.axis_1">
    <g id="xtick_1">
     <g id="line2d_1">
      <defs>
       <path id="m6762b0dcad" d="M 0 0 
L 0 3.5 
" style="stroke: #000000; stroke-width: 0.8"/>
      </defs>
      <g>
       <use xlink:href="#m6762b0dcad" x="73.351758" y="307.584" style="stroke: #000000; stroke-width: 0.8"/>
      </g>
     </g>
     <g id="text_1">
      <!-- 0 -->
      <g transform="translate(70.170508 322.182437)scale(0.1 -0.1)">
       <defs>
        <path id="DejaVuSans-30" d="M 2034 4250 
Q 1547 4250 1301 3770 
Q 1056 3291 1056 2328 
Q 1056 1369 1301 889 
Q 1547 409 2034 409 
Q 2525 409 2770 889 
Q 3016 1369 3016 2328 
Q 3016 3291 2770 3770 
Q 2525 4250 2034 4250 
z
M 2034 4750 
Q 2819 4750 3233 4129 
Q 3647 3509 3647 2328 
Q 3647 1150 3233 529 
Q 2819 -91 2034 -91 
Q 1250 -91 836 529 
Q 422 1150 422 2328 
Q 422 3509 836 4129 
Q 1250 4750 2034 4750 
z
" transform="scale(0.015625)"/>
       </defs>
       <use xlink:href="#DejaVuSans-30"/>
      </g>
     </g>
    </g>
    <g id="xtick_2">
     <g id="line2d_2">
      <g>
       <use xlink:href="#m6762b0dcad" x="121.448727" y="307.584" style="stroke: #000000; stroke-width: 0.8"/>
      </g>
     </g>
     <g id="text_2">
      <!-- 2500 -->
      <g transform="translate(108.723727 322.182437)scale(0.1 -0.1)">
       <defs>
        <path id="DejaVuSans-32" d="M 1228 531 
L 3431 531 
L 3431 0 
L 469 0 
L 469 531 
Q 828 903 1448 1529 
Q 2069 2156 2228 2338 
Q 2531 2678 2651 2914 
Q 2772 3150 2772 3378 
Q 2772 3750 2511 3984 
Q 2250 4219 1831 4219 
Q 1534 4219 1204 4116 
Q 875 4013 500 3803 
L 500 4441 
Q 881 4594 1212 4672 
Q 1544 4750 1819 4750 
Q 2544 4750 2975 4387 
Q 3406 4025 3406 3419 
Q 3406 3131 3298 2873 
Q 3191 2616 2906 2266 
Q 2828 2175 2409 1742 
Q 1991 1309 1228 531 
z
" transform="scale(0.015625)"/>
        <path id="DejaVuSans-35" d="M 691 4666 
L 3169 4666 
L 3169 4134 
L 1269 4134 
L 1269 2991 
Q 1406 3038 1543 3061 
Q 1681 3084 1819 3084 
Q 2600 3084 3056 2656 
Q 3513 2228 3513 1497 
Q 3513 744 3044 326 
Q 2575 -91 1722 -91 
Q 1428 -91 1123 -41 
Q 819 9 494 109 
L 494 744 
Q 775 591 1075 516 
Q 1375 441 1709 441 
Q 2250 441 2565 725 
Q 2881 1009 2881 1497 
Q 2881 1984 2565 2268 
Q 2250 2553 1709 2553 
Q 1456 2553 1204 2497 
Q 953 2441 691 2322 
L 691 4666 
z
" transform="scale(0.015625)"/>
       </defs>
       <use xlink:href="#DejaVuSans-32"/>
       <use xlink:href="#DejaVuSans-35" x="63.623047"/>
       <use xlink:href="#DejaVuSans-30" x="127.246094"/>
       <use xlink:href="#DejaVuSans-30" x="190.869141"/>
      </g>
     </g>
    </g>
    <g id="xtick_3">
     <g id="line2d_3">
      <g>
       <use xlink:href="#m6762b0dcad" x="169.545697" y="307.584" style="stroke: #000000; stroke-width: 0.8"/>
      </g>
     </g>
     <g id="text_3">
      <!-- 5000 -->
      <g transform="translate(156.820697 322.182437)scale(0.1 -0.1)">
       <use xlink:href="#DejaVuSans-35"/>
       <use xlink:href="#DejaVuSans-30" x="63.623047"/>
       <use xlink:href="#DejaVuSans-30" x="127.246094"/>
       <use xlink:href="#DejaVuSans-30" x="190.869141"/>
      </g>
     </g>
    </g>
    <g id="xtick_4">
     <g id="line2d_4">
      <g>
       <use xlink:href="#m6762b0dcad" x="217.642667" y="307.584" style="stroke: #000000; stroke-width: 0.8"/>
      </g>
     </g>
     <g id="text_4">
      <!-- 7500 -->
      <g transform="translate(204.917667 322.182437)scale(0.1 -0.1)">
       <defs>
        <path id="DejaVuSans-37" d="M 525 4666 
L 3525 4666 
L 3525 4397 
L 1831 0 
L 1172 0 
L 2766 4134 
L 525 4134 
L 525 4666 
z
" transform="scale(0.015625)"/>
       </defs>
       <use xlink:href="#DejaVuSans-37"/>
       <use xlink:href="#DejaVuSans-35" x="63.623047"/>
       <use xlink:href="#DejaVuSans-30" x="127.246094"/>
       <use xlink:href="#DejaVuSans-30" x="190.869141"/>
      </g>
     </g>
    </g>
    <g id="xtick_5">
     <g id="line2d_5">
      <g>
       <use xlink:href="#m6762b0dcad" x="265.739636" y="307.584" style="stroke: #000000; stroke-width: 0.8"/>
      </g>
     </g>
     <g id="text_5">
      <!-- 10000 -->
      <g transform="translate(249.833386 322.182437)scale(0.1 -0.1)">
       <defs>
        <path id="DejaVuSans-31" d="M 794 531 
L 1825 531 
L 1825 4091 
L 703 3866 
L 703 4441 
L 1819 4666 
L 2450 4666 
L 2450 531 
L 3481 531 
L 3481 0 
L 794 0 
L 794 531 
z
" transform="scale(0.015625)"/>
       </defs>
       <use xlink:href="#DejaVuSans-31"/>
       <use xlink:href="#DejaVuSans-30" x="63.623047"/>
       <use xlink:href="#DejaVuSans-30" x="127.246094"/>
       <use xlink:href="#DejaVuSans-30" x="190.869141"/>
       <use xlink:href="#DejaVuSans-30" x="254.492188"/>
      </g>
     </g>
    </g>
    <g id="xtick_6">
     <g id="line2d_6">
      <g>
       <use xlink:href="#m6762b0dcad" x="313.836606" y="307.584" style="stroke: #000000; stroke-width: 0.8"/>
      </g>
     </g>
     <g id="text_6">
      <!-- 12500 -->
      <g transform="translate(297.930356 322.182437)scale(0.1 -0.1)">
       <use xlink:href="#DejaVuSans-31"/>
       <use xlink:href="#DejaVuSans-32" x="63.623047"/>
       <use xlink:href="#DejaVuSans-35" x="127.246094"/>
       <use xlink:href="#DejaVuSans-30" x="190.869141"/>
       <use xlink:href="#DejaVuSans-30" x="254.492188"/>
      </g>
     </g>
    </g>
    <g id="xtick_7">
     <g id="line2d_7">
      <g>
       <use xlink:href="#m6762b0dcad" x="361.933576" y="307.584" style="stroke: #000000; stroke-width: 0.8"/>
      </g>
     </g>
     <g id="text_7">
      <!-- 15000 -->
      <g transform="translate(346.027326 322.182437)scale(0.1 -0.1)">
       <use xlink:href="#DejaVuSans-31"/>
       <use xlink:href="#DejaVuSans-35" x="63.623047"/>
       <use xlink:href="#DejaVuSans-30" x="127.246094"/>
       <use xlink:href="#DejaVuSans-30" x="190.869141"/>
       <use xlink:href="#DejaVuSans-30" x="254.492188"/>
      </g>
     </g>
    </g>
    <g id="xtick_8">
     <g id="line2d_8">
      <g>
       <use xlink:href="#m6762b0dcad" x="410.030545" y="307.584" style="stroke: #000000; stroke-width: 0.8"/>
      </g>
     </g>
     <g id="text_8">
      <!-- 17500 -->
      <g transform="translate(394.124295 322.182437)scale(0.1 -0.1)">
       <use xlink:href="#DejaVuSans-31"/>
       <use xlink:href="#DejaVuSans-37" x="63.623047"/>
       <use xlink:href="#DejaVuSans-35" x="127.246094"/>
       <use xlink:href="#DejaVuSans-30" x="190.869141"/>
       <use xlink:href="#DejaVuSans-30" x="254.492188"/>
      </g>
     </g>
    </g>
    <g id="text_9">
     <!-- Number of input neurons multiplied by number of hidden neurons [N*K] -->
     <g transform="translate(56.102969 335.860562)scale(0.1 -0.1)">
      <defs>
       <path id="DejaVuSans-4e" d="M 628 4666 
L 1478 4666 
L 3547 763 
L 3547 4666 
L 4159 4666 
L 4159 0 
L 3309 0 
L 1241 3903 
L 1241 0 
L 628 0 
L 628 4666 
z
" transform="scale(0.015625)"/>
       <path id="DejaVuSans-75" d="M 544 1381 
L 544 3500 
L 1119 3500 
L 1119 1403 
Q 1119 906 1312 657 
Q 1506 409 1894 409 
Q 2359 409 2629 706 
Q 2900 1003 2900 1516 
L 2900 3500 
L 3475 3500 
L 3475 0 
L 2900 0 
L 2900 538 
Q 2691 219 2414 64 
Q 2138 -91 1772 -91 
Q 1169 -91 856 284 
Q 544 659 544 1381 
z
M 1991 3584 
L 1991 3584 
z
" transform="scale(0.015625)"/>
       <path id="DejaVuSans-6d" d="M 3328 2828 
Q 3544 3216 3844 3400 
Q 4144 3584 4550 3584 
Q 5097 3584 5394 3201 
Q 5691 2819 5691 2113 
L 5691 0 
L 5113 0 
L 5113 2094 
Q 5113 2597 4934 2840 
Q 4756 3084 4391 3084 
Q 3944 3084 3684 2787 
Q 3425 2491 3425 1978 
L 3425 0 
L 2847 0 
L 2847 2094 
Q 2847 2600 2669 2842 
Q 2491 3084 2119 3084 
Q 1678 3084 1418 2786 
Q 1159 2488 1159 1978 
L 1159 0 
L 581 0 
L 581 3500 
L 1159 3500 
L 1159 2956 
Q 1356 3278 1631 3431 
Q 1906 3584 2284 3584 
Q 2666 3584 2933 3390 
Q 3200 3197 3328 2828 
z
" transform="scale(0.015625)"/>
       <path id="DejaVuSans-62" d="M 3116 1747 
Q 3116 2381 2855 2742 
Q 2594 3103 2138 3103 
Q 1681 3103 1420 2742 
Q 1159 2381 1159 1747 
Q 1159 1113 1420 752 
Q 1681 391 2138 391 
Q 2594 391 2855 752 
Q 3116 1113 3116 1747 
z
M 1159 2969 
Q 1341 3281 1617 3432 
Q 1894 3584 2278 3584 
Q 2916 3584 3314 3078 
Q 3713 2572 3713 1747 
Q 3713 922 3314 415 
Q 2916 -91 2278 -91 
Q 1894 -91 1617 61 
Q 1341 213 1159 525 
L 1159 0 
L 581 0 
L 581 4863 
L 1159 4863 
L 1159 2969 
z
" transform="scale(0.015625)"/>
       <path id="DejaVuSans-65" d="M 3597 1894 
L 3597 1613 
L 953 1613 
Q 991 1019 1311 708 
Q 1631 397 2203 397 
Q 2534 397 2845 478 
Q 3156 559 3463 722 
L 3463 178 
Q 3153 47 2828 -22 
Q 2503 -91 2169 -91 
Q 1331 -91 842 396 
Q 353 884 353 1716 
Q 353 2575 817 3079 
Q 1281 3584 2069 3584 
Q 2775 3584 3186 3129 
Q 3597 2675 3597 1894 
z
M 3022 2063 
Q 3016 2534 2758 2815 
Q 2500 3097 2075 3097 
Q 1594 3097 1305 2825 
Q 1016 2553 972 2059 
L 3022 2063 
z
" transform="scale(0.015625)"/>
       <path id="DejaVuSans-72" d="M 2631 2963 
Q 2534 3019 2420 3045 
Q 2306 3072 2169 3072 
Q 1681 3072 1420 2755 
Q 1159 2438 1159 1844 
L 1159 0 
L 581 0 
L 581 3500 
L 1159 3500 
L 1159 2956 
Q 1341 3275 1631 3429 
Q 1922 3584 2338 3584 
Q 2397 3584 2469 3576 
Q 2541 3569 2628 3553 
L 2631 2963 
z
" transform="scale(0.015625)"/>
       <path id="DejaVuSans-20" transform="scale(0.015625)"/>
       <path id="DejaVuSans-6f" d="M 1959 3097 
Q 1497 3097 1228 2736 
Q 959 2375 959 1747 
Q 959 1119 1226 758 
Q 1494 397 1959 397 
Q 2419 397 2687 759 
Q 2956 1122 2956 1747 
Q 2956 2369 2687 2733 
Q 2419 3097 1959 3097 
z
M 1959 3584 
Q 2709 3584 3137 3096 
Q 3566 2609 3566 1747 
Q 3566 888 3137 398 
Q 2709 -91 1959 -91 
Q 1206 -91 779 398 
Q 353 888 353 1747 
Q 353 2609 779 3096 
Q 1206 3584 1959 3584 
z
" transform="scale(0.015625)"/>
       <path id="DejaVuSans-66" d="M 2375 4863 
L 2375 4384 
L 1825 4384 
Q 1516 4384 1395 4259 
Q 1275 4134 1275 3809 
L 1275 3500 
L 2222 3500 
L 2222 3053 
L 1275 3053 
L 1275 0 
L 697 0 
L 697 3053 
L 147 3053 
L 147 3500 
L 697 3500 
L 697 3744 
Q 697 4328 969 4595 
Q 1241 4863 1831 4863 
L 2375 4863 
z
" transform="scale(0.015625)"/>
       <path id="DejaVuSans-69" d="M 603 3500 
L 1178 3500 
L 1178 0 
L 603 0 
L 603 3500 
z
M 603 4863 
L 1178 4863 
L 1178 4134 
L 603 4134 
L 603 4863 
z
" transform="scale(0.015625)"/>
       <path id="DejaVuSans-6e" d="M 3513 2113 
L 3513 0 
L 2938 0 
L 2938 2094 
Q 2938 2591 2744 2837 
Q 2550 3084 2163 3084 
Q 1697 3084 1428 2787 
Q 1159 2491 1159 1978 
L 1159 0 
L 581 0 
L 581 3500 
L 1159 3500 
L 1159 2956 
Q 1366 3272 1645 3428 
Q 1925 3584 2291 3584 
Q 2894 3584 3203 3211 
Q 3513 2838 3513 2113 
z
" transform="scale(0.015625)"/>
       <path id="DejaVuSans-70" d="M 1159 525 
L 1159 -1331 
L 581 -1331 
L 581 3500 
L 1159 3500 
L 1159 2969 
Q 1341 3281 1617 3432 
Q 1894 3584 2278 3584 
Q 2916 3584 3314 3078 
Q 3713 2572 3713 1747 
Q 3713 922 3314 415 
Q 2916 -91 2278 -91 
Q 1894 -91 1617 61 
Q 1341 213 1159 525 
z
M 3116 1747 
Q 3116 2381 2855 2742 
Q 2594 3103 2138 3103 
Q 1681 3103 1420 2742 
Q 1159 2381 1159 1747 
Q 1159 1113 1420 752 
Q 1681 391 2138 391 
Q 2594 391 2855 752 
Q 3116 1113 3116 1747 
z
" transform="scale(0.015625)"/>
       <path id="DejaVuSans-74" d="M 1172 4494 
L 1172 3500 
L 2356 3500 
L 2356 3053 
L 1172 3053 
L 1172 1153 
Q 1172 725 1289 603 
Q 1406 481 1766 481 
L 2356 481 
L 2356 0 
L 1766 0 
Q 1100 0 847 248 
Q 594 497 594 1153 
L 594 3053 
L 172 3053 
L 172 3500 
L 594 3500 
L 594 4494 
L 1172 4494 
z
" transform="scale(0.015625)"/>
       <path id="DejaVuSans-73" d="M 2834 3397 
L 2834 2853 
Q 2591 2978 2328 3040 
Q 2066 3103 1784 3103 
Q 1356 3103 1142 2972 
Q 928 2841 928 2578 
Q 928 2378 1081 2264 
Q 1234 2150 1697 2047 
L 1894 2003 
Q 2506 1872 2764 1633 
Q 3022 1394 3022 966 
Q 3022 478 2636 193 
Q 2250 -91 1575 -91 
Q 1294 -91 989 -36 
Q 684 19 347 128 
L 347 722 
Q 666 556 975 473 
Q 1284 391 1588 391 
Q 1994 391 2212 530 
Q 2431 669 2431 922 
Q 2431 1156 2273 1281 
Q 2116 1406 1581 1522 
L 1381 1569 
Q 847 1681 609 1914 
Q 372 2147 372 2553 
Q 372 3047 722 3315 
Q 1072 3584 1716 3584 
Q 2034 3584 2315 3537 
Q 2597 3491 2834 3397 
z
" transform="scale(0.015625)"/>
       <path id="DejaVuSans-6c" d="M 603 4863 
L 1178 4863 
L 1178 0 
L 603 0 
L 603 4863 
z
" transform="scale(0.015625)"/>
       <path id="DejaVuSans-64" d="M 2906 2969 
L 2906 4863 
L 3481 4863 
L 3481 0 
L 2906 0 
L 2906 525 
Q 2725 213 2448 61 
Q 2172 -91 1784 -91 
Q 1150 -91 751 415 
Q 353 922 353 1747 
Q 353 2572 751 3078 
Q 1150 3584 1784 3584 
Q 2172 3584 2448 3432 
Q 2725 3281 2906 2969 
z
M 947 1747 
Q 947 1113 1208 752 
Q 1469 391 1925 391 
Q 2381 391 2643 752 
Q 2906 1113 2906 1747 
Q 2906 2381 2643 2742 
Q 2381 3103 1925 3103 
Q 1469 3103 1208 2742 
Q 947 2381 947 1747 
z
" transform="scale(0.015625)"/>
       <path id="DejaVuSans-79" d="M 2059 -325 
Q 1816 -950 1584 -1140 
Q 1353 -1331 966 -1331 
L 506 -1331 
L 506 -850 
L 844 -850 
Q 1081 -850 1212 -737 
Q 1344 -625 1503 -206 
L 1606 56 
L 191 3500 
L 800 3500 
L 1894 763 
L 2988 3500 
L 3597 3500 
L 2059 -325 
z
" transform="scale(0.015625)"/>
       <path id="DejaVuSans-68" d="M 3513 2113 
L 3513 0 
L 2938 0 
L 2938 2094 
Q 2938 2591 2744 2837 
Q 2550 3084 2163 3084 
Q 1697 3084 1428 2787 
Q 1159 2491 1159 1978 
L 1159 0 
L 581 0 
L 581 4863 
L 1159 4863 
L 1159 2956 
Q 1366 3272 1645 3428 
Q 1925 3584 2291 3584 
Q 2894 3584 3203 3211 
Q 3513 2838 3513 2113 
z
" transform="scale(0.015625)"/>
       <path id="DejaVuSans-5b" d="M 550 4863 
L 1875 4863 
L 1875 4416 
L 1125 4416 
L 1125 -397 
L 1875 -397 
L 1875 -844 
L 550 -844 
L 550 4863 
z
" transform="scale(0.015625)"/>
       <path id="DejaVuSans-2a" d="M 3009 3897 
L 1888 3291 
L 3009 2681 
L 2828 2375 
L 1778 3009 
L 1778 1831 
L 1422 1831 
L 1422 3009 
L 372 2375 
L 191 2681 
L 1313 3291 
L 191 3897 
L 372 4206 
L 1422 3572 
L 1422 4750 
L 1778 4750 
L 1778 3572 
L 2828 4206 
L 3009 3897 
z
" transform="scale(0.015625)"/>
       <path id="DejaVuSans-4b" d="M 628 4666 
L 1259 4666 
L 1259 2694 
L 3353 4666 
L 4166 4666 
L 1850 2491 
L 4331 0 
L 3500 0 
L 1259 2247 
L 1259 0 
L 628 0 
L 628 4666 
z
" transform="scale(0.015625)"/>
       <path id="DejaVuSans-5d" d="M 1947 4863 
L 1947 -844 
L 622 -844 
L 622 -397 
L 1369 -397 
L 1369 4416 
L 622 4416 
L 622 4863 
L 1947 4863 
z
" transform="scale(0.015625)"/>
      </defs>
      <use xlink:href="#DejaVuSans-4e"/>
      <use xlink:href="#DejaVuSans-75" x="74.804688"/>
      <use xlink:href="#DejaVuSans-6d" x="138.183594"/>
      <use xlink:href="#DejaVuSans-62" x="235.595703"/>
      <use xlink:href="#DejaVuSans-65" x="299.072266"/>
      <use xlink:href="#DejaVuSans-72" x="360.595703"/>
      <use xlink:href="#DejaVuSans-20" x="401.708984"/>
      <use xlink:href="#DejaVuSans-6f" x="433.496094"/>
      <use xlink:href="#DejaVuSans-66" x="494.677734"/>
      <use xlink:href="#DejaVuSans-20" x="529.882812"/>
      <use xlink:href="#DejaVuSans-69" x="561.669922"/>
      <use xlink:href="#DejaVuSans-6e" x="589.453125"/>
      <use xlink:href="#DejaVuSans-70" x="652.832031"/>
      <use xlink:href="#DejaVuSans-75" x="716.308594"/>
      <use xlink:href="#DejaVuSans-74" x="779.6875"/>
      <use xlink:href="#DejaVuSans-20" x="818.896484"/>
      <use xlink:href="#DejaVuSans-6e" x="850.683594"/>
      <use xlink:href="#DejaVuSans-65" x="914.0625"/>
      <use xlink:href="#DejaVuSans-75" x="975.585938"/>
      <use xlink:href="#DejaVuSans-72" x="1038.964844"/>
      <use xlink:href="#DejaVuSans-6f" x="1077.828125"/>
      <use xlink:href="#DejaVuSans-6e" x="1139.009766"/>
      <use xlink:href="#DejaVuSans-73" x="1202.388672"/>
      <use xlink:href="#DejaVuSans-20" x="1254.488281"/>
      <use xlink:href="#DejaVuSans-6d" x="1286.275391"/>
      <use xlink:href="#DejaVuSans-75" x="1383.6875"/>
      <use xlink:href="#DejaVuSans-6c" x="1447.066406"/>
      <use xlink:href="#DejaVuSans-74" x="1474.849609"/>
      <use xlink:href="#DejaVuSans-69" x="1514.058594"/>
      <use xlink:href="#DejaVuSans-70" x="1541.841797"/>
      <use xlink:href="#DejaVuSans-6c" x="1605.318359"/>
      <use xlink:href="#DejaVuSans-69" x="1633.101562"/>
      <use xlink:href="#DejaVuSans-65" x="1660.884766"/>
      <use xlink:href="#DejaVuSans-64" x="1722.408203"/>
      <use xlink:href="#DejaVuSans-20" x="1785.884766"/>
      <use xlink:href="#DejaVuSans-62" x="1817.671875"/>
      <use xlink:href="#DejaVuSans-79" x="1881.148438"/>
      <use xlink:href="#DejaVuSans-20" x="1940.328125"/>
      <use xlink:href="#DejaVuSans-6e" x="1972.115234"/>
      <use xlink:href="#DejaVuSans-75" x="2035.494141"/>
      <use xlink:href="#DejaVuSans-6d" x="2098.873047"/>
      <use xlink:href="#DejaVuSans-62" x="2196.285156"/>
      <use xlink:href="#DejaVuSans-65" x="2259.761719"/>
      <use xlink:href="#DejaVuSans-72" x="2321.285156"/>
      <use xlink:href="#DejaVuSans-20" x="2362.398438"/>
      <use xlink:href="#DejaVuSans-6f" x="2394.185547"/>
      <use xlink:href="#DejaVuSans-66" x="2455.367188"/>
      <use xlink:href="#DejaVuSans-20" x="2490.572266"/>
      <use xlink:href="#DejaVuSans-68" x="2522.359375"/>
      <use xlink:href="#DejaVuSans-69" x="2585.738281"/>
      <use xlink:href="#DejaVuSans-64" x="2613.521484"/>
      <use xlink:href="#DejaVuSans-64" x="2676.998047"/>
      <use xlink:href="#DejaVuSans-65" x="2740.474609"/>
      <use xlink:href="#DejaVuSans-6e" x="2801.998047"/>
      <use xlink:href="#DejaVuSans-20" x="2865.376953"/>
      <use xlink:href="#DejaVuSans-6e" x="2897.164062"/>
      <use xlink:href="#DejaVuSans-65" x="2960.542969"/>
      <use xlink:href="#DejaVuSans-75" x="3022.066406"/>
      <use xlink:href="#DejaVuSans-72" x="3085.445312"/>
      <use xlink:href="#DejaVuSans-6f" x="3124.308594"/>
      <use xlink:href="#DejaVuSans-6e" x="3185.490234"/>
      <use xlink:href="#DejaVuSans-73" x="3248.869141"/>
      <use xlink:href="#DejaVuSans-20" x="3300.96875"/>
      <use xlink:href="#DejaVuSans-5b" x="3332.755859"/>
      <use xlink:href="#DejaVuSans-4e" x="3371.769531"/>
      <use xlink:href="#DejaVuSans-2a" x="3446.574219"/>
      <use xlink:href="#DejaVuSans-4b" x="3496.574219"/>
      <use xlink:href="#DejaVuSans-5d" x="3562.150391"/>
     </g>
    </g>
   </g>
   <g id="matplotlib.axis_2">
    <g id="ytick_1">
     <g id="line2d_9">
      <defs>
       <path id="mccb71654cb" d="M 0 0 
L -3.5 0 
" style="stroke: #000000; stroke-width: 0.8"/>
      </defs>
      <g>
       <use xlink:href="#mccb71654cb" x="57.6" y="304.492207" style="stroke: #000000; stroke-width: 0.8"/>
      </g>
     </g>
     <g id="text_10">
      <!-- 0 -->
      <g transform="translate(44.2375 308.291425)scale(0.1 -0.1)">
       <use xlink:href="#DejaVuSans-30"/>
      </g>
     </g>
    </g>
    <g id="ytick_2">
     <g id="line2d_10">
      <g>
       <use xlink:href="#mccb71654cb" x="57.6" y="260.054851" style="stroke: #000000; stroke-width: 0.8"/>
      </g>
     </g>
     <g id="text_11">
      <!-- 10 -->
      <g transform="translate(37.875 263.85407)scale(0.1 -0.1)">
       <use xlink:href="#DejaVuSans-31"/>
       <use xlink:href="#DejaVuSans-30" x="63.623047"/>
      </g>
     </g>
    </g>
    <g id="ytick_3">
     <g id="line2d_11">
      <g>
       <use xlink:href="#mccb71654cb" x="57.6" y="215.617495" style="stroke: #000000; stroke-width: 0.8"/>
      </g>
     </g>
     <g id="text_12">
      <!-- 20 -->
      <g transform="translate(37.875 219.416714)scale(0.1 -0.1)">
       <use xlink:href="#DejaVuSans-32"/>
       <use xlink:href="#DejaVuSans-30" x="63.623047"/>
      </g>
     </g>
    </g>
    <g id="ytick_4">
     <g id="line2d_12">
      <g>
       <use xlink:href="#mccb71654cb" x="57.6" y="171.180139" style="stroke: #000000; stroke-width: 0.8"/>
      </g>
     </g>
     <g id="text_13">
      <!-- 30 -->
      <g transform="translate(37.875 174.979358)scale(0.1 -0.1)">
       <defs>
        <path id="DejaVuSans-33" d="M 2597 2516 
Q 3050 2419 3304 2112 
Q 3559 1806 3559 1356 
Q 3559 666 3084 287 
Q 2609 -91 1734 -91 
Q 1441 -91 1130 -33 
Q 819 25 488 141 
L 488 750 
Q 750 597 1062 519 
Q 1375 441 1716 441 
Q 2309 441 2620 675 
Q 2931 909 2931 1356 
Q 2931 1769 2642 2001 
Q 2353 2234 1838 2234 
L 1294 2234 
L 1294 2753 
L 1863 2753 
Q 2328 2753 2575 2939 
Q 2822 3125 2822 3475 
Q 2822 3834 2567 4026 
Q 2313 4219 1838 4219 
Q 1578 4219 1281 4162 
Q 984 4106 628 3988 
L 628 4550 
Q 988 4650 1302 4700 
Q 1616 4750 1894 4750 
Q 2613 4750 3031 4423 
Q 3450 4097 3450 3541 
Q 3450 3153 3228 2886 
Q 3006 2619 2597 2516 
z
" transform="scale(0.015625)"/>
       </defs>
       <use xlink:href="#DejaVuSans-33"/>
       <use xlink:href="#DejaVuSans-30" x="63.623047"/>
      </g>
     </g>
    </g>
    <g id="ytick_5">
     <g id="line2d_13">
      <g>
       <use xlink:href="#mccb71654cb" x="57.6" y="126.742783" style="stroke: #000000; stroke-width: 0.8"/>
      </g>
     </g>
     <g id="text_14">
      <!-- 40 -->
      <g transform="translate(37.875 130.542002)scale(0.1 -0.1)">
       <defs>
        <path id="DejaVuSans-34" d="M 2419 4116 
L 825 1625 
L 2419 1625 
L 2419 4116 
z
M 2253 4666 
L 3047 4666 
L 3047 1625 
L 3713 1625 
L 3713 1100 
L 3047 1100 
L 3047 0 
L 2419 0 
L 2419 1100 
L 313 1100 
L 313 1709 
L 2253 4666 
z
" transform="scale(0.015625)"/>
       </defs>
       <use xlink:href="#DejaVuSans-34"/>
       <use xlink:href="#DejaVuSans-30" x="63.623047"/>
      </g>
     </g>
    </g>
    <g id="ytick_6">
     <g id="line2d_14">
      <g>
       <use xlink:href="#mccb71654cb" x="57.6" y="82.305427" style="stroke: #000000; stroke-width: 0.8"/>
      </g>
     </g>
     <g id="text_15">
      <!-- 50 -->
      <g transform="translate(37.875 86.104646)scale(0.1 -0.1)">
       <use xlink:href="#DejaVuSans-35"/>
       <use xlink:href="#DejaVuSans-30" x="63.623047"/>
      </g>
     </g>
    </g>
    <g id="text_16">
     <!-- Mean number of required iterations of TPM -->
     <g transform="translate(31.795312 281.894406)rotate(-90)scale(0.1 -0.1)">
      <defs>
       <path id="DejaVuSans-4d" d="M 628 4666 
L 1569 4666 
L 2759 1491 
L 3956 4666 
L 4897 4666 
L 4897 0 
L 4281 0 
L 4281 4097 
L 3078 897 
L 2444 897 
L 1241 4097 
L 1241 0 
L 628 0 
L 628 4666 
z
" transform="scale(0.015625)"/>
       <path id="DejaVuSans-61" d="M 2194 1759 
Q 1497 1759 1228 1600 
Q 959 1441 959 1056 
Q 959 750 1161 570 
Q 1363 391 1709 391 
Q 2188 391 2477 730 
Q 2766 1069 2766 1631 
L 2766 1759 
L 2194 1759 
z
M 3341 1997 
L 3341 0 
L 2766 0 
L 2766 531 
Q 2569 213 2275 61 
Q 1981 -91 1556 -91 
Q 1019 -91 701 211 
Q 384 513 384 1019 
Q 384 1609 779 1909 
Q 1175 2209 1959 2209 
L 2766 2209 
L 2766 2266 
Q 2766 2663 2505 2880 
Q 2244 3097 1772 3097 
Q 1472 3097 1187 3025 
Q 903 2953 641 2809 
L 641 3341 
Q 956 3463 1253 3523 
Q 1550 3584 1831 3584 
Q 2591 3584 2966 3190 
Q 3341 2797 3341 1997 
z
" transform="scale(0.015625)"/>
       <path id="DejaVuSans-71" d="M 947 1747 
Q 947 1113 1208 752 
Q 1469 391 1925 391 
Q 2381 391 2643 752 
Q 2906 1113 2906 1747 
Q 2906 2381 2643 2742 
Q 2381 3103 1925 3103 
Q 1469 3103 1208 2742 
Q 947 2381 947 1747 
z
M 2906 525 
Q 2725 213 2448 61 
Q 2172 -91 1784 -91 
Q 1150 -91 751 415 
Q 353 922 353 1747 
Q 353 2572 751 3078 
Q 1150 3584 1784 3584 
Q 2172 3584 2448 3432 
Q 2725 3281 2906 2969 
L 2906 3500 
L 3481 3500 
L 3481 -1331 
L 2906 -1331 
L 2906 525 
z
" transform="scale(0.015625)"/>
       <path id="DejaVuSans-54" d="M -19 4666 
L 3928 4666 
L 3928 4134 
L 2272 4134 
L 2272 0 
L 1638 0 
L 1638 4134 
L -19 4134 
L -19 4666 
z
" transform="scale(0.015625)"/>
       <path id="DejaVuSans-50" d="M 1259 4147 
L 1259 2394 
L 2053 2394 
Q 2494 2394 2734 2622 
Q 2975 2850 2975 3272 
Q 2975 3691 2734 3919 
Q 2494 4147 2053 4147 
L 1259 4147 
z
M 628 4666 
L 2053 4666 
Q 2838 4666 3239 4311 
Q 3641 3956 3641 3272 
Q 3641 2581 3239 2228 
Q 2838 1875 2053 1875 
L 1259 1875 
L 1259 0 
L 628 0 
L 628 4666 
z
" transform="scale(0.015625)"/>
      </defs>
      <use xlink:href="#DejaVuSans-4d"/>
      <use xlink:href="#DejaVuSans-65" x="86.279297"/>
      <use xlink:href="#DejaVuSans-61" x="147.802734"/>
      <use xlink:href="#DejaVuSans-6e" x="209.082031"/>
      <use xlink:href="#DejaVuSans-20" x="272.460938"/>
      <use xlink:href="#DejaVuSans-6e" x="304.248047"/>
      <use xlink:href="#DejaVuSans-75" x="367.626953"/>
      <use xlink:href="#DejaVuSans-6d" x="431.005859"/>
      <use xlink:href="#DejaVuSans-62" x="528.417969"/>
      <use xlink:href="#DejaVuSans-65" x="591.894531"/>
      <use xlink:href="#DejaVuSans-72" x="653.417969"/>
      <use xlink:href="#DejaVuSans-20" x="694.53125"/>
      <use xlink:href="#DejaVuSans-6f" x="726.318359"/>
      <use xlink:href="#DejaVuSans-66" x="787.5"/>
      <use xlink:href="#DejaVuSans-20" x="822.705078"/>
      <use xlink:href="#DejaVuSans-72" x="854.492188"/>
      <use xlink:href="#DejaVuSans-65" x="893.355469"/>
      <use xlink:href="#DejaVuSans-71" x="954.878906"/>
      <use xlink:href="#DejaVuSans-75" x="1018.355469"/>
      <use xlink:href="#DejaVuSans-69" x="1081.734375"/>
      <use xlink:href="#DejaVuSans-72" x="1109.517578"/>
      <use xlink:href="#DejaVuSans-65" x="1148.380859"/>
      <use xlink:href="#DejaVuSans-64" x="1209.904297"/>
      <use xlink:href="#DejaVuSans-20" x="1273.380859"/>
      <use xlink:href="#DejaVuSans-69" x="1305.167969"/>
      <use xlink:href="#DejaVuSans-74" x="1332.951172"/>
      <use xlink:href="#DejaVuSans-65" x="1372.160156"/>
      <use xlink:href="#DejaVuSans-72" x="1433.683594"/>
      <use xlink:href="#DejaVuSans-61" x="1474.796875"/>
      <use xlink:href="#DejaVuSans-74" x="1536.076172"/>
      <use xlink:href="#DejaVuSans-69" x="1575.285156"/>
      <use xlink:href="#DejaVuSans-6f" x="1603.068359"/>
      <use xlink:href="#DejaVuSans-6e" x="1664.25"/>
      <use xlink:href="#DejaVuSans-73" x="1727.628906"/>
      <use xlink:href="#DejaVuSans-20" x="1779.728516"/>
      <use xlink:href="#DejaVuSans-6f" x="1811.515625"/>
      <use xlink:href="#DejaVuSans-66" x="1872.697266"/>
      <use xlink:href="#DejaVuSans-20" x="1907.902344"/>
      <use xlink:href="#DejaVuSans-54" x="1939.689453"/>
      <use xlink:href="#DejaVuSans-50" x="2000.773438"/>
      <use xlink:href="#DejaVuSans-4d" x="2061.076172"/>
     </g>
    </g>
   </g>
   <g id="line2d_15">
    <path d="M 73.832727 295.488 
L 77.680485 286.69229 
L 77.680485 286.69229 
L 81.528242 278.579111 
L 81.528242 278.579111 
L 84.89503 272.060919 
L 84.89503 272.060919 
L 86.818909 268.580425 
L 86.818909 268.580425 
L 90.666667 262.142768 
L 90.666667 262.142768 
L 94.514424 256.377554 
L 94.514424 256.377554 
L 96.919273 253.09771 
L 100.286061 248.897056 
L 100.286061 248.897056 
L 102.209939 246.689196 
L 102.209939 246.689196 
L 104.614788 244.112977 
L 104.614788 244.112977 
L 107.981576 240.823522 
L 107.981576 240.823522 
L 111.829333 237.471658 
L 111.829333 237.471658 
L 114.234182 235.573083 
L 114.234182 235.573083 
L 117.12 233.471399 
L 117.12 233.471399 
L 121.448727 230.633786 
L 125.296485 228.378859 
L 125.296485 228.378859 
L 130.587152 225.605897 
L 130.587152 225.605897 
L 134.915879 223.557381 
L 134.915879 223.557381 
L 140.687515 221.05297 
L 140.687515 221.05297 
L 148.38303 217.99116 
L 148.38303 217.99116 
L 158.002424 214.437217 
L 158.002424 214.437217 
L 169.545697 210.420743 
L 169.545697 210.420743 
L 181.569939 206.485687 
L 181.569939 206.485687 
L 192.151273 203.264171 
L 192.151273 203.264171 
L 200.327758 200.9467 
L 200.327758 200.9467 
L 212.352 197.801069 
L 227.262061 194.229402 
L 227.262061 194.229402 
L 265.739636 185.411867 
L 281.130667 182.027251 
L 281.130667 182.027251 
L 285.459394 181.154095 
L 301.812364 178.407471 
L 301.812364 178.407471 
L 306.141091 177.858734 
L 325.860848 176.283706 
L 325.860848 176.283706 
L 348.466424 175.057711 
L 348.466424 175.057711 
L 350.390303 174.897581 
L 373.957818 172.646921 
L 398.487273 188.878602 
L 398.487273 188.878602 
" clip-path="url(#pd2d47c4322)" style="fill: none; stroke: #1f77b4; stroke-width: 1.5; stroke-linecap: square"/>
   </g>
   <g id="line2d_16">
    <path d="M 73.832727 294.119721 
L 75.756606 285.537138 
L 75.756606 285.537138 
L 77.680485 277.745554 
L 77.680485 277.745554 
L 79.604364 270.671798 
L 79.604364 270.671798 
L 81.528242 264.248738 
L 81.528242 264.248738 
L 83.452121 258.414856 
L 83.452121 258.414856 
L 85.376 253.113845 
L 85.376 253.113845 
L 86.818909 249.456649 
L 86.818909 249.456649 
L 90.185697 241.865784 
L 90.185697 241.865784 
L 92.590545 237.15349 
L 92.590545 237.15349 
L 94.995394 232.950194 
L 94.995394 232.950194 
L 97.881212 228.488879 
L 97.881212 228.488879 
L 100.286061 225.191235 
L 100.286061 225.191235 
L 102.209939 222.792672 
L 102.209939 222.792672 
L 104.614788 220.057492 
L 104.614788 220.057492 
L 107.981576 216.651336 
L 107.981576 216.651336 
L 110.386424 214.475672 
L 110.386424 214.475672 
L 114.234182 211.363083 
L 114.234182 211.363083 
L 117.12 209.276456 
L 117.12 209.276456 
L 121.448727 206.465011 
L 125.296485 204.222373 
L 125.296485 204.222373 
L 131.068121 201.199633 
L 131.068121 201.199633 
L 136.839758 198.477704 
L 136.839758 198.477704 
L 142.611394 195.969232 
L 142.611394 195.969232 
L 150.787879 192.66863 
L 150.787879 192.66863 
L 159.926303 189.218915 
L 159.926303 189.218915 
L 172.912485 184.61504 
L 172.912485 184.61504 
L 184.455758 180.771177 
L 184.455758 180.771177 
L 196.48 177.045988 
L 205.618424 174.455409 
L 205.618424 174.455409 
L 212.352 172.709468 
L 221.490424 170.595713 
L 221.490424 170.595713 
L 229.666909 168.976861 
L 229.666909 168.976861 
L 239.286303 167.408419 
L 239.286303 167.408419 
L 248.424727 166.226196 
L 248.424727 166.226196 
L 261.410909 164.915328 
L 261.410909 164.915328 
L 277.763879 163.388065 
L 277.763879 163.388065 
L 285.459394 162.497244 
L 298.445576 160.467344 
L 298.445576 160.467344 
L 306.141091 158.895892 
L 327.784727 153.524365 
L 348.466424 149.914214 
L 348.466424 149.914214 
L 350.390303 149.818262 
L 373.957818 152.323644 
L 398.487273 139.99939 
L 398.487273 139.99939 
" clip-path="url(#pd2d47c4322)" style="fill: none; stroke: #ff7f0e; stroke-width: 1.5; stroke-linecap: square"/>
   </g>
   <g id="line2d_17">
    <path d="M 73.832727 281.443165 
L 75.756606 273.602834 
L 75.756606 273.602834 
L 77.680485 266.394296 
L 77.680485 266.394296 
L 79.604364 259.763445 
L 79.604364 259.763445 
L 82.490182 250.793268 
L 82.490182 250.793268 
L 84.89503 244.118348 
L 84.89503 244.118348 
L 86.818909 239.246616 
L 86.818909 239.246616 
L 90.185697 231.610542 
L 90.185697 231.610542 
L 92.590545 226.771804 
L 92.590545 226.771804 
L 94.995394 222.385144 
L 94.995394 222.385144 
L 98.362182 216.913912 
L 98.362182 216.913912 
L 100.76703 213.428058 
L 100.76703 213.428058 
L 104.133818 209.06152 
L 104.133818 209.06152 
L 106.538667 206.266093 
L 106.538667 206.266093 
L 109.424485 203.222805 
L 109.424485 203.222805 
L 112.310303 200.478478 
L 115.677091 197.603922 
L 115.677091 197.603922 
L 119.524848 194.685491 
L 119.524848 194.685491 
L 123.853576 191.788279 
L 123.853576 191.788279 
L 128.663273 188.951048 
L 128.663273 188.951048 
L 133.47297 186.422411 
L 133.47297 186.422411 
L 138.282667 184.121009 
L 138.282667 184.121009 
L 144.054303 181.564316 
L 144.054303 181.564316 
L 155.597576 176.780064 
L 155.597576 176.780064 
L 172.912485 169.61424 
L 172.912485 169.61424 
L 188.784485 162.755879 
L 188.784485 162.755879 
L 200.327758 157.848031 
L 200.327758 157.848031 
L 208.023273 154.798827 
L 208.023273 154.798827 
L 212.352 153.209843 
L 217.161697 151.576893 
L 217.161697 151.576893 
L 224.857212 149.298862 
L 224.857212 149.298862 
L 229.666909 148.102721 
L 229.666909 148.102721 
L 234.957576 146.994287 
L 234.957576 146.994287 
L 242.653091 145.750821 
L 242.653091 145.750821 
L 248.424727 145.066709 
L 248.424727 145.066709 
L 258.044121 144.247432 
L 258.044121 144.247432 
L 265.739636 143.691922 
L 273.435152 143.011078 
L 273.435152 143.011078 
L 281.130667 142.00091 
L 281.130667 142.00091 
L 285.459394 141.219027 
L 298.445576 137.701954 
L 298.445576 137.701954 
L 304.217212 135.551073 
L 304.217212 135.551073 
L 306.141091 134.762019 
L 327.784727 124.926145 
L 348.466424 120.880034 
L 348.466424 120.880034 
L 350.390303 121.17286 
L 373.957818 134.791743 
L 398.487273 118.994298 
L 398.487273 118.994298 
" clip-path="url(#pd2d47c4322)" style="fill: none; stroke: #2ca02c; stroke-width: 1.5; stroke-linecap: square"/>
   </g>
   <g id="line2d_18">
    <path d="M 73.832727 278.715985 
L 75.756606 268.020598 
L 75.756606 268.020598 
L 77.680485 258.656678 
L 77.680485 258.656678 
L 79.604364 250.456037 
L 79.604364 250.456037 
L 81.528242 243.267997 
L 81.528242 243.267997 
L 83.452121 236.957974 
L 83.452121 236.957974 
L 85.376 231.406154 
L 85.376 231.406154 
L 86.818909 227.675446 
L 86.818909 227.675446 
L 89.223758 222.164328 
L 89.223758 222.164328 
L 90.666667 219.223939 
L 90.666667 219.223939 
L 92.590545 215.665764 
L 92.590545 215.665764 
L 94.995394 211.710029 
L 94.995394 211.710029 
L 97.881212 207.543427 
L 97.881212 207.543427 
L 100.76703 203.86619 
L 100.76703 203.86619 
L 104.614788 199.519304 
L 104.614788 199.519304 
L 107.981576 196.086346 
L 107.981576 196.086346 
L 112.310303 192.01598 
L 117.12 187.799974 
L 117.12 187.799974 
L 123.853576 182.276124 
L 123.853576 182.276124 
L 129.625212 177.847662 
L 129.625212 177.847662 
L 134.915879 174.055843 
L 134.915879 174.055843 
L 140.687515 170.253868 
L 140.687515 170.253868 
L 144.054303 168.214218 
L 144.054303 168.214218 
L 148.38303 165.796673 
L 148.38303 165.796673 
L 152.711758 163.614452 
L 152.711758 163.614452 
L 157.521455 161.462263 
L 157.521455 161.462263 
L 159.926303 160.489453 
L 159.926303 160.489453 
L 165.697939 158.413279 
L 165.697939 158.413279 
L 169.545697 157.210362 
L 169.545697 157.210362 
L 177.241212 155.149945 
L 177.241212 155.149945 
L 184.455758 153.508388 
L 184.455758 153.508388 
L 212.352 147.59967 
L 229.666909 143.470187 
L 229.666909 143.470187 
L 242.653091 140.483214 
L 242.653091 140.483214 
L 248.424727 139.29802 
L 248.424727 139.29802 
L 258.044121 137.586303 
L 258.044121 137.586303 
L 265.739636 136.440845 
L 285.459394 133.741067 
L 298.445576 131.140515 
L 298.445576 131.140515 
L 304.217212 129.522726 
L 304.217212 129.522726 
L 306.141091 128.908618 
L 323.456 121.824426 
L 323.456 121.824426 
L 327.784727 119.77595 
L 348.466424 112.162236 
L 348.466424 112.162236 
L 350.390303 111.925984 
L 373.476848 120.562013 
L 373.476848 120.562013 
L 373.957818 120.952292 
L 398.487273 125.434279 
L 398.487273 125.434279 
" clip-path="url(#pd2d47c4322)" style="fill: none; stroke: #d62728; stroke-width: 1.5; stroke-linecap: square"/>
   </g>
   <g id="line2d_19">
    <path d="M 73.832727 268.738687 
L 76.718545 257.428516 
L 76.718545 257.428516 
L 79.123394 248.977629 
L 79.123394 248.977629 
L 81.528242 241.320743 
L 81.528242 241.320743 
L 84.414061 233.070445 
L 84.414061 233.070445 
L 86.818909 226.893163 
L 86.818909 226.893163 
L 90.185697 219.181331 
L 90.185697 219.181331 
L 92.590545 214.263108 
L 92.590545 214.263108 
L 94.995394 209.777758 
L 94.995394 209.777758 
L 98.362182 204.137386 
L 98.362182 204.137386 
L 100.76703 200.508729 
L 100.76703 200.508729 
L 104.133818 195.911031 
L 104.133818 195.911031 
L 106.538667 192.927819 
L 106.538667 192.927819 
L 110.386424 188.598504 
L 110.386424 188.598504 
L 114.234182 184.729959 
L 114.234182 184.729959 
L 117.12 182.080916 
L 117.12 182.080916 
L 121.448727 178.443686 
L 125.296485 175.492435 
L 125.296485 175.492435 
L 130.587152 171.783041 
L 130.587152 171.783041 
L 134.915879 168.992578 
L 134.915879 168.992578 
L 140.687515 165.548528 
L 140.687515 165.548528 
L 146.940121 162.111444 
L 146.940121 162.111444 
L 152.711758 159.167154 
L 152.711758 159.167154 
L 159.926303 155.754213 
L 159.926303 155.754213 
L 167.621818 152.404715 
L 173.874424 149.881945 
L 173.874424 149.881945 
L 181.569939 146.994629 
L 181.569939 146.994629 
L 188.784485 144.477366 
L 188.784485 144.477366 
L 198.403879 141.351494 
L 198.403879 141.351494 
L 210.428121 137.706626 
L 210.428121 137.706626 
L 227.262061 132.867508 
L 227.262061 132.867508 
L 245.057939 127.949451 
L 245.057939 127.949451 
L 253.715394 125.684122 
L 253.715394 125.684122 
L 263.815758 123.251688 
L 263.815758 123.251688 
L 265.739636 122.823706 
L 273.435152 121.256022 
L 273.435152 121.256022 
L 281.130667 119.960057 
L 281.130667 119.960057 
L 285.459394 119.367771 
L 298.445576 118.22971 
L 298.445576 118.22971 
L 306.141091 117.992748 
L 327.784727 118.346288 
L 348.466424 117.520398 
L 348.466424 117.520398 
L 350.390303 117.244396 
L 373.957818 110.017957 
L 398.487273 103.543191 
L 398.487273 103.543191 
" clip-path="url(#pd2d47c4322)" style="fill: none; stroke: #9467bd; stroke-width: 1.5; stroke-linecap: square"/>
   </g>
   <g id="line2d_20">
    <path d="M 73.832727 268.794228 
L 75.756606 258.549251 
L 75.756606 258.549251 
L 77.680485 249.38465 
L 77.680485 249.38465 
L 79.604364 241.180026 
L 79.604364 241.180026 
L 81.528242 233.826584 
L 81.528242 233.826584 
L 83.452121 227.226249 
L 83.452121 227.226249 
L 85.376 221.290821 
L 85.376 221.290821 
L 86.818909 217.227686 
L 86.818909 217.227686 
L 89.223758 211.106597 
L 89.223758 211.106597 
L 90.666667 207.78041 
L 90.666667 207.78041 
L 92.590545 203.699496 
L 92.590545 203.699496 
L 94.995394 199.096272 
L 94.995394 199.096272 
L 97.881212 194.189339 
L 97.881212 194.189339 
L 100.286061 190.528493 
L 100.286061 190.528493 
L 102.209939 187.83556 
L 102.209939 187.83556 
L 104.614788 184.720375 
L 104.614788 184.720375 
L 107.981576 180.750466 
L 107.981576 180.750466 
L 111.829333 176.662584 
L 111.829333 176.662584 
L 115.677091 172.951919 
L 115.677091 172.951919 
L 119.524848 169.542395 
L 119.524848 169.542395 
L 123.853576 166.002238 
L 123.853576 166.002238 
L 128.663273 162.380265 
L 128.663273 162.380265 
L 133.47297 159.048166 
L 133.47297 159.048166 
L 138.282667 155.982754 
L 138.282667 155.982754 
L 144.054303 152.635275 
L 144.054303 152.635275 
L 150.306909 149.391401 
L 150.306909 149.391401 
L 155.597576 146.932453 
L 155.597576 146.932453 
L 159.926303 145.095522 
L 159.926303 145.095522 
L 167.621818 142.158006 
L 173.874424 140.011326 
L 173.874424 140.011326 
L 184.455758 136.670311 
L 184.455758 136.670311 
L 208.023273 129.407588 
L 208.023273 129.407588 
L 229.666909 122.624189 
L 229.666909 122.624189 
L 239.286303 120.004671 
L 239.286303 120.004671 
L 246.500848 118.400281 
L 246.500848 118.400281 
L 248.424727 118.037705 
L 248.424727 118.037705 
L 253.715394 117.199222 
L 253.715394 117.199222 
L 258.044121 116.695997 
L 258.044121 116.695997 
L 263.815758 116.288577 
L 263.815758 116.288577 
L 265.739636 116.218833 
L 273.435152 116.245356 
L 273.435152 116.245356 
L 281.130667 116.673314 
L 281.130667 116.673314 
L 301.812364 118.235389 
L 301.812364 118.235389 
L 306.141091 118.283704 
L 323.456 115.841073 
L 323.456 115.841073 
L 327.784727 114.385404 
L 348.466424 102.858287 
L 348.466424 102.858287 
L 350.390303 101.537987 
L 373.476848 89.805776 
L 373.476848 89.805776 
L 373.957818 89.766977 
L 398.487273 114.090683 
L 398.487273 114.090683 
" clip-path="url(#pd2d47c4322)" style="fill: none; stroke: #8c564b; stroke-width: 1.5; stroke-linecap: square"/>
   </g>
   <g id="line2d_21">
    <path d="M 73.832727 266.63869 
L 75.756606 255.724163 
L 75.756606 255.724163 
L 77.680485 246.034276 
L 77.680485 246.034276 
L 79.604364 237.429122 
L 79.604364 237.429122 
L 81.528242 229.782323 
L 81.528242 229.782323 
L 83.452121 222.979997 
L 83.452121 222.979997 
L 85.376 216.91978 
L 85.376 216.91978 
L 86.818909 212.806054 
L 86.818909 212.806054 
L 89.223758 206.668378 
L 89.223758 206.668378 
L 90.666667 203.36591 
L 90.666667 203.36591 
L 92.590545 199.34802 
L 92.590545 199.34802 
L 94.995394 194.86298 
L 94.995394 194.86298 
L 97.881212 190.138245 
L 97.881212 190.138245 
L 100.286061 186.649917 
L 100.286061 186.649917 
L 102.209939 184.101967 
L 102.209939 184.101967 
L 104.614788 181.170475 
L 104.614788 181.170475 
L 107.981576 177.45178 
L 107.981576 177.45178 
L 111.829333 173.628474 
L 111.829333 173.628474 
L 115.677091 170.146944 
L 115.677091 170.146944 
L 119.524848 166.924568 
L 119.524848 166.924568 
L 123.853576 163.542083 
L 123.853576 163.542083 
L 129.625212 159.357873 
L 129.625212 159.357873 
L 134.915879 155.809787 
L 134.915879 155.809787 
L 140.687515 152.236644 
L 140.687515 152.236644 
L 144.054303 150.294462 
L 144.054303 150.294462 
L 150.787879 146.722425 
L 150.787879 146.722425 
L 155.597576 144.41976 
L 155.597576 144.41976 
L 159.926303 142.514794 
L 159.926303 142.514794 
L 167.621818 139.478781 
L 173.874424 137.286471 
L 173.874424 137.286471 
L 181.569939 134.830652 
L 181.569939 134.830652 
L 195.037091 130.857377 
L 195.037091 130.857377 
L 217.161697 124.337021 
L 217.161697 124.337021 
L 229.666909 120.643161 
L 229.666909 120.643161 
L 239.286303 118.016963 
L 239.286303 118.016963 
L 246.981818 116.18093 
L 253.715394 114.833194 
L 253.715394 114.833194 
L 261.410909 113.628869 
L 261.410909 113.628869 
L 265.739636 113.111103 
L 273.435152 112.447861 
L 273.435152 112.447861 
L 283.535515 111.93972 
L 283.535515 111.93972 
L 285.459394 111.866937 
L 301.812364 110.998725 
L 301.812364 110.998725 
L 306.141091 110.549305 
L 323.456 106.998013 
L 323.456 106.998013 
L 327.784727 105.614813 
L 350.390303 96.48451 
L 373.476848 91.758281 
L 373.476848 91.758281 
L 373.957818 91.796995 
L 398.487273 98.027709 
L 398.487273 98.027709 
" clip-path="url(#pd2d47c4322)" style="fill: none; stroke: #e377c2; stroke-width: 1.5; stroke-linecap: square"/>
   </g>
   <g id="line2d_22">
    <path d="M 73.832727 263.918114 
L 75.756606 252.971956 
L 75.756606 252.971956 
L 77.680485 243.249608 
L 77.680485 243.249608 
L 79.604364 234.614509 
L 79.604364 234.614509 
L 81.528242 226.942397 
L 81.528242 226.942397 
L 83.452121 220.120483 
L 83.452121 220.120483 
L 85.376 214.046661 
L 85.376 214.046661 
L 86.818909 209.926428 
L 86.818909 209.926428 
L 89.223758 203.783807 
L 89.223758 203.783807 
L 90.666667 200.48103 
L 90.666667 200.48103 
L 92.590545 196.464461 
L 92.590545 196.464461 
L 94.995394 191.981395 
L 94.995394 191.981395 
L 97.881212 187.25474 
L 97.881212 187.25474 
L 100.286061 183.757025 
L 100.286061 183.757025 
L 102.209939 181.194025 
L 102.209939 181.194025 
L 104.614788 178.231742 
L 104.614788 178.231742 
L 107.981576 174.443022 
L 107.981576 174.443022 
L 112.310303 170.024296 
L 117.12 165.523593 
L 117.12 165.523593 
L 123.372606 160.097331 
L 123.372606 160.097331 
L 128.663273 155.784143 
L 128.663273 155.784143 
L 133.47297 152.066604 
L 133.47297 152.066604 
L 138.282667 148.557994 
L 138.282667 148.557994 
L 144.054303 144.66264 
L 144.054303 144.66264 
L 148.38303 141.996113 
L 148.38303 141.996113 
L 152.711758 139.568882 
L 152.711758 139.568882 
L 157.521455 137.167123 
L 157.521455 137.167123 
L 159.926303 136.084746 
L 159.926303 136.084746 
L 165.697939 133.804757 
L 165.697939 133.804757 
L 169.545697 132.522994 
L 169.545697 132.522994 
L 173.874424 131.288944 
L 173.874424 131.288944 
L 179.646061 129.939865 
L 179.646061 129.939865 
L 184.455758 129.021861 
L 184.455758 129.021861 
L 195.037091 127.388624 
L 195.037091 127.388624 
L 205.618424 125.813322 
L 205.618424 125.813322 
L 212.352 124.606412 
L 217.161697 123.581397 
L 217.161697 123.581397 
L 224.857212 121.60442 
L 224.857212 121.60442 
L 229.666909 120.150354 
L 229.666909 120.150354 
L 234.957576 118.369582 
L 234.957576 118.369582 
L 242.653091 115.503858 
L 242.653091 115.503858 
L 265.739636 106.523731 
L 273.435152 104.062482 
L 273.435152 104.062482 
L 277.763879 102.910415 
L 277.763879 102.910415 
L 283.535515 101.669625 
L 283.535515 101.669625 
L 285.459394 101.333024 
L 298.445576 99.973791 
L 306.141091 99.677716 
L 323.456 98.335074 
L 323.456 98.335074 
L 327.784727 97.386363 
L 348.466424 86.1923 
L 348.466424 86.1923 
L 373.476848 64.903134 
L 373.476848 64.903134 
L 373.957818 64.742492 
L 398.487273 126.329292 
L 398.487273 126.329292 
" clip-path="url(#pd2d47c4322)" style="fill: none; stroke: #7f7f7f; stroke-width: 1.5; stroke-linecap: square"/>
   </g>
   <g id="line2d_23">
    <path d="M 73.832727 263.129265 
L 75.756606 250.548356 
L 75.756606 250.548356 
L 77.680485 239.479911 
L 77.680485 239.479911 
L 79.604364 229.745844 
L 79.604364 229.745844 
L 81.528242 221.185632 
L 81.528242 221.185632 
L 83.452121 213.654943 
L 83.452121 213.654943 
L 85.376 207.024339 
L 85.376 207.024339 
L 86.818909 202.571948 
L 86.818909 202.571948 
L 89.223758 196.012881 
L 89.223758 196.012881 
L 90.666667 192.530368 
L 90.666667 192.530368 
L 92.590545 188.342655 
L 92.590545 188.342655 
L 94.995394 183.737761 
L 94.995394 183.737761 
L 97.881212 178.972676 
L 97.881212 178.972676 
L 100.286061 175.513158 
L 100.286061 175.513158 
L 102.209939 173.01706 
L 102.209939 173.01706 
L 104.614788 170.174872 
L 104.614788 170.174872 
L 107.981576 166.607222 
L 107.981576 166.607222 
L 111.829333 162.96683 
L 111.829333 162.96683 
L 115.677091 159.655814 
L 115.677091 159.655814 
L 120.967758 155.466374 
L 120.967758 155.466374 
L 125.296485 152.256373 
L 125.296485 152.256373 
L 131.549091 147.875312 
L 138.282667 143.45112 
L 138.282667 143.45112 
L 144.054303 139.9001 
L 144.054303 139.9001 
L 150.787879 136.050295 
L 150.787879 136.050295 
L 157.521455 132.519026 
L 157.521455 132.519026 
L 163.293091 129.733239 
L 163.293091 129.733239 
L 169.545697 126.938291 
L 169.545697 126.938291 
L 177.241212 123.758455 
L 177.241212 123.758455 
L 184.455758 120.970531 
L 184.455758 120.970531 
L 196.48 116.589394 
L 208.023273 112.615832 
L 208.023273 112.615832 
L 217.161697 109.688556 
L 217.161697 109.688556 
L 224.857212 107.468252 
L 224.857212 107.468252 
L 229.666909 106.238011 
L 229.666909 106.238011 
L 234.957576 105.056967 
L 234.957576 105.056967 
L 242.653091 103.711949 
L 242.653091 103.711949 
L 248.424727 103.020626 
L 248.424727 103.020626 
L 253.715394 102.63146 
L 253.715394 102.63146 
L 261.410909 102.457556 
L 261.410909 102.457556 
L 265.739636 102.535818 
L 277.763879 103.16843 
L 277.763879 103.16843 
L 285.459394 103.633317 
L 298.445576 103.824524 
L 298.445576 103.824524 
L 304.217212 103.471487 
L 304.217212 103.471487 
L 306.141091 103.279665 
L 323.456 99.947705 
L 323.456 99.947705 
L 327.784727 98.79972 
L 348.466424 94.678 
L 348.466424 94.678 
L 350.390303 94.628004 
L 373.957818 100.206523 
L 398.487273 69.632996 
L 398.487273 69.632996 
" clip-path="url(#pd2d47c4322)" style="fill: none; stroke: #bcbd22; stroke-width: 1.5; stroke-linecap: square"/>
   </g>
   <g id="line2d_24">
    <path d="M 73.832727 260.73298 
L 75.756606 249.253313 
L 75.756606 249.253313 
L 77.680485 238.911937 
L 77.680485 238.911937 
L 79.604364 229.599583 
L 79.604364 229.599583 
L 81.528242 221.21592 
L 81.528242 221.21592 
L 83.452121 213.668955 
L 83.452121 213.668955 
L 85.376 206.874474 
L 85.376 206.874474 
L 86.818909 202.22587 
L 86.818909 202.22587 
L 89.223758 195.241814 
L 89.223758 195.241814 
L 90.666667 191.46505 
L 90.666667 191.46505 
L 92.590545 186.860159 
L 92.590545 186.860159 
L 94.995394 181.72124 
L 94.995394 181.72124 
L 97.881212 176.336413 
L 97.881212 176.336413 
L 100.286061 172.404 
L 100.286061 172.404 
L 102.209939 169.569264 
L 102.209939 169.569264 
L 104.614788 166.361735 
L 104.614788 166.361735 
L 107.981576 162.40012 
L 107.981576 162.40012 
L 110.386424 159.884061 
L 110.386424 159.884061 
L 114.234182 156.293177 
L 114.234182 156.293177 
L 117.12 153.88279 
L 117.12 153.88279 
L 121.448727 150.615267 
L 121.448727 150.615267 
L 125.296485 147.979026 
L 125.296485 147.979026 
L 131.068121 144.364015 
L 131.068121 144.364015 
L 136.839758 141.037284 
L 136.839758 141.037284 
L 142.611394 137.915667 
L 142.611394 137.915667 
L 150.787879 133.760168 
L 150.787879 133.760168 
L 158.002424 130.314606 
L 158.002424 130.314606 
L 167.140848 126.227975 
L 167.140848 126.227975 
L 173.874424 123.410899 
L 173.874424 123.410899 
L 181.569939 120.387116 
L 181.569939 120.387116 
L 188.784485 117.733038 
L 188.784485 117.733038 
L 198.403879 114.44704 
L 198.403879 114.44704 
L 208.023273 111.427349 
L 208.023273 111.427349 
L 217.161697 108.791042 
L 217.161697 108.791042 
L 228.70497 105.783189 
L 228.70497 105.783189 
L 234.957576 104.310106 
L 234.957576 104.310106 
L 245.057939 102.175249 
L 245.057939 102.175249 
L 253.715394 100.591993 
L 253.715394 100.591993 
L 263.815758 99.02097 
L 263.815758 99.02097 
L 273.435152 97.757294 
L 273.435152 97.757294 
L 306.141091 93.774982 
L 306.141091 93.774982 
L 325.860848 90.009699 
L 325.860848 90.009699 
L 327.784727 89.545498 
L 327.784727 89.545498 
L 350.390303 82.964667 
L 350.390303 82.964667 
L 373.957818 75.005353 
L 373.957818 75.005353 
L 398.487273 60.48483 
L 398.487273 60.48483 
" clip-path="url(#pd2d47c4322)" style="fill: none; stroke: #17becf; stroke-width: 1.5; stroke-linecap: square"/>
   </g>
   <g id="line2d_25">
    <path d="M 73.832727 254.599276 
L 75.756606 242.095419 
L 75.756606 242.095419 
L 77.680485 231.365907 
L 77.680485 231.365907 
L 79.604364 222.162792 
L 79.604364 222.162792 
L 81.528242 214.265707 
L 81.528242 214.265707 
L 83.452121 207.47954 
L 83.452121 207.47954 
L 85.376 201.632244 
L 85.376 201.632244 
L 86.818909 197.771319 
L 86.818909 197.771319 
L 89.223758 192.169266 
L 89.223758 192.169266 
L 90.666667 189.227524 
L 90.666667 189.227524 
L 92.590545 185.705566 
L 92.590545 185.705566 
L 94.995394 181.824863 
L 94.995394 181.824863 
L 97.881212 177.746854 
L 97.881212 177.746854 
L 100.76703 174.116187 
L 100.76703 174.116187 
L 104.614788 169.719419 
L 104.614788 169.719419 
L 110.386424 163.616018 
L 110.386424 163.616018 
L 120.967758 152.906972 
L 120.967758 152.906972 
L 128.663273 145.375979 
L 128.663273 145.375979 
L 133.47297 140.905995 
L 133.47297 140.905995 
L 138.282667 136.717248 
L 138.282667 136.717248 
L 142.611394 133.246243 
L 142.611394 133.246243 
L 146.940121 130.09644 
L 146.940121 130.09644 
L 150.787879 127.582366 
L 150.787879 127.582366 
L 155.597576 124.820884 
L 155.597576 124.820884 
L 159.926303 122.683319 
L 159.926303 122.683319 
L 165.697939 120.295083 
L 165.697939 120.295083 
L 169.545697 118.954024 
L 169.545697 118.954024 
L 173.874424 117.637845 
L 173.874424 117.637845 
L 181.569939 115.649843 
L 181.569939 115.649843 
L 205.618424 109.976491 
L 205.618424 109.976491 
L 212.352 108.166447 
L 212.352 108.166447 
L 229.666909 103.344066 
L 229.666909 103.344066 
L 239.286303 101.035785 
L 239.286303 101.035785 
L 246.500848 99.69895 
L 246.500848 99.69895 
L 248.424727 99.410072 
L 248.424727 99.410072 
L 253.715394 98.765951 
L 253.715394 98.765951 
L 261.410909 98.189141 
L 261.410909 98.189141 
L 265.739636 98.007938 
L 265.739636 98.007938 
L 277.763879 97.629771 
L 277.763879 97.629771 
L 283.535515 97.242774 
L 283.535515 97.242774 
L 285.459394 97.045067 
L 285.459394 97.045067 
L 298.445576 94.294138 
L 298.445576 94.294138 
L 301.812364 93.073286 
L 301.812364 93.073286 
L 306.141091 91.153216 
L 306.141091 91.153216 
L 323.456 79.979207 
L 323.456 79.979207 
L 327.784727 76.700366 
L 327.784727 76.700366 
L 348.466424 65.752945 
L 348.466424 65.752945 
L 350.390303 65.649828 
L 350.390303 65.649828 
L 373.476848 82.507149 
L 373.476848 82.507149 
L 373.957818 83.08795 
L 373.957818 83.08795 
L 398.487273 53.568 
L 398.487273 53.568 
" clip-path="url(#pd2d47c4322)" style="fill: none; stroke: #1f77b4; stroke-width: 1.5; stroke-linecap: square"/>
   </g>
   <g id="patch_3">
    <path d="M 57.6 307.584 
L 57.6 41.472 
" style="fill: none; stroke: #000000; stroke-width: 0.8; stroke-linejoin: miter; stroke-linecap: square"/>
   </g>
   <g id="patch_4">
    <path d="M 414.72 307.584 
L 414.72 41.472 
" style="fill: none; stroke: #000000; stroke-width: 0.8; stroke-linejoin: miter; stroke-linecap: square"/>
   </g>
   <g id="patch_5">
    <path d="M 57.6 307.584 
L 414.72 307.584 
" style="fill: none; stroke: #000000; stroke-width: 0.8; stroke-linejoin: miter; stroke-linecap: square"/>
   </g>
   <g id="patch_6">
    <path d="M 57.6 41.472 
L 414.72 41.472 
" style="fill: none; stroke: #000000; stroke-width: 0.8; stroke-linejoin: miter; stroke-linecap: square"/>
   </g>
   <g id="legend_1">
    <g id="patch_7">
     <path d="M 328.760625 302.584 
L 407.72 302.584 
Q 409.72 302.584 409.72 300.584 
L 409.72 140.124625 
Q 409.72 138.124625 407.72 138.124625 
L 328.760625 138.124625 
Q 326.760625 138.124625 326.760625 140.124625 
L 326.760625 300.584 
Q 326.760625 302.584 328.760625 302.584 
z
" style="fill: #ffffff; opacity: 0.8; stroke: #cccccc; stroke-linejoin: miter"/>
    </g>
    <g id="line2d_26">
     <path d="M 330.760625 146.223062 
L 340.760625 146.223062 
L 350.760625 146.223062 
" style="fill: none; stroke: #1f77b4; stroke-width: 1.5; stroke-linecap: square"/>
    </g>
    <g id="text_17">
     <!-- QBER: 1 -->
     <g transform="translate(358.760625 149.723062)scale(0.1 -0.1)">
      <defs>
       <path id="DejaVuSans-51" d="M 2522 4238 
Q 1834 4238 1429 3725 
Q 1025 3213 1025 2328 
Q 1025 1447 1429 934 
Q 1834 422 2522 422 
Q 3209 422 3611 934 
Q 4013 1447 4013 2328 
Q 4013 3213 3611 3725 
Q 3209 4238 2522 4238 
z
M 3406 84 
L 4238 -825 
L 3475 -825 
L 2784 -78 
Q 2681 -84 2626 -87 
Q 2572 -91 2522 -91 
Q 1538 -91 948 567 
Q 359 1225 359 2328 
Q 359 3434 948 4092 
Q 1538 4750 2522 4750 
Q 3503 4750 4090 4092 
Q 4678 3434 4678 2328 
Q 4678 1516 4351 937 
Q 4025 359 3406 84 
z
" transform="scale(0.015625)"/>
       <path id="DejaVuSans-42" d="M 1259 2228 
L 1259 519 
L 2272 519 
Q 2781 519 3026 730 
Q 3272 941 3272 1375 
Q 3272 1813 3026 2020 
Q 2781 2228 2272 2228 
L 1259 2228 
z
M 1259 4147 
L 1259 2741 
L 2194 2741 
Q 2656 2741 2882 2914 
Q 3109 3088 3109 3444 
Q 3109 3797 2882 3972 
Q 2656 4147 2194 4147 
L 1259 4147 
z
M 628 4666 
L 2241 4666 
Q 2963 4666 3353 4366 
Q 3744 4066 3744 3513 
Q 3744 3084 3544 2831 
Q 3344 2578 2956 2516 
Q 3422 2416 3680 2098 
Q 3938 1781 3938 1306 
Q 3938 681 3513 340 
Q 3088 0 2303 0 
L 628 0 
L 628 4666 
z
" transform="scale(0.015625)"/>
       <path id="DejaVuSans-45" d="M 628 4666 
L 3578 4666 
L 3578 4134 
L 1259 4134 
L 1259 2753 
L 3481 2753 
L 3481 2222 
L 1259 2222 
L 1259 531 
L 3634 531 
L 3634 0 
L 628 0 
L 628 4666 
z
" transform="scale(0.015625)"/>
       <path id="DejaVuSans-52" d="M 2841 2188 
Q 3044 2119 3236 1894 
Q 3428 1669 3622 1275 
L 4263 0 
L 3584 0 
L 2988 1197 
Q 2756 1666 2539 1819 
Q 2322 1972 1947 1972 
L 1259 1972 
L 1259 0 
L 628 0 
L 628 4666 
L 2053 4666 
Q 2853 4666 3247 4331 
Q 3641 3997 3641 3322 
Q 3641 2881 3436 2590 
Q 3231 2300 2841 2188 
z
M 1259 4147 
L 1259 2491 
L 2053 2491 
Q 2509 2491 2742 2702 
Q 2975 2913 2975 3322 
Q 2975 3731 2742 3939 
Q 2509 4147 2053 4147 
L 1259 4147 
z
" transform="scale(0.015625)"/>
       <path id="DejaVuSans-3a" d="M 750 794 
L 1409 794 
L 1409 0 
L 750 0 
L 750 794 
z
M 750 3309 
L 1409 3309 
L 1409 2516 
L 750 2516 
L 750 3309 
z
" transform="scale(0.015625)"/>
      </defs>
      <use xlink:href="#DejaVuSans-51"/>
      <use xlink:href="#DejaVuSans-42" x="78.710938"/>
      <use xlink:href="#DejaVuSans-45" x="147.314453"/>
      <use xlink:href="#DejaVuSans-52" x="210.498047"/>
      <use xlink:href="#DejaVuSans-3a" x="276.855469"/>
      <use xlink:href="#DejaVuSans-20" x="310.546875"/>
      <use xlink:href="#DejaVuSans-31" x="342.333984"/>
     </g>
    </g>
    <g id="line2d_27">
     <path d="M 330.760625 160.901188 
L 340.760625 160.901188 
L 350.760625 160.901188 
" style="fill: none; stroke: #ff7f0e; stroke-width: 1.5; stroke-linecap: square"/>
    </g>
    <g id="text_18">
     <!-- QBER: 2 -->
     <g transform="translate(358.760625 164.401188)scale(0.1 -0.1)">
      <use xlink:href="#DejaVuSans-51"/>
      <use xlink:href="#DejaVuSans-42" x="78.710938"/>
      <use xlink:href="#DejaVuSans-45" x="147.314453"/>
      <use xlink:href="#DejaVuSans-52" x="210.498047"/>
      <use xlink:href="#DejaVuSans-3a" x="276.855469"/>
      <use xlink:href="#DejaVuSans-20" x="310.546875"/>
      <use xlink:href="#DejaVuSans-32" x="342.333984"/>
     </g>
    </g>
    <g id="line2d_28">
     <path d="M 330.760625 175.579313 
L 340.760625 175.579313 
L 350.760625 175.579313 
" style="fill: none; stroke: #2ca02c; stroke-width: 1.5; stroke-linecap: square"/>
    </g>
    <g id="text_19">
     <!-- QBER: 3 -->
     <g transform="translate(358.760625 179.079313)scale(0.1 -0.1)">
      <use xlink:href="#DejaVuSans-51"/>
      <use xlink:href="#DejaVuSans-42" x="78.710938"/>
      <use xlink:href="#DejaVuSans-45" x="147.314453"/>
      <use xlink:href="#DejaVuSans-52" x="210.498047"/>
      <use xlink:href="#DejaVuSans-3a" x="276.855469"/>
      <use xlink:href="#DejaVuSans-20" x="310.546875"/>
      <use xlink:href="#DejaVuSans-33" x="342.333984"/>
     </g>
    </g>
    <g id="line2d_29">
     <path d="M 330.760625 190.257438 
L 340.760625 190.257438 
L 350.760625 190.257438 
" style="fill: none; stroke: #d62728; stroke-width: 1.5; stroke-linecap: square"/>
    </g>
    <g id="text_20">
     <!-- QBER: 4 -->
     <g transform="translate(358.760625 193.757438)scale(0.1 -0.1)">
      <use xlink:href="#DejaVuSans-51"/>
      <use xlink:href="#DejaVuSans-42" x="78.710938"/>
      <use xlink:href="#DejaVuSans-45" x="147.314453"/>
      <use xlink:href="#DejaVuSans-52" x="210.498047"/>
      <use xlink:href="#DejaVuSans-3a" x="276.855469"/>
      <use xlink:href="#DejaVuSans-20" x="310.546875"/>
      <use xlink:href="#DejaVuSans-34" x="342.333984"/>
     </g>
    </g>
    <g id="line2d_30">
     <path d="M 330.760625 204.935563 
L 340.760625 204.935563 
L 350.760625 204.935563 
" style="fill: none; stroke: #9467bd; stroke-width: 1.5; stroke-linecap: square"/>
    </g>
    <g id="text_21">
     <!-- QBER: 5 -->
     <g transform="translate(358.760625 208.435563)scale(0.1 -0.1)">
      <use xlink:href="#DejaVuSans-51"/>
      <use xlink:href="#DejaVuSans-42" x="78.710938"/>
      <use xlink:href="#DejaVuSans-45" x="147.314453"/>
      <use xlink:href="#DejaVuSans-52" x="210.498047"/>
      <use xlink:href="#DejaVuSans-3a" x="276.855469"/>
      <use xlink:href="#DejaVuSans-20" x="310.546875"/>
      <use xlink:href="#DejaVuSans-35" x="342.333984"/>
     </g>
    </g>
    <g id="line2d_31">
     <path d="M 330.760625 219.613688 
L 340.760625 219.613688 
L 350.760625 219.613688 
" style="fill: none; stroke: #8c564b; stroke-width: 1.5; stroke-linecap: square"/>
    </g>
    <g id="text_22">
     <!-- QBER: 6 -->
     <g transform="translate(358.760625 223.113688)scale(0.1 -0.1)">
      <defs>
       <path id="DejaVuSans-36" d="M 2113 2584 
Q 1688 2584 1439 2293 
Q 1191 2003 1191 1497 
Q 1191 994 1439 701 
Q 1688 409 2113 409 
Q 2538 409 2786 701 
Q 3034 994 3034 1497 
Q 3034 2003 2786 2293 
Q 2538 2584 2113 2584 
z
M 3366 4563 
L 3366 3988 
Q 3128 4100 2886 4159 
Q 2644 4219 2406 4219 
Q 1781 4219 1451 3797 
Q 1122 3375 1075 2522 
Q 1259 2794 1537 2939 
Q 1816 3084 2150 3084 
Q 2853 3084 3261 2657 
Q 3669 2231 3669 1497 
Q 3669 778 3244 343 
Q 2819 -91 2113 -91 
Q 1303 -91 875 529 
Q 447 1150 447 2328 
Q 447 3434 972 4092 
Q 1497 4750 2381 4750 
Q 2619 4750 2861 4703 
Q 3103 4656 3366 4563 
z
" transform="scale(0.015625)"/>
      </defs>
      <use xlink:href="#DejaVuSans-51"/>
      <use xlink:href="#DejaVuSans-42" x="78.710938"/>
      <use xlink:href="#DejaVuSans-45" x="147.314453"/>
      <use xlink:href="#DejaVuSans-52" x="210.498047"/>
      <use xlink:href="#DejaVuSans-3a" x="276.855469"/>
      <use xlink:href="#DejaVuSans-20" x="310.546875"/>
      <use xlink:href="#DejaVuSans-36" x="342.333984"/>
     </g>
    </g>
    <g id="line2d_32">
     <path d="M 330.760625 234.291812 
L 340.760625 234.291812 
L 350.760625 234.291812 
" style="fill: none; stroke: #e377c2; stroke-width: 1.5; stroke-linecap: square"/>
    </g>
    <g id="text_23">
     <!-- QBER: 7 -->
     <g transform="translate(358.760625 237.791812)scale(0.1 -0.1)">
      <use xlink:href="#DejaVuSans-51"/>
      <use xlink:href="#DejaVuSans-42" x="78.710938"/>
      <use xlink:href="#DejaVuSans-45" x="147.314453"/>
      <use xlink:href="#DejaVuSans-52" x="210.498047"/>
      <use xlink:href="#DejaVuSans-3a" x="276.855469"/>
      <use xlink:href="#DejaVuSans-20" x="310.546875"/>
      <use xlink:href="#DejaVuSans-37" x="342.333984"/>
     </g>
    </g>
    <g id="line2d_33">
     <path d="M 330.760625 248.969938 
L 340.760625 248.969938 
L 350.760625 248.969938 
" style="fill: none; stroke: #7f7f7f; stroke-width: 1.5; stroke-linecap: square"/>
    </g>
    <g id="text_24">
     <!-- QBER: 8 -->
     <g transform="translate(358.760625 252.469938)scale(0.1 -0.1)">
      <defs>
       <path id="DejaVuSans-38" d="M 2034 2216 
Q 1584 2216 1326 1975 
Q 1069 1734 1069 1313 
Q 1069 891 1326 650 
Q 1584 409 2034 409 
Q 2484 409 2743 651 
Q 3003 894 3003 1313 
Q 3003 1734 2745 1975 
Q 2488 2216 2034 2216 
z
M 1403 2484 
Q 997 2584 770 2862 
Q 544 3141 544 3541 
Q 544 4100 942 4425 
Q 1341 4750 2034 4750 
Q 2731 4750 3128 4425 
Q 3525 4100 3525 3541 
Q 3525 3141 3298 2862 
Q 3072 2584 2669 2484 
Q 3125 2378 3379 2068 
Q 3634 1759 3634 1313 
Q 3634 634 3220 271 
Q 2806 -91 2034 -91 
Q 1263 -91 848 271 
Q 434 634 434 1313 
Q 434 1759 690 2068 
Q 947 2378 1403 2484 
z
M 1172 3481 
Q 1172 3119 1398 2916 
Q 1625 2713 2034 2713 
Q 2441 2713 2670 2916 
Q 2900 3119 2900 3481 
Q 2900 3844 2670 4047 
Q 2441 4250 2034 4250 
Q 1625 4250 1398 4047 
Q 1172 3844 1172 3481 
z
" transform="scale(0.015625)"/>
      </defs>
      <use xlink:href="#DejaVuSans-51"/>
      <use xlink:href="#DejaVuSans-42" x="78.710938"/>
      <use xlink:href="#DejaVuSans-45" x="147.314453"/>
      <use xlink:href="#DejaVuSans-52" x="210.498047"/>
      <use xlink:href="#DejaVuSans-3a" x="276.855469"/>
      <use xlink:href="#DejaVuSans-20" x="310.546875"/>
      <use xlink:href="#DejaVuSans-38" x="342.333984"/>
     </g>
    </g>
    <g id="line2d_34">
     <path d="M 330.760625 263.648062 
L 340.760625 263.648062 
L 350.760625 263.648062 
" style="fill: none; stroke: #bcbd22; stroke-width: 1.5; stroke-linecap: square"/>
    </g>
    <g id="text_25">
     <!-- QBER: 9 -->
     <g transform="translate(358.760625 267.148062)scale(0.1 -0.1)">
      <defs>
       <path id="DejaVuSans-39" d="M 703 97 
L 703 672 
Q 941 559 1184 500 
Q 1428 441 1663 441 
Q 2288 441 2617 861 
Q 2947 1281 2994 2138 
Q 2813 1869 2534 1725 
Q 2256 1581 1919 1581 
Q 1219 1581 811 2004 
Q 403 2428 403 3163 
Q 403 3881 828 4315 
Q 1253 4750 1959 4750 
Q 2769 4750 3195 4129 
Q 3622 3509 3622 2328 
Q 3622 1225 3098 567 
Q 2575 -91 1691 -91 
Q 1453 -91 1209 -44 
Q 966 3 703 97 
z
M 1959 2075 
Q 2384 2075 2632 2365 
Q 2881 2656 2881 3163 
Q 2881 3666 2632 3958 
Q 2384 4250 1959 4250 
Q 1534 4250 1286 3958 
Q 1038 3666 1038 3163 
Q 1038 2656 1286 2365 
Q 1534 2075 1959 2075 
z
" transform="scale(0.015625)"/>
      </defs>
      <use xlink:href="#DejaVuSans-51"/>
      <use xlink:href="#DejaVuSans-42" x="78.710938"/>
      <use xlink:href="#DejaVuSans-45" x="147.314453"/>
      <use xlink:href="#DejaVuSans-52" x="210.498047"/>
      <use xlink:href="#DejaVuSans-3a" x="276.855469"/>
      <use xlink:href="#DejaVuSans-20" x="310.546875"/>
      <use xlink:href="#DejaVuSans-39" x="342.333984"/>
     </g>
    </g>
    <g id="line2d_35">
     <path d="M 330.760625 278.326187 
L 340.760625 278.326187 
L 350.760625 278.326187 
" style="fill: none; stroke: #17becf; stroke-width: 1.5; stroke-linecap: square"/>
    </g>
    <g id="text_26">
     <!-- QBER: 10 -->
     <g transform="translate(358.760625 281.826187)scale(0.1 -0.1)">
      <use xlink:href="#DejaVuSans-51"/>
      <use xlink:href="#DejaVuSans-42" x="78.710938"/>
      <use xlink:href="#DejaVuSans-45" x="147.314453"/>
      <use xlink:href="#DejaVuSans-52" x="210.498047"/>
      <use xlink:href="#DejaVuSans-3a" x="276.855469"/>
      <use xlink:href="#DejaVuSans-20" x="310.546875"/>
      <use xlink:href="#DejaVuSans-31" x="342.333984"/>
      <use xlink:href="#DejaVuSans-30" x="405.957031"/>
     </g>
    </g>
    <g id="line2d_36">
     <path d="M 330.760625 293.004312 
L 340.760625 293.004312 
L 350.760625 293.004312 
" style="fill: none; stroke: #1f77b4; stroke-width: 1.5; stroke-linecap: square"/>
    </g>
    <g id="text_27">
     <!-- QBER: 11 -->
     <g transform="translate(358.760625 296.504312)scale(0.1 -0.1)">
      <use xlink:href="#DejaVuSans-51"/>
      <use xlink:href="#DejaVuSans-42" x="78.710938"/>
      <use xlink:href="#DejaVuSans-45" x="147.314453"/>
      <use xlink:href="#DejaVuSans-52" x="210.498047"/>
      <use xlink:href="#DejaVuSans-3a" x="276.855469"/>
      <use xlink:href="#DejaVuSans-20" x="310.546875"/>
      <use xlink:href="#DejaVuSans-31" x="342.333984"/>
      <use xlink:href="#DejaVuSans-31" x="405.957031"/>
     </g>
    </g>
   </g>
  </g>
 </g>
 <defs>
  <clipPath id="pd2d47c4322">
   <rect x="57.6" y="41.472" width="357.12" height="266.112"/>
  </clipPath>
 </defs>
</svg>
