<?xml version="1.0" encoding="utf-8" standalone="no"?>
<!DOCTYPE svg PUBLIC "-//W3C//DTD SVG 1.1//EN"
  "http://www.w3.org/Graphics/SVG/1.1/DTD/svg11.dtd">
<svg xmlns:xlink="http://www.w3.org/1999/xlink" width="460.8pt" height="345.6pt" viewBox="0 0 460.8 345.6" xmlns="http://www.w3.org/2000/svg" version="1.1">
 <metadata>
  <rdf:RDF xmlns:dc="http://purl.org/dc/elements/1.1/" xmlns:cc="http://creativecommons.org/ns#" xmlns:rdf="http://www.w3.org/1999/02/22-rdf-syntax-ns#">
   <cc:Work>
    <dc:type rdf:resource="http://purl.org/dc/dcmitype/StillImage"/>
    <dc:date>2023-09-07T07:52:26.296008</dc:date>
    <dc:format>image/svg+xml</dc:format>
    <dc:creator>
     <cc:Agent>
      <dc:title>Matplotlib v3.5.3, https://matplotlib.org/</dc:title>
     </cc:Agent>
    </dc:creator>
   </cc:Work>
  </rdf:RDF>
 </metadata>
 <defs>
  <style type="text/css">*{stroke-linejoin: round; stroke-linecap: butt}</style>
 </defs>
 <g id="figure_1">
  <g id="patch_1">
   <path d="M 0 345.6 
L 460.8 345.6 
L 460.8 0 
L 0 0 
z
" style="fill: #ffffff"/>
  </g>
  <g id="axes_1">
   <g id="patch_2">
    <path d="M 57.6 307.584 
L 414.72 307.584 
L 414.72 41.472 
L 57.6 41.472 
z
" style="fill: #ffffff"/>
   </g>
   <g id="matplotlib.axis_1">
    <g id="xtick_1">
     <g id="line2d_1">
      <defs>
       <path id="m5587ed7333" d="M 0 0 
L 0 3.5 
" style="stroke: #000000; stroke-width: 0.8"/>
      </defs>
      <g>
       <use xlink:href="#m5587ed7333" x="73.351758" y="307.584" style="stroke: #000000; stroke-width: 0.8"/>
      </g>
     </g>
     <g id="text_1">
      <!-- 0 -->
      <g transform="translate(70.170508 322.182437)scale(0.1 -0.1)">
       <defs>
        <path id="DejaVuSans-30" d="M 2034 4250 
Q 1547 4250 1301 3770 
Q 1056 3291 1056 2328 
Q 1056 1369 1301 889 
Q 1547 409 2034 409 
Q 2525 409 2770 889 
Q 3016 1369 3016 2328 
Q 3016 3291 2770 3770 
Q 2525 4250 2034 4250 
z
M 2034 4750 
Q 2819 4750 3233 4129 
Q 3647 3509 3647 2328 
Q 3647 1150 3233 529 
Q 2819 -91 2034 -91 
Q 1250 -91 836 529 
Q 422 1150 422 2328 
Q 422 3509 836 4129 
Q 1250 4750 2034 4750 
z
" transform="scale(0.015625)"/>
       </defs>
       <use xlink:href="#DejaVuSans-30"/>
      </g>
     </g>
    </g>
    <g id="xtick_2">
     <g id="line2d_2">
      <g>
       <use xlink:href="#m5587ed7333" x="121.448727" y="307.584" style="stroke: #000000; stroke-width: 0.8"/>
      </g>
     </g>
     <g id="text_2">
      <!-- 2500 -->
      <g transform="translate(108.723727 322.182437)scale(0.1 -0.1)">
       <defs>
        <path id="DejaVuSans-32" d="M 1228 531 
L 3431 531 
L 3431 0 
L 469 0 
L 469 531 
Q 828 903 1448 1529 
Q 2069 2156 2228 2338 
Q 2531 2678 2651 2914 
Q 2772 3150 2772 3378 
Q 2772 3750 2511 3984 
Q 2250 4219 1831 4219 
Q 1534 4219 1204 4116 
Q 875 4013 500 3803 
L 500 4441 
Q 881 4594 1212 4672 
Q 1544 4750 1819 4750 
Q 2544 4750 2975 4387 
Q 3406 4025 3406 3419 
Q 3406 3131 3298 2873 
Q 3191 2616 2906 2266 
Q 2828 2175 2409 1742 
Q 1991 1309 1228 531 
z
" transform="scale(0.015625)"/>
        <path id="DejaVuSans-35" d="M 691 4666 
L 3169 4666 
L 3169 4134 
L 1269 4134 
L 1269 2991 
Q 1406 3038 1543 3061 
Q 1681 3084 1819 3084 
Q 2600 3084 3056 2656 
Q 3513 2228 3513 1497 
Q 3513 744 3044 326 
Q 2575 -91 1722 -91 
Q 1428 -91 1123 -41 
Q 819 9 494 109 
L 494 744 
Q 775 591 1075 516 
Q 1375 441 1709 441 
Q 2250 441 2565 725 
Q 2881 1009 2881 1497 
Q 2881 1984 2565 2268 
Q 2250 2553 1709 2553 
Q 1456 2553 1204 2497 
Q 953 2441 691 2322 
L 691 4666 
z
" transform="scale(0.015625)"/>
       </defs>
       <use xlink:href="#DejaVuSans-32"/>
       <use xlink:href="#DejaVuSans-35" x="63.623047"/>
       <use xlink:href="#DejaVuSans-30" x="127.246094"/>
       <use xlink:href="#DejaVuSans-30" x="190.869141"/>
      </g>
     </g>
    </g>
    <g id="xtick_3">
     <g id="line2d_3">
      <g>
       <use xlink:href="#m5587ed7333" x="169.545697" y="307.584" style="stroke: #000000; stroke-width: 0.8"/>
      </g>
     </g>
     <g id="text_3">
      <!-- 5000 -->
      <g transform="translate(156.820697 322.182437)scale(0.1 -0.1)">
       <use xlink:href="#DejaVuSans-35"/>
       <use xlink:href="#DejaVuSans-30" x="63.623047"/>
       <use xlink:href="#DejaVuSans-30" x="127.246094"/>
       <use xlink:href="#DejaVuSans-30" x="190.869141"/>
      </g>
     </g>
    </g>
    <g id="xtick_4">
     <g id="line2d_4">
      <g>
       <use xlink:href="#m5587ed7333" x="217.642667" y="307.584" style="stroke: #000000; stroke-width: 0.8"/>
      </g>
     </g>
     <g id="text_4">
      <!-- 7500 -->
      <g transform="translate(204.917667 322.182437)scale(0.1 -0.1)">
       <defs>
        <path id="DejaVuSans-37" d="M 525 4666 
L 3525 4666 
L 3525 4397 
L 1831 0 
L 1172 0 
L 2766 4134 
L 525 4134 
L 525 4666 
z
" transform="scale(0.015625)"/>
       </defs>
       <use xlink:href="#DejaVuSans-37"/>
       <use xlink:href="#DejaVuSans-35" x="63.623047"/>
       <use xlink:href="#DejaVuSans-30" x="127.246094"/>
       <use xlink:href="#DejaVuSans-30" x="190.869141"/>
      </g>
     </g>
    </g>
    <g id="xtick_5">
     <g id="line2d_5">
      <g>
       <use xlink:href="#m5587ed7333" x="265.739636" y="307.584" style="stroke: #000000; stroke-width: 0.8"/>
      </g>
     </g>
     <g id="text_5">
      <!-- 10000 -->
      <g transform="translate(249.833386 322.182437)scale(0.1 -0.1)">
       <defs>
        <path id="DejaVuSans-31" d="M 794 531 
L 1825 531 
L 1825 4091 
L 703 3866 
L 703 4441 
L 1819 4666 
L 2450 4666 
L 2450 531 
L 3481 531 
L 3481 0 
L 794 0 
L 794 531 
z
" transform="scale(0.015625)"/>
       </defs>
       <use xlink:href="#DejaVuSans-31"/>
       <use xlink:href="#DejaVuSans-30" x="63.623047"/>
       <use xlink:href="#DejaVuSans-30" x="127.246094"/>
       <use xlink:href="#DejaVuSans-30" x="190.869141"/>
       <use xlink:href="#DejaVuSans-30" x="254.492188"/>
      </g>
     </g>
    </g>
    <g id="xtick_6">
     <g id="line2d_6">
      <g>
       <use xlink:href="#m5587ed7333" x="313.836606" y="307.584" style="stroke: #000000; stroke-width: 0.8"/>
      </g>
     </g>
     <g id="text_6">
      <!-- 12500 -->
      <g transform="translate(297.930356 322.182437)scale(0.1 -0.1)">
       <use xlink:href="#DejaVuSans-31"/>
       <use xlink:href="#DejaVuSans-32" x="63.623047"/>
       <use xlink:href="#DejaVuSans-35" x="127.246094"/>
       <use xlink:href="#DejaVuSans-30" x="190.869141"/>
       <use xlink:href="#DejaVuSans-30" x="254.492188"/>
      </g>
     </g>
    </g>
    <g id="xtick_7">
     <g id="line2d_7">
      <g>
       <use xlink:href="#m5587ed7333" x="361.933576" y="307.584" style="stroke: #000000; stroke-width: 0.8"/>
      </g>
     </g>
     <g id="text_7">
      <!-- 15000 -->
      <g transform="translate(346.027326 322.182437)scale(0.1 -0.1)">
       <use xlink:href="#DejaVuSans-31"/>
       <use xlink:href="#DejaVuSans-35" x="63.623047"/>
       <use xlink:href="#DejaVuSans-30" x="127.246094"/>
       <use xlink:href="#DejaVuSans-30" x="190.869141"/>
       <use xlink:href="#DejaVuSans-30" x="254.492188"/>
      </g>
     </g>
    </g>
    <g id="xtick_8">
     <g id="line2d_8">
      <g>
       <use xlink:href="#m5587ed7333" x="410.030545" y="307.584" style="stroke: #000000; stroke-width: 0.8"/>
      </g>
     </g>
     <g id="text_8">
      <!-- 17500 -->
      <g transform="translate(394.124295 322.182437)scale(0.1 -0.1)">
       <use xlink:href="#DejaVuSans-31"/>
       <use xlink:href="#DejaVuSans-37" x="63.623047"/>
       <use xlink:href="#DejaVuSans-35" x="127.246094"/>
       <use xlink:href="#DejaVuSans-30" x="190.869141"/>
       <use xlink:href="#DejaVuSans-30" x="254.492188"/>
      </g>
     </g>
    </g>
    <g id="text_9">
     <!-- Number of input neurons multiplied by number of hidden neurons [N*K] -->
     <g transform="translate(56.102969 335.860562)scale(0.1 -0.1)">
      <defs>
       <path id="DejaVuSans-4e" d="M 628 4666 
L 1478 4666 
L 3547 763 
L 3547 4666 
L 4159 4666 
L 4159 0 
L 3309 0 
L 1241 3903 
L 1241 0 
L 628 0 
L 628 4666 
z
" transform="scale(0.015625)"/>
       <path id="DejaVuSans-75" d="M 544 1381 
L 544 3500 
L 1119 3500 
L 1119 1403 
Q 1119 906 1312 657 
Q 1506 409 1894 409 
Q 2359 409 2629 706 
Q 2900 1003 2900 1516 
L 2900 3500 
L 3475 3500 
L 3475 0 
L 2900 0 
L 2900 538 
Q 2691 219 2414 64 
Q 2138 -91 1772 -91 
Q 1169 -91 856 284 
Q 544 659 544 1381 
z
M 1991 3584 
L 1991 3584 
z
" transform="scale(0.015625)"/>
       <path id="DejaVuSans-6d" d="M 3328 2828 
Q 3544 3216 3844 3400 
Q 4144 3584 4550 3584 
Q 5097 3584 5394 3201 
Q 5691 2819 5691 2113 
L 5691 0 
L 5113 0 
L 5113 2094 
Q 5113 2597 4934 2840 
Q 4756 3084 4391 3084 
Q 3944 3084 3684 2787 
Q 3425 2491 3425 1978 
L 3425 0 
L 2847 0 
L 2847 2094 
Q 2847 2600 2669 2842 
Q 2491 3084 2119 3084 
Q 1678 3084 1418 2786 
Q 1159 2488 1159 1978 
L 1159 0 
L 581 0 
L 581 3500 
L 1159 3500 
L 1159 2956 
Q 1356 3278 1631 3431 
Q 1906 3584 2284 3584 
Q 2666 3584 2933 3390 
Q 3200 3197 3328 2828 
z
" transform="scale(0.015625)"/>
       <path id="DejaVuSans-62" d="M 3116 1747 
Q 3116 2381 2855 2742 
Q 2594 3103 2138 3103 
Q 1681 3103 1420 2742 
Q 1159 2381 1159 1747 
Q 1159 1113 1420 752 
Q 1681 391 2138 391 
Q 2594 391 2855 752 
Q 3116 1113 3116 1747 
z
M 1159 2969 
Q 1341 3281 1617 3432 
Q 1894 3584 2278 3584 
Q 2916 3584 3314 3078 
Q 3713 2572 3713 1747 
Q 3713 922 3314 415 
Q 2916 -91 2278 -91 
Q 1894 -91 1617 61 
Q 1341 213 1159 525 
L 1159 0 
L 581 0 
L 581 4863 
L 1159 4863 
L 1159 2969 
z
" transform="scale(0.015625)"/>
       <path id="DejaVuSans-65" d="M 3597 1894 
L 3597 1613 
L 953 1613 
Q 991 1019 1311 708 
Q 1631 397 2203 397 
Q 2534 397 2845 478 
Q 3156 559 3463 722 
L 3463 178 
Q 3153 47 2828 -22 
Q 2503 -91 2169 -91 
Q 1331 -91 842 396 
Q 353 884 353 1716 
Q 353 2575 817 3079 
Q 1281 3584 2069 3584 
Q 2775 3584 3186 3129 
Q 3597 2675 3597 1894 
z
M 3022 2063 
Q 3016 2534 2758 2815 
Q 2500 3097 2075 3097 
Q 1594 3097 1305 2825 
Q 1016 2553 972 2059 
L 3022 2063 
z
" transform="scale(0.015625)"/>
       <path id="DejaVuSans-72" d="M 2631 2963 
Q 2534 3019 2420 3045 
Q 2306 3072 2169 3072 
Q 1681 3072 1420 2755 
Q 1159 2438 1159 1844 
L 1159 0 
L 581 0 
L 581 3500 
L 1159 3500 
L 1159 2956 
Q 1341 3275 1631 3429 
Q 1922 3584 2338 3584 
Q 2397 3584 2469 3576 
Q 2541 3569 2628 3553 
L 2631 2963 
z
" transform="scale(0.015625)"/>
       <path id="DejaVuSans-20" transform="scale(0.015625)"/>
       <path id="DejaVuSans-6f" d="M 1959 3097 
Q 1497 3097 1228 2736 
Q 959 2375 959 1747 
Q 959 1119 1226 758 
Q 1494 397 1959 397 
Q 2419 397 2687 759 
Q 2956 1122 2956 1747 
Q 2956 2369 2687 2733 
Q 2419 3097 1959 3097 
z
M 1959 3584 
Q 2709 3584 3137 3096 
Q 3566 2609 3566 1747 
Q 3566 888 3137 398 
Q 2709 -91 1959 -91 
Q 1206 -91 779 398 
Q 353 888 353 1747 
Q 353 2609 779 3096 
Q 1206 3584 1959 3584 
z
" transform="scale(0.015625)"/>
       <path id="DejaVuSans-66" d="M 2375 4863 
L 2375 4384 
L 1825 4384 
Q 1516 4384 1395 4259 
Q 1275 4134 1275 3809 
L 1275 3500 
L 2222 3500 
L 2222 3053 
L 1275 3053 
L 1275 0 
L 697 0 
L 697 3053 
L 147 3053 
L 147 3500 
L 697 3500 
L 697 3744 
Q 697 4328 969 4595 
Q 1241 4863 1831 4863 
L 2375 4863 
z
" transform="scale(0.015625)"/>
       <path id="DejaVuSans-69" d="M 603 3500 
L 1178 3500 
L 1178 0 
L 603 0 
L 603 3500 
z
M 603 4863 
L 1178 4863 
L 1178 4134 
L 603 4134 
L 603 4863 
z
" transform="scale(0.015625)"/>
       <path id="DejaVuSans-6e" d="M 3513 2113 
L 3513 0 
L 2938 0 
L 2938 2094 
Q 2938 2591 2744 2837 
Q 2550 3084 2163 3084 
Q 1697 3084 1428 2787 
Q 1159 2491 1159 1978 
L 1159 0 
L 581 0 
L 581 3500 
L 1159 3500 
L 1159 2956 
Q 1366 3272 1645 3428 
Q 1925 3584 2291 3584 
Q 2894 3584 3203 3211 
Q 3513 2838 3513 2113 
z
" transform="scale(0.015625)"/>
       <path id="DejaVuSans-70" d="M 1159 525 
L 1159 -1331 
L 581 -1331 
L 581 3500 
L 1159 3500 
L 1159 2969 
Q 1341 3281 1617 3432 
Q 1894 3584 2278 3584 
Q 2916 3584 3314 3078 
Q 3713 2572 3713 1747 
Q 3713 922 3314 415 
Q 2916 -91 2278 -91 
Q 1894 -91 1617 61 
Q 1341 213 1159 525 
z
M 3116 1747 
Q 3116 2381 2855 2742 
Q 2594 3103 2138 3103 
Q 1681 3103 1420 2742 
Q 1159 2381 1159 1747 
Q 1159 1113 1420 752 
Q 1681 391 2138 391 
Q 2594 391 2855 752 
Q 3116 1113 3116 1747 
z
" transform="scale(0.015625)"/>
       <path id="DejaVuSans-74" d="M 1172 4494 
L 1172 3500 
L 2356 3500 
L 2356 3053 
L 1172 3053 
L 1172 1153 
Q 1172 725 1289 603 
Q 1406 481 1766 481 
L 2356 481 
L 2356 0 
L 1766 0 
Q 1100 0 847 248 
Q 594 497 594 1153 
L 594 3053 
L 172 3053 
L 172 3500 
L 594 3500 
L 594 4494 
L 1172 4494 
z
" transform="scale(0.015625)"/>
       <path id="DejaVuSans-73" d="M 2834 3397 
L 2834 2853 
Q 2591 2978 2328 3040 
Q 2066 3103 1784 3103 
Q 1356 3103 1142 2972 
Q 928 2841 928 2578 
Q 928 2378 1081 2264 
Q 1234 2150 1697 2047 
L 1894 2003 
Q 2506 1872 2764 1633 
Q 3022 1394 3022 966 
Q 3022 478 2636 193 
Q 2250 -91 1575 -91 
Q 1294 -91 989 -36 
Q 684 19 347 128 
L 347 722 
Q 666 556 975 473 
Q 1284 391 1588 391 
Q 1994 391 2212 530 
Q 2431 669 2431 922 
Q 2431 1156 2273 1281 
Q 2116 1406 1581 1522 
L 1381 1569 
Q 847 1681 609 1914 
Q 372 2147 372 2553 
Q 372 3047 722 3315 
Q 1072 3584 1716 3584 
Q 2034 3584 2315 3537 
Q 2597 3491 2834 3397 
z
" transform="scale(0.015625)"/>
       <path id="DejaVuSans-6c" d="M 603 4863 
L 1178 4863 
L 1178 0 
L 603 0 
L 603 4863 
z
" transform="scale(0.015625)"/>
       <path id="DejaVuSans-64" d="M 2906 2969 
L 2906 4863 
L 3481 4863 
L 3481 0 
L 2906 0 
L 2906 525 
Q 2725 213 2448 61 
Q 2172 -91 1784 -91 
Q 1150 -91 751 415 
Q 353 922 353 1747 
Q 353 2572 751 3078 
Q 1150 3584 1784 3584 
Q 2172 3584 2448 3432 
Q 2725 3281 2906 2969 
z
M 947 1747 
Q 947 1113 1208 752 
Q 1469 391 1925 391 
Q 2381 391 2643 752 
Q 2906 1113 2906 1747 
Q 2906 2381 2643 2742 
Q 2381 3103 1925 3103 
Q 1469 3103 1208 2742 
Q 947 2381 947 1747 
z
" transform="scale(0.015625)"/>
       <path id="DejaVuSans-79" d="M 2059 -325 
Q 1816 -950 1584 -1140 
Q 1353 -1331 966 -1331 
L 506 -1331 
L 506 -850 
L 844 -850 
Q 1081 -850 1212 -737 
Q 1344 -625 1503 -206 
L 1606 56 
L 191 3500 
L 800 3500 
L 1894 763 
L 2988 3500 
L 3597 3500 
L 2059 -325 
z
" transform="scale(0.015625)"/>
       <path id="DejaVuSans-68" d="M 3513 2113 
L 3513 0 
L 2938 0 
L 2938 2094 
Q 2938 2591 2744 2837 
Q 2550 3084 2163 3084 
Q 1697 3084 1428 2787 
Q 1159 2491 1159 1978 
L 1159 0 
L 581 0 
L 581 4863 
L 1159 4863 
L 1159 2956 
Q 1366 3272 1645 3428 
Q 1925 3584 2291 3584 
Q 2894 3584 3203 3211 
Q 3513 2838 3513 2113 
z
" transform="scale(0.015625)"/>
       <path id="DejaVuSans-5b" d="M 550 4863 
L 1875 4863 
L 1875 4416 
L 1125 4416 
L 1125 -397 
L 1875 -397 
L 1875 -844 
L 550 -844 
L 550 4863 
z
" transform="scale(0.015625)"/>
       <path id="DejaVuSans-2a" d="M 3009 3897 
L 1888 3291 
L 3009 2681 
L 2828 2375 
L 1778 3009 
L 1778 1831 
L 1422 1831 
L 1422 3009 
L 372 2375 
L 191 2681 
L 1313 3291 
L 191 3897 
L 372 4206 
L 1422 3572 
L 1422 4750 
L 1778 4750 
L 1778 3572 
L 2828 4206 
L 3009 3897 
z
" transform="scale(0.015625)"/>
       <path id="DejaVuSans-4b" d="M 628 4666 
L 1259 4666 
L 1259 2694 
L 3353 4666 
L 4166 4666 
L 1850 2491 
L 4331 0 
L 3500 0 
L 1259 2247 
L 1259 0 
L 628 0 
L 628 4666 
z
" transform="scale(0.015625)"/>
       <path id="DejaVuSans-5d" d="M 1947 4863 
L 1947 -844 
L 622 -844 
L 622 -397 
L 1369 -397 
L 1369 4416 
L 622 4416 
L 622 4863 
L 1947 4863 
z
" transform="scale(0.015625)"/>
      </defs>
      <use xlink:href="#DejaVuSans-4e"/>
      <use xlink:href="#DejaVuSans-75" x="74.804688"/>
      <use xlink:href="#DejaVuSans-6d" x="138.183594"/>
      <use xlink:href="#DejaVuSans-62" x="235.595703"/>
      <use xlink:href="#DejaVuSans-65" x="299.072266"/>
      <use xlink:href="#DejaVuSans-72" x="360.595703"/>
      <use xlink:href="#DejaVuSans-20" x="401.708984"/>
      <use xlink:href="#DejaVuSans-6f" x="433.496094"/>
      <use xlink:href="#DejaVuSans-66" x="494.677734"/>
      <use xlink:href="#DejaVuSans-20" x="529.882812"/>
      <use xlink:href="#DejaVuSans-69" x="561.669922"/>
      <use xlink:href="#DejaVuSans-6e" x="589.453125"/>
      <use xlink:href="#DejaVuSans-70" x="652.832031"/>
      <use xlink:href="#DejaVuSans-75" x="716.308594"/>
      <use xlink:href="#DejaVuSans-74" x="779.6875"/>
      <use xlink:href="#DejaVuSans-20" x="818.896484"/>
      <use xlink:href="#DejaVuSans-6e" x="850.683594"/>
      <use xlink:href="#DejaVuSans-65" x="914.0625"/>
      <use xlink:href="#DejaVuSans-75" x="975.585938"/>
      <use xlink:href="#DejaVuSans-72" x="1038.964844"/>
      <use xlink:href="#DejaVuSans-6f" x="1077.828125"/>
      <use xlink:href="#DejaVuSans-6e" x="1139.009766"/>
      <use xlink:href="#DejaVuSans-73" x="1202.388672"/>
      <use xlink:href="#DejaVuSans-20" x="1254.488281"/>
      <use xlink:href="#DejaVuSans-6d" x="1286.275391"/>
      <use xlink:href="#DejaVuSans-75" x="1383.6875"/>
      <use xlink:href="#DejaVuSans-6c" x="1447.066406"/>
      <use xlink:href="#DejaVuSans-74" x="1474.849609"/>
      <use xlink:href="#DejaVuSans-69" x="1514.058594"/>
      <use xlink:href="#DejaVuSans-70" x="1541.841797"/>
      <use xlink:href="#DejaVuSans-6c" x="1605.318359"/>
      <use xlink:href="#DejaVuSans-69" x="1633.101562"/>
      <use xlink:href="#DejaVuSans-65" x="1660.884766"/>
      <use xlink:href="#DejaVuSans-64" x="1722.408203"/>
      <use xlink:href="#DejaVuSans-20" x="1785.884766"/>
      <use xlink:href="#DejaVuSans-62" x="1817.671875"/>
      <use xlink:href="#DejaVuSans-79" x="1881.148438"/>
      <use xlink:href="#DejaVuSans-20" x="1940.328125"/>
      <use xlink:href="#DejaVuSans-6e" x="1972.115234"/>
      <use xlink:href="#DejaVuSans-75" x="2035.494141"/>
      <use xlink:href="#DejaVuSans-6d" x="2098.873047"/>
      <use xlink:href="#DejaVuSans-62" x="2196.285156"/>
      <use xlink:href="#DejaVuSans-65" x="2259.761719"/>
      <use xlink:href="#DejaVuSans-72" x="2321.285156"/>
      <use xlink:href="#DejaVuSans-20" x="2362.398438"/>
      <use xlink:href="#DejaVuSans-6f" x="2394.185547"/>
      <use xlink:href="#DejaVuSans-66" x="2455.367188"/>
      <use xlink:href="#DejaVuSans-20" x="2490.572266"/>
      <use xlink:href="#DejaVuSans-68" x="2522.359375"/>
      <use xlink:href="#DejaVuSans-69" x="2585.738281"/>
      <use xlink:href="#DejaVuSans-64" x="2613.521484"/>
      <use xlink:href="#DejaVuSans-64" x="2676.998047"/>
      <use xlink:href="#DejaVuSans-65" x="2740.474609"/>
      <use xlink:href="#DejaVuSans-6e" x="2801.998047"/>
      <use xlink:href="#DejaVuSans-20" x="2865.376953"/>
      <use xlink:href="#DejaVuSans-6e" x="2897.164062"/>
      <use xlink:href="#DejaVuSans-65" x="2960.542969"/>
      <use xlink:href="#DejaVuSans-75" x="3022.066406"/>
      <use xlink:href="#DejaVuSans-72" x="3085.445312"/>
      <use xlink:href="#DejaVuSans-6f" x="3124.308594"/>
      <use xlink:href="#DejaVuSans-6e" x="3185.490234"/>
      <use xlink:href="#DejaVuSans-73" x="3248.869141"/>
      <use xlink:href="#DejaVuSans-20" x="3300.96875"/>
      <use xlink:href="#DejaVuSans-5b" x="3332.755859"/>
      <use xlink:href="#DejaVuSans-4e" x="3371.769531"/>
      <use xlink:href="#DejaVuSans-2a" x="3446.574219"/>
      <use xlink:href="#DejaVuSans-4b" x="3496.574219"/>
      <use xlink:href="#DejaVuSans-5d" x="3562.150391"/>
     </g>
    </g>
   </g>
   <g id="matplotlib.axis_2">
    <g id="ytick_1">
     <g id="line2d_9">
      <defs>
       <path id="m0b6ec69418" d="M 0 0 
L -3.5 0 
" style="stroke: #000000; stroke-width: 0.8"/>
      </defs>
      <g>
       <use xlink:href="#m0b6ec69418" x="57.6" y="300.059422" style="stroke: #000000; stroke-width: 0.8"/>
      </g>
     </g>
     <g id="text_10">
      <!-- 0 -->
      <g transform="translate(44.2375 303.858641)scale(0.1 -0.1)">
       <use xlink:href="#DejaVuSans-30"/>
      </g>
     </g>
    </g>
    <g id="ytick_2">
     <g id="line2d_10">
      <g>
       <use xlink:href="#m0b6ec69418" x="57.6" y="265.637028" style="stroke: #000000; stroke-width: 0.8"/>
      </g>
     </g>
     <g id="text_11">
      <!-- 10 -->
      <g transform="translate(37.875 269.436247)scale(0.1 -0.1)">
       <use xlink:href="#DejaVuSans-31"/>
       <use xlink:href="#DejaVuSans-30" x="63.623047"/>
      </g>
     </g>
    </g>
    <g id="ytick_3">
     <g id="line2d_11">
      <g>
       <use xlink:href="#m0b6ec69418" x="57.6" y="231.214634" style="stroke: #000000; stroke-width: 0.8"/>
      </g>
     </g>
     <g id="text_12">
      <!-- 20 -->
      <g transform="translate(37.875 235.013853)scale(0.1 -0.1)">
       <use xlink:href="#DejaVuSans-32"/>
       <use xlink:href="#DejaVuSans-30" x="63.623047"/>
      </g>
     </g>
    </g>
    <g id="ytick_4">
     <g id="line2d_12">
      <g>
       <use xlink:href="#m0b6ec69418" x="57.6" y="196.79224" style="stroke: #000000; stroke-width: 0.8"/>
      </g>
     </g>
     <g id="text_13">
      <!-- 30 -->
      <g transform="translate(37.875 200.591459)scale(0.1 -0.1)">
       <defs>
        <path id="DejaVuSans-33" d="M 2597 2516 
Q 3050 2419 3304 2112 
Q 3559 1806 3559 1356 
Q 3559 666 3084 287 
Q 2609 -91 1734 -91 
Q 1441 -91 1130 -33 
Q 819 25 488 141 
L 488 750 
Q 750 597 1062 519 
Q 1375 441 1716 441 
Q 2309 441 2620 675 
Q 2931 909 2931 1356 
Q 2931 1769 2642 2001 
Q 2353 2234 1838 2234 
L 1294 2234 
L 1294 2753 
L 1863 2753 
Q 2328 2753 2575 2939 
Q 2822 3125 2822 3475 
Q 2822 3834 2567 4026 
Q 2313 4219 1838 4219 
Q 1578 4219 1281 4162 
Q 984 4106 628 3988 
L 628 4550 
Q 988 4650 1302 4700 
Q 1616 4750 1894 4750 
Q 2613 4750 3031 4423 
Q 3450 4097 3450 3541 
Q 3450 3153 3228 2886 
Q 3006 2619 2597 2516 
z
" transform="scale(0.015625)"/>
       </defs>
       <use xlink:href="#DejaVuSans-33"/>
       <use xlink:href="#DejaVuSans-30" x="63.623047"/>
      </g>
     </g>
    </g>
    <g id="ytick_5">
     <g id="line2d_13">
      <g>
       <use xlink:href="#m0b6ec69418" x="57.6" y="162.369846" style="stroke: #000000; stroke-width: 0.8"/>
      </g>
     </g>
     <g id="text_14">
      <!-- 40 -->
      <g transform="translate(37.875 166.169065)scale(0.1 -0.1)">
       <defs>
        <path id="DejaVuSans-34" d="M 2419 4116 
L 825 1625 
L 2419 1625 
L 2419 4116 
z
M 2253 4666 
L 3047 4666 
L 3047 1625 
L 3713 1625 
L 3713 1100 
L 3047 1100 
L 3047 0 
L 2419 0 
L 2419 1100 
L 313 1100 
L 313 1709 
L 2253 4666 
z
" transform="scale(0.015625)"/>
       </defs>
       <use xlink:href="#DejaVuSans-34"/>
       <use xlink:href="#DejaVuSans-30" x="63.623047"/>
      </g>
     </g>
    </g>
    <g id="ytick_6">
     <g id="line2d_14">
      <g>
       <use xlink:href="#m0b6ec69418" x="57.6" y="127.947452" style="stroke: #000000; stroke-width: 0.8"/>
      </g>
     </g>
     <g id="text_15">
      <!-- 50 -->
      <g transform="translate(37.875 131.746671)scale(0.1 -0.1)">
       <use xlink:href="#DejaVuSans-35"/>
       <use xlink:href="#DejaVuSans-30" x="63.623047"/>
      </g>
     </g>
    </g>
    <g id="ytick_7">
     <g id="line2d_15">
      <g>
       <use xlink:href="#m0b6ec69418" x="57.6" y="93.525058" style="stroke: #000000; stroke-width: 0.8"/>
      </g>
     </g>
     <g id="text_16">
      <!-- 60 -->
      <g transform="translate(37.875 97.324277)scale(0.1 -0.1)">
       <defs>
        <path id="DejaVuSans-36" d="M 2113 2584 
Q 1688 2584 1439 2293 
Q 1191 2003 1191 1497 
Q 1191 994 1439 701 
Q 1688 409 2113 409 
Q 2538 409 2786 701 
Q 3034 994 3034 1497 
Q 3034 2003 2786 2293 
Q 2538 2584 2113 2584 
z
M 3366 4563 
L 3366 3988 
Q 3128 4100 2886 4159 
Q 2644 4219 2406 4219 
Q 1781 4219 1451 3797 
Q 1122 3375 1075 2522 
Q 1259 2794 1537 2939 
Q 1816 3084 2150 3084 
Q 2853 3084 3261 2657 
Q 3669 2231 3669 1497 
Q 3669 778 3244 343 
Q 2819 -91 2113 -91 
Q 1303 -91 875 529 
Q 447 1150 447 2328 
Q 447 3434 972 4092 
Q 1497 4750 2381 4750 
Q 2619 4750 2861 4703 
Q 3103 4656 3366 4563 
z
" transform="scale(0.015625)"/>
       </defs>
       <use xlink:href="#DejaVuSans-36"/>
       <use xlink:href="#DejaVuSans-30" x="63.623047"/>
      </g>
     </g>
    </g>
    <g id="ytick_8">
     <g id="line2d_16">
      <g>
       <use xlink:href="#m0b6ec69418" x="57.6" y="59.102664" style="stroke: #000000; stroke-width: 0.8"/>
      </g>
     </g>
     <g id="text_17">
      <!-- 70 -->
      <g transform="translate(37.875 62.901883)scale(0.1 -0.1)">
       <use xlink:href="#DejaVuSans-37"/>
       <use xlink:href="#DejaVuSans-30" x="63.623047"/>
      </g>
     </g>
    </g>
    <g id="text_18">
     <!-- Mean number of required iterations of TPM -->
     <g transform="translate(31.795312 281.894406)rotate(-90)scale(0.1 -0.1)">
      <defs>
       <path id="DejaVuSans-4d" d="M 628 4666 
L 1569 4666 
L 2759 1491 
L 3956 4666 
L 4897 4666 
L 4897 0 
L 4281 0 
L 4281 4097 
L 3078 897 
L 2444 897 
L 1241 4097 
L 1241 0 
L 628 0 
L 628 4666 
z
" transform="scale(0.015625)"/>
       <path id="DejaVuSans-61" d="M 2194 1759 
Q 1497 1759 1228 1600 
Q 959 1441 959 1056 
Q 959 750 1161 570 
Q 1363 391 1709 391 
Q 2188 391 2477 730 
Q 2766 1069 2766 1631 
L 2766 1759 
L 2194 1759 
z
M 3341 1997 
L 3341 0 
L 2766 0 
L 2766 531 
Q 2569 213 2275 61 
Q 1981 -91 1556 -91 
Q 1019 -91 701 211 
Q 384 513 384 1019 
Q 384 1609 779 1909 
Q 1175 2209 1959 2209 
L 2766 2209 
L 2766 2266 
Q 2766 2663 2505 2880 
Q 2244 3097 1772 3097 
Q 1472 3097 1187 3025 
Q 903 2953 641 2809 
L 641 3341 
Q 956 3463 1253 3523 
Q 1550 3584 1831 3584 
Q 2591 3584 2966 3190 
Q 3341 2797 3341 1997 
z
" transform="scale(0.015625)"/>
       <path id="DejaVuSans-71" d="M 947 1747 
Q 947 1113 1208 752 
Q 1469 391 1925 391 
Q 2381 391 2643 752 
Q 2906 1113 2906 1747 
Q 2906 2381 2643 2742 
Q 2381 3103 1925 3103 
Q 1469 3103 1208 2742 
Q 947 2381 947 1747 
z
M 2906 525 
Q 2725 213 2448 61 
Q 2172 -91 1784 -91 
Q 1150 -91 751 415 
Q 353 922 353 1747 
Q 353 2572 751 3078 
Q 1150 3584 1784 3584 
Q 2172 3584 2448 3432 
Q 2725 3281 2906 2969 
L 2906 3500 
L 3481 3500 
L 3481 -1331 
L 2906 -1331 
L 2906 525 
z
" transform="scale(0.015625)"/>
       <path id="DejaVuSans-54" d="M -19 4666 
L 3928 4666 
L 3928 4134 
L 2272 4134 
L 2272 0 
L 1638 0 
L 1638 4134 
L -19 4134 
L -19 4666 
z
" transform="scale(0.015625)"/>
       <path id="DejaVuSans-50" d="M 1259 4147 
L 1259 2394 
L 2053 2394 
Q 2494 2394 2734 2622 
Q 2975 2850 2975 3272 
Q 2975 3691 2734 3919 
Q 2494 4147 2053 4147 
L 1259 4147 
z
M 628 4666 
L 2053 4666 
Q 2838 4666 3239 4311 
Q 3641 3956 3641 3272 
Q 3641 2581 3239 2228 
Q 2838 1875 2053 1875 
L 1259 1875 
L 1259 0 
L 628 0 
L 628 4666 
z
" transform="scale(0.015625)"/>
      </defs>
      <use xlink:href="#DejaVuSans-4d"/>
      <use xlink:href="#DejaVuSans-65" x="86.279297"/>
      <use xlink:href="#DejaVuSans-61" x="147.802734"/>
      <use xlink:href="#DejaVuSans-6e" x="209.082031"/>
      <use xlink:href="#DejaVuSans-20" x="272.460938"/>
      <use xlink:href="#DejaVuSans-6e" x="304.248047"/>
      <use xlink:href="#DejaVuSans-75" x="367.626953"/>
      <use xlink:href="#DejaVuSans-6d" x="431.005859"/>
      <use xlink:href="#DejaVuSans-62" x="528.417969"/>
      <use xlink:href="#DejaVuSans-65" x="591.894531"/>
      <use xlink:href="#DejaVuSans-72" x="653.417969"/>
      <use xlink:href="#DejaVuSans-20" x="694.53125"/>
      <use xlink:href="#DejaVuSans-6f" x="726.318359"/>
      <use xlink:href="#DejaVuSans-66" x="787.5"/>
      <use xlink:href="#DejaVuSans-20" x="822.705078"/>
      <use xlink:href="#DejaVuSans-72" x="854.492188"/>
      <use xlink:href="#DejaVuSans-65" x="893.355469"/>
      <use xlink:href="#DejaVuSans-71" x="954.878906"/>
      <use xlink:href="#DejaVuSans-75" x="1018.355469"/>
      <use xlink:href="#DejaVuSans-69" x="1081.734375"/>
      <use xlink:href="#DejaVuSans-72" x="1109.517578"/>
      <use xlink:href="#DejaVuSans-65" x="1148.380859"/>
      <use xlink:href="#DejaVuSans-64" x="1209.904297"/>
      <use xlink:href="#DejaVuSans-20" x="1273.380859"/>
      <use xlink:href="#DejaVuSans-69" x="1305.167969"/>
      <use xlink:href="#DejaVuSans-74" x="1332.951172"/>
      <use xlink:href="#DejaVuSans-65" x="1372.160156"/>
      <use xlink:href="#DejaVuSans-72" x="1433.683594"/>
      <use xlink:href="#DejaVuSans-61" x="1474.796875"/>
      <use xlink:href="#DejaVuSans-74" x="1536.076172"/>
      <use xlink:href="#DejaVuSans-69" x="1575.285156"/>
      <use xlink:href="#DejaVuSans-6f" x="1603.068359"/>
      <use xlink:href="#DejaVuSans-6e" x="1664.25"/>
      <use xlink:href="#DejaVuSans-73" x="1727.628906"/>
      <use xlink:href="#DejaVuSans-20" x="1779.728516"/>
      <use xlink:href="#DejaVuSans-6f" x="1811.515625"/>
      <use xlink:href="#DejaVuSans-66" x="1872.697266"/>
      <use xlink:href="#DejaVuSans-20" x="1907.902344"/>
      <use xlink:href="#DejaVuSans-54" x="1939.689453"/>
      <use xlink:href="#DejaVuSans-50" x="2000.773438"/>
      <use xlink:href="#DejaVuSans-4d" x="2061.076172"/>
     </g>
    </g>
   </g>
   <g id="line2d_17">
    <path d="M 73.832727 295.488 
L 76.718545 292.094009 
L 76.718545 292.094009 
L 79.604364 289.091308 
L 79.604364 289.091308 
L 82.490182 286.43247 
L 82.490182 286.43247 
L 85.376 284.075527 
L 85.376 284.075527 
L 88.742788 281.658101 
L 88.742788 281.658101 
L 92.109576 279.549828 
L 92.109576 279.549828 
L 94.995394 277.954947 
L 94.995394 277.954947 
L 98.362182 276.307596 
L 98.362182 276.307596 
L 102.209939 274.665372 
L 102.209939 274.665372 
L 106.538667 273.073655 
L 106.538667 273.073655 
L 111.829333 271.425153 
L 111.829333 271.425153 
L 117.12 270.032923 
L 117.12 270.032923 
L 123.853576 268.537902 
L 123.853576 268.537902 
L 131.549091 267.096181 
L 142.130424 265.393937 
L 142.130424 265.393937 
L 164.25503 262.162645 
L 164.25503 262.162645 
L 181.08897 259.5563 
L 181.08897 259.5563 
L 196.48 256.943227 
L 239.286303 249.499862 
L 239.286303 249.499862 
L 248.424727 248.139462 
L 248.424727 248.139462 
L 261.410909 246.433654 
L 261.410909 246.433654 
L 273.435152 245.056649 
L 273.435152 245.056649 
L 301.812364 241.910464 
L 301.812364 241.910464 
L 306.141091 241.348239 
L 327.303758 237.931702 
L 327.303758 237.931702 
L 327.784727 237.840388 
L 350.390303 233.161944 
L 373.957818 229.488294 
L 398.487273 231.514323 
L 398.487273 231.514323 
" clip-path="url(#p6c85cf649d)" style="fill: none; stroke: #1f77b4; stroke-width: 1.5; stroke-linecap: square"/>
   </g>
   <g id="line2d_18">
    <path d="M 73.832727 292.919199 
L 75.756606 288.692049 
L 75.756606 288.692049 
L 77.680485 284.926221 
L 77.680485 284.926221 
L 79.604364 281.568142 
L 79.604364 281.568142 
L 81.528242 278.569374 
L 81.528242 278.569374 
L 83.452121 275.886225 
L 83.452121 275.886225 
L 85.376 273.479384 
L 85.376 273.479384 
L 86.818909 271.834219 
L 86.818909 271.834219 
L 90.185697 268.448708 
L 90.185697 268.448708 
L 92.590545 266.3548 
L 92.590545 266.3548 
L 96.438303 263.441622 
L 96.438303 263.441622 
L 99.805091 261.231573 
L 99.805091 261.231573 
L 103.652848 258.986456 
L 103.652848 258.986456 
L 107.981576 256.71152 
L 107.981576 256.71152 
L 114.234182 253.718993 
L 114.234182 253.718993 
L 123.372606 249.669163 
L 123.372606 249.669163 
L 134.915879 244.814354 
L 134.915879 244.814354 
L 144.054303 241.140862 
L 144.054303 241.140862 
L 154.635636 237.131087 
L 163.293091 234.08345 
L 163.293091 234.08345 
L 169.545697 232.019526 
L 169.545697 232.019526 
L 179.646061 228.916313 
L 179.646061 228.916313 
L 188.784485 226.324811 
L 188.784485 226.324811 
L 200.327758 223.288132 
L 200.327758 223.288132 
L 212.352 220.349427 
L 227.262061 216.985434 
L 227.262061 216.985434 
L 239.286303 214.507585 
L 239.286303 214.507585 
L 248.424727 212.773268 
L 248.424727 212.773268 
L 263.815758 210.114851 
L 263.815758 210.114851 
L 298.445576 204.340805 
L 298.445576 204.340805 
L 306.141091 202.854788 
L 327.784727 198.252008 
L 349.909333 194.600036 
L 349.909333 194.600036 
L 350.390303 194.558653 
L 373.957818 195.407634 
L 398.487273 192.917529 
L 398.487273 192.917529 
" clip-path="url(#p6c85cf649d)" style="fill: none; stroke: #ff7f0e; stroke-width: 1.5; stroke-linecap: square"/>
   </g>
   <g id="line2d_19">
    <path d="M 73.832727 286.329409 
L 75.756606 281.965118 
L 75.756606 281.965118 
L 77.680485 277.992368 
L 77.680485 277.992368 
L 80.566303 272.664332 
L 80.566303 272.664332 
L 82.971152 268.714769 
L 82.971152 268.714769 
L 85.376 265.137775 
L 85.376 265.137775 
L 86.818909 263.145824 
L 86.818909 263.145824 
L 90.666667 258.306063 
L 90.666667 258.306063 
L 94.514424 254.021409 
L 94.514424 254.021409 
L 97.881212 250.62424 
L 97.881212 250.62424 
L 100.76703 247.920836 
L 100.76703 247.920836 
L 104.614788 244.55938 
L 104.614788 244.55938 
L 109.424485 240.675188 
L 109.424485 240.675188 
L 114.234182 237.081476 
L 114.234182 237.081476 
L 119.524848 233.41724 
L 119.524848 233.41724 
L 125.296485 229.734656 
L 125.296485 229.734656 
L 131.549091 226.097198 
L 137.320727 223.053251 
L 137.320727 223.053251 
L 142.611394 220.516456 
L 142.611394 220.516456 
L 148.38303 218.007814 
L 148.38303 218.007814 
L 154.635636 215.5645 
L 159.926303 213.68896 
L 159.926303 213.68896 
L 167.621818 211.209689 
L 177.241212 208.391373 
L 177.241212 208.391373 
L 242.653091 190.072549 
L 242.653091 190.072549 
L 253.715394 187.336815 
L 253.715394 187.336815 
L 265.739636 184.657336 
L 285.459394 180.573396 
L 304.217212 176.323445 
L 304.217212 176.323445 
L 327.784727 170.559406 
L 348.466424 168.417763 
L 348.466424 168.417763 
L 350.390303 168.541302 
L 373.957818 174.699102 
L 398.487273 162.374757 
L 398.487273 162.374757 
" clip-path="url(#p6c85cf649d)" style="fill: none; stroke: #2ca02c; stroke-width: 1.5; stroke-linecap: square"/>
   </g>
   <g id="line2d_20">
    <path d="M 73.832727 289.166241 
L 75.756606 281.38755 
L 75.756606 281.38755 
L 77.680485 274.595626 
L 77.680485 274.595626 
L 79.604364 268.66501 
L 79.604364 268.66501 
L 81.528242 263.483004 
L 81.528242 263.483004 
L 83.452121 258.948673 
L 83.452121 258.948673 
L 85.376 254.971915 
L 85.376 254.971915 
L 86.818909 252.306686 
L 86.818909 252.306686 
L 89.223758 248.379626 
L 89.223758 248.379626 
L 90.666667 246.288602 
L 90.666667 246.288602 
L 92.590545 243.760598 
L 92.590545 243.760598 
L 94.995394 240.949631 
L 94.995394 240.949631 
L 98.362182 237.520463 
L 98.362182 237.520463 
L 102.209939 234.116349 
L 102.209939 234.116349 
L 106.538667 230.704698 
L 106.538667 230.704698 
L 112.310303 226.526874 
L 121.448727 220.241679 
L 133.47297 212.220879 
L 133.47297 212.220879 
L 140.687515 207.653108 
L 140.687515 207.653108 
L 146.940121 203.952084 
L 146.940121 203.952084 
L 152.711758 200.802933 
L 152.711758 200.802933 
L 158.002424 198.164841 
L 158.002424 198.164841 
L 164.25503 195.358143 
L 164.25503 195.358143 
L 169.545697 193.2322 
L 169.545697 193.2322 
L 177.241212 190.491553 
L 177.241212 190.491553 
L 184.455758 188.214497 
L 184.455758 188.214497 
L 196.48 184.775462 
L 217.161697 178.965068 
L 217.161697 178.965068 
L 253.715394 168.296063 
L 253.715394 168.296063 
L 263.815758 165.76308 
L 263.815758 165.76308 
L 273.435152 163.631601 
L 273.435152 163.631601 
L 304.217212 157.255902 
L 304.217212 157.255902 
L 306.141091 156.779811 
L 323.456 151.583041 
L 323.456 151.583041 
L 350.390303 142.140547 
L 373.476848 141.352747 
L 373.476848 141.352747 
L 373.957818 141.475409 
L 398.487273 148.744275 
L 398.487273 148.744275 
" clip-path="url(#p6c85cf649d)" style="fill: none; stroke: #d62728; stroke-width: 1.5; stroke-linecap: square"/>
   </g>
   <g id="line2d_21">
    <path d="M 73.832727 285.723214 
L 75.756606 277.665886 
L 75.756606 277.665886 
L 77.680485 270.467833 
L 77.680485 270.467833 
L 79.604364 264.026404 
L 79.604364 264.026404 
L 81.528242 258.249692 
L 81.528242 258.249692 
L 83.452121 253.055651 
L 83.452121 253.055651 
L 85.376 248.371259 
L 85.376 248.371259 
L 86.818909 245.153167 
L 86.818909 245.153167 
L 90.185697 238.483239 
L 90.185697 238.483239 
L 92.590545 234.323551 
L 92.590545 234.323551 
L 94.995394 230.575941 
L 94.995394 230.575941 
L 98.362182 225.896445 
L 98.362182 225.896445 
L 100.76703 222.885892 
L 100.76703 222.885892 
L 104.614788 218.526918 
L 104.614788 218.526918 
L 107.981576 215.08515 
L 107.981576 215.08515 
L 112.310303 211.06277 
L 117.12 207.022109 
L 117.12 207.022109 
L 121.448727 203.70848 
L 125.296485 200.991459 
L 125.296485 200.991459 
L 130.587152 197.581196 
L 130.587152 197.581196 
L 134.915879 195.057905 
L 134.915879 195.057905 
L 138.282667 193.254826 
L 138.282667 193.254826 
L 144.054303 190.472652 
L 144.054303 190.472652 
L 150.306909 187.863773 
L 150.306909 187.863773 
L 155.597576 185.942122 
L 155.597576 185.942122 
L 159.926303 184.530526 
L 159.926303 184.530526 
L 167.621818 182.280256 
L 192.151273 175.469628 
L 192.151273 175.469628 
L 198.403879 173.429484 
L 198.403879 173.429484 
L 205.618424 170.816815 
L 205.618424 170.816815 
L 212.352 168.132955 
L 223.414303 163.324927 
L 223.414303 163.324927 
L 242.653091 154.742162 
L 242.653091 154.742162 
L 248.424727 152.387215 
L 248.424727 152.387215 
L 253.715394 150.402844 
L 253.715394 150.402844 
L 261.410909 147.874995 
L 261.410909 147.874995 
L 265.739636 146.656368 
L 273.435152 144.853342 
L 273.435152 144.853342 
L 281.130667 143.472715 
L 281.130667 143.472715 
L 285.459394 142.846753 
L 306.141091 140.476447 
L 325.860848 137.402099 
L 325.860848 137.402099 
L 327.784727 137.017795 
L 350.390303 132.449133 
L 373.957818 131.523206 
L 398.487273 118.41554 
L 398.487273 118.41554 
" clip-path="url(#p6c85cf649d)" style="fill: none; stroke: #9467bd; stroke-width: 1.5; stroke-linecap: square"/>
   </g>
   <g id="line2d_22">
    <path d="M 73.832727 281.938452 
L 75.756606 273.301895 
L 75.756606 273.301895 
L 77.680485 265.720755 
L 77.680485 265.720755 
L 79.604364 259.050891 
L 79.604364 259.050891 
L 81.528242 253.164479 
L 81.528242 253.164479 
L 83.452121 247.948601 
L 83.452121 247.948601 
L 85.376 243.303924 
L 85.376 243.303924 
L 86.818909 240.142508 
L 86.818909 240.142508 
L 90.185697 233.647666 
L 90.185697 233.647666 
L 92.590545 229.615732 
L 92.590545 229.615732 
L 94.995394 225.973686 
L 94.995394 225.973686 
L 98.362182 221.376772 
L 98.362182 221.376772 
L 102.209939 216.644191 
L 102.209939 216.644191 
L 106.538667 211.772607 
L 106.538667 211.772607 
L 111.829333 206.250892 
L 111.829333 206.250892 
L 117.12 201.071043 
L 117.12 201.071043 
L 123.372606 195.333454 
L 123.372606 195.333454 
L 127.220364 192.018936 
L 127.220364 192.018936 
L 131.549091 188.508298 
L 136.839758 184.561118 
L 136.839758 184.561118 
L 140.687515 181.943288 
L 140.687515 181.943288 
L 144.054303 179.832062 
L 144.054303 179.832062 
L 148.38303 177.361744 
L 148.38303 177.361744 
L 152.711758 175.154906 
L 152.711758 175.154906 
L 157.521455 172.985628 
L 157.521455 172.985628 
L 159.926303 172.0005 
L 159.926303 172.0005 
L 167.140848 169.368254 
L 167.140848 169.368254 
L 173.874424 167.219411 
L 173.874424 167.219411 
L 194.556121 160.878215 
L 194.556121 160.878215 
L 200.327758 158.870916 
L 200.327758 158.870916 
L 208.023273 155.939026 
L 208.023273 155.939026 
L 217.161697 152.12347 
L 217.161697 152.12347 
L 239.286303 142.517099 
L 239.286303 142.517099 
L 246.981818 139.524612 
L 253.715394 137.200572 
L 253.715394 137.200572 
L 261.410909 134.910222 
L 261.410909 134.910222 
L 265.739636 133.781867 
L 277.763879 131.06756 
L 277.763879 131.06756 
L 285.459394 129.431039 
L 298.445576 126.224123 
L 298.445576 126.224123 
L 305.660121 123.970672 
L 305.660121 123.970672 
L 306.141091 123.806342 
L 327.784727 115.268246 
L 348.466424 110.838977 
L 348.466424 110.838977 
L 350.390303 111.030197 
L 373.957818 122.860898 
L 398.487273 87.215471 
L 398.487273 87.215471 
" clip-path="url(#p6c85cf649d)" style="fill: none; stroke: #8c564b; stroke-width: 1.5; stroke-linecap: square"/>
   </g>
   <g id="line2d_23">
    <path d="M 73.832727 271.425637 
L 83.452121 246.631497 
L 83.452121 246.631497 
L 86.818909 238.527684 
L 86.818909 238.527684 
L 90.666667 229.891931 
L 90.666667 229.891931 
L 94.514424 222.00849 
L 94.514424 222.00849 
L 96.919273 217.480805 
L 100.286061 211.658565 
L 100.286061 211.658565 
L 102.209939 208.596309 
L 102.209939 208.596309 
L 104.614788 205.029151 
L 104.614788 205.029151 
L 107.981576 200.496415 
L 107.981576 200.496415 
L 110.386424 197.565807 
L 110.386424 197.565807 
L 113.753212 193.853834 
L 113.753212 193.853834 
L 115.677091 191.919276 
L 115.677091 191.919276 
L 119.524848 188.40924 
L 119.524848 188.40924 
L 123.372606 185.311485 
L 123.372606 185.311485 
L 127.220364 182.549725 
L 127.220364 182.549725 
L 131.549091 179.757305 
L 137.320727 176.40763 
L 137.320727 176.40763 
L 144.054303 172.836878 
L 144.054303 172.836878 
L 155.597576 167.080698 
L 155.597576 167.080698 
L 173.874424 158.210717 
L 173.874424 158.210717 
L 184.455758 153.2951 
L 184.455758 153.2951 
L 194.556121 148.933953 
L 194.556121 148.933953 
L 200.327758 146.624583 
L 200.327758 146.624583 
L 210.428121 142.906682 
L 210.428121 142.906682 
L 217.161697 140.622663 
L 217.161697 140.622663 
L 234.957576 134.941364 
L 234.957576 134.941364 
L 248.424727 130.514027 
L 248.424727 130.514027 
L 261.410909 125.891587 
L 261.410909 125.891587 
L 277.763879 119.901635 
L 277.763879 119.901635 
L 285.459394 117.334471 
L 298.445576 114.015832 
L 298.445576 114.015832 
L 304.217212 113.130466 
L 304.217212 113.130466 
L 306.141091 112.930933 
L 323.456 113.371041 
L 323.456 113.371041 
L 327.784727 114.040306 
L 350.390303 118.388713 
L 373.957818 117.111427 
L 398.487273 129.599514 
L 398.487273 129.599514 
" clip-path="url(#p6c85cf649d)" style="fill: none; stroke: #e377c2; stroke-width: 1.5; stroke-linecap: square"/>
   </g>
   <g id="line2d_24">
    <path d="M 73.832727 277.212256 
L 75.756606 267.561153 
L 75.756606 267.561153 
L 77.680485 258.882865 
L 77.680485 258.882865 
L 79.604364 251.071246 
L 79.604364 251.071246 
L 81.528242 244.030337 
L 81.528242 244.030337 
L 83.452121 237.673572 
L 83.452121 237.673572 
L 85.376 231.923028 
L 85.376 231.923028 
L 86.818909 227.965576 
L 86.818909 227.965576 
L 90.185697 219.757416 
L 90.185697 219.757416 
L 92.590545 214.646035 
L 92.590545 214.646035 
L 94.995394 210.05658 
L 94.995394 210.05658 
L 98.362182 204.36166 
L 98.362182 204.36166 
L 100.76703 200.727273 
L 100.76703 200.727273 
L 104.133818 196.132052 
L 104.133818 196.132052 
L 106.538667 193.142355 
L 106.538667 193.142355 
L 110.386424 188.768406 
L 110.386424 188.768406 
L 114.234182 184.800735 
L 114.234182 184.800735 
L 117.12 182.039637 
L 117.12 182.039637 
L 121.448727 178.179004 
L 125.296485 174.983874 
L 125.296485 174.983874 
L 131.068121 170.537437 
L 131.068121 170.537437 
L 134.915879 167.773466 
L 134.915879 167.773466 
L 140.687515 163.893181 
L 140.687515 163.893181 
L 146.940121 160.015288 
L 146.940121 160.015288 
L 152.711758 156.70701 
L 152.711758 156.70701 
L 158.002424 153.879799 
L 158.002424 153.879799 
L 164.25503 150.761307 
L 164.25503 150.761307 
L 169.545697 148.284786 
L 169.545697 148.284786 
L 179.165091 144.086587 
L 179.165091 144.086587 
L 184.455758 141.909435 
L 184.455758 141.909435 
L 196.48 137.221653 
L 205.618424 133.872544 
L 205.618424 133.872544 
L 212.352 131.535583 
L 221.490424 128.589148 
L 221.490424 128.589148 
L 229.666909 126.230473 
L 229.666909 126.230473 
L 239.286303 123.862935 
L 239.286303 123.862935 
L 246.981818 122.314541 
L 253.715394 121.204855 
L 253.715394 121.204855 
L 263.815758 119.892922 
L 263.815758 119.892922 
L 285.459394 117.478864 
L 298.445576 115.251499 
L 298.445576 115.251499 
L 305.660121 113.486394 
L 305.660121 113.486394 
L 306.141091 113.353702 
L 325.860848 106.556527 
L 325.860848 106.556527 
L 327.784727 105.810456 
L 348.466424 99.212444 
L 348.466424 99.212444 
L 350.390303 98.892042 
L 373.957818 100.939226 
L 398.487273 85.55068 
L 398.487273 85.55068 
" clip-path="url(#p6c85cf649d)" style="fill: none; stroke: #7f7f7f; stroke-width: 1.5; stroke-linecap: square"/>
   </g>
   <g id="line2d_25">
    <path d="M 73.832727 274.149524 
L 75.756606 263.348317 
L 75.756606 263.348317 
L 77.680485 253.833921 
L 77.680485 253.833921 
L 79.604364 245.450173 
L 79.604364 245.450173 
L 81.528242 238.056557 
L 81.528242 238.056557 
L 83.452121 231.526979 
L 83.452121 231.526979 
L 85.376 225.748606 
L 85.376 225.748606 
L 86.818909 221.846827 
L 86.818909 221.846827 
L 89.223758 216.054014 
L 89.223758 216.054014 
L 90.666667 212.949066 
L 90.666667 212.949066 
L 92.590545 209.178952 
L 92.590545 209.178952 
L 94.995394 204.972708 
L 94.995394 204.972708 
L 97.881212 200.528986 
L 97.881212 200.528986 
L 100.76703 196.600684 
L 100.76703 196.600684 
L 104.133818 192.506644 
L 104.133818 192.506644 
L 106.538667 189.824548 
L 106.538667 189.824548 
L 110.386424 185.835631 
L 110.386424 185.835631 
L 115.677091 180.760642 
L 115.677091 180.760642 
L 121.448727 175.555077 
L 128.663273 169.357579 
L 128.663273 169.357579 
L 134.915879 164.226084 
L 134.915879 164.226084 
L 142.130424 158.615449 
L 142.130424 158.615449 
L 146.940121 155.089132 
L 146.940121 155.089132 
L 152.711758 151.10795 
L 152.711758 151.10795 
L 158.002424 147.707831 
L 158.002424 147.707831 
L 164.25503 143.992281 
L 164.25503 143.992281 
L 169.545697 141.087449 
L 169.545697 141.087449 
L 177.241212 137.201685 
L 177.241212 137.201685 
L 184.455758 133.853336 
L 184.455758 133.853336 
L 195.037091 129.306384 
L 195.037091 129.306384 
L 205.618424 125.049613 
L 205.618424 125.049613 
L 217.161697 120.680266 
L 217.161697 120.680266 
L 227.262061 117.161004 
L 227.262061 117.161004 
L 234.957576 114.748319 
L 234.957576 114.748319 
L 242.653091 112.628269 
L 242.653091 112.628269 
L 248.424727 111.251549 
L 248.424727 111.251549 
L 258.044121 109.361878 
L 258.044121 109.361878 
L 265.739636 108.158779 
L 285.459394 105.441945 
L 298.445576 102.817527 
L 298.445576 102.817527 
L 304.217212 101.163634 
L 304.217212 101.163634 
L 306.141091 100.531663 
L 323.456 93.02527 
L 323.456 93.02527 
L 327.784727 90.741078 
L 348.466424 80.26063 
L 348.466424 80.26063 
L 350.390303 79.528376 
L 373.957818 76.745571 
L 398.487273 53.568 
L 398.487273 53.568 
" clip-path="url(#p6c85cf649d)" style="fill: none; stroke: #bcbd22; stroke-width: 1.5; stroke-linecap: square"/>
   </g>
   <g id="line2d_26">
    <path d="M 73.832727 281.597554 
L 75.756606 268.60106 
L 75.756606 268.60106 
L 77.680485 257.179196 
L 77.680485 257.179196 
L 79.604364 247.146608 
L 79.604364 247.146608 
L 81.528242 238.335541 
L 81.528242 238.335541 
L 83.452121 230.594556 
L 83.452121 230.594556 
L 85.376 223.787319 
L 85.376 223.787319 
L 86.818909 219.220559 
L 86.818909 219.220559 
L 89.223758 212.497506 
L 89.223758 212.497506 
L 90.666667 208.928514 
L 90.666667 208.928514 
L 92.590545 204.634569 
L 92.590545 204.634569 
L 94.995394 199.904414 
L 94.995394 199.904414 
L 97.881212 194.988531 
L 97.881212 194.988531 
L 100.286061 191.394146 
L 100.286061 191.394146 
L 102.209939 188.779625 
L 102.209939 188.779625 
L 104.614788 185.772032 
L 104.614788 185.772032 
L 107.981576 181.933646 
L 107.981576 181.933646 
L 112.310303 177.439177 
L 112.310303 177.439177 
L 117.12 172.802322 
L 117.12 172.802322 
L 123.853576 166.654291 
L 123.853576 166.654291 
L 131.549091 159.929963 
L 131.549091 159.929963 
L 138.282667 154.320502 
L 138.282667 154.320502 
L 144.054303 149.787617 
L 144.054303 149.787617 
L 150.787879 144.910062 
L 150.787879 144.910062 
L 155.597576 141.736976 
L 155.597576 141.736976 
L 159.926303 139.115829 
L 159.926303 139.115829 
L 165.697939 135.964337 
L 165.697939 135.964337 
L 169.545697 134.069593 
L 169.545697 134.069593 
L 173.874424 132.115441 
L 173.874424 132.115441 
L 181.08897 129.204505 
L 181.08897 129.204505 
L 184.455758 127.959434 
L 184.455758 127.959434 
L 196.48 123.808733 
L 196.48 123.808733 
L 208.023273 119.797517 
L 208.023273 119.797517 
L 217.161697 116.33792 
L 217.161697 116.33792 
L 227.262061 112.165353 
L 227.262061 112.165353 
L 248.424727 103.090191 
L 248.424727 103.090191 
L 253.715394 101.043747 
L 253.715394 101.043747 
L 261.410909 98.44321 
L 261.410909 98.44321 
L 265.739636 97.223102 
L 265.739636 97.223102 
L 273.435152 95.546263 
L 273.435152 95.546263 
L 277.763879 94.888014 
L 277.763879 94.888014 
L 283.535515 94.312086 
L 283.535515 94.312086 
L 285.459394 94.189188 
L 285.459394 94.189188 
L 306.141091 93.911087 
L 306.141091 93.911087 
L 323.456 91.650287 
L 323.456 91.650287 
L 327.784727 90.200699 
L 327.784727 90.200699 
L 348.466424 76.660393 
L 348.466424 76.660393 
L 350.390303 74.922877 
L 350.390303 74.922877 
L 373.476848 57.864943 
L 373.476848 57.864943 
L 373.957818 57.814795 
L 373.957818 57.814795 
L 398.487273 114.229184 
L 398.487273 114.229184 
" clip-path="url(#p6c85cf649d)" style="fill: none; stroke: #17becf; stroke-width: 1.5; stroke-linecap: square"/>
   </g>
   <g id="line2d_27">
    <path d="M 73.832727 267.055743 
L 76.718545 253.509396 
L 76.718545 253.509396 
L 79.123394 243.244518 
L 79.123394 243.244518 
L 81.528242 233.864045 
L 81.528242 233.864045 
L 84.414061 223.707256 
L 84.414061 223.707256 
L 86.818909 216.099665 
L 86.818909 216.099665 
L 90.185697 206.649342 
L 90.185697 206.649342 
L 92.590545 200.682382 
L 92.590545 200.682382 
L 94.995394 195.306296 
L 94.995394 195.306296 
L 97.881212 189.559125 
L 97.881212 189.559125 
L 100.286061 185.294941 
L 100.286061 185.294941 
L 102.209939 182.190712 
L 102.209939 182.190712 
L 104.614788 178.653376 
L 104.614788 178.653376 
L 107.981576 174.258504 
L 107.981576 174.258504 
L 110.386424 171.458463 
L 110.386424 171.458463 
L 113.753212 167.928295 
L 113.753212 167.928295 
L 117.12 164.763731 
L 117.12 164.763731 
L 121.448727 161.092765 
L 121.448727 161.092765 
L 127.220364 156.648616 
L 127.220364 156.648616 
L 134.915879 151.093242 
L 134.915879 151.093242 
L 148.38303 141.394418 
L 148.38303 141.394418 
L 172.912485 123.446439 
L 172.912485 123.446439 
L 177.241212 120.542546 
L 177.241212 120.542546 
L 181.569939 117.809672 
L 181.569939 117.809672 
L 184.455758 116.09765 
L 184.455758 116.09765 
L 188.784485 113.712569 
L 188.784485 113.712569 
L 195.037091 110.686007 
L 195.037091 110.686007 
L 198.403879 109.269686 
L 198.403879 109.269686 
L 200.327758 108.527784 
L 200.327758 108.527784 
L 205.618424 106.734957 
L 205.618424 106.734957 
L 210.428121 105.403624 
L 210.428121 105.403624 
L 212.352 104.944406 
L 212.352 104.944406 
L 217.161697 103.959555 
L 217.161697 103.959555 
L 224.857212 102.77677 
L 224.857212 102.77677 
L 229.666909 102.204698 
L 229.666909 102.204698 
L 246.981818 100.279904 
L 246.981818 100.279904 
L 253.715394 99.236869 
L 253.715394 99.236869 
L 261.410909 97.643647 
L 261.410909 97.643647 
L 265.739636 96.531111 
L 265.739636 96.531111 
L 273.435152 94.160735 
L 273.435152 94.160735 
L 281.130667 91.338914 
L 281.130667 91.338914 
L 285.459394 89.597667 
L 285.459394 89.597667 
L 306.141091 80.915207 
L 306.141091 80.915207 
L 323.456 75.233411 
L 323.456 75.233411 
L 327.784727 74.229745 
L 327.784727 74.229745 
L 350.390303 70.751863 
L 350.390303 70.751863 
L 373.957818 63.620576 
L 373.957818 63.620576 
L 398.487273 53.76685 
L 398.487273 53.76685 
" clip-path="url(#p6c85cf649d)" style="fill: none; stroke: #1f77b4; stroke-width: 1.5; stroke-linecap: square"/>
   </g>
   <g id="patch_3">
    <path d="M 57.6 307.584 
L 57.6 41.472 
" style="fill: none; stroke: #000000; stroke-width: 0.8; stroke-linejoin: miter; stroke-linecap: square"/>
   </g>
   <g id="patch_4">
    <path d="M 414.72 307.584 
L 414.72 41.472 
" style="fill: none; stroke: #000000; stroke-width: 0.8; stroke-linejoin: miter; stroke-linecap: square"/>
   </g>
   <g id="patch_5">
    <path d="M 57.6 307.584 
L 414.72 307.584 
" style="fill: none; stroke: #000000; stroke-width: 0.8; stroke-linejoin: miter; stroke-linecap: square"/>
   </g>
   <g id="patch_6">
    <path d="M 57.6 41.472 
L 414.72 41.472 
" style="fill: none; stroke: #000000; stroke-width: 0.8; stroke-linejoin: miter; stroke-linecap: square"/>
   </g>
   <g id="legend_1">
    <g id="patch_7">
     <path d="M 328.760625 302.584 
L 407.72 302.584 
Q 409.72 302.584 409.72 300.584 
L 409.72 140.124625 
Q 409.72 138.124625 407.72 138.124625 
L 328.760625 138.124625 
Q 326.760625 138.124625 326.760625 140.124625 
L 326.760625 300.584 
Q 326.760625 302.584 328.760625 302.584 
z
" style="fill: #ffffff; opacity: 0.8; stroke: #cccccc; stroke-linejoin: miter"/>
    </g>
    <g id="line2d_28">
     <path d="M 330.760625 146.223062 
L 340.760625 146.223062 
L 350.760625 146.223062 
" style="fill: none; stroke: #1f77b4; stroke-width: 1.5; stroke-linecap: square"/>
    </g>
    <g id="text_19">
     <!-- QBER: 1 -->
     <g transform="translate(358.760625 149.723062)scale(0.1 -0.1)">
      <defs>
       <path id="DejaVuSans-51" d="M 2522 4238 
Q 1834 4238 1429 3725 
Q 1025 3213 1025 2328 
Q 1025 1447 1429 934 
Q 1834 422 2522 422 
Q 3209 422 3611 934 
Q 4013 1447 4013 2328 
Q 4013 3213 3611 3725 
Q 3209 4238 2522 4238 
z
M 3406 84 
L 4238 -825 
L 3475 -825 
L 2784 -78 
Q 2681 -84 2626 -87 
Q 2572 -91 2522 -91 
Q 1538 -91 948 567 
Q 359 1225 359 2328 
Q 359 3434 948 4092 
Q 1538 4750 2522 4750 
Q 3503 4750 4090 4092 
Q 4678 3434 4678 2328 
Q 4678 1516 4351 937 
Q 4025 359 3406 84 
z
" transform="scale(0.015625)"/>
       <path id="DejaVuSans-42" d="M 1259 2228 
L 1259 519 
L 2272 519 
Q 2781 519 3026 730 
Q 3272 941 3272 1375 
Q 3272 1813 3026 2020 
Q 2781 2228 2272 2228 
L 1259 2228 
z
M 1259 4147 
L 1259 2741 
L 2194 2741 
Q 2656 2741 2882 2914 
Q 3109 3088 3109 3444 
Q 3109 3797 2882 3972 
Q 2656 4147 2194 4147 
L 1259 4147 
z
M 628 4666 
L 2241 4666 
Q 2963 4666 3353 4366 
Q 3744 4066 3744 3513 
Q 3744 3084 3544 2831 
Q 3344 2578 2956 2516 
Q 3422 2416 3680 2098 
Q 3938 1781 3938 1306 
Q 3938 681 3513 340 
Q 3088 0 2303 0 
L 628 0 
L 628 4666 
z
" transform="scale(0.015625)"/>
       <path id="DejaVuSans-45" d="M 628 4666 
L 3578 4666 
L 3578 4134 
L 1259 4134 
L 1259 2753 
L 3481 2753 
L 3481 2222 
L 1259 2222 
L 1259 531 
L 3634 531 
L 3634 0 
L 628 0 
L 628 4666 
z
" transform="scale(0.015625)"/>
       <path id="DejaVuSans-52" d="M 2841 2188 
Q 3044 2119 3236 1894 
Q 3428 1669 3622 1275 
L 4263 0 
L 3584 0 
L 2988 1197 
Q 2756 1666 2539 1819 
Q 2322 1972 1947 1972 
L 1259 1972 
L 1259 0 
L 628 0 
L 628 4666 
L 2053 4666 
Q 2853 4666 3247 4331 
Q 3641 3997 3641 3322 
Q 3641 2881 3436 2590 
Q 3231 2300 2841 2188 
z
M 1259 4147 
L 1259 2491 
L 2053 2491 
Q 2509 2491 2742 2702 
Q 2975 2913 2975 3322 
Q 2975 3731 2742 3939 
Q 2509 4147 2053 4147 
L 1259 4147 
z
" transform="scale(0.015625)"/>
       <path id="DejaVuSans-3a" d="M 750 794 
L 1409 794 
L 1409 0 
L 750 0 
L 750 794 
z
M 750 3309 
L 1409 3309 
L 1409 2516 
L 750 2516 
L 750 3309 
z
" transform="scale(0.015625)"/>
      </defs>
      <use xlink:href="#DejaVuSans-51"/>
      <use xlink:href="#DejaVuSans-42" x="78.710938"/>
      <use xlink:href="#DejaVuSans-45" x="147.314453"/>
      <use xlink:href="#DejaVuSans-52" x="210.498047"/>
      <use xlink:href="#DejaVuSans-3a" x="276.855469"/>
      <use xlink:href="#DejaVuSans-20" x="310.546875"/>
      <use xlink:href="#DejaVuSans-31" x="342.333984"/>
     </g>
    </g>
    <g id="line2d_29">
     <path d="M 330.760625 160.901188 
L 340.760625 160.901188 
L 350.760625 160.901188 
" style="fill: none; stroke: #ff7f0e; stroke-width: 1.5; stroke-linecap: square"/>
    </g>
    <g id="text_20">
     <!-- QBER: 2 -->
     <g transform="translate(358.760625 164.401188)scale(0.1 -0.1)">
      <use xlink:href="#DejaVuSans-51"/>
      <use xlink:href="#DejaVuSans-42" x="78.710938"/>
      <use xlink:href="#DejaVuSans-45" x="147.314453"/>
      <use xlink:href="#DejaVuSans-52" x="210.498047"/>
      <use xlink:href="#DejaVuSans-3a" x="276.855469"/>
      <use xlink:href="#DejaVuSans-20" x="310.546875"/>
      <use xlink:href="#DejaVuSans-32" x="342.333984"/>
     </g>
    </g>
    <g id="line2d_30">
     <path d="M 330.760625 175.579313 
L 340.760625 175.579313 
L 350.760625 175.579313 
" style="fill: none; stroke: #2ca02c; stroke-width: 1.5; stroke-linecap: square"/>
    </g>
    <g id="text_21">
     <!-- QBER: 3 -->
     <g transform="translate(358.760625 179.079313)scale(0.1 -0.1)">
      <use xlink:href="#DejaVuSans-51"/>
      <use xlink:href="#DejaVuSans-42" x="78.710938"/>
      <use xlink:href="#DejaVuSans-45" x="147.314453"/>
      <use xlink:href="#DejaVuSans-52" x="210.498047"/>
      <use xlink:href="#DejaVuSans-3a" x="276.855469"/>
      <use xlink:href="#DejaVuSans-20" x="310.546875"/>
      <use xlink:href="#DejaVuSans-33" x="342.333984"/>
     </g>
    </g>
    <g id="line2d_31">
     <path d="M 330.760625 190.257438 
L 340.760625 190.257438 
L 350.760625 190.257438 
" style="fill: none; stroke: #d62728; stroke-width: 1.5; stroke-linecap: square"/>
    </g>
    <g id="text_22">
     <!-- QBER: 4 -->
     <g transform="translate(358.760625 193.757438)scale(0.1 -0.1)">
      <use xlink:href="#DejaVuSans-51"/>
      <use xlink:href="#DejaVuSans-42" x="78.710938"/>
      <use xlink:href="#DejaVuSans-45" x="147.314453"/>
      <use xlink:href="#DejaVuSans-52" x="210.498047"/>
      <use xlink:href="#DejaVuSans-3a" x="276.855469"/>
      <use xlink:href="#DejaVuSans-20" x="310.546875"/>
      <use xlink:href="#DejaVuSans-34" x="342.333984"/>
     </g>
    </g>
    <g id="line2d_32">
     <path d="M 330.760625 204.935563 
L 340.760625 204.935563 
L 350.760625 204.935563 
" style="fill: none; stroke: #9467bd; stroke-width: 1.5; stroke-linecap: square"/>
    </g>
    <g id="text_23">
     <!-- QBER: 5 -->
     <g transform="translate(358.760625 208.435563)scale(0.1 -0.1)">
      <use xlink:href="#DejaVuSans-51"/>
      <use xlink:href="#DejaVuSans-42" x="78.710938"/>
      <use xlink:href="#DejaVuSans-45" x="147.314453"/>
      <use xlink:href="#DejaVuSans-52" x="210.498047"/>
      <use xlink:href="#DejaVuSans-3a" x="276.855469"/>
      <use xlink:href="#DejaVuSans-20" x="310.546875"/>
      <use xlink:href="#DejaVuSans-35" x="342.333984"/>
     </g>
    </g>
    <g id="line2d_33">
     <path d="M 330.760625 219.613688 
L 340.760625 219.613688 
L 350.760625 219.613688 
" style="fill: none; stroke: #8c564b; stroke-width: 1.5; stroke-linecap: square"/>
    </g>
    <g id="text_24">
     <!-- QBER: 6 -->
     <g transform="translate(358.760625 223.113688)scale(0.1 -0.1)">
      <use xlink:href="#DejaVuSans-51"/>
      <use xlink:href="#DejaVuSans-42" x="78.710938"/>
      <use xlink:href="#DejaVuSans-45" x="147.314453"/>
      <use xlink:href="#DejaVuSans-52" x="210.498047"/>
      <use xlink:href="#DejaVuSans-3a" x="276.855469"/>
      <use xlink:href="#DejaVuSans-20" x="310.546875"/>
      <use xlink:href="#DejaVuSans-36" x="342.333984"/>
     </g>
    </g>
    <g id="line2d_34">
     <path d="M 330.760625 234.291812 
L 340.760625 234.291812 
L 350.760625 234.291812 
" style="fill: none; stroke: #e377c2; stroke-width: 1.5; stroke-linecap: square"/>
    </g>
    <g id="text_25">
     <!-- QBER: 7 -->
     <g transform="translate(358.760625 237.791812)scale(0.1 -0.1)">
      <use xlink:href="#DejaVuSans-51"/>
      <use xlink:href="#DejaVuSans-42" x="78.710938"/>
      <use xlink:href="#DejaVuSans-45" x="147.314453"/>
      <use xlink:href="#DejaVuSans-52" x="210.498047"/>
      <use xlink:href="#DejaVuSans-3a" x="276.855469"/>
      <use xlink:href="#DejaVuSans-20" x="310.546875"/>
      <use xlink:href="#DejaVuSans-37" x="342.333984"/>
     </g>
    </g>
    <g id="line2d_35">
     <path d="M 330.760625 248.969938 
L 340.760625 248.969938 
L 350.760625 248.969938 
" style="fill: none; stroke: #7f7f7f; stroke-width: 1.5; stroke-linecap: square"/>
    </g>
    <g id="text_26">
     <!-- QBER: 8 -->
     <g transform="translate(358.760625 252.469938)scale(0.1 -0.1)">
      <defs>
       <path id="DejaVuSans-38" d="M 2034 2216 
Q 1584 2216 1326 1975 
Q 1069 1734 1069 1313 
Q 1069 891 1326 650 
Q 1584 409 2034 409 
Q 2484 409 2743 651 
Q 3003 894 3003 1313 
Q 3003 1734 2745 1975 
Q 2488 2216 2034 2216 
z
M 1403 2484 
Q 997 2584 770 2862 
Q 544 3141 544 3541 
Q 544 4100 942 4425 
Q 1341 4750 2034 4750 
Q 2731 4750 3128 4425 
Q 3525 4100 3525 3541 
Q 3525 3141 3298 2862 
Q 3072 2584 2669 2484 
Q 3125 2378 3379 2068 
Q 3634 1759 3634 1313 
Q 3634 634 3220 271 
Q 2806 -91 2034 -91 
Q 1263 -91 848 271 
Q 434 634 434 1313 
Q 434 1759 690 2068 
Q 947 2378 1403 2484 
z
M 1172 3481 
Q 1172 3119 1398 2916 
Q 1625 2713 2034 2713 
Q 2441 2713 2670 2916 
Q 2900 3119 2900 3481 
Q 2900 3844 2670 4047 
Q 2441 4250 2034 4250 
Q 1625 4250 1398 4047 
Q 1172 3844 1172 3481 
z
" transform="scale(0.015625)"/>
      </defs>
      <use xlink:href="#DejaVuSans-51"/>
      <use xlink:href="#DejaVuSans-42" x="78.710938"/>
      <use xlink:href="#DejaVuSans-45" x="147.314453"/>
      <use xlink:href="#DejaVuSans-52" x="210.498047"/>
      <use xlink:href="#DejaVuSans-3a" x="276.855469"/>
      <use xlink:href="#DejaVuSans-20" x="310.546875"/>
      <use xlink:href="#DejaVuSans-38" x="342.333984"/>
     </g>
    </g>
    <g id="line2d_36">
     <path d="M 330.760625 263.648062 
L 340.760625 263.648062 
L 350.760625 263.648062 
" style="fill: none; stroke: #bcbd22; stroke-width: 1.5; stroke-linecap: square"/>
    </g>
    <g id="text_27">
     <!-- QBER: 9 -->
     <g transform="translate(358.760625 267.148062)scale(0.1 -0.1)">
      <defs>
       <path id="DejaVuSans-39" d="M 703 97 
L 703 672 
Q 941 559 1184 500 
Q 1428 441 1663 441 
Q 2288 441 2617 861 
Q 2947 1281 2994 2138 
Q 2813 1869 2534 1725 
Q 2256 1581 1919 1581 
Q 1219 1581 811 2004 
Q 403 2428 403 3163 
Q 403 3881 828 4315 
Q 1253 4750 1959 4750 
Q 2769 4750 3195 4129 
Q 3622 3509 3622 2328 
Q 3622 1225 3098 567 
Q 2575 -91 1691 -91 
Q 1453 -91 1209 -44 
Q 966 3 703 97 
z
M 1959 2075 
Q 2384 2075 2632 2365 
Q 2881 2656 2881 3163 
Q 2881 3666 2632 3958 
Q 2384 4250 1959 4250 
Q 1534 4250 1286 3958 
Q 1038 3666 1038 3163 
Q 1038 2656 1286 2365 
Q 1534 2075 1959 2075 
z
" transform="scale(0.015625)"/>
      </defs>
      <use xlink:href="#DejaVuSans-51"/>
      <use xlink:href="#DejaVuSans-42" x="78.710938"/>
      <use xlink:href="#DejaVuSans-45" x="147.314453"/>
      <use xlink:href="#DejaVuSans-52" x="210.498047"/>
      <use xlink:href="#DejaVuSans-3a" x="276.855469"/>
      <use xlink:href="#DejaVuSans-20" x="310.546875"/>
      <use xlink:href="#DejaVuSans-39" x="342.333984"/>
     </g>
    </g>
    <g id="line2d_37">
     <path d="M 330.760625 278.326187 
L 340.760625 278.326187 
L 350.760625 278.326187 
" style="fill: none; stroke: #17becf; stroke-width: 1.5; stroke-linecap: square"/>
    </g>
    <g id="text_28">
     <!-- QBER: 10 -->
     <g transform="translate(358.760625 281.826187)scale(0.1 -0.1)">
      <use xlink:href="#DejaVuSans-51"/>
      <use xlink:href="#DejaVuSans-42" x="78.710938"/>
      <use xlink:href="#DejaVuSans-45" x="147.314453"/>
      <use xlink:href="#DejaVuSans-52" x="210.498047"/>
      <use xlink:href="#DejaVuSans-3a" x="276.855469"/>
      <use xlink:href="#DejaVuSans-20" x="310.546875"/>
      <use xlink:href="#DejaVuSans-31" x="342.333984"/>
      <use xlink:href="#DejaVuSans-30" x="405.957031"/>
     </g>
    </g>
    <g id="line2d_38">
     <path d="M 330.760625 293.004312 
L 340.760625 293.004312 
L 350.760625 293.004312 
" style="fill: none; stroke: #1f77b4; stroke-width: 1.5; stroke-linecap: square"/>
    </g>
    <g id="text_29">
     <!-- QBER: 11 -->
     <g transform="translate(358.760625 296.504312)scale(0.1 -0.1)">
      <use xlink:href="#DejaVuSans-51"/>
      <use xlink:href="#DejaVuSans-42" x="78.710938"/>
      <use xlink:href="#DejaVuSans-45" x="147.314453"/>
      <use xlink:href="#DejaVuSans-52" x="210.498047"/>
      <use xlink:href="#DejaVuSans-3a" x="276.855469"/>
      <use xlink:href="#DejaVuSans-20" x="310.546875"/>
      <use xlink:href="#DejaVuSans-31" x="342.333984"/>
      <use xlink:href="#DejaVuSans-31" x="405.957031"/>
     </g>
    </g>
   </g>
  </g>
 </g>
 <defs>
  <clipPath id="p6c85cf649d">
   <rect x="57.6" y="41.472" width="357.12" height="266.112"/>
  </clipPath>
 </defs>
</svg>
