<?xml version="1.0" encoding="utf-8" standalone="no"?>
<!DOCTYPE svg PUBLIC "-//W3C//DTD SVG 1.1//EN"
  "http://www.w3.org/Graphics/SVG/1.1/DTD/svg11.dtd">
<svg xmlns:xlink="http://www.w3.org/1999/xlink" width="460.8pt" height="345.6pt" viewBox="0 0 460.8 345.6" xmlns="http://www.w3.org/2000/svg" version="1.1">
 <metadata>
  <rdf:RDF xmlns:dc="http://purl.org/dc/elements/1.1/" xmlns:cc="http://creativecommons.org/ns#" xmlns:rdf="http://www.w3.org/1999/02/22-rdf-syntax-ns#">
   <cc:Work>
    <dc:type rdf:resource="http://purl.org/dc/dcmitype/StillImage"/>
    <dc:date>2023-08-12T11:06:54.144079</dc:date>
    <dc:format>image/svg+xml</dc:format>
    <dc:creator>
     <cc:Agent>
      <dc:title>Matplotlib v3.5.3, https://matplotlib.org/</dc:title>
     </cc:Agent>
    </dc:creator>
   </cc:Work>
  </rdf:RDF>
 </metadata>
 <defs>
  <style type="text/css">*{stroke-linejoin: round; stroke-linecap: butt}</style>
 </defs>
 <g id="figure_1">
  <g id="patch_1">
   <path d="M 0 345.6 
L 460.8 345.6 
L 460.8 0 
L 0 0 
z
" style="fill: #ffffff"/>
  </g>
  <g id="axes_1">
   <g id="patch_2">
    <path d="M 57.6 307.584 
L 414.72 307.584 
L 414.72 41.472 
L 57.6 41.472 
z
" style="fill: #ffffff"/>
   </g>
   <g id="matplotlib.axis_1">
    <g id="xtick_1">
     <g id="line2d_1">
      <defs>
       <path id="m1b89c04e43" d="M 0 0 
L 0 3.5 
" style="stroke: #000000; stroke-width: 0.8"/>
      </defs>
      <g>
       <use xlink:href="#m1b89c04e43" x="73.351758" y="307.584" style="stroke: #000000; stroke-width: 0.8"/>
      </g>
     </g>
     <g id="text_1">
      <!-- 0 -->
      <g transform="translate(70.170508 322.182437)scale(0.1 -0.1)">
       <defs>
        <path id="DejaVuSans-30" d="M 2034 4250 
Q 1547 4250 1301 3770 
Q 1056 3291 1056 2328 
Q 1056 1369 1301 889 
Q 1547 409 2034 409 
Q 2525 409 2770 889 
Q 3016 1369 3016 2328 
Q 3016 3291 2770 3770 
Q 2525 4250 2034 4250 
z
M 2034 4750 
Q 2819 4750 3233 4129 
Q 3647 3509 3647 2328 
Q 3647 1150 3233 529 
Q 2819 -91 2034 -91 
Q 1250 -91 836 529 
Q 422 1150 422 2328 
Q 422 3509 836 4129 
Q 1250 4750 2034 4750 
z
" transform="scale(0.015625)"/>
       </defs>
       <use xlink:href="#DejaVuSans-30"/>
      </g>
     </g>
    </g>
    <g id="xtick_2">
     <g id="line2d_2">
      <g>
       <use xlink:href="#m1b89c04e43" x="121.448727" y="307.584" style="stroke: #000000; stroke-width: 0.8"/>
      </g>
     </g>
     <g id="text_2">
      <!-- 2500 -->
      <g transform="translate(108.723727 322.182437)scale(0.1 -0.1)">
       <defs>
        <path id="DejaVuSans-32" d="M 1228 531 
L 3431 531 
L 3431 0 
L 469 0 
L 469 531 
Q 828 903 1448 1529 
Q 2069 2156 2228 2338 
Q 2531 2678 2651 2914 
Q 2772 3150 2772 3378 
Q 2772 3750 2511 3984 
Q 2250 4219 1831 4219 
Q 1534 4219 1204 4116 
Q 875 4013 500 3803 
L 500 4441 
Q 881 4594 1212 4672 
Q 1544 4750 1819 4750 
Q 2544 4750 2975 4387 
Q 3406 4025 3406 3419 
Q 3406 3131 3298 2873 
Q 3191 2616 2906 2266 
Q 2828 2175 2409 1742 
Q 1991 1309 1228 531 
z
" transform="scale(0.015625)"/>
        <path id="DejaVuSans-35" d="M 691 4666 
L 3169 4666 
L 3169 4134 
L 1269 4134 
L 1269 2991 
Q 1406 3038 1543 3061 
Q 1681 3084 1819 3084 
Q 2600 3084 3056 2656 
Q 3513 2228 3513 1497 
Q 3513 744 3044 326 
Q 2575 -91 1722 -91 
Q 1428 -91 1123 -41 
Q 819 9 494 109 
L 494 744 
Q 775 591 1075 516 
Q 1375 441 1709 441 
Q 2250 441 2565 725 
Q 2881 1009 2881 1497 
Q 2881 1984 2565 2268 
Q 2250 2553 1709 2553 
Q 1456 2553 1204 2497 
Q 953 2441 691 2322 
L 691 4666 
z
" transform="scale(0.015625)"/>
       </defs>
       <use xlink:href="#DejaVuSans-32"/>
       <use xlink:href="#DejaVuSans-35" x="63.623047"/>
       <use xlink:href="#DejaVuSans-30" x="127.246094"/>
       <use xlink:href="#DejaVuSans-30" x="190.869141"/>
      </g>
     </g>
    </g>
    <g id="xtick_3">
     <g id="line2d_3">
      <g>
       <use xlink:href="#m1b89c04e43" x="169.545697" y="307.584" style="stroke: #000000; stroke-width: 0.8"/>
      </g>
     </g>
     <g id="text_3">
      <!-- 5000 -->
      <g transform="translate(156.820697 322.182437)scale(0.1 -0.1)">
       <use xlink:href="#DejaVuSans-35"/>
       <use xlink:href="#DejaVuSans-30" x="63.623047"/>
       <use xlink:href="#DejaVuSans-30" x="127.246094"/>
       <use xlink:href="#DejaVuSans-30" x="190.869141"/>
      </g>
     </g>
    </g>
    <g id="xtick_4">
     <g id="line2d_4">
      <g>
       <use xlink:href="#m1b89c04e43" x="217.642667" y="307.584" style="stroke: #000000; stroke-width: 0.8"/>
      </g>
     </g>
     <g id="text_4">
      <!-- 7500 -->
      <g transform="translate(204.917667 322.182437)scale(0.1 -0.1)">
       <defs>
        <path id="DejaVuSans-37" d="M 525 4666 
L 3525 4666 
L 3525 4397 
L 1831 0 
L 1172 0 
L 2766 4134 
L 525 4134 
L 525 4666 
z
" transform="scale(0.015625)"/>
       </defs>
       <use xlink:href="#DejaVuSans-37"/>
       <use xlink:href="#DejaVuSans-35" x="63.623047"/>
       <use xlink:href="#DejaVuSans-30" x="127.246094"/>
       <use xlink:href="#DejaVuSans-30" x="190.869141"/>
      </g>
     </g>
    </g>
    <g id="xtick_5">
     <g id="line2d_5">
      <g>
       <use xlink:href="#m1b89c04e43" x="265.739636" y="307.584" style="stroke: #000000; stroke-width: 0.8"/>
      </g>
     </g>
     <g id="text_5">
      <!-- 10000 -->
      <g transform="translate(249.833386 322.182437)scale(0.1 -0.1)">
       <defs>
        <path id="DejaVuSans-31" d="M 794 531 
L 1825 531 
L 1825 4091 
L 703 3866 
L 703 4441 
L 1819 4666 
L 2450 4666 
L 2450 531 
L 3481 531 
L 3481 0 
L 794 0 
L 794 531 
z
" transform="scale(0.015625)"/>
       </defs>
       <use xlink:href="#DejaVuSans-31"/>
       <use xlink:href="#DejaVuSans-30" x="63.623047"/>
       <use xlink:href="#DejaVuSans-30" x="127.246094"/>
       <use xlink:href="#DejaVuSans-30" x="190.869141"/>
       <use xlink:href="#DejaVuSans-30" x="254.492188"/>
      </g>
     </g>
    </g>
    <g id="xtick_6">
     <g id="line2d_6">
      <g>
       <use xlink:href="#m1b89c04e43" x="313.836606" y="307.584" style="stroke: #000000; stroke-width: 0.8"/>
      </g>
     </g>
     <g id="text_6">
      <!-- 12500 -->
      <g transform="translate(297.930356 322.182437)scale(0.1 -0.1)">
       <use xlink:href="#DejaVuSans-31"/>
       <use xlink:href="#DejaVuSans-32" x="63.623047"/>
       <use xlink:href="#DejaVuSans-35" x="127.246094"/>
       <use xlink:href="#DejaVuSans-30" x="190.869141"/>
       <use xlink:href="#DejaVuSans-30" x="254.492188"/>
      </g>
     </g>
    </g>
    <g id="xtick_7">
     <g id="line2d_7">
      <g>
       <use xlink:href="#m1b89c04e43" x="361.933576" y="307.584" style="stroke: #000000; stroke-width: 0.8"/>
      </g>
     </g>
     <g id="text_7">
      <!-- 15000 -->
      <g transform="translate(346.027326 322.182437)scale(0.1 -0.1)">
       <use xlink:href="#DejaVuSans-31"/>
       <use xlink:href="#DejaVuSans-35" x="63.623047"/>
       <use xlink:href="#DejaVuSans-30" x="127.246094"/>
       <use xlink:href="#DejaVuSans-30" x="190.869141"/>
       <use xlink:href="#DejaVuSans-30" x="254.492188"/>
      </g>
     </g>
    </g>
    <g id="xtick_8">
     <g id="line2d_8">
      <g>
       <use xlink:href="#m1b89c04e43" x="410.030545" y="307.584" style="stroke: #000000; stroke-width: 0.8"/>
      </g>
     </g>
     <g id="text_8">
      <!-- 17500 -->
      <g transform="translate(394.124295 322.182437)scale(0.1 -0.1)">
       <use xlink:href="#DejaVuSans-31"/>
       <use xlink:href="#DejaVuSans-37" x="63.623047"/>
       <use xlink:href="#DejaVuSans-35" x="127.246094"/>
       <use xlink:href="#DejaVuSans-30" x="190.869141"/>
       <use xlink:href="#DejaVuSans-30" x="254.492188"/>
      </g>
     </g>
    </g>
    <g id="text_9">
     <!-- Number of input neurons multiplied by number of hidden neurons [N*K] -->
     <g transform="translate(56.102969 335.860562)scale(0.1 -0.1)">
      <defs>
       <path id="DejaVuSans-4e" d="M 628 4666 
L 1478 4666 
L 3547 763 
L 3547 4666 
L 4159 4666 
L 4159 0 
L 3309 0 
L 1241 3903 
L 1241 0 
L 628 0 
L 628 4666 
z
" transform="scale(0.015625)"/>
       <path id="DejaVuSans-75" d="M 544 1381 
L 544 3500 
L 1119 3500 
L 1119 1403 
Q 1119 906 1312 657 
Q 1506 409 1894 409 
Q 2359 409 2629 706 
Q 2900 1003 2900 1516 
L 2900 3500 
L 3475 3500 
L 3475 0 
L 2900 0 
L 2900 538 
Q 2691 219 2414 64 
Q 2138 -91 1772 -91 
Q 1169 -91 856 284 
Q 544 659 544 1381 
z
M 1991 3584 
L 1991 3584 
z
" transform="scale(0.015625)"/>
       <path id="DejaVuSans-6d" d="M 3328 2828 
Q 3544 3216 3844 3400 
Q 4144 3584 4550 3584 
Q 5097 3584 5394 3201 
Q 5691 2819 5691 2113 
L 5691 0 
L 5113 0 
L 5113 2094 
Q 5113 2597 4934 2840 
Q 4756 3084 4391 3084 
Q 3944 3084 3684 2787 
Q 3425 2491 3425 1978 
L 3425 0 
L 2847 0 
L 2847 2094 
Q 2847 2600 2669 2842 
Q 2491 3084 2119 3084 
Q 1678 3084 1418 2786 
Q 1159 2488 1159 1978 
L 1159 0 
L 581 0 
L 581 3500 
L 1159 3500 
L 1159 2956 
Q 1356 3278 1631 3431 
Q 1906 3584 2284 3584 
Q 2666 3584 2933 3390 
Q 3200 3197 3328 2828 
z
" transform="scale(0.015625)"/>
       <path id="DejaVuSans-62" d="M 3116 1747 
Q 3116 2381 2855 2742 
Q 2594 3103 2138 3103 
Q 1681 3103 1420 2742 
Q 1159 2381 1159 1747 
Q 1159 1113 1420 752 
Q 1681 391 2138 391 
Q 2594 391 2855 752 
Q 3116 1113 3116 1747 
z
M 1159 2969 
Q 1341 3281 1617 3432 
Q 1894 3584 2278 3584 
Q 2916 3584 3314 3078 
Q 3713 2572 3713 1747 
Q 3713 922 3314 415 
Q 2916 -91 2278 -91 
Q 1894 -91 1617 61 
Q 1341 213 1159 525 
L 1159 0 
L 581 0 
L 581 4863 
L 1159 4863 
L 1159 2969 
z
" transform="scale(0.015625)"/>
       <path id="DejaVuSans-65" d="M 3597 1894 
L 3597 1613 
L 953 1613 
Q 991 1019 1311 708 
Q 1631 397 2203 397 
Q 2534 397 2845 478 
Q 3156 559 3463 722 
L 3463 178 
Q 3153 47 2828 -22 
Q 2503 -91 2169 -91 
Q 1331 -91 842 396 
Q 353 884 353 1716 
Q 353 2575 817 3079 
Q 1281 3584 2069 3584 
Q 2775 3584 3186 3129 
Q 3597 2675 3597 1894 
z
M 3022 2063 
Q 3016 2534 2758 2815 
Q 2500 3097 2075 3097 
Q 1594 3097 1305 2825 
Q 1016 2553 972 2059 
L 3022 2063 
z
" transform="scale(0.015625)"/>
       <path id="DejaVuSans-72" d="M 2631 2963 
Q 2534 3019 2420 3045 
Q 2306 3072 2169 3072 
Q 1681 3072 1420 2755 
Q 1159 2438 1159 1844 
L 1159 0 
L 581 0 
L 581 3500 
L 1159 3500 
L 1159 2956 
Q 1341 3275 1631 3429 
Q 1922 3584 2338 3584 
Q 2397 3584 2469 3576 
Q 2541 3569 2628 3553 
L 2631 2963 
z
" transform="scale(0.015625)"/>
       <path id="DejaVuSans-20" transform="scale(0.015625)"/>
       <path id="DejaVuSans-6f" d="M 1959 3097 
Q 1497 3097 1228 2736 
Q 959 2375 959 1747 
Q 959 1119 1226 758 
Q 1494 397 1959 397 
Q 2419 397 2687 759 
Q 2956 1122 2956 1747 
Q 2956 2369 2687 2733 
Q 2419 3097 1959 3097 
z
M 1959 3584 
Q 2709 3584 3137 3096 
Q 3566 2609 3566 1747 
Q 3566 888 3137 398 
Q 2709 -91 1959 -91 
Q 1206 -91 779 398 
Q 353 888 353 1747 
Q 353 2609 779 3096 
Q 1206 3584 1959 3584 
z
" transform="scale(0.015625)"/>
       <path id="DejaVuSans-66" d="M 2375 4863 
L 2375 4384 
L 1825 4384 
Q 1516 4384 1395 4259 
Q 1275 4134 1275 3809 
L 1275 3500 
L 2222 3500 
L 2222 3053 
L 1275 3053 
L 1275 0 
L 697 0 
L 697 3053 
L 147 3053 
L 147 3500 
L 697 3500 
L 697 3744 
Q 697 4328 969 4595 
Q 1241 4863 1831 4863 
L 2375 4863 
z
" transform="scale(0.015625)"/>
       <path id="DejaVuSans-69" d="M 603 3500 
L 1178 3500 
L 1178 0 
L 603 0 
L 603 3500 
z
M 603 4863 
L 1178 4863 
L 1178 4134 
L 603 4134 
L 603 4863 
z
" transform="scale(0.015625)"/>
       <path id="DejaVuSans-6e" d="M 3513 2113 
L 3513 0 
L 2938 0 
L 2938 2094 
Q 2938 2591 2744 2837 
Q 2550 3084 2163 3084 
Q 1697 3084 1428 2787 
Q 1159 2491 1159 1978 
L 1159 0 
L 581 0 
L 581 3500 
L 1159 3500 
L 1159 2956 
Q 1366 3272 1645 3428 
Q 1925 3584 2291 3584 
Q 2894 3584 3203 3211 
Q 3513 2838 3513 2113 
z
" transform="scale(0.015625)"/>
       <path id="DejaVuSans-70" d="M 1159 525 
L 1159 -1331 
L 581 -1331 
L 581 3500 
L 1159 3500 
L 1159 2969 
Q 1341 3281 1617 3432 
Q 1894 3584 2278 3584 
Q 2916 3584 3314 3078 
Q 3713 2572 3713 1747 
Q 3713 922 3314 415 
Q 2916 -91 2278 -91 
Q 1894 -91 1617 61 
Q 1341 213 1159 525 
z
M 3116 1747 
Q 3116 2381 2855 2742 
Q 2594 3103 2138 3103 
Q 1681 3103 1420 2742 
Q 1159 2381 1159 1747 
Q 1159 1113 1420 752 
Q 1681 391 2138 391 
Q 2594 391 2855 752 
Q 3116 1113 3116 1747 
z
" transform="scale(0.015625)"/>
       <path id="DejaVuSans-74" d="M 1172 4494 
L 1172 3500 
L 2356 3500 
L 2356 3053 
L 1172 3053 
L 1172 1153 
Q 1172 725 1289 603 
Q 1406 481 1766 481 
L 2356 481 
L 2356 0 
L 1766 0 
Q 1100 0 847 248 
Q 594 497 594 1153 
L 594 3053 
L 172 3053 
L 172 3500 
L 594 3500 
L 594 4494 
L 1172 4494 
z
" transform="scale(0.015625)"/>
       <path id="DejaVuSans-73" d="M 2834 3397 
L 2834 2853 
Q 2591 2978 2328 3040 
Q 2066 3103 1784 3103 
Q 1356 3103 1142 2972 
Q 928 2841 928 2578 
Q 928 2378 1081 2264 
Q 1234 2150 1697 2047 
L 1894 2003 
Q 2506 1872 2764 1633 
Q 3022 1394 3022 966 
Q 3022 478 2636 193 
Q 2250 -91 1575 -91 
Q 1294 -91 989 -36 
Q 684 19 347 128 
L 347 722 
Q 666 556 975 473 
Q 1284 391 1588 391 
Q 1994 391 2212 530 
Q 2431 669 2431 922 
Q 2431 1156 2273 1281 
Q 2116 1406 1581 1522 
L 1381 1569 
Q 847 1681 609 1914 
Q 372 2147 372 2553 
Q 372 3047 722 3315 
Q 1072 3584 1716 3584 
Q 2034 3584 2315 3537 
Q 2597 3491 2834 3397 
z
" transform="scale(0.015625)"/>
       <path id="DejaVuSans-6c" d="M 603 4863 
L 1178 4863 
L 1178 0 
L 603 0 
L 603 4863 
z
" transform="scale(0.015625)"/>
       <path id="DejaVuSans-64" d="M 2906 2969 
L 2906 4863 
L 3481 4863 
L 3481 0 
L 2906 0 
L 2906 525 
Q 2725 213 2448 61 
Q 2172 -91 1784 -91 
Q 1150 -91 751 415 
Q 353 922 353 1747 
Q 353 2572 751 3078 
Q 1150 3584 1784 3584 
Q 2172 3584 2448 3432 
Q 2725 3281 2906 2969 
z
M 947 1747 
Q 947 1113 1208 752 
Q 1469 391 1925 391 
Q 2381 391 2643 752 
Q 2906 1113 2906 1747 
Q 2906 2381 2643 2742 
Q 2381 3103 1925 3103 
Q 1469 3103 1208 2742 
Q 947 2381 947 1747 
z
" transform="scale(0.015625)"/>
       <path id="DejaVuSans-79" d="M 2059 -325 
Q 1816 -950 1584 -1140 
Q 1353 -1331 966 -1331 
L 506 -1331 
L 506 -850 
L 844 -850 
Q 1081 -850 1212 -737 
Q 1344 -625 1503 -206 
L 1606 56 
L 191 3500 
L 800 3500 
L 1894 763 
L 2988 3500 
L 3597 3500 
L 2059 -325 
z
" transform="scale(0.015625)"/>
       <path id="DejaVuSans-68" d="M 3513 2113 
L 3513 0 
L 2938 0 
L 2938 2094 
Q 2938 2591 2744 2837 
Q 2550 3084 2163 3084 
Q 1697 3084 1428 2787 
Q 1159 2491 1159 1978 
L 1159 0 
L 581 0 
L 581 4863 
L 1159 4863 
L 1159 2956 
Q 1366 3272 1645 3428 
Q 1925 3584 2291 3584 
Q 2894 3584 3203 3211 
Q 3513 2838 3513 2113 
z
" transform="scale(0.015625)"/>
       <path id="DejaVuSans-5b" d="M 550 4863 
L 1875 4863 
L 1875 4416 
L 1125 4416 
L 1125 -397 
L 1875 -397 
L 1875 -844 
L 550 -844 
L 550 4863 
z
" transform="scale(0.015625)"/>
       <path id="DejaVuSans-2a" d="M 3009 3897 
L 1888 3291 
L 3009 2681 
L 2828 2375 
L 1778 3009 
L 1778 1831 
L 1422 1831 
L 1422 3009 
L 372 2375 
L 191 2681 
L 1313 3291 
L 191 3897 
L 372 4206 
L 1422 3572 
L 1422 4750 
L 1778 4750 
L 1778 3572 
L 2828 4206 
L 3009 3897 
z
" transform="scale(0.015625)"/>
       <path id="DejaVuSans-4b" d="M 628 4666 
L 1259 4666 
L 1259 2694 
L 3353 4666 
L 4166 4666 
L 1850 2491 
L 4331 0 
L 3500 0 
L 1259 2247 
L 1259 0 
L 628 0 
L 628 4666 
z
" transform="scale(0.015625)"/>
       <path id="DejaVuSans-5d" d="M 1947 4863 
L 1947 -844 
L 622 -844 
L 622 -397 
L 1369 -397 
L 1369 4416 
L 622 4416 
L 622 4863 
L 1947 4863 
z
" transform="scale(0.015625)"/>
      </defs>
      <use xlink:href="#DejaVuSans-4e"/>
      <use xlink:href="#DejaVuSans-75" x="74.804688"/>
      <use xlink:href="#DejaVuSans-6d" x="138.183594"/>
      <use xlink:href="#DejaVuSans-62" x="235.595703"/>
      <use xlink:href="#DejaVuSans-65" x="299.072266"/>
      <use xlink:href="#DejaVuSans-72" x="360.595703"/>
      <use xlink:href="#DejaVuSans-20" x="401.708984"/>
      <use xlink:href="#DejaVuSans-6f" x="433.496094"/>
      <use xlink:href="#DejaVuSans-66" x="494.677734"/>
      <use xlink:href="#DejaVuSans-20" x="529.882812"/>
      <use xlink:href="#DejaVuSans-69" x="561.669922"/>
      <use xlink:href="#DejaVuSans-6e" x="589.453125"/>
      <use xlink:href="#DejaVuSans-70" x="652.832031"/>
      <use xlink:href="#DejaVuSans-75" x="716.308594"/>
      <use xlink:href="#DejaVuSans-74" x="779.6875"/>
      <use xlink:href="#DejaVuSans-20" x="818.896484"/>
      <use xlink:href="#DejaVuSans-6e" x="850.683594"/>
      <use xlink:href="#DejaVuSans-65" x="914.0625"/>
      <use xlink:href="#DejaVuSans-75" x="975.585938"/>
      <use xlink:href="#DejaVuSans-72" x="1038.964844"/>
      <use xlink:href="#DejaVuSans-6f" x="1077.828125"/>
      <use xlink:href="#DejaVuSans-6e" x="1139.009766"/>
      <use xlink:href="#DejaVuSans-73" x="1202.388672"/>
      <use xlink:href="#DejaVuSans-20" x="1254.488281"/>
      <use xlink:href="#DejaVuSans-6d" x="1286.275391"/>
      <use xlink:href="#DejaVuSans-75" x="1383.6875"/>
      <use xlink:href="#DejaVuSans-6c" x="1447.066406"/>
      <use xlink:href="#DejaVuSans-74" x="1474.849609"/>
      <use xlink:href="#DejaVuSans-69" x="1514.058594"/>
      <use xlink:href="#DejaVuSans-70" x="1541.841797"/>
      <use xlink:href="#DejaVuSans-6c" x="1605.318359"/>
      <use xlink:href="#DejaVuSans-69" x="1633.101562"/>
      <use xlink:href="#DejaVuSans-65" x="1660.884766"/>
      <use xlink:href="#DejaVuSans-64" x="1722.408203"/>
      <use xlink:href="#DejaVuSans-20" x="1785.884766"/>
      <use xlink:href="#DejaVuSans-62" x="1817.671875"/>
      <use xlink:href="#DejaVuSans-79" x="1881.148438"/>
      <use xlink:href="#DejaVuSans-20" x="1940.328125"/>
      <use xlink:href="#DejaVuSans-6e" x="1972.115234"/>
      <use xlink:href="#DejaVuSans-75" x="2035.494141"/>
      <use xlink:href="#DejaVuSans-6d" x="2098.873047"/>
      <use xlink:href="#DejaVuSans-62" x="2196.285156"/>
      <use xlink:href="#DejaVuSans-65" x="2259.761719"/>
      <use xlink:href="#DejaVuSans-72" x="2321.285156"/>
      <use xlink:href="#DejaVuSans-20" x="2362.398438"/>
      <use xlink:href="#DejaVuSans-6f" x="2394.185547"/>
      <use xlink:href="#DejaVuSans-66" x="2455.367188"/>
      <use xlink:href="#DejaVuSans-20" x="2490.572266"/>
      <use xlink:href="#DejaVuSans-68" x="2522.359375"/>
      <use xlink:href="#DejaVuSans-69" x="2585.738281"/>
      <use xlink:href="#DejaVuSans-64" x="2613.521484"/>
      <use xlink:href="#DejaVuSans-64" x="2676.998047"/>
      <use xlink:href="#DejaVuSans-65" x="2740.474609"/>
      <use xlink:href="#DejaVuSans-6e" x="2801.998047"/>
      <use xlink:href="#DejaVuSans-20" x="2865.376953"/>
      <use xlink:href="#DejaVuSans-6e" x="2897.164062"/>
      <use xlink:href="#DejaVuSans-65" x="2960.542969"/>
      <use xlink:href="#DejaVuSans-75" x="3022.066406"/>
      <use xlink:href="#DejaVuSans-72" x="3085.445312"/>
      <use xlink:href="#DejaVuSans-6f" x="3124.308594"/>
      <use xlink:href="#DejaVuSans-6e" x="3185.490234"/>
      <use xlink:href="#DejaVuSans-73" x="3248.869141"/>
      <use xlink:href="#DejaVuSans-20" x="3300.96875"/>
      <use xlink:href="#DejaVuSans-5b" x="3332.755859"/>
      <use xlink:href="#DejaVuSans-4e" x="3371.769531"/>
      <use xlink:href="#DejaVuSans-2a" x="3446.574219"/>
      <use xlink:href="#DejaVuSans-4b" x="3496.574219"/>
      <use xlink:href="#DejaVuSans-5d" x="3562.150391"/>
     </g>
    </g>
   </g>
   <g id="matplotlib.axis_2">
    <g id="ytick_1">
     <g id="line2d_9">
      <defs>
       <path id="mcebae4af78" d="M 0 0 
L -3.5 0 
" style="stroke: #000000; stroke-width: 0.8"/>
      </defs>
      <g>
       <use xlink:href="#mcebae4af78" x="57.6" y="303.995804" style="stroke: #000000; stroke-width: 0.8"/>
      </g>
     </g>
     <g id="text_10">
      <!-- 0 -->
      <g transform="translate(44.2375 307.795022)scale(0.1 -0.1)">
       <use xlink:href="#DejaVuSans-30"/>
      </g>
     </g>
    </g>
    <g id="ytick_2">
     <g id="line2d_10">
      <g>
       <use xlink:href="#mcebae4af78" x="57.6" y="254.692221" style="stroke: #000000; stroke-width: 0.8"/>
      </g>
     </g>
     <g id="text_11">
      <!-- 50 -->
      <g transform="translate(37.875 258.491439)scale(0.1 -0.1)">
       <use xlink:href="#DejaVuSans-35"/>
       <use xlink:href="#DejaVuSans-30" x="63.623047"/>
      </g>
     </g>
    </g>
    <g id="ytick_3">
     <g id="line2d_11">
      <g>
       <use xlink:href="#mcebae4af78" x="57.6" y="205.388638" style="stroke: #000000; stroke-width: 0.8"/>
      </g>
     </g>
     <g id="text_12">
      <!-- 100 -->
      <g transform="translate(31.5125 209.187856)scale(0.1 -0.1)">
       <use xlink:href="#DejaVuSans-31"/>
       <use xlink:href="#DejaVuSans-30" x="63.623047"/>
       <use xlink:href="#DejaVuSans-30" x="127.246094"/>
      </g>
     </g>
    </g>
    <g id="ytick_4">
     <g id="line2d_12">
      <g>
       <use xlink:href="#mcebae4af78" x="57.6" y="156.085055" style="stroke: #000000; stroke-width: 0.8"/>
      </g>
     </g>
     <g id="text_13">
      <!-- 150 -->
      <g transform="translate(31.5125 159.884274)scale(0.1 -0.1)">
       <use xlink:href="#DejaVuSans-31"/>
       <use xlink:href="#DejaVuSans-35" x="63.623047"/>
       <use xlink:href="#DejaVuSans-30" x="127.246094"/>
      </g>
     </g>
    </g>
    <g id="ytick_5">
     <g id="line2d_13">
      <g>
       <use xlink:href="#mcebae4af78" x="57.6" y="106.781472" style="stroke: #000000; stroke-width: 0.8"/>
      </g>
     </g>
     <g id="text_14">
      <!-- 200 -->
      <g transform="translate(31.5125 110.580691)scale(0.1 -0.1)">
       <use xlink:href="#DejaVuSans-32"/>
       <use xlink:href="#DejaVuSans-30" x="63.623047"/>
       <use xlink:href="#DejaVuSans-30" x="127.246094"/>
      </g>
     </g>
    </g>
    <g id="ytick_6">
     <g id="line2d_14">
      <g>
       <use xlink:href="#mcebae4af78" x="57.6" y="57.477889" style="stroke: #000000; stroke-width: 0.8"/>
      </g>
     </g>
     <g id="text_15">
      <!-- 250 -->
      <g transform="translate(31.5125 61.277108)scale(0.1 -0.1)">
       <use xlink:href="#DejaVuSans-32"/>
       <use xlink:href="#DejaVuSans-35" x="63.623047"/>
       <use xlink:href="#DejaVuSans-30" x="127.246094"/>
      </g>
     </g>
    </g>
    <g id="text_16">
     <!-- Mean number of required repetitions of TPM -->
     <g transform="translate(25.432812 284.968625)rotate(-90)scale(0.1 -0.1)">
      <defs>
       <path id="DejaVuSans-4d" d="M 628 4666 
L 1569 4666 
L 2759 1491 
L 3956 4666 
L 4897 4666 
L 4897 0 
L 4281 0 
L 4281 4097 
L 3078 897 
L 2444 897 
L 1241 4097 
L 1241 0 
L 628 0 
L 628 4666 
z
" transform="scale(0.015625)"/>
       <path id="DejaVuSans-61" d="M 2194 1759 
Q 1497 1759 1228 1600 
Q 959 1441 959 1056 
Q 959 750 1161 570 
Q 1363 391 1709 391 
Q 2188 391 2477 730 
Q 2766 1069 2766 1631 
L 2766 1759 
L 2194 1759 
z
M 3341 1997 
L 3341 0 
L 2766 0 
L 2766 531 
Q 2569 213 2275 61 
Q 1981 -91 1556 -91 
Q 1019 -91 701 211 
Q 384 513 384 1019 
Q 384 1609 779 1909 
Q 1175 2209 1959 2209 
L 2766 2209 
L 2766 2266 
Q 2766 2663 2505 2880 
Q 2244 3097 1772 3097 
Q 1472 3097 1187 3025 
Q 903 2953 641 2809 
L 641 3341 
Q 956 3463 1253 3523 
Q 1550 3584 1831 3584 
Q 2591 3584 2966 3190 
Q 3341 2797 3341 1997 
z
" transform="scale(0.015625)"/>
       <path id="DejaVuSans-71" d="M 947 1747 
Q 947 1113 1208 752 
Q 1469 391 1925 391 
Q 2381 391 2643 752 
Q 2906 1113 2906 1747 
Q 2906 2381 2643 2742 
Q 2381 3103 1925 3103 
Q 1469 3103 1208 2742 
Q 947 2381 947 1747 
z
M 2906 525 
Q 2725 213 2448 61 
Q 2172 -91 1784 -91 
Q 1150 -91 751 415 
Q 353 922 353 1747 
Q 353 2572 751 3078 
Q 1150 3584 1784 3584 
Q 2172 3584 2448 3432 
Q 2725 3281 2906 2969 
L 2906 3500 
L 3481 3500 
L 3481 -1331 
L 2906 -1331 
L 2906 525 
z
" transform="scale(0.015625)"/>
       <path id="DejaVuSans-54" d="M -19 4666 
L 3928 4666 
L 3928 4134 
L 2272 4134 
L 2272 0 
L 1638 0 
L 1638 4134 
L -19 4134 
L -19 4666 
z
" transform="scale(0.015625)"/>
       <path id="DejaVuSans-50" d="M 1259 4147 
L 1259 2394 
L 2053 2394 
Q 2494 2394 2734 2622 
Q 2975 2850 2975 3272 
Q 2975 3691 2734 3919 
Q 2494 4147 2053 4147 
L 1259 4147 
z
M 628 4666 
L 2053 4666 
Q 2838 4666 3239 4311 
Q 3641 3956 3641 3272 
Q 3641 2581 3239 2228 
Q 2838 1875 2053 1875 
L 1259 1875 
L 1259 0 
L 628 0 
L 628 4666 
z
" transform="scale(0.015625)"/>
      </defs>
      <use xlink:href="#DejaVuSans-4d"/>
      <use xlink:href="#DejaVuSans-65" x="86.279297"/>
      <use xlink:href="#DejaVuSans-61" x="147.802734"/>
      <use xlink:href="#DejaVuSans-6e" x="209.082031"/>
      <use xlink:href="#DejaVuSans-20" x="272.460938"/>
      <use xlink:href="#DejaVuSans-6e" x="304.248047"/>
      <use xlink:href="#DejaVuSans-75" x="367.626953"/>
      <use xlink:href="#DejaVuSans-6d" x="431.005859"/>
      <use xlink:href="#DejaVuSans-62" x="528.417969"/>
      <use xlink:href="#DejaVuSans-65" x="591.894531"/>
      <use xlink:href="#DejaVuSans-72" x="653.417969"/>
      <use xlink:href="#DejaVuSans-20" x="694.53125"/>
      <use xlink:href="#DejaVuSans-6f" x="726.318359"/>
      <use xlink:href="#DejaVuSans-66" x="787.5"/>
      <use xlink:href="#DejaVuSans-20" x="822.705078"/>
      <use xlink:href="#DejaVuSans-72" x="854.492188"/>
      <use xlink:href="#DejaVuSans-65" x="893.355469"/>
      <use xlink:href="#DejaVuSans-71" x="954.878906"/>
      <use xlink:href="#DejaVuSans-75" x="1018.355469"/>
      <use xlink:href="#DejaVuSans-69" x="1081.734375"/>
      <use xlink:href="#DejaVuSans-72" x="1109.517578"/>
      <use xlink:href="#DejaVuSans-65" x="1148.380859"/>
      <use xlink:href="#DejaVuSans-64" x="1209.904297"/>
      <use xlink:href="#DejaVuSans-20" x="1273.380859"/>
      <use xlink:href="#DejaVuSans-72" x="1305.167969"/>
      <use xlink:href="#DejaVuSans-65" x="1344.03125"/>
      <use xlink:href="#DejaVuSans-70" x="1405.554688"/>
      <use xlink:href="#DejaVuSans-65" x="1469.03125"/>
      <use xlink:href="#DejaVuSans-74" x="1530.554688"/>
      <use xlink:href="#DejaVuSans-69" x="1569.763672"/>
      <use xlink:href="#DejaVuSans-74" x="1597.546875"/>
      <use xlink:href="#DejaVuSans-69" x="1636.755859"/>
      <use xlink:href="#DejaVuSans-6f" x="1664.539062"/>
      <use xlink:href="#DejaVuSans-6e" x="1725.720703"/>
      <use xlink:href="#DejaVuSans-73" x="1789.099609"/>
      <use xlink:href="#DejaVuSans-20" x="1841.199219"/>
      <use xlink:href="#DejaVuSans-6f" x="1872.986328"/>
      <use xlink:href="#DejaVuSans-66" x="1934.167969"/>
      <use xlink:href="#DejaVuSans-20" x="1969.373047"/>
      <use xlink:href="#DejaVuSans-54" x="2001.160156"/>
      <use xlink:href="#DejaVuSans-50" x="2062.244141"/>
      <use xlink:href="#DejaVuSans-4d" x="2122.546875"/>
     </g>
    </g>
   </g>
   <g id="line2d_15">
    <path d="M 73.832727 295.488 
L 75.756606 281.537965 
L 75.756606 281.537965 
L 77.680485 269.625027 
L 77.680485 269.625027 
L 79.604364 259.474903 
L 79.604364 259.474903 
L 81.528242 250.842718 
L 81.528242 250.842718 
L 83.452121 243.510604 
L 83.452121 243.510604 
L 85.376 237.285438 
L 85.376 237.285438 
L 86.818909 233.239641 
L 86.818909 233.239641 
L 89.223758 227.494605 
L 89.223758 227.494605 
L 90.666667 224.554707 
L 90.666667 224.554707 
L 92.590545 221.124021 
L 92.590545 221.124021 
L 94.995394 217.480555 
L 94.995394 217.480555 
L 97.881212 213.835544 
L 97.881212 213.835544 
L 100.286061 211.244848 
L 100.286061 211.244848 
L 102.209939 209.386015 
L 102.209939 209.386015 
L 104.614788 207.256854 
L 104.614788 207.256854 
L 109.424485 203.403418 
L 109.424485 203.403418 
L 115.677091 198.752166 
L 115.677091 198.752166 
L 127.220364 190.426446 
L 127.220364 190.426446 
L 133.47297 186.131888 
L 133.47297 186.131888 
L 138.282667 183.061381 
L 138.282667 183.061381 
L 142.611394 180.539012 
L 142.611394 180.539012 
L 146.940121 178.287834 
L 146.940121 178.287834 
L 150.787879 176.534886 
L 150.787879 176.534886 
L 155.597576 174.680606 
L 155.597576 174.680606 
L 159.926303 173.321688 
L 159.926303 173.321688 
L 165.697939 171.919582 
L 165.697939 171.919582 
L 169.545697 171.202672 
L 169.545697 171.202672 
L 177.241212 170.13187 
L 177.241212 170.13187 
L 195.037091 168.011977 
L 195.037091 168.011977 
L 200.327758 167.113462 
L 200.327758 167.113462 
L 208.023273 165.406229 
L 208.023273 165.406229 
L 212.352 164.225303 
L 217.161697 162.738608 
L 217.161697 162.738608 
L 224.857212 160.050135 
L 224.857212 160.050135 
L 246.981818 151.864176 
L 248.424727 151.393058 
L 248.424727 151.393058 
L 253.715394 149.803032 
L 253.715394 149.803032 
L 258.044121 148.682511 
L 258.044121 148.682511 
L 263.815758 147.462058 
L 263.815758 147.462058 
L 265.739636 147.124992 
L 273.435152 146.097606 
L 273.435152 146.097606 
L 281.130667 145.473803 
L 281.130667 145.473803 
L 298.445576 144.335219 
L 298.445576 144.335219 
L 304.217212 143.632782 
L 304.217212 143.632782 
L 306.141091 143.33135 
L 323.456 138.928379 
L 323.456 138.928379 
L 327.784727 137.460973 
L 348.466424 132.03518 
L 348.466424 132.03518 
L 350.390303 131.947887 
L 373.957818 138.974378 
L 398.487273 93.388219 
L 398.487273 93.388219 
" clip-path="url(#p5449768bef)" style="fill: none; stroke: #1f77b4; stroke-width: 1.5; stroke-linecap: square"/>
   </g>
   <g id="line2d_16">
    <path d="M 73.832727 281.338711 
L 75.756606 266.882331 
L 75.756606 266.882331 
L 77.680485 254.515757 
L 77.680485 254.515757 
L 79.604364 243.9661 
L 79.604364 243.9661 
L 81.528242 234.988689 
L 81.528242 234.988689 
L 83.452121 227.364836 
L 83.452121 227.364836 
L 85.376 220.899742 
L 85.376 220.899742 
L 86.818909 216.706585 
L 86.818909 216.706585 
L 89.223758 210.774356 
L 89.223758 210.774356 
L 90.666667 207.754873 
L 90.666667 207.754873 
L 92.590545 204.253018 
L 92.590545 204.253018 
L 94.995394 200.571156 
L 94.995394 200.571156 
L 96.919273 198.071655 
L 98.362182 196.406032 
L 98.362182 196.406032 
L 100.76703 193.94566 
L 100.76703 193.94566 
L 104.133818 190.986326 
L 104.133818 190.986326 
L 106.538667 189.103989 
L 106.538667 189.103989 
L 111.829333 185.318209 
L 111.829333 185.318209 
L 138.282667 167.159654 
L 138.282667 167.159654 
L 144.054303 163.529074 
L 144.054303 163.529074 
L 148.38303 161.045286 
L 148.38303 161.045286 
L 152.711758 158.804044 
L 152.711758 158.804044 
L 157.521455 156.618373 
L 157.521455 156.618373 
L 159.926303 155.646606 
L 159.926303 155.646606 
L 165.697939 153.627649 
L 165.697939 153.627649 
L 169.545697 152.504401 
L 169.545697 152.504401 
L 173.874424 151.418494 
L 173.874424 151.418494 
L 181.569939 149.822294 
L 181.569939 149.822294 
L 200.327758 146.300724 
L 200.327758 146.300724 
L 208.023273 144.486845 
L 208.023273 144.486845 
L 212.352 143.308182 
L 221.490424 140.458097 
L 221.490424 140.458097 
L 229.666909 137.600294 
L 229.666909 137.600294 
L 242.653091 132.96961 
L 242.653091 132.96961 
L 248.424727 131.085565 
L 248.424727 131.085565 
L 253.715394 129.54663 
L 253.715394 129.54663 
L 258.044121 128.453583 
L 258.044121 128.453583 
L 263.815758 127.256486 
L 263.815758 127.256486 
L 265.739636 126.92573 
L 273.435152 125.931005 
L 273.435152 125.931005 
L 281.130667 125.379786 
L 281.130667 125.379786 
L 301.812364 124.429447 
L 301.812364 124.429447 
L 306.141091 123.967865 
L 323.456 119.907085 
L 323.456 119.907085 
L 327.784727 118.306664 
L 348.466424 109.768073 
L 348.466424 109.768073 
L 350.390303 109.161159 
L 373.476848 110.843405 
L 373.476848 110.843405 
L 373.957818 111.073826 
L 398.487273 111.047382 
L 398.487273 111.047382 
" clip-path="url(#p5449768bef)" style="fill: none; stroke: #ff7f0e; stroke-width: 1.5; stroke-linecap: square"/>
   </g>
   <g id="line2d_17">
    <path d="M 73.832727 269.498059 
L 75.756606 255.558774 
L 75.756606 255.558774 
L 77.680485 243.617456 
L 77.680485 243.617456 
L 79.604364 233.419468 
L 79.604364 233.419468 
L 81.528242 224.735595 
L 81.528242 224.735595 
L 83.452121 217.360108 
L 83.452121 217.360108 
L 85.376 211.108937 
L 85.376 211.108937 
L 86.818909 207.058951 
L 86.818909 207.058951 
L 89.223758 201.34132 
L 89.223758 201.34132 
L 90.666667 198.440063 
L 90.666667 198.440063 
L 92.590545 195.087376 
L 92.590545 195.087376 
L 94.995394 191.582739 
L 94.995394 191.582739 
L 96.919273 189.220192 
L 98.362182 187.655287 
L 98.362182 187.655287 
L 100.76703 185.359582 
L 100.76703 185.359582 
L 104.133818 182.623478 
L 104.133818 182.623478 
L 106.538667 180.893471 
L 106.538667 180.893471 
L 112.310303 177.102047 
L 121.448727 171.167371 
L 128.663273 166.149386 
L 128.663273 166.149386 
L 148.38303 152.145198 
L 148.38303 152.145198 
L 154.154667 148.527171 
L 154.154667 148.527171 
L 158.002424 146.333211 
L 158.002424 146.333211 
L 163.293091 143.628085 
L 163.293091 143.628085 
L 167.621818 141.686538 
L 172.912485 139.629814 
L 172.912485 139.629814 
L 177.241212 138.180406 
L 177.241212 138.180406 
L 181.569939 136.909683 
L 181.569939 136.909683 
L 188.784485 135.094508 
L 188.784485 135.094508 
L 200.327758 132.604806 
L 200.327758 132.604806 
L 212.352 130.000123 
L 223.414303 127.26973 
L 223.414303 127.26973 
L 229.666909 125.569154 
L 229.666909 125.569154 
L 253.715394 118.794153 
L 253.715394 118.794153 
L 261.410909 116.902395 
L 261.410909 116.902395 
L 265.739636 115.955132 
L 273.435152 114.496111 
L 273.435152 114.496111 
L 281.130667 113.304196 
L 281.130667 113.304196 
L 285.459394 112.725638 
L 306.141091 110.145734 
L 325.860848 106.628039 
L 325.860848 106.628039 
L 327.784727 106.224 
L 348.466424 102.800448 
L 348.466424 102.800448 
L 350.390303 102.712327 
L 373.957818 107.256862 
L 398.487273 94.104094 
L 398.487273 94.104094 
" clip-path="url(#p5449768bef)" style="fill: none; stroke: #2ca02c; stroke-width: 1.5; stroke-linecap: square"/>
   </g>
   <g id="line2d_18">
    <path d="M 73.832727 265.261075 
L 75.756606 252.070712 
L 75.756606 252.070712 
L 77.680485 240.582745 
L 77.680485 240.582745 
L 79.604364 230.58906 
L 79.604364 230.58906 
L 81.528242 221.902178 
L 81.528242 221.902178 
L 83.452121 214.353668 
L 83.452121 214.353668 
L 85.376 207.792648 
L 85.376 207.792648 
L 86.818909 203.438302 
L 86.818909 203.438302 
L 89.223758 197.108944 
L 89.223758 197.108944 
L 90.666667 193.793833 
L 90.666667 193.793833 
L 92.590545 189.85245 
L 92.590545 189.85245 
L 94.995394 185.57706 
L 94.995394 185.57706 
L 97.881212 181.215215 
L 97.881212 181.215215 
L 100.286061 178.0813 
L 100.286061 178.0813 
L 102.209939 175.830761 
L 102.209939 175.830761 
L 104.614788 173.269802 
L 104.614788 173.269802 
L 107.981576 170.037417 
L 107.981576 170.037417 
L 112.310303 166.285362 
L 117.12 162.425387 
L 117.12 162.425387 
L 125.296485 156.215436 
L 125.296485 156.215436 
L 133.47297 150.269463 
L 133.47297 150.269463 
L 140.687515 145.307316 
L 140.687515 145.307316 
L 146.940121 141.326354 
L 146.940121 141.326354 
L 152.711758 137.983715 
L 152.711758 137.983715 
L 158.002424 135.231616 
L 158.002424 135.231616 
L 163.293091 132.785656 
L 163.293091 132.785656 
L 167.621818 131.004433 
L 173.393455 128.910323 
L 173.393455 128.910323 
L 179.165091 127.090646 
L 179.165091 127.090646 
L 184.455758 125.612074 
L 184.455758 125.612074 
L 195.037091 122.99918 
L 195.037091 122.99918 
L 229.666909 114.8382 
L 229.666909 114.8382 
L 242.653091 111.814411 
L 242.653091 111.814411 
L 248.424727 110.596098 
L 248.424727 110.596098 
L 258.044121 108.823734 
L 258.044121 108.823734 
L 265.739636 107.656066 
L 281.130667 105.799971 
L 281.130667 105.799971 
L 285.459394 105.306745 
L 298.445576 103.531292 
L 306.141091 102.081257 
L 325.860848 96.760307 
L 325.860848 96.760307 
L 327.784727 96.174277 
L 348.466424 91.794196 
L 350.390303 91.776482 
L 373.476848 100.638186 
L 373.476848 100.638186 
L 373.957818 100.978834 
L 398.487273 101.671152 
L 398.487273 101.671152 
" clip-path="url(#p5449768bef)" style="fill: none; stroke: #d62728; stroke-width: 1.5; stroke-linecap: square"/>
   </g>
   <g id="line2d_19">
    <path d="M 73.832727 259.311015 
L 75.756606 246.745214 
L 75.756606 246.745214 
L 77.680485 235.710456 
L 77.680485 235.710456 
L 79.604364 226.022867 
L 79.604364 226.022867 
L 81.528242 217.517148 
L 81.528242 217.517148 
L 83.452121 210.045095 
L 83.452121 210.045095 
L 85.376 203.474208 
L 85.376 203.474208 
L 86.818909 199.065878 
L 86.818909 199.065878 
L 89.223758 192.576676 
L 89.223758 192.576676 
L 90.666667 189.133102 
L 90.666667 189.133102 
L 92.590545 184.993162 
L 92.590545 184.993162 
L 94.995394 180.440893 
L 94.995394 180.440893 
L 97.881212 175.728771 
L 97.881212 175.728771 
L 100.286061 172.305916 
L 100.286061 172.305916 
L 102.209939 169.835269 
L 102.209939 169.835269 
L 104.614788 167.021569 
L 104.614788 167.021569 
L 107.981576 163.491343 
L 107.981576 163.491343 
L 111.829333 159.897445 
L 111.829333 159.897445 
L 115.677091 156.645911 
L 115.677091 156.645911 
L 119.524848 153.647204 
L 119.524848 153.647204 
L 123.853576 150.50707 
L 123.853576 150.50707 
L 129.625212 146.63524 
L 129.625212 146.63524 
L 134.915879 143.370603 
L 134.915879 143.370603 
L 140.687515 140.110729 
L 140.687515 140.110729 
L 144.054303 138.353995 
L 144.054303 138.353995 
L 150.787879 135.153537 
L 150.787879 135.153537 
L 155.597576 133.107611 
L 155.597576 133.107611 
L 159.926303 131.417574 
L 159.926303 131.417574 
L 167.621818 128.69569 
L 177.241212 125.600935 
L 177.241212 125.600935 
L 192.151273 120.820719 
L 192.151273 120.820719 
L 200.327758 117.959203 
L 200.327758 117.959203 
L 210.428121 114.125213 
L 210.428121 114.125213 
L 229.666909 106.544264 
L 229.666909 106.544264 
L 234.957576 104.640415 
L 234.957576 104.640415 
L 242.653091 102.21461 
L 242.653091 102.21461 
L 248.424727 100.74312 
L 248.424727 100.74312 
L 253.715394 99.701402 
L 253.715394 99.701402 
L 258.044121 99.082135 
L 258.044121 99.082135 
L 263.815758 98.584692 
L 263.815758 98.584692 
L 265.739636 98.499396 
L 273.435152 98.518349 
L 273.435152 98.518349 
L 281.130667 98.988341 
L 281.130667 98.988341 
L 298.445576 100.445771 
L 298.445576 100.445771 
L 304.217212 100.63506 
L 304.217212 100.63506 
L 306.141091 100.6296 
L 323.456 98.592134 
L 323.456 98.592134 
L 327.784727 97.519038 
L 349.909333 91.012597 
L 349.909333 91.012597 
L 350.390303 90.906431 
L 373.476848 91.756192 
L 373.476848 91.756192 
L 373.957818 91.888855 
L 398.487273 81.719357 
L 398.487273 81.719357 
" clip-path="url(#p5449768bef)" style="fill: none; stroke: #9467bd; stroke-width: 1.5; stroke-linecap: square"/>
   </g>
   <g id="line2d_20">
    <path d="M 73.832727 251.692413 
L 75.756606 239.693185 
L 75.756606 239.693185 
L 77.680485 229.144799 
L 77.680485 229.144799 
L 79.604364 219.874046 
L 79.604364 219.874046 
L 81.528242 211.724766 
L 81.528242 211.724766 
L 83.452121 204.556547 
L 83.452121 204.556547 
L 85.376 198.243502 
L 85.376 198.243502 
L 86.818909 194.001764 
L 86.818909 194.001764 
L 89.223758 187.74511 
L 89.223758 187.74511 
L 90.666667 184.416758 
L 90.666667 184.416758 
L 92.590545 180.405048 
L 92.590545 180.405048 
L 94.995394 175.976151 
L 94.995394 175.976151 
L 97.881212 171.363763 
L 97.881212 171.363763 
L 100.286061 167.987889 
L 100.286061 167.987889 
L 102.209939 165.533221 
L 102.209939 165.533221 
L 104.614788 162.714447 
L 104.614788 162.714447 
L 107.981576 159.133927 
L 107.981576 159.133927 
L 112.310303 154.985494 
L 117.12 150.783008 
L 117.12 150.783008 
L 123.372606 145.744209 
L 123.372606 145.744209 
L 128.663273 141.765914 
L 128.663273 141.765914 
L 133.47297 138.362178 
L 133.47297 138.362178 
L 138.282667 135.175234 
L 138.282667 135.175234 
L 144.054303 131.668051 
L 144.054303 131.668051 
L 150.306909 128.296007 
L 150.306909 128.296007 
L 154.635636 126.233724 
L 158.002424 124.783263 
L 158.002424 124.783263 
L 163.293091 122.764065 
L 163.293091 122.764065 
L 167.621818 121.329984 
L 173.874424 119.554213 
L 173.874424 119.554213 
L 181.569939 117.729761 
L 181.569939 117.729761 
L 192.151273 115.557247 
L 192.151273 115.557247 
L 204.656485 112.955836 
L 204.656485 112.955836 
L 212.352 111.136266 
L 221.490424 108.691192 
L 221.490424 108.691192 
L 229.666909 106.281779 
L 229.666909 106.281779 
L 248.424727 100.585612 
L 248.424727 100.585612 
L 258.044121 98.010858 
L 258.044121 98.010858 
L 265.739636 96.298449 
L 273.435152 94.942405 
L 273.435152 94.942405 
L 281.130667 93.923554 
L 281.130667 93.923554 
L 285.459394 93.470102 
L 306.141091 91.587476 
L 323.456 88.570124 
L 323.456 88.570124 
L 327.784727 87.420448 
L 350.390303 79.649085 
L 373.476848 76.109013 
L 373.476848 76.109013 
L 373.957818 76.177381 
L 398.487273 86.055533 
L 398.487273 86.055533 
" clip-path="url(#p5449768bef)" style="fill: none; stroke: #8c564b; stroke-width: 1.5; stroke-linecap: square"/>
   </g>
   <g id="line2d_21">
    <path d="M 73.832727 255.207386 
L 75.756606 242.370924 
L 75.756606 242.370924 
L 77.680485 231.079046 
L 77.680485 231.079046 
L 79.604364 221.143077 
L 79.604364 221.143077 
L 81.528242 212.393921 
L 81.528242 212.393921 
L 83.452121 204.680466 
L 83.452121 204.680466 
L 85.376 197.868089 
L 85.376 197.868089 
L 86.818909 193.277697 
L 86.818909 193.277697 
L 89.223758 186.482164 
L 89.223758 186.482164 
L 90.666667 182.852789 
L 90.666667 182.852789 
L 92.590545 178.462808 
L 92.590545 178.462808 
L 94.995394 173.594888 
L 94.995394 173.594888 
L 97.881212 168.501433 
L 97.881212 168.501433 
L 100.286061 164.761116 
L 100.286061 164.761116 
L 102.209939 162.038509 
L 102.209939 162.038509 
L 104.614788 158.914708 
L 104.614788 158.914708 
L 107.981576 154.964658 
L 107.981576 154.964658 
L 111.829333 150.920931 
L 111.829333 150.920931 
L 115.677091 147.262763 
L 115.677091 147.262763 
L 119.524848 143.911207 
L 119.524848 143.911207 
L 123.853576 140.449436 
L 123.853576 140.449436 
L 128.663273 136.947071 
L 128.663273 136.947071 
L 131.549091 135.011419 
L 136.839758 131.780253 
L 136.839758 131.780253 
L 140.687515 129.686422 
L 140.687515 129.686422 
L 144.054303 128.028365 
L 144.054303 128.028365 
L 148.38303 126.127268 
L 148.38303 126.127268 
L 152.711758 124.47003 
L 152.711758 124.47003 
L 158.002424 122.739641 
L 158.002424 122.739641 
L 164.25503 121.035661 
L 164.25503 121.035661 
L 169.545697 119.799095 
L 169.545697 119.799095 
L 188.784485 115.617907 
L 188.784485 115.617907 
L 196.48 113.582771 
L 200.327758 112.420758 
L 200.327758 112.420758 
L 208.023273 109.789316 
L 208.023273 109.789316 
L 212.352 108.140705 
L 221.490424 104.361911 
L 221.490424 104.361911 
L 239.286303 96.814409 
L 239.286303 96.814409 
L 246.500848 94.145556 
L 246.500848 94.145556 
L 248.424727 93.504748 
L 248.424727 93.504748 
L 253.715394 91.924241 
L 253.715394 91.924241 
L 258.044121 90.845458 
L 258.044121 90.845458 
L 263.815758 89.720813 
L 263.815758 89.720813 
L 265.739636 89.424792 
L 273.435152 88.603085 
L 273.435152 88.603085 
L 281.130667 88.24944 
L 281.130667 88.24944 
L 301.812364 87.778699 
L 301.812364 87.778699 
L 306.141091 87.409752 
L 323.456 83.854395 
L 323.456 83.854395 
L 327.784727 82.449016 
L 348.466424 75.388889 
L 348.466424 75.388889 
L 350.390303 74.956682 
L 373.476848 78.334956 
L 373.476848 78.334956 
L 373.957818 78.576493 
L 398.487273 76.341454 
L 398.487273 76.341454 
" clip-path="url(#p5449768bef)" style="fill: none; stroke: #e377c2; stroke-width: 1.5; stroke-linecap: square"/>
   </g>
   <g id="line2d_22">
    <path d="M 73.832727 244.616008 
L 75.756606 233.476374 
L 75.756606 233.476374 
L 77.680485 223.510708 
L 77.680485 223.510708 
L 79.604364 214.598975 
L 79.604364 214.598975 
L 81.528242 206.631657 
L 81.528242 206.631657 
L 83.452121 199.508997 
L 83.452121 199.508997 
L 85.376 193.140278 
L 85.376 193.140278 
L 86.818909 188.808683 
L 86.818909 188.808683 
L 89.223758 182.343028 
L 89.223758 182.343028 
L 90.666667 178.868865 
L 90.666667 178.868865 
L 92.590545 174.655095 
L 92.590545 174.655095 
L 94.995394 169.98224 
L 94.995394 169.98224 
L 97.881212 165.119395 
L 97.881212 165.119395 
L 100.286061 161.588906 
L 100.286061 161.588906 
L 102.209939 159.053551 
L 102.209939 159.053551 
L 104.614788 156.192603 
L 104.614788 156.192603 
L 107.981576 152.665815 
L 107.981576 152.665815 
L 110.386424 150.425904 
L 110.386424 150.425904 
L 114.234182 147.22133 
L 114.234182 147.22133 
L 117.12 145.059486 
L 117.12 145.059486 
L 121.448727 142.106001 
L 127.220364 138.550107 
L 127.220364 138.550107 
L 133.47297 135.016228 
L 133.47297 135.016228 
L 140.687515 131.191764 
L 140.687515 131.191764 
L 150.787879 126.121474 
L 150.787879 126.121474 
L 159.926303 121.740443 
L 159.926303 121.740443 
L 172.912485 115.801574 
L 172.912485 115.801574 
L 184.455758 110.78892 
L 184.455758 110.78892 
L 196.48 105.840712 
L 205.618424 102.295659 
L 205.618424 102.295659 
L 212.352 99.829185 
L 221.490424 96.723794 
L 221.490424 96.723794 
L 229.666909 94.226549 
L 229.666909 94.226549 
L 239.286303 91.682153 
L 239.286303 91.682153 
L 246.981818 89.976726 
L 253.715394 88.726102 
L 253.715394 88.726102 
L 261.410909 87.554768 
L 261.410909 87.554768 
L 265.739636 87.003175 
L 277.763879 85.781263 
L 277.763879 85.781263 
L 285.459394 85.154074 
L 306.141091 83.643738 
L 325.860848 82.73091 
L 325.860848 82.73091 
L 327.784727 82.737975 
L 348.466424 85.165341 
L 348.466424 85.165341 
L 350.390303 85.652937 
L 373.957818 92.055078 
L 398.487273 53.568 
L 398.487273 53.568 
" clip-path="url(#p5449768bef)" style="fill: none; stroke: #7f7f7f; stroke-width: 1.5; stroke-linecap: square"/>
   </g>
   <g id="line2d_23">
    <path d="M 73.832727 245.743386 
L 75.756606 234.082346 
L 75.756606 234.082346 
L 77.680485 223.565007 
L 77.680485 223.565007 
L 79.604364 214.090337 
L 79.604364 214.090337 
L 81.528242 205.56427 
L 81.528242 205.56427 
L 83.452121 197.89935 
L 83.452121 197.89935 
L 85.376 191.014395 
L 85.376 191.014395 
L 86.818909 186.317057 
L 86.818909 186.317057 
L 89.223758 179.289059 
L 89.223758 179.289059 
L 90.666667 175.50816 
L 90.666667 175.50816 
L 92.590545 170.922856 
L 92.590545 170.922856 
L 94.995394 165.846448 
L 94.995394 165.846448 
L 97.881212 160.586706 
L 97.881212 160.586706 
L 100.286061 156.794137 
L 100.286061 156.794137 
L 102.209939 154.090392 
L 102.209939 154.090392 
L 104.614788 151.065339 
L 104.614788 151.065339 
L 107.981576 147.383014 
L 107.981576 147.383014 
L 110.386424 145.075177 
L 110.386424 145.075177 
L 113.753212 142.199214 
L 113.753212 142.199214 
L 117.12 139.644205 
L 117.12 139.644205 
L 121.448727 136.697155 
L 127.220364 133.147484 
L 127.220364 133.147484 
L 134.915879 128.76559 
L 134.915879 128.76559 
L 146.940121 122.236326 
L 146.940121 122.236326 
L 155.597576 117.719468 
L 155.597576 117.719468 
L 163.293091 113.931078 
L 163.293091 113.931078 
L 169.545697 111.086648 
L 169.545697 111.086648 
L 173.874424 109.26993 
L 173.874424 109.26993 
L 181.08897 106.558012 
L 181.08897 106.558012 
L 184.455758 105.435847 
L 184.455758 105.435847 
L 192.151273 103.218108 
L 192.151273 103.218108 
L 198.403879 101.755578 
L 198.403879 101.755578 
L 204.656485 100.561056 
L 204.656485 100.561056 
L 211.87103 99.44904 
L 211.87103 99.44904 
L 217.161697 98.761779 
L 217.161697 98.761779 
L 239.286303 96.059877 
L 239.286303 96.059877 
L 246.981818 94.82857 
L 253.715394 93.510318 
L 253.715394 93.510318 
L 261.410909 91.691905 
L 261.410909 91.691905 
L 265.739636 90.521174 
L 277.763879 86.776286 
L 277.763879 86.776286 
L 285.459394 84.104867 
L 304.217212 77.540174 
L 304.217212 77.540174 
L 306.141091 76.921881 
L 323.456 72.453235 
L 323.456 72.453235 
L 327.784727 71.72789 
L 348.466424 70.707019 
L 348.466424 70.707019 
L 350.390303 70.796563 
L 373.957818 73.007323 
L 398.487273 74.038741 
L 398.487273 74.038741 
" clip-path="url(#p5449768bef)" style="fill: none; stroke: #bcbd22; stroke-width: 1.5; stroke-linecap: square"/>
   </g>
   <g id="line2d_24">
    <path d="M 73.832727 245.113187 
L 75.756606 232.547667 
L 75.756606 232.547667 
L 77.680485 221.417202 
L 77.680485 221.417202 
L 79.604364 211.562804 
L 79.604364 211.562804 
L 81.528242 202.840571 
L 81.528242 202.840571 
L 83.452121 195.120521 
L 83.452121 195.120521 
L 85.376 188.285501 
L 85.376 188.285501 
L 86.818909 183.676241 
L 86.818909 183.676241 
L 89.223758 176.859952 
L 89.223758 176.859952 
L 90.666667 173.230693 
L 90.666667 173.230693 
L 92.590545 168.861443 
L 92.590545 168.861443 
L 94.995394 164.058927 
L 94.995394 164.058927 
L 97.881212 159.108554 
L 97.881212 159.108554 
L 100.286061 155.542994 
L 100.286061 155.542994 
L 102.209939 152.995425 
L 102.209939 152.995425 
L 104.614788 150.131171 
L 104.614788 150.131171 
L 107.981576 146.610129 
L 107.981576 146.610129 
L 110.386424 144.375641 
L 110.386424 144.375641 
L 114.234182 141.17528 
L 114.234182 141.17528 
L 117.12 139.011198 
L 117.12 139.011198 
L 121.448727 136.047061 
L 121.448727 136.047061 
L 127.220364 132.474119 
L 127.220364 132.474119 
L 133.47297 128.940739 
L 133.47297 128.940739 
L 140.687515 125.172274 
L 140.687515 125.172274 
L 148.38303 121.43283 
L 148.38303 121.43283 
L 157.521455 117.293434 
L 157.521455 117.293434 
L 167.140848 113.205963 
L 167.140848 113.205963 
L 179.646061 108.150141 
L 179.646061 108.150141 
L 198.403879 100.82981 
L 198.403879 100.82981 
L 210.428121 96.367127 
L 210.428121 96.367127 
L 217.161697 94.048075 
L 217.161697 94.048075 
L 224.857212 91.650661 
L 224.857212 91.650661 
L 229.666909 90.327442 
L 229.666909 90.327442 
L 234.957576 89.054677 
L 234.957576 89.054677 
L 242.653091 87.579303 
L 242.653091 87.579303 
L 248.424727 86.774788 
L 248.424727 86.774788 
L 253.715394 86.254653 
L 253.715394 86.254653 
L 261.410909 85.815272 
L 261.410909 85.815272 
L 265.739636 85.69158 
L 265.739636 85.69158 
L 281.130667 85.405774 
L 281.130667 85.405774 
L 285.459394 85.199581 
L 285.459394 85.199581 
L 298.445576 83.634527 
L 298.445576 83.634527 
L 304.217212 82.322507 
L 304.217212 82.322507 
L 306.141091 81.789483 
L 306.141091 81.789483 
L 323.456 75.06691 
L 323.456 75.06691 
L 327.784727 73.047178 
L 327.784727 73.047178 
L 348.466424 65.759592 
L 348.466424 65.759592 
L 350.390303 65.597537 
L 350.390303 65.597537 
L 373.476848 76.138166 
L 373.476848 76.138166 
L 373.957818 76.590559 
L 373.957818 76.590559 
L 398.487273 85.926635 
L 398.487273 85.926635 
" clip-path="url(#p5449768bef)" style="fill: none; stroke: #17becf; stroke-width: 1.5; stroke-linecap: square"/>
   </g>
   <g id="line2d_25">
    <path d="M 73.832727 247.334669 
L 75.756606 232.980907 
L 75.756606 232.980907 
L 77.680485 220.491272 
L 77.680485 220.491272 
L 79.604364 209.648077 
L 79.604364 209.648077 
L 81.528242 200.253452 
L 81.528242 200.253452 
L 83.452121 192.127992 
L 83.452121 192.127992 
L 85.376 185.109459 
L 85.376 185.109459 
L 86.818909 180.483409 
L 86.818909 180.483409 
L 89.223758 173.822783 
L 89.223758 173.822783 
L 90.666667 170.373946 
L 90.666667 170.373946 
L 92.590545 166.320247 
L 92.590545 166.320247 
L 94.995394 161.995105 
L 94.995394 161.995105 
L 96.919273 159.026049 
L 96.919273 159.026049 
L 98.362182 157.037047 
L 98.362182 157.037047 
L 100.76703 154.094379 
L 100.76703 154.094379 
L 103.652848 151.044595 
L 103.652848 151.044595 
L 106.538667 148.373145 
L 106.538667 148.373145 
L 110.386424 145.189426 
L 110.386424 145.189426 
L 115.677091 141.16776 
L 115.677091 141.16776 
L 128.663273 131.438269 
L 128.663273 131.438269 
L 148.38303 116.338613 
L 148.38303 116.338613 
L 154.154667 112.363824 
L 154.154667 112.363824 
L 158.002424 109.938829 
L 158.002424 109.938829 
L 159.926303 108.803063 
L 159.926303 108.803063 
L 165.697939 105.726598 
L 165.697939 105.726598 
L 169.545697 103.961095 
L 169.545697 103.961095 
L 173.874424 102.24738 
L 173.874424 102.24738 
L 179.646061 100.388065 
L 179.646061 100.388065 
L 184.455758 99.171627 
L 184.455758 99.171627 
L 188.784485 98.294762 
L 188.784485 98.294762 
L 195.99903 97.177793 
L 195.99903 97.177793 
L 204.656485 96.152018 
L 204.656485 96.152018 
L 212.352 95.26265 
L 212.352 95.26265 
L 221.490424 93.937083 
L 221.490424 93.937083 
L 227.262061 92.845168 
L 227.262061 92.845168 
L 229.666909 92.321293 
L 229.666909 92.321293 
L 234.957576 91.020663 
L 234.957576 91.020663 
L 242.653091 88.781149 
L 242.653091 88.781149 
L 248.424727 86.873685 
L 248.424727 86.873685 
L 273.435152 78.08533 
L 273.435152 78.08533 
L 281.130667 75.919886 
L 281.130667 75.919886 
L 285.459394 74.947753 
L 285.459394 74.947753 
L 298.445576 73.340207 
L 298.445576 73.340207 
L 304.217212 73.297795 
L 304.217212 73.297795 
L 306.141091 73.372931 
L 306.141091 73.372931 
L 323.456 75.650097 
L 323.456 75.650097 
L 327.784727 76.498271 
L 327.784727 76.498271 
L 348.466424 79.757153 
L 348.466424 79.757153 
L 350.390303 79.858553 
L 350.390303 79.858553 
L 373.957818 76.09525 
L 373.957818 76.09525 
L 398.487273 64.650914 
L 398.487273 64.650914 
" clip-path="url(#p5449768bef)" style="fill: none; stroke: #1f77b4; stroke-width: 1.5; stroke-linecap: square"/>
   </g>
   <g id="patch_3">
    <path d="M 57.6 307.584 
L 57.6 41.472 
" style="fill: none; stroke: #000000; stroke-width: 0.8; stroke-linejoin: miter; stroke-linecap: square"/>
   </g>
   <g id="patch_4">
    <path d="M 414.72 307.584 
L 414.72 41.472 
" style="fill: none; stroke: #000000; stroke-width: 0.8; stroke-linejoin: miter; stroke-linecap: square"/>
   </g>
   <g id="patch_5">
    <path d="M 57.6 307.584 
L 414.72 307.584 
" style="fill: none; stroke: #000000; stroke-width: 0.8; stroke-linejoin: miter; stroke-linecap: square"/>
   </g>
   <g id="patch_6">
    <path d="M 57.6 41.472 
L 414.72 41.472 
" style="fill: none; stroke: #000000; stroke-width: 0.8; stroke-linejoin: miter; stroke-linecap: square"/>
   </g>
   <g id="text_17">
    <!-- QBER influence on mean number of required repetitions of TPM with L=4 -->
    <g transform="translate(16.7025 35.472)scale(0.12 -0.12)">
     <defs>
      <path id="DejaVuSans-51" d="M 2522 4238 
Q 1834 4238 1429 3725 
Q 1025 3213 1025 2328 
Q 1025 1447 1429 934 
Q 1834 422 2522 422 
Q 3209 422 3611 934 
Q 4013 1447 4013 2328 
Q 4013 3213 3611 3725 
Q 3209 4238 2522 4238 
z
M 3406 84 
L 4238 -825 
L 3475 -825 
L 2784 -78 
Q 2681 -84 2626 -87 
Q 2572 -91 2522 -91 
Q 1538 -91 948 567 
Q 359 1225 359 2328 
Q 359 3434 948 4092 
Q 1538 4750 2522 4750 
Q 3503 4750 4090 4092 
Q 4678 3434 4678 2328 
Q 4678 1516 4351 937 
Q 4025 359 3406 84 
z
" transform="scale(0.015625)"/>
      <path id="DejaVuSans-42" d="M 1259 2228 
L 1259 519 
L 2272 519 
Q 2781 519 3026 730 
Q 3272 941 3272 1375 
Q 3272 1813 3026 2020 
Q 2781 2228 2272 2228 
L 1259 2228 
z
M 1259 4147 
L 1259 2741 
L 2194 2741 
Q 2656 2741 2882 2914 
Q 3109 3088 3109 3444 
Q 3109 3797 2882 3972 
Q 2656 4147 2194 4147 
L 1259 4147 
z
M 628 4666 
L 2241 4666 
Q 2963 4666 3353 4366 
Q 3744 4066 3744 3513 
Q 3744 3084 3544 2831 
Q 3344 2578 2956 2516 
Q 3422 2416 3680 2098 
Q 3938 1781 3938 1306 
Q 3938 681 3513 340 
Q 3088 0 2303 0 
L 628 0 
L 628 4666 
z
" transform="scale(0.015625)"/>
      <path id="DejaVuSans-45" d="M 628 4666 
L 3578 4666 
L 3578 4134 
L 1259 4134 
L 1259 2753 
L 3481 2753 
L 3481 2222 
L 1259 2222 
L 1259 531 
L 3634 531 
L 3634 0 
L 628 0 
L 628 4666 
z
" transform="scale(0.015625)"/>
      <path id="DejaVuSans-52" d="M 2841 2188 
Q 3044 2119 3236 1894 
Q 3428 1669 3622 1275 
L 4263 0 
L 3584 0 
L 2988 1197 
Q 2756 1666 2539 1819 
Q 2322 1972 1947 1972 
L 1259 1972 
L 1259 0 
L 628 0 
L 628 4666 
L 2053 4666 
Q 2853 4666 3247 4331 
Q 3641 3997 3641 3322 
Q 3641 2881 3436 2590 
Q 3231 2300 2841 2188 
z
M 1259 4147 
L 1259 2491 
L 2053 2491 
Q 2509 2491 2742 2702 
Q 2975 2913 2975 3322 
Q 2975 3731 2742 3939 
Q 2509 4147 2053 4147 
L 1259 4147 
z
" transform="scale(0.015625)"/>
      <path id="DejaVuSans-63" d="M 3122 3366 
L 3122 2828 
Q 2878 2963 2633 3030 
Q 2388 3097 2138 3097 
Q 1578 3097 1268 2742 
Q 959 2388 959 1747 
Q 959 1106 1268 751 
Q 1578 397 2138 397 
Q 2388 397 2633 464 
Q 2878 531 3122 666 
L 3122 134 
Q 2881 22 2623 -34 
Q 2366 -91 2075 -91 
Q 1284 -91 818 406 
Q 353 903 353 1747 
Q 353 2603 823 3093 
Q 1294 3584 2113 3584 
Q 2378 3584 2631 3529 
Q 2884 3475 3122 3366 
z
" transform="scale(0.015625)"/>
      <path id="DejaVuSans-77" d="M 269 3500 
L 844 3500 
L 1563 769 
L 2278 3500 
L 2956 3500 
L 3675 769 
L 4391 3500 
L 4966 3500 
L 4050 0 
L 3372 0 
L 2619 2869 
L 1863 0 
L 1184 0 
L 269 3500 
z
" transform="scale(0.015625)"/>
      <path id="DejaVuSans-4c" d="M 628 4666 
L 1259 4666 
L 1259 531 
L 3531 531 
L 3531 0 
L 628 0 
L 628 4666 
z
" transform="scale(0.015625)"/>
      <path id="DejaVuSans-3d" d="M 678 2906 
L 4684 2906 
L 4684 2381 
L 678 2381 
L 678 2906 
z
M 678 1631 
L 4684 1631 
L 4684 1100 
L 678 1100 
L 678 1631 
z
" transform="scale(0.015625)"/>
      <path id="DejaVuSans-34" d="M 2419 4116 
L 825 1625 
L 2419 1625 
L 2419 4116 
z
M 2253 4666 
L 3047 4666 
L 3047 1625 
L 3713 1625 
L 3713 1100 
L 3047 1100 
L 3047 0 
L 2419 0 
L 2419 1100 
L 313 1100 
L 313 1709 
L 2253 4666 
z
" transform="scale(0.015625)"/>
     </defs>
     <use xlink:href="#DejaVuSans-51"/>
     <use xlink:href="#DejaVuSans-42" x="78.710938"/>
     <use xlink:href="#DejaVuSans-45" x="147.314453"/>
     <use xlink:href="#DejaVuSans-52" x="210.498047"/>
     <use xlink:href="#DejaVuSans-20" x="279.980469"/>
     <use xlink:href="#DejaVuSans-69" x="311.767578"/>
     <use xlink:href="#DejaVuSans-6e" x="339.550781"/>
     <use xlink:href="#DejaVuSans-66" x="402.929688"/>
     <use xlink:href="#DejaVuSans-6c" x="438.134766"/>
     <use xlink:href="#DejaVuSans-75" x="465.917969"/>
     <use xlink:href="#DejaVuSans-65" x="529.296875"/>
     <use xlink:href="#DejaVuSans-6e" x="590.820312"/>
     <use xlink:href="#DejaVuSans-63" x="654.199219"/>
     <use xlink:href="#DejaVuSans-65" x="709.179688"/>
     <use xlink:href="#DejaVuSans-20" x="770.703125"/>
     <use xlink:href="#DejaVuSans-6f" x="802.490234"/>
     <use xlink:href="#DejaVuSans-6e" x="863.671875"/>
     <use xlink:href="#DejaVuSans-20" x="927.050781"/>
     <use xlink:href="#DejaVuSans-6d" x="958.837891"/>
     <use xlink:href="#DejaVuSans-65" x="1056.25"/>
     <use xlink:href="#DejaVuSans-61" x="1117.773438"/>
     <use xlink:href="#DejaVuSans-6e" x="1179.052734"/>
     <use xlink:href="#DejaVuSans-20" x="1242.431641"/>
     <use xlink:href="#DejaVuSans-6e" x="1274.21875"/>
     <use xlink:href="#DejaVuSans-75" x="1337.597656"/>
     <use xlink:href="#DejaVuSans-6d" x="1400.976562"/>
     <use xlink:href="#DejaVuSans-62" x="1498.388672"/>
     <use xlink:href="#DejaVuSans-65" x="1561.865234"/>
     <use xlink:href="#DejaVuSans-72" x="1623.388672"/>
     <use xlink:href="#DejaVuSans-20" x="1664.501953"/>
     <use xlink:href="#DejaVuSans-6f" x="1696.289062"/>
     <use xlink:href="#DejaVuSans-66" x="1757.470703"/>
     <use xlink:href="#DejaVuSans-20" x="1792.675781"/>
     <use xlink:href="#DejaVuSans-72" x="1824.462891"/>
     <use xlink:href="#DejaVuSans-65" x="1863.326172"/>
     <use xlink:href="#DejaVuSans-71" x="1924.849609"/>
     <use xlink:href="#DejaVuSans-75" x="1988.326172"/>
     <use xlink:href="#DejaVuSans-69" x="2051.705078"/>
     <use xlink:href="#DejaVuSans-72" x="2079.488281"/>
     <use xlink:href="#DejaVuSans-65" x="2118.351562"/>
     <use xlink:href="#DejaVuSans-64" x="2179.875"/>
     <use xlink:href="#DejaVuSans-20" x="2243.351562"/>
     <use xlink:href="#DejaVuSans-72" x="2275.138672"/>
     <use xlink:href="#DejaVuSans-65" x="2314.001953"/>
     <use xlink:href="#DejaVuSans-70" x="2375.525391"/>
     <use xlink:href="#DejaVuSans-65" x="2439.001953"/>
     <use xlink:href="#DejaVuSans-74" x="2500.525391"/>
     <use xlink:href="#DejaVuSans-69" x="2539.734375"/>
     <use xlink:href="#DejaVuSans-74" x="2567.517578"/>
     <use xlink:href="#DejaVuSans-69" x="2606.726562"/>
     <use xlink:href="#DejaVuSans-6f" x="2634.509766"/>
     <use xlink:href="#DejaVuSans-6e" x="2695.691406"/>
     <use xlink:href="#DejaVuSans-73" x="2759.070312"/>
     <use xlink:href="#DejaVuSans-20" x="2811.169922"/>
     <use xlink:href="#DejaVuSans-6f" x="2842.957031"/>
     <use xlink:href="#DejaVuSans-66" x="2904.138672"/>
     <use xlink:href="#DejaVuSans-20" x="2939.34375"/>
     <use xlink:href="#DejaVuSans-54" x="2971.130859"/>
     <use xlink:href="#DejaVuSans-50" x="3032.214844"/>
     <use xlink:href="#DejaVuSans-4d" x="3092.517578"/>
     <use xlink:href="#DejaVuSans-20" x="3178.796875"/>
     <use xlink:href="#DejaVuSans-77" x="3210.583984"/>
     <use xlink:href="#DejaVuSans-69" x="3292.371094"/>
     <use xlink:href="#DejaVuSans-74" x="3320.154297"/>
     <use xlink:href="#DejaVuSans-68" x="3359.363281"/>
     <use xlink:href="#DejaVuSans-20" x="3422.742188"/>
     <use xlink:href="#DejaVuSans-4c" x="3454.529297"/>
     <use xlink:href="#DejaVuSans-3d" x="3510.242188"/>
     <use xlink:href="#DejaVuSans-34" x="3594.03125"/>
    </g>
   </g>
   <g id="legend_1">
    <g id="patch_7">
     <path d="M 328.760625 302.584 
L 407.72 302.584 
Q 409.72 302.584 409.72 300.584 
L 409.72 140.124625 
Q 409.72 138.124625 407.72 138.124625 
L 328.760625 138.124625 
Q 326.760625 138.124625 326.760625 140.124625 
L 326.760625 300.584 
Q 326.760625 302.584 328.760625 302.584 
z
" style="fill: #ffffff; opacity: 0.8; stroke: #cccccc; stroke-linejoin: miter"/>
    </g>
    <g id="line2d_26">
     <path d="M 330.760625 146.223062 
L 340.760625 146.223062 
L 350.760625 146.223062 
" style="fill: none; stroke: #1f77b4; stroke-width: 1.5; stroke-linecap: square"/>
    </g>
    <g id="text_18">
     <!-- QBER: 1 -->
     <g transform="translate(358.760625 149.723062)scale(0.1 -0.1)">
      <defs>
       <path id="DejaVuSans-3a" d="M 750 794 
L 1409 794 
L 1409 0 
L 750 0 
L 750 794 
z
M 750 3309 
L 1409 3309 
L 1409 2516 
L 750 2516 
L 750 3309 
z
" transform="scale(0.015625)"/>
      </defs>
      <use xlink:href="#DejaVuSans-51"/>
      <use xlink:href="#DejaVuSans-42" x="78.710938"/>
      <use xlink:href="#DejaVuSans-45" x="147.314453"/>
      <use xlink:href="#DejaVuSans-52" x="210.498047"/>
      <use xlink:href="#DejaVuSans-3a" x="276.855469"/>
      <use xlink:href="#DejaVuSans-20" x="310.546875"/>
      <use xlink:href="#DejaVuSans-31" x="342.333984"/>
     </g>
    </g>
    <g id="line2d_27">
     <path d="M 330.760625 160.901188 
L 340.760625 160.901188 
L 350.760625 160.901188 
" style="fill: none; stroke: #ff7f0e; stroke-width: 1.5; stroke-linecap: square"/>
    </g>
    <g id="text_19">
     <!-- QBER: 2 -->
     <g transform="translate(358.760625 164.401188)scale(0.1 -0.1)">
      <use xlink:href="#DejaVuSans-51"/>
      <use xlink:href="#DejaVuSans-42" x="78.710938"/>
      <use xlink:href="#DejaVuSans-45" x="147.314453"/>
      <use xlink:href="#DejaVuSans-52" x="210.498047"/>
      <use xlink:href="#DejaVuSans-3a" x="276.855469"/>
      <use xlink:href="#DejaVuSans-20" x="310.546875"/>
      <use xlink:href="#DejaVuSans-32" x="342.333984"/>
     </g>
    </g>
    <g id="line2d_28">
     <path d="M 330.760625 175.579313 
L 340.760625 175.579313 
L 350.760625 175.579313 
" style="fill: none; stroke: #2ca02c; stroke-width: 1.5; stroke-linecap: square"/>
    </g>
    <g id="text_20">
     <!-- QBER: 3 -->
     <g transform="translate(358.760625 179.079313)scale(0.1 -0.1)">
      <defs>
       <path id="DejaVuSans-33" d="M 2597 2516 
Q 3050 2419 3304 2112 
Q 3559 1806 3559 1356 
Q 3559 666 3084 287 
Q 2609 -91 1734 -91 
Q 1441 -91 1130 -33 
Q 819 25 488 141 
L 488 750 
Q 750 597 1062 519 
Q 1375 441 1716 441 
Q 2309 441 2620 675 
Q 2931 909 2931 1356 
Q 2931 1769 2642 2001 
Q 2353 2234 1838 2234 
L 1294 2234 
L 1294 2753 
L 1863 2753 
Q 2328 2753 2575 2939 
Q 2822 3125 2822 3475 
Q 2822 3834 2567 4026 
Q 2313 4219 1838 4219 
Q 1578 4219 1281 4162 
Q 984 4106 628 3988 
L 628 4550 
Q 988 4650 1302 4700 
Q 1616 4750 1894 4750 
Q 2613 4750 3031 4423 
Q 3450 4097 3450 3541 
Q 3450 3153 3228 2886 
Q 3006 2619 2597 2516 
z
" transform="scale(0.015625)"/>
      </defs>
      <use xlink:href="#DejaVuSans-51"/>
      <use xlink:href="#DejaVuSans-42" x="78.710938"/>
      <use xlink:href="#DejaVuSans-45" x="147.314453"/>
      <use xlink:href="#DejaVuSans-52" x="210.498047"/>
      <use xlink:href="#DejaVuSans-3a" x="276.855469"/>
      <use xlink:href="#DejaVuSans-20" x="310.546875"/>
      <use xlink:href="#DejaVuSans-33" x="342.333984"/>
     </g>
    </g>
    <g id="line2d_29">
     <path d="M 330.760625 190.257438 
L 340.760625 190.257438 
L 350.760625 190.257438 
" style="fill: none; stroke: #d62728; stroke-width: 1.5; stroke-linecap: square"/>
    </g>
    <g id="text_21">
     <!-- QBER: 4 -->
     <g transform="translate(358.760625 193.757438)scale(0.1 -0.1)">
      <use xlink:href="#DejaVuSans-51"/>
      <use xlink:href="#DejaVuSans-42" x="78.710938"/>
      <use xlink:href="#DejaVuSans-45" x="147.314453"/>
      <use xlink:href="#DejaVuSans-52" x="210.498047"/>
      <use xlink:href="#DejaVuSans-3a" x="276.855469"/>
      <use xlink:href="#DejaVuSans-20" x="310.546875"/>
      <use xlink:href="#DejaVuSans-34" x="342.333984"/>
     </g>
    </g>
    <g id="line2d_30">
     <path d="M 330.760625 204.935563 
L 340.760625 204.935563 
L 350.760625 204.935563 
" style="fill: none; stroke: #9467bd; stroke-width: 1.5; stroke-linecap: square"/>
    </g>
    <g id="text_22">
     <!-- QBER: 5 -->
     <g transform="translate(358.760625 208.435563)scale(0.1 -0.1)">
      <use xlink:href="#DejaVuSans-51"/>
      <use xlink:href="#DejaVuSans-42" x="78.710938"/>
      <use xlink:href="#DejaVuSans-45" x="147.314453"/>
      <use xlink:href="#DejaVuSans-52" x="210.498047"/>
      <use xlink:href="#DejaVuSans-3a" x="276.855469"/>
      <use xlink:href="#DejaVuSans-20" x="310.546875"/>
      <use xlink:href="#DejaVuSans-35" x="342.333984"/>
     </g>
    </g>
    <g id="line2d_31">
     <path d="M 330.760625 219.613688 
L 340.760625 219.613688 
L 350.760625 219.613688 
" style="fill: none; stroke: #8c564b; stroke-width: 1.5; stroke-linecap: square"/>
    </g>
    <g id="text_23">
     <!-- QBER: 6 -->
     <g transform="translate(358.760625 223.113688)scale(0.1 -0.1)">
      <defs>
       <path id="DejaVuSans-36" d="M 2113 2584 
Q 1688 2584 1439 2293 
Q 1191 2003 1191 1497 
Q 1191 994 1439 701 
Q 1688 409 2113 409 
Q 2538 409 2786 701 
Q 3034 994 3034 1497 
Q 3034 2003 2786 2293 
Q 2538 2584 2113 2584 
z
M 3366 4563 
L 3366 3988 
Q 3128 4100 2886 4159 
Q 2644 4219 2406 4219 
Q 1781 4219 1451 3797 
Q 1122 3375 1075 2522 
Q 1259 2794 1537 2939 
Q 1816 3084 2150 3084 
Q 2853 3084 3261 2657 
Q 3669 2231 3669 1497 
Q 3669 778 3244 343 
Q 2819 -91 2113 -91 
Q 1303 -91 875 529 
Q 447 1150 447 2328 
Q 447 3434 972 4092 
Q 1497 4750 2381 4750 
Q 2619 4750 2861 4703 
Q 3103 4656 3366 4563 
z
" transform="scale(0.015625)"/>
      </defs>
      <use xlink:href="#DejaVuSans-51"/>
      <use xlink:href="#DejaVuSans-42" x="78.710938"/>
      <use xlink:href="#DejaVuSans-45" x="147.314453"/>
      <use xlink:href="#DejaVuSans-52" x="210.498047"/>
      <use xlink:href="#DejaVuSans-3a" x="276.855469"/>
      <use xlink:href="#DejaVuSans-20" x="310.546875"/>
      <use xlink:href="#DejaVuSans-36" x="342.333984"/>
     </g>
    </g>
    <g id="line2d_32">
     <path d="M 330.760625 234.291812 
L 340.760625 234.291812 
L 350.760625 234.291812 
" style="fill: none; stroke: #e377c2; stroke-width: 1.5; stroke-linecap: square"/>
    </g>
    <g id="text_24">
     <!-- QBER: 7 -->
     <g transform="translate(358.760625 237.791812)scale(0.1 -0.1)">
      <use xlink:href="#DejaVuSans-51"/>
      <use xlink:href="#DejaVuSans-42" x="78.710938"/>
      <use xlink:href="#DejaVuSans-45" x="147.314453"/>
      <use xlink:href="#DejaVuSans-52" x="210.498047"/>
      <use xlink:href="#DejaVuSans-3a" x="276.855469"/>
      <use xlink:href="#DejaVuSans-20" x="310.546875"/>
      <use xlink:href="#DejaVuSans-37" x="342.333984"/>
     </g>
    </g>
    <g id="line2d_33">
     <path d="M 330.760625 248.969938 
L 340.760625 248.969938 
L 350.760625 248.969938 
" style="fill: none; stroke: #7f7f7f; stroke-width: 1.5; stroke-linecap: square"/>
    </g>
    <g id="text_25">
     <!-- QBER: 8 -->
     <g transform="translate(358.760625 252.469938)scale(0.1 -0.1)">
      <defs>
       <path id="DejaVuSans-38" d="M 2034 2216 
Q 1584 2216 1326 1975 
Q 1069 1734 1069 1313 
Q 1069 891 1326 650 
Q 1584 409 2034 409 
Q 2484 409 2743 651 
Q 3003 894 3003 1313 
Q 3003 1734 2745 1975 
Q 2488 2216 2034 2216 
z
M 1403 2484 
Q 997 2584 770 2862 
Q 544 3141 544 3541 
Q 544 4100 942 4425 
Q 1341 4750 2034 4750 
Q 2731 4750 3128 4425 
Q 3525 4100 3525 3541 
Q 3525 3141 3298 2862 
Q 3072 2584 2669 2484 
Q 3125 2378 3379 2068 
Q 3634 1759 3634 1313 
Q 3634 634 3220 271 
Q 2806 -91 2034 -91 
Q 1263 -91 848 271 
Q 434 634 434 1313 
Q 434 1759 690 2068 
Q 947 2378 1403 2484 
z
M 1172 3481 
Q 1172 3119 1398 2916 
Q 1625 2713 2034 2713 
Q 2441 2713 2670 2916 
Q 2900 3119 2900 3481 
Q 2900 3844 2670 4047 
Q 2441 4250 2034 4250 
Q 1625 4250 1398 4047 
Q 1172 3844 1172 3481 
z
" transform="scale(0.015625)"/>
      </defs>
      <use xlink:href="#DejaVuSans-51"/>
      <use xlink:href="#DejaVuSans-42" x="78.710938"/>
      <use xlink:href="#DejaVuSans-45" x="147.314453"/>
      <use xlink:href="#DejaVuSans-52" x="210.498047"/>
      <use xlink:href="#DejaVuSans-3a" x="276.855469"/>
      <use xlink:href="#DejaVuSans-20" x="310.546875"/>
      <use xlink:href="#DejaVuSans-38" x="342.333984"/>
     </g>
    </g>
    <g id="line2d_34">
     <path d="M 330.760625 263.648062 
L 340.760625 263.648062 
L 350.760625 263.648062 
" style="fill: none; stroke: #bcbd22; stroke-width: 1.5; stroke-linecap: square"/>
    </g>
    <g id="text_26">
     <!-- QBER: 9 -->
     <g transform="translate(358.760625 267.148062)scale(0.1 -0.1)">
      <defs>
       <path id="DejaVuSans-39" d="M 703 97 
L 703 672 
Q 941 559 1184 500 
Q 1428 441 1663 441 
Q 2288 441 2617 861 
Q 2947 1281 2994 2138 
Q 2813 1869 2534 1725 
Q 2256 1581 1919 1581 
Q 1219 1581 811 2004 
Q 403 2428 403 3163 
Q 403 3881 828 4315 
Q 1253 4750 1959 4750 
Q 2769 4750 3195 4129 
Q 3622 3509 3622 2328 
Q 3622 1225 3098 567 
Q 2575 -91 1691 -91 
Q 1453 -91 1209 -44 
Q 966 3 703 97 
z
M 1959 2075 
Q 2384 2075 2632 2365 
Q 2881 2656 2881 3163 
Q 2881 3666 2632 3958 
Q 2384 4250 1959 4250 
Q 1534 4250 1286 3958 
Q 1038 3666 1038 3163 
Q 1038 2656 1286 2365 
Q 1534 2075 1959 2075 
z
" transform="scale(0.015625)"/>
      </defs>
      <use xlink:href="#DejaVuSans-51"/>
      <use xlink:href="#DejaVuSans-42" x="78.710938"/>
      <use xlink:href="#DejaVuSans-45" x="147.314453"/>
      <use xlink:href="#DejaVuSans-52" x="210.498047"/>
      <use xlink:href="#DejaVuSans-3a" x="276.855469"/>
      <use xlink:href="#DejaVuSans-20" x="310.546875"/>
      <use xlink:href="#DejaVuSans-39" x="342.333984"/>
     </g>
    </g>
    <g id="line2d_35">
     <path d="M 330.760625 278.326187 
L 340.760625 278.326187 
L 350.760625 278.326187 
" style="fill: none; stroke: #17becf; stroke-width: 1.5; stroke-linecap: square"/>
    </g>
    <g id="text_27">
     <!-- QBER: 10 -->
     <g transform="translate(358.760625 281.826187)scale(0.1 -0.1)">
      <use xlink:href="#DejaVuSans-51"/>
      <use xlink:href="#DejaVuSans-42" x="78.710938"/>
      <use xlink:href="#DejaVuSans-45" x="147.314453"/>
      <use xlink:href="#DejaVuSans-52" x="210.498047"/>
      <use xlink:href="#DejaVuSans-3a" x="276.855469"/>
      <use xlink:href="#DejaVuSans-20" x="310.546875"/>
      <use xlink:href="#DejaVuSans-31" x="342.333984"/>
      <use xlink:href="#DejaVuSans-30" x="405.957031"/>
     </g>
    </g>
    <g id="line2d_36">
     <path d="M 330.760625 293.004312 
L 340.760625 293.004312 
L 350.760625 293.004312 
" style="fill: none; stroke: #1f77b4; stroke-width: 1.5; stroke-linecap: square"/>
    </g>
    <g id="text_28">
     <!-- QBER: 11 -->
     <g transform="translate(358.760625 296.504312)scale(0.1 -0.1)">
      <use xlink:href="#DejaVuSans-51"/>
      <use xlink:href="#DejaVuSans-42" x="78.710938"/>
      <use xlink:href="#DejaVuSans-45" x="147.314453"/>
      <use xlink:href="#DejaVuSans-52" x="210.498047"/>
      <use xlink:href="#DejaVuSans-3a" x="276.855469"/>
      <use xlink:href="#DejaVuSans-20" x="310.546875"/>
      <use xlink:href="#DejaVuSans-31" x="342.333984"/>
      <use xlink:href="#DejaVuSans-31" x="405.957031"/>
     </g>
    </g>
   </g>
  </g>
 </g>
 <defs>
  <clipPath id="p5449768bef">
   <rect x="57.6" y="41.472" width="357.12" height="266.112"/>
  </clipPath>
 </defs>
</svg>
