<?xml version="1.0" encoding="utf-8" standalone="no"?>
<!DOCTYPE svg PUBLIC "-//W3C//DTD SVG 1.1//EN"
  "http://www.w3.org/Graphics/SVG/1.1/DTD/svg11.dtd">
<svg xmlns:xlink="http://www.w3.org/1999/xlink" width="460.8pt" height="345.6pt" viewBox="0 0 460.8 345.6" xmlns="http://www.w3.org/2000/svg" version="1.1">
 <metadata>
  <rdf:RDF xmlns:dc="http://purl.org/dc/elements/1.1/" xmlns:cc="http://creativecommons.org/ns#" xmlns:rdf="http://www.w3.org/1999/02/22-rdf-syntax-ns#">
   <cc:Work>
    <dc:type rdf:resource="http://purl.org/dc/dcmitype/StillImage"/>
    <dc:date>2023-08-12T11:41:33.690777</dc:date>
    <dc:format>image/svg+xml</dc:format>
    <dc:creator>
     <cc:Agent>
      <dc:title>Matplotlib v3.5.3, https://matplotlib.org/</dc:title>
     </cc:Agent>
    </dc:creator>
   </cc:Work>
  </rdf:RDF>
 </metadata>
 <defs>
  <style type="text/css">*{stroke-linejoin: round; stroke-linecap: butt}</style>
 </defs>
 <g id="figure_1">
  <g id="patch_1">
   <path d="M 0 345.6 
L 460.8 345.6 
L 460.8 0 
L 0 0 
z
" style="fill: #ffffff"/>
  </g>
  <g id="axes_1">
   <g id="patch_2">
    <path d="M 57.6 307.584 
L 414.72 307.584 
L 414.72 41.472 
L 57.6 41.472 
z
" style="fill: #ffffff"/>
   </g>
   <g id="matplotlib.axis_1">
    <g id="xtick_1">
     <g id="line2d_1">
      <defs>
       <path id="m34e36d09af" d="M 0 0 
L 0 3.5 
" style="stroke: #000000; stroke-width: 0.8"/>
      </defs>
      <g>
       <use xlink:href="#m34e36d09af" x="73.351758" y="307.584" style="stroke: #000000; stroke-width: 0.8"/>
      </g>
     </g>
     <g id="text_1">
      <!-- 0 -->
      <g transform="translate(70.170508 322.182437)scale(0.1 -0.1)">
       <defs>
        <path id="DejaVuSans-30" d="M 2034 4250 
Q 1547 4250 1301 3770 
Q 1056 3291 1056 2328 
Q 1056 1369 1301 889 
Q 1547 409 2034 409 
Q 2525 409 2770 889 
Q 3016 1369 3016 2328 
Q 3016 3291 2770 3770 
Q 2525 4250 2034 4250 
z
M 2034 4750 
Q 2819 4750 3233 4129 
Q 3647 3509 3647 2328 
Q 3647 1150 3233 529 
Q 2819 -91 2034 -91 
Q 1250 -91 836 529 
Q 422 1150 422 2328 
Q 422 3509 836 4129 
Q 1250 4750 2034 4750 
z
" transform="scale(0.015625)"/>
       </defs>
       <use xlink:href="#DejaVuSans-30"/>
      </g>
     </g>
    </g>
    <g id="xtick_2">
     <g id="line2d_2">
      <g>
       <use xlink:href="#m34e36d09af" x="121.448727" y="307.584" style="stroke: #000000; stroke-width: 0.8"/>
      </g>
     </g>
     <g id="text_2">
      <!-- 2500 -->
      <g transform="translate(108.723727 322.182437)scale(0.1 -0.1)">
       <defs>
        <path id="DejaVuSans-32" d="M 1228 531 
L 3431 531 
L 3431 0 
L 469 0 
L 469 531 
Q 828 903 1448 1529 
Q 2069 2156 2228 2338 
Q 2531 2678 2651 2914 
Q 2772 3150 2772 3378 
Q 2772 3750 2511 3984 
Q 2250 4219 1831 4219 
Q 1534 4219 1204 4116 
Q 875 4013 500 3803 
L 500 4441 
Q 881 4594 1212 4672 
Q 1544 4750 1819 4750 
Q 2544 4750 2975 4387 
Q 3406 4025 3406 3419 
Q 3406 3131 3298 2873 
Q 3191 2616 2906 2266 
Q 2828 2175 2409 1742 
Q 1991 1309 1228 531 
z
" transform="scale(0.015625)"/>
        <path id="DejaVuSans-35" d="M 691 4666 
L 3169 4666 
L 3169 4134 
L 1269 4134 
L 1269 2991 
Q 1406 3038 1543 3061 
Q 1681 3084 1819 3084 
Q 2600 3084 3056 2656 
Q 3513 2228 3513 1497 
Q 3513 744 3044 326 
Q 2575 -91 1722 -91 
Q 1428 -91 1123 -41 
Q 819 9 494 109 
L 494 744 
Q 775 591 1075 516 
Q 1375 441 1709 441 
Q 2250 441 2565 725 
Q 2881 1009 2881 1497 
Q 2881 1984 2565 2268 
Q 2250 2553 1709 2553 
Q 1456 2553 1204 2497 
Q 953 2441 691 2322 
L 691 4666 
z
" transform="scale(0.015625)"/>
       </defs>
       <use xlink:href="#DejaVuSans-32"/>
       <use xlink:href="#DejaVuSans-35" x="63.623047"/>
       <use xlink:href="#DejaVuSans-30" x="127.246094"/>
       <use xlink:href="#DejaVuSans-30" x="190.869141"/>
      </g>
     </g>
    </g>
    <g id="xtick_3">
     <g id="line2d_3">
      <g>
       <use xlink:href="#m34e36d09af" x="169.545697" y="307.584" style="stroke: #000000; stroke-width: 0.8"/>
      </g>
     </g>
     <g id="text_3">
      <!-- 5000 -->
      <g transform="translate(156.820697 322.182437)scale(0.1 -0.1)">
       <use xlink:href="#DejaVuSans-35"/>
       <use xlink:href="#DejaVuSans-30" x="63.623047"/>
       <use xlink:href="#DejaVuSans-30" x="127.246094"/>
       <use xlink:href="#DejaVuSans-30" x="190.869141"/>
      </g>
     </g>
    </g>
    <g id="xtick_4">
     <g id="line2d_4">
      <g>
       <use xlink:href="#m34e36d09af" x="217.642667" y="307.584" style="stroke: #000000; stroke-width: 0.8"/>
      </g>
     </g>
     <g id="text_4">
      <!-- 7500 -->
      <g transform="translate(204.917667 322.182437)scale(0.1 -0.1)">
       <defs>
        <path id="DejaVuSans-37" d="M 525 4666 
L 3525 4666 
L 3525 4397 
L 1831 0 
L 1172 0 
L 2766 4134 
L 525 4134 
L 525 4666 
z
" transform="scale(0.015625)"/>
       </defs>
       <use xlink:href="#DejaVuSans-37"/>
       <use xlink:href="#DejaVuSans-35" x="63.623047"/>
       <use xlink:href="#DejaVuSans-30" x="127.246094"/>
       <use xlink:href="#DejaVuSans-30" x="190.869141"/>
      </g>
     </g>
    </g>
    <g id="xtick_5">
     <g id="line2d_5">
      <g>
       <use xlink:href="#m34e36d09af" x="265.739636" y="307.584" style="stroke: #000000; stroke-width: 0.8"/>
      </g>
     </g>
     <g id="text_5">
      <!-- 10000 -->
      <g transform="translate(249.833386 322.182437)scale(0.1 -0.1)">
       <defs>
        <path id="DejaVuSans-31" d="M 794 531 
L 1825 531 
L 1825 4091 
L 703 3866 
L 703 4441 
L 1819 4666 
L 2450 4666 
L 2450 531 
L 3481 531 
L 3481 0 
L 794 0 
L 794 531 
z
" transform="scale(0.015625)"/>
       </defs>
       <use xlink:href="#DejaVuSans-31"/>
       <use xlink:href="#DejaVuSans-30" x="63.623047"/>
       <use xlink:href="#DejaVuSans-30" x="127.246094"/>
       <use xlink:href="#DejaVuSans-30" x="190.869141"/>
       <use xlink:href="#DejaVuSans-30" x="254.492188"/>
      </g>
     </g>
    </g>
    <g id="xtick_6">
     <g id="line2d_6">
      <g>
       <use xlink:href="#m34e36d09af" x="313.836606" y="307.584" style="stroke: #000000; stroke-width: 0.8"/>
      </g>
     </g>
     <g id="text_6">
      <!-- 12500 -->
      <g transform="translate(297.930356 322.182437)scale(0.1 -0.1)">
       <use xlink:href="#DejaVuSans-31"/>
       <use xlink:href="#DejaVuSans-32" x="63.623047"/>
       <use xlink:href="#DejaVuSans-35" x="127.246094"/>
       <use xlink:href="#DejaVuSans-30" x="190.869141"/>
       <use xlink:href="#DejaVuSans-30" x="254.492188"/>
      </g>
     </g>
    </g>
    <g id="xtick_7">
     <g id="line2d_7">
      <g>
       <use xlink:href="#m34e36d09af" x="361.933576" y="307.584" style="stroke: #000000; stroke-width: 0.8"/>
      </g>
     </g>
     <g id="text_7">
      <!-- 15000 -->
      <g transform="translate(346.027326 322.182437)scale(0.1 -0.1)">
       <use xlink:href="#DejaVuSans-31"/>
       <use xlink:href="#DejaVuSans-35" x="63.623047"/>
       <use xlink:href="#DejaVuSans-30" x="127.246094"/>
       <use xlink:href="#DejaVuSans-30" x="190.869141"/>
       <use xlink:href="#DejaVuSans-30" x="254.492188"/>
      </g>
     </g>
    </g>
    <g id="xtick_8">
     <g id="line2d_8">
      <g>
       <use xlink:href="#m34e36d09af" x="410.030545" y="307.584" style="stroke: #000000; stroke-width: 0.8"/>
      </g>
     </g>
     <g id="text_8">
      <!-- 17500 -->
      <g transform="translate(394.124295 322.182437)scale(0.1 -0.1)">
       <use xlink:href="#DejaVuSans-31"/>
       <use xlink:href="#DejaVuSans-37" x="63.623047"/>
       <use xlink:href="#DejaVuSans-35" x="127.246094"/>
       <use xlink:href="#DejaVuSans-30" x="190.869141"/>
       <use xlink:href="#DejaVuSans-30" x="254.492188"/>
      </g>
     </g>
    </g>
    <g id="text_9">
     <!-- Number of input neurons multiplied by number of hidden neurons [N*K] -->
     <g transform="translate(56.102969 335.860562)scale(0.1 -0.1)">
      <defs>
       <path id="DejaVuSans-4e" d="M 628 4666 
L 1478 4666 
L 3547 763 
L 3547 4666 
L 4159 4666 
L 4159 0 
L 3309 0 
L 1241 3903 
L 1241 0 
L 628 0 
L 628 4666 
z
" transform="scale(0.015625)"/>
       <path id="DejaVuSans-75" d="M 544 1381 
L 544 3500 
L 1119 3500 
L 1119 1403 
Q 1119 906 1312 657 
Q 1506 409 1894 409 
Q 2359 409 2629 706 
Q 2900 1003 2900 1516 
L 2900 3500 
L 3475 3500 
L 3475 0 
L 2900 0 
L 2900 538 
Q 2691 219 2414 64 
Q 2138 -91 1772 -91 
Q 1169 -91 856 284 
Q 544 659 544 1381 
z
M 1991 3584 
L 1991 3584 
z
" transform="scale(0.015625)"/>
       <path id="DejaVuSans-6d" d="M 3328 2828 
Q 3544 3216 3844 3400 
Q 4144 3584 4550 3584 
Q 5097 3584 5394 3201 
Q 5691 2819 5691 2113 
L 5691 0 
L 5113 0 
L 5113 2094 
Q 5113 2597 4934 2840 
Q 4756 3084 4391 3084 
Q 3944 3084 3684 2787 
Q 3425 2491 3425 1978 
L 3425 0 
L 2847 0 
L 2847 2094 
Q 2847 2600 2669 2842 
Q 2491 3084 2119 3084 
Q 1678 3084 1418 2786 
Q 1159 2488 1159 1978 
L 1159 0 
L 581 0 
L 581 3500 
L 1159 3500 
L 1159 2956 
Q 1356 3278 1631 3431 
Q 1906 3584 2284 3584 
Q 2666 3584 2933 3390 
Q 3200 3197 3328 2828 
z
" transform="scale(0.015625)"/>
       <path id="DejaVuSans-62" d="M 3116 1747 
Q 3116 2381 2855 2742 
Q 2594 3103 2138 3103 
Q 1681 3103 1420 2742 
Q 1159 2381 1159 1747 
Q 1159 1113 1420 752 
Q 1681 391 2138 391 
Q 2594 391 2855 752 
Q 3116 1113 3116 1747 
z
M 1159 2969 
Q 1341 3281 1617 3432 
Q 1894 3584 2278 3584 
Q 2916 3584 3314 3078 
Q 3713 2572 3713 1747 
Q 3713 922 3314 415 
Q 2916 -91 2278 -91 
Q 1894 -91 1617 61 
Q 1341 213 1159 525 
L 1159 0 
L 581 0 
L 581 4863 
L 1159 4863 
L 1159 2969 
z
" transform="scale(0.015625)"/>
       <path id="DejaVuSans-65" d="M 3597 1894 
L 3597 1613 
L 953 1613 
Q 991 1019 1311 708 
Q 1631 397 2203 397 
Q 2534 397 2845 478 
Q 3156 559 3463 722 
L 3463 178 
Q 3153 47 2828 -22 
Q 2503 -91 2169 -91 
Q 1331 -91 842 396 
Q 353 884 353 1716 
Q 353 2575 817 3079 
Q 1281 3584 2069 3584 
Q 2775 3584 3186 3129 
Q 3597 2675 3597 1894 
z
M 3022 2063 
Q 3016 2534 2758 2815 
Q 2500 3097 2075 3097 
Q 1594 3097 1305 2825 
Q 1016 2553 972 2059 
L 3022 2063 
z
" transform="scale(0.015625)"/>
       <path id="DejaVuSans-72" d="M 2631 2963 
Q 2534 3019 2420 3045 
Q 2306 3072 2169 3072 
Q 1681 3072 1420 2755 
Q 1159 2438 1159 1844 
L 1159 0 
L 581 0 
L 581 3500 
L 1159 3500 
L 1159 2956 
Q 1341 3275 1631 3429 
Q 1922 3584 2338 3584 
Q 2397 3584 2469 3576 
Q 2541 3569 2628 3553 
L 2631 2963 
z
" transform="scale(0.015625)"/>
       <path id="DejaVuSans-20" transform="scale(0.015625)"/>
       <path id="DejaVuSans-6f" d="M 1959 3097 
Q 1497 3097 1228 2736 
Q 959 2375 959 1747 
Q 959 1119 1226 758 
Q 1494 397 1959 397 
Q 2419 397 2687 759 
Q 2956 1122 2956 1747 
Q 2956 2369 2687 2733 
Q 2419 3097 1959 3097 
z
M 1959 3584 
Q 2709 3584 3137 3096 
Q 3566 2609 3566 1747 
Q 3566 888 3137 398 
Q 2709 -91 1959 -91 
Q 1206 -91 779 398 
Q 353 888 353 1747 
Q 353 2609 779 3096 
Q 1206 3584 1959 3584 
z
" transform="scale(0.015625)"/>
       <path id="DejaVuSans-66" d="M 2375 4863 
L 2375 4384 
L 1825 4384 
Q 1516 4384 1395 4259 
Q 1275 4134 1275 3809 
L 1275 3500 
L 2222 3500 
L 2222 3053 
L 1275 3053 
L 1275 0 
L 697 0 
L 697 3053 
L 147 3053 
L 147 3500 
L 697 3500 
L 697 3744 
Q 697 4328 969 4595 
Q 1241 4863 1831 4863 
L 2375 4863 
z
" transform="scale(0.015625)"/>
       <path id="DejaVuSans-69" d="M 603 3500 
L 1178 3500 
L 1178 0 
L 603 0 
L 603 3500 
z
M 603 4863 
L 1178 4863 
L 1178 4134 
L 603 4134 
L 603 4863 
z
" transform="scale(0.015625)"/>
       <path id="DejaVuSans-6e" d="M 3513 2113 
L 3513 0 
L 2938 0 
L 2938 2094 
Q 2938 2591 2744 2837 
Q 2550 3084 2163 3084 
Q 1697 3084 1428 2787 
Q 1159 2491 1159 1978 
L 1159 0 
L 581 0 
L 581 3500 
L 1159 3500 
L 1159 2956 
Q 1366 3272 1645 3428 
Q 1925 3584 2291 3584 
Q 2894 3584 3203 3211 
Q 3513 2838 3513 2113 
z
" transform="scale(0.015625)"/>
       <path id="DejaVuSans-70" d="M 1159 525 
L 1159 -1331 
L 581 -1331 
L 581 3500 
L 1159 3500 
L 1159 2969 
Q 1341 3281 1617 3432 
Q 1894 3584 2278 3584 
Q 2916 3584 3314 3078 
Q 3713 2572 3713 1747 
Q 3713 922 3314 415 
Q 2916 -91 2278 -91 
Q 1894 -91 1617 61 
Q 1341 213 1159 525 
z
M 3116 1747 
Q 3116 2381 2855 2742 
Q 2594 3103 2138 3103 
Q 1681 3103 1420 2742 
Q 1159 2381 1159 1747 
Q 1159 1113 1420 752 
Q 1681 391 2138 391 
Q 2594 391 2855 752 
Q 3116 1113 3116 1747 
z
" transform="scale(0.015625)"/>
       <path id="DejaVuSans-74" d="M 1172 4494 
L 1172 3500 
L 2356 3500 
L 2356 3053 
L 1172 3053 
L 1172 1153 
Q 1172 725 1289 603 
Q 1406 481 1766 481 
L 2356 481 
L 2356 0 
L 1766 0 
Q 1100 0 847 248 
Q 594 497 594 1153 
L 594 3053 
L 172 3053 
L 172 3500 
L 594 3500 
L 594 4494 
L 1172 4494 
z
" transform="scale(0.015625)"/>
       <path id="DejaVuSans-73" d="M 2834 3397 
L 2834 2853 
Q 2591 2978 2328 3040 
Q 2066 3103 1784 3103 
Q 1356 3103 1142 2972 
Q 928 2841 928 2578 
Q 928 2378 1081 2264 
Q 1234 2150 1697 2047 
L 1894 2003 
Q 2506 1872 2764 1633 
Q 3022 1394 3022 966 
Q 3022 478 2636 193 
Q 2250 -91 1575 -91 
Q 1294 -91 989 -36 
Q 684 19 347 128 
L 347 722 
Q 666 556 975 473 
Q 1284 391 1588 391 
Q 1994 391 2212 530 
Q 2431 669 2431 922 
Q 2431 1156 2273 1281 
Q 2116 1406 1581 1522 
L 1381 1569 
Q 847 1681 609 1914 
Q 372 2147 372 2553 
Q 372 3047 722 3315 
Q 1072 3584 1716 3584 
Q 2034 3584 2315 3537 
Q 2597 3491 2834 3397 
z
" transform="scale(0.015625)"/>
       <path id="DejaVuSans-6c" d="M 603 4863 
L 1178 4863 
L 1178 0 
L 603 0 
L 603 4863 
z
" transform="scale(0.015625)"/>
       <path id="DejaVuSans-64" d="M 2906 2969 
L 2906 4863 
L 3481 4863 
L 3481 0 
L 2906 0 
L 2906 525 
Q 2725 213 2448 61 
Q 2172 -91 1784 -91 
Q 1150 -91 751 415 
Q 353 922 353 1747 
Q 353 2572 751 3078 
Q 1150 3584 1784 3584 
Q 2172 3584 2448 3432 
Q 2725 3281 2906 2969 
z
M 947 1747 
Q 947 1113 1208 752 
Q 1469 391 1925 391 
Q 2381 391 2643 752 
Q 2906 1113 2906 1747 
Q 2906 2381 2643 2742 
Q 2381 3103 1925 3103 
Q 1469 3103 1208 2742 
Q 947 2381 947 1747 
z
" transform="scale(0.015625)"/>
       <path id="DejaVuSans-79" d="M 2059 -325 
Q 1816 -950 1584 -1140 
Q 1353 -1331 966 -1331 
L 506 -1331 
L 506 -850 
L 844 -850 
Q 1081 -850 1212 -737 
Q 1344 -625 1503 -206 
L 1606 56 
L 191 3500 
L 800 3500 
L 1894 763 
L 2988 3500 
L 3597 3500 
L 2059 -325 
z
" transform="scale(0.015625)"/>
       <path id="DejaVuSans-68" d="M 3513 2113 
L 3513 0 
L 2938 0 
L 2938 2094 
Q 2938 2591 2744 2837 
Q 2550 3084 2163 3084 
Q 1697 3084 1428 2787 
Q 1159 2491 1159 1978 
L 1159 0 
L 581 0 
L 581 4863 
L 1159 4863 
L 1159 2956 
Q 1366 3272 1645 3428 
Q 1925 3584 2291 3584 
Q 2894 3584 3203 3211 
Q 3513 2838 3513 2113 
z
" transform="scale(0.015625)"/>
       <path id="DejaVuSans-5b" d="M 550 4863 
L 1875 4863 
L 1875 4416 
L 1125 4416 
L 1125 -397 
L 1875 -397 
L 1875 -844 
L 550 -844 
L 550 4863 
z
" transform="scale(0.015625)"/>
       <path id="DejaVuSans-2a" d="M 3009 3897 
L 1888 3291 
L 3009 2681 
L 2828 2375 
L 1778 3009 
L 1778 1831 
L 1422 1831 
L 1422 3009 
L 372 2375 
L 191 2681 
L 1313 3291 
L 191 3897 
L 372 4206 
L 1422 3572 
L 1422 4750 
L 1778 4750 
L 1778 3572 
L 2828 4206 
L 3009 3897 
z
" transform="scale(0.015625)"/>
       <path id="DejaVuSans-4b" d="M 628 4666 
L 1259 4666 
L 1259 2694 
L 3353 4666 
L 4166 4666 
L 1850 2491 
L 4331 0 
L 3500 0 
L 1259 2247 
L 1259 0 
L 628 0 
L 628 4666 
z
" transform="scale(0.015625)"/>
       <path id="DejaVuSans-5d" d="M 1947 4863 
L 1947 -844 
L 622 -844 
L 622 -397 
L 1369 -397 
L 1369 4416 
L 622 4416 
L 622 4863 
L 1947 4863 
z
" transform="scale(0.015625)"/>
      </defs>
      <use xlink:href="#DejaVuSans-4e"/>
      <use xlink:href="#DejaVuSans-75" x="74.804688"/>
      <use xlink:href="#DejaVuSans-6d" x="138.183594"/>
      <use xlink:href="#DejaVuSans-62" x="235.595703"/>
      <use xlink:href="#DejaVuSans-65" x="299.072266"/>
      <use xlink:href="#DejaVuSans-72" x="360.595703"/>
      <use xlink:href="#DejaVuSans-20" x="401.708984"/>
      <use xlink:href="#DejaVuSans-6f" x="433.496094"/>
      <use xlink:href="#DejaVuSans-66" x="494.677734"/>
      <use xlink:href="#DejaVuSans-20" x="529.882812"/>
      <use xlink:href="#DejaVuSans-69" x="561.669922"/>
      <use xlink:href="#DejaVuSans-6e" x="589.453125"/>
      <use xlink:href="#DejaVuSans-70" x="652.832031"/>
      <use xlink:href="#DejaVuSans-75" x="716.308594"/>
      <use xlink:href="#DejaVuSans-74" x="779.6875"/>
      <use xlink:href="#DejaVuSans-20" x="818.896484"/>
      <use xlink:href="#DejaVuSans-6e" x="850.683594"/>
      <use xlink:href="#DejaVuSans-65" x="914.0625"/>
      <use xlink:href="#DejaVuSans-75" x="975.585938"/>
      <use xlink:href="#DejaVuSans-72" x="1038.964844"/>
      <use xlink:href="#DejaVuSans-6f" x="1077.828125"/>
      <use xlink:href="#DejaVuSans-6e" x="1139.009766"/>
      <use xlink:href="#DejaVuSans-73" x="1202.388672"/>
      <use xlink:href="#DejaVuSans-20" x="1254.488281"/>
      <use xlink:href="#DejaVuSans-6d" x="1286.275391"/>
      <use xlink:href="#DejaVuSans-75" x="1383.6875"/>
      <use xlink:href="#DejaVuSans-6c" x="1447.066406"/>
      <use xlink:href="#DejaVuSans-74" x="1474.849609"/>
      <use xlink:href="#DejaVuSans-69" x="1514.058594"/>
      <use xlink:href="#DejaVuSans-70" x="1541.841797"/>
      <use xlink:href="#DejaVuSans-6c" x="1605.318359"/>
      <use xlink:href="#DejaVuSans-69" x="1633.101562"/>
      <use xlink:href="#DejaVuSans-65" x="1660.884766"/>
      <use xlink:href="#DejaVuSans-64" x="1722.408203"/>
      <use xlink:href="#DejaVuSans-20" x="1785.884766"/>
      <use xlink:href="#DejaVuSans-62" x="1817.671875"/>
      <use xlink:href="#DejaVuSans-79" x="1881.148438"/>
      <use xlink:href="#DejaVuSans-20" x="1940.328125"/>
      <use xlink:href="#DejaVuSans-6e" x="1972.115234"/>
      <use xlink:href="#DejaVuSans-75" x="2035.494141"/>
      <use xlink:href="#DejaVuSans-6d" x="2098.873047"/>
      <use xlink:href="#DejaVuSans-62" x="2196.285156"/>
      <use xlink:href="#DejaVuSans-65" x="2259.761719"/>
      <use xlink:href="#DejaVuSans-72" x="2321.285156"/>
      <use xlink:href="#DejaVuSans-20" x="2362.398438"/>
      <use xlink:href="#DejaVuSans-6f" x="2394.185547"/>
      <use xlink:href="#DejaVuSans-66" x="2455.367188"/>
      <use xlink:href="#DejaVuSans-20" x="2490.572266"/>
      <use xlink:href="#DejaVuSans-68" x="2522.359375"/>
      <use xlink:href="#DejaVuSans-69" x="2585.738281"/>
      <use xlink:href="#DejaVuSans-64" x="2613.521484"/>
      <use xlink:href="#DejaVuSans-64" x="2676.998047"/>
      <use xlink:href="#DejaVuSans-65" x="2740.474609"/>
      <use xlink:href="#DejaVuSans-6e" x="2801.998047"/>
      <use xlink:href="#DejaVuSans-20" x="2865.376953"/>
      <use xlink:href="#DejaVuSans-6e" x="2897.164062"/>
      <use xlink:href="#DejaVuSans-65" x="2960.542969"/>
      <use xlink:href="#DejaVuSans-75" x="3022.066406"/>
      <use xlink:href="#DejaVuSans-72" x="3085.445312"/>
      <use xlink:href="#DejaVuSans-6f" x="3124.308594"/>
      <use xlink:href="#DejaVuSans-6e" x="3185.490234"/>
      <use xlink:href="#DejaVuSans-73" x="3248.869141"/>
      <use xlink:href="#DejaVuSans-20" x="3300.96875"/>
      <use xlink:href="#DejaVuSans-5b" x="3332.755859"/>
      <use xlink:href="#DejaVuSans-4e" x="3371.769531"/>
      <use xlink:href="#DejaVuSans-2a" x="3446.574219"/>
      <use xlink:href="#DejaVuSans-4b" x="3496.574219"/>
      <use xlink:href="#DejaVuSans-5d" x="3562.150391"/>
     </g>
    </g>
   </g>
   <g id="matplotlib.axis_2">
    <g id="ytick_1">
     <g id="line2d_9">
      <defs>
       <path id="mec871d2320" d="M 0 0 
L -3.5 0 
" style="stroke: #000000; stroke-width: 0.8"/>
      </defs>
      <g>
       <use xlink:href="#mec871d2320" x="57.6" y="290.498133" style="stroke: #000000; stroke-width: 0.8"/>
      </g>
     </g>
     <g id="text_10">
      <!-- 0 -->
      <g transform="translate(44.2375 294.297352)scale(0.1 -0.1)">
       <use xlink:href="#DejaVuSans-30"/>
      </g>
     </g>
    </g>
    <g id="ytick_2">
     <g id="line2d_10">
      <g>
       <use xlink:href="#mec871d2320" x="57.6" y="233.733613" style="stroke: #000000; stroke-width: 0.8"/>
      </g>
     </g>
     <g id="text_11">
      <!-- 5 -->
      <g transform="translate(44.2375 237.532832)scale(0.1 -0.1)">
       <use xlink:href="#DejaVuSans-35"/>
      </g>
     </g>
    </g>
    <g id="ytick_3">
     <g id="line2d_11">
      <g>
       <use xlink:href="#mec871d2320" x="57.6" y="176.969093" style="stroke: #000000; stroke-width: 0.8"/>
      </g>
     </g>
     <g id="text_12">
      <!-- 10 -->
      <g transform="translate(37.875 180.768312)scale(0.1 -0.1)">
       <use xlink:href="#DejaVuSans-31"/>
       <use xlink:href="#DejaVuSans-30" x="63.623047"/>
      </g>
     </g>
    </g>
    <g id="ytick_4">
     <g id="line2d_12">
      <g>
       <use xlink:href="#mec871d2320" x="57.6" y="120.204574" style="stroke: #000000; stroke-width: 0.8"/>
      </g>
     </g>
     <g id="text_13">
      <!-- 15 -->
      <g transform="translate(37.875 124.003792)scale(0.1 -0.1)">
       <use xlink:href="#DejaVuSans-31"/>
       <use xlink:href="#DejaVuSans-35" x="63.623047"/>
      </g>
     </g>
    </g>
    <g id="ytick_5">
     <g id="line2d_13">
      <g>
       <use xlink:href="#mec871d2320" x="57.6" y="63.440054" style="stroke: #000000; stroke-width: 0.8"/>
      </g>
     </g>
     <g id="text_14">
      <!-- 20 -->
      <g transform="translate(37.875 67.239273)scale(0.1 -0.1)">
       <use xlink:href="#DejaVuSans-32"/>
       <use xlink:href="#DejaVuSans-30" x="63.623047"/>
      </g>
     </g>
    </g>
    <g id="text_15">
     <!-- Mean number of required repetitions of TPM -->
     <g transform="translate(31.795312 284.968625)rotate(-90)scale(0.1 -0.1)">
      <defs>
       <path id="DejaVuSans-4d" d="M 628 4666 
L 1569 4666 
L 2759 1491 
L 3956 4666 
L 4897 4666 
L 4897 0 
L 4281 0 
L 4281 4097 
L 3078 897 
L 2444 897 
L 1241 4097 
L 1241 0 
L 628 0 
L 628 4666 
z
" transform="scale(0.015625)"/>
       <path id="DejaVuSans-61" d="M 2194 1759 
Q 1497 1759 1228 1600 
Q 959 1441 959 1056 
Q 959 750 1161 570 
Q 1363 391 1709 391 
Q 2188 391 2477 730 
Q 2766 1069 2766 1631 
L 2766 1759 
L 2194 1759 
z
M 3341 1997 
L 3341 0 
L 2766 0 
L 2766 531 
Q 2569 213 2275 61 
Q 1981 -91 1556 -91 
Q 1019 -91 701 211 
Q 384 513 384 1019 
Q 384 1609 779 1909 
Q 1175 2209 1959 2209 
L 2766 2209 
L 2766 2266 
Q 2766 2663 2505 2880 
Q 2244 3097 1772 3097 
Q 1472 3097 1187 3025 
Q 903 2953 641 2809 
L 641 3341 
Q 956 3463 1253 3523 
Q 1550 3584 1831 3584 
Q 2591 3584 2966 3190 
Q 3341 2797 3341 1997 
z
" transform="scale(0.015625)"/>
       <path id="DejaVuSans-71" d="M 947 1747 
Q 947 1113 1208 752 
Q 1469 391 1925 391 
Q 2381 391 2643 752 
Q 2906 1113 2906 1747 
Q 2906 2381 2643 2742 
Q 2381 3103 1925 3103 
Q 1469 3103 1208 2742 
Q 947 2381 947 1747 
z
M 2906 525 
Q 2725 213 2448 61 
Q 2172 -91 1784 -91 
Q 1150 -91 751 415 
Q 353 922 353 1747 
Q 353 2572 751 3078 
Q 1150 3584 1784 3584 
Q 2172 3584 2448 3432 
Q 2725 3281 2906 2969 
L 2906 3500 
L 3481 3500 
L 3481 -1331 
L 2906 -1331 
L 2906 525 
z
" transform="scale(0.015625)"/>
       <path id="DejaVuSans-54" d="M -19 4666 
L 3928 4666 
L 3928 4134 
L 2272 4134 
L 2272 0 
L 1638 0 
L 1638 4134 
L -19 4134 
L -19 4666 
z
" transform="scale(0.015625)"/>
       <path id="DejaVuSans-50" d="M 1259 4147 
L 1259 2394 
L 2053 2394 
Q 2494 2394 2734 2622 
Q 2975 2850 2975 3272 
Q 2975 3691 2734 3919 
Q 2494 4147 2053 4147 
L 1259 4147 
z
M 628 4666 
L 2053 4666 
Q 2838 4666 3239 4311 
Q 3641 3956 3641 3272 
Q 3641 2581 3239 2228 
Q 2838 1875 2053 1875 
L 1259 1875 
L 1259 0 
L 628 0 
L 628 4666 
z
" transform="scale(0.015625)"/>
      </defs>
      <use xlink:href="#DejaVuSans-4d"/>
      <use xlink:href="#DejaVuSans-65" x="86.279297"/>
      <use xlink:href="#DejaVuSans-61" x="147.802734"/>
      <use xlink:href="#DejaVuSans-6e" x="209.082031"/>
      <use xlink:href="#DejaVuSans-20" x="272.460938"/>
      <use xlink:href="#DejaVuSans-6e" x="304.248047"/>
      <use xlink:href="#DejaVuSans-75" x="367.626953"/>
      <use xlink:href="#DejaVuSans-6d" x="431.005859"/>
      <use xlink:href="#DejaVuSans-62" x="528.417969"/>
      <use xlink:href="#DejaVuSans-65" x="591.894531"/>
      <use xlink:href="#DejaVuSans-72" x="653.417969"/>
      <use xlink:href="#DejaVuSans-20" x="694.53125"/>
      <use xlink:href="#DejaVuSans-6f" x="726.318359"/>
      <use xlink:href="#DejaVuSans-66" x="787.5"/>
      <use xlink:href="#DejaVuSans-20" x="822.705078"/>
      <use xlink:href="#DejaVuSans-72" x="854.492188"/>
      <use xlink:href="#DejaVuSans-65" x="893.355469"/>
      <use xlink:href="#DejaVuSans-71" x="954.878906"/>
      <use xlink:href="#DejaVuSans-75" x="1018.355469"/>
      <use xlink:href="#DejaVuSans-69" x="1081.734375"/>
      <use xlink:href="#DejaVuSans-72" x="1109.517578"/>
      <use xlink:href="#DejaVuSans-65" x="1148.380859"/>
      <use xlink:href="#DejaVuSans-64" x="1209.904297"/>
      <use xlink:href="#DejaVuSans-20" x="1273.380859"/>
      <use xlink:href="#DejaVuSans-72" x="1305.167969"/>
      <use xlink:href="#DejaVuSans-65" x="1344.03125"/>
      <use xlink:href="#DejaVuSans-70" x="1405.554688"/>
      <use xlink:href="#DejaVuSans-65" x="1469.03125"/>
      <use xlink:href="#DejaVuSans-74" x="1530.554688"/>
      <use xlink:href="#DejaVuSans-69" x="1569.763672"/>
      <use xlink:href="#DejaVuSans-74" x="1597.546875"/>
      <use xlink:href="#DejaVuSans-69" x="1636.755859"/>
      <use xlink:href="#DejaVuSans-6f" x="1664.539062"/>
      <use xlink:href="#DejaVuSans-6e" x="1725.720703"/>
      <use xlink:href="#DejaVuSans-73" x="1789.099609"/>
      <use xlink:href="#DejaVuSans-20" x="1841.199219"/>
      <use xlink:href="#DejaVuSans-6f" x="1872.986328"/>
      <use xlink:href="#DejaVuSans-66" x="1934.167969"/>
      <use xlink:href="#DejaVuSans-20" x="1969.373047"/>
      <use xlink:href="#DejaVuSans-54" x="2001.160156"/>
      <use xlink:href="#DejaVuSans-50" x="2062.244141"/>
      <use xlink:href="#DejaVuSans-4d" x="2122.546875"/>
     </g>
    </g>
   </g>
   <g id="line2d_14">
    <path d="M 73.832727 295.488 
L 75.756606 286.497396 
L 75.756606 286.497396 
L 77.680485 278.96098 
L 77.680485 278.96098 
L 79.604364 272.67309 
L 79.604364 272.67309 
L 81.528242 267.450101 
L 81.528242 267.450101 
L 83.452121 263.128654 
L 83.452121 263.128654 
L 85.376 259.564005 
L 85.376 259.564005 
L 86.818909 257.309749 
L 86.818909 257.309749 
L 89.223758 254.20989 
L 89.223758 254.20989 
L 90.666667 252.675842 
L 90.666667 252.675842 
L 92.590545 250.934226 
L 92.590545 250.934226 
L 94.995394 249.140406 
L 94.995394 249.140406 
L 97.881212 247.388038 
L 97.881212 247.388038 
L 100.76703 245.911311 
L 100.76703 245.911311 
L 106.538667 243.294158 
L 106.538667 243.294158 
L 112.310303 240.618997 
L 117.12 238.129719 
L 117.12 238.129719 
L 121.448727 235.65288 
L 127.220364 232.058501 
L 127.220364 232.058501 
L 146.940121 219.358307 
L 146.940121 219.358307 
L 150.787879 217.167882 
L 150.787879 217.167882 
L 155.597576 214.66923 
L 155.597576 214.66923 
L 159.926303 212.663815 
L 159.926303 212.663815 
L 165.697939 210.34677 
L 165.697939 210.34677 
L 169.545697 209.012695 
L 169.545697 209.012695 
L 173.874424 207.686943 
L 173.874424 207.686943 
L 181.569939 205.682998 
L 181.569939 205.682998 
L 192.151273 203.314736 
L 192.151273 203.314736 
L 200.327758 201.485652 
L 200.327758 201.485652 
L 210.428121 198.942808 
L 210.428121 198.942808 
L 217.161697 197.012592 
L 217.161697 197.012592 
L 228.70497 193.34935 
L 228.70497 193.34935 
L 242.653091 188.861123 
L 242.653091 188.861123 
L 248.424727 187.206535 
L 248.424727 187.206535 
L 253.715394 185.885682 
L 253.715394 185.885682 
L 258.044121 184.976909 
L 258.044121 184.976909 
L 263.815758 184.037959 
L 263.815758 184.037959 
L 265.739636 183.797888 
L 273.435152 183.202796 
L 273.435152 183.202796 
L 281.130667 183.14214 
L 281.130667 183.14214 
L 285.459394 183.294271 
L 305.660121 184.480873 
L 305.660121 184.480873 
L 306.141091 184.494648 
L 323.456 183.517152 
L 323.456 183.517152 
L 327.784727 182.727123 
L 350.390303 175.926604 
L 373.957818 170.893583 
L 398.487273 155.306558 
L 398.487273 155.306558 
" clip-path="url(#pfd4c2b2a68)" style="fill: none; stroke: #1f77b4; stroke-width: 1.5; stroke-linecap: square"/>
   </g>
   <g id="line2d_15">
    <path d="M 73.832727 279.023385 
L 75.756606 271.865464 
L 75.756606 271.865464 
L 77.680485 265.519226 
L 77.680485 265.519226 
L 79.604364 259.877465 
L 79.604364 259.877465 
L 81.528242 254.845118 
L 81.528242 254.845118 
L 83.452121 250.338202 
L 83.452121 250.338202 
L 85.376 246.282829 
L 85.376 246.282829 
L 86.818909 243.49837 
L 86.818909 243.49837 
L 90.185697 237.715387 
L 90.185697 237.715387 
L 92.590545 234.086054 
L 92.590545 234.086054 
L 96.438303 228.941886 
L 96.438303 228.941886 
L 98.362182 226.612232 
L 98.362182 226.612232 
L 102.209939 222.323909 
L 102.209939 222.323909 
L 106.538667 217.955838 
L 106.538667 217.955838 
L 110.386424 214.381608 
L 110.386424 214.381608 
L 114.234182 211.043464 
L 114.234182 211.043464 
L 119.524848 206.792345 
L 119.524848 206.792345 
L 123.853576 203.591886 
L 123.853576 203.591886 
L 128.663273 200.330835 
L 128.663273 200.330835 
L 133.47297 197.388809 
L 133.47297 197.388809 
L 138.282667 194.772242 
L 138.282667 194.772242 
L 142.611394 192.694555 
L 142.611394 192.694555 
L 146.940121 190.870806 
L 146.940121 190.870806 
L 150.787879 189.449952 
L 150.787879 189.449952 
L 155.597576 187.91318 
L 155.597576 187.91318 
L 159.926303 186.726532 
L 159.926303 186.726532 
L 167.621818 184.966495 
L 177.241212 183.12211 
L 177.241212 183.12211 
L 188.784485 180.938426 
L 188.784485 180.938426 
L 198.403879 178.83639 
L 198.403879 178.83639 
L 205.618424 177.025433 
L 205.618424 177.025433 
L 212.352 175.177914 
L 229.666909 170.245409 
L 229.666909 170.245409 
L 239.286303 167.873381 
L 239.286303 167.873381 
L 246.500848 166.49269 
L 246.500848 166.49269 
L 248.424727 166.195454 
L 248.424727 166.195454 
L 253.715394 165.544736 
L 253.715394 165.544736 
L 258.044121 165.197133 
L 258.044121 165.197133 
L 263.815758 164.982471 
L 263.815758 164.982471 
L 265.739636 164.968943 
L 273.435152 165.148647 
L 273.435152 165.148647 
L 285.459394 165.793954 
L 298.445576 165.963695 
L 304.217212 165.520371 
L 304.217212 165.520371 
L 306.141091 165.274388 
L 323.456 160.510969 
L 323.456 160.510969 
L 327.784727 158.639889 
L 348.466424 148.674136 
L 348.466424 148.674136 
L 350.390303 147.929384 
L 373.476848 148.039188 
L 373.476848 148.039188 
L 373.957818 148.251349 
L 398.487273 154.900317 
L 398.487273 154.900317 
" clip-path="url(#pfd4c2b2a68)" style="fill: none; stroke: #ff7f0e; stroke-width: 1.5; stroke-linecap: square"/>
   </g>
   <g id="line2d_16">
    <path d="M 73.832727 272.893211 
L 75.756606 264.27699 
L 75.756606 264.27699 
L 77.680485 256.651993 
L 77.680485 256.651993 
L 79.604364 249.909183 
L 79.604364 249.909183 
L 81.528242 243.949287 
L 81.528242 243.949287 
L 83.452121 238.682112 
L 83.452121 238.682112 
L 85.376 234.025893 
L 85.376 234.025893 
L 86.818909 230.889903 
L 86.818909 230.889903 
L 89.223758 226.257736 
L 89.223758 226.257736 
L 90.666667 223.793294 
L 90.666667 223.793294 
L 92.590545 220.826585 
L 92.590545 220.826585 
L 94.995394 217.562465 
L 94.995394 217.562465 
L 97.881212 214.186195 
L 97.881212 214.186195 
L 100.286061 211.738139 
L 100.286061 211.738139 
L 102.209939 209.974202 
L 102.209939 209.974202 
L 104.614788 207.967994 
L 104.614788 207.967994 
L 107.981576 205.450778 
L 107.981576 205.450778 
L 112.310303 202.570633 
L 117.12 199.666224 
L 117.12 199.666224 
L 125.296485 195.074237 
L 125.296485 195.074237 
L 142.130424 185.992602 
L 142.130424 185.992602 
L 152.711758 180.480347 
L 152.711758 180.480347 
L 159.926303 176.908066 
L 159.926303 176.908066 
L 167.621818 173.327771 
L 173.874424 170.618195 
L 173.874424 170.618195 
L 181.569939 167.540473 
L 181.569939 167.540473 
L 188.784485 164.909773 
L 188.784485 164.909773 
L 196.48 162.362669 
L 204.656485 159.932739 
L 204.656485 159.932739 
L 212.352 157.895791 
L 221.490424 155.793305 
L 221.490424 155.793305 
L 229.185939 154.303616 
L 234.957576 153.367777 
L 234.957576 153.367777 
L 242.653091 152.379728 
L 242.653091 152.379728 
L 248.424727 151.843166 
L 248.424727 151.843166 
L 258.044121 151.344573 
L 258.044121 151.344573 
L 265.739636 151.282995 
L 277.763879 151.659965 
L 277.763879 151.659965 
L 298.445576 152.640783 
L 298.445576 152.640783 
L 306.141091 152.659946 
L 323.456 150.994649 
L 323.456 150.994649 
L 327.784727 150.126522 
L 350.390303 143.413943 
L 373.476848 140.545291 
L 373.476848 140.545291 
L 373.957818 140.659699 
L 398.487273 166.253563 
L 398.487273 166.253563 
" clip-path="url(#pfd4c2b2a68)" style="fill: none; stroke: #2ca02c; stroke-width: 1.5; stroke-linecap: square"/>
   </g>
   <g id="line2d_17">
    <path d="M 73.832727 265.379555 
L 75.756606 256.882858 
L 75.756606 256.882858 
L 77.680485 249.334552 
L 77.680485 249.334552 
L 79.604364 242.616959 
L 79.604364 242.616959 
L 81.528242 236.625812 
L 81.528242 236.625812 
L 83.452121 231.26901 
L 83.452121 231.26901 
L 85.376 226.465451 
L 85.376 226.465451 
L 86.818909 223.182685 
L 86.818909 223.182685 
L 90.185697 216.431609 
L 90.185697 216.431609 
L 92.590545 212.265319 
L 92.590545 212.265319 
L 94.995394 208.548356 
L 94.995394 208.548356 
L 98.362182 203.968527 
L 98.362182 203.968527 
L 100.76703 201.067071 
L 100.76703 201.067071 
L 104.133818 197.429206 
L 104.133818 197.429206 
L 106.538667 195.086924 
L 106.538667 195.086924 
L 110.386424 191.709723 
L 110.386424 191.709723 
L 114.234182 188.717488 
L 114.234182 188.717488 
L 117.12 186.68897 
L 117.12 186.68897 
L 121.448727 183.946578 
L 125.296485 181.775133 
L 125.296485 181.775133 
L 130.587152 179.141936 
L 130.587152 179.141936 
L 134.915879 177.246946 
L 134.915879 177.246946 
L 140.687515 175.013493 
L 140.687515 175.013493 
L 146.940121 172.872211 
L 146.940121 172.872211 
L 157.521455 169.56993 
L 157.521455 169.56993 
L 167.621818 166.352933 
L 173.874424 164.161768 
L 173.874424 164.161768 
L 181.569939 161.176103 
L 181.569939 161.176103 
L 188.784485 158.095853 
L 188.784485 158.095853 
L 212.352 147.553303 
L 217.161697 145.712089 
L 217.161697 145.712089 
L 223.414303 143.69449 
L 223.414303 143.69449 
L 227.262061 142.708655 
L 227.262061 142.708655 
L 229.666909 142.202921 
L 229.666909 142.202921 
L 234.957576 141.407995 
L 234.957576 141.407995 
L 239.286303 141.091264 
L 239.286303 141.091264 
L 245.057939 141.126636 
L 245.057939 141.126636 
L 248.424727 141.371404 
L 248.424727 141.371404 
L 253.715394 142.040581 
L 253.715394 142.040581 
L 261.410909 143.453481 
L 261.410909 143.453481 
L 265.739636 144.349926 
L 273.435152 145.816008 
L 273.435152 145.816008 
L 277.763879 146.4127 
L 277.763879 146.4127 
L 281.130667 146.690105 
L 281.130667 146.690105 
L 285.459394 146.738081 
L 298.445576 144.182631 
L 298.445576 144.182631 
L 301.812364 142.774478 
L 301.812364 142.774478 
L 306.141091 140.517472 
L 327.784727 124.785678 
L 348.466424 119.012268 
L 348.466424 119.012268 
L 350.390303 119.892008 
L 373.957818 151.891061 
L 398.487273 95.570797 
L 398.487273 95.570797 
" clip-path="url(#pfd4c2b2a68)" style="fill: none; stroke: #d62728; stroke-width: 1.5; stroke-linecap: square"/>
   </g>
   <g id="line2d_18">
    <path d="M 73.832727 257.052158 
L 76.718545 246.470714 
L 76.718545 246.470714 
L 79.123394 238.511068 
L 79.123394 238.511068 
L 81.528242 231.259325 
L 81.528242 231.259325 
L 84.414061 223.404181 
L 84.414061 223.404181 
L 86.818909 217.497032 
L 86.818909 217.497032 
L 90.185697 210.097924 
L 90.185697 210.097924 
L 92.590545 205.370779 
L 92.590545 205.370779 
L 94.995394 201.059944 
L 94.995394 201.059944 
L 98.362182 195.650628 
L 98.362182 195.650628 
L 100.76703 192.186265 
L 100.76703 192.186265 
L 104.133818 187.828628 
L 104.133818 187.828628 
L 106.538667 185.029693 
L 106.538667 185.029693 
L 109.424485 181.97626 
L 109.424485 181.97626 
L 112.310303 179.219485 
L 115.677091 176.332629 
L 115.677091 176.332629 
L 119.524848 173.409919 
L 119.524848 173.409919 
L 123.853576 170.530082 
L 123.853576 170.530082 
L 127.220364 168.544569 
L 127.220364 168.544569 
L 131.549091 166.269273 
L 136.839758 163.845741 
L 136.839758 163.845741 
L 140.687515 162.291135 
L 140.687515 162.291135 
L 144.054303 161.054157 
L 144.054303 161.054157 
L 150.787879 158.874863 
L 150.787879 158.874863 
L 157.521455 157.023782 
L 157.521455 157.023782 
L 163.293091 155.651401 
L 163.293091 155.651401 
L 169.545697 154.348913 
L 169.545697 154.348913 
L 179.165091 152.639671 
L 179.165091 152.639671 
L 188.784485 151.179839 
L 188.784485 151.179839 
L 217.161697 147.141692 
L 217.161697 147.141692 
L 227.262061 145.390232 
L 227.262061 145.390232 
L 234.957576 143.839256 
L 234.957576 143.839256 
L 245.057939 141.49092 
L 245.057939 141.49092 
L 253.715394 139.21779 
L 253.715394 139.21779 
L 265.739636 135.804922 
L 277.763879 132.420857 
L 277.763879 132.420857 
L 285.459394 130.502526 
L 298.445576 128.218943 
L 298.445576 128.218943 
L 304.217212 127.762127 
L 304.217212 127.762127 
L 306.141091 127.703311 
L 323.456 129.580075 
L 323.456 129.580075 
L 327.784727 130.745823 
L 350.390303 139.571856 
L 373.476848 139.522899 
L 373.476848 139.522899 
L 373.957818 139.168652 
L 398.487273 73.186693 
L 398.487273 73.186693 
" clip-path="url(#pfd4c2b2a68)" style="fill: none; stroke: #9467bd; stroke-width: 1.5; stroke-linecap: square"/>
   </g>
   <g id="line2d_19">
    <path d="M 73.832727 250.103698 
L 77.680485 237.641553 
L 77.680485 237.641553 
L 81.047273 227.49195 
L 81.047273 227.49195 
L 83.452121 220.768823 
L 83.452121 220.768823 
L 86.337939 213.335524 
L 86.337939 213.335524 
L 88.742788 207.689647 
L 88.742788 207.689647 
L 90.666667 203.534822 
L 90.666667 203.534822 
L 92.590545 199.69813 
L 92.590545 199.69813 
L 94.995394 195.33839 
L 94.995394 195.33839 
L 97.881212 190.718257 
L 97.881212 190.718257 
L 100.286061 187.346125 
L 100.286061 187.346125 
L 102.209939 184.938748 
L 102.209939 184.938748 
L 104.614788 182.263592 
L 104.614788 182.263592 
L 107.981576 179.076933 
L 107.981576 179.076933 
L 110.386424 177.149119 
L 110.386424 177.149119 
L 113.753212 174.858799 
L 113.753212 174.858799 
L 115.677091 173.730036 
L 115.677091 173.730036 
L 119.524848 171.781254 
L 119.524848 171.781254 
L 123.853576 169.945017 
L 123.853576 169.945017 
L 129.625212 167.813605 
L 129.625212 167.813605 
L 138.282667 164.700285 
L 138.282667 164.700285 
L 144.054303 162.39852 
L 144.054303 162.39852 
L 150.787879 159.343172 
L 150.787879 159.343172 
L 155.597576 156.910592 
L 155.597576 156.910592 
L 159.926303 154.568803 
L 159.926303 154.568803 
L 169.545697 149.048102 
L 169.545697 149.048102 
L 179.646061 143.265752 
L 179.646061 143.265752 
L 184.455758 140.700279 
L 184.455758 140.700279 
L 188.784485 138.564585 
L 188.784485 138.564585 
L 195.037091 135.84018 
L 195.037091 135.84018 
L 198.403879 134.571915 
L 198.403879 134.571915 
L 200.327758 133.913269 
L 200.327758 133.913269 
L 205.618424 132.354155 
L 205.618424 132.354155 
L 210.428121 131.253623 
L 210.428121 131.253623 
L 212.352 130.894434 
L 217.161697 130.184453 
L 217.161697 130.184453 
L 223.414303 129.614772 
L 223.414303 129.614772 
L 229.666909 129.355817 
L 229.666909 129.355817 
L 239.286303 129.31306 
L 239.286303 129.31306 
L 253.715394 129.310309 
L 253.715394 129.310309 
L 261.410909 129.055468 
L 261.410909 129.055468 
L 265.739636 128.800523 
L 277.763879 127.714202 
L 277.763879 127.714202 
L 298.445576 125.495416 
L 298.445576 125.495416 
L 306.141091 124.932106 
L 325.860848 123.946694 
L 325.860848 123.946694 
L 327.784727 123.772598 
L 348.466424 117.268366 
L 348.466424 117.268366 
L 350.390303 115.984096 
L 373.957818 88.832447 
L 398.487273 94.616155 
L 398.487273 94.616155 
" clip-path="url(#pfd4c2b2a68)" style="fill: none; stroke: #8c564b; stroke-width: 1.5; stroke-linecap: square"/>
   </g>
   <g id="line2d_20">
    <path d="M 73.832727 264.977255 
L 75.756606 253.131911 
L 75.756606 253.131911 
L 77.680485 242.851227 
L 77.680485 242.851227 
L 79.604364 233.932265 
L 79.604364 233.932265 
L 81.528242 226.19349 
L 81.528242 226.19349 
L 83.452121 219.473023 
L 83.452121 219.473023 
L 85.376 213.627013 
L 85.376 213.627013 
L 86.818909 209.739174 
L 86.818909 209.739174 
L 89.223758 204.063982 
L 89.223758 204.063982 
L 90.666667 201.072688 
L 90.666667 201.072688 
L 92.590545 197.48976 
L 92.590545 197.48976 
L 94.995394 193.555576 
L 94.995394 193.555576 
L 97.881212 189.466219 
L 97.881212 189.466219 
L 100.286061 186.462333 
L 100.286061 186.462333 
L 102.209939 184.262374 
L 102.209939 184.262374 
L 104.614788 181.709014 
L 104.614788 181.709014 
L 109.424485 177.062041 
L 109.424485 177.062041 
L 114.234182 172.794102 
L 114.234182 172.794102 
L 120.967758 167.170386 
L 120.967758 167.170386 
L 127.220364 162.217458 
L 127.220364 162.217458 
L 133.47297 157.560788 
L 133.47297 157.560788 
L 138.282667 154.239426 
L 138.282667 154.239426 
L 144.054303 150.621839 
L 144.054303 150.621839 
L 148.38303 148.205714 
L 148.38303 148.205714 
L 152.711758 146.060081 
L 152.711758 146.060081 
L 157.521455 143.995849 
L 157.521455 143.995849 
L 159.926303 143.08676 
L 159.926303 143.08676 
L 165.697939 141.217497 
L 165.697939 141.217497 
L 169.545697 140.193229 
L 169.545697 140.193229 
L 173.874424 139.22151 
L 173.874424 139.22151 
L 181.569939 137.858293 
L 181.569939 137.858293 
L 188.784485 136.847448 
L 188.784485 136.847448 
L 208.023273 134.314203 
L 208.023273 134.314203 
L 217.161697 132.847311 
L 217.161697 132.847311 
L 229.666909 130.501573 
L 229.666909 130.501573 
L 273.435152 121.646649 
L 273.435152 121.646649 
L 281.130667 119.851416 
L 281.130667 119.851416 
L 285.459394 118.706503 
L 298.445576 114.457966 
L 298.445576 114.457966 
L 305.660121 111.515472 
L 305.660121 111.515472 
L 306.141091 111.305812 
L 325.860848 102.262832 
L 325.860848 102.262832 
L 327.784727 101.476724 
L 348.466424 98.539993 
L 348.466424 98.539993 
L 350.390303 99.02181 
L 373.957818 114.01202 
L 398.487273 61.422146 
L 398.487273 61.422146 
" clip-path="url(#pfd4c2b2a68)" style="fill: none; stroke: #e377c2; stroke-width: 1.5; stroke-linecap: square"/>
   </g>
   <g id="line2d_21">
    <path d="M 73.832727 257.487811 
L 75.756606 245.052227 
L 75.756606 245.052227 
L 77.680485 234.410278 
L 77.680485 234.410278 
L 79.604364 225.305859 
L 79.604364 225.305859 
L 81.528242 217.512658 
L 81.528242 217.512658 
L 83.452121 210.831532 
L 83.452121 210.831532 
L 85.376 205.088043 
L 85.376 205.088043 
L 86.818909 201.303512 
L 86.818909 201.303512 
L 89.223758 195.82611 
L 89.223758 195.82611 
L 90.666667 192.958238 
L 90.666667 192.958238 
L 92.590545 189.535211 
L 92.590545 189.535211 
L 94.995394 185.782217 
L 94.995394 185.782217 
L 97.881212 181.870755 
L 97.881212 181.870755 
L 100.76703 178.431359 
L 100.76703 178.431359 
L 104.614788 174.347661 
L 104.614788 174.347661 
L 109.424485 169.759472 
L 109.424485 169.759472 
L 114.234182 165.539453 
L 114.234182 165.539453 
L 119.524848 161.230217 
L 119.524848 161.230217 
L 123.853576 157.973519 
L 123.853576 157.973519 
L 128.663273 154.689597 
L 128.663273 154.689597 
L 131.549091 152.913856 
L 134.915879 151.046484 
L 134.915879 151.046484 
L 138.282667 149.412583 
L 138.282667 149.412583 
L 142.611394 147.666146 
L 142.611394 147.666146 
L 144.054303 147.172526 
L 144.054303 147.172526 
L 148.38303 145.948344 
L 148.38303 145.948344 
L 152.711758 145.082314 
L 152.711758 145.082314 
L 155.597576 144.679855 
L 155.597576 144.679855 
L 159.926303 144.291428 
L 159.926303 144.291428 
L 167.621818 144.022584 
L 177.241212 143.829044 
L 177.241212 143.829044 
L 181.569939 143.576144 
L 181.569939 143.576144 
L 184.455758 143.299572 
L 184.455758 143.299572 
L 188.784485 142.681621 
L 188.784485 142.681621 
L 194.556121 141.416443 
L 194.556121 141.416443 
L 198.403879 140.268188 
L 198.403879 140.268188 
L 200.327758 139.600824 
L 200.327758 139.600824 
L 205.618424 137.454284 
L 205.618424 137.454284 
L 210.428121 135.138225 
L 210.428121 135.138225 
L 212.352 134.127038 
L 217.161697 131.427492 
L 217.161697 131.427492 
L 228.70497 124.416484 
L 228.70497 124.416484 
L 234.957576 120.686488 
L 234.957576 120.686488 
L 239.286303 118.287215 
L 239.286303 118.287215 
L 245.057939 115.450607 
L 245.057939 115.450607 
L 248.424727 114.033411 
L 248.424727 114.033411 
L 253.715394 112.213245 
L 253.715394 112.213245 
L 258.044121 111.117734 
L 258.044121 111.117734 
L 261.410909 110.513653 
L 261.410909 110.513653 
L 265.739636 110.043831 
L 273.435152 109.956016 
L 273.435152 109.956016 
L 281.130667 110.544504 
L 281.130667 110.544504 
L 285.459394 111.009689 
L 298.445576 111.947504 
L 301.812364 111.877326 
L 301.812364 111.877326 
L 306.141091 111.499625 
L 323.456 106.437721 
L 323.456 106.437721 
L 327.784727 104.492099 
L 348.466424 97.715422 
L 348.466424 97.715422 
L 350.390303 97.779714 
L 373.957818 112.770023 
L 398.487273 53.568 
L 398.487273 53.568 
" clip-path="url(#pfd4c2b2a68)" style="fill: none; stroke: #7f7f7f; stroke-width: 1.5; stroke-linecap: square"/>
   </g>
   <g id="line2d_22">
    <path d="M 73.832727 248.677656 
L 75.756606 237.373764 
L 75.756606 237.373764 
L 77.680485 227.849268 
L 77.680485 227.849268 
L 79.604364 219.822263 
L 79.604364 219.822263 
L 81.528242 213.045629 
L 81.528242 213.045629 
L 83.452121 207.303853 
L 83.452121 207.303853 
L 85.376 202.410057 
L 85.376 202.410057 
L 86.818909 199.198442 
L 86.818909 199.198442 
L 89.223758 194.545664 
L 89.223758 194.545664 
L 90.666667 192.091934 
L 90.666667 192.091934 
L 92.590545 189.125752 
L 92.590545 189.125752 
L 94.995394 185.791486 
L 94.995394 185.791486 
L 98.362182 181.589091 
L 98.362182 181.589091 
L 103.652848 175.540074 
L 103.652848 175.540074 
L 119.524848 158.050192 
L 119.524848 158.050192 
L 125.296485 151.947669 
L 125.296485 151.947669 
L 130.587152 146.767384 
L 130.587152 146.767384 
L 133.47297 144.173585 
L 133.47297 144.173585 
L 137.320727 141.017305 
L 137.320727 141.017305 
L 140.687515 138.563545 
L 140.687515 138.563545 
L 144.054303 136.409501 
L 144.054303 136.409501 
L 148.38303 134.078936 
L 148.38303 134.078936 
L 150.787879 132.989183 
L 150.787879 132.989183 
L 154.635636 131.526029 
L 158.002424 130.498144 
L 158.002424 130.498144 
L 159.926303 130.002001 
L 159.926303 130.002001 
L 165.697939 128.823704 
L 165.697939 128.823704 
L 169.545697 128.21484 
L 169.545697 128.21484 
L 181.569939 126.442884 
L 181.569939 126.442884 
L 184.455758 125.913253 
L 184.455758 125.913253 
L 188.784485 124.96689 
L 188.784485 124.96689 
L 195.037091 123.21578 
L 195.037091 123.21578 
L 198.403879 122.072481 
L 198.403879 122.072481 
L 200.327758 121.357781 
L 200.327758 121.357781 
L 205.618424 119.184685 
L 205.618424 119.184685 
L 212.352 116.085917 
L 224.857212 110.179752 
L 224.857212 110.179752 
L 229.666909 108.203281 
L 229.666909 108.203281 
L 234.957576 106.434097 
L 234.957576 106.434097 
L 239.286303 105.396805 
L 239.286303 105.396805 
L 242.653091 104.888686 
L 242.653091 104.888686 
L 246.981818 104.656139 
L 248.424727 104.68817 
L 248.424727 104.68817 
L 253.715394 105.280344 
L 253.715394 105.280344 
L 258.044121 106.304652 
L 258.044121 106.304652 
L 261.410909 107.410262 
L 265.739636 109.173864 
L 273.435152 112.974377 
L 273.435152 112.974377 
L 281.130667 117.010278 
L 281.130667 117.010278 
L 285.459394 119.062023 
L 298.445576 122.377296 
L 298.445576 122.377296 
L 301.812364 122.188283 
L 301.812364 122.188283 
L 304.217212 121.723806 
L 304.217212 121.723806 
L 306.141091 121.143831 
L 323.456 107.478818 
L 323.456 107.478818 
L 348.466424 77.022518 
L 348.466424 77.022518 
L 350.390303 75.734973 
L 373.476848 93.351997 
L 373.476848 93.351997 
L 373.957818 94.358919 
L 398.487273 98.861304 
L 398.487273 98.861304 
" clip-path="url(#pfd4c2b2a68)" style="fill: none; stroke: #bcbd22; stroke-width: 1.5; stroke-linecap: square"/>
   </g>
   <g id="line2d_23">
    <path d="M 73.832727 246.216322 
L 75.756606 236.762377 
L 75.756606 236.762377 
L 77.680485 228.21897 
L 77.680485 228.21897 
L 79.604364 220.486255 
L 79.604364 220.486255 
L 81.528242 213.475472 
L 81.528242 213.475472 
L 83.452121 207.107889 
L 83.452121 207.107889 
L 85.376 201.313818 
L 85.376 201.313818 
L 86.818909 197.30732 
L 86.818909 197.30732 
L 90.185697 188.951547 
L 90.185697 188.951547 
L 92.590545 183.725528 
L 92.590545 183.725528 
L 94.995394 179.031002 
L 94.995394 179.031002 
L 97.881212 174.009527 
L 97.881212 174.009527 
L 100.286061 170.272125 
L 100.286061 170.272125 
L 102.209939 167.542212 
L 102.209939 167.542212 
L 104.614788 164.422434 
L 104.614788 164.422434 
L 107.981576 160.542339 
L 107.981576 160.542339 
L 110.386424 158.081117 
L 110.386424 158.081117 
L 113.753212 155.019483 
L 113.753212 155.019483 
L 115.677091 153.451975 
L 115.677091 153.451975 
L 119.043879 150.993951 
L 119.043879 150.993951 
L 121.448727 149.439528 
L 121.448727 149.439528 
L 125.296485 147.259741 
L 125.296485 147.259741 
L 129.625212 145.196733 
L 129.625212 145.196733 
L 133.47297 143.648373 
L 133.47297 143.648373 
L 138.282667 142.00696 
L 138.282667 142.00696 
L 144.054303 140.335895 
L 144.054303 140.335895 
L 163.293091 135.148823 
L 163.293091 135.148823 
L 167.621818 133.724697 
L 167.621818 133.724697 
L 173.393455 131.550606 
L 173.393455 131.550606 
L 177.241212 129.911399 
L 177.241212 129.911399 
L 181.569939 127.885413 
L 181.569939 127.885413 
L 184.455758 126.433671 
L 184.455758 126.433671 
L 192.151273 122.232364 
L 192.151273 122.232364 
L 212.352 110.600725 
L 212.352 110.600725 
L 217.161697 108.193693 
L 217.161697 108.193693 
L 223.414303 105.559577 
L 223.414303 105.559577 
L 227.262061 104.283885 
L 227.262061 104.283885 
L 229.666909 103.638484 
L 229.666909 103.638484 
L 234.957576 102.663959 
L 234.957576 102.663959 
L 239.286303 102.344983 
L 239.286303 102.344983 
L 242.653091 102.400136 
L 242.653091 102.400136 
L 246.981818 102.853386 
L 246.981818 102.853386 
L 248.424727 103.096412 
L 248.424727 103.096412 
L 253.715394 104.349444 
L 253.715394 104.349444 
L 258.044121 105.745568 
L 258.044121 105.745568 
L 263.815758 107.993416 
L 263.815758 107.993416 
L 277.763879 113.928571 
L 277.763879 113.928571 
L 283.535515 115.912529 
L 283.535515 115.912529 
L 285.459394 116.433353 
L 285.459394 116.433353 
L 298.445576 117.219569 
L 298.445576 117.219569 
L 301.812364 116.470125 
L 301.812364 116.470125 
L 305.660121 115.070226 
L 305.660121 115.070226 
L 306.141091 114.853907 
L 306.141091 114.853907 
L 323.456 101.507384 
L 323.456 101.507384 
L 327.784727 96.943522 
L 327.784727 96.943522 
L 348.466424 78.275158 
L 348.466424 78.275158 
L 350.390303 77.541038 
L 350.390303 77.541038 
L 373.476848 95.666827 
L 373.476848 95.666827 
L 373.957818 96.568724 
L 373.957818 96.568724 
L 398.487273 119.131707 
L 398.487273 119.131707 
" clip-path="url(#pfd4c2b2a68)" style="fill: none; stroke: #17becf; stroke-width: 1.5; stroke-linecap: square"/>
   </g>
   <g id="line2d_24">
    <path d="M 73.832727 235.977926 
L 77.199515 223.377309 
L 77.199515 223.377309 
L 79.604364 215.043155 
L 79.604364 215.043155 
L 82.490182 205.827372 
L 82.490182 205.827372 
L 84.89503 198.817395 
L 84.89503 198.817395 
L 86.818909 193.647164 
L 86.818909 193.647164 
L 90.185697 185.513243 
L 90.185697 185.513243 
L 92.590545 180.385904 
L 92.590545 180.385904 
L 94.995394 175.79284 
L 94.995394 175.79284 
L 97.881212 170.935125 
L 97.881212 170.935125 
L 100.286061 167.385007 
L 100.286061 167.385007 
L 102.209939 164.840487 
L 102.209939 164.840487 
L 104.614788 161.993022 
L 104.614788 161.993022 
L 107.981576 158.5512 
L 107.981576 158.5512 
L 110.386424 156.424358 
L 110.386424 156.424358 
L 113.753212 153.825329 
L 113.753212 153.825329 
L 117.12 151.575283 
L 117.12 151.575283 
L 121.448727 149.04762 
L 121.448727 149.04762 
L 127.220364 146.054347 
L 127.220364 146.054347 
L 144.054303 137.639072 
L 144.054303 137.639072 
L 154.635636 131.901509 
L 154.635636 131.901509 
L 164.25503 126.689063 
L 164.25503 126.689063 
L 169.545697 124.026585 
L 169.545697 124.026585 
L 173.874424 122.041099 
L 173.874424 122.041099 
L 179.646061 119.745574 
L 179.646061 119.745574 
L 181.569939 119.082675 
L 181.569939 119.082675 
L 184.455758 118.191981 
L 184.455758 118.191981 
L 188.784485 117.097873 
L 188.784485 117.097873 
L 194.556121 116.095612 
L 194.556121 116.095612 
L 198.403879 115.706421 
L 198.403879 115.706421 
L 200.327758 115.589531 
L 200.327758 115.589531 
L 205.618424 115.504692 
L 205.618424 115.504692 
L 211.87103 115.759183 
L 211.87103 115.759183 
L 217.161697 116.155806 
L 217.161697 116.155806 
L 227.262061 116.92279 
L 227.262061 116.92279 
L 229.666909 117.032394 
L 229.666909 117.032394 
L 234.957576 117.077362 
L 234.957576 117.077362 
L 239.286303 116.853999 
L 239.286303 116.853999 
L 242.653091 116.484057 
L 242.653091 116.484057 
L 246.981818 115.724766 
L 246.981818 115.724766 
L 248.424727 115.396438 
L 248.424727 115.396438 
L 253.715394 113.858583 
L 253.715394 113.858583 
L 258.044121 112.20947 
L 258.044121 112.20947 
L 263.815758 109.493149 
L 263.815758 109.493149 
L 265.739636 108.468508 
L 265.739636 108.468508 
L 273.435152 103.896935 
L 273.435152 103.896935 
L 285.459394 96.035525 
L 285.459394 96.035525 
L 298.445576 88.619791 
L 298.445576 88.619791 
L 301.812364 87.199378 
L 301.812364 87.199378 
L 306.141091 85.801453 
L 306.141091 85.801453 
L 323.456 85.947539 
L 323.456 85.947539 
L 327.784727 87.422101 
L 327.784727 87.422101 
L 350.390303 99.322025 
L 350.390303 99.322025 
L 373.476848 100.493347 
L 373.476848 100.493347 
L 373.957818 100.300827 
L 373.957818 100.300827 
L 398.487273 110.762941 
L 398.487273 110.762941 
" clip-path="url(#pfd4c2b2a68)" style="fill: none; stroke: #1f77b4; stroke-width: 1.5; stroke-linecap: square"/>
   </g>
   <g id="patch_3">
    <path d="M 57.6 307.584 
L 57.6 41.472 
" style="fill: none; stroke: #000000; stroke-width: 0.8; stroke-linejoin: miter; stroke-linecap: square"/>
   </g>
   <g id="patch_4">
    <path d="M 414.72 307.584 
L 414.72 41.472 
" style="fill: none; stroke: #000000; stroke-width: 0.8; stroke-linejoin: miter; stroke-linecap: square"/>
   </g>
   <g id="patch_5">
    <path d="M 57.6 307.584 
L 414.72 307.584 
" style="fill: none; stroke: #000000; stroke-width: 0.8; stroke-linejoin: miter; stroke-linecap: square"/>
   </g>
   <g id="patch_6">
    <path d="M 57.6 41.472 
L 414.72 41.472 
" style="fill: none; stroke: #000000; stroke-width: 0.8; stroke-linejoin: miter; stroke-linecap: square"/>
   </g>
   <g id="text_16">
    <!-- QBER influence on mean number of required re-runs of TPM with L=1 -->
    <g transform="translate(27.479062 35.472)scale(0.12 -0.12)">
     <defs>
      <path id="DejaVuSans-51" d="M 2522 4238 
Q 1834 4238 1429 3725 
Q 1025 3213 1025 2328 
Q 1025 1447 1429 934 
Q 1834 422 2522 422 
Q 3209 422 3611 934 
Q 4013 1447 4013 2328 
Q 4013 3213 3611 3725 
Q 3209 4238 2522 4238 
z
M 3406 84 
L 4238 -825 
L 3475 -825 
L 2784 -78 
Q 2681 -84 2626 -87 
Q 2572 -91 2522 -91 
Q 1538 -91 948 567 
Q 359 1225 359 2328 
Q 359 3434 948 4092 
Q 1538 4750 2522 4750 
Q 3503 4750 4090 4092 
Q 4678 3434 4678 2328 
Q 4678 1516 4351 937 
Q 4025 359 3406 84 
z
" transform="scale(0.015625)"/>
      <path id="DejaVuSans-42" d="M 1259 2228 
L 1259 519 
L 2272 519 
Q 2781 519 3026 730 
Q 3272 941 3272 1375 
Q 3272 1813 3026 2020 
Q 2781 2228 2272 2228 
L 1259 2228 
z
M 1259 4147 
L 1259 2741 
L 2194 2741 
Q 2656 2741 2882 2914 
Q 3109 3088 3109 3444 
Q 3109 3797 2882 3972 
Q 2656 4147 2194 4147 
L 1259 4147 
z
M 628 4666 
L 2241 4666 
Q 2963 4666 3353 4366 
Q 3744 4066 3744 3513 
Q 3744 3084 3544 2831 
Q 3344 2578 2956 2516 
Q 3422 2416 3680 2098 
Q 3938 1781 3938 1306 
Q 3938 681 3513 340 
Q 3088 0 2303 0 
L 628 0 
L 628 4666 
z
" transform="scale(0.015625)"/>
      <path id="DejaVuSans-45" d="M 628 4666 
L 3578 4666 
L 3578 4134 
L 1259 4134 
L 1259 2753 
L 3481 2753 
L 3481 2222 
L 1259 2222 
L 1259 531 
L 3634 531 
L 3634 0 
L 628 0 
L 628 4666 
z
" transform="scale(0.015625)"/>
      <path id="DejaVuSans-52" d="M 2841 2188 
Q 3044 2119 3236 1894 
Q 3428 1669 3622 1275 
L 4263 0 
L 3584 0 
L 2988 1197 
Q 2756 1666 2539 1819 
Q 2322 1972 1947 1972 
L 1259 1972 
L 1259 0 
L 628 0 
L 628 4666 
L 2053 4666 
Q 2853 4666 3247 4331 
Q 3641 3997 3641 3322 
Q 3641 2881 3436 2590 
Q 3231 2300 2841 2188 
z
M 1259 4147 
L 1259 2491 
L 2053 2491 
Q 2509 2491 2742 2702 
Q 2975 2913 2975 3322 
Q 2975 3731 2742 3939 
Q 2509 4147 2053 4147 
L 1259 4147 
z
" transform="scale(0.015625)"/>
      <path id="DejaVuSans-63" d="M 3122 3366 
L 3122 2828 
Q 2878 2963 2633 3030 
Q 2388 3097 2138 3097 
Q 1578 3097 1268 2742 
Q 959 2388 959 1747 
Q 959 1106 1268 751 
Q 1578 397 2138 397 
Q 2388 397 2633 464 
Q 2878 531 3122 666 
L 3122 134 
Q 2881 22 2623 -34 
Q 2366 -91 2075 -91 
Q 1284 -91 818 406 
Q 353 903 353 1747 
Q 353 2603 823 3093 
Q 1294 3584 2113 3584 
Q 2378 3584 2631 3529 
Q 2884 3475 3122 3366 
z
" transform="scale(0.015625)"/>
      <path id="DejaVuSans-2d" d="M 313 2009 
L 1997 2009 
L 1997 1497 
L 313 1497 
L 313 2009 
z
" transform="scale(0.015625)"/>
      <path id="DejaVuSans-77" d="M 269 3500 
L 844 3500 
L 1563 769 
L 2278 3500 
L 2956 3500 
L 3675 769 
L 4391 3500 
L 4966 3500 
L 4050 0 
L 3372 0 
L 2619 2869 
L 1863 0 
L 1184 0 
L 269 3500 
z
" transform="scale(0.015625)"/>
      <path id="DejaVuSans-4c" d="M 628 4666 
L 1259 4666 
L 1259 531 
L 3531 531 
L 3531 0 
L 628 0 
L 628 4666 
z
" transform="scale(0.015625)"/>
      <path id="DejaVuSans-3d" d="M 678 2906 
L 4684 2906 
L 4684 2381 
L 678 2381 
L 678 2906 
z
M 678 1631 
L 4684 1631 
L 4684 1100 
L 678 1100 
L 678 1631 
z
" transform="scale(0.015625)"/>
     </defs>
     <use xlink:href="#DejaVuSans-51"/>
     <use xlink:href="#DejaVuSans-42" x="78.710938"/>
     <use xlink:href="#DejaVuSans-45" x="147.314453"/>
     <use xlink:href="#DejaVuSans-52" x="210.498047"/>
     <use xlink:href="#DejaVuSans-20" x="279.980469"/>
     <use xlink:href="#DejaVuSans-69" x="311.767578"/>
     <use xlink:href="#DejaVuSans-6e" x="339.550781"/>
     <use xlink:href="#DejaVuSans-66" x="402.929688"/>
     <use xlink:href="#DejaVuSans-6c" x="438.134766"/>
     <use xlink:href="#DejaVuSans-75" x="465.917969"/>
     <use xlink:href="#DejaVuSans-65" x="529.296875"/>
     <use xlink:href="#DejaVuSans-6e" x="590.820312"/>
     <use xlink:href="#DejaVuSans-63" x="654.199219"/>
     <use xlink:href="#DejaVuSans-65" x="709.179688"/>
     <use xlink:href="#DejaVuSans-20" x="770.703125"/>
     <use xlink:href="#DejaVuSans-6f" x="802.490234"/>
     <use xlink:href="#DejaVuSans-6e" x="863.671875"/>
     <use xlink:href="#DejaVuSans-20" x="927.050781"/>
     <use xlink:href="#DejaVuSans-6d" x="958.837891"/>
     <use xlink:href="#DejaVuSans-65" x="1056.25"/>
     <use xlink:href="#DejaVuSans-61" x="1117.773438"/>
     <use xlink:href="#DejaVuSans-6e" x="1179.052734"/>
     <use xlink:href="#DejaVuSans-20" x="1242.431641"/>
     <use xlink:href="#DejaVuSans-6e" x="1274.21875"/>
     <use xlink:href="#DejaVuSans-75" x="1337.597656"/>
     <use xlink:href="#DejaVuSans-6d" x="1400.976562"/>
     <use xlink:href="#DejaVuSans-62" x="1498.388672"/>
     <use xlink:href="#DejaVuSans-65" x="1561.865234"/>
     <use xlink:href="#DejaVuSans-72" x="1623.388672"/>
     <use xlink:href="#DejaVuSans-20" x="1664.501953"/>
     <use xlink:href="#DejaVuSans-6f" x="1696.289062"/>
     <use xlink:href="#DejaVuSans-66" x="1757.470703"/>
     <use xlink:href="#DejaVuSans-20" x="1792.675781"/>
     <use xlink:href="#DejaVuSans-72" x="1824.462891"/>
     <use xlink:href="#DejaVuSans-65" x="1863.326172"/>
     <use xlink:href="#DejaVuSans-71" x="1924.849609"/>
     <use xlink:href="#DejaVuSans-75" x="1988.326172"/>
     <use xlink:href="#DejaVuSans-69" x="2051.705078"/>
     <use xlink:href="#DejaVuSans-72" x="2079.488281"/>
     <use xlink:href="#DejaVuSans-65" x="2118.351562"/>
     <use xlink:href="#DejaVuSans-64" x="2179.875"/>
     <use xlink:href="#DejaVuSans-20" x="2243.351562"/>
     <use xlink:href="#DejaVuSans-72" x="2275.138672"/>
     <use xlink:href="#DejaVuSans-65" x="2314.001953"/>
     <use xlink:href="#DejaVuSans-2d" x="2375.525391"/>
     <use xlink:href="#DejaVuSans-72" x="2411.609375"/>
     <use xlink:href="#DejaVuSans-75" x="2452.722656"/>
     <use xlink:href="#DejaVuSans-6e" x="2516.101562"/>
     <use xlink:href="#DejaVuSans-73" x="2579.480469"/>
     <use xlink:href="#DejaVuSans-20" x="2631.580078"/>
     <use xlink:href="#DejaVuSans-6f" x="2663.367188"/>
     <use xlink:href="#DejaVuSans-66" x="2724.548828"/>
     <use xlink:href="#DejaVuSans-20" x="2759.753906"/>
     <use xlink:href="#DejaVuSans-54" x="2791.541016"/>
     <use xlink:href="#DejaVuSans-50" x="2852.625"/>
     <use xlink:href="#DejaVuSans-4d" x="2912.927734"/>
     <use xlink:href="#DejaVuSans-20" x="2999.207031"/>
     <use xlink:href="#DejaVuSans-77" x="3030.994141"/>
     <use xlink:href="#DejaVuSans-69" x="3112.78125"/>
     <use xlink:href="#DejaVuSans-74" x="3140.564453"/>
     <use xlink:href="#DejaVuSans-68" x="3179.773438"/>
     <use xlink:href="#DejaVuSans-20" x="3243.152344"/>
     <use xlink:href="#DejaVuSans-4c" x="3274.939453"/>
     <use xlink:href="#DejaVuSans-3d" x="3330.652344"/>
     <use xlink:href="#DejaVuSans-31" x="3414.441406"/>
    </g>
   </g>
   <g id="legend_1">
    <g id="patch_7">
     <path d="M 328.760625 302.584 
L 407.72 302.584 
Q 409.72 302.584 409.72 300.584 
L 409.72 140.124625 
Q 409.72 138.124625 407.72 138.124625 
L 328.760625 138.124625 
Q 326.760625 138.124625 326.760625 140.124625 
L 326.760625 300.584 
Q 326.760625 302.584 328.760625 302.584 
z
" style="fill: #ffffff; opacity: 0.8; stroke: #cccccc; stroke-linejoin: miter"/>
    </g>
    <g id="line2d_25">
     <path d="M 330.760625 146.223062 
L 340.760625 146.223062 
L 350.760625 146.223062 
" style="fill: none; stroke: #1f77b4; stroke-width: 1.5; stroke-linecap: square"/>
    </g>
    <g id="text_17">
     <!-- QBER: 1 -->
     <g transform="translate(358.760625 149.723062)scale(0.1 -0.1)">
      <defs>
       <path id="DejaVuSans-3a" d="M 750 794 
L 1409 794 
L 1409 0 
L 750 0 
L 750 794 
z
M 750 3309 
L 1409 3309 
L 1409 2516 
L 750 2516 
L 750 3309 
z
" transform="scale(0.015625)"/>
      </defs>
      <use xlink:href="#DejaVuSans-51"/>
      <use xlink:href="#DejaVuSans-42" x="78.710938"/>
      <use xlink:href="#DejaVuSans-45" x="147.314453"/>
      <use xlink:href="#DejaVuSans-52" x="210.498047"/>
      <use xlink:href="#DejaVuSans-3a" x="276.855469"/>
      <use xlink:href="#DejaVuSans-20" x="310.546875"/>
      <use xlink:href="#DejaVuSans-31" x="342.333984"/>
     </g>
    </g>
    <g id="line2d_26">
     <path d="M 330.760625 160.901188 
L 340.760625 160.901188 
L 350.760625 160.901188 
" style="fill: none; stroke: #ff7f0e; stroke-width: 1.5; stroke-linecap: square"/>
    </g>
    <g id="text_18">
     <!-- QBER: 2 -->
     <g transform="translate(358.760625 164.401188)scale(0.1 -0.1)">
      <use xlink:href="#DejaVuSans-51"/>
      <use xlink:href="#DejaVuSans-42" x="78.710938"/>
      <use xlink:href="#DejaVuSans-45" x="147.314453"/>
      <use xlink:href="#DejaVuSans-52" x="210.498047"/>
      <use xlink:href="#DejaVuSans-3a" x="276.855469"/>
      <use xlink:href="#DejaVuSans-20" x="310.546875"/>
      <use xlink:href="#DejaVuSans-32" x="342.333984"/>
     </g>
    </g>
    <g id="line2d_27">
     <path d="M 330.760625 175.579313 
L 340.760625 175.579313 
L 350.760625 175.579313 
" style="fill: none; stroke: #2ca02c; stroke-width: 1.5; stroke-linecap: square"/>
    </g>
    <g id="text_19">
     <!-- QBER: 3 -->
     <g transform="translate(358.760625 179.079313)scale(0.1 -0.1)">
      <defs>
       <path id="DejaVuSans-33" d="M 2597 2516 
Q 3050 2419 3304 2112 
Q 3559 1806 3559 1356 
Q 3559 666 3084 287 
Q 2609 -91 1734 -91 
Q 1441 -91 1130 -33 
Q 819 25 488 141 
L 488 750 
Q 750 597 1062 519 
Q 1375 441 1716 441 
Q 2309 441 2620 675 
Q 2931 909 2931 1356 
Q 2931 1769 2642 2001 
Q 2353 2234 1838 2234 
L 1294 2234 
L 1294 2753 
L 1863 2753 
Q 2328 2753 2575 2939 
Q 2822 3125 2822 3475 
Q 2822 3834 2567 4026 
Q 2313 4219 1838 4219 
Q 1578 4219 1281 4162 
Q 984 4106 628 3988 
L 628 4550 
Q 988 4650 1302 4700 
Q 1616 4750 1894 4750 
Q 2613 4750 3031 4423 
Q 3450 4097 3450 3541 
Q 3450 3153 3228 2886 
Q 3006 2619 2597 2516 
z
" transform="scale(0.015625)"/>
      </defs>
      <use xlink:href="#DejaVuSans-51"/>
      <use xlink:href="#DejaVuSans-42" x="78.710938"/>
      <use xlink:href="#DejaVuSans-45" x="147.314453"/>
      <use xlink:href="#DejaVuSans-52" x="210.498047"/>
      <use xlink:href="#DejaVuSans-3a" x="276.855469"/>
      <use xlink:href="#DejaVuSans-20" x="310.546875"/>
      <use xlink:href="#DejaVuSans-33" x="342.333984"/>
     </g>
    </g>
    <g id="line2d_28">
     <path d="M 330.760625 190.257438 
L 340.760625 190.257438 
L 350.760625 190.257438 
" style="fill: none; stroke: #d62728; stroke-width: 1.5; stroke-linecap: square"/>
    </g>
    <g id="text_20">
     <!-- QBER: 4 -->
     <g transform="translate(358.760625 193.757438)scale(0.1 -0.1)">
      <defs>
       <path id="DejaVuSans-34" d="M 2419 4116 
L 825 1625 
L 2419 1625 
L 2419 4116 
z
M 2253 4666 
L 3047 4666 
L 3047 1625 
L 3713 1625 
L 3713 1100 
L 3047 1100 
L 3047 0 
L 2419 0 
L 2419 1100 
L 313 1100 
L 313 1709 
L 2253 4666 
z
" transform="scale(0.015625)"/>
      </defs>
      <use xlink:href="#DejaVuSans-51"/>
      <use xlink:href="#DejaVuSans-42" x="78.710938"/>
      <use xlink:href="#DejaVuSans-45" x="147.314453"/>
      <use xlink:href="#DejaVuSans-52" x="210.498047"/>
      <use xlink:href="#DejaVuSans-3a" x="276.855469"/>
      <use xlink:href="#DejaVuSans-20" x="310.546875"/>
      <use xlink:href="#DejaVuSans-34" x="342.333984"/>
     </g>
    </g>
    <g id="line2d_29">
     <path d="M 330.760625 204.935563 
L 340.760625 204.935563 
L 350.760625 204.935563 
" style="fill: none; stroke: #9467bd; stroke-width: 1.5; stroke-linecap: square"/>
    </g>
    <g id="text_21">
     <!-- QBER: 5 -->
     <g transform="translate(358.760625 208.435563)scale(0.1 -0.1)">
      <use xlink:href="#DejaVuSans-51"/>
      <use xlink:href="#DejaVuSans-42" x="78.710938"/>
      <use xlink:href="#DejaVuSans-45" x="147.314453"/>
      <use xlink:href="#DejaVuSans-52" x="210.498047"/>
      <use xlink:href="#DejaVuSans-3a" x="276.855469"/>
      <use xlink:href="#DejaVuSans-20" x="310.546875"/>
      <use xlink:href="#DejaVuSans-35" x="342.333984"/>
     </g>
    </g>
    <g id="line2d_30">
     <path d="M 330.760625 219.613688 
L 340.760625 219.613688 
L 350.760625 219.613688 
" style="fill: none; stroke: #8c564b; stroke-width: 1.5; stroke-linecap: square"/>
    </g>
    <g id="text_22">
     <!-- QBER: 6 -->
     <g transform="translate(358.760625 223.113688)scale(0.1 -0.1)">
      <defs>
       <path id="DejaVuSans-36" d="M 2113 2584 
Q 1688 2584 1439 2293 
Q 1191 2003 1191 1497 
Q 1191 994 1439 701 
Q 1688 409 2113 409 
Q 2538 409 2786 701 
Q 3034 994 3034 1497 
Q 3034 2003 2786 2293 
Q 2538 2584 2113 2584 
z
M 3366 4563 
L 3366 3988 
Q 3128 4100 2886 4159 
Q 2644 4219 2406 4219 
Q 1781 4219 1451 3797 
Q 1122 3375 1075 2522 
Q 1259 2794 1537 2939 
Q 1816 3084 2150 3084 
Q 2853 3084 3261 2657 
Q 3669 2231 3669 1497 
Q 3669 778 3244 343 
Q 2819 -91 2113 -91 
Q 1303 -91 875 529 
Q 447 1150 447 2328 
Q 447 3434 972 4092 
Q 1497 4750 2381 4750 
Q 2619 4750 2861 4703 
Q 3103 4656 3366 4563 
z
" transform="scale(0.015625)"/>
      </defs>
      <use xlink:href="#DejaVuSans-51"/>
      <use xlink:href="#DejaVuSans-42" x="78.710938"/>
      <use xlink:href="#DejaVuSans-45" x="147.314453"/>
      <use xlink:href="#DejaVuSans-52" x="210.498047"/>
      <use xlink:href="#DejaVuSans-3a" x="276.855469"/>
      <use xlink:href="#DejaVuSans-20" x="310.546875"/>
      <use xlink:href="#DejaVuSans-36" x="342.333984"/>
     </g>
    </g>
    <g id="line2d_31">
     <path d="M 330.760625 234.291812 
L 340.760625 234.291812 
L 350.760625 234.291812 
" style="fill: none; stroke: #e377c2; stroke-width: 1.5; stroke-linecap: square"/>
    </g>
    <g id="text_23">
     <!-- QBER: 7 -->
     <g transform="translate(358.760625 237.791812)scale(0.1 -0.1)">
      <use xlink:href="#DejaVuSans-51"/>
      <use xlink:href="#DejaVuSans-42" x="78.710938"/>
      <use xlink:href="#DejaVuSans-45" x="147.314453"/>
      <use xlink:href="#DejaVuSans-52" x="210.498047"/>
      <use xlink:href="#DejaVuSans-3a" x="276.855469"/>
      <use xlink:href="#DejaVuSans-20" x="310.546875"/>
      <use xlink:href="#DejaVuSans-37" x="342.333984"/>
     </g>
    </g>
    <g id="line2d_32">
     <path d="M 330.760625 248.969938 
L 340.760625 248.969938 
L 350.760625 248.969938 
" style="fill: none; stroke: #7f7f7f; stroke-width: 1.5; stroke-linecap: square"/>
    </g>
    <g id="text_24">
     <!-- QBER: 8 -->
     <g transform="translate(358.760625 252.469938)scale(0.1 -0.1)">
      <defs>
       <path id="DejaVuSans-38" d="M 2034 2216 
Q 1584 2216 1326 1975 
Q 1069 1734 1069 1313 
Q 1069 891 1326 650 
Q 1584 409 2034 409 
Q 2484 409 2743 651 
Q 3003 894 3003 1313 
Q 3003 1734 2745 1975 
Q 2488 2216 2034 2216 
z
M 1403 2484 
Q 997 2584 770 2862 
Q 544 3141 544 3541 
Q 544 4100 942 4425 
Q 1341 4750 2034 4750 
Q 2731 4750 3128 4425 
Q 3525 4100 3525 3541 
Q 3525 3141 3298 2862 
Q 3072 2584 2669 2484 
Q 3125 2378 3379 2068 
Q 3634 1759 3634 1313 
Q 3634 634 3220 271 
Q 2806 -91 2034 -91 
Q 1263 -91 848 271 
Q 434 634 434 1313 
Q 434 1759 690 2068 
Q 947 2378 1403 2484 
z
M 1172 3481 
Q 1172 3119 1398 2916 
Q 1625 2713 2034 2713 
Q 2441 2713 2670 2916 
Q 2900 3119 2900 3481 
Q 2900 3844 2670 4047 
Q 2441 4250 2034 4250 
Q 1625 4250 1398 4047 
Q 1172 3844 1172 3481 
z
" transform="scale(0.015625)"/>
      </defs>
      <use xlink:href="#DejaVuSans-51"/>
      <use xlink:href="#DejaVuSans-42" x="78.710938"/>
      <use xlink:href="#DejaVuSans-45" x="147.314453"/>
      <use xlink:href="#DejaVuSans-52" x="210.498047"/>
      <use xlink:href="#DejaVuSans-3a" x="276.855469"/>
      <use xlink:href="#DejaVuSans-20" x="310.546875"/>
      <use xlink:href="#DejaVuSans-38" x="342.333984"/>
     </g>
    </g>
    <g id="line2d_33">
     <path d="M 330.760625 263.648062 
L 340.760625 263.648062 
L 350.760625 263.648062 
" style="fill: none; stroke: #bcbd22; stroke-width: 1.5; stroke-linecap: square"/>
    </g>
    <g id="text_25">
     <!-- QBER: 9 -->
     <g transform="translate(358.760625 267.148062)scale(0.1 -0.1)">
      <defs>
       <path id="DejaVuSans-39" d="M 703 97 
L 703 672 
Q 941 559 1184 500 
Q 1428 441 1663 441 
Q 2288 441 2617 861 
Q 2947 1281 2994 2138 
Q 2813 1869 2534 1725 
Q 2256 1581 1919 1581 
Q 1219 1581 811 2004 
Q 403 2428 403 3163 
Q 403 3881 828 4315 
Q 1253 4750 1959 4750 
Q 2769 4750 3195 4129 
Q 3622 3509 3622 2328 
Q 3622 1225 3098 567 
Q 2575 -91 1691 -91 
Q 1453 -91 1209 -44 
Q 966 3 703 97 
z
M 1959 2075 
Q 2384 2075 2632 2365 
Q 2881 2656 2881 3163 
Q 2881 3666 2632 3958 
Q 2384 4250 1959 4250 
Q 1534 4250 1286 3958 
Q 1038 3666 1038 3163 
Q 1038 2656 1286 2365 
Q 1534 2075 1959 2075 
z
" transform="scale(0.015625)"/>
      </defs>
      <use xlink:href="#DejaVuSans-51"/>
      <use xlink:href="#DejaVuSans-42" x="78.710938"/>
      <use xlink:href="#DejaVuSans-45" x="147.314453"/>
      <use xlink:href="#DejaVuSans-52" x="210.498047"/>
      <use xlink:href="#DejaVuSans-3a" x="276.855469"/>
      <use xlink:href="#DejaVuSans-20" x="310.546875"/>
      <use xlink:href="#DejaVuSans-39" x="342.333984"/>
     </g>
    </g>
    <g id="line2d_34">
     <path d="M 330.760625 278.326187 
L 340.760625 278.326187 
L 350.760625 278.326187 
" style="fill: none; stroke: #17becf; stroke-width: 1.5; stroke-linecap: square"/>
    </g>
    <g id="text_26">
     <!-- QBER: 10 -->
     <g transform="translate(358.760625 281.826187)scale(0.1 -0.1)">
      <use xlink:href="#DejaVuSans-51"/>
      <use xlink:href="#DejaVuSans-42" x="78.710938"/>
      <use xlink:href="#DejaVuSans-45" x="147.314453"/>
      <use xlink:href="#DejaVuSans-52" x="210.498047"/>
      <use xlink:href="#DejaVuSans-3a" x="276.855469"/>
      <use xlink:href="#DejaVuSans-20" x="310.546875"/>
      <use xlink:href="#DejaVuSans-31" x="342.333984"/>
      <use xlink:href="#DejaVuSans-30" x="405.957031"/>
     </g>
    </g>
    <g id="line2d_35">
     <path d="M 330.760625 293.004312 
L 340.760625 293.004312 
L 350.760625 293.004312 
" style="fill: none; stroke: #1f77b4; stroke-width: 1.5; stroke-linecap: square"/>
    </g>
    <g id="text_27">
     <!-- QBER: 11 -->
     <g transform="translate(358.760625 296.504312)scale(0.1 -0.1)">
      <use xlink:href="#DejaVuSans-51"/>
      <use xlink:href="#DejaVuSans-42" x="78.710938"/>
      <use xlink:href="#DejaVuSans-45" x="147.314453"/>
      <use xlink:href="#DejaVuSans-52" x="210.498047"/>
      <use xlink:href="#DejaVuSans-3a" x="276.855469"/>
      <use xlink:href="#DejaVuSans-20" x="310.546875"/>
      <use xlink:href="#DejaVuSans-31" x="342.333984"/>
      <use xlink:href="#DejaVuSans-31" x="405.957031"/>
     </g>
    </g>
   </g>
  </g>
 </g>
 <defs>
  <clipPath id="pfd4c2b2a68">
   <rect x="57.6" y="41.472" width="357.12" height="266.112"/>
  </clipPath>
 </defs>
</svg>
