<?xml version="1.0" encoding="utf-8" standalone="no"?>
<!DOCTYPE svg PUBLIC "-//W3C//DTD SVG 1.1//EN"
  "http://www.w3.org/Graphics/SVG/1.1/DTD/svg11.dtd">
<svg xmlns:xlink="http://www.w3.org/1999/xlink" width="460.8pt" height="345.6pt" viewBox="0 0 460.8 345.6" xmlns="http://www.w3.org/2000/svg" version="1.1">
 <metadata>
  <rdf:RDF xmlns:dc="http://purl.org/dc/elements/1.1/" xmlns:cc="http://creativecommons.org/ns#" xmlns:rdf="http://www.w3.org/1999/02/22-rdf-syntax-ns#">
   <cc:Work>
    <dc:type rdf:resource="http://purl.org/dc/dcmitype/StillImage"/>
    <dc:date>2023-08-12T11:06:56.667332</dc:date>
    <dc:format>image/svg+xml</dc:format>
    <dc:creator>
     <cc:Agent>
      <dc:title>Matplotlib v3.5.3, https://matplotlib.org/</dc:title>
     </cc:Agent>
    </dc:creator>
   </cc:Work>
  </rdf:RDF>
 </metadata>
 <defs>
  <style type="text/css">*{stroke-linejoin: round; stroke-linecap: butt}</style>
 </defs>
 <g id="figure_1">
  <g id="patch_1">
   <path d="M 0 345.6 
L 460.8 345.6 
L 460.8 0 
L 0 0 
z
" style="fill: #ffffff"/>
  </g>
  <g id="axes_1">
   <g id="patch_2">
    <path d="M 57.6 307.584 
L 414.72 307.584 
L 414.72 41.472 
L 57.6 41.472 
z
" style="fill: #ffffff"/>
   </g>
   <g id="matplotlib.axis_1">
    <g id="xtick_1">
     <g id="line2d_1">
      <defs>
       <path id="mceac536e82" d="M 0 0 
L 0 3.5 
" style="stroke: #000000; stroke-width: 0.8"/>
      </defs>
      <g>
       <use xlink:href="#mceac536e82" x="73.351758" y="307.584" style="stroke: #000000; stroke-width: 0.8"/>
      </g>
     </g>
     <g id="text_1">
      <!-- 0 -->
      <g transform="translate(70.170508 322.182437)scale(0.1 -0.1)">
       <defs>
        <path id="DejaVuSans-30" d="M 2034 4250 
Q 1547 4250 1301 3770 
Q 1056 3291 1056 2328 
Q 1056 1369 1301 889 
Q 1547 409 2034 409 
Q 2525 409 2770 889 
Q 3016 1369 3016 2328 
Q 3016 3291 2770 3770 
Q 2525 4250 2034 4250 
z
M 2034 4750 
Q 2819 4750 3233 4129 
Q 3647 3509 3647 2328 
Q 3647 1150 3233 529 
Q 2819 -91 2034 -91 
Q 1250 -91 836 529 
Q 422 1150 422 2328 
Q 422 3509 836 4129 
Q 1250 4750 2034 4750 
z
" transform="scale(0.015625)"/>
       </defs>
       <use xlink:href="#DejaVuSans-30"/>
      </g>
     </g>
    </g>
    <g id="xtick_2">
     <g id="line2d_2">
      <g>
       <use xlink:href="#mceac536e82" x="121.448727" y="307.584" style="stroke: #000000; stroke-width: 0.8"/>
      </g>
     </g>
     <g id="text_2">
      <!-- 2500 -->
      <g transform="translate(108.723727 322.182437)scale(0.1 -0.1)">
       <defs>
        <path id="DejaVuSans-32" d="M 1228 531 
L 3431 531 
L 3431 0 
L 469 0 
L 469 531 
Q 828 903 1448 1529 
Q 2069 2156 2228 2338 
Q 2531 2678 2651 2914 
Q 2772 3150 2772 3378 
Q 2772 3750 2511 3984 
Q 2250 4219 1831 4219 
Q 1534 4219 1204 4116 
Q 875 4013 500 3803 
L 500 4441 
Q 881 4594 1212 4672 
Q 1544 4750 1819 4750 
Q 2544 4750 2975 4387 
Q 3406 4025 3406 3419 
Q 3406 3131 3298 2873 
Q 3191 2616 2906 2266 
Q 2828 2175 2409 1742 
Q 1991 1309 1228 531 
z
" transform="scale(0.015625)"/>
        <path id="DejaVuSans-35" d="M 691 4666 
L 3169 4666 
L 3169 4134 
L 1269 4134 
L 1269 2991 
Q 1406 3038 1543 3061 
Q 1681 3084 1819 3084 
Q 2600 3084 3056 2656 
Q 3513 2228 3513 1497 
Q 3513 744 3044 326 
Q 2575 -91 1722 -91 
Q 1428 -91 1123 -41 
Q 819 9 494 109 
L 494 744 
Q 775 591 1075 516 
Q 1375 441 1709 441 
Q 2250 441 2565 725 
Q 2881 1009 2881 1497 
Q 2881 1984 2565 2268 
Q 2250 2553 1709 2553 
Q 1456 2553 1204 2497 
Q 953 2441 691 2322 
L 691 4666 
z
" transform="scale(0.015625)"/>
       </defs>
       <use xlink:href="#DejaVuSans-32"/>
       <use xlink:href="#DejaVuSans-35" x="63.623047"/>
       <use xlink:href="#DejaVuSans-30" x="127.246094"/>
       <use xlink:href="#DejaVuSans-30" x="190.869141"/>
      </g>
     </g>
    </g>
    <g id="xtick_3">
     <g id="line2d_3">
      <g>
       <use xlink:href="#mceac536e82" x="169.545697" y="307.584" style="stroke: #000000; stroke-width: 0.8"/>
      </g>
     </g>
     <g id="text_3">
      <!-- 5000 -->
      <g transform="translate(156.820697 322.182437)scale(0.1 -0.1)">
       <use xlink:href="#DejaVuSans-35"/>
       <use xlink:href="#DejaVuSans-30" x="63.623047"/>
       <use xlink:href="#DejaVuSans-30" x="127.246094"/>
       <use xlink:href="#DejaVuSans-30" x="190.869141"/>
      </g>
     </g>
    </g>
    <g id="xtick_4">
     <g id="line2d_4">
      <g>
       <use xlink:href="#mceac536e82" x="217.642667" y="307.584" style="stroke: #000000; stroke-width: 0.8"/>
      </g>
     </g>
     <g id="text_4">
      <!-- 7500 -->
      <g transform="translate(204.917667 322.182437)scale(0.1 -0.1)">
       <defs>
        <path id="DejaVuSans-37" d="M 525 4666 
L 3525 4666 
L 3525 4397 
L 1831 0 
L 1172 0 
L 2766 4134 
L 525 4134 
L 525 4666 
z
" transform="scale(0.015625)"/>
       </defs>
       <use xlink:href="#DejaVuSans-37"/>
       <use xlink:href="#DejaVuSans-35" x="63.623047"/>
       <use xlink:href="#DejaVuSans-30" x="127.246094"/>
       <use xlink:href="#DejaVuSans-30" x="190.869141"/>
      </g>
     </g>
    </g>
    <g id="xtick_5">
     <g id="line2d_5">
      <g>
       <use xlink:href="#mceac536e82" x="265.739636" y="307.584" style="stroke: #000000; stroke-width: 0.8"/>
      </g>
     </g>
     <g id="text_5">
      <!-- 10000 -->
      <g transform="translate(249.833386 322.182437)scale(0.1 -0.1)">
       <defs>
        <path id="DejaVuSans-31" d="M 794 531 
L 1825 531 
L 1825 4091 
L 703 3866 
L 703 4441 
L 1819 4666 
L 2450 4666 
L 2450 531 
L 3481 531 
L 3481 0 
L 794 0 
L 794 531 
z
" transform="scale(0.015625)"/>
       </defs>
       <use xlink:href="#DejaVuSans-31"/>
       <use xlink:href="#DejaVuSans-30" x="63.623047"/>
       <use xlink:href="#DejaVuSans-30" x="127.246094"/>
       <use xlink:href="#DejaVuSans-30" x="190.869141"/>
       <use xlink:href="#DejaVuSans-30" x="254.492188"/>
      </g>
     </g>
    </g>
    <g id="xtick_6">
     <g id="line2d_6">
      <g>
       <use xlink:href="#mceac536e82" x="313.836606" y="307.584" style="stroke: #000000; stroke-width: 0.8"/>
      </g>
     </g>
     <g id="text_6">
      <!-- 12500 -->
      <g transform="translate(297.930356 322.182437)scale(0.1 -0.1)">
       <use xlink:href="#DejaVuSans-31"/>
       <use xlink:href="#DejaVuSans-32" x="63.623047"/>
       <use xlink:href="#DejaVuSans-35" x="127.246094"/>
       <use xlink:href="#DejaVuSans-30" x="190.869141"/>
       <use xlink:href="#DejaVuSans-30" x="254.492188"/>
      </g>
     </g>
    </g>
    <g id="xtick_7">
     <g id="line2d_7">
      <g>
       <use xlink:href="#mceac536e82" x="361.933576" y="307.584" style="stroke: #000000; stroke-width: 0.8"/>
      </g>
     </g>
     <g id="text_7">
      <!-- 15000 -->
      <g transform="translate(346.027326 322.182437)scale(0.1 -0.1)">
       <use xlink:href="#DejaVuSans-31"/>
       <use xlink:href="#DejaVuSans-35" x="63.623047"/>
       <use xlink:href="#DejaVuSans-30" x="127.246094"/>
       <use xlink:href="#DejaVuSans-30" x="190.869141"/>
       <use xlink:href="#DejaVuSans-30" x="254.492188"/>
      </g>
     </g>
    </g>
    <g id="xtick_8">
     <g id="line2d_8">
      <g>
       <use xlink:href="#mceac536e82" x="410.030545" y="307.584" style="stroke: #000000; stroke-width: 0.8"/>
      </g>
     </g>
     <g id="text_8">
      <!-- 17500 -->
      <g transform="translate(394.124295 322.182437)scale(0.1 -0.1)">
       <use xlink:href="#DejaVuSans-31"/>
       <use xlink:href="#DejaVuSans-37" x="63.623047"/>
       <use xlink:href="#DejaVuSans-35" x="127.246094"/>
       <use xlink:href="#DejaVuSans-30" x="190.869141"/>
       <use xlink:href="#DejaVuSans-30" x="254.492188"/>
      </g>
     </g>
    </g>
    <g id="text_9">
     <!-- Number of input neurons multiplied by number of hidden neurons [N*K] -->
     <g transform="translate(56.102969 335.860562)scale(0.1 -0.1)">
      <defs>
       <path id="DejaVuSans-4e" d="M 628 4666 
L 1478 4666 
L 3547 763 
L 3547 4666 
L 4159 4666 
L 4159 0 
L 3309 0 
L 1241 3903 
L 1241 0 
L 628 0 
L 628 4666 
z
" transform="scale(0.015625)"/>
       <path id="DejaVuSans-75" d="M 544 1381 
L 544 3500 
L 1119 3500 
L 1119 1403 
Q 1119 906 1312 657 
Q 1506 409 1894 409 
Q 2359 409 2629 706 
Q 2900 1003 2900 1516 
L 2900 3500 
L 3475 3500 
L 3475 0 
L 2900 0 
L 2900 538 
Q 2691 219 2414 64 
Q 2138 -91 1772 -91 
Q 1169 -91 856 284 
Q 544 659 544 1381 
z
M 1991 3584 
L 1991 3584 
z
" transform="scale(0.015625)"/>
       <path id="DejaVuSans-6d" d="M 3328 2828 
Q 3544 3216 3844 3400 
Q 4144 3584 4550 3584 
Q 5097 3584 5394 3201 
Q 5691 2819 5691 2113 
L 5691 0 
L 5113 0 
L 5113 2094 
Q 5113 2597 4934 2840 
Q 4756 3084 4391 3084 
Q 3944 3084 3684 2787 
Q 3425 2491 3425 1978 
L 3425 0 
L 2847 0 
L 2847 2094 
Q 2847 2600 2669 2842 
Q 2491 3084 2119 3084 
Q 1678 3084 1418 2786 
Q 1159 2488 1159 1978 
L 1159 0 
L 581 0 
L 581 3500 
L 1159 3500 
L 1159 2956 
Q 1356 3278 1631 3431 
Q 1906 3584 2284 3584 
Q 2666 3584 2933 3390 
Q 3200 3197 3328 2828 
z
" transform="scale(0.015625)"/>
       <path id="DejaVuSans-62" d="M 3116 1747 
Q 3116 2381 2855 2742 
Q 2594 3103 2138 3103 
Q 1681 3103 1420 2742 
Q 1159 2381 1159 1747 
Q 1159 1113 1420 752 
Q 1681 391 2138 391 
Q 2594 391 2855 752 
Q 3116 1113 3116 1747 
z
M 1159 2969 
Q 1341 3281 1617 3432 
Q 1894 3584 2278 3584 
Q 2916 3584 3314 3078 
Q 3713 2572 3713 1747 
Q 3713 922 3314 415 
Q 2916 -91 2278 -91 
Q 1894 -91 1617 61 
Q 1341 213 1159 525 
L 1159 0 
L 581 0 
L 581 4863 
L 1159 4863 
L 1159 2969 
z
" transform="scale(0.015625)"/>
       <path id="DejaVuSans-65" d="M 3597 1894 
L 3597 1613 
L 953 1613 
Q 991 1019 1311 708 
Q 1631 397 2203 397 
Q 2534 397 2845 478 
Q 3156 559 3463 722 
L 3463 178 
Q 3153 47 2828 -22 
Q 2503 -91 2169 -91 
Q 1331 -91 842 396 
Q 353 884 353 1716 
Q 353 2575 817 3079 
Q 1281 3584 2069 3584 
Q 2775 3584 3186 3129 
Q 3597 2675 3597 1894 
z
M 3022 2063 
Q 3016 2534 2758 2815 
Q 2500 3097 2075 3097 
Q 1594 3097 1305 2825 
Q 1016 2553 972 2059 
L 3022 2063 
z
" transform="scale(0.015625)"/>
       <path id="DejaVuSans-72" d="M 2631 2963 
Q 2534 3019 2420 3045 
Q 2306 3072 2169 3072 
Q 1681 3072 1420 2755 
Q 1159 2438 1159 1844 
L 1159 0 
L 581 0 
L 581 3500 
L 1159 3500 
L 1159 2956 
Q 1341 3275 1631 3429 
Q 1922 3584 2338 3584 
Q 2397 3584 2469 3576 
Q 2541 3569 2628 3553 
L 2631 2963 
z
" transform="scale(0.015625)"/>
       <path id="DejaVuSans-20" transform="scale(0.015625)"/>
       <path id="DejaVuSans-6f" d="M 1959 3097 
Q 1497 3097 1228 2736 
Q 959 2375 959 1747 
Q 959 1119 1226 758 
Q 1494 397 1959 397 
Q 2419 397 2687 759 
Q 2956 1122 2956 1747 
Q 2956 2369 2687 2733 
Q 2419 3097 1959 3097 
z
M 1959 3584 
Q 2709 3584 3137 3096 
Q 3566 2609 3566 1747 
Q 3566 888 3137 398 
Q 2709 -91 1959 -91 
Q 1206 -91 779 398 
Q 353 888 353 1747 
Q 353 2609 779 3096 
Q 1206 3584 1959 3584 
z
" transform="scale(0.015625)"/>
       <path id="DejaVuSans-66" d="M 2375 4863 
L 2375 4384 
L 1825 4384 
Q 1516 4384 1395 4259 
Q 1275 4134 1275 3809 
L 1275 3500 
L 2222 3500 
L 2222 3053 
L 1275 3053 
L 1275 0 
L 697 0 
L 697 3053 
L 147 3053 
L 147 3500 
L 697 3500 
L 697 3744 
Q 697 4328 969 4595 
Q 1241 4863 1831 4863 
L 2375 4863 
z
" transform="scale(0.015625)"/>
       <path id="DejaVuSans-69" d="M 603 3500 
L 1178 3500 
L 1178 0 
L 603 0 
L 603 3500 
z
M 603 4863 
L 1178 4863 
L 1178 4134 
L 603 4134 
L 603 4863 
z
" transform="scale(0.015625)"/>
       <path id="DejaVuSans-6e" d="M 3513 2113 
L 3513 0 
L 2938 0 
L 2938 2094 
Q 2938 2591 2744 2837 
Q 2550 3084 2163 3084 
Q 1697 3084 1428 2787 
Q 1159 2491 1159 1978 
L 1159 0 
L 581 0 
L 581 3500 
L 1159 3500 
L 1159 2956 
Q 1366 3272 1645 3428 
Q 1925 3584 2291 3584 
Q 2894 3584 3203 3211 
Q 3513 2838 3513 2113 
z
" transform="scale(0.015625)"/>
       <path id="DejaVuSans-70" d="M 1159 525 
L 1159 -1331 
L 581 -1331 
L 581 3500 
L 1159 3500 
L 1159 2969 
Q 1341 3281 1617 3432 
Q 1894 3584 2278 3584 
Q 2916 3584 3314 3078 
Q 3713 2572 3713 1747 
Q 3713 922 3314 415 
Q 2916 -91 2278 -91 
Q 1894 -91 1617 61 
Q 1341 213 1159 525 
z
M 3116 1747 
Q 3116 2381 2855 2742 
Q 2594 3103 2138 3103 
Q 1681 3103 1420 2742 
Q 1159 2381 1159 1747 
Q 1159 1113 1420 752 
Q 1681 391 2138 391 
Q 2594 391 2855 752 
Q 3116 1113 3116 1747 
z
" transform="scale(0.015625)"/>
       <path id="DejaVuSans-74" d="M 1172 4494 
L 1172 3500 
L 2356 3500 
L 2356 3053 
L 1172 3053 
L 1172 1153 
Q 1172 725 1289 603 
Q 1406 481 1766 481 
L 2356 481 
L 2356 0 
L 1766 0 
Q 1100 0 847 248 
Q 594 497 594 1153 
L 594 3053 
L 172 3053 
L 172 3500 
L 594 3500 
L 594 4494 
L 1172 4494 
z
" transform="scale(0.015625)"/>
       <path id="DejaVuSans-73" d="M 2834 3397 
L 2834 2853 
Q 2591 2978 2328 3040 
Q 2066 3103 1784 3103 
Q 1356 3103 1142 2972 
Q 928 2841 928 2578 
Q 928 2378 1081 2264 
Q 1234 2150 1697 2047 
L 1894 2003 
Q 2506 1872 2764 1633 
Q 3022 1394 3022 966 
Q 3022 478 2636 193 
Q 2250 -91 1575 -91 
Q 1294 -91 989 -36 
Q 684 19 347 128 
L 347 722 
Q 666 556 975 473 
Q 1284 391 1588 391 
Q 1994 391 2212 530 
Q 2431 669 2431 922 
Q 2431 1156 2273 1281 
Q 2116 1406 1581 1522 
L 1381 1569 
Q 847 1681 609 1914 
Q 372 2147 372 2553 
Q 372 3047 722 3315 
Q 1072 3584 1716 3584 
Q 2034 3584 2315 3537 
Q 2597 3491 2834 3397 
z
" transform="scale(0.015625)"/>
       <path id="DejaVuSans-6c" d="M 603 4863 
L 1178 4863 
L 1178 0 
L 603 0 
L 603 4863 
z
" transform="scale(0.015625)"/>
       <path id="DejaVuSans-64" d="M 2906 2969 
L 2906 4863 
L 3481 4863 
L 3481 0 
L 2906 0 
L 2906 525 
Q 2725 213 2448 61 
Q 2172 -91 1784 -91 
Q 1150 -91 751 415 
Q 353 922 353 1747 
Q 353 2572 751 3078 
Q 1150 3584 1784 3584 
Q 2172 3584 2448 3432 
Q 2725 3281 2906 2969 
z
M 947 1747 
Q 947 1113 1208 752 
Q 1469 391 1925 391 
Q 2381 391 2643 752 
Q 2906 1113 2906 1747 
Q 2906 2381 2643 2742 
Q 2381 3103 1925 3103 
Q 1469 3103 1208 2742 
Q 947 2381 947 1747 
z
" transform="scale(0.015625)"/>
       <path id="DejaVuSans-79" d="M 2059 -325 
Q 1816 -950 1584 -1140 
Q 1353 -1331 966 -1331 
L 506 -1331 
L 506 -850 
L 844 -850 
Q 1081 -850 1212 -737 
Q 1344 -625 1503 -206 
L 1606 56 
L 191 3500 
L 800 3500 
L 1894 763 
L 2988 3500 
L 3597 3500 
L 2059 -325 
z
" transform="scale(0.015625)"/>
       <path id="DejaVuSans-68" d="M 3513 2113 
L 3513 0 
L 2938 0 
L 2938 2094 
Q 2938 2591 2744 2837 
Q 2550 3084 2163 3084 
Q 1697 3084 1428 2787 
Q 1159 2491 1159 1978 
L 1159 0 
L 581 0 
L 581 4863 
L 1159 4863 
L 1159 2956 
Q 1366 3272 1645 3428 
Q 1925 3584 2291 3584 
Q 2894 3584 3203 3211 
Q 3513 2838 3513 2113 
z
" transform="scale(0.015625)"/>
       <path id="DejaVuSans-5b" d="M 550 4863 
L 1875 4863 
L 1875 4416 
L 1125 4416 
L 1125 -397 
L 1875 -397 
L 1875 -844 
L 550 -844 
L 550 4863 
z
" transform="scale(0.015625)"/>
       <path id="DejaVuSans-2a" d="M 3009 3897 
L 1888 3291 
L 3009 2681 
L 2828 2375 
L 1778 3009 
L 1778 1831 
L 1422 1831 
L 1422 3009 
L 372 2375 
L 191 2681 
L 1313 3291 
L 191 3897 
L 372 4206 
L 1422 3572 
L 1422 4750 
L 1778 4750 
L 1778 3572 
L 2828 4206 
L 3009 3897 
z
" transform="scale(0.015625)"/>
       <path id="DejaVuSans-4b" d="M 628 4666 
L 1259 4666 
L 1259 2694 
L 3353 4666 
L 4166 4666 
L 1850 2491 
L 4331 0 
L 3500 0 
L 1259 2247 
L 1259 0 
L 628 0 
L 628 4666 
z
" transform="scale(0.015625)"/>
       <path id="DejaVuSans-5d" d="M 1947 4863 
L 1947 -844 
L 622 -844 
L 622 -397 
L 1369 -397 
L 1369 4416 
L 622 4416 
L 622 4863 
L 1947 4863 
z
" transform="scale(0.015625)"/>
      </defs>
      <use xlink:href="#DejaVuSans-4e"/>
      <use xlink:href="#DejaVuSans-75" x="74.804688"/>
      <use xlink:href="#DejaVuSans-6d" x="138.183594"/>
      <use xlink:href="#DejaVuSans-62" x="235.595703"/>
      <use xlink:href="#DejaVuSans-65" x="299.072266"/>
      <use xlink:href="#DejaVuSans-72" x="360.595703"/>
      <use xlink:href="#DejaVuSans-20" x="401.708984"/>
      <use xlink:href="#DejaVuSans-6f" x="433.496094"/>
      <use xlink:href="#DejaVuSans-66" x="494.677734"/>
      <use xlink:href="#DejaVuSans-20" x="529.882812"/>
      <use xlink:href="#DejaVuSans-69" x="561.669922"/>
      <use xlink:href="#DejaVuSans-6e" x="589.453125"/>
      <use xlink:href="#DejaVuSans-70" x="652.832031"/>
      <use xlink:href="#DejaVuSans-75" x="716.308594"/>
      <use xlink:href="#DejaVuSans-74" x="779.6875"/>
      <use xlink:href="#DejaVuSans-20" x="818.896484"/>
      <use xlink:href="#DejaVuSans-6e" x="850.683594"/>
      <use xlink:href="#DejaVuSans-65" x="914.0625"/>
      <use xlink:href="#DejaVuSans-75" x="975.585938"/>
      <use xlink:href="#DejaVuSans-72" x="1038.964844"/>
      <use xlink:href="#DejaVuSans-6f" x="1077.828125"/>
      <use xlink:href="#DejaVuSans-6e" x="1139.009766"/>
      <use xlink:href="#DejaVuSans-73" x="1202.388672"/>
      <use xlink:href="#DejaVuSans-20" x="1254.488281"/>
      <use xlink:href="#DejaVuSans-6d" x="1286.275391"/>
      <use xlink:href="#DejaVuSans-75" x="1383.6875"/>
      <use xlink:href="#DejaVuSans-6c" x="1447.066406"/>
      <use xlink:href="#DejaVuSans-74" x="1474.849609"/>
      <use xlink:href="#DejaVuSans-69" x="1514.058594"/>
      <use xlink:href="#DejaVuSans-70" x="1541.841797"/>
      <use xlink:href="#DejaVuSans-6c" x="1605.318359"/>
      <use xlink:href="#DejaVuSans-69" x="1633.101562"/>
      <use xlink:href="#DejaVuSans-65" x="1660.884766"/>
      <use xlink:href="#DejaVuSans-64" x="1722.408203"/>
      <use xlink:href="#DejaVuSans-20" x="1785.884766"/>
      <use xlink:href="#DejaVuSans-62" x="1817.671875"/>
      <use xlink:href="#DejaVuSans-79" x="1881.148438"/>
      <use xlink:href="#DejaVuSans-20" x="1940.328125"/>
      <use xlink:href="#DejaVuSans-6e" x="1972.115234"/>
      <use xlink:href="#DejaVuSans-75" x="2035.494141"/>
      <use xlink:href="#DejaVuSans-6d" x="2098.873047"/>
      <use xlink:href="#DejaVuSans-62" x="2196.285156"/>
      <use xlink:href="#DejaVuSans-65" x="2259.761719"/>
      <use xlink:href="#DejaVuSans-72" x="2321.285156"/>
      <use xlink:href="#DejaVuSans-20" x="2362.398438"/>
      <use xlink:href="#DejaVuSans-6f" x="2394.185547"/>
      <use xlink:href="#DejaVuSans-66" x="2455.367188"/>
      <use xlink:href="#DejaVuSans-20" x="2490.572266"/>
      <use xlink:href="#DejaVuSans-68" x="2522.359375"/>
      <use xlink:href="#DejaVuSans-69" x="2585.738281"/>
      <use xlink:href="#DejaVuSans-64" x="2613.521484"/>
      <use xlink:href="#DejaVuSans-64" x="2676.998047"/>
      <use xlink:href="#DejaVuSans-65" x="2740.474609"/>
      <use xlink:href="#DejaVuSans-6e" x="2801.998047"/>
      <use xlink:href="#DejaVuSans-20" x="2865.376953"/>
      <use xlink:href="#DejaVuSans-6e" x="2897.164062"/>
      <use xlink:href="#DejaVuSans-65" x="2960.542969"/>
      <use xlink:href="#DejaVuSans-75" x="3022.066406"/>
      <use xlink:href="#DejaVuSans-72" x="3085.445312"/>
      <use xlink:href="#DejaVuSans-6f" x="3124.308594"/>
      <use xlink:href="#DejaVuSans-6e" x="3185.490234"/>
      <use xlink:href="#DejaVuSans-73" x="3248.869141"/>
      <use xlink:href="#DejaVuSans-20" x="3300.96875"/>
      <use xlink:href="#DejaVuSans-5b" x="3332.755859"/>
      <use xlink:href="#DejaVuSans-4e" x="3371.769531"/>
      <use xlink:href="#DejaVuSans-2a" x="3446.574219"/>
      <use xlink:href="#DejaVuSans-4b" x="3496.574219"/>
      <use xlink:href="#DejaVuSans-5d" x="3562.150391"/>
     </g>
    </g>
   </g>
   <g id="matplotlib.axis_2">
    <g id="ytick_1">
     <g id="line2d_9">
      <defs>
       <path id="mf09ec7b27d" d="M 0 0 
L -3.5 0 
" style="stroke: #000000; stroke-width: 0.8"/>
      </defs>
      <g>
       <use xlink:href="#mf09ec7b27d" x="57.6" y="305.319248" style="stroke: #000000; stroke-width: 0.8"/>
      </g>
     </g>
     <g id="text_10">
      <!-- 0 -->
      <g transform="translate(44.2375 309.118467)scale(0.1 -0.1)">
       <use xlink:href="#DejaVuSans-30"/>
      </g>
     </g>
    </g>
    <g id="ytick_2">
     <g id="line2d_10">
      <g>
       <use xlink:href="#mf09ec7b27d" x="57.6" y="272.778784" style="stroke: #000000; stroke-width: 0.8"/>
      </g>
     </g>
     <g id="text_11">
      <!-- 50 -->
      <g transform="translate(37.875 276.578003)scale(0.1 -0.1)">
       <use xlink:href="#DejaVuSans-35"/>
       <use xlink:href="#DejaVuSans-30" x="63.623047"/>
      </g>
     </g>
    </g>
    <g id="ytick_3">
     <g id="line2d_11">
      <g>
       <use xlink:href="#mf09ec7b27d" x="57.6" y="240.23832" style="stroke: #000000; stroke-width: 0.8"/>
      </g>
     </g>
     <g id="text_12">
      <!-- 100 -->
      <g transform="translate(31.5125 244.037539)scale(0.1 -0.1)">
       <use xlink:href="#DejaVuSans-31"/>
       <use xlink:href="#DejaVuSans-30" x="63.623047"/>
       <use xlink:href="#DejaVuSans-30" x="127.246094"/>
      </g>
     </g>
    </g>
    <g id="ytick_4">
     <g id="line2d_12">
      <g>
       <use xlink:href="#mf09ec7b27d" x="57.6" y="207.697856" style="stroke: #000000; stroke-width: 0.8"/>
      </g>
     </g>
     <g id="text_13">
      <!-- 150 -->
      <g transform="translate(31.5125 211.497075)scale(0.1 -0.1)">
       <use xlink:href="#DejaVuSans-31"/>
       <use xlink:href="#DejaVuSans-35" x="63.623047"/>
       <use xlink:href="#DejaVuSans-30" x="127.246094"/>
      </g>
     </g>
    </g>
    <g id="ytick_5">
     <g id="line2d_13">
      <g>
       <use xlink:href="#mf09ec7b27d" x="57.6" y="175.157393" style="stroke: #000000; stroke-width: 0.8"/>
      </g>
     </g>
     <g id="text_14">
      <!-- 200 -->
      <g transform="translate(31.5125 178.956611)scale(0.1 -0.1)">
       <use xlink:href="#DejaVuSans-32"/>
       <use xlink:href="#DejaVuSans-30" x="63.623047"/>
       <use xlink:href="#DejaVuSans-30" x="127.246094"/>
      </g>
     </g>
    </g>
    <g id="ytick_6">
     <g id="line2d_14">
      <g>
       <use xlink:href="#mf09ec7b27d" x="57.6" y="142.616929" style="stroke: #000000; stroke-width: 0.8"/>
      </g>
     </g>
     <g id="text_15">
      <!-- 250 -->
      <g transform="translate(31.5125 146.416148)scale(0.1 -0.1)">
       <use xlink:href="#DejaVuSans-32"/>
       <use xlink:href="#DejaVuSans-35" x="63.623047"/>
       <use xlink:href="#DejaVuSans-30" x="127.246094"/>
      </g>
     </g>
    </g>
    <g id="ytick_7">
     <g id="line2d_15">
      <g>
       <use xlink:href="#mf09ec7b27d" x="57.6" y="110.076465" style="stroke: #000000; stroke-width: 0.8"/>
      </g>
     </g>
     <g id="text_16">
      <!-- 300 -->
      <g transform="translate(31.5125 113.875684)scale(0.1 -0.1)">
       <defs>
        <path id="DejaVuSans-33" d="M 2597 2516 
Q 3050 2419 3304 2112 
Q 3559 1806 3559 1356 
Q 3559 666 3084 287 
Q 2609 -91 1734 -91 
Q 1441 -91 1130 -33 
Q 819 25 488 141 
L 488 750 
Q 750 597 1062 519 
Q 1375 441 1716 441 
Q 2309 441 2620 675 
Q 2931 909 2931 1356 
Q 2931 1769 2642 2001 
Q 2353 2234 1838 2234 
L 1294 2234 
L 1294 2753 
L 1863 2753 
Q 2328 2753 2575 2939 
Q 2822 3125 2822 3475 
Q 2822 3834 2567 4026 
Q 2313 4219 1838 4219 
Q 1578 4219 1281 4162 
Q 984 4106 628 3988 
L 628 4550 
Q 988 4650 1302 4700 
Q 1616 4750 1894 4750 
Q 2613 4750 3031 4423 
Q 3450 4097 3450 3541 
Q 3450 3153 3228 2886 
Q 3006 2619 2597 2516 
z
" transform="scale(0.015625)"/>
       </defs>
       <use xlink:href="#DejaVuSans-33"/>
       <use xlink:href="#DejaVuSans-30" x="63.623047"/>
       <use xlink:href="#DejaVuSans-30" x="127.246094"/>
      </g>
     </g>
    </g>
    <g id="ytick_8">
     <g id="line2d_16">
      <g>
       <use xlink:href="#mf09ec7b27d" x="57.6" y="77.536001" style="stroke: #000000; stroke-width: 0.8"/>
      </g>
     </g>
     <g id="text_17">
      <!-- 350 -->
      <g transform="translate(31.5125 81.33522)scale(0.1 -0.1)">
       <use xlink:href="#DejaVuSans-33"/>
       <use xlink:href="#DejaVuSans-35" x="63.623047"/>
       <use xlink:href="#DejaVuSans-30" x="127.246094"/>
      </g>
     </g>
    </g>
    <g id="ytick_9">
     <g id="line2d_17">
      <g>
       <use xlink:href="#mf09ec7b27d" x="57.6" y="44.995537" style="stroke: #000000; stroke-width: 0.8"/>
      </g>
     </g>
     <g id="text_18">
      <!-- 400 -->
      <g transform="translate(31.5125 48.794756)scale(0.1 -0.1)">
       <defs>
        <path id="DejaVuSans-34" d="M 2419 4116 
L 825 1625 
L 2419 1625 
L 2419 4116 
z
M 2253 4666 
L 3047 4666 
L 3047 1625 
L 3713 1625 
L 3713 1100 
L 3047 1100 
L 3047 0 
L 2419 0 
L 2419 1100 
L 313 1100 
L 313 1709 
L 2253 4666 
z
" transform="scale(0.015625)"/>
       </defs>
       <use xlink:href="#DejaVuSans-34"/>
       <use xlink:href="#DejaVuSans-30" x="63.623047"/>
       <use xlink:href="#DejaVuSans-30" x="127.246094"/>
      </g>
     </g>
    </g>
    <g id="text_19">
     <!-- Mean number of required repetitions of TPM -->
     <g transform="translate(25.432812 284.968625)rotate(-90)scale(0.1 -0.1)">
      <defs>
       <path id="DejaVuSans-4d" d="M 628 4666 
L 1569 4666 
L 2759 1491 
L 3956 4666 
L 4897 4666 
L 4897 0 
L 4281 0 
L 4281 4097 
L 3078 897 
L 2444 897 
L 1241 4097 
L 1241 0 
L 628 0 
L 628 4666 
z
" transform="scale(0.015625)"/>
       <path id="DejaVuSans-61" d="M 2194 1759 
Q 1497 1759 1228 1600 
Q 959 1441 959 1056 
Q 959 750 1161 570 
Q 1363 391 1709 391 
Q 2188 391 2477 730 
Q 2766 1069 2766 1631 
L 2766 1759 
L 2194 1759 
z
M 3341 1997 
L 3341 0 
L 2766 0 
L 2766 531 
Q 2569 213 2275 61 
Q 1981 -91 1556 -91 
Q 1019 -91 701 211 
Q 384 513 384 1019 
Q 384 1609 779 1909 
Q 1175 2209 1959 2209 
L 2766 2209 
L 2766 2266 
Q 2766 2663 2505 2880 
Q 2244 3097 1772 3097 
Q 1472 3097 1187 3025 
Q 903 2953 641 2809 
L 641 3341 
Q 956 3463 1253 3523 
Q 1550 3584 1831 3584 
Q 2591 3584 2966 3190 
Q 3341 2797 3341 1997 
z
" transform="scale(0.015625)"/>
       <path id="DejaVuSans-71" d="M 947 1747 
Q 947 1113 1208 752 
Q 1469 391 1925 391 
Q 2381 391 2643 752 
Q 2906 1113 2906 1747 
Q 2906 2381 2643 2742 
Q 2381 3103 1925 3103 
Q 1469 3103 1208 2742 
Q 947 2381 947 1747 
z
M 2906 525 
Q 2725 213 2448 61 
Q 2172 -91 1784 -91 
Q 1150 -91 751 415 
Q 353 922 353 1747 
Q 353 2572 751 3078 
Q 1150 3584 1784 3584 
Q 2172 3584 2448 3432 
Q 2725 3281 2906 2969 
L 2906 3500 
L 3481 3500 
L 3481 -1331 
L 2906 -1331 
L 2906 525 
z
" transform="scale(0.015625)"/>
       <path id="DejaVuSans-54" d="M -19 4666 
L 3928 4666 
L 3928 4134 
L 2272 4134 
L 2272 0 
L 1638 0 
L 1638 4134 
L -19 4134 
L -19 4666 
z
" transform="scale(0.015625)"/>
       <path id="DejaVuSans-50" d="M 1259 4147 
L 1259 2394 
L 2053 2394 
Q 2494 2394 2734 2622 
Q 2975 2850 2975 3272 
Q 2975 3691 2734 3919 
Q 2494 4147 2053 4147 
L 1259 4147 
z
M 628 4666 
L 2053 4666 
Q 2838 4666 3239 4311 
Q 3641 3956 3641 3272 
Q 3641 2581 3239 2228 
Q 2838 1875 2053 1875 
L 1259 1875 
L 1259 0 
L 628 0 
L 628 4666 
z
" transform="scale(0.015625)"/>
      </defs>
      <use xlink:href="#DejaVuSans-4d"/>
      <use xlink:href="#DejaVuSans-65" x="86.279297"/>
      <use xlink:href="#DejaVuSans-61" x="147.802734"/>
      <use xlink:href="#DejaVuSans-6e" x="209.082031"/>
      <use xlink:href="#DejaVuSans-20" x="272.460938"/>
      <use xlink:href="#DejaVuSans-6e" x="304.248047"/>
      <use xlink:href="#DejaVuSans-75" x="367.626953"/>
      <use xlink:href="#DejaVuSans-6d" x="431.005859"/>
      <use xlink:href="#DejaVuSans-62" x="528.417969"/>
      <use xlink:href="#DejaVuSans-65" x="591.894531"/>
      <use xlink:href="#DejaVuSans-72" x="653.417969"/>
      <use xlink:href="#DejaVuSans-20" x="694.53125"/>
      <use xlink:href="#DejaVuSans-6f" x="726.318359"/>
      <use xlink:href="#DejaVuSans-66" x="787.5"/>
      <use xlink:href="#DejaVuSans-20" x="822.705078"/>
      <use xlink:href="#DejaVuSans-72" x="854.492188"/>
      <use xlink:href="#DejaVuSans-65" x="893.355469"/>
      <use xlink:href="#DejaVuSans-71" x="954.878906"/>
      <use xlink:href="#DejaVuSans-75" x="1018.355469"/>
      <use xlink:href="#DejaVuSans-69" x="1081.734375"/>
      <use xlink:href="#DejaVuSans-72" x="1109.517578"/>
      <use xlink:href="#DejaVuSans-65" x="1148.380859"/>
      <use xlink:href="#DejaVuSans-64" x="1209.904297"/>
      <use xlink:href="#DejaVuSans-20" x="1273.380859"/>
      <use xlink:href="#DejaVuSans-72" x="1305.167969"/>
      <use xlink:href="#DejaVuSans-65" x="1344.03125"/>
      <use xlink:href="#DejaVuSans-70" x="1405.554688"/>
      <use xlink:href="#DejaVuSans-65" x="1469.03125"/>
      <use xlink:href="#DejaVuSans-74" x="1530.554688"/>
      <use xlink:href="#DejaVuSans-69" x="1569.763672"/>
      <use xlink:href="#DejaVuSans-74" x="1597.546875"/>
      <use xlink:href="#DejaVuSans-69" x="1636.755859"/>
      <use xlink:href="#DejaVuSans-6f" x="1664.539062"/>
      <use xlink:href="#DejaVuSans-6e" x="1725.720703"/>
      <use xlink:href="#DejaVuSans-73" x="1789.099609"/>
      <use xlink:href="#DejaVuSans-20" x="1841.199219"/>
      <use xlink:href="#DejaVuSans-6f" x="1872.986328"/>
      <use xlink:href="#DejaVuSans-66" x="1934.167969"/>
      <use xlink:href="#DejaVuSans-20" x="1969.373047"/>
      <use xlink:href="#DejaVuSans-54" x="2001.160156"/>
      <use xlink:href="#DejaVuSans-50" x="2062.244141"/>
      <use xlink:href="#DejaVuSans-4d" x="2122.546875"/>
     </g>
    </g>
   </g>
   <g id="line2d_18">
    <path d="M 73.832727 295.488 
L 75.756606 282.29566 
L 75.756606 282.29566 
L 77.680485 271.085845 
L 77.680485 271.085845 
L 79.604364 261.585225 
L 79.604364 261.585225 
L 81.528242 253.550156 
L 81.528242 253.550156 
L 83.452121 246.76424 
L 83.452121 246.76424 
L 85.376 241.036026 
L 85.376 241.036026 
L 86.818909 237.331725 
L 86.818909 237.331725 
L 89.223758 232.09884 
L 89.223758 232.09884 
L 90.666667 229.433447 
L 90.666667 229.433447 
L 92.590545 226.332392 
L 92.590545 226.332392 
L 94.995394 223.0456 
L 94.995394 223.0456 
L 97.881212 219.753162 
L 97.881212 219.753162 
L 100.286061 217.398561 
L 100.286061 217.398561 
L 102.209939 215.693967 
L 102.209939 215.693967 
L 106.538667 212.220341 
L 106.538667 212.220341 
L 114.234182 206.520344 
L 114.234182 206.520344 
L 137.320727 189.63622 
L 137.320727 189.63622 
L 142.130424 186.540354 
L 142.130424 186.540354 
L 144.054303 185.38917 
L 144.054303 185.38917 
L 148.38303 183.00352 
L 148.38303 183.00352 
L 152.711758 180.917181 
L 152.711758 180.917181 
L 155.597576 179.695078 
L 155.597576 179.695078 
L 159.926303 178.106657 
L 159.926303 178.106657 
L 165.697939 176.403398 
L 165.697939 176.403398 
L 169.545697 175.489289 
L 169.545697 175.489289 
L 177.241212 174.033834 
L 177.241212 174.033834 
L 196.48 170.817258 
L 200.327758 169.996614 
L 200.327758 169.996614 
L 208.023273 168.041566 
L 208.023273 168.041566 
L 212.352 166.75622 
L 221.490424 163.684964 
L 221.490424 163.684964 
L 239.286303 157.353183 
L 239.286303 157.353183 
L 246.500848 155.182327 
L 246.500848 155.182327 
L 248.424727 154.67985 
L 248.424727 154.67985 
L 253.715394 153.494449 
L 253.715394 153.494449 
L 258.044121 152.754453 
L 258.044121 152.754453 
L 263.815758 152.096314 
L 263.815758 152.096314 
L 265.739636 151.956876 
L 273.435152 151.739941 
L 284.978424 151.999794 
L 284.978424 151.999794 
L 285.459394 152.012011 
L 298.445576 151.736644 
L 298.445576 151.736644 
L 301.812364 151.335423 
L 301.812364 151.335423 
L 306.141091 150.527272 
L 323.456 143.396814 
L 323.456 143.396814 
L 327.784727 140.694577 
L 348.466424 127.079145 
L 348.466424 127.079145 
L 350.390303 126.175882 
L 373.476848 129.775458 
L 373.476848 129.775458 
L 373.957818 130.155462 
L 398.487273 132.521666 
L 398.487273 132.521666 
" clip-path="url(#p4692ed224b)" style="fill: none; stroke: #1f77b4; stroke-width: 1.5; stroke-linecap: square"/>
   </g>
   <g id="line2d_19">
    <path d="M 73.832727 279.277843 
L 75.756606 267.169696 
L 75.756606 267.169696 
L 77.680485 256.710181 
L 77.680485 256.710181 
L 79.604364 247.689445 
L 79.604364 247.689445 
L 81.528242 239.919277 
L 81.528242 239.919277 
L 83.452121 233.231369 
L 83.452121 233.231369 
L 85.376 227.47569 
L 85.376 227.47569 
L 86.818909 223.689941 
L 86.818909 223.689941 
L 89.223758 218.243205 
L 89.223758 218.243205 
L 90.666667 215.420229 
L 90.666667 215.420229 
L 92.590545 212.093624 
L 92.590545 212.093624 
L 94.995394 208.524182 
L 94.995394 208.524182 
L 97.881212 204.925572 
L 97.881212 204.925572 
L 100.286061 202.364933 
L 100.286061 202.364933 
L 102.209939 200.536358 
L 102.209939 200.536358 
L 104.614788 198.462099 
L 104.614788 198.462099 
L 107.981576 195.845379 
L 107.981576 195.845379 
L 112.310303 192.79382 
L 119.524848 188.081881 
L 119.524848 188.081881 
L 130.587152 181.182281 
L 130.587152 181.182281 
L 138.282667 176.609158 
L 138.282667 176.609158 
L 144.054303 173.392274 
L 144.054303 173.392274 
L 150.787879 169.945218 
L 150.787879 169.945218 
L 155.597576 167.70634 
L 155.597576 167.70634 
L 159.926303 165.850113 
L 159.926303 165.850113 
L 167.621818 162.884337 
L 173.874424 160.723689 
L 173.874424 160.723689 
L 184.455758 157.345278 
L 184.455758 157.345278 
L 198.403879 152.900939 
L 198.403879 152.900939 
L 208.023273 149.611519 
L 208.023273 149.611519 
L 234.957576 140.108314 
L 234.957576 140.108314 
L 242.653091 137.839198 
L 242.653091 137.839198 
L 248.424727 136.420868 
L 248.424727 136.420868 
L 253.715394 135.368334 
L 253.715394 135.368334 
L 258.044121 134.691787 
L 258.044121 134.691787 
L 263.815758 134.042578 
L 263.815758 134.042578 
L 265.739636 133.886257 
L 273.435152 133.512933 
L 273.435152 133.512933 
L 298.445576 133.021224 
L 298.445576 133.021224 
L 304.217212 132.488264 
L 304.217212 132.488264 
L 306.141091 132.241004 
L 323.456 128.388631 
L 323.456 128.388631 
L 327.784727 127.089427 
L 348.466424 122.475715 
L 348.466424 122.475715 
L 350.390303 122.45338 
L 373.476848 131.301753 
L 373.476848 131.301753 
L 373.957818 131.607123 
L 398.487273 115.19741 
L 398.487273 115.19741 
" clip-path="url(#p4692ed224b)" style="fill: none; stroke: #ff7f0e; stroke-width: 1.5; stroke-linecap: square"/>
   </g>
   <g id="line2d_20">
    <path d="M 73.832727 271.75439 
L 75.756606 261.185508 
L 75.756606 261.185508 
L 77.680485 251.709308 
L 77.680485 251.709308 
L 79.604364 243.221993 
L 79.604364 243.221993 
L 81.528242 235.627527 
L 81.528242 235.627527 
L 83.452121 228.837211 
L 83.452121 228.837211 
L 85.376 222.769274 
L 85.376 222.769274 
L 86.818909 218.64689 
L 86.818909 218.64689 
L 89.223758 212.505765 
L 89.223758 212.505765 
L 90.666667 209.214812 
L 90.666667 209.214812 
L 92.590545 205.234739 
L 92.590545 205.234739 
L 94.995394 200.840122 
L 94.995394 200.840122 
L 97.881212 196.294274 
L 97.881212 196.294274 
L 100.286061 193.015238 
L 100.286061 193.015238 
L 102.209939 190.672782 
L 102.209939 190.672782 
L 104.614788 188.042066 
L 104.614788 188.042066 
L 107.981576 184.815257 
L 107.981576 184.815257 
L 111.829333 181.630916 
L 111.829333 181.630916 
L 114.234182 179.847294 
L 114.234182 179.847294 
L 117.12 177.865454 
L 117.12 177.865454 
L 121.448727 175.131308 
L 127.220364 171.774442 
L 127.220364 171.774442 
L 134.915879 167.580361 
L 134.915879 167.580361 
L 144.054303 162.837943 
L 144.054303 162.837943 
L 152.711758 158.57586 
L 152.711758 158.57586 
L 159.926303 155.253889 
L 159.926303 155.253889 
L 167.621818 151.998982 
L 173.874424 149.595349 
L 173.874424 149.595349 
L 181.569939 146.928463 
L 181.569939 146.928463 
L 188.784485 144.682951 
L 188.784485 144.682951 
L 198.403879 141.959409 
L 198.403879 141.959409 
L 223.414303 135.071438 
L 223.414303 135.071438 
L 229.666909 133.182581 
L 229.666909 133.182581 
L 245.057939 128.226797 
L 245.057939 128.226797 
L 253.715394 125.437785 
L 253.715394 125.437785 
L 261.410909 123.153498 
L 261.410909 123.153498 
L 265.739636 122.014058 
L 273.435152 120.358519 
L 273.435152 120.358519 
L 277.763879 119.682645 
L 277.763879 119.682645 
L 283.535515 119.113368 
L 283.535515 119.113368 
L 285.459394 119.013209 
L 298.445576 119.525794 
L 304.217212 120.352523 
L 304.217212 120.352523 
L 306.141091 120.691003 
L 325.860848 124.519665 
L 325.860848 124.519665 
L 327.784727 124.765812 
L 348.466424 122.108445 
L 348.466424 122.108445 
L 350.390303 121.186004 
L 373.957818 101.153071 
L 398.487273 109.416027 
L 398.487273 109.416027 
" clip-path="url(#p4692ed224b)" style="fill: none; stroke: #2ca02c; stroke-width: 1.5; stroke-linecap: square"/>
   </g>
   <g id="line2d_21">
    <path d="M 73.832727 268.930402 
L 75.756606 255.549965 
L 75.756606 255.549965 
L 77.680485 243.942736 
L 77.680485 243.942736 
L 79.604364 233.894978 
L 79.604364 233.894978 
L 81.528242 225.213678 
L 81.528242 225.213678 
L 83.452121 217.724978 
L 83.452121 217.724978 
L 85.376 211.272709 
L 85.376 211.272709 
L 86.818909 207.028947 
L 86.818909 207.028947 
L 89.223758 200.932959 
L 89.223758 200.932959 
L 90.666667 197.78401 
L 90.666667 197.78401 
L 92.590545 194.090639 
L 92.590545 194.090639 
L 94.995394 190.161617 
L 94.995394 190.161617 
L 96.919273 187.473773 
L 98.362182 185.678853 
L 98.362182 185.678853 
L 100.76703 183.03475 
L 100.76703 183.03475 
L 103.652848 180.314822 
L 103.652848 180.314822 
L 106.538667 177.957251 
L 106.538667 177.957251 
L 110.386424 175.190325 
L 110.386424 175.190325 
L 115.677091 171.779366 
L 115.677091 171.779366 
L 127.220364 164.780905 
L 127.220364 164.780905 
L 144.054303 154.670152 
L 144.054303 154.670152 
L 150.787879 150.872943 
L 150.787879 150.872943 
L 157.521455 147.36178 
L 157.521455 147.36178 
L 163.293091 144.617704 
L 163.293091 144.617704 
L 169.545697 141.926177 
L 169.545697 141.926177 
L 177.241212 138.97621 
L 177.241212 138.97621 
L 184.455758 136.497459 
L 184.455758 136.497459 
L 196.48 132.727882 
L 234.957576 121.155666 
L 234.957576 121.155666 
L 242.653091 119.099922 
L 242.653091 119.099922 
L 248.424727 117.734053 
L 248.424727 117.734053 
L 253.715394 116.645088 
L 253.715394 116.645088 
L 261.410909 115.369497 
L 261.410909 115.369497 
L 265.739636 114.814117 
L 273.435152 114.084921 
L 273.435152 114.084921 
L 285.459394 113.375111 
L 298.445576 112.514964 
L 298.445576 112.514964 
L 304.217212 111.8436 
L 304.217212 111.8436 
L 306.141091 111.557275 
L 323.456 107.180944 
L 323.456 107.180944 
L 327.784727 105.564178 
L 350.390303 95.893953 
L 373.476848 94.001859 
L 373.476848 94.001859 
L 373.957818 94.141324 
L 398.487273 102.181471 
L 398.487273 102.181471 
" clip-path="url(#p4692ed224b)" style="fill: none; stroke: #d62728; stroke-width: 1.5; stroke-linecap: square"/>
   </g>
   <g id="line2d_22">
    <path d="M 73.832727 264.87483 
L 75.756606 251.959411 
L 75.756606 251.959411 
L 77.680485 240.757251 
L 77.680485 240.757251 
L 79.604364 231.051587 
L 79.604364 231.051587 
L 81.528242 222.647979 
L 81.528242 222.647979 
L 83.452121 215.372535 
L 83.452121 215.372535 
L 85.376 209.070232 
L 85.376 209.070232 
L 86.818909 204.898669 
L 86.818909 204.898669 
L 89.223758 198.849961 
L 89.223758 198.849961 
L 90.666667 195.688007 
L 90.666667 195.688007 
L 92.590545 191.932614 
L 92.590545 191.932614 
L 94.995394 187.860652 
L 94.995394 187.860652 
L 97.881212 183.702195 
L 97.881212 183.702195 
L 100.286061 180.706671 
L 100.286061 180.706671 
L 102.209939 178.548752 
L 102.209939 178.548752 
L 104.614788 176.084017 
L 104.614788 176.084017 
L 107.981576 172.95693 
L 107.981576 172.95693 
L 112.310303 169.306216 
L 117.12 165.539769 
L 117.12 165.539769 
L 123.853576 160.552733 
L 123.853576 160.552733 
L 131.549091 155.159586 
L 138.282667 150.767328 
L 138.282667 150.767328 
L 144.054303 147.323106 
L 144.054303 147.323106 
L 150.306909 143.987257 
L 150.306909 143.987257 
L 154.635636 141.934195 
L 158.002424 140.481388 
L 158.002424 140.481388 
L 163.293091 138.4381 
L 163.293091 138.4381 
L 167.621818 136.961278 
L 173.874424 135.077913 
L 173.874424 135.077913 
L 181.569939 133.033081 
L 181.569939 133.033081 
L 200.327758 128.263006 
L 200.327758 128.263006 
L 210.428121 125.37189 
L 210.428121 125.37189 
L 221.490424 121.909178 
L 221.490424 121.909178 
L 234.957576 117.692447 
L 234.957576 117.692447 
L 242.653091 115.562357 
L 242.653091 115.562357 
L 248.424727 114.207368 
L 248.424727 114.207368 
L 253.715394 113.189437 
L 253.715394 113.189437 
L 261.410909 112.12367 
L 261.410909 112.12367 
L 265.739636 111.7356 
L 273.435152 111.363799 
L 273.435152 111.363799 
L 285.459394 111.232901 
L 298.445576 110.73891 
L 304.217212 110.067516 
L 304.217212 110.067516 
L 306.141091 109.755184 
L 323.456 104.644636 
L 323.456 104.644636 
L 327.784727 102.77397 
L 348.466424 93.589423 
L 348.466424 93.589423 
L 350.390303 92.999301 
L 373.476848 95.555697 
L 373.476848 95.555697 
L 373.957818 95.802086 
L 398.487273 93.59205 
L 398.487273 93.59205 
" clip-path="url(#p4692ed224b)" style="fill: none; stroke: #9467bd; stroke-width: 1.5; stroke-linecap: square"/>
   </g>
   <g id="line2d_23">
    <path d="M 73.832727 262.927497 
L 75.756606 250.717239 
L 75.756606 250.717239 
L 77.680485 239.938492 
L 77.680485 239.938492 
L 79.604364 230.429156 
L 79.604364 230.429156 
L 81.528242 222.042316 
L 81.528242 222.042316 
L 83.452121 214.645136 
L 83.452121 214.645136 
L 85.376 208.1178 
L 85.376 208.1178 
L 86.818909 203.727866 
L 86.818909 203.727866 
L 89.223758 197.252595 
L 89.223758 197.252595 
L 90.666667 193.811903 
L 90.666667 193.811903 
L 92.590545 189.673901 
L 92.590545 189.673901 
L 94.995394 185.126135 
L 94.995394 185.126135 
L 97.881212 180.428569 
L 97.881212 180.428569 
L 100.286061 177.028197 
L 100.286061 177.028197 
L 102.209939 174.582677 
L 102.209939 174.582677 
L 104.614788 171.80857 
L 104.614788 171.80857 
L 107.981576 168.345624 
L 107.981576 168.345624 
L 111.829333 164.837058 
L 111.829333 164.837058 
L 115.677091 161.66786 
L 115.677091 161.66786 
L 120.967758 157.683121 
L 120.967758 157.683121 
L 125.296485 154.643972 
L 125.296485 154.643972 
L 131.549091 150.510133 
L 138.282667 146.354441 
L 138.282667 146.354441 
L 144.054303 143.044187 
L 144.054303 143.044187 
L 150.787879 139.504483 
L 150.787879 139.504483 
L 155.597576 137.202032 
L 155.597576 137.202032 
L 159.926303 135.293039 
L 159.926303 135.293039 
L 167.140848 132.440751 
L 167.140848 132.440751 
L 172.912485 130.424759 
L 172.912485 130.424759 
L 179.646061 128.31317 
L 179.646061 128.31317 
L 188.784485 125.72611 
L 188.784485 125.72611 
L 212.352 119.314658 
L 227.262061 114.9022 
L 227.262061 114.9022 
L 242.653091 110.333125 
L 242.653091 110.333125 
L 248.424727 108.763645 
L 248.424727 108.763645 
L 258.044121 106.488513 
L 258.044121 106.488513 
L 265.739636 105.057989 
L 273.435152 104.00847 
L 273.435152 104.00847 
L 281.130667 103.31434 
L 281.130667 103.31434 
L 285.459394 103.050252 
L 306.141091 102.106912 
L 323.456 99.727156 
L 323.456 99.727156 
L 327.784727 98.658596 
L 350.390303 90.244786 
L 373.476848 84.875206 
L 373.476848 84.875206 
L 373.957818 84.94221 
L 398.487273 108.18737 
L 398.487273 108.18737 
" clip-path="url(#p4692ed224b)" style="fill: none; stroke: #8c564b; stroke-width: 1.5; stroke-linecap: square"/>
   </g>
   <g id="line2d_24">
    <path d="M 73.832727 256.862695 
L 75.756606 244.347411 
L 75.756606 244.347411 
L 77.680485 233.408501 
L 77.680485 233.408501 
L 79.604364 223.858656 
L 79.604364 223.858656 
L 81.528242 215.528614 
L 81.528242 215.528614 
L 83.452121 208.265813 
L 83.452121 208.265813 
L 85.376 201.933117 
L 85.376 201.933117 
L 86.818909 197.719534 
L 86.818909 197.719534 
L 89.223758 191.579478 
L 89.223758 191.579478 
L 90.666667 188.356774 
L 90.666667 188.356774 
L 92.590545 184.520388 
L 92.590545 184.520388 
L 94.995394 180.355542 
L 94.995394 180.355542 
L 97.881212 176.108541 
L 97.881212 176.108541 
L 100.286061 173.063959 
L 100.286061 173.063959 
L 102.209939 170.884508 
L 102.209939 170.884508 
L 104.614788 168.414992 
L 104.614788 168.414992 
L 107.981576 165.319473 
L 107.981576 165.319473 
L 112.310303 161.762397 
L 117.12 158.142818 
L 117.12 158.142818 
L 125.296485 152.373888 
L 125.296485 152.373888 
L 134.915879 145.908998 
L 134.915879 145.908998 
L 142.611394 141.031717 
L 142.611394 141.031717 
L 148.38303 137.629432 
L 148.38303 137.629432 
L 154.635636 134.254689 
L 159.926303 131.678681 
L 159.926303 131.678681 
L 165.697939 129.166069 
L 165.697939 129.166069 
L 169.545697 127.655846 
L 169.545697 127.655846 
L 173.874424 126.100288 
L 173.874424 126.100288 
L 181.569939 123.648993 
L 181.569939 123.648993 
L 188.784485 121.613733 
L 188.784485 121.613733 
L 217.161697 114.040991 
L 217.161697 114.040991 
L 229.666909 110.319821 
L 229.666909 110.319821 
L 248.424727 104.617406 
L 248.424727 104.617406 
L 258.044121 101.975192 
L 258.044121 101.975192 
L 265.739636 100.125411 
L 277.763879 97.757446 
L 277.763879 97.757446 
L 285.459394 96.522678 
L 306.141091 93.433018 
L 323.456 89.829246 
L 323.456 89.829246 
L 327.784727 88.707048 
L 349.909333 83.014953 
L 349.909333 83.014953 
L 350.390303 82.927701 
L 373.476848 84.488019 
L 373.476848 84.488019 
L 373.957818 84.669832 
L 398.487273 95.646779 
L 398.487273 95.646779 
" clip-path="url(#p4692ed224b)" style="fill: none; stroke: #e377c2; stroke-width: 1.5; stroke-linecap: square"/>
   </g>
   <g id="line2d_25">
    <path d="M 73.832727 261.336886 
L 75.756606 247.296603 
L 75.756606 247.296603 
L 77.680485 235.151282 
L 77.680485 235.151282 
L 79.604364 224.665105 
L 79.604364 224.665105 
L 81.528242 215.625438 
L 81.528242 215.625438 
L 83.452121 207.841099 
L 83.452121 207.841099 
L 85.376 201.140719 
L 85.376 201.140719 
L 86.818909 196.73403 
L 86.818909 196.73403 
L 89.223758 190.396191 
L 89.223758 190.396191 
L 90.666667 187.1131 
L 90.666667 187.1131 
L 92.590545 183.246227 
L 92.590545 183.246227 
L 94.995394 179.099088 
L 94.995394 179.099088 
L 97.881212 174.917602 
L 97.881212 174.917602 
L 100.286061 171.937684 
L 100.286061 171.937684 
L 102.209939 169.803672 
L 102.209939 169.803672 
L 104.614788 167.371709 
L 104.614788 167.371709 
L 107.981576 164.275558 
L 107.981576 164.275558 
L 112.310303 160.603249 
L 131.549091 144.969077 
L 140.687515 137.684561 
L 140.687515 137.684561 
L 144.054303 135.139078 
L 144.054303 135.139078 
L 150.306909 130.727639 
L 150.306909 130.727639 
L 154.635636 127.965796 
L 158.002424 126.00315 
L 158.002424 126.00315 
L 159.926303 124.957516 
L 159.926303 124.957516 
L 165.697939 122.15501 
L 165.697939 122.15501 
L 169.545697 120.558833 
L 169.545697 120.558833 
L 173.874424 119.005614 
L 173.874424 119.005614 
L 179.646061 117.287534 
L 179.646061 117.287534 
L 184.455758 116.109522 
L 184.455758 116.109522 
L 192.151273 114.561653 
L 192.151273 114.561653 
L 217.161697 110.083182 
L 217.161697 110.083182 
L 227.262061 107.791688 
L 227.262061 107.791688 
L 234.957576 105.815913 
L 234.957576 105.815913 
L 253.715394 100.796445 
L 253.715394 100.796445 
L 261.410909 98.979299 
L 261.410909 98.979299 
L 265.739636 98.087335 
L 273.435152 96.778839 
L 273.435152 96.778839 
L 281.130667 95.83809 
L 281.130667 95.83809 
L 285.459394 95.456459 
L 306.141091 94.359202 
L 323.456 92.609684 
L 323.456 92.609684 
L 327.784727 91.838461 
L 350.390303 86.017302 
L 373.957818 83.214079 
L 398.487273 87.920147 
L 398.487273 87.920147 
" clip-path="url(#p4692ed224b)" style="fill: none; stroke: #7f7f7f; stroke-width: 1.5; stroke-linecap: square"/>
   </g>
   <g id="line2d_26">
    <path d="M 73.832727 256.438733 
L 75.756606 243.22029 
L 75.756606 243.22029 
L 77.680485 231.691288 
L 77.680485 231.691288 
L 79.604364 221.651526 
L 79.604364 221.651526 
L 81.528242 212.91984 
L 81.528242 212.91984 
L 83.452121 205.332698 
L 83.452121 205.332698 
L 85.376 198.742879 
L 85.376 198.742879 
L 86.818909 194.37497 
L 86.818909 194.37497 
L 89.223758 188.040432 
L 89.223758 188.040432 
L 90.666667 184.733305 
L 90.666667 184.733305 
L 92.590545 180.815743 
L 92.590545 180.815743 
L 94.995394 176.590812 
L 94.995394 176.590812 
L 97.881212 172.317595 
L 97.881212 172.317595 
L 100.286061 169.277893 
L 100.286061 169.277893 
L 102.209939 167.113718 
L 102.209939 167.113718 
L 104.614788 164.671383 
L 104.614788 164.671383 
L 107.981576 161.618013 
L 107.981576 161.618013 
L 112.310303 158.102438 
L 117.12 154.489045 
L 117.12 154.489045 
L 130.587152 144.811182 
L 130.587152 144.811182 
L 140.687515 137.711795 
L 140.687515 137.711795 
L 146.940121 133.535195 
L 146.940121 133.535195 
L 152.711758 129.938807 
L 152.711758 129.938807 
L 158.002424 126.920381 
L 158.002424 126.920381 
L 163.293091 124.203829 
L 163.293091 124.203829 
L 167.621818 122.217043 
L 172.912485 120.075749 
L 172.912485 120.075749 
L 177.241212 118.547772 
L 177.241212 118.547772 
L 181.569939 117.204599 
L 181.569939 117.204599 
L 184.455758 116.401743 
L 184.455758 116.401743 
L 192.151273 114.562824 
L 192.151273 114.562824 
L 200.327758 112.95922 
L 200.327758 112.95922 
L 229.666909 107.769743 
L 229.666909 107.769743 
L 239.286303 105.699739 
L 239.286303 105.699739 
L 248.424727 103.461094 
L 248.424727 103.461094 
L 258.044121 100.825086 
L 258.044121 100.825086 
L 265.739636 98.526537 
L 277.763879 94.638253 
L 277.763879 94.638253 
L 285.459394 91.991135 
L 306.141091 84.670087 
L 323.456 79.675192 
L 323.456 79.675192 
L 327.784727 78.912755 
L 348.466424 80.484964 
L 348.466424 80.484964 
L 350.390303 81.179132 
L 373.957818 94.652006 
L 398.487273 64.019016 
L 398.487273 64.019016 
" clip-path="url(#p4692ed224b)" style="fill: none; stroke: #bcbd22; stroke-width: 1.5; stroke-linecap: square"/>
   </g>
   <g id="line2d_27">
    <path d="M 73.832727 250.845853 
L 75.756606 239.003421 
L 75.756606 239.003421 
L 77.680485 228.536245 
L 77.680485 228.536245 
L 79.604364 219.287797 
L 79.604364 219.287797 
L 81.528242 211.116533 
L 81.528242 211.116533 
L 83.452121 203.894739 
L 83.452121 203.894739 
L 85.376 197.507459 
L 85.376 197.507459 
L 86.818909 193.202143 
L 86.818909 193.202143 
L 89.223758 186.834358 
L 89.223758 186.834358 
L 90.666667 183.440775 
L 90.666667 183.440775 
L 92.590545 179.348541 
L 92.590545 179.348541 
L 94.995394 174.835297 
L 94.995394 174.835297 
L 97.881212 170.153572 
L 97.881212 170.153572 
L 100.286061 166.750994 
L 100.286061 166.750994 
L 102.209939 164.296701 
L 102.209939 164.296701 
L 104.614788 161.505839 
L 104.614788 161.505839 
L 107.981576 158.013641 
L 107.981576 158.013641 
L 111.829333 154.469824 
L 111.829333 154.469824 
L 115.677091 151.268114 
L 115.677091 151.268114 
L 120.967758 147.245644 
L 120.967758 147.245644 
L 125.296485 144.178936 
L 125.296485 144.178936 
L 131.549091 139.997912 
L 131.549091 139.997912 
L 138.282667 135.756216 
L 138.282667 135.756216 
L 144.054303 132.318662 
L 144.054303 132.318662 
L 150.787879 128.541999 
L 150.787879 128.541999 
L 158.002424 124.779475 
L 158.002424 124.779475 
L 165.697939 121.079937 
L 165.697939 121.079937 
L 173.393455 117.672644 
L 173.393455 117.672644 
L 181.569939 114.320528 
L 181.569939 114.320528 
L 188.784485 111.548341 
L 188.784485 111.548341 
L 198.403879 108.07651 
L 198.403879 108.07651 
L 208.023273 104.856809 
L 208.023273 104.856809 
L 212.352 103.504233 
L 212.352 103.504233 
L 221.490424 100.901828 
L 221.490424 100.901828 
L 228.70497 99.152767 
L 228.70497 99.152767 
L 229.666909 98.9436 
L 229.666909 98.9436 
L 234.957576 97.905516 
L 234.957576 97.905516 
L 242.653091 96.76276 
L 242.653091 96.76276 
L 248.424727 96.209283 
L 248.424727 96.209283 
L 253.715394 95.93079 
L 253.715394 95.93079 
L 261.410909 95.88628 
L 261.410909 95.88628 
L 265.739636 96.020314 
L 265.739636 96.020314 
L 283.535515 97.129504 
L 283.535515 97.129504 
L 285.459394 97.237663 
L 285.459394 97.237663 
L 298.445576 97.398578 
L 298.445576 97.398578 
L 304.217212 96.988017 
L 304.217212 96.988017 
L 306.141091 96.767463 
L 306.141091 96.767463 
L 323.456 92.789392 
L 323.456 92.789392 
L 327.784727 91.313057 
L 327.784727 91.313057 
L 348.466424 84.226049 
L 348.466424 84.226049 
L 350.390303 83.789822 
L 350.390303 83.789822 
L 373.476848 86.120621 
L 373.476848 86.120621 
L 373.957818 86.319285 
L 373.957818 86.319285 
L 398.487273 86.169631 
L 398.487273 86.169631 
" clip-path="url(#p4692ed224b)" style="fill: none; stroke: #17becf; stroke-width: 1.5; stroke-linecap: square"/>
   </g>
   <g id="line2d_28">
    <path d="M 73.832727 249.634939 
L 75.756606 236.82824 
L 75.756606 236.82824 
L 77.680485 225.723842 
L 77.680485 225.723842 
L 79.604364 216.101409 
L 79.604364 216.101409 
L 81.528242 207.763857 
L 81.528242 207.763857 
L 83.452121 200.535459 
L 83.452121 200.535459 
L 85.376 194.260066 
L 85.376 194.260066 
L 86.818909 190.09514 
L 86.818909 190.09514 
L 89.223758 184.031654 
L 89.223758 184.031654 
L 90.666667 180.845597 
L 90.666667 180.845597 
L 92.590545 177.040933 
L 92.590545 177.040933 
L 94.995394 172.881339 
L 94.995394 172.881339 
L 97.881212 168.582941 
L 97.881212 168.582941 
L 100.286061 165.445338 
L 100.286061 165.445338 
L 102.209939 163.159459 
L 102.209939 163.159459 
L 104.614788 160.519795 
L 104.614788 160.519795 
L 107.981576 157.126091 
L 107.981576 157.126091 
L 112.310303 153.109117 
L 112.310303 153.109117 
L 117.12 148.925652 
L 117.12 148.925652 
L 123.853576 143.376972 
L 123.853576 143.376972 
L 130.587152 138.143171 
L 130.587152 138.143171 
L 134.915879 134.977211 
L 134.915879 134.977211 
L 140.687515 131.056497 
L 140.687515 131.056497 
L 144.054303 128.950459 
L 144.054303 128.950459 
L 148.38303 126.455438 
L 148.38303 126.455438 
L 152.711758 124.206565 
L 152.711758 124.206565 
L 157.521455 121.992127 
L 157.521455 121.992127 
L 159.926303 120.991563 
L 159.926303 120.991563 
L 165.697939 118.85136 
L 165.697939 118.85136 
L 169.545697 117.601687 
L 169.545697 117.601687 
L 177.241212 115.414558 
L 177.241212 115.414558 
L 188.784485 112.517632 
L 188.784485 112.517632 
L 200.327758 109.547018 
L 200.327758 109.547018 
L 210.428121 106.633063 
L 210.428121 106.633063 
L 221.490424 103.144052 
L 221.490424 103.144052 
L 229.666909 100.537317 
L 229.666909 100.537317 
L 239.286303 97.706902 
L 239.286303 97.706902 
L 246.981818 95.807414 
L 246.981818 95.807414 
L 248.424727 95.497849 
L 248.424727 95.497849 
L 253.715394 94.501847 
L 253.715394 94.501847 
L 261.410909 93.451022 
L 261.410909 93.451022 
L 265.739636 93.05473 
L 265.739636 93.05473 
L 277.763879 92.480885 
L 277.763879 92.480885 
L 285.459394 92.25585 
L 285.459394 92.25585 
L 298.445576 91.3402 
L 298.445576 91.3402 
L 304.217212 90.478303 
L 304.217212 90.478303 
L 306.141091 90.110953 
L 306.141091 90.110953 
L 323.456 85.070735 
L 323.456 85.070735 
L 327.784727 83.495114 
L 327.784727 83.495114 
L 348.466424 78.285257 
L 348.466424 78.285257 
L 350.390303 78.290406 
L 350.390303 78.290406 
L 373.957818 87.71635 
L 373.957818 87.71635 
L 398.487273 53.568 
L 398.487273 53.568 
" clip-path="url(#p4692ed224b)" style="fill: none; stroke: #1f77b4; stroke-width: 1.5; stroke-linecap: square"/>
   </g>
   <g id="patch_3">
    <path d="M 57.6 307.584 
L 57.6 41.472 
" style="fill: none; stroke: #000000; stroke-width: 0.8; stroke-linejoin: miter; stroke-linecap: square"/>
   </g>
   <g id="patch_4">
    <path d="M 414.72 307.584 
L 414.72 41.472 
" style="fill: none; stroke: #000000; stroke-width: 0.8; stroke-linejoin: miter; stroke-linecap: square"/>
   </g>
   <g id="patch_5">
    <path d="M 57.6 307.584 
L 414.72 307.584 
" style="fill: none; stroke: #000000; stroke-width: 0.8; stroke-linejoin: miter; stroke-linecap: square"/>
   </g>
   <g id="patch_6">
    <path d="M 57.6 41.472 
L 414.72 41.472 
" style="fill: none; stroke: #000000; stroke-width: 0.8; stroke-linejoin: miter; stroke-linecap: square"/>
   </g>
   <g id="text_20">
    <!-- QBER influence on mean number of required repetitions of TPM with L=5 -->
    <g transform="translate(16.7025 35.472)scale(0.12 -0.12)">
     <defs>
      <path id="DejaVuSans-51" d="M 2522 4238 
Q 1834 4238 1429 3725 
Q 1025 3213 1025 2328 
Q 1025 1447 1429 934 
Q 1834 422 2522 422 
Q 3209 422 3611 934 
Q 4013 1447 4013 2328 
Q 4013 3213 3611 3725 
Q 3209 4238 2522 4238 
z
M 3406 84 
L 4238 -825 
L 3475 -825 
L 2784 -78 
Q 2681 -84 2626 -87 
Q 2572 -91 2522 -91 
Q 1538 -91 948 567 
Q 359 1225 359 2328 
Q 359 3434 948 4092 
Q 1538 4750 2522 4750 
Q 3503 4750 4090 4092 
Q 4678 3434 4678 2328 
Q 4678 1516 4351 937 
Q 4025 359 3406 84 
z
" transform="scale(0.015625)"/>
      <path id="DejaVuSans-42" d="M 1259 2228 
L 1259 519 
L 2272 519 
Q 2781 519 3026 730 
Q 3272 941 3272 1375 
Q 3272 1813 3026 2020 
Q 2781 2228 2272 2228 
L 1259 2228 
z
M 1259 4147 
L 1259 2741 
L 2194 2741 
Q 2656 2741 2882 2914 
Q 3109 3088 3109 3444 
Q 3109 3797 2882 3972 
Q 2656 4147 2194 4147 
L 1259 4147 
z
M 628 4666 
L 2241 4666 
Q 2963 4666 3353 4366 
Q 3744 4066 3744 3513 
Q 3744 3084 3544 2831 
Q 3344 2578 2956 2516 
Q 3422 2416 3680 2098 
Q 3938 1781 3938 1306 
Q 3938 681 3513 340 
Q 3088 0 2303 0 
L 628 0 
L 628 4666 
z
" transform="scale(0.015625)"/>
      <path id="DejaVuSans-45" d="M 628 4666 
L 3578 4666 
L 3578 4134 
L 1259 4134 
L 1259 2753 
L 3481 2753 
L 3481 2222 
L 1259 2222 
L 1259 531 
L 3634 531 
L 3634 0 
L 628 0 
L 628 4666 
z
" transform="scale(0.015625)"/>
      <path id="DejaVuSans-52" d="M 2841 2188 
Q 3044 2119 3236 1894 
Q 3428 1669 3622 1275 
L 4263 0 
L 3584 0 
L 2988 1197 
Q 2756 1666 2539 1819 
Q 2322 1972 1947 1972 
L 1259 1972 
L 1259 0 
L 628 0 
L 628 4666 
L 2053 4666 
Q 2853 4666 3247 4331 
Q 3641 3997 3641 3322 
Q 3641 2881 3436 2590 
Q 3231 2300 2841 2188 
z
M 1259 4147 
L 1259 2491 
L 2053 2491 
Q 2509 2491 2742 2702 
Q 2975 2913 2975 3322 
Q 2975 3731 2742 3939 
Q 2509 4147 2053 4147 
L 1259 4147 
z
" transform="scale(0.015625)"/>
      <path id="DejaVuSans-63" d="M 3122 3366 
L 3122 2828 
Q 2878 2963 2633 3030 
Q 2388 3097 2138 3097 
Q 1578 3097 1268 2742 
Q 959 2388 959 1747 
Q 959 1106 1268 751 
Q 1578 397 2138 397 
Q 2388 397 2633 464 
Q 2878 531 3122 666 
L 3122 134 
Q 2881 22 2623 -34 
Q 2366 -91 2075 -91 
Q 1284 -91 818 406 
Q 353 903 353 1747 
Q 353 2603 823 3093 
Q 1294 3584 2113 3584 
Q 2378 3584 2631 3529 
Q 2884 3475 3122 3366 
z
" transform="scale(0.015625)"/>
      <path id="DejaVuSans-77" d="M 269 3500 
L 844 3500 
L 1563 769 
L 2278 3500 
L 2956 3500 
L 3675 769 
L 4391 3500 
L 4966 3500 
L 4050 0 
L 3372 0 
L 2619 2869 
L 1863 0 
L 1184 0 
L 269 3500 
z
" transform="scale(0.015625)"/>
      <path id="DejaVuSans-4c" d="M 628 4666 
L 1259 4666 
L 1259 531 
L 3531 531 
L 3531 0 
L 628 0 
L 628 4666 
z
" transform="scale(0.015625)"/>
      <path id="DejaVuSans-3d" d="M 678 2906 
L 4684 2906 
L 4684 2381 
L 678 2381 
L 678 2906 
z
M 678 1631 
L 4684 1631 
L 4684 1100 
L 678 1100 
L 678 1631 
z
" transform="scale(0.015625)"/>
     </defs>
     <use xlink:href="#DejaVuSans-51"/>
     <use xlink:href="#DejaVuSans-42" x="78.710938"/>
     <use xlink:href="#DejaVuSans-45" x="147.314453"/>
     <use xlink:href="#DejaVuSans-52" x="210.498047"/>
     <use xlink:href="#DejaVuSans-20" x="279.980469"/>
     <use xlink:href="#DejaVuSans-69" x="311.767578"/>
     <use xlink:href="#DejaVuSans-6e" x="339.550781"/>
     <use xlink:href="#DejaVuSans-66" x="402.929688"/>
     <use xlink:href="#DejaVuSans-6c" x="438.134766"/>
     <use xlink:href="#DejaVuSans-75" x="465.917969"/>
     <use xlink:href="#DejaVuSans-65" x="529.296875"/>
     <use xlink:href="#DejaVuSans-6e" x="590.820312"/>
     <use xlink:href="#DejaVuSans-63" x="654.199219"/>
     <use xlink:href="#DejaVuSans-65" x="709.179688"/>
     <use xlink:href="#DejaVuSans-20" x="770.703125"/>
     <use xlink:href="#DejaVuSans-6f" x="802.490234"/>
     <use xlink:href="#DejaVuSans-6e" x="863.671875"/>
     <use xlink:href="#DejaVuSans-20" x="927.050781"/>
     <use xlink:href="#DejaVuSans-6d" x="958.837891"/>
     <use xlink:href="#DejaVuSans-65" x="1056.25"/>
     <use xlink:href="#DejaVuSans-61" x="1117.773438"/>
     <use xlink:href="#DejaVuSans-6e" x="1179.052734"/>
     <use xlink:href="#DejaVuSans-20" x="1242.431641"/>
     <use xlink:href="#DejaVuSans-6e" x="1274.21875"/>
     <use xlink:href="#DejaVuSans-75" x="1337.597656"/>
     <use xlink:href="#DejaVuSans-6d" x="1400.976562"/>
     <use xlink:href="#DejaVuSans-62" x="1498.388672"/>
     <use xlink:href="#DejaVuSans-65" x="1561.865234"/>
     <use xlink:href="#DejaVuSans-72" x="1623.388672"/>
     <use xlink:href="#DejaVuSans-20" x="1664.501953"/>
     <use xlink:href="#DejaVuSans-6f" x="1696.289062"/>
     <use xlink:href="#DejaVuSans-66" x="1757.470703"/>
     <use xlink:href="#DejaVuSans-20" x="1792.675781"/>
     <use xlink:href="#DejaVuSans-72" x="1824.462891"/>
     <use xlink:href="#DejaVuSans-65" x="1863.326172"/>
     <use xlink:href="#DejaVuSans-71" x="1924.849609"/>
     <use xlink:href="#DejaVuSans-75" x="1988.326172"/>
     <use xlink:href="#DejaVuSans-69" x="2051.705078"/>
     <use xlink:href="#DejaVuSans-72" x="2079.488281"/>
     <use xlink:href="#DejaVuSans-65" x="2118.351562"/>
     <use xlink:href="#DejaVuSans-64" x="2179.875"/>
     <use xlink:href="#DejaVuSans-20" x="2243.351562"/>
     <use xlink:href="#DejaVuSans-72" x="2275.138672"/>
     <use xlink:href="#DejaVuSans-65" x="2314.001953"/>
     <use xlink:href="#DejaVuSans-70" x="2375.525391"/>
     <use xlink:href="#DejaVuSans-65" x="2439.001953"/>
     <use xlink:href="#DejaVuSans-74" x="2500.525391"/>
     <use xlink:href="#DejaVuSans-69" x="2539.734375"/>
     <use xlink:href="#DejaVuSans-74" x="2567.517578"/>
     <use xlink:href="#DejaVuSans-69" x="2606.726562"/>
     <use xlink:href="#DejaVuSans-6f" x="2634.509766"/>
     <use xlink:href="#DejaVuSans-6e" x="2695.691406"/>
     <use xlink:href="#DejaVuSans-73" x="2759.070312"/>
     <use xlink:href="#DejaVuSans-20" x="2811.169922"/>
     <use xlink:href="#DejaVuSans-6f" x="2842.957031"/>
     <use xlink:href="#DejaVuSans-66" x="2904.138672"/>
     <use xlink:href="#DejaVuSans-20" x="2939.34375"/>
     <use xlink:href="#DejaVuSans-54" x="2971.130859"/>
     <use xlink:href="#DejaVuSans-50" x="3032.214844"/>
     <use xlink:href="#DejaVuSans-4d" x="3092.517578"/>
     <use xlink:href="#DejaVuSans-20" x="3178.796875"/>
     <use xlink:href="#DejaVuSans-77" x="3210.583984"/>
     <use xlink:href="#DejaVuSans-69" x="3292.371094"/>
     <use xlink:href="#DejaVuSans-74" x="3320.154297"/>
     <use xlink:href="#DejaVuSans-68" x="3359.363281"/>
     <use xlink:href="#DejaVuSans-20" x="3422.742188"/>
     <use xlink:href="#DejaVuSans-4c" x="3454.529297"/>
     <use xlink:href="#DejaVuSans-3d" x="3510.242188"/>
     <use xlink:href="#DejaVuSans-35" x="3594.03125"/>
    </g>
   </g>
   <g id="legend_1">
    <g id="patch_7">
     <path d="M 328.760625 302.584 
L 407.72 302.584 
Q 409.72 302.584 409.72 300.584 
L 409.72 140.124625 
Q 409.72 138.124625 407.72 138.124625 
L 328.760625 138.124625 
Q 326.760625 138.124625 326.760625 140.124625 
L 326.760625 300.584 
Q 326.760625 302.584 328.760625 302.584 
z
" style="fill: #ffffff; opacity: 0.8; stroke: #cccccc; stroke-linejoin: miter"/>
    </g>
    <g id="line2d_29">
     <path d="M 330.760625 146.223062 
L 340.760625 146.223062 
L 350.760625 146.223062 
" style="fill: none; stroke: #1f77b4; stroke-width: 1.5; stroke-linecap: square"/>
    </g>
    <g id="text_21">
     <!-- QBER: 1 -->
     <g transform="translate(358.760625 149.723062)scale(0.1 -0.1)">
      <defs>
       <path id="DejaVuSans-3a" d="M 750 794 
L 1409 794 
L 1409 0 
L 750 0 
L 750 794 
z
M 750 3309 
L 1409 3309 
L 1409 2516 
L 750 2516 
L 750 3309 
z
" transform="scale(0.015625)"/>
      </defs>
      <use xlink:href="#DejaVuSans-51"/>
      <use xlink:href="#DejaVuSans-42" x="78.710938"/>
      <use xlink:href="#DejaVuSans-45" x="147.314453"/>
      <use xlink:href="#DejaVuSans-52" x="210.498047"/>
      <use xlink:href="#DejaVuSans-3a" x="276.855469"/>
      <use xlink:href="#DejaVuSans-20" x="310.546875"/>
      <use xlink:href="#DejaVuSans-31" x="342.333984"/>
     </g>
    </g>
    <g id="line2d_30">
     <path d="M 330.760625 160.901188 
L 340.760625 160.901188 
L 350.760625 160.901188 
" style="fill: none; stroke: #ff7f0e; stroke-width: 1.5; stroke-linecap: square"/>
    </g>
    <g id="text_22">
     <!-- QBER: 2 -->
     <g transform="translate(358.760625 164.401188)scale(0.1 -0.1)">
      <use xlink:href="#DejaVuSans-51"/>
      <use xlink:href="#DejaVuSans-42" x="78.710938"/>
      <use xlink:href="#DejaVuSans-45" x="147.314453"/>
      <use xlink:href="#DejaVuSans-52" x="210.498047"/>
      <use xlink:href="#DejaVuSans-3a" x="276.855469"/>
      <use xlink:href="#DejaVuSans-20" x="310.546875"/>
      <use xlink:href="#DejaVuSans-32" x="342.333984"/>
     </g>
    </g>
    <g id="line2d_31">
     <path d="M 330.760625 175.579313 
L 340.760625 175.579313 
L 350.760625 175.579313 
" style="fill: none; stroke: #2ca02c; stroke-width: 1.5; stroke-linecap: square"/>
    </g>
    <g id="text_23">
     <!-- QBER: 3 -->
     <g transform="translate(358.760625 179.079313)scale(0.1 -0.1)">
      <use xlink:href="#DejaVuSans-51"/>
      <use xlink:href="#DejaVuSans-42" x="78.710938"/>
      <use xlink:href="#DejaVuSans-45" x="147.314453"/>
      <use xlink:href="#DejaVuSans-52" x="210.498047"/>
      <use xlink:href="#DejaVuSans-3a" x="276.855469"/>
      <use xlink:href="#DejaVuSans-20" x="310.546875"/>
      <use xlink:href="#DejaVuSans-33" x="342.333984"/>
     </g>
    </g>
    <g id="line2d_32">
     <path d="M 330.760625 190.257438 
L 340.760625 190.257438 
L 350.760625 190.257438 
" style="fill: none; stroke: #d62728; stroke-width: 1.5; stroke-linecap: square"/>
    </g>
    <g id="text_24">
     <!-- QBER: 4 -->
     <g transform="translate(358.760625 193.757438)scale(0.1 -0.1)">
      <use xlink:href="#DejaVuSans-51"/>
      <use xlink:href="#DejaVuSans-42" x="78.710938"/>
      <use xlink:href="#DejaVuSans-45" x="147.314453"/>
      <use xlink:href="#DejaVuSans-52" x="210.498047"/>
      <use xlink:href="#DejaVuSans-3a" x="276.855469"/>
      <use xlink:href="#DejaVuSans-20" x="310.546875"/>
      <use xlink:href="#DejaVuSans-34" x="342.333984"/>
     </g>
    </g>
    <g id="line2d_33">
     <path d="M 330.760625 204.935563 
L 340.760625 204.935563 
L 350.760625 204.935563 
" style="fill: none; stroke: #9467bd; stroke-width: 1.5; stroke-linecap: square"/>
    </g>
    <g id="text_25">
     <!-- QBER: 5 -->
     <g transform="translate(358.760625 208.435563)scale(0.1 -0.1)">
      <use xlink:href="#DejaVuSans-51"/>
      <use xlink:href="#DejaVuSans-42" x="78.710938"/>
      <use xlink:href="#DejaVuSans-45" x="147.314453"/>
      <use xlink:href="#DejaVuSans-52" x="210.498047"/>
      <use xlink:href="#DejaVuSans-3a" x="276.855469"/>
      <use xlink:href="#DejaVuSans-20" x="310.546875"/>
      <use xlink:href="#DejaVuSans-35" x="342.333984"/>
     </g>
    </g>
    <g id="line2d_34">
     <path d="M 330.760625 219.613688 
L 340.760625 219.613688 
L 350.760625 219.613688 
" style="fill: none; stroke: #8c564b; stroke-width: 1.5; stroke-linecap: square"/>
    </g>
    <g id="text_26">
     <!-- QBER: 6 -->
     <g transform="translate(358.760625 223.113688)scale(0.1 -0.1)">
      <defs>
       <path id="DejaVuSans-36" d="M 2113 2584 
Q 1688 2584 1439 2293 
Q 1191 2003 1191 1497 
Q 1191 994 1439 701 
Q 1688 409 2113 409 
Q 2538 409 2786 701 
Q 3034 994 3034 1497 
Q 3034 2003 2786 2293 
Q 2538 2584 2113 2584 
z
M 3366 4563 
L 3366 3988 
Q 3128 4100 2886 4159 
Q 2644 4219 2406 4219 
Q 1781 4219 1451 3797 
Q 1122 3375 1075 2522 
Q 1259 2794 1537 2939 
Q 1816 3084 2150 3084 
Q 2853 3084 3261 2657 
Q 3669 2231 3669 1497 
Q 3669 778 3244 343 
Q 2819 -91 2113 -91 
Q 1303 -91 875 529 
Q 447 1150 447 2328 
Q 447 3434 972 4092 
Q 1497 4750 2381 4750 
Q 2619 4750 2861 4703 
Q 3103 4656 3366 4563 
z
" transform="scale(0.015625)"/>
      </defs>
      <use xlink:href="#DejaVuSans-51"/>
      <use xlink:href="#DejaVuSans-42" x="78.710938"/>
      <use xlink:href="#DejaVuSans-45" x="147.314453"/>
      <use xlink:href="#DejaVuSans-52" x="210.498047"/>
      <use xlink:href="#DejaVuSans-3a" x="276.855469"/>
      <use xlink:href="#DejaVuSans-20" x="310.546875"/>
      <use xlink:href="#DejaVuSans-36" x="342.333984"/>
     </g>
    </g>
    <g id="line2d_35">
     <path d="M 330.760625 234.291812 
L 340.760625 234.291812 
L 350.760625 234.291812 
" style="fill: none; stroke: #e377c2; stroke-width: 1.5; stroke-linecap: square"/>
    </g>
    <g id="text_27">
     <!-- QBER: 7 -->
     <g transform="translate(358.760625 237.791812)scale(0.1 -0.1)">
      <use xlink:href="#DejaVuSans-51"/>
      <use xlink:href="#DejaVuSans-42" x="78.710938"/>
      <use xlink:href="#DejaVuSans-45" x="147.314453"/>
      <use xlink:href="#DejaVuSans-52" x="210.498047"/>
      <use xlink:href="#DejaVuSans-3a" x="276.855469"/>
      <use xlink:href="#DejaVuSans-20" x="310.546875"/>
      <use xlink:href="#DejaVuSans-37" x="342.333984"/>
     </g>
    </g>
    <g id="line2d_36">
     <path d="M 330.760625 248.969938 
L 340.760625 248.969938 
L 350.760625 248.969938 
" style="fill: none; stroke: #7f7f7f; stroke-width: 1.5; stroke-linecap: square"/>
    </g>
    <g id="text_28">
     <!-- QBER: 8 -->
     <g transform="translate(358.760625 252.469938)scale(0.1 -0.1)">
      <defs>
       <path id="DejaVuSans-38" d="M 2034 2216 
Q 1584 2216 1326 1975 
Q 1069 1734 1069 1313 
Q 1069 891 1326 650 
Q 1584 409 2034 409 
Q 2484 409 2743 651 
Q 3003 894 3003 1313 
Q 3003 1734 2745 1975 
Q 2488 2216 2034 2216 
z
M 1403 2484 
Q 997 2584 770 2862 
Q 544 3141 544 3541 
Q 544 4100 942 4425 
Q 1341 4750 2034 4750 
Q 2731 4750 3128 4425 
Q 3525 4100 3525 3541 
Q 3525 3141 3298 2862 
Q 3072 2584 2669 2484 
Q 3125 2378 3379 2068 
Q 3634 1759 3634 1313 
Q 3634 634 3220 271 
Q 2806 -91 2034 -91 
Q 1263 -91 848 271 
Q 434 634 434 1313 
Q 434 1759 690 2068 
Q 947 2378 1403 2484 
z
M 1172 3481 
Q 1172 3119 1398 2916 
Q 1625 2713 2034 2713 
Q 2441 2713 2670 2916 
Q 2900 3119 2900 3481 
Q 2900 3844 2670 4047 
Q 2441 4250 2034 4250 
Q 1625 4250 1398 4047 
Q 1172 3844 1172 3481 
z
" transform="scale(0.015625)"/>
      </defs>
      <use xlink:href="#DejaVuSans-51"/>
      <use xlink:href="#DejaVuSans-42" x="78.710938"/>
      <use xlink:href="#DejaVuSans-45" x="147.314453"/>
      <use xlink:href="#DejaVuSans-52" x="210.498047"/>
      <use xlink:href="#DejaVuSans-3a" x="276.855469"/>
      <use xlink:href="#DejaVuSans-20" x="310.546875"/>
      <use xlink:href="#DejaVuSans-38" x="342.333984"/>
     </g>
    </g>
    <g id="line2d_37">
     <path d="M 330.760625 263.648062 
L 340.760625 263.648062 
L 350.760625 263.648062 
" style="fill: none; stroke: #bcbd22; stroke-width: 1.5; stroke-linecap: square"/>
    </g>
    <g id="text_29">
     <!-- QBER: 9 -->
     <g transform="translate(358.760625 267.148062)scale(0.1 -0.1)">
      <defs>
       <path id="DejaVuSans-39" d="M 703 97 
L 703 672 
Q 941 559 1184 500 
Q 1428 441 1663 441 
Q 2288 441 2617 861 
Q 2947 1281 2994 2138 
Q 2813 1869 2534 1725 
Q 2256 1581 1919 1581 
Q 1219 1581 811 2004 
Q 403 2428 403 3163 
Q 403 3881 828 4315 
Q 1253 4750 1959 4750 
Q 2769 4750 3195 4129 
Q 3622 3509 3622 2328 
Q 3622 1225 3098 567 
Q 2575 -91 1691 -91 
Q 1453 -91 1209 -44 
Q 966 3 703 97 
z
M 1959 2075 
Q 2384 2075 2632 2365 
Q 2881 2656 2881 3163 
Q 2881 3666 2632 3958 
Q 2384 4250 1959 4250 
Q 1534 4250 1286 3958 
Q 1038 3666 1038 3163 
Q 1038 2656 1286 2365 
Q 1534 2075 1959 2075 
z
" transform="scale(0.015625)"/>
      </defs>
      <use xlink:href="#DejaVuSans-51"/>
      <use xlink:href="#DejaVuSans-42" x="78.710938"/>
      <use xlink:href="#DejaVuSans-45" x="147.314453"/>
      <use xlink:href="#DejaVuSans-52" x="210.498047"/>
      <use xlink:href="#DejaVuSans-3a" x="276.855469"/>
      <use xlink:href="#DejaVuSans-20" x="310.546875"/>
      <use xlink:href="#DejaVuSans-39" x="342.333984"/>
     </g>
    </g>
    <g id="line2d_38">
     <path d="M 330.760625 278.326187 
L 340.760625 278.326187 
L 350.760625 278.326187 
" style="fill: none; stroke: #17becf; stroke-width: 1.5; stroke-linecap: square"/>
    </g>
    <g id="text_30">
     <!-- QBER: 10 -->
     <g transform="translate(358.760625 281.826187)scale(0.1 -0.1)">
      <use xlink:href="#DejaVuSans-51"/>
      <use xlink:href="#DejaVuSans-42" x="78.710938"/>
      <use xlink:href="#DejaVuSans-45" x="147.314453"/>
      <use xlink:href="#DejaVuSans-52" x="210.498047"/>
      <use xlink:href="#DejaVuSans-3a" x="276.855469"/>
      <use xlink:href="#DejaVuSans-20" x="310.546875"/>
      <use xlink:href="#DejaVuSans-31" x="342.333984"/>
      <use xlink:href="#DejaVuSans-30" x="405.957031"/>
     </g>
    </g>
    <g id="line2d_39">
     <path d="M 330.760625 293.004312 
L 340.760625 293.004312 
L 350.760625 293.004312 
" style="fill: none; stroke: #1f77b4; stroke-width: 1.5; stroke-linecap: square"/>
    </g>
    <g id="text_31">
     <!-- QBER: 11 -->
     <g transform="translate(358.760625 296.504312)scale(0.1 -0.1)">
      <use xlink:href="#DejaVuSans-51"/>
      <use xlink:href="#DejaVuSans-42" x="78.710938"/>
      <use xlink:href="#DejaVuSans-45" x="147.314453"/>
      <use xlink:href="#DejaVuSans-52" x="210.498047"/>
      <use xlink:href="#DejaVuSans-3a" x="276.855469"/>
      <use xlink:href="#DejaVuSans-20" x="310.546875"/>
      <use xlink:href="#DejaVuSans-31" x="342.333984"/>
      <use xlink:href="#DejaVuSans-31" x="405.957031"/>
     </g>
    </g>
   </g>
  </g>
 </g>
 <defs>
  <clipPath id="p4692ed224b">
   <rect x="57.6" y="41.472" width="357.12" height="266.112"/>
  </clipPath>
 </defs>
</svg>
