<?xml version="1.0" encoding="utf-8" standalone="no"?>
<!DOCTYPE svg PUBLIC "-//W3C//DTD SVG 1.1//EN"
  "http://www.w3.org/Graphics/SVG/1.1/DTD/svg11.dtd">
<svg xmlns:xlink="http://www.w3.org/1999/xlink" width="460.8pt" height="345.6pt" viewBox="0 0 460.8 345.6" xmlns="http://www.w3.org/2000/svg" version="1.1">
 <metadata>
  <rdf:RDF xmlns:dc="http://purl.org/dc/elements/1.1/" xmlns:cc="http://creativecommons.org/ns#" xmlns:rdf="http://www.w3.org/1999/02/22-rdf-syntax-ns#">
   <cc:Work>
    <dc:type rdf:resource="http://purl.org/dc/dcmitype/StillImage"/>
    <dc:date>2023-09-06T21:23:38.839087</dc:date>
    <dc:format>image/svg+xml</dc:format>
    <dc:creator>
     <cc:Agent>
      <dc:title>Matplotlib v3.5.3, https://matplotlib.org/</dc:title>
     </cc:Agent>
    </dc:creator>
   </cc:Work>
  </rdf:RDF>
 </metadata>
 <defs>
  <style type="text/css">*{stroke-linejoin: round; stroke-linecap: butt}</style>
 </defs>
 <g id="figure_1">
  <g id="patch_1">
   <path d="M 0 345.6 
L 460.8 345.6 
L 460.8 0 
L 0 0 
z
" style="fill: #ffffff"/>
  </g>
  <g id="axes_1">
   <g id="patch_2">
    <path d="M 57.6 307.584 
L 414.72 307.584 
L 414.72 41.472 
L 57.6 41.472 
z
" style="fill: #ffffff"/>
   </g>
   <g id="matplotlib.axis_1">
    <g id="xtick_1">
     <g id="line2d_1">
      <defs>
       <path id="mc88a408145" d="M 0 0 
L 0 3.5 
" style="stroke: #000000; stroke-width: 0.8"/>
      </defs>
      <g>
       <use xlink:href="#mc88a408145" x="73.351758" y="307.584" style="stroke: #000000; stroke-width: 0.8"/>
      </g>
     </g>
     <g id="text_1">
      <!-- 0 -->
      <g transform="translate(70.170508 322.182437)scale(0.1 -0.1)">
       <defs>
        <path id="DejaVuSans-30" d="M 2034 4250 
Q 1547 4250 1301 3770 
Q 1056 3291 1056 2328 
Q 1056 1369 1301 889 
Q 1547 409 2034 409 
Q 2525 409 2770 889 
Q 3016 1369 3016 2328 
Q 3016 3291 2770 3770 
Q 2525 4250 2034 4250 
z
M 2034 4750 
Q 2819 4750 3233 4129 
Q 3647 3509 3647 2328 
Q 3647 1150 3233 529 
Q 2819 -91 2034 -91 
Q 1250 -91 836 529 
Q 422 1150 422 2328 
Q 422 3509 836 4129 
Q 1250 4750 2034 4750 
z
" transform="scale(0.015625)"/>
       </defs>
       <use xlink:href="#DejaVuSans-30"/>
      </g>
     </g>
    </g>
    <g id="xtick_2">
     <g id="line2d_2">
      <g>
       <use xlink:href="#mc88a408145" x="121.448727" y="307.584" style="stroke: #000000; stroke-width: 0.8"/>
      </g>
     </g>
     <g id="text_2">
      <!-- 2500 -->
      <g transform="translate(108.723727 322.182437)scale(0.1 -0.1)">
       <defs>
        <path id="DejaVuSans-32" d="M 1228 531 
L 3431 531 
L 3431 0 
L 469 0 
L 469 531 
Q 828 903 1448 1529 
Q 2069 2156 2228 2338 
Q 2531 2678 2651 2914 
Q 2772 3150 2772 3378 
Q 2772 3750 2511 3984 
Q 2250 4219 1831 4219 
Q 1534 4219 1204 4116 
Q 875 4013 500 3803 
L 500 4441 
Q 881 4594 1212 4672 
Q 1544 4750 1819 4750 
Q 2544 4750 2975 4387 
Q 3406 4025 3406 3419 
Q 3406 3131 3298 2873 
Q 3191 2616 2906 2266 
Q 2828 2175 2409 1742 
Q 1991 1309 1228 531 
z
" transform="scale(0.015625)"/>
        <path id="DejaVuSans-35" d="M 691 4666 
L 3169 4666 
L 3169 4134 
L 1269 4134 
L 1269 2991 
Q 1406 3038 1543 3061 
Q 1681 3084 1819 3084 
Q 2600 3084 3056 2656 
Q 3513 2228 3513 1497 
Q 3513 744 3044 326 
Q 2575 -91 1722 -91 
Q 1428 -91 1123 -41 
Q 819 9 494 109 
L 494 744 
Q 775 591 1075 516 
Q 1375 441 1709 441 
Q 2250 441 2565 725 
Q 2881 1009 2881 1497 
Q 2881 1984 2565 2268 
Q 2250 2553 1709 2553 
Q 1456 2553 1204 2497 
Q 953 2441 691 2322 
L 691 4666 
z
" transform="scale(0.015625)"/>
       </defs>
       <use xlink:href="#DejaVuSans-32"/>
       <use xlink:href="#DejaVuSans-35" x="63.623047"/>
       <use xlink:href="#DejaVuSans-30" x="127.246094"/>
       <use xlink:href="#DejaVuSans-30" x="190.869141"/>
      </g>
     </g>
    </g>
    <g id="xtick_3">
     <g id="line2d_3">
      <g>
       <use xlink:href="#mc88a408145" x="169.545697" y="307.584" style="stroke: #000000; stroke-width: 0.8"/>
      </g>
     </g>
     <g id="text_3">
      <!-- 5000 -->
      <g transform="translate(156.820697 322.182437)scale(0.1 -0.1)">
       <use xlink:href="#DejaVuSans-35"/>
       <use xlink:href="#DejaVuSans-30" x="63.623047"/>
       <use xlink:href="#DejaVuSans-30" x="127.246094"/>
       <use xlink:href="#DejaVuSans-30" x="190.869141"/>
      </g>
     </g>
    </g>
    <g id="xtick_4">
     <g id="line2d_4">
      <g>
       <use xlink:href="#mc88a408145" x="217.642667" y="307.584" style="stroke: #000000; stroke-width: 0.8"/>
      </g>
     </g>
     <g id="text_4">
      <!-- 7500 -->
      <g transform="translate(204.917667 322.182437)scale(0.1 -0.1)">
       <defs>
        <path id="DejaVuSans-37" d="M 525 4666 
L 3525 4666 
L 3525 4397 
L 1831 0 
L 1172 0 
L 2766 4134 
L 525 4134 
L 525 4666 
z
" transform="scale(0.015625)"/>
       </defs>
       <use xlink:href="#DejaVuSans-37"/>
       <use xlink:href="#DejaVuSans-35" x="63.623047"/>
       <use xlink:href="#DejaVuSans-30" x="127.246094"/>
       <use xlink:href="#DejaVuSans-30" x="190.869141"/>
      </g>
     </g>
    </g>
    <g id="xtick_5">
     <g id="line2d_5">
      <g>
       <use xlink:href="#mc88a408145" x="265.739636" y="307.584" style="stroke: #000000; stroke-width: 0.8"/>
      </g>
     </g>
     <g id="text_5">
      <!-- 10000 -->
      <g transform="translate(249.833386 322.182437)scale(0.1 -0.1)">
       <defs>
        <path id="DejaVuSans-31" d="M 794 531 
L 1825 531 
L 1825 4091 
L 703 3866 
L 703 4441 
L 1819 4666 
L 2450 4666 
L 2450 531 
L 3481 531 
L 3481 0 
L 794 0 
L 794 531 
z
" transform="scale(0.015625)"/>
       </defs>
       <use xlink:href="#DejaVuSans-31"/>
       <use xlink:href="#DejaVuSans-30" x="63.623047"/>
       <use xlink:href="#DejaVuSans-30" x="127.246094"/>
       <use xlink:href="#DejaVuSans-30" x="190.869141"/>
       <use xlink:href="#DejaVuSans-30" x="254.492188"/>
      </g>
     </g>
    </g>
    <g id="xtick_6">
     <g id="line2d_6">
      <g>
       <use xlink:href="#mc88a408145" x="313.836606" y="307.584" style="stroke: #000000; stroke-width: 0.8"/>
      </g>
     </g>
     <g id="text_6">
      <!-- 12500 -->
      <g transform="translate(297.930356 322.182437)scale(0.1 -0.1)">
       <use xlink:href="#DejaVuSans-31"/>
       <use xlink:href="#DejaVuSans-32" x="63.623047"/>
       <use xlink:href="#DejaVuSans-35" x="127.246094"/>
       <use xlink:href="#DejaVuSans-30" x="190.869141"/>
       <use xlink:href="#DejaVuSans-30" x="254.492188"/>
      </g>
     </g>
    </g>
    <g id="xtick_7">
     <g id="line2d_7">
      <g>
       <use xlink:href="#mc88a408145" x="361.933576" y="307.584" style="stroke: #000000; stroke-width: 0.8"/>
      </g>
     </g>
     <g id="text_7">
      <!-- 15000 -->
      <g transform="translate(346.027326 322.182437)scale(0.1 -0.1)">
       <use xlink:href="#DejaVuSans-31"/>
       <use xlink:href="#DejaVuSans-35" x="63.623047"/>
       <use xlink:href="#DejaVuSans-30" x="127.246094"/>
       <use xlink:href="#DejaVuSans-30" x="190.869141"/>
       <use xlink:href="#DejaVuSans-30" x="254.492188"/>
      </g>
     </g>
    </g>
    <g id="xtick_8">
     <g id="line2d_8">
      <g>
       <use xlink:href="#mc88a408145" x="410.030545" y="307.584" style="stroke: #000000; stroke-width: 0.8"/>
      </g>
     </g>
     <g id="text_8">
      <!-- 17500 -->
      <g transform="translate(394.124295 322.182437)scale(0.1 -0.1)">
       <use xlink:href="#DejaVuSans-31"/>
       <use xlink:href="#DejaVuSans-37" x="63.623047"/>
       <use xlink:href="#DejaVuSans-35" x="127.246094"/>
       <use xlink:href="#DejaVuSans-30" x="190.869141"/>
       <use xlink:href="#DejaVuSans-30" x="254.492188"/>
      </g>
     </g>
    </g>
    <g id="text_9">
     <!-- Number of input neurons multiplied by number of hidden neurons [N*K] -->
     <g transform="translate(56.102969 335.860562)scale(0.1 -0.1)">
      <defs>
       <path id="DejaVuSans-4e" d="M 628 4666 
L 1478 4666 
L 3547 763 
L 3547 4666 
L 4159 4666 
L 4159 0 
L 3309 0 
L 1241 3903 
L 1241 0 
L 628 0 
L 628 4666 
z
" transform="scale(0.015625)"/>
       <path id="DejaVuSans-75" d="M 544 1381 
L 544 3500 
L 1119 3500 
L 1119 1403 
Q 1119 906 1312 657 
Q 1506 409 1894 409 
Q 2359 409 2629 706 
Q 2900 1003 2900 1516 
L 2900 3500 
L 3475 3500 
L 3475 0 
L 2900 0 
L 2900 538 
Q 2691 219 2414 64 
Q 2138 -91 1772 -91 
Q 1169 -91 856 284 
Q 544 659 544 1381 
z
M 1991 3584 
L 1991 3584 
z
" transform="scale(0.015625)"/>
       <path id="DejaVuSans-6d" d="M 3328 2828 
Q 3544 3216 3844 3400 
Q 4144 3584 4550 3584 
Q 5097 3584 5394 3201 
Q 5691 2819 5691 2113 
L 5691 0 
L 5113 0 
L 5113 2094 
Q 5113 2597 4934 2840 
Q 4756 3084 4391 3084 
Q 3944 3084 3684 2787 
Q 3425 2491 3425 1978 
L 3425 0 
L 2847 0 
L 2847 2094 
Q 2847 2600 2669 2842 
Q 2491 3084 2119 3084 
Q 1678 3084 1418 2786 
Q 1159 2488 1159 1978 
L 1159 0 
L 581 0 
L 581 3500 
L 1159 3500 
L 1159 2956 
Q 1356 3278 1631 3431 
Q 1906 3584 2284 3584 
Q 2666 3584 2933 3390 
Q 3200 3197 3328 2828 
z
" transform="scale(0.015625)"/>
       <path id="DejaVuSans-62" d="M 3116 1747 
Q 3116 2381 2855 2742 
Q 2594 3103 2138 3103 
Q 1681 3103 1420 2742 
Q 1159 2381 1159 1747 
Q 1159 1113 1420 752 
Q 1681 391 2138 391 
Q 2594 391 2855 752 
Q 3116 1113 3116 1747 
z
M 1159 2969 
Q 1341 3281 1617 3432 
Q 1894 3584 2278 3584 
Q 2916 3584 3314 3078 
Q 3713 2572 3713 1747 
Q 3713 922 3314 415 
Q 2916 -91 2278 -91 
Q 1894 -91 1617 61 
Q 1341 213 1159 525 
L 1159 0 
L 581 0 
L 581 4863 
L 1159 4863 
L 1159 2969 
z
" transform="scale(0.015625)"/>
       <path id="DejaVuSans-65" d="M 3597 1894 
L 3597 1613 
L 953 1613 
Q 991 1019 1311 708 
Q 1631 397 2203 397 
Q 2534 397 2845 478 
Q 3156 559 3463 722 
L 3463 178 
Q 3153 47 2828 -22 
Q 2503 -91 2169 -91 
Q 1331 -91 842 396 
Q 353 884 353 1716 
Q 353 2575 817 3079 
Q 1281 3584 2069 3584 
Q 2775 3584 3186 3129 
Q 3597 2675 3597 1894 
z
M 3022 2063 
Q 3016 2534 2758 2815 
Q 2500 3097 2075 3097 
Q 1594 3097 1305 2825 
Q 1016 2553 972 2059 
L 3022 2063 
z
" transform="scale(0.015625)"/>
       <path id="DejaVuSans-72" d="M 2631 2963 
Q 2534 3019 2420 3045 
Q 2306 3072 2169 3072 
Q 1681 3072 1420 2755 
Q 1159 2438 1159 1844 
L 1159 0 
L 581 0 
L 581 3500 
L 1159 3500 
L 1159 2956 
Q 1341 3275 1631 3429 
Q 1922 3584 2338 3584 
Q 2397 3584 2469 3576 
Q 2541 3569 2628 3553 
L 2631 2963 
z
" transform="scale(0.015625)"/>
       <path id="DejaVuSans-20" transform="scale(0.015625)"/>
       <path id="DejaVuSans-6f" d="M 1959 3097 
Q 1497 3097 1228 2736 
Q 959 2375 959 1747 
Q 959 1119 1226 758 
Q 1494 397 1959 397 
Q 2419 397 2687 759 
Q 2956 1122 2956 1747 
Q 2956 2369 2687 2733 
Q 2419 3097 1959 3097 
z
M 1959 3584 
Q 2709 3584 3137 3096 
Q 3566 2609 3566 1747 
Q 3566 888 3137 398 
Q 2709 -91 1959 -91 
Q 1206 -91 779 398 
Q 353 888 353 1747 
Q 353 2609 779 3096 
Q 1206 3584 1959 3584 
z
" transform="scale(0.015625)"/>
       <path id="DejaVuSans-66" d="M 2375 4863 
L 2375 4384 
L 1825 4384 
Q 1516 4384 1395 4259 
Q 1275 4134 1275 3809 
L 1275 3500 
L 2222 3500 
L 2222 3053 
L 1275 3053 
L 1275 0 
L 697 0 
L 697 3053 
L 147 3053 
L 147 3500 
L 697 3500 
L 697 3744 
Q 697 4328 969 4595 
Q 1241 4863 1831 4863 
L 2375 4863 
z
" transform="scale(0.015625)"/>
       <path id="DejaVuSans-69" d="M 603 3500 
L 1178 3500 
L 1178 0 
L 603 0 
L 603 3500 
z
M 603 4863 
L 1178 4863 
L 1178 4134 
L 603 4134 
L 603 4863 
z
" transform="scale(0.015625)"/>
       <path id="DejaVuSans-6e" d="M 3513 2113 
L 3513 0 
L 2938 0 
L 2938 2094 
Q 2938 2591 2744 2837 
Q 2550 3084 2163 3084 
Q 1697 3084 1428 2787 
Q 1159 2491 1159 1978 
L 1159 0 
L 581 0 
L 581 3500 
L 1159 3500 
L 1159 2956 
Q 1366 3272 1645 3428 
Q 1925 3584 2291 3584 
Q 2894 3584 3203 3211 
Q 3513 2838 3513 2113 
z
" transform="scale(0.015625)"/>
       <path id="DejaVuSans-70" d="M 1159 525 
L 1159 -1331 
L 581 -1331 
L 581 3500 
L 1159 3500 
L 1159 2969 
Q 1341 3281 1617 3432 
Q 1894 3584 2278 3584 
Q 2916 3584 3314 3078 
Q 3713 2572 3713 1747 
Q 3713 922 3314 415 
Q 2916 -91 2278 -91 
Q 1894 -91 1617 61 
Q 1341 213 1159 525 
z
M 3116 1747 
Q 3116 2381 2855 2742 
Q 2594 3103 2138 3103 
Q 1681 3103 1420 2742 
Q 1159 2381 1159 1747 
Q 1159 1113 1420 752 
Q 1681 391 2138 391 
Q 2594 391 2855 752 
Q 3116 1113 3116 1747 
z
" transform="scale(0.015625)"/>
       <path id="DejaVuSans-74" d="M 1172 4494 
L 1172 3500 
L 2356 3500 
L 2356 3053 
L 1172 3053 
L 1172 1153 
Q 1172 725 1289 603 
Q 1406 481 1766 481 
L 2356 481 
L 2356 0 
L 1766 0 
Q 1100 0 847 248 
Q 594 497 594 1153 
L 594 3053 
L 172 3053 
L 172 3500 
L 594 3500 
L 594 4494 
L 1172 4494 
z
" transform="scale(0.015625)"/>
       <path id="DejaVuSans-73" d="M 2834 3397 
L 2834 2853 
Q 2591 2978 2328 3040 
Q 2066 3103 1784 3103 
Q 1356 3103 1142 2972 
Q 928 2841 928 2578 
Q 928 2378 1081 2264 
Q 1234 2150 1697 2047 
L 1894 2003 
Q 2506 1872 2764 1633 
Q 3022 1394 3022 966 
Q 3022 478 2636 193 
Q 2250 -91 1575 -91 
Q 1294 -91 989 -36 
Q 684 19 347 128 
L 347 722 
Q 666 556 975 473 
Q 1284 391 1588 391 
Q 1994 391 2212 530 
Q 2431 669 2431 922 
Q 2431 1156 2273 1281 
Q 2116 1406 1581 1522 
L 1381 1569 
Q 847 1681 609 1914 
Q 372 2147 372 2553 
Q 372 3047 722 3315 
Q 1072 3584 1716 3584 
Q 2034 3584 2315 3537 
Q 2597 3491 2834 3397 
z
" transform="scale(0.015625)"/>
       <path id="DejaVuSans-6c" d="M 603 4863 
L 1178 4863 
L 1178 0 
L 603 0 
L 603 4863 
z
" transform="scale(0.015625)"/>
       <path id="DejaVuSans-64" d="M 2906 2969 
L 2906 4863 
L 3481 4863 
L 3481 0 
L 2906 0 
L 2906 525 
Q 2725 213 2448 61 
Q 2172 -91 1784 -91 
Q 1150 -91 751 415 
Q 353 922 353 1747 
Q 353 2572 751 3078 
Q 1150 3584 1784 3584 
Q 2172 3584 2448 3432 
Q 2725 3281 2906 2969 
z
M 947 1747 
Q 947 1113 1208 752 
Q 1469 391 1925 391 
Q 2381 391 2643 752 
Q 2906 1113 2906 1747 
Q 2906 2381 2643 2742 
Q 2381 3103 1925 3103 
Q 1469 3103 1208 2742 
Q 947 2381 947 1747 
z
" transform="scale(0.015625)"/>
       <path id="DejaVuSans-79" d="M 2059 -325 
Q 1816 -950 1584 -1140 
Q 1353 -1331 966 -1331 
L 506 -1331 
L 506 -850 
L 844 -850 
Q 1081 -850 1212 -737 
Q 1344 -625 1503 -206 
L 1606 56 
L 191 3500 
L 800 3500 
L 1894 763 
L 2988 3500 
L 3597 3500 
L 2059 -325 
z
" transform="scale(0.015625)"/>
       <path id="DejaVuSans-68" d="M 3513 2113 
L 3513 0 
L 2938 0 
L 2938 2094 
Q 2938 2591 2744 2837 
Q 2550 3084 2163 3084 
Q 1697 3084 1428 2787 
Q 1159 2491 1159 1978 
L 1159 0 
L 581 0 
L 581 4863 
L 1159 4863 
L 1159 2956 
Q 1366 3272 1645 3428 
Q 1925 3584 2291 3584 
Q 2894 3584 3203 3211 
Q 3513 2838 3513 2113 
z
" transform="scale(0.015625)"/>
       <path id="DejaVuSans-5b" d="M 550 4863 
L 1875 4863 
L 1875 4416 
L 1125 4416 
L 1125 -397 
L 1875 -397 
L 1875 -844 
L 550 -844 
L 550 4863 
z
" transform="scale(0.015625)"/>
       <path id="DejaVuSans-2a" d="M 3009 3897 
L 1888 3291 
L 3009 2681 
L 2828 2375 
L 1778 3009 
L 1778 1831 
L 1422 1831 
L 1422 3009 
L 372 2375 
L 191 2681 
L 1313 3291 
L 191 3897 
L 372 4206 
L 1422 3572 
L 1422 4750 
L 1778 4750 
L 1778 3572 
L 2828 4206 
L 3009 3897 
z
" transform="scale(0.015625)"/>
       <path id="DejaVuSans-4b" d="M 628 4666 
L 1259 4666 
L 1259 2694 
L 3353 4666 
L 4166 4666 
L 1850 2491 
L 4331 0 
L 3500 0 
L 1259 2247 
L 1259 0 
L 628 0 
L 628 4666 
z
" transform="scale(0.015625)"/>
       <path id="DejaVuSans-5d" d="M 1947 4863 
L 1947 -844 
L 622 -844 
L 622 -397 
L 1369 -397 
L 1369 4416 
L 622 4416 
L 622 4863 
L 1947 4863 
z
" transform="scale(0.015625)"/>
      </defs>
      <use xlink:href="#DejaVuSans-4e"/>
      <use xlink:href="#DejaVuSans-75" x="74.804688"/>
      <use xlink:href="#DejaVuSans-6d" x="138.183594"/>
      <use xlink:href="#DejaVuSans-62" x="235.595703"/>
      <use xlink:href="#DejaVuSans-65" x="299.072266"/>
      <use xlink:href="#DejaVuSans-72" x="360.595703"/>
      <use xlink:href="#DejaVuSans-20" x="401.708984"/>
      <use xlink:href="#DejaVuSans-6f" x="433.496094"/>
      <use xlink:href="#DejaVuSans-66" x="494.677734"/>
      <use xlink:href="#DejaVuSans-20" x="529.882812"/>
      <use xlink:href="#DejaVuSans-69" x="561.669922"/>
      <use xlink:href="#DejaVuSans-6e" x="589.453125"/>
      <use xlink:href="#DejaVuSans-70" x="652.832031"/>
      <use xlink:href="#DejaVuSans-75" x="716.308594"/>
      <use xlink:href="#DejaVuSans-74" x="779.6875"/>
      <use xlink:href="#DejaVuSans-20" x="818.896484"/>
      <use xlink:href="#DejaVuSans-6e" x="850.683594"/>
      <use xlink:href="#DejaVuSans-65" x="914.0625"/>
      <use xlink:href="#DejaVuSans-75" x="975.585938"/>
      <use xlink:href="#DejaVuSans-72" x="1038.964844"/>
      <use xlink:href="#DejaVuSans-6f" x="1077.828125"/>
      <use xlink:href="#DejaVuSans-6e" x="1139.009766"/>
      <use xlink:href="#DejaVuSans-73" x="1202.388672"/>
      <use xlink:href="#DejaVuSans-20" x="1254.488281"/>
      <use xlink:href="#DejaVuSans-6d" x="1286.275391"/>
      <use xlink:href="#DejaVuSans-75" x="1383.6875"/>
      <use xlink:href="#DejaVuSans-6c" x="1447.066406"/>
      <use xlink:href="#DejaVuSans-74" x="1474.849609"/>
      <use xlink:href="#DejaVuSans-69" x="1514.058594"/>
      <use xlink:href="#DejaVuSans-70" x="1541.841797"/>
      <use xlink:href="#DejaVuSans-6c" x="1605.318359"/>
      <use xlink:href="#DejaVuSans-69" x="1633.101562"/>
      <use xlink:href="#DejaVuSans-65" x="1660.884766"/>
      <use xlink:href="#DejaVuSans-64" x="1722.408203"/>
      <use xlink:href="#DejaVuSans-20" x="1785.884766"/>
      <use xlink:href="#DejaVuSans-62" x="1817.671875"/>
      <use xlink:href="#DejaVuSans-79" x="1881.148438"/>
      <use xlink:href="#DejaVuSans-20" x="1940.328125"/>
      <use xlink:href="#DejaVuSans-6e" x="1972.115234"/>
      <use xlink:href="#DejaVuSans-75" x="2035.494141"/>
      <use xlink:href="#DejaVuSans-6d" x="2098.873047"/>
      <use xlink:href="#DejaVuSans-62" x="2196.285156"/>
      <use xlink:href="#DejaVuSans-65" x="2259.761719"/>
      <use xlink:href="#DejaVuSans-72" x="2321.285156"/>
      <use xlink:href="#DejaVuSans-20" x="2362.398438"/>
      <use xlink:href="#DejaVuSans-6f" x="2394.185547"/>
      <use xlink:href="#DejaVuSans-66" x="2455.367188"/>
      <use xlink:href="#DejaVuSans-20" x="2490.572266"/>
      <use xlink:href="#DejaVuSans-68" x="2522.359375"/>
      <use xlink:href="#DejaVuSans-69" x="2585.738281"/>
      <use xlink:href="#DejaVuSans-64" x="2613.521484"/>
      <use xlink:href="#DejaVuSans-64" x="2676.998047"/>
      <use xlink:href="#DejaVuSans-65" x="2740.474609"/>
      <use xlink:href="#DejaVuSans-6e" x="2801.998047"/>
      <use xlink:href="#DejaVuSans-20" x="2865.376953"/>
      <use xlink:href="#DejaVuSans-6e" x="2897.164062"/>
      <use xlink:href="#DejaVuSans-65" x="2960.542969"/>
      <use xlink:href="#DejaVuSans-75" x="3022.066406"/>
      <use xlink:href="#DejaVuSans-72" x="3085.445312"/>
      <use xlink:href="#DejaVuSans-6f" x="3124.308594"/>
      <use xlink:href="#DejaVuSans-6e" x="3185.490234"/>
      <use xlink:href="#DejaVuSans-73" x="3248.869141"/>
      <use xlink:href="#DejaVuSans-20" x="3300.96875"/>
      <use xlink:href="#DejaVuSans-5b" x="3332.755859"/>
      <use xlink:href="#DejaVuSans-4e" x="3371.769531"/>
      <use xlink:href="#DejaVuSans-2a" x="3446.574219"/>
      <use xlink:href="#DejaVuSans-4b" x="3496.574219"/>
      <use xlink:href="#DejaVuSans-5d" x="3562.150391"/>
     </g>
    </g>
   </g>
   <g id="matplotlib.axis_2">
    <g id="ytick_1">
     <g id="line2d_9">
      <defs>
       <path id="ma55f1f1462" d="M 0 0 
L -3.5 0 
" style="stroke: #000000; stroke-width: 0.8"/>
      </defs>
      <g>
       <use xlink:href="#ma55f1f1462" x="57.6" y="300.760674" style="stroke: #000000; stroke-width: 0.8"/>
      </g>
     </g>
     <g id="text_10">
      <!-- 0 -->
      <g transform="translate(44.2375 304.559893)scale(0.1 -0.1)">
       <use xlink:href="#DejaVuSans-30"/>
      </g>
     </g>
    </g>
    <g id="ytick_2">
     <g id="line2d_10">
      <g>
       <use xlink:href="#ma55f1f1462" x="57.6" y="246.385077" style="stroke: #000000; stroke-width: 0.8"/>
      </g>
     </g>
     <g id="text_11">
      <!-- 50 -->
      <g transform="translate(37.875 250.184296)scale(0.1 -0.1)">
       <use xlink:href="#DejaVuSans-35"/>
       <use xlink:href="#DejaVuSans-30" x="63.623047"/>
      </g>
     </g>
    </g>
    <g id="ytick_3">
     <g id="line2d_11">
      <g>
       <use xlink:href="#ma55f1f1462" x="57.6" y="192.009481" style="stroke: #000000; stroke-width: 0.8"/>
      </g>
     </g>
     <g id="text_12">
      <!-- 100 -->
      <g transform="translate(31.5125 195.8087)scale(0.1 -0.1)">
       <use xlink:href="#DejaVuSans-31"/>
       <use xlink:href="#DejaVuSans-30" x="63.623047"/>
       <use xlink:href="#DejaVuSans-30" x="127.246094"/>
      </g>
     </g>
    </g>
    <g id="ytick_4">
     <g id="line2d_12">
      <g>
       <use xlink:href="#ma55f1f1462" x="57.6" y="137.633884" style="stroke: #000000; stroke-width: 0.8"/>
      </g>
     </g>
     <g id="text_13">
      <!-- 150 -->
      <g transform="translate(31.5125 141.433103)scale(0.1 -0.1)">
       <use xlink:href="#DejaVuSans-31"/>
       <use xlink:href="#DejaVuSans-35" x="63.623047"/>
       <use xlink:href="#DejaVuSans-30" x="127.246094"/>
      </g>
     </g>
    </g>
    <g id="ytick_5">
     <g id="line2d_13">
      <g>
       <use xlink:href="#ma55f1f1462" x="57.6" y="83.258288" style="stroke: #000000; stroke-width: 0.8"/>
      </g>
     </g>
     <g id="text_14">
      <!-- 200 -->
      <g transform="translate(31.5125 87.057507)scale(0.1 -0.1)">
       <use xlink:href="#DejaVuSans-32"/>
       <use xlink:href="#DejaVuSans-30" x="63.623047"/>
       <use xlink:href="#DejaVuSans-30" x="127.246094"/>
      </g>
     </g>
    </g>
    <g id="text_15">
     <!-- Mean number of required iterations of TPM -->
     <g transform="translate(25.432812 281.894406)rotate(-90)scale(0.1 -0.1)">
      <defs>
       <path id="DejaVuSans-4d" d="M 628 4666 
L 1569 4666 
L 2759 1491 
L 3956 4666 
L 4897 4666 
L 4897 0 
L 4281 0 
L 4281 4097 
L 3078 897 
L 2444 897 
L 1241 4097 
L 1241 0 
L 628 0 
L 628 4666 
z
" transform="scale(0.015625)"/>
       <path id="DejaVuSans-61" d="M 2194 1759 
Q 1497 1759 1228 1600 
Q 959 1441 959 1056 
Q 959 750 1161 570 
Q 1363 391 1709 391 
Q 2188 391 2477 730 
Q 2766 1069 2766 1631 
L 2766 1759 
L 2194 1759 
z
M 3341 1997 
L 3341 0 
L 2766 0 
L 2766 531 
Q 2569 213 2275 61 
Q 1981 -91 1556 -91 
Q 1019 -91 701 211 
Q 384 513 384 1019 
Q 384 1609 779 1909 
Q 1175 2209 1959 2209 
L 2766 2209 
L 2766 2266 
Q 2766 2663 2505 2880 
Q 2244 3097 1772 3097 
Q 1472 3097 1187 3025 
Q 903 2953 641 2809 
L 641 3341 
Q 956 3463 1253 3523 
Q 1550 3584 1831 3584 
Q 2591 3584 2966 3190 
Q 3341 2797 3341 1997 
z
" transform="scale(0.015625)"/>
       <path id="DejaVuSans-71" d="M 947 1747 
Q 947 1113 1208 752 
Q 1469 391 1925 391 
Q 2381 391 2643 752 
Q 2906 1113 2906 1747 
Q 2906 2381 2643 2742 
Q 2381 3103 1925 3103 
Q 1469 3103 1208 2742 
Q 947 2381 947 1747 
z
M 2906 525 
Q 2725 213 2448 61 
Q 2172 -91 1784 -91 
Q 1150 -91 751 415 
Q 353 922 353 1747 
Q 353 2572 751 3078 
Q 1150 3584 1784 3584 
Q 2172 3584 2448 3432 
Q 2725 3281 2906 2969 
L 2906 3500 
L 3481 3500 
L 3481 -1331 
L 2906 -1331 
L 2906 525 
z
" transform="scale(0.015625)"/>
       <path id="DejaVuSans-54" d="M -19 4666 
L 3928 4666 
L 3928 4134 
L 2272 4134 
L 2272 0 
L 1638 0 
L 1638 4134 
L -19 4134 
L -19 4666 
z
" transform="scale(0.015625)"/>
       <path id="DejaVuSans-50" d="M 1259 4147 
L 1259 2394 
L 2053 2394 
Q 2494 2394 2734 2622 
Q 2975 2850 2975 3272 
Q 2975 3691 2734 3919 
Q 2494 4147 2053 4147 
L 1259 4147 
z
M 628 4666 
L 2053 4666 
Q 2838 4666 3239 4311 
Q 3641 3956 3641 3272 
Q 3641 2581 3239 2228 
Q 2838 1875 2053 1875 
L 1259 1875 
L 1259 0 
L 628 0 
L 628 4666 
z
" transform="scale(0.015625)"/>
      </defs>
      <use xlink:href="#DejaVuSans-4d"/>
      <use xlink:href="#DejaVuSans-65" x="86.279297"/>
      <use xlink:href="#DejaVuSans-61" x="147.802734"/>
      <use xlink:href="#DejaVuSans-6e" x="209.082031"/>
      <use xlink:href="#DejaVuSans-20" x="272.460938"/>
      <use xlink:href="#DejaVuSans-6e" x="304.248047"/>
      <use xlink:href="#DejaVuSans-75" x="367.626953"/>
      <use xlink:href="#DejaVuSans-6d" x="431.005859"/>
      <use xlink:href="#DejaVuSans-62" x="528.417969"/>
      <use xlink:href="#DejaVuSans-65" x="591.894531"/>
      <use xlink:href="#DejaVuSans-72" x="653.417969"/>
      <use xlink:href="#DejaVuSans-20" x="694.53125"/>
      <use xlink:href="#DejaVuSans-6f" x="726.318359"/>
      <use xlink:href="#DejaVuSans-66" x="787.5"/>
      <use xlink:href="#DejaVuSans-20" x="822.705078"/>
      <use xlink:href="#DejaVuSans-72" x="854.492188"/>
      <use xlink:href="#DejaVuSans-65" x="893.355469"/>
      <use xlink:href="#DejaVuSans-71" x="954.878906"/>
      <use xlink:href="#DejaVuSans-75" x="1018.355469"/>
      <use xlink:href="#DejaVuSans-69" x="1081.734375"/>
      <use xlink:href="#DejaVuSans-72" x="1109.517578"/>
      <use xlink:href="#DejaVuSans-65" x="1148.380859"/>
      <use xlink:href="#DejaVuSans-64" x="1209.904297"/>
      <use xlink:href="#DejaVuSans-20" x="1273.380859"/>
      <use xlink:href="#DejaVuSans-69" x="1305.167969"/>
      <use xlink:href="#DejaVuSans-74" x="1332.951172"/>
      <use xlink:href="#DejaVuSans-65" x="1372.160156"/>
      <use xlink:href="#DejaVuSans-72" x="1433.683594"/>
      <use xlink:href="#DejaVuSans-61" x="1474.796875"/>
      <use xlink:href="#DejaVuSans-74" x="1536.076172"/>
      <use xlink:href="#DejaVuSans-69" x="1575.285156"/>
      <use xlink:href="#DejaVuSans-6f" x="1603.068359"/>
      <use xlink:href="#DejaVuSans-6e" x="1664.25"/>
      <use xlink:href="#DejaVuSans-73" x="1727.628906"/>
      <use xlink:href="#DejaVuSans-20" x="1779.728516"/>
      <use xlink:href="#DejaVuSans-6f" x="1811.515625"/>
      <use xlink:href="#DejaVuSans-66" x="1872.697266"/>
      <use xlink:href="#DejaVuSans-20" x="1907.902344"/>
      <use xlink:href="#DejaVuSans-54" x="1939.689453"/>
      <use xlink:href="#DejaVuSans-50" x="2000.773438"/>
      <use xlink:href="#DejaVuSans-4d" x="2061.076172"/>
     </g>
    </g>
   </g>
   <g id="line2d_14">
    <path d="M 73.832727 295.488 
L 75.756606 289.399195 
L 75.756606 289.399195 
L 77.680485 283.815165 
L 77.680485 283.815165 
L 79.604364 278.691136 
L 79.604364 278.691136 
L 82.490182 271.777617 
L 82.490182 271.777617 
L 84.89503 266.643869 
L 84.89503 266.643869 
L 86.818909 262.899572 
L 86.818909 262.899572 
L 90.185697 257.024846 
L 90.185697 257.024846 
L 92.590545 253.288366 
L 92.590545 253.288366 
L 96.438303 247.976723 
L 96.438303 247.976723 
L 98.362182 245.584013 
L 98.362182 245.584013 
L 102.209939 241.23412 
L 102.209939 241.23412 
L 104.614788 238.765536 
L 104.614788 238.765536 
L 107.981576 235.574284 
L 107.981576 235.574284 
L 112.310303 231.838562 
L 117.12 228.058986 
L 117.12 228.058986 
L 121.448727 224.90759 
L 127.220364 220.977261 
L 127.220364 220.977261 
L 133.47297 216.980141 
L 133.47297 216.980141 
L 140.687515 212.62874 
L 140.687515 212.62874 
L 148.38303 208.255706 
L 148.38303 208.255706 
L 155.597576 204.405132 
L 155.597576 204.405132 
L 163.293091 200.579073 
L 163.293091 200.579073 
L 169.545697 197.696582 
L 169.545697 197.696582 
L 177.241212 194.435746 
L 177.241212 194.435746 
L 184.455758 191.662862 
L 184.455758 191.662862 
L 192.151273 188.98964 
L 192.151273 188.98964 
L 200.327758 186.433057 
L 200.327758 186.433057 
L 210.428121 183.596735 
L 210.428121 183.596735 
L 221.490424 180.766886 
L 221.490424 180.766886 
L 239.286303 176.477944 
L 239.286303 176.477944 
L 265.739636 170.210429 
L 281.130667 166.849989 
L 281.130667 166.849989 
L 285.459394 166.005554 
L 298.445576 163.8728 
L 298.445576 163.8728 
L 306.141091 162.948197 
L 325.860848 161.783197 
L 325.860848 161.783197 
L 327.784727 161.746383 
L 350.390303 161.450359 
L 373.957818 158.249586 
L 398.487273 147.840033 
L 398.487273 147.840033 
" clip-path="url(#pa8451c9769)" style="fill: none; stroke: #1f77b4; stroke-width: 1.5; stroke-linecap: square"/>
   </g>
   <g id="line2d_15">
    <path d="M 73.832727 288.550391 
L 75.756606 279.935912 
L 75.756606 279.935912 
L 77.680485 272.222309 
L 77.680485 272.222309 
L 79.604364 265.306093 
L 79.604364 265.306093 
L 81.528242 259.093943 
L 81.528242 259.093943 
L 83.452121 253.501915 
L 83.452121 253.501915 
L 85.376 248.454695 
L 85.376 248.454695 
L 86.818909 244.985999 
L 86.818909 244.985999 
L 90.185697 237.795765 
L 90.185697 237.795765 
L 92.590545 233.312532 
L 92.590545 233.312532 
L 94.995394 229.274483 
L 94.995394 229.274483 
L 98.362182 224.232155 
L 98.362182 224.232155 
L 100.76703 220.985422 
L 100.76703 220.985422 
L 104.614788 216.272331 
L 104.614788 216.272331 
L 107.981576 212.529834 
L 107.981576 212.529834 
L 112.310303 208.111848 
L 117.12 203.594992 
L 117.12 203.594992 
L 121.448727 199.802125 
L 127.220364 195.072071 
L 127.220364 195.072071 
L 131.549091 191.743515 
L 137.320727 187.583743 
L 137.320727 187.583743 
L 142.611394 184.04901 
L 142.611394 184.04901 
L 148.38303 180.498764 
L 148.38303 180.498764 
L 154.635636 177.010475 
L 159.926303 174.3398 
L 159.926303 174.3398 
L 167.140848 171.082107 
L 167.140848 171.082107 
L 172.912485 168.759126 
L 172.912485 168.759126 
L 179.165091 166.480708 
L 179.165091 166.480708 
L 184.455758 164.710095 
L 184.455758 164.710095 
L 195.037091 161.478971 
L 195.037091 161.478971 
L 205.618424 158.500157 
L 205.618424 158.500157 
L 223.414303 153.756738 
L 223.414303 153.756738 
L 234.957576 150.830025 
L 234.957576 150.830025 
L 248.424727 147.647582 
L 248.424727 147.647582 
L 261.410909 144.865761 
L 261.410909 144.865761 
L 298.445576 137.268784 
L 298.445576 137.268784 
L 306.141091 135.409037 
L 327.784727 129.893167 
L 348.466424 127.111511 
L 350.390303 127.148266 
L 373.957818 131.512503 
L 398.487273 111.872807 
L 398.487273 111.872807 
" clip-path="url(#pa8451c9769)" style="fill: none; stroke: #ff7f0e; stroke-width: 1.5; stroke-linecap: square"/>
   </g>
   <g id="line2d_16">
    <path d="M 73.832727 281.738488 
L 75.756606 272.18176 
L 75.756606 272.18176 
L 77.680485 263.608816 
L 77.680485 263.608816 
L 79.604364 255.910868 
L 79.604364 255.910868 
L 81.528242 248.989451 
L 81.528242 248.989451 
L 83.452121 242.755652 
L 83.452121 242.755652 
L 85.376 237.129378 
L 85.376 237.129378 
L 86.818909 233.264785 
L 86.818909 233.264785 
L 90.185697 225.267641 
L 90.185697 225.267641 
L 92.590545 220.298574 
L 92.590545 220.298574 
L 94.995394 215.841638 
L 94.995394 215.841638 
L 98.362182 210.312293 
L 98.362182 210.312293 
L 100.76703 206.780174 
L 100.76703 206.780174 
L 104.133818 202.30421 
L 104.133818 202.30421 
L 106.538667 199.382377 
L 106.538667 199.382377 
L 110.386424 195.087906 
L 110.386424 195.087906 
L 114.234182 191.166871 
L 114.234182 191.166871 
L 119.043879 186.671817 
L 119.043879 186.671817 
L 123.853576 182.534959 
L 123.853576 182.534959 
L 128.663273 178.696116 
L 128.663273 178.696116 
L 133.47297 175.122935 
L 133.47297 175.122935 
L 138.282667 171.799653 
L 138.282667 171.799653 
L 144.054303 168.131219 
L 144.054303 168.131219 
L 150.306909 164.540179 
L 150.306909 164.540179 
L 155.597576 161.80016 
L 155.597576 161.80016 
L 159.926303 159.74915 
L 159.926303 159.74915 
L 167.140848 156.672822 
L 167.140848 156.672822 
L 173.393455 154.298146 
L 173.393455 154.298146 
L 179.646061 152.129242 
L 179.646061 152.129242 
L 188.784485 149.193986 
L 188.784485 149.193986 
L 212.352 141.800615 
L 229.185939 136.127686 
L 242.653091 131.586261 
L 242.653091 131.586261 
L 248.424727 129.754896 
L 248.424727 129.754896 
L 258.044121 126.990079 
L 258.044121 126.990079 
L 265.739636 125.113204 
L 273.435152 123.575171 
L 273.435152 123.575171 
L 281.130667 122.372635 
L 281.130667 122.372635 
L 285.459394 121.827974 
L 306.141091 119.95873 
L 325.860848 117.661784 
L 325.860848 117.661784 
L 327.784727 117.338656 
L 350.390303 112.234978 
L 373.957818 108.093802 
L 398.487273 111.739908 
L 398.487273 111.739908 
" clip-path="url(#pa8451c9769)" style="fill: none; stroke: #2ca02c; stroke-width: 1.5; stroke-linecap: square"/>
   </g>
   <g id="line2d_17">
    <path d="M 73.832727 277.871408 
L 75.756606 268.040577 
L 75.756606 268.040577 
L 77.680485 259.172904 
L 77.680485 259.172904 
L 79.604364 251.168952 
L 79.604364 251.168952 
L 81.528242 243.938079 
L 81.528242 243.938079 
L 83.452121 237.397821 
L 83.452121 237.397821 
L 85.376 231.4733 
L 85.376 231.4733 
L 86.818909 227.392924 
L 86.818909 227.392924 
L 90.185697 218.926495 
L 90.185697 218.926495 
L 92.590545 213.656428 
L 92.590545 213.656428 
L 94.995394 208.929624 
L 94.995394 208.929624 
L 97.881212 203.863703 
L 97.881212 203.863703 
L 100.76703 199.349264 
L 100.76703 199.349264 
L 104.133818 194.649438 
L 104.133818 194.649438 
L 106.538667 191.598858 
L 106.538667 191.598858 
L 110.386424 187.14388 
L 110.386424 187.14388 
L 114.234182 183.106091 
L 114.234182 183.106091 
L 119.043879 178.504683 
L 119.043879 178.504683 
L 123.372606 174.688491 
L 123.372606 174.688491 
L 127.220364 171.501291 
L 127.220364 171.501291 
L 131.549091 168.108756 
L 137.320727 163.862135 
L 137.320727 163.862135 
L 142.611394 160.222668 
L 142.611394 160.222668 
L 148.38303 156.515162 
L 148.38303 156.515162 
L 154.635636 152.800625 
L 159.926303 149.897037 
L 159.926303 149.897037 
L 167.621818 146.047878 
L 173.874424 143.222439 
L 173.874424 143.222439 
L 181.569939 140.069698 
L 181.569939 140.069698 
L 188.784485 137.383832 
L 188.784485 137.383832 
L 198.403879 134.10601 
L 198.403879 134.10601 
L 210.428121 130.318848 
L 210.428121 130.318848 
L 227.262061 125.292293 
L 227.262061 125.292293 
L 245.057939 120.181435 
L 245.057939 120.181435 
L 258.044121 116.651458 
L 258.044121 116.651458 
L 265.739636 114.673064 
L 281.130667 110.982014 
L 281.130667 110.982014 
L 301.812364 106.356671 
L 301.812364 106.356671 
L 306.141091 105.38828 
L 327.784727 100.375491 
L 350.390303 95.603194 
L 373.957818 93.735399 
L 398.487273 90.061805 
L 398.487273 90.061805 
" clip-path="url(#pa8451c9769)" style="fill: none; stroke: #d62728; stroke-width: 1.5; stroke-linecap: square"/>
   </g>
   <g id="line2d_18">
    <path d="M 73.832727 270.942576 
L 75.756606 261.288731 
L 75.756606 261.288731 
L 77.680485 252.448055 
L 77.680485 252.448055 
L 79.604364 244.355445 
L 79.604364 244.355445 
L 81.528242 236.94983 
L 81.528242 236.94983 
L 83.452121 230.173999 
L 83.452121 230.173999 
L 85.376 223.974438 
L 85.376 223.974438 
L 86.818909 219.672753 
L 86.818909 219.672753 
L 90.185697 210.677017 
L 90.185697 210.677017 
L 92.590545 205.044365 
L 92.590545 205.044365 
L 94.995394 199.986458 
L 94.995394 199.986458 
L 97.881212 194.579968 
L 97.881212 194.579968 
L 100.286061 190.555234 
L 100.286061 190.555234 
L 102.209939 187.610313 
L 102.209939 187.610313 
L 104.614788 184.231059 
L 104.614788 184.231059 
L 107.981576 179.984452 
L 107.981576 179.984452 
L 110.386424 177.243868 
L 110.386424 177.243868 
L 114.234182 173.272871 
L 114.234182 173.272871 
L 117.12 170.568239 
L 117.12 170.568239 
L 121.448727 166.853285 
L 125.296485 163.81714 
L 125.296485 163.81714 
L 131.068121 159.600262 
L 131.068121 159.600262 
L 137.320727 155.349498 
L 137.320727 155.349498 
L 144.054303 151.025798 
L 144.054303 151.025798 
L 152.711758 145.765802 
L 152.711758 145.765802 
L 159.926303 141.627449 
L 159.926303 141.627449 
L 167.621818 137.482521 
L 173.874424 134.34181 
L 173.874424 134.34181 
L 181.569939 130.775846 
L 181.569939 130.775846 
L 188.784485 127.736437 
L 188.784485 127.736437 
L 196.48 124.80017 
L 204.656485 121.979297 
L 204.656485 121.979297 
L 212.352 119.541448 
L 227.262061 115.14808 
L 227.262061 115.14808 
L 248.424727 108.943136 
L 248.424727 108.943136 
L 273.435152 101.43659 
L 273.435152 101.43659 
L 283.535515 98.75009 
L 283.535515 98.75009 
L 285.459394 98.289694 
L 298.445576 95.773762 
L 305.660121 94.900552 
L 305.660121 94.900552 
L 306.141091 94.85676 
L 323.456 94.403567 
L 323.456 94.403567 
L 350.390303 95.271237 
L 373.957818 90.597966 
L 398.487273 82.111705 
L 398.487273 82.111705 
" clip-path="url(#pa8451c9769)" style="fill: none; stroke: #9467bd; stroke-width: 1.5; stroke-linecap: square"/>
   </g>
   <g id="line2d_19">
    <path d="M 73.832727 270.573001 
L 75.756606 259.979074 
L 75.756606 259.979074 
L 77.680485 250.35865 
L 77.680485 250.35865 
L 79.604364 241.622268 
L 79.604364 241.622268 
L 81.528242 233.687417 
L 81.528242 233.687417 
L 83.452121 226.478104 
L 83.452121 226.478104 
L 85.376 219.924437 
L 85.376 219.924437 
L 86.818909 215.400641 
L 86.818909 215.400641 
L 90.185697 206.000567 
L 90.185697 206.000567 
L 92.590545 200.153082 
L 92.590545 200.153082 
L 94.995394 194.923802 
L 94.995394 194.923802 
L 97.881212 189.351534 
L 97.881212 189.351534 
L 100.286061 185.210562 
L 100.286061 185.210562 
L 102.209939 182.181663 
L 102.209939 182.181663 
L 104.614788 178.704079 
L 104.614788 178.704079 
L 107.981576 174.325257 
L 107.981576 174.325257 
L 111.829333 169.88973 
L 111.829333 169.88973 
L 114.234182 167.366234 
L 114.234182 167.366234 
L 117.12 164.543322 
L 117.12 164.543322 
L 121.448727 160.647029 
L 125.296485 157.448918 
L 125.296485 157.448918 
L 131.068121 152.996736 
L 131.068121 152.996736 
L 136.839758 148.849385 
L 136.839758 148.849385 
L 142.611394 144.93207 
L 142.611394 144.93207 
L 150.306909 140.004362 
L 150.306909 140.004362 
L 157.521455 135.669157 
L 157.521455 135.669157 
L 164.25503 131.874409 
L 164.25503 131.874409 
L 169.545697 129.06986 
L 169.545697 129.06986 
L 177.241212 125.277868 
L 177.241212 125.277868 
L 184.455758 122.034961 
L 184.455758 122.034961 
L 192.151273 118.900003 
L 192.151273 118.900003 
L 200.327758 115.910199 
L 200.327758 115.910199 
L 208.023273 113.380336 
L 208.023273 113.380336 
L 217.161697 110.672395 
L 217.161697 110.672395 
L 229.185939 107.470501 
L 242.653091 104.169613 
L 242.653091 104.169613 
L 304.217212 89.592432 
L 304.217212 89.592432 
L 306.141091 89.193962 
L 323.456 86.366395 
L 323.456 86.366395 
L 327.784727 85.955436 
L 348.466424 86.377245 
L 348.466424 86.377245 
L 350.390303 86.636996 
L 373.957818 91.540002 
L 398.487273 83.650874 
L 398.487273 83.650874 
" clip-path="url(#pa8451c9769)" style="fill: none; stroke: #8c564b; stroke-width: 1.5; stroke-linecap: square"/>
   </g>
   <g id="line2d_20">
    <path d="M 73.832727 270.026854 
L 75.756606 257.953081 
L 75.756606 257.953081 
L 77.680485 247.19563 
L 77.680485 247.19563 
L 79.604364 237.606676 
L 79.604364 237.606676 
L 81.528242 229.052578 
L 81.528242 229.052578 
L 83.452121 221.412795 
L 83.452121 221.412795 
L 85.376 214.578867 
L 85.376 214.578867 
L 86.818909 209.923315 
L 86.818909 209.923315 
L 89.223758 202.949439 
L 89.223758 202.949439 
L 90.666667 199.18212 
L 90.666667 199.18212 
L 92.590545 194.58366 
L 92.590545 194.58366 
L 94.995394 189.430448 
L 94.995394 189.430448 
L 97.881212 183.979196 
L 97.881212 183.979196 
L 100.286061 179.940983 
L 100.286061 179.940983 
L 102.209939 176.985559 
L 102.209939 176.985559 
L 104.614788 173.581205 
L 104.614788 173.581205 
L 107.981576 169.26094 
L 107.981576 169.26094 
L 111.829333 164.824596 
L 111.829333 164.824596 
L 115.677091 160.797091 
L 115.677091 160.797091 
L 119.524848 157.084999 
L 119.524848 157.084999 
L 123.853576 153.207623 
L 123.853576 153.207623 
L 128.663273 149.204446 
L 128.663273 149.204446 
L 133.47297 145.47939 
L 133.47297 145.47939 
L 138.282667 142.009171 
L 138.282667 142.009171 
L 144.054303 138.164415 
L 144.054303 138.164415 
L 150.787879 134.099827 
L 150.787879 134.099827 
L 155.597576 131.457345 
L 155.597576 131.457345 
L 159.926303 129.248899 
L 159.926303 129.248899 
L 167.621818 125.664733 
L 173.874424 123.005676 
L 173.874424 123.005676 
L 184.455758 118.811132 
L 184.455758 118.811132 
L 200.327758 112.630963 
L 200.327758 112.630963 
L 212.352 107.685564 
L 239.286303 96.22295 
L 239.286303 96.22295 
L 246.981818 93.278685 
L 253.715394 90.989347 
L 253.715394 90.989347 
L 261.410909 88.776997 
L 261.410909 88.776997 
L 265.739636 87.739682 
L 273.435152 86.267979 
L 273.435152 86.267979 
L 281.130667 85.236719 
L 281.130667 85.236719 
L 285.459394 84.818727 
L 306.141091 83.597373 
L 325.860848 81.795152 
L 325.860848 81.795152 
L 327.784727 81.532747 
L 350.390303 78.150654 
L 373.957818 78.550865 
L 398.487273 74.566305 
L 398.487273 74.566305 
" clip-path="url(#pa8451c9769)" style="fill: none; stroke: #e377c2; stroke-width: 1.5; stroke-linecap: square"/>
   </g>
   <g id="line2d_21">
    <path d="M 73.832727 265.602058 
L 75.756606 254.047066 
L 75.756606 254.047066 
L 77.680485 243.647254 
L 77.680485 243.647254 
L 79.604364 234.285642 
L 79.604364 234.285642 
L 81.528242 225.855196 
L 81.528242 225.855196 
L 83.452121 218.258159 
L 83.452121 218.258159 
L 85.376 211.405419 
L 85.376 211.405419 
L 86.818909 206.705261 
L 86.818909 206.705261 
L 89.223758 199.616073 
L 89.223758 199.616073 
L 90.666667 195.762819 
L 90.666667 195.762819 
L 92.590545 191.038418 
L 92.590545 191.038418 
L 94.995394 185.719799 
L 94.995394 185.719799 
L 97.881212 180.072445 
L 97.881212 180.072445 
L 100.286061 175.881352 
L 100.286061 175.881352 
L 102.209939 172.813753 
L 102.209939 172.813753 
L 104.614788 169.283704 
L 104.614788 169.283704 
L 107.981576 164.815259 
L 107.981576 164.815259 
L 111.829333 160.24555 
L 111.829333 160.24555 
L 114.234182 157.619333 
L 114.234182 157.619333 
L 117.12 154.654785 
L 117.12 154.654785 
L 121.448727 150.514134 
L 127.220364 145.427754 
L 127.220364 145.427754 
L 131.549091 141.864574 
L 137.320727 137.389356 
L 137.320727 137.389356 
L 142.611394 133.538389 
L 142.611394 133.538389 
L 148.38303 129.603379 
L 148.38303 129.603379 
L 154.635636 125.656913 
L 159.926303 122.578251 
L 159.926303 122.578251 
L 167.140848 118.762223 
L 167.140848 118.762223 
L 172.912485 116.013254 
L 172.912485 116.013254 
L 177.241212 114.114984 
L 177.241212 114.114984 
L 184.455758 111.224681 
L 184.455758 111.224681 
L 192.151273 108.447465 
L 192.151273 108.447465 
L 200.327758 105.736884 
L 200.327758 105.736884 
L 221.490424 99.134761 
L 221.490424 99.134761 
L 239.286303 93.455405 
L 239.286303 93.455405 
L 258.044121 87.493907 
L 258.044121 87.493907 
L 265.739636 85.243203 
L 277.763879 82.172791 
L 277.763879 82.172791 
L 285.459394 80.562634 
L 298.445576 78.500978 
L 298.445576 78.500978 
L 306.141091 77.605366 
L 327.784727 75.482777 
L 349.909333 71.772379 
L 349.909333 71.772379 
L 350.390303 71.660295 
L 373.957818 65.435665 
L 398.487273 66.773001 
L 398.487273 66.773001 
" clip-path="url(#pa8451c9769)" style="fill: none; stroke: #7f7f7f; stroke-width: 1.5; stroke-linecap: square"/>
   </g>
   <g id="line2d_22">
    <path d="M 73.832727 263.500153 
L 75.756606 251.62205 
L 75.756606 251.62205 
L 77.680485 240.976181 
L 77.680485 240.976181 
L 79.604364 231.430487 
L 79.604364 231.430487 
L 81.528242 222.865032 
L 81.528242 222.865032 
L 83.452121 215.171116 
L 83.452121 215.171116 
L 85.376 208.250429 
L 85.376 208.250429 
L 86.818909 203.51364 
L 86.818909 203.51364 
L 89.223758 196.382742 
L 89.223758 196.382742 
L 90.666667 192.512478 
L 90.666667 192.512478 
L 92.590545 187.771056 
L 92.590545 187.771056 
L 94.995394 182.435713 
L 94.995394 182.435713 
L 97.881212 176.768908 
L 97.881212 176.768908 
L 100.286061 172.5586 
L 100.286061 172.5586 
L 102.209939 169.472428 
L 102.209939 169.472428 
L 104.614788 165.914576 
L 104.614788 165.914576 
L 107.981576 161.398817 
L 107.981576 161.398817 
L 111.829333 156.76537 
L 111.829333 156.76537 
L 114.234182 154.096049 
L 114.234182 154.096049 
L 117.12 151.078705 
L 117.12 151.078705 
L 121.448727 146.861546 
L 125.296485 143.363515 
L 125.296485 143.363515 
L 131.068121 138.470007 
L 131.068121 138.470007 
L 134.915879 135.408786 
L 134.915879 135.408786 
L 140.687515 131.086098 
L 140.687515 131.086098 
L 146.940121 126.74556 
L 146.940121 126.74556 
L 152.711758 123.041776 
L 152.711758 123.041776 
L 158.002424 119.891902 
L 158.002424 119.891902 
L 164.25503 116.454239 
L 164.25503 116.454239 
L 169.545697 113.766568 
L 169.545697 113.766568 
L 177.241212 110.171679 
L 177.241212 110.171679 
L 184.455758 107.079134 
L 184.455758 107.079134 
L 195.037091 102.896437 
L 195.037091 102.896437 
L 205.618424 98.992653 
L 205.618424 98.992653 
L 217.161697 94.956217 
L 217.161697 94.956217 
L 229.666909 90.866553 
L 229.666909 90.866553 
L 239.286303 88.007832 
L 239.286303 88.007832 
L 248.424727 85.605397 
L 248.424727 85.605397 
L 258.044121 83.461077 
L 258.044121 83.461077 
L 265.739636 82.03205 
L 277.763879 80.21113 
L 277.763879 80.21113 
L 298.445576 77.3544 
L 298.445576 77.3544 
L 306.141091 75.999269 
L 323.456 71.697608 
L 323.456 71.697608 
L 327.784727 70.34097 
L 350.390303 62.738436 
L 373.957818 58.989259 
L 398.487273 53.568 
L 398.487273 53.568 
" clip-path="url(#pa8451c9769)" style="fill: none; stroke: #bcbd22; stroke-width: 1.5; stroke-linecap: square"/>
   </g>
   <g id="line2d_23">
    <path d="M 73.832727 261.119558 
L 75.756606 249.002009 
L 75.756606 249.002009 
L 77.680485 238.1932 
L 77.680485 238.1932 
L 79.604364 228.543156 
L 79.604364 228.543156 
L 81.528242 219.916855 
L 81.528242 219.916855 
L 83.452121 212.193035 
L 83.452121 212.193035 
L 85.376 205.263065 
L 85.376 205.263065 
L 86.818909 200.527762 
L 86.818909 200.527762 
L 89.223758 193.407056 
L 89.223758 193.407056 
L 90.666667 189.54392 
L 90.666667 189.54392 
L 92.590545 184.809688 
L 92.590545 184.809688 
L 94.995394 179.475724 
L 94.995394 179.475724 
L 97.881212 173.79507 
L 97.881212 173.79507 
L 100.286061 169.558696 
L 100.286061 169.558696 
L 102.209939 166.442279 
L 102.209939 166.442279 
L 104.614788 162.835986 
L 104.614788 162.835986 
L 107.981576 158.236472 
L 107.981576 158.236472 
L 111.829333 153.493493 
L 111.829333 153.493493 
L 114.234182 150.753649 
L 114.234182 150.753649 
L 117.12 147.654885 
L 117.12 147.654885 
L 121.448727 143.332802 
L 121.448727 143.332802 
L 125.296485 139.769429 
L 125.296485 139.769429 
L 130.587152 135.236968 
L 130.587152 135.236968 
L 134.915879 131.812343 
L 134.915879 131.812343 
L 140.687515 127.609953 
L 140.687515 127.609953 
L 144.054303 125.338574 
L 144.054303 125.338574 
L 150.306909 121.445584 
L 150.306909 121.445584 
L 155.597576 118.451335 
L 155.597576 118.451335 
L 159.926303 116.179834 
L 159.926303 116.179834 
L 167.621818 112.464256 
L 167.621818 112.464256 
L 173.874424 109.67061 
L 173.874424 109.67061 
L 184.455758 105.19412 
L 184.455758 105.19412 
L 229.666909 86.538247 
L 229.666909 86.538247 
L 239.286303 83.16485 
L 239.286303 83.16485 
L 246.981818 80.877541 
L 246.981818 80.877541 
L 248.424727 80.494325 
L 248.424727 80.494325 
L 253.715394 79.215807 
L 253.715394 79.215807 
L 261.410909 77.698995 
L 261.410909 77.698995 
L 265.739636 77.004764 
L 265.739636 77.004764 
L 277.763879 75.482722 
L 277.763879 75.482722 
L 285.459394 74.614716 
L 285.459394 74.614716 
L 298.445576 72.79302 
L 298.445576 72.79302 
L 306.141091 71.287937 
L 306.141091 71.287937 
L 327.784727 65.623785 
L 327.784727 65.623785 
L 348.466424 63.288274 
L 348.466424 63.288274 
L 350.390303 63.573653 
L 350.390303 63.573653 
L 373.957818 75.649127 
L 373.957818 75.649127 
L 398.487273 56.675468 
L 398.487273 56.675468 
" clip-path="url(#pa8451c9769)" style="fill: none; stroke: #17becf; stroke-width: 1.5; stroke-linecap: square"/>
   </g>
   <g id="line2d_24">
    <path d="M 73.832727 257.231924 
L 75.756606 245.602291 
L 75.756606 245.602291 
L 77.680485 235.079598 
L 77.680485 235.079598 
L 79.604364 225.559252 
L 79.604364 225.559252 
L 81.528242 216.945119 
L 81.528242 216.945119 
L 83.452121 209.14896 
L 83.452121 209.14896 
L 85.376 202.089899 
L 85.376 202.089899 
L 86.818909 197.234549 
L 86.818909 197.234549 
L 89.223758 189.89335 
L 89.223758 189.89335 
L 90.666667 185.896337 
L 90.666667 185.896337 
L 92.590545 180.992572 
L 92.590545 180.992572 
L 94.995394 175.474074 
L 94.995394 175.474074 
L 97.881212 169.628587 
L 97.881212 169.628587 
L 100.286061 165.310532 
L 100.286061 165.310532 
L 102.209939 162.167327 
L 102.209939 162.167327 
L 104.614788 158.575297 
L 104.614788 158.575297 
L 107.981576 154.078886 
L 107.981576 154.078886 
L 110.386424 151.184003 
L 110.386424 151.184003 
L 114.234182 146.992977 
L 114.234182 146.992977 
L 117.12 144.137126 
L 117.12 144.137126 
L 121.448727 140.207708 
L 121.448727 140.207708 
L 125.296485 136.987764 
L 125.296485 136.987764 
L 131.068121 132.501175 
L 131.068121 132.501175 
L 137.320727 127.962679 
L 137.320727 127.962679 
L 144.054303 123.331226 
L 144.054303 123.331226 
L 152.711758 117.670075 
L 152.711758 117.670075 
L 159.926303 113.181137 
L 159.926303 113.181137 
L 167.621818 108.63417 
L 167.621818 108.63417 
L 173.874424 105.142051 
L 173.874424 105.142051 
L 181.569939 101.119569 
L 181.569939 101.119569 
L 188.784485 97.647957 
L 188.784485 97.647957 
L 196.48 94.284782 
L 196.48 94.284782 
L 200.327758 92.739059 
L 200.327758 92.739059 
L 208.023273 89.922864 
L 208.023273 89.922864 
L 212.352 88.499218 
L 212.352 88.499218 
L 221.490424 85.861204 
L 221.490424 85.861204 
L 228.70497 84.108552 
L 228.70497 84.108552 
L 234.957576 82.798662 
L 234.957576 82.798662 
L 245.057939 81.014603 
L 245.057939 81.014603 
L 253.715394 79.705432 
L 253.715394 79.705432 
L 273.435152 76.775458 
L 273.435152 76.775458 
L 281.130667 75.383441 
L 281.130667 75.383441 
L 285.459394 74.487078 
L 285.459394 74.487078 
L 298.445576 71.208315 
L 298.445576 71.208315 
L 306.141091 68.848596 
L 306.141091 68.848596 
L 327.784727 61.515497 
L 327.784727 61.515497 
L 348.466424 57.364268 
L 348.466424 57.364268 
L 350.390303 57.333259 
L 350.390303 57.333259 
L 373.957818 62.94629 
L 373.957818 62.94629 
L 398.487273 59.514728 
L 398.487273 59.514728 
" clip-path="url(#pa8451c9769)" style="fill: none; stroke: #1f77b4; stroke-width: 1.5; stroke-linecap: square"/>
   </g>
   <g id="patch_3">
    <path d="M 57.6 307.584 
L 57.6 41.472 
" style="fill: none; stroke: #000000; stroke-width: 0.8; stroke-linejoin: miter; stroke-linecap: square"/>
   </g>
   <g id="patch_4">
    <path d="M 414.72 307.584 
L 414.72 41.472 
" style="fill: none; stroke: #000000; stroke-width: 0.8; stroke-linejoin: miter; stroke-linecap: square"/>
   </g>
   <g id="patch_5">
    <path d="M 57.6 307.584 
L 414.72 307.584 
" style="fill: none; stroke: #000000; stroke-width: 0.8; stroke-linejoin: miter; stroke-linecap: square"/>
   </g>
   <g id="patch_6">
    <path d="M 57.6 41.472 
L 414.72 41.472 
" style="fill: none; stroke: #000000; stroke-width: 0.8; stroke-linejoin: miter; stroke-linecap: square"/>
   </g>
   <g id="legend_1">
    <g id="patch_7">
     <path d="M 328.760625 302.584 
L 407.72 302.584 
Q 409.72 302.584 409.72 300.584 
L 409.72 140.124625 
Q 409.72 138.124625 407.72 138.124625 
L 328.760625 138.124625 
Q 326.760625 138.124625 326.760625 140.124625 
L 326.760625 300.584 
Q 326.760625 302.584 328.760625 302.584 
z
" style="fill: #ffffff; opacity: 0.8; stroke: #cccccc; stroke-linejoin: miter"/>
    </g>
    <g id="line2d_25">
     <path d="M 330.760625 146.223062 
L 340.760625 146.223062 
L 350.760625 146.223062 
" style="fill: none; stroke: #1f77b4; stroke-width: 1.5; stroke-linecap: square"/>
    </g>
    <g id="text_16">
     <!-- QBER: 1 -->
     <g transform="translate(358.760625 149.723062)scale(0.1 -0.1)">
      <defs>
       <path id="DejaVuSans-51" d="M 2522 4238 
Q 1834 4238 1429 3725 
Q 1025 3213 1025 2328 
Q 1025 1447 1429 934 
Q 1834 422 2522 422 
Q 3209 422 3611 934 
Q 4013 1447 4013 2328 
Q 4013 3213 3611 3725 
Q 3209 4238 2522 4238 
z
M 3406 84 
L 4238 -825 
L 3475 -825 
L 2784 -78 
Q 2681 -84 2626 -87 
Q 2572 -91 2522 -91 
Q 1538 -91 948 567 
Q 359 1225 359 2328 
Q 359 3434 948 4092 
Q 1538 4750 2522 4750 
Q 3503 4750 4090 4092 
Q 4678 3434 4678 2328 
Q 4678 1516 4351 937 
Q 4025 359 3406 84 
z
" transform="scale(0.015625)"/>
       <path id="DejaVuSans-42" d="M 1259 2228 
L 1259 519 
L 2272 519 
Q 2781 519 3026 730 
Q 3272 941 3272 1375 
Q 3272 1813 3026 2020 
Q 2781 2228 2272 2228 
L 1259 2228 
z
M 1259 4147 
L 1259 2741 
L 2194 2741 
Q 2656 2741 2882 2914 
Q 3109 3088 3109 3444 
Q 3109 3797 2882 3972 
Q 2656 4147 2194 4147 
L 1259 4147 
z
M 628 4666 
L 2241 4666 
Q 2963 4666 3353 4366 
Q 3744 4066 3744 3513 
Q 3744 3084 3544 2831 
Q 3344 2578 2956 2516 
Q 3422 2416 3680 2098 
Q 3938 1781 3938 1306 
Q 3938 681 3513 340 
Q 3088 0 2303 0 
L 628 0 
L 628 4666 
z
" transform="scale(0.015625)"/>
       <path id="DejaVuSans-45" d="M 628 4666 
L 3578 4666 
L 3578 4134 
L 1259 4134 
L 1259 2753 
L 3481 2753 
L 3481 2222 
L 1259 2222 
L 1259 531 
L 3634 531 
L 3634 0 
L 628 0 
L 628 4666 
z
" transform="scale(0.015625)"/>
       <path id="DejaVuSans-52" d="M 2841 2188 
Q 3044 2119 3236 1894 
Q 3428 1669 3622 1275 
L 4263 0 
L 3584 0 
L 2988 1197 
Q 2756 1666 2539 1819 
Q 2322 1972 1947 1972 
L 1259 1972 
L 1259 0 
L 628 0 
L 628 4666 
L 2053 4666 
Q 2853 4666 3247 4331 
Q 3641 3997 3641 3322 
Q 3641 2881 3436 2590 
Q 3231 2300 2841 2188 
z
M 1259 4147 
L 1259 2491 
L 2053 2491 
Q 2509 2491 2742 2702 
Q 2975 2913 2975 3322 
Q 2975 3731 2742 3939 
Q 2509 4147 2053 4147 
L 1259 4147 
z
" transform="scale(0.015625)"/>
       <path id="DejaVuSans-3a" d="M 750 794 
L 1409 794 
L 1409 0 
L 750 0 
L 750 794 
z
M 750 3309 
L 1409 3309 
L 1409 2516 
L 750 2516 
L 750 3309 
z
" transform="scale(0.015625)"/>
      </defs>
      <use xlink:href="#DejaVuSans-51"/>
      <use xlink:href="#DejaVuSans-42" x="78.710938"/>
      <use xlink:href="#DejaVuSans-45" x="147.314453"/>
      <use xlink:href="#DejaVuSans-52" x="210.498047"/>
      <use xlink:href="#DejaVuSans-3a" x="276.855469"/>
      <use xlink:href="#DejaVuSans-20" x="310.546875"/>
      <use xlink:href="#DejaVuSans-31" x="342.333984"/>
     </g>
    </g>
    <g id="line2d_26">
     <path d="M 330.760625 160.901188 
L 340.760625 160.901188 
L 350.760625 160.901188 
" style="fill: none; stroke: #ff7f0e; stroke-width: 1.5; stroke-linecap: square"/>
    </g>
    <g id="text_17">
     <!-- QBER: 2 -->
     <g transform="translate(358.760625 164.401188)scale(0.1 -0.1)">
      <use xlink:href="#DejaVuSans-51"/>
      <use xlink:href="#DejaVuSans-42" x="78.710938"/>
      <use xlink:href="#DejaVuSans-45" x="147.314453"/>
      <use xlink:href="#DejaVuSans-52" x="210.498047"/>
      <use xlink:href="#DejaVuSans-3a" x="276.855469"/>
      <use xlink:href="#DejaVuSans-20" x="310.546875"/>
      <use xlink:href="#DejaVuSans-32" x="342.333984"/>
     </g>
    </g>
    <g id="line2d_27">
     <path d="M 330.760625 175.579313 
L 340.760625 175.579313 
L 350.760625 175.579313 
" style="fill: none; stroke: #2ca02c; stroke-width: 1.5; stroke-linecap: square"/>
    </g>
    <g id="text_18">
     <!-- QBER: 3 -->
     <g transform="translate(358.760625 179.079313)scale(0.1 -0.1)">
      <defs>
       <path id="DejaVuSans-33" d="M 2597 2516 
Q 3050 2419 3304 2112 
Q 3559 1806 3559 1356 
Q 3559 666 3084 287 
Q 2609 -91 1734 -91 
Q 1441 -91 1130 -33 
Q 819 25 488 141 
L 488 750 
Q 750 597 1062 519 
Q 1375 441 1716 441 
Q 2309 441 2620 675 
Q 2931 909 2931 1356 
Q 2931 1769 2642 2001 
Q 2353 2234 1838 2234 
L 1294 2234 
L 1294 2753 
L 1863 2753 
Q 2328 2753 2575 2939 
Q 2822 3125 2822 3475 
Q 2822 3834 2567 4026 
Q 2313 4219 1838 4219 
Q 1578 4219 1281 4162 
Q 984 4106 628 3988 
L 628 4550 
Q 988 4650 1302 4700 
Q 1616 4750 1894 4750 
Q 2613 4750 3031 4423 
Q 3450 4097 3450 3541 
Q 3450 3153 3228 2886 
Q 3006 2619 2597 2516 
z
" transform="scale(0.015625)"/>
      </defs>
      <use xlink:href="#DejaVuSans-51"/>
      <use xlink:href="#DejaVuSans-42" x="78.710938"/>
      <use xlink:href="#DejaVuSans-45" x="147.314453"/>
      <use xlink:href="#DejaVuSans-52" x="210.498047"/>
      <use xlink:href="#DejaVuSans-3a" x="276.855469"/>
      <use xlink:href="#DejaVuSans-20" x="310.546875"/>
      <use xlink:href="#DejaVuSans-33" x="342.333984"/>
     </g>
    </g>
    <g id="line2d_28">
     <path d="M 330.760625 190.257438 
L 340.760625 190.257438 
L 350.760625 190.257438 
" style="fill: none; stroke: #d62728; stroke-width: 1.5; stroke-linecap: square"/>
    </g>
    <g id="text_19">
     <!-- QBER: 4 -->
     <g transform="translate(358.760625 193.757438)scale(0.1 -0.1)">
      <defs>
       <path id="DejaVuSans-34" d="M 2419 4116 
L 825 1625 
L 2419 1625 
L 2419 4116 
z
M 2253 4666 
L 3047 4666 
L 3047 1625 
L 3713 1625 
L 3713 1100 
L 3047 1100 
L 3047 0 
L 2419 0 
L 2419 1100 
L 313 1100 
L 313 1709 
L 2253 4666 
z
" transform="scale(0.015625)"/>
      </defs>
      <use xlink:href="#DejaVuSans-51"/>
      <use xlink:href="#DejaVuSans-42" x="78.710938"/>
      <use xlink:href="#DejaVuSans-45" x="147.314453"/>
      <use xlink:href="#DejaVuSans-52" x="210.498047"/>
      <use xlink:href="#DejaVuSans-3a" x="276.855469"/>
      <use xlink:href="#DejaVuSans-20" x="310.546875"/>
      <use xlink:href="#DejaVuSans-34" x="342.333984"/>
     </g>
    </g>
    <g id="line2d_29">
     <path d="M 330.760625 204.935563 
L 340.760625 204.935563 
L 350.760625 204.935563 
" style="fill: none; stroke: #9467bd; stroke-width: 1.5; stroke-linecap: square"/>
    </g>
    <g id="text_20">
     <!-- QBER: 5 -->
     <g transform="translate(358.760625 208.435563)scale(0.1 -0.1)">
      <use xlink:href="#DejaVuSans-51"/>
      <use xlink:href="#DejaVuSans-42" x="78.710938"/>
      <use xlink:href="#DejaVuSans-45" x="147.314453"/>
      <use xlink:href="#DejaVuSans-52" x="210.498047"/>
      <use xlink:href="#DejaVuSans-3a" x="276.855469"/>
      <use xlink:href="#DejaVuSans-20" x="310.546875"/>
      <use xlink:href="#DejaVuSans-35" x="342.333984"/>
     </g>
    </g>
    <g id="line2d_30">
     <path d="M 330.760625 219.613688 
L 340.760625 219.613688 
L 350.760625 219.613688 
" style="fill: none; stroke: #8c564b; stroke-width: 1.5; stroke-linecap: square"/>
    </g>
    <g id="text_21">
     <!-- QBER: 6 -->
     <g transform="translate(358.760625 223.113688)scale(0.1 -0.1)">
      <defs>
       <path id="DejaVuSans-36" d="M 2113 2584 
Q 1688 2584 1439 2293 
Q 1191 2003 1191 1497 
Q 1191 994 1439 701 
Q 1688 409 2113 409 
Q 2538 409 2786 701 
Q 3034 994 3034 1497 
Q 3034 2003 2786 2293 
Q 2538 2584 2113 2584 
z
M 3366 4563 
L 3366 3988 
Q 3128 4100 2886 4159 
Q 2644 4219 2406 4219 
Q 1781 4219 1451 3797 
Q 1122 3375 1075 2522 
Q 1259 2794 1537 2939 
Q 1816 3084 2150 3084 
Q 2853 3084 3261 2657 
Q 3669 2231 3669 1497 
Q 3669 778 3244 343 
Q 2819 -91 2113 -91 
Q 1303 -91 875 529 
Q 447 1150 447 2328 
Q 447 3434 972 4092 
Q 1497 4750 2381 4750 
Q 2619 4750 2861 4703 
Q 3103 4656 3366 4563 
z
" transform="scale(0.015625)"/>
      </defs>
      <use xlink:href="#DejaVuSans-51"/>
      <use xlink:href="#DejaVuSans-42" x="78.710938"/>
      <use xlink:href="#DejaVuSans-45" x="147.314453"/>
      <use xlink:href="#DejaVuSans-52" x="210.498047"/>
      <use xlink:href="#DejaVuSans-3a" x="276.855469"/>
      <use xlink:href="#DejaVuSans-20" x="310.546875"/>
      <use xlink:href="#DejaVuSans-36" x="342.333984"/>
     </g>
    </g>
    <g id="line2d_31">
     <path d="M 330.760625 234.291812 
L 340.760625 234.291812 
L 350.760625 234.291812 
" style="fill: none; stroke: #e377c2; stroke-width: 1.5; stroke-linecap: square"/>
    </g>
    <g id="text_22">
     <!-- QBER: 7 -->
     <g transform="translate(358.760625 237.791812)scale(0.1 -0.1)">
      <use xlink:href="#DejaVuSans-51"/>
      <use xlink:href="#DejaVuSans-42" x="78.710938"/>
      <use xlink:href="#DejaVuSans-45" x="147.314453"/>
      <use xlink:href="#DejaVuSans-52" x="210.498047"/>
      <use xlink:href="#DejaVuSans-3a" x="276.855469"/>
      <use xlink:href="#DejaVuSans-20" x="310.546875"/>
      <use xlink:href="#DejaVuSans-37" x="342.333984"/>
     </g>
    </g>
    <g id="line2d_32">
     <path d="M 330.760625 248.969938 
L 340.760625 248.969938 
L 350.760625 248.969938 
" style="fill: none; stroke: #7f7f7f; stroke-width: 1.5; stroke-linecap: square"/>
    </g>
    <g id="text_23">
     <!-- QBER: 8 -->
     <g transform="translate(358.760625 252.469938)scale(0.1 -0.1)">
      <defs>
       <path id="DejaVuSans-38" d="M 2034 2216 
Q 1584 2216 1326 1975 
Q 1069 1734 1069 1313 
Q 1069 891 1326 650 
Q 1584 409 2034 409 
Q 2484 409 2743 651 
Q 3003 894 3003 1313 
Q 3003 1734 2745 1975 
Q 2488 2216 2034 2216 
z
M 1403 2484 
Q 997 2584 770 2862 
Q 544 3141 544 3541 
Q 544 4100 942 4425 
Q 1341 4750 2034 4750 
Q 2731 4750 3128 4425 
Q 3525 4100 3525 3541 
Q 3525 3141 3298 2862 
Q 3072 2584 2669 2484 
Q 3125 2378 3379 2068 
Q 3634 1759 3634 1313 
Q 3634 634 3220 271 
Q 2806 -91 2034 -91 
Q 1263 -91 848 271 
Q 434 634 434 1313 
Q 434 1759 690 2068 
Q 947 2378 1403 2484 
z
M 1172 3481 
Q 1172 3119 1398 2916 
Q 1625 2713 2034 2713 
Q 2441 2713 2670 2916 
Q 2900 3119 2900 3481 
Q 2900 3844 2670 4047 
Q 2441 4250 2034 4250 
Q 1625 4250 1398 4047 
Q 1172 3844 1172 3481 
z
" transform="scale(0.015625)"/>
      </defs>
      <use xlink:href="#DejaVuSans-51"/>
      <use xlink:href="#DejaVuSans-42" x="78.710938"/>
      <use xlink:href="#DejaVuSans-45" x="147.314453"/>
      <use xlink:href="#DejaVuSans-52" x="210.498047"/>
      <use xlink:href="#DejaVuSans-3a" x="276.855469"/>
      <use xlink:href="#DejaVuSans-20" x="310.546875"/>
      <use xlink:href="#DejaVuSans-38" x="342.333984"/>
     </g>
    </g>
    <g id="line2d_33">
     <path d="M 330.760625 263.648062 
L 340.760625 263.648062 
L 350.760625 263.648062 
" style="fill: none; stroke: #bcbd22; stroke-width: 1.5; stroke-linecap: square"/>
    </g>
    <g id="text_24">
     <!-- QBER: 9 -->
     <g transform="translate(358.760625 267.148062)scale(0.1 -0.1)">
      <defs>
       <path id="DejaVuSans-39" d="M 703 97 
L 703 672 
Q 941 559 1184 500 
Q 1428 441 1663 441 
Q 2288 441 2617 861 
Q 2947 1281 2994 2138 
Q 2813 1869 2534 1725 
Q 2256 1581 1919 1581 
Q 1219 1581 811 2004 
Q 403 2428 403 3163 
Q 403 3881 828 4315 
Q 1253 4750 1959 4750 
Q 2769 4750 3195 4129 
Q 3622 3509 3622 2328 
Q 3622 1225 3098 567 
Q 2575 -91 1691 -91 
Q 1453 -91 1209 -44 
Q 966 3 703 97 
z
M 1959 2075 
Q 2384 2075 2632 2365 
Q 2881 2656 2881 3163 
Q 2881 3666 2632 3958 
Q 2384 4250 1959 4250 
Q 1534 4250 1286 3958 
Q 1038 3666 1038 3163 
Q 1038 2656 1286 2365 
Q 1534 2075 1959 2075 
z
" transform="scale(0.015625)"/>
      </defs>
      <use xlink:href="#DejaVuSans-51"/>
      <use xlink:href="#DejaVuSans-42" x="78.710938"/>
      <use xlink:href="#DejaVuSans-45" x="147.314453"/>
      <use xlink:href="#DejaVuSans-52" x="210.498047"/>
      <use xlink:href="#DejaVuSans-3a" x="276.855469"/>
      <use xlink:href="#DejaVuSans-20" x="310.546875"/>
      <use xlink:href="#DejaVuSans-39" x="342.333984"/>
     </g>
    </g>
    <g id="line2d_34">
     <path d="M 330.760625 278.326187 
L 340.760625 278.326187 
L 350.760625 278.326187 
" style="fill: none; stroke: #17becf; stroke-width: 1.5; stroke-linecap: square"/>
    </g>
    <g id="text_25">
     <!-- QBER: 10 -->
     <g transform="translate(358.760625 281.826187)scale(0.1 -0.1)">
      <use xlink:href="#DejaVuSans-51"/>
      <use xlink:href="#DejaVuSans-42" x="78.710938"/>
      <use xlink:href="#DejaVuSans-45" x="147.314453"/>
      <use xlink:href="#DejaVuSans-52" x="210.498047"/>
      <use xlink:href="#DejaVuSans-3a" x="276.855469"/>
      <use xlink:href="#DejaVuSans-20" x="310.546875"/>
      <use xlink:href="#DejaVuSans-31" x="342.333984"/>
      <use xlink:href="#DejaVuSans-30" x="405.957031"/>
     </g>
    </g>
    <g id="line2d_35">
     <path d="M 330.760625 293.004312 
L 340.760625 293.004312 
L 350.760625 293.004312 
" style="fill: none; stroke: #1f77b4; stroke-width: 1.5; stroke-linecap: square"/>
    </g>
    <g id="text_26">
     <!-- QBER: 11 -->
     <g transform="translate(358.760625 296.504312)scale(0.1 -0.1)">
      <use xlink:href="#DejaVuSans-51"/>
      <use xlink:href="#DejaVuSans-42" x="78.710938"/>
      <use xlink:href="#DejaVuSans-45" x="147.314453"/>
      <use xlink:href="#DejaVuSans-52" x="210.498047"/>
      <use xlink:href="#DejaVuSans-3a" x="276.855469"/>
      <use xlink:href="#DejaVuSans-20" x="310.546875"/>
      <use xlink:href="#DejaVuSans-31" x="342.333984"/>
      <use xlink:href="#DejaVuSans-31" x="405.957031"/>
     </g>
    </g>
   </g>
  </g>
 </g>
 <defs>
  <clipPath id="pa8451c9769">
   <rect x="57.6" y="41.472" width="357.12" height="266.112"/>
  </clipPath>
 </defs>
</svg>
