<?xml version="1.0" encoding="utf-8" standalone="no"?>
<!DOCTYPE svg PUBLIC "-//W3C//DTD SVG 1.1//EN"
  "http://www.w3.org/Graphics/SVG/1.1/DTD/svg11.dtd">
<svg xmlns:xlink="http://www.w3.org/1999/xlink" width="460.8pt" height="345.6pt" viewBox="0 0 460.8 345.6" xmlns="http://www.w3.org/2000/svg" version="1.1">
 <metadata>
  <rdf:RDF xmlns:dc="http://purl.org/dc/elements/1.1/" xmlns:cc="http://creativecommons.org/ns#" xmlns:rdf="http://www.w3.org/1999/02/22-rdf-syntax-ns#">
   <cc:Work>
    <dc:type rdf:resource="http://purl.org/dc/dcmitype/StillImage"/>
    <dc:date>2023-08-12T11:41:34.959384</dc:date>
    <dc:format>image/svg+xml</dc:format>
    <dc:creator>
     <cc:Agent>
      <dc:title>Matplotlib v3.5.3, https://matplotlib.org/</dc:title>
     </cc:Agent>
    </dc:creator>
   </cc:Work>
  </rdf:RDF>
 </metadata>
 <defs>
  <style type="text/css">*{stroke-linejoin: round; stroke-linecap: butt}</style>
 </defs>
 <g id="figure_1">
  <g id="patch_1">
   <path d="M 0 345.6 
L 460.8 345.6 
L 460.8 0 
L 0 0 
z
" style="fill: #ffffff"/>
  </g>
  <g id="axes_1">
   <g id="patch_2">
    <path d="M 57.6 307.584 
L 414.72 307.584 
L 414.72 41.472 
L 57.6 41.472 
z
" style="fill: #ffffff"/>
   </g>
   <g id="matplotlib.axis_1">
    <g id="xtick_1">
     <g id="line2d_1">
      <defs>
       <path id="m54c2008e06" d="M 0 0 
L 0 3.5 
" style="stroke: #000000; stroke-width: 0.8"/>
      </defs>
      <g>
       <use xlink:href="#m54c2008e06" x="73.351758" y="307.584" style="stroke: #000000; stroke-width: 0.8"/>
      </g>
     </g>
     <g id="text_1">
      <!-- 0 -->
      <g transform="translate(70.170508 322.182437)scale(0.1 -0.1)">
       <defs>
        <path id="DejaVuSans-30" d="M 2034 4250 
Q 1547 4250 1301 3770 
Q 1056 3291 1056 2328 
Q 1056 1369 1301 889 
Q 1547 409 2034 409 
Q 2525 409 2770 889 
Q 3016 1369 3016 2328 
Q 3016 3291 2770 3770 
Q 2525 4250 2034 4250 
z
M 2034 4750 
Q 2819 4750 3233 4129 
Q 3647 3509 3647 2328 
Q 3647 1150 3233 529 
Q 2819 -91 2034 -91 
Q 1250 -91 836 529 
Q 422 1150 422 2328 
Q 422 3509 836 4129 
Q 1250 4750 2034 4750 
z
" transform="scale(0.015625)"/>
       </defs>
       <use xlink:href="#DejaVuSans-30"/>
      </g>
     </g>
    </g>
    <g id="xtick_2">
     <g id="line2d_2">
      <g>
       <use xlink:href="#m54c2008e06" x="121.448727" y="307.584" style="stroke: #000000; stroke-width: 0.8"/>
      </g>
     </g>
     <g id="text_2">
      <!-- 2500 -->
      <g transform="translate(108.723727 322.182437)scale(0.1 -0.1)">
       <defs>
        <path id="DejaVuSans-32" d="M 1228 531 
L 3431 531 
L 3431 0 
L 469 0 
L 469 531 
Q 828 903 1448 1529 
Q 2069 2156 2228 2338 
Q 2531 2678 2651 2914 
Q 2772 3150 2772 3378 
Q 2772 3750 2511 3984 
Q 2250 4219 1831 4219 
Q 1534 4219 1204 4116 
Q 875 4013 500 3803 
L 500 4441 
Q 881 4594 1212 4672 
Q 1544 4750 1819 4750 
Q 2544 4750 2975 4387 
Q 3406 4025 3406 3419 
Q 3406 3131 3298 2873 
Q 3191 2616 2906 2266 
Q 2828 2175 2409 1742 
Q 1991 1309 1228 531 
z
" transform="scale(0.015625)"/>
        <path id="DejaVuSans-35" d="M 691 4666 
L 3169 4666 
L 3169 4134 
L 1269 4134 
L 1269 2991 
Q 1406 3038 1543 3061 
Q 1681 3084 1819 3084 
Q 2600 3084 3056 2656 
Q 3513 2228 3513 1497 
Q 3513 744 3044 326 
Q 2575 -91 1722 -91 
Q 1428 -91 1123 -41 
Q 819 9 494 109 
L 494 744 
Q 775 591 1075 516 
Q 1375 441 1709 441 
Q 2250 441 2565 725 
Q 2881 1009 2881 1497 
Q 2881 1984 2565 2268 
Q 2250 2553 1709 2553 
Q 1456 2553 1204 2497 
Q 953 2441 691 2322 
L 691 4666 
z
" transform="scale(0.015625)"/>
       </defs>
       <use xlink:href="#DejaVuSans-32"/>
       <use xlink:href="#DejaVuSans-35" x="63.623047"/>
       <use xlink:href="#DejaVuSans-30" x="127.246094"/>
       <use xlink:href="#DejaVuSans-30" x="190.869141"/>
      </g>
     </g>
    </g>
    <g id="xtick_3">
     <g id="line2d_3">
      <g>
       <use xlink:href="#m54c2008e06" x="169.545697" y="307.584" style="stroke: #000000; stroke-width: 0.8"/>
      </g>
     </g>
     <g id="text_3">
      <!-- 5000 -->
      <g transform="translate(156.820697 322.182437)scale(0.1 -0.1)">
       <use xlink:href="#DejaVuSans-35"/>
       <use xlink:href="#DejaVuSans-30" x="63.623047"/>
       <use xlink:href="#DejaVuSans-30" x="127.246094"/>
       <use xlink:href="#DejaVuSans-30" x="190.869141"/>
      </g>
     </g>
    </g>
    <g id="xtick_4">
     <g id="line2d_4">
      <g>
       <use xlink:href="#m54c2008e06" x="217.642667" y="307.584" style="stroke: #000000; stroke-width: 0.8"/>
      </g>
     </g>
     <g id="text_4">
      <!-- 7500 -->
      <g transform="translate(204.917667 322.182437)scale(0.1 -0.1)">
       <defs>
        <path id="DejaVuSans-37" d="M 525 4666 
L 3525 4666 
L 3525 4397 
L 1831 0 
L 1172 0 
L 2766 4134 
L 525 4134 
L 525 4666 
z
" transform="scale(0.015625)"/>
       </defs>
       <use xlink:href="#DejaVuSans-37"/>
       <use xlink:href="#DejaVuSans-35" x="63.623047"/>
       <use xlink:href="#DejaVuSans-30" x="127.246094"/>
       <use xlink:href="#DejaVuSans-30" x="190.869141"/>
      </g>
     </g>
    </g>
    <g id="xtick_5">
     <g id="line2d_5">
      <g>
       <use xlink:href="#m54c2008e06" x="265.739636" y="307.584" style="stroke: #000000; stroke-width: 0.8"/>
      </g>
     </g>
     <g id="text_5">
      <!-- 10000 -->
      <g transform="translate(249.833386 322.182437)scale(0.1 -0.1)">
       <defs>
        <path id="DejaVuSans-31" d="M 794 531 
L 1825 531 
L 1825 4091 
L 703 3866 
L 703 4441 
L 1819 4666 
L 2450 4666 
L 2450 531 
L 3481 531 
L 3481 0 
L 794 0 
L 794 531 
z
" transform="scale(0.015625)"/>
       </defs>
       <use xlink:href="#DejaVuSans-31"/>
       <use xlink:href="#DejaVuSans-30" x="63.623047"/>
       <use xlink:href="#DejaVuSans-30" x="127.246094"/>
       <use xlink:href="#DejaVuSans-30" x="190.869141"/>
       <use xlink:href="#DejaVuSans-30" x="254.492188"/>
      </g>
     </g>
    </g>
    <g id="xtick_6">
     <g id="line2d_6">
      <g>
       <use xlink:href="#m54c2008e06" x="313.836606" y="307.584" style="stroke: #000000; stroke-width: 0.8"/>
      </g>
     </g>
     <g id="text_6">
      <!-- 12500 -->
      <g transform="translate(297.930356 322.182437)scale(0.1 -0.1)">
       <use xlink:href="#DejaVuSans-31"/>
       <use xlink:href="#DejaVuSans-32" x="63.623047"/>
       <use xlink:href="#DejaVuSans-35" x="127.246094"/>
       <use xlink:href="#DejaVuSans-30" x="190.869141"/>
       <use xlink:href="#DejaVuSans-30" x="254.492188"/>
      </g>
     </g>
    </g>
    <g id="xtick_7">
     <g id="line2d_7">
      <g>
       <use xlink:href="#m54c2008e06" x="361.933576" y="307.584" style="stroke: #000000; stroke-width: 0.8"/>
      </g>
     </g>
     <g id="text_7">
      <!-- 15000 -->
      <g transform="translate(346.027326 322.182437)scale(0.1 -0.1)">
       <use xlink:href="#DejaVuSans-31"/>
       <use xlink:href="#DejaVuSans-35" x="63.623047"/>
       <use xlink:href="#DejaVuSans-30" x="127.246094"/>
       <use xlink:href="#DejaVuSans-30" x="190.869141"/>
       <use xlink:href="#DejaVuSans-30" x="254.492188"/>
      </g>
     </g>
    </g>
    <g id="xtick_8">
     <g id="line2d_8">
      <g>
       <use xlink:href="#m54c2008e06" x="410.030545" y="307.584" style="stroke: #000000; stroke-width: 0.8"/>
      </g>
     </g>
     <g id="text_8">
      <!-- 17500 -->
      <g transform="translate(394.124295 322.182437)scale(0.1 -0.1)">
       <use xlink:href="#DejaVuSans-31"/>
       <use xlink:href="#DejaVuSans-37" x="63.623047"/>
       <use xlink:href="#DejaVuSans-35" x="127.246094"/>
       <use xlink:href="#DejaVuSans-30" x="190.869141"/>
       <use xlink:href="#DejaVuSans-30" x="254.492188"/>
      </g>
     </g>
    </g>
    <g id="text_9">
     <!-- Number of input neurons multiplied by number of hidden neurons [N*K] -->
     <g transform="translate(56.102969 335.860562)scale(0.1 -0.1)">
      <defs>
       <path id="DejaVuSans-4e" d="M 628 4666 
L 1478 4666 
L 3547 763 
L 3547 4666 
L 4159 4666 
L 4159 0 
L 3309 0 
L 1241 3903 
L 1241 0 
L 628 0 
L 628 4666 
z
" transform="scale(0.015625)"/>
       <path id="DejaVuSans-75" d="M 544 1381 
L 544 3500 
L 1119 3500 
L 1119 1403 
Q 1119 906 1312 657 
Q 1506 409 1894 409 
Q 2359 409 2629 706 
Q 2900 1003 2900 1516 
L 2900 3500 
L 3475 3500 
L 3475 0 
L 2900 0 
L 2900 538 
Q 2691 219 2414 64 
Q 2138 -91 1772 -91 
Q 1169 -91 856 284 
Q 544 659 544 1381 
z
M 1991 3584 
L 1991 3584 
z
" transform="scale(0.015625)"/>
       <path id="DejaVuSans-6d" d="M 3328 2828 
Q 3544 3216 3844 3400 
Q 4144 3584 4550 3584 
Q 5097 3584 5394 3201 
Q 5691 2819 5691 2113 
L 5691 0 
L 5113 0 
L 5113 2094 
Q 5113 2597 4934 2840 
Q 4756 3084 4391 3084 
Q 3944 3084 3684 2787 
Q 3425 2491 3425 1978 
L 3425 0 
L 2847 0 
L 2847 2094 
Q 2847 2600 2669 2842 
Q 2491 3084 2119 3084 
Q 1678 3084 1418 2786 
Q 1159 2488 1159 1978 
L 1159 0 
L 581 0 
L 581 3500 
L 1159 3500 
L 1159 2956 
Q 1356 3278 1631 3431 
Q 1906 3584 2284 3584 
Q 2666 3584 2933 3390 
Q 3200 3197 3328 2828 
z
" transform="scale(0.015625)"/>
       <path id="DejaVuSans-62" d="M 3116 1747 
Q 3116 2381 2855 2742 
Q 2594 3103 2138 3103 
Q 1681 3103 1420 2742 
Q 1159 2381 1159 1747 
Q 1159 1113 1420 752 
Q 1681 391 2138 391 
Q 2594 391 2855 752 
Q 3116 1113 3116 1747 
z
M 1159 2969 
Q 1341 3281 1617 3432 
Q 1894 3584 2278 3584 
Q 2916 3584 3314 3078 
Q 3713 2572 3713 1747 
Q 3713 922 3314 415 
Q 2916 -91 2278 -91 
Q 1894 -91 1617 61 
Q 1341 213 1159 525 
L 1159 0 
L 581 0 
L 581 4863 
L 1159 4863 
L 1159 2969 
z
" transform="scale(0.015625)"/>
       <path id="DejaVuSans-65" d="M 3597 1894 
L 3597 1613 
L 953 1613 
Q 991 1019 1311 708 
Q 1631 397 2203 397 
Q 2534 397 2845 478 
Q 3156 559 3463 722 
L 3463 178 
Q 3153 47 2828 -22 
Q 2503 -91 2169 -91 
Q 1331 -91 842 396 
Q 353 884 353 1716 
Q 353 2575 817 3079 
Q 1281 3584 2069 3584 
Q 2775 3584 3186 3129 
Q 3597 2675 3597 1894 
z
M 3022 2063 
Q 3016 2534 2758 2815 
Q 2500 3097 2075 3097 
Q 1594 3097 1305 2825 
Q 1016 2553 972 2059 
L 3022 2063 
z
" transform="scale(0.015625)"/>
       <path id="DejaVuSans-72" d="M 2631 2963 
Q 2534 3019 2420 3045 
Q 2306 3072 2169 3072 
Q 1681 3072 1420 2755 
Q 1159 2438 1159 1844 
L 1159 0 
L 581 0 
L 581 3500 
L 1159 3500 
L 1159 2956 
Q 1341 3275 1631 3429 
Q 1922 3584 2338 3584 
Q 2397 3584 2469 3576 
Q 2541 3569 2628 3553 
L 2631 2963 
z
" transform="scale(0.015625)"/>
       <path id="DejaVuSans-20" transform="scale(0.015625)"/>
       <path id="DejaVuSans-6f" d="M 1959 3097 
Q 1497 3097 1228 2736 
Q 959 2375 959 1747 
Q 959 1119 1226 758 
Q 1494 397 1959 397 
Q 2419 397 2687 759 
Q 2956 1122 2956 1747 
Q 2956 2369 2687 2733 
Q 2419 3097 1959 3097 
z
M 1959 3584 
Q 2709 3584 3137 3096 
Q 3566 2609 3566 1747 
Q 3566 888 3137 398 
Q 2709 -91 1959 -91 
Q 1206 -91 779 398 
Q 353 888 353 1747 
Q 353 2609 779 3096 
Q 1206 3584 1959 3584 
z
" transform="scale(0.015625)"/>
       <path id="DejaVuSans-66" d="M 2375 4863 
L 2375 4384 
L 1825 4384 
Q 1516 4384 1395 4259 
Q 1275 4134 1275 3809 
L 1275 3500 
L 2222 3500 
L 2222 3053 
L 1275 3053 
L 1275 0 
L 697 0 
L 697 3053 
L 147 3053 
L 147 3500 
L 697 3500 
L 697 3744 
Q 697 4328 969 4595 
Q 1241 4863 1831 4863 
L 2375 4863 
z
" transform="scale(0.015625)"/>
       <path id="DejaVuSans-69" d="M 603 3500 
L 1178 3500 
L 1178 0 
L 603 0 
L 603 3500 
z
M 603 4863 
L 1178 4863 
L 1178 4134 
L 603 4134 
L 603 4863 
z
" transform="scale(0.015625)"/>
       <path id="DejaVuSans-6e" d="M 3513 2113 
L 3513 0 
L 2938 0 
L 2938 2094 
Q 2938 2591 2744 2837 
Q 2550 3084 2163 3084 
Q 1697 3084 1428 2787 
Q 1159 2491 1159 1978 
L 1159 0 
L 581 0 
L 581 3500 
L 1159 3500 
L 1159 2956 
Q 1366 3272 1645 3428 
Q 1925 3584 2291 3584 
Q 2894 3584 3203 3211 
Q 3513 2838 3513 2113 
z
" transform="scale(0.015625)"/>
       <path id="DejaVuSans-70" d="M 1159 525 
L 1159 -1331 
L 581 -1331 
L 581 3500 
L 1159 3500 
L 1159 2969 
Q 1341 3281 1617 3432 
Q 1894 3584 2278 3584 
Q 2916 3584 3314 3078 
Q 3713 2572 3713 1747 
Q 3713 922 3314 415 
Q 2916 -91 2278 -91 
Q 1894 -91 1617 61 
Q 1341 213 1159 525 
z
M 3116 1747 
Q 3116 2381 2855 2742 
Q 2594 3103 2138 3103 
Q 1681 3103 1420 2742 
Q 1159 2381 1159 1747 
Q 1159 1113 1420 752 
Q 1681 391 2138 391 
Q 2594 391 2855 752 
Q 3116 1113 3116 1747 
z
" transform="scale(0.015625)"/>
       <path id="DejaVuSans-74" d="M 1172 4494 
L 1172 3500 
L 2356 3500 
L 2356 3053 
L 1172 3053 
L 1172 1153 
Q 1172 725 1289 603 
Q 1406 481 1766 481 
L 2356 481 
L 2356 0 
L 1766 0 
Q 1100 0 847 248 
Q 594 497 594 1153 
L 594 3053 
L 172 3053 
L 172 3500 
L 594 3500 
L 594 4494 
L 1172 4494 
z
" transform="scale(0.015625)"/>
       <path id="DejaVuSans-73" d="M 2834 3397 
L 2834 2853 
Q 2591 2978 2328 3040 
Q 2066 3103 1784 3103 
Q 1356 3103 1142 2972 
Q 928 2841 928 2578 
Q 928 2378 1081 2264 
Q 1234 2150 1697 2047 
L 1894 2003 
Q 2506 1872 2764 1633 
Q 3022 1394 3022 966 
Q 3022 478 2636 193 
Q 2250 -91 1575 -91 
Q 1294 -91 989 -36 
Q 684 19 347 128 
L 347 722 
Q 666 556 975 473 
Q 1284 391 1588 391 
Q 1994 391 2212 530 
Q 2431 669 2431 922 
Q 2431 1156 2273 1281 
Q 2116 1406 1581 1522 
L 1381 1569 
Q 847 1681 609 1914 
Q 372 2147 372 2553 
Q 372 3047 722 3315 
Q 1072 3584 1716 3584 
Q 2034 3584 2315 3537 
Q 2597 3491 2834 3397 
z
" transform="scale(0.015625)"/>
       <path id="DejaVuSans-6c" d="M 603 4863 
L 1178 4863 
L 1178 0 
L 603 0 
L 603 4863 
z
" transform="scale(0.015625)"/>
       <path id="DejaVuSans-64" d="M 2906 2969 
L 2906 4863 
L 3481 4863 
L 3481 0 
L 2906 0 
L 2906 525 
Q 2725 213 2448 61 
Q 2172 -91 1784 -91 
Q 1150 -91 751 415 
Q 353 922 353 1747 
Q 353 2572 751 3078 
Q 1150 3584 1784 3584 
Q 2172 3584 2448 3432 
Q 2725 3281 2906 2969 
z
M 947 1747 
Q 947 1113 1208 752 
Q 1469 391 1925 391 
Q 2381 391 2643 752 
Q 2906 1113 2906 1747 
Q 2906 2381 2643 2742 
Q 2381 3103 1925 3103 
Q 1469 3103 1208 2742 
Q 947 2381 947 1747 
z
" transform="scale(0.015625)"/>
       <path id="DejaVuSans-79" d="M 2059 -325 
Q 1816 -950 1584 -1140 
Q 1353 -1331 966 -1331 
L 506 -1331 
L 506 -850 
L 844 -850 
Q 1081 -850 1212 -737 
Q 1344 -625 1503 -206 
L 1606 56 
L 191 3500 
L 800 3500 
L 1894 763 
L 2988 3500 
L 3597 3500 
L 2059 -325 
z
" transform="scale(0.015625)"/>
       <path id="DejaVuSans-68" d="M 3513 2113 
L 3513 0 
L 2938 0 
L 2938 2094 
Q 2938 2591 2744 2837 
Q 2550 3084 2163 3084 
Q 1697 3084 1428 2787 
Q 1159 2491 1159 1978 
L 1159 0 
L 581 0 
L 581 4863 
L 1159 4863 
L 1159 2956 
Q 1366 3272 1645 3428 
Q 1925 3584 2291 3584 
Q 2894 3584 3203 3211 
Q 3513 2838 3513 2113 
z
" transform="scale(0.015625)"/>
       <path id="DejaVuSans-5b" d="M 550 4863 
L 1875 4863 
L 1875 4416 
L 1125 4416 
L 1125 -397 
L 1875 -397 
L 1875 -844 
L 550 -844 
L 550 4863 
z
" transform="scale(0.015625)"/>
       <path id="DejaVuSans-2a" d="M 3009 3897 
L 1888 3291 
L 3009 2681 
L 2828 2375 
L 1778 3009 
L 1778 1831 
L 1422 1831 
L 1422 3009 
L 372 2375 
L 191 2681 
L 1313 3291 
L 191 3897 
L 372 4206 
L 1422 3572 
L 1422 4750 
L 1778 4750 
L 1778 3572 
L 2828 4206 
L 3009 3897 
z
" transform="scale(0.015625)"/>
       <path id="DejaVuSans-4b" d="M 628 4666 
L 1259 4666 
L 1259 2694 
L 3353 4666 
L 4166 4666 
L 1850 2491 
L 4331 0 
L 3500 0 
L 1259 2247 
L 1259 0 
L 628 0 
L 628 4666 
z
" transform="scale(0.015625)"/>
       <path id="DejaVuSans-5d" d="M 1947 4863 
L 1947 -844 
L 622 -844 
L 622 -397 
L 1369 -397 
L 1369 4416 
L 622 4416 
L 622 4863 
L 1947 4863 
z
" transform="scale(0.015625)"/>
      </defs>
      <use xlink:href="#DejaVuSans-4e"/>
      <use xlink:href="#DejaVuSans-75" x="74.804688"/>
      <use xlink:href="#DejaVuSans-6d" x="138.183594"/>
      <use xlink:href="#DejaVuSans-62" x="235.595703"/>
      <use xlink:href="#DejaVuSans-65" x="299.072266"/>
      <use xlink:href="#DejaVuSans-72" x="360.595703"/>
      <use xlink:href="#DejaVuSans-20" x="401.708984"/>
      <use xlink:href="#DejaVuSans-6f" x="433.496094"/>
      <use xlink:href="#DejaVuSans-66" x="494.677734"/>
      <use xlink:href="#DejaVuSans-20" x="529.882812"/>
      <use xlink:href="#DejaVuSans-69" x="561.669922"/>
      <use xlink:href="#DejaVuSans-6e" x="589.453125"/>
      <use xlink:href="#DejaVuSans-70" x="652.832031"/>
      <use xlink:href="#DejaVuSans-75" x="716.308594"/>
      <use xlink:href="#DejaVuSans-74" x="779.6875"/>
      <use xlink:href="#DejaVuSans-20" x="818.896484"/>
      <use xlink:href="#DejaVuSans-6e" x="850.683594"/>
      <use xlink:href="#DejaVuSans-65" x="914.0625"/>
      <use xlink:href="#DejaVuSans-75" x="975.585938"/>
      <use xlink:href="#DejaVuSans-72" x="1038.964844"/>
      <use xlink:href="#DejaVuSans-6f" x="1077.828125"/>
      <use xlink:href="#DejaVuSans-6e" x="1139.009766"/>
      <use xlink:href="#DejaVuSans-73" x="1202.388672"/>
      <use xlink:href="#DejaVuSans-20" x="1254.488281"/>
      <use xlink:href="#DejaVuSans-6d" x="1286.275391"/>
      <use xlink:href="#DejaVuSans-75" x="1383.6875"/>
      <use xlink:href="#DejaVuSans-6c" x="1447.066406"/>
      <use xlink:href="#DejaVuSans-74" x="1474.849609"/>
      <use xlink:href="#DejaVuSans-69" x="1514.058594"/>
      <use xlink:href="#DejaVuSans-70" x="1541.841797"/>
      <use xlink:href="#DejaVuSans-6c" x="1605.318359"/>
      <use xlink:href="#DejaVuSans-69" x="1633.101562"/>
      <use xlink:href="#DejaVuSans-65" x="1660.884766"/>
      <use xlink:href="#DejaVuSans-64" x="1722.408203"/>
      <use xlink:href="#DejaVuSans-20" x="1785.884766"/>
      <use xlink:href="#DejaVuSans-62" x="1817.671875"/>
      <use xlink:href="#DejaVuSans-79" x="1881.148438"/>
      <use xlink:href="#DejaVuSans-20" x="1940.328125"/>
      <use xlink:href="#DejaVuSans-6e" x="1972.115234"/>
      <use xlink:href="#DejaVuSans-75" x="2035.494141"/>
      <use xlink:href="#DejaVuSans-6d" x="2098.873047"/>
      <use xlink:href="#DejaVuSans-62" x="2196.285156"/>
      <use xlink:href="#DejaVuSans-65" x="2259.761719"/>
      <use xlink:href="#DejaVuSans-72" x="2321.285156"/>
      <use xlink:href="#DejaVuSans-20" x="2362.398438"/>
      <use xlink:href="#DejaVuSans-6f" x="2394.185547"/>
      <use xlink:href="#DejaVuSans-66" x="2455.367188"/>
      <use xlink:href="#DejaVuSans-20" x="2490.572266"/>
      <use xlink:href="#DejaVuSans-68" x="2522.359375"/>
      <use xlink:href="#DejaVuSans-69" x="2585.738281"/>
      <use xlink:href="#DejaVuSans-64" x="2613.521484"/>
      <use xlink:href="#DejaVuSans-64" x="2676.998047"/>
      <use xlink:href="#DejaVuSans-65" x="2740.474609"/>
      <use xlink:href="#DejaVuSans-6e" x="2801.998047"/>
      <use xlink:href="#DejaVuSans-20" x="2865.376953"/>
      <use xlink:href="#DejaVuSans-6e" x="2897.164062"/>
      <use xlink:href="#DejaVuSans-65" x="2960.542969"/>
      <use xlink:href="#DejaVuSans-75" x="3022.066406"/>
      <use xlink:href="#DejaVuSans-72" x="3085.445312"/>
      <use xlink:href="#DejaVuSans-6f" x="3124.308594"/>
      <use xlink:href="#DejaVuSans-6e" x="3185.490234"/>
      <use xlink:href="#DejaVuSans-73" x="3248.869141"/>
      <use xlink:href="#DejaVuSans-20" x="3300.96875"/>
      <use xlink:href="#DejaVuSans-5b" x="3332.755859"/>
      <use xlink:href="#DejaVuSans-4e" x="3371.769531"/>
      <use xlink:href="#DejaVuSans-2a" x="3446.574219"/>
      <use xlink:href="#DejaVuSans-4b" x="3496.574219"/>
      <use xlink:href="#DejaVuSans-5d" x="3562.150391"/>
     </g>
    </g>
   </g>
   <g id="matplotlib.axis_2">
    <g id="ytick_1">
     <g id="line2d_9">
      <defs>
       <path id="m454bddd0e7" d="M 0 0 
L -3.5 0 
" style="stroke: #000000; stroke-width: 0.8"/>
      </defs>
      <g>
       <use xlink:href="#m454bddd0e7" x="57.6" y="299.159865" style="stroke: #000000; stroke-width: 0.8"/>
      </g>
     </g>
     <g id="text_10">
      <!-- 0 -->
      <g transform="translate(44.2375 302.959084)scale(0.1 -0.1)">
       <use xlink:href="#DejaVuSans-30"/>
      </g>
     </g>
    </g>
    <g id="ytick_2">
     <g id="line2d_10">
      <g>
       <use xlink:href="#m454bddd0e7" x="57.6" y="268.514623" style="stroke: #000000; stroke-width: 0.8"/>
      </g>
     </g>
     <g id="text_11">
      <!-- 5 -->
      <g transform="translate(44.2375 272.313842)scale(0.1 -0.1)">
       <use xlink:href="#DejaVuSans-35"/>
      </g>
     </g>
    </g>
    <g id="ytick_3">
     <g id="line2d_11">
      <g>
       <use xlink:href="#m454bddd0e7" x="57.6" y="237.86938" style="stroke: #000000; stroke-width: 0.8"/>
      </g>
     </g>
     <g id="text_12">
      <!-- 10 -->
      <g transform="translate(37.875 241.668599)scale(0.1 -0.1)">
       <use xlink:href="#DejaVuSans-31"/>
       <use xlink:href="#DejaVuSans-30" x="63.623047"/>
      </g>
     </g>
    </g>
    <g id="ytick_4">
     <g id="line2d_12">
      <g>
       <use xlink:href="#m454bddd0e7" x="57.6" y="207.224138" style="stroke: #000000; stroke-width: 0.8"/>
      </g>
     </g>
     <g id="text_13">
      <!-- 15 -->
      <g transform="translate(37.875 211.023356)scale(0.1 -0.1)">
       <use xlink:href="#DejaVuSans-31"/>
       <use xlink:href="#DejaVuSans-35" x="63.623047"/>
      </g>
     </g>
    </g>
    <g id="ytick_5">
     <g id="line2d_13">
      <g>
       <use xlink:href="#m454bddd0e7" x="57.6" y="176.578895" style="stroke: #000000; stroke-width: 0.8"/>
      </g>
     </g>
     <g id="text_14">
      <!-- 20 -->
      <g transform="translate(37.875 180.378114)scale(0.1 -0.1)">
       <use xlink:href="#DejaVuSans-32"/>
       <use xlink:href="#DejaVuSans-30" x="63.623047"/>
      </g>
     </g>
    </g>
    <g id="ytick_6">
     <g id="line2d_14">
      <g>
       <use xlink:href="#m454bddd0e7" x="57.6" y="145.933653" style="stroke: #000000; stroke-width: 0.8"/>
      </g>
     </g>
     <g id="text_15">
      <!-- 25 -->
      <g transform="translate(37.875 149.732871)scale(0.1 -0.1)">
       <use xlink:href="#DejaVuSans-32"/>
       <use xlink:href="#DejaVuSans-35" x="63.623047"/>
      </g>
     </g>
    </g>
    <g id="ytick_7">
     <g id="line2d_15">
      <g>
       <use xlink:href="#m454bddd0e7" x="57.6" y="115.28841" style="stroke: #000000; stroke-width: 0.8"/>
      </g>
     </g>
     <g id="text_16">
      <!-- 30 -->
      <g transform="translate(37.875 119.087629)scale(0.1 -0.1)">
       <defs>
        <path id="DejaVuSans-33" d="M 2597 2516 
Q 3050 2419 3304 2112 
Q 3559 1806 3559 1356 
Q 3559 666 3084 287 
Q 2609 -91 1734 -91 
Q 1441 -91 1130 -33 
Q 819 25 488 141 
L 488 750 
Q 750 597 1062 519 
Q 1375 441 1716 441 
Q 2309 441 2620 675 
Q 2931 909 2931 1356 
Q 2931 1769 2642 2001 
Q 2353 2234 1838 2234 
L 1294 2234 
L 1294 2753 
L 1863 2753 
Q 2328 2753 2575 2939 
Q 2822 3125 2822 3475 
Q 2822 3834 2567 4026 
Q 2313 4219 1838 4219 
Q 1578 4219 1281 4162 
Q 984 4106 628 3988 
L 628 4550 
Q 988 4650 1302 4700 
Q 1616 4750 1894 4750 
Q 2613 4750 3031 4423 
Q 3450 4097 3450 3541 
Q 3450 3153 3228 2886 
Q 3006 2619 2597 2516 
z
" transform="scale(0.015625)"/>
       </defs>
       <use xlink:href="#DejaVuSans-33"/>
       <use xlink:href="#DejaVuSans-30" x="63.623047"/>
      </g>
     </g>
    </g>
    <g id="ytick_8">
     <g id="line2d_16">
      <g>
       <use xlink:href="#m454bddd0e7" x="57.6" y="84.643167" style="stroke: #000000; stroke-width: 0.8"/>
      </g>
     </g>
     <g id="text_17">
      <!-- 35 -->
      <g transform="translate(37.875 88.442386)scale(0.1 -0.1)">
       <use xlink:href="#DejaVuSans-33"/>
       <use xlink:href="#DejaVuSans-35" x="63.623047"/>
      </g>
     </g>
    </g>
    <g id="ytick_9">
     <g id="line2d_17">
      <g>
       <use xlink:href="#m454bddd0e7" x="57.6" y="53.997925" style="stroke: #000000; stroke-width: 0.8"/>
      </g>
     </g>
     <g id="text_18">
      <!-- 40 -->
      <g transform="translate(37.875 57.797144)scale(0.1 -0.1)">
       <defs>
        <path id="DejaVuSans-34" d="M 2419 4116 
L 825 1625 
L 2419 1625 
L 2419 4116 
z
M 2253 4666 
L 3047 4666 
L 3047 1625 
L 3713 1625 
L 3713 1100 
L 3047 1100 
L 3047 0 
L 2419 0 
L 2419 1100 
L 313 1100 
L 313 1709 
L 2253 4666 
z
" transform="scale(0.015625)"/>
       </defs>
       <use xlink:href="#DejaVuSans-34"/>
       <use xlink:href="#DejaVuSans-30" x="63.623047"/>
      </g>
     </g>
    </g>
    <g id="text_19">
     <!-- Mean number of required repetitions of TPM -->
     <g transform="translate(31.795312 284.968625)rotate(-90)scale(0.1 -0.1)">
      <defs>
       <path id="DejaVuSans-4d" d="M 628 4666 
L 1569 4666 
L 2759 1491 
L 3956 4666 
L 4897 4666 
L 4897 0 
L 4281 0 
L 4281 4097 
L 3078 897 
L 2444 897 
L 1241 4097 
L 1241 0 
L 628 0 
L 628 4666 
z
" transform="scale(0.015625)"/>
       <path id="DejaVuSans-61" d="M 2194 1759 
Q 1497 1759 1228 1600 
Q 959 1441 959 1056 
Q 959 750 1161 570 
Q 1363 391 1709 391 
Q 2188 391 2477 730 
Q 2766 1069 2766 1631 
L 2766 1759 
L 2194 1759 
z
M 3341 1997 
L 3341 0 
L 2766 0 
L 2766 531 
Q 2569 213 2275 61 
Q 1981 -91 1556 -91 
Q 1019 -91 701 211 
Q 384 513 384 1019 
Q 384 1609 779 1909 
Q 1175 2209 1959 2209 
L 2766 2209 
L 2766 2266 
Q 2766 2663 2505 2880 
Q 2244 3097 1772 3097 
Q 1472 3097 1187 3025 
Q 903 2953 641 2809 
L 641 3341 
Q 956 3463 1253 3523 
Q 1550 3584 1831 3584 
Q 2591 3584 2966 3190 
Q 3341 2797 3341 1997 
z
" transform="scale(0.015625)"/>
       <path id="DejaVuSans-71" d="M 947 1747 
Q 947 1113 1208 752 
Q 1469 391 1925 391 
Q 2381 391 2643 752 
Q 2906 1113 2906 1747 
Q 2906 2381 2643 2742 
Q 2381 3103 1925 3103 
Q 1469 3103 1208 2742 
Q 947 2381 947 1747 
z
M 2906 525 
Q 2725 213 2448 61 
Q 2172 -91 1784 -91 
Q 1150 -91 751 415 
Q 353 922 353 1747 
Q 353 2572 751 3078 
Q 1150 3584 1784 3584 
Q 2172 3584 2448 3432 
Q 2725 3281 2906 2969 
L 2906 3500 
L 3481 3500 
L 3481 -1331 
L 2906 -1331 
L 2906 525 
z
" transform="scale(0.015625)"/>
       <path id="DejaVuSans-54" d="M -19 4666 
L 3928 4666 
L 3928 4134 
L 2272 4134 
L 2272 0 
L 1638 0 
L 1638 4134 
L -19 4134 
L -19 4666 
z
" transform="scale(0.015625)"/>
       <path id="DejaVuSans-50" d="M 1259 4147 
L 1259 2394 
L 2053 2394 
Q 2494 2394 2734 2622 
Q 2975 2850 2975 3272 
Q 2975 3691 2734 3919 
Q 2494 4147 2053 4147 
L 1259 4147 
z
M 628 4666 
L 2053 4666 
Q 2838 4666 3239 4311 
Q 3641 3956 3641 3272 
Q 3641 2581 3239 2228 
Q 2838 1875 2053 1875 
L 1259 1875 
L 1259 0 
L 628 0 
L 628 4666 
z
" transform="scale(0.015625)"/>
      </defs>
      <use xlink:href="#DejaVuSans-4d"/>
      <use xlink:href="#DejaVuSans-65" x="86.279297"/>
      <use xlink:href="#DejaVuSans-61" x="147.802734"/>
      <use xlink:href="#DejaVuSans-6e" x="209.082031"/>
      <use xlink:href="#DejaVuSans-20" x="272.460938"/>
      <use xlink:href="#DejaVuSans-6e" x="304.248047"/>
      <use xlink:href="#DejaVuSans-75" x="367.626953"/>
      <use xlink:href="#DejaVuSans-6d" x="431.005859"/>
      <use xlink:href="#DejaVuSans-62" x="528.417969"/>
      <use xlink:href="#DejaVuSans-65" x="591.894531"/>
      <use xlink:href="#DejaVuSans-72" x="653.417969"/>
      <use xlink:href="#DejaVuSans-20" x="694.53125"/>
      <use xlink:href="#DejaVuSans-6f" x="726.318359"/>
      <use xlink:href="#DejaVuSans-66" x="787.5"/>
      <use xlink:href="#DejaVuSans-20" x="822.705078"/>
      <use xlink:href="#DejaVuSans-72" x="854.492188"/>
      <use xlink:href="#DejaVuSans-65" x="893.355469"/>
      <use xlink:href="#DejaVuSans-71" x="954.878906"/>
      <use xlink:href="#DejaVuSans-75" x="1018.355469"/>
      <use xlink:href="#DejaVuSans-69" x="1081.734375"/>
      <use xlink:href="#DejaVuSans-72" x="1109.517578"/>
      <use xlink:href="#DejaVuSans-65" x="1148.380859"/>
      <use xlink:href="#DejaVuSans-64" x="1209.904297"/>
      <use xlink:href="#DejaVuSans-20" x="1273.380859"/>
      <use xlink:href="#DejaVuSans-72" x="1305.167969"/>
      <use xlink:href="#DejaVuSans-65" x="1344.03125"/>
      <use xlink:href="#DejaVuSans-70" x="1405.554688"/>
      <use xlink:href="#DejaVuSans-65" x="1469.03125"/>
      <use xlink:href="#DejaVuSans-74" x="1530.554688"/>
      <use xlink:href="#DejaVuSans-69" x="1569.763672"/>
      <use xlink:href="#DejaVuSans-74" x="1597.546875"/>
      <use xlink:href="#DejaVuSans-69" x="1636.755859"/>
      <use xlink:href="#DejaVuSans-6f" x="1664.539062"/>
      <use xlink:href="#DejaVuSans-6e" x="1725.720703"/>
      <use xlink:href="#DejaVuSans-73" x="1789.099609"/>
      <use xlink:href="#DejaVuSans-20" x="1841.199219"/>
      <use xlink:href="#DejaVuSans-6f" x="1872.986328"/>
      <use xlink:href="#DejaVuSans-66" x="1934.167969"/>
      <use xlink:href="#DejaVuSans-20" x="1969.373047"/>
      <use xlink:href="#DejaVuSans-54" x="2001.160156"/>
      <use xlink:href="#DejaVuSans-50" x="2062.244141"/>
      <use xlink:href="#DejaVuSans-4d" x="2122.546875"/>
     </g>
    </g>
   </g>
   <g id="line2d_18">
    <path d="M 73.832727 295.227469 
L 79.604364 289.847686 
L 79.604364 289.847686 
L 85.376 284.584465 
L 85.376 284.584465 
L 89.223758 281.387937 
L 89.223758 281.387937 
L 92.590545 278.8692 
L 92.590545 278.8692 
L 96.919273 276.048888 
L 100.286061 274.182796 
L 100.286061 274.182796 
L 103.652848 272.589859 
L 103.652848 272.589859 
L 106.538667 271.425316 
L 106.538667 271.425316 
L 110.386424 270.129098 
L 110.386424 270.129098 
L 114.234182 269.083056 
L 114.234182 269.083056 
L 119.043879 268.052942 
L 119.043879 268.052942 
L 123.853576 267.244639 
L 123.853576 267.244639 
L 131.549091 266.208021 
L 146.940121 264.229545 
L 146.940121 264.229545 
L 155.597576 262.893224 
L 155.597576 262.893224 
L 167.621818 260.777535 
L 184.455758 257.812579 
L 184.455758 257.812579 
L 195.037091 256.266468 
L 195.037091 256.266468 
L 200.327758 255.624777 
L 200.327758 255.624777 
L 211.87103 254.498273 
L 211.87103 254.498273 
L 239.286303 252.117536 
L 239.286303 252.117536 
L 248.424727 250.91309 
L 248.424727 250.91309 
L 258.044121 249.258894 
L 258.044121 249.258894 
L 265.739636 247.670967 
L 285.459394 243.186353 
L 298.445576 240.832717 
L 304.217212 240.179763 
L 304.217212 240.179763 
L 306.141091 240.029383 
L 323.456 240.270442 
L 323.456 240.270442 
L 327.784727 240.717915 
L 348.466424 242.992361 
L 348.466424 242.992361 
L 350.390303 243.045962 
L 373.957818 238.125322 
L 398.487273 237.574163 
L 398.487273 237.574163 
" clip-path="url(#p61ee5e4156)" style="fill: none; stroke: #1f77b4; stroke-width: 1.5; stroke-linecap: square"/>
   </g>
   <g id="line2d_19">
    <path d="M 73.832727 295.488 
L 75.756606 290.080713 
L 75.756606 290.080713 
L 77.680485 285.313522 
L 77.680485 285.313522 
L 79.604364 281.11388 
L 79.604364 281.11388 
L 81.528242 277.415898 
L 81.528242 277.415898 
L 83.452121 274.159875 
L 83.452121 274.159875 
L 85.376 271.291834 
L 85.376 271.291834 
L 86.818909 269.365947 
L 86.818909 269.365947 
L 89.223758 266.529884 
L 89.223758 266.529884 
L 90.666667 265.025125 
L 90.666667 265.025125 
L 92.590545 263.217085 
L 92.590545 263.217085 
L 94.995394 261.231071 
L 94.995394 261.231071 
L 98.362182 258.865498 
L 98.362182 258.865498 
L 102.209939 256.610939 
L 102.209939 256.610939 
L 106.538667 254.473184 
L 106.538667 254.473184 
L 111.829333 252.218868 
L 111.829333 252.218868 
L 117.12 250.179824 
L 117.12 250.179824 
L 131.549091 244.938031 
L 152.711758 237.400504 
L 152.711758 237.400504 
L 163.293091 233.893322 
L 163.293091 233.893322 
L 169.545697 231.962259 
L 169.545697 231.962259 
L 179.646061 229.085207 
L 179.646061 229.085207 
L 188.784485 226.726991 
L 188.784485 226.726991 
L 200.327758 224.024218 
L 200.327758 224.024218 
L 212.352 221.450479 
L 229.666909 218.027345 
L 229.666909 218.027345 
L 248.424727 214.587144 
L 248.424727 214.587144 
L 265.739636 211.610844 
L 301.812364 205.480749 
L 301.812364 205.480749 
L 327.784727 200.960899 
L 349.909333 198.55796 
L 349.909333 198.55796 
L 350.390303 198.535141 
L 373.957818 198.078483 
L 398.487273 181.376008 
L 398.487273 181.376008 
" clip-path="url(#p61ee5e4156)" style="fill: none; stroke: #ff7f0e; stroke-width: 1.5; stroke-linecap: square"/>
   </g>
   <g id="line2d_20">
    <path d="M 73.832727 288.341891 
L 75.756606 281.070079 
L 75.756606 281.070079 
L 77.680485 275.019328 
L 77.680485 275.019328 
L 79.604364 270.001541 
L 79.604364 270.001541 
L 81.528242 265.850529 
L 81.528242 265.850529 
L 83.452121 262.420117 
L 83.452121 262.420117 
L 85.376 259.582379 
L 85.376 259.582379 
L 86.818909 257.775465 
L 86.818909 257.775465 
L 89.223758 255.254638 
L 89.223758 255.254638 
L 90.666667 253.978604 
L 90.666667 253.978604 
L 92.590545 252.489543 
L 92.590545 252.489543 
L 94.995394 250.884009 
L 94.995394 250.884009 
L 98.362182 248.94176 
L 98.362182 248.94176 
L 114.234182 240.419795 
L 114.234182 240.419795 
L 119.524848 237.179688 
L 119.524848 237.179688 
L 138.282667 225.352104 
L 138.282667 225.352104 
L 144.054303 222.21639 
L 144.054303 222.21639 
L 148.38303 220.147846 
L 148.38303 220.147846 
L 152.711758 218.339698 
L 152.711758 218.339698 
L 157.521455 216.631144 
L 157.521455 216.631144 
L 159.926303 215.887804 
L 159.926303 215.887804 
L 165.697939 214.36548 
L 165.697939 214.36548 
L 169.545697 213.517935 
L 169.545697 213.517935 
L 179.165091 211.736721 
L 179.165091 211.736721 
L 188.784485 210.003387 
L 188.784485 210.003387 
L 196.48 208.343664 
L 200.327758 207.369643 
L 200.327758 207.369643 
L 208.023273 205.09725 
L 208.023273 205.09725 
L 212.352 203.636713 
L 221.490424 200.224035 
L 221.490424 200.224035 
L 234.957576 194.952192 
L 234.957576 194.952192 
L 242.653091 192.224918 
L 242.653091 192.224918 
L 248.424727 190.483263 
L 248.424727 190.483263 
L 253.715394 189.180455 
L 253.715394 189.180455 
L 258.044121 188.345639 
L 258.044121 188.345639 
L 263.815758 187.562317 
L 263.815758 187.562317 
L 265.739636 187.381783 
L 273.435152 187.009095 
L 273.435152 187.009095 
L 283.535515 187.07723 
L 283.535515 187.07723 
L 285.459394 187.112795 
L 298.445576 186.905048 
L 298.445576 186.905048 
L 304.217212 186.265993 
L 304.217212 186.265993 
L 306.141091 185.94257 
L 323.456 180.115692 
L 323.456 180.115692 
L 327.784727 177.899196 
L 348.466424 166.980448 
L 348.466424 166.980448 
L 350.390303 166.309091 
L 373.476848 171.287147 
L 373.476848 171.287147 
L 373.957818 171.66659 
L 398.487273 177.023917 
L 398.487273 177.023917 
" clip-path="url(#p61ee5e4156)" style="fill: none; stroke: #2ca02c; stroke-width: 1.5; stroke-linecap: square"/>
   </g>
   <g id="line2d_21">
    <path d="M 73.832727 283.526958 
L 75.756606 276.555411 
L 75.756606 276.555411 
L 77.680485 270.504199 
L 77.680485 270.504199 
L 79.604364 265.243013 
L 79.604364 265.243013 
L 81.528242 260.656556 
L 81.528242 260.656556 
L 83.452121 256.64323 
L 83.452121 256.64323 
L 85.376 253.113911 
L 85.376 253.113911 
L 86.818909 250.737351 
L 86.818909 250.737351 
L 90.185697 245.922518 
L 90.185697 245.922518 
L 92.590545 242.977698 
L 92.590545 242.977698 
L 96.438303 238.879421 
L 96.438303 238.879421 
L 99.805091 235.728227 
L 99.805091 235.728227 
L 103.652848 232.448963 
L 103.652848 232.448963 
L 107.981576 229.019084 
L 107.981576 229.019084 
L 114.234182 224.355344 
L 114.234182 224.355344 
L 121.448727 219.279917 
L 127.220364 215.472885 
L 127.220364 215.472885 
L 131.549091 212.801039 
L 137.320727 209.528427 
L 137.320727 209.528427 
L 142.130424 207.079987 
L 142.130424 207.079987 
L 146.940121 204.893514 
L 146.940121 204.893514 
L 150.787879 203.327764 
L 150.787879 203.327764 
L 155.597576 201.581294 
L 155.597576 201.581294 
L 159.926303 200.183314 
L 159.926303 200.183314 
L 167.621818 198.000564 
L 192.151273 191.463798 
L 192.151273 191.463798 
L 198.403879 189.454333 
L 198.403879 189.454333 
L 205.618424 186.866193 
L 205.618424 186.866193 
L 212.352 184.219339 
L 234.957576 174.846766 
L 234.957576 174.846766 
L 242.653091 172.033616 
L 242.653091 172.033616 
L 248.424727 170.217066 
L 248.424727 170.217066 
L 253.715394 168.814622 
L 253.715394 168.814622 
L 258.044121 167.865879 
L 258.044121 167.865879 
L 263.815758 166.877079 
L 263.815758 166.877079 
L 265.739636 166.614103 
L 273.435152 165.850745 
L 273.435152 165.850745 
L 283.535515 165.334855 
L 283.535515 165.334855 
L 285.459394 165.265365 
L 298.445576 164.643694 
L 298.445576 164.643694 
L 306.141091 163.901626 
L 325.860848 160.361717 
L 325.860848 160.361717 
L 327.784727 159.965209 
L 348.466424 158.367561 
L 350.390303 158.694776 
L 373.957818 171.109383 
L 398.487273 144.913489 
L 398.487273 144.913489 
" clip-path="url(#p61ee5e4156)" style="fill: none; stroke: #d62728; stroke-width: 1.5; stroke-linecap: square"/>
   </g>
   <g id="line2d_22">
    <path d="M 73.832727 286.057845 
L 75.756606 277.503165 
L 75.756606 277.503165 
L 77.680485 269.99019 
L 77.680485 269.99019 
L 79.604364 263.388714 
L 79.604364 263.388714 
L 81.528242 257.581784 
L 81.528242 257.581784 
L 83.452121 252.464669 
L 83.452121 252.464669 
L 85.376 247.943894 
L 85.376 247.943894 
L 86.818909 244.894281 
L 86.818909 244.894281 
L 89.223758 240.368276 
L 89.223758 240.368276 
L 90.666667 237.94129 
L 90.666667 237.94129 
L 92.590545 234.990831 
L 92.590545 234.990831 
L 94.995394 231.69027 
L 94.995394 231.69027 
L 98.362182 227.642249 
L 98.362182 227.642249 
L 100.76703 225.065743 
L 100.76703 225.065743 
L 104.614788 221.339132 
L 104.614788 221.339132 
L 109.424485 217.149775 
L 109.424485 217.149775 
L 114.234182 213.286062 
L 114.234182 213.286062 
L 120.967758 208.210974 
L 120.967758 208.210974 
L 127.220364 203.761804 
L 127.220364 203.761804 
L 133.47297 199.576774 
L 133.47297 199.576774 
L 138.282667 196.571565 
L 138.282667 196.571565 
L 144.054303 193.253814 
L 144.054303 193.253814 
L 150.306909 190.053897 
L 150.306909 190.053897 
L 154.635636 188.089229 
L 158.002424 186.701327 
L 158.002424 186.701327 
L 163.293091 184.754828 
L 163.293091 184.754828 
L 167.621818 183.355435 
L 173.874424 181.588418 
L 173.874424 181.588418 
L 181.569939 179.706464 
L 181.569939 179.706464 
L 200.327758 175.429315 
L 200.327758 175.429315 
L 208.023273 173.431031 
L 208.023273 173.431031 
L 212.352 172.192859 
L 221.490424 169.297564 
L 221.490424 169.297564 
L 229.666909 166.432911 
L 229.666909 166.432911 
L 248.424727 159.571609 
L 248.424727 159.571609 
L 258.044121 156.389272 
L 258.044121 156.389272 
L 265.739636 154.222112 
L 273.435152 152.464884 
L 273.435152 152.464884 
L 281.130667 151.120096 
L 281.130667 151.120096 
L 285.459394 150.522223 
L 306.141091 148.307916 
L 323.456 144.978925 
L 323.456 144.978925 
L 327.784727 143.598076 
L 348.466424 133.126415 
L 348.466424 133.126415 
L 350.390303 131.861357 
L 373.957818 115.900002 
L 398.487273 109.605239 
L 398.487273 109.605239 
" clip-path="url(#p61ee5e4156)" style="fill: none; stroke: #9467bd; stroke-width: 1.5; stroke-linecap: square"/>
   </g>
   <g id="line2d_23">
    <path d="M 73.832727 287.343711 
L 75.756606 277.117347 
L 75.756606 277.117347 
L 77.680485 268.259525 
L 77.680485 268.259525 
L 79.604364 260.587318 
L 79.604364 260.587318 
L 81.528242 253.937286 
L 81.528242 253.937286 
L 83.452121 248.163908 
L 83.452121 248.163908 
L 85.376 243.138099 
L 85.376 243.138099 
L 86.818909 239.790203 
L 86.818909 239.790203 
L 89.223758 234.886762 
L 89.223758 234.886762 
L 90.666667 232.289155 
L 90.666667 232.289155 
L 92.590545 229.158895 
L 92.590545 229.158895 
L 94.995394 225.686893 
L 94.995394 225.686893 
L 98.362182 221.451738 
L 98.362182 221.451738 
L 102.209939 217.228483 
L 102.209939 217.228483 
L 106.538667 212.956261 
L 106.538667 212.956261 
L 112.310303 207.661143 
L 121.448727 199.638558 
L 129.625212 192.721548 
L 129.625212 192.721548 
L 134.915879 188.475335 
L 134.915879 188.475335 
L 140.687515 184.157464 
L 140.687515 184.157464 
L 144.054303 181.824896 
L 144.054303 181.824896 
L 148.38303 179.052865 
L 148.38303 179.052865 
L 152.711758 176.550121 
L 152.711758 176.550121 
L 157.521455 174.088144 
L 157.521455 174.088144 
L 159.926303 172.979303 
L 159.926303 172.979303 
L 165.697939 170.624744 
L 165.697939 170.624744 
L 169.545697 169.268553 
L 169.545697 169.268553 
L 173.874424 167.91011 
L 173.874424 167.91011 
L 181.569939 165.805629 
L 181.569939 165.805629 
L 200.327758 161.021684 
L 200.327758 161.021684 
L 208.023273 158.724241 
L 208.023273 158.724241 
L 212.352 157.28528 
L 221.490424 153.900411 
L 221.490424 153.900411 
L 229.666909 150.552233 
L 229.666909 150.552233 
L 248.424727 142.656607 
L 248.424727 142.656607 
L 253.715394 140.627166 
L 253.715394 140.627166 
L 261.410909 138.004388 
L 261.410909 138.004388 
L 265.739636 136.73354 
L 273.435152 134.870639 
L 273.435152 134.870639 
L 281.130667 133.504916 
L 281.130667 133.504916 
L 285.459394 132.931106 
L 301.812364 131.591831 
L 301.812364 131.591831 
L 306.141091 131.334622 
L 327.784727 129.71367 
L 349.909333 128.435999 
L 349.909333 128.435999 
L 350.390303 128.444199 
L 373.957818 130.470979 
L 398.487273 96.44722 
L 398.487273 96.44722 
" clip-path="url(#p61ee5e4156)" style="fill: none; stroke: #8c564b; stroke-width: 1.5; stroke-linecap: square"/>
   </g>
   <g id="line2d_24">
    <path d="M 73.832727 287.943268 
L 75.756606 274.948553 
L 75.756606 274.948553 
L 77.680485 263.730314 
L 77.680485 263.730314 
L 79.604364 254.068663 
L 79.604364 254.068663 
L 81.528242 245.765201 
L 81.528242 245.765201 
L 83.452121 238.641409 
L 83.452121 238.641409 
L 85.376 232.537129 
L 85.376 232.537129 
L 86.818909 228.541212 
L 86.818909 228.541212 
L 89.223758 222.829754 
L 89.223758 222.829754 
L 90.666667 219.892819 
L 90.666667 219.892819 
L 92.590545 216.458725 
L 92.590545 216.458725 
L 94.995394 212.814337 
L 94.995394 212.814337 
L 97.881212 209.192316 
L 97.881212 209.192316 
L 100.286061 206.650799 
L 100.286061 206.650799 
L 102.209939 204.853487 
L 102.209939 204.853487 
L 104.614788 202.828583 
L 104.614788 202.828583 
L 107.981576 200.282209 
L 107.981576 200.282209 
L 113.753212 196.327976 
L 113.753212 196.327976 
L 128.663273 186.330652 
L 128.663273 186.330652 
L 144.054303 175.779595 
L 144.054303 175.779595 
L 150.787879 171.532194 
L 150.787879 171.532194 
L 155.597576 168.766333 
L 155.597576 168.766333 
L 159.926303 166.502309 
L 159.926303 166.502309 
L 165.697939 163.837588 
L 165.697939 163.837588 
L 169.545697 162.286082 
L 169.545697 162.286082 
L 173.874424 160.745144 
L 173.874424 160.745144 
L 179.646061 158.993815 
L 179.646061 158.993815 
L 184.455758 157.75698 
L 184.455758 157.75698 
L 192.151273 156.082274 
L 192.151273 156.082274 
L 217.161697 151.163621 
L 217.161697 151.163621 
L 224.857212 149.286963 
L 224.857212 149.286963 
L 229.666909 147.966135 
L 229.666909 147.966135 
L 239.286303 144.981832 
L 239.286303 144.981832 
L 248.424727 141.774539 
L 248.424727 141.774539 
L 258.044121 138.110915 
L 258.044121 138.110915 
L 273.435152 131.911086 
L 273.435152 131.911086 
L 285.459394 126.939794 
L 323.456 111.07001 
L 323.456 111.07001 
L 327.784727 109.435091 
L 348.466424 104.007755 
L 348.466424 104.007755 
L 350.390303 103.781236 
L 373.957818 102.860344 
L 398.487273 59.266518 
L 398.487273 59.266518 
" clip-path="url(#p61ee5e4156)" style="fill: none; stroke: #e377c2; stroke-width: 1.5; stroke-linecap: square"/>
   </g>
   <g id="line2d_25">
    <path d="M 73.832727 271.546578 
L 75.756606 262.99119 
L 75.756606 262.99119 
L 77.680485 255.240449 
L 77.680485 255.240449 
L 79.604364 248.212241 
L 79.604364 248.212241 
L 81.528242 241.832195 
L 81.528242 241.832195 
L 83.452121 236.03305 
L 83.452121 236.03305 
L 85.376 230.754069 
L 85.376 230.754069 
L 86.818909 227.103036 
L 86.818909 227.103036 
L 90.185697 219.486267 
L 90.185697 219.486267 
L 92.590545 214.717911 
L 92.590545 214.717911 
L 94.995394 210.42623 
L 94.995394 210.42623 
L 98.362182 205.099851 
L 98.362182 205.099851 
L 100.76703 201.709674 
L 100.76703 201.709674 
L 104.133818 197.447594 
L 104.133818 197.447594 
L 106.538667 194.69754 
L 106.538667 194.69754 
L 110.386424 190.719887 
L 110.386424 190.719887 
L 114.234182 187.169801 
L 114.234182 187.169801 
L 117.12 184.735693 
L 117.12 184.735693 
L 121.448727 181.381689 
L 125.296485 178.643007 
L 125.296485 178.643007 
L 131.068121 174.86326 
L 131.068121 174.86326 
L 136.839758 171.374919 
L 136.839758 171.374919 
L 144.054303 167.289213 
L 144.054303 167.289213 
L 155.597576 161.089125 
L 155.597576 161.089125 
L 184.455758 145.730848 
L 184.455758 145.730848 
L 198.403879 138.330433 
L 198.403879 138.330433 
L 205.618424 134.704986 
L 205.618424 134.704986 
L 212.352 131.559008 
L 217.161697 129.499604 
L 217.161697 129.499604 
L 224.857212 126.60614 
L 224.857212 126.60614 
L 229.666909 125.08321 
L 229.666909 125.08321 
L 234.957576 123.682522 
L 234.957576 123.682522 
L 239.286303 122.75535 
L 239.286303 122.75535 
L 245.057939 121.819622 
L 245.057939 121.819622 
L 248.424727 121.423505 
L 248.424727 121.423505 
L 253.715394 120.999585 
L 253.715394 120.999585 
L 261.410909 120.726684 
L 261.410909 120.726684 
L 281.130667 120.491028 
L 281.130667 120.491028 
L 285.459394 120.216831 
L 298.445576 118.150039 
L 298.445576 118.150039 
L 304.217212 116.474804 
L 304.217212 116.474804 
L 306.141091 115.803312 
L 323.456 107.518164 
L 323.456 107.518164 
L 327.784727 105.03539 
L 348.466424 95.068261 
L 348.466424 95.068261 
L 350.390303 94.593499 
L 373.476848 99.384967 
L 373.476848 99.384967 
L 373.957818 99.662119 
L 398.487273 96.432467 
L 398.487273 96.432467 
" clip-path="url(#p61ee5e4156)" style="fill: none; stroke: #7f7f7f; stroke-width: 1.5; stroke-linecap: square"/>
   </g>
   <g id="line2d_26">
    <path d="M 73.832727 277.247733 
L 75.756606 264.347523 
L 75.756606 264.347523 
L 77.680485 253.30107 
L 77.680485 253.30107 
L 79.604364 243.857935 
L 79.604364 243.857935 
L 81.528242 235.794522 
L 81.528242 235.794522 
L 83.452121 228.911867 
L 83.452121 228.911867 
L 85.376 223.03357 
L 85.376 223.03357 
L 86.818909 219.189518 
L 86.818909 219.189518 
L 89.223758 213.685695 
L 89.223758 213.685695 
L 90.666667 210.841333 
L 90.666667 210.841333 
L 92.590545 207.489321 
L 92.590545 207.489321 
L 94.995394 203.877757 
L 94.995394 203.877757 
L 97.881212 200.191635 
L 97.881212 200.191635 
L 100.286061 197.51336 
L 100.286061 197.51336 
L 102.209939 195.555729 
L 102.209939 195.555729 
L 106.538667 191.537271 
L 106.538667 191.537271 
L 113.753212 185.351402 
L 113.753212 185.351402 
L 125.296485 175.458708 
L 125.296485 175.458708 
L 138.282667 164.299056 
L 138.282667 164.299056 
L 144.054303 159.64172 
L 144.054303 159.64172 
L 150.306909 154.976225 
L 150.306909 154.976225 
L 154.635636 152.015988 
L 158.002424 149.873272 
L 158.002424 149.873272 
L 163.293091 146.783248 
L 163.293091 146.783248 
L 167.621818 144.490623 
L 173.874424 141.503098 
L 173.874424 141.503098 
L 181.569939 138.23423 
L 181.569939 138.23423 
L 188.784485 135.438374 
L 188.784485 135.438374 
L 200.327758 131.224181 
L 200.327758 131.224181 
L 212.352 126.982649 
L 223.414303 123.307579 
L 223.414303 123.307579 
L 229.666909 121.434533 
L 229.666909 121.434533 
L 234.957576 120.020761 
L 234.957576 120.020761 
L 242.653091 118.307592 
L 242.653091 118.307592 
L 248.424727 117.314823 
L 248.424727 117.314823 
L 253.715394 116.620269 
L 253.715394 116.620269 
L 261.410909 115.917275 
L 261.410909 115.917275 
L 281.130667 114.470593 
L 281.130667 114.470593 
L 285.459394 113.877497 
L 298.445576 110.588953 
L 298.445576 110.588953 
L 301.812364 109.280017 
L 301.812364 109.280017 
L 306.141091 107.301211 
L 325.860848 95.23407 
L 325.860848 95.23407 
L 327.784727 93.999039 
L 348.466424 86.958691 
L 348.466424 86.958691 
L 350.390303 87.326738 
L 373.476848 109.299656 
L 373.476848 109.299656 
L 373.957818 109.943492 
L 398.487273 77.571706 
L 398.487273 77.571706 
" clip-path="url(#p61ee5e4156)" style="fill: none; stroke: #bcbd22; stroke-width: 1.5; stroke-linecap: square"/>
   </g>
   <g id="line2d_27">
    <path d="M 73.832727 278.667998 
L 75.756606 265.515449 
L 75.756606 265.515449 
L 77.680485 253.987775 
L 77.680485 253.987775 
L 79.604364 243.899407 
L 79.604364 243.899407 
L 81.528242 235.081347 
L 81.528242 235.081347 
L 83.452121 227.380058 
L 83.452121 227.380058 
L 85.376 220.656394 
L 85.376 220.656394 
L 86.818909 216.179087 
L 86.818909 216.179087 
L 89.223758 209.65135 
L 89.223758 209.65135 
L 90.666667 206.224433 
L 90.666667 206.224433 
L 92.590545 202.145123 
L 92.590545 202.145123 
L 94.995394 197.717367 
L 94.995394 197.717367 
L 97.881212 193.202479 
L 97.881212 193.202479 
L 100.286061 189.9635 
L 100.286061 189.9635 
L 102.209939 187.640928 
L 102.209939 187.640928 
L 104.614788 185.000807 
L 104.614788 185.000807 
L 107.981576 181.66775 
L 107.981576 181.66775 
L 112.310303 177.779519 
L 112.310303 177.779519 
L 119.524848 171.732395 
L 119.524848 171.732395 
L 134.915879 158.896032 
L 134.915879 158.896032 
L 144.054303 151.298255 
L 144.054303 151.298255 
L 150.787879 145.995579 
L 150.787879 145.995579 
L 155.597576 142.474721 
L 155.597576 142.474721 
L 159.926303 139.546951 
L 159.926303 139.546951 
L 165.697939 136.048003 
L 165.697939 136.048003 
L 169.545697 133.989518 
L 169.545697 133.989518 
L 173.874424 131.940597 
L 173.874424 131.940597 
L 179.646061 129.636211 
L 179.646061 129.636211 
L 184.455758 128.062113 
L 184.455758 128.062113 
L 188.784485 126.882886 
L 188.784485 126.882886 
L 195.037091 125.506502 
L 195.037091 125.506502 
L 200.327758 124.567218 
L 200.327758 124.567218 
L 224.857212 120.751269 
L 224.857212 120.751269 
L 229.666909 119.762175 
L 229.666909 119.762175 
L 234.957576 118.492875 
L 234.957576 118.492875 
L 242.653091 116.274803 
L 242.653091 116.274803 
L 248.424727 114.321434 
L 248.424727 114.321434 
L 253.715394 112.33131 
L 253.715394 112.33131 
L 261.410909 109.159553 
L 261.410909 109.159553 
L 273.435152 103.836976 
L 273.435152 103.836976 
L 284.978424 98.81066 
L 284.978424 98.81066 
L 285.459394 98.611621 
L 285.459394 98.611621 
L 298.445576 93.799274 
L 298.445576 93.799274 
L 304.217212 92.104175 
L 304.217212 92.104175 
L 306.141091 91.610967 
L 306.141091 91.610967 
L 323.456 88.919021 
L 323.456 88.919021 
L 327.784727 88.734117 
L 327.784727 88.734117 
L 349.909333 90.159647 
L 349.909333 90.159647 
L 350.390303 90.22078 
L 350.390303 90.22078 
L 373.957818 93.018553 
L 373.957818 93.018553 
L 398.487273 88.756161 
L 398.487273 88.756161 
" clip-path="url(#p61ee5e4156)" style="fill: none; stroke: #17becf; stroke-width: 1.5; stroke-linecap: square"/>
   </g>
   <g id="line2d_28">
    <path d="M 73.832727 270.201889 
L 75.756606 259.002309 
L 75.756606 259.002309 
L 77.680485 248.859664 
L 77.680485 248.859664 
L 79.604364 239.690378 
L 79.604364 239.690378 
L 81.528242 231.414955 
L 81.528242 231.414955 
L 83.452121 223.957968 
L 83.452121 223.957968 
L 85.376 217.248022 
L 85.376 217.248022 
L 86.818909 212.665109 
L 86.818909 212.665109 
L 89.223758 205.803546 
L 89.223758 205.803546 
L 90.666667 202.111265 
L 90.666667 202.111265 
L 92.590545 197.634181 
L 92.590545 197.634181 
L 94.995394 192.680563 
L 94.995394 192.680563 
L 97.881212 187.553695 
L 97.881212 187.553695 
L 100.286061 183.861188 
L 100.286061 183.861188 
L 102.209939 181.230424 
L 102.209939 181.230424 
L 104.614788 178.286863 
L 104.614788 178.286863 
L 107.981576 174.697378 
L 107.981576 174.697378 
L 110.386424 172.437844 
L 110.386424 172.437844 
L 114.234182 169.219319 
L 114.234182 169.219319 
L 117.12 167.042086 
L 117.12 167.042086 
L 121.448727 164.025159 
L 121.448727 164.025159 
L 129.625212 158.720754 
L 129.625212 158.720754 
L 146.940121 147.573139 
L 146.940121 147.573139 
L 158.002424 140.440711 
L 158.002424 140.440711 
L 165.697939 135.762725 
L 165.697939 135.762725 
L 169.545697 133.577223 
L 169.545697 133.577223 
L 173.874424 131.270846 
L 173.874424 131.270846 
L 179.646061 128.476068 
L 179.646061 128.476068 
L 184.455758 126.406157 
L 184.455758 126.406157 
L 188.784485 124.744618 
L 188.784485 124.744618 
L 195.037091 122.660872 
L 195.037091 122.660872 
L 200.327758 121.152769 
L 200.327758 121.152769 
L 208.023273 119.271825 
L 208.023273 119.271825 
L 229.666909 114.467059 
L 229.666909 114.467059 
L 234.957576 113.078459 
L 234.957576 113.078459 
L 242.653091 110.750612 
L 242.653091 110.750612 
L 248.424727 108.744772 
L 248.424727 108.744772 
L 258.044121 104.951109 
L 258.044121 104.951109 
L 265.739636 101.637902 
L 265.739636 101.637902 
L 277.763879 96.428847 
L 277.763879 96.428847 
L 285.459394 93.404622 
L 285.459394 93.404622 
L 298.445576 89.452205 
L 298.445576 89.452205 
L 304.217212 88.254823 
L 304.217212 88.254823 
L 306.141091 87.929448 
L 306.141091 87.929448 
L 327.784727 85.431263 
L 327.784727 85.431263 
L 348.466424 78.087865 
L 348.466424 78.087865 
L 350.390303 76.768749 
L 350.390303 76.768749 
L 373.957818 53.568 
L 373.957818 53.568 
L 398.487273 89.852715 
L 398.487273 89.852715 
" clip-path="url(#p61ee5e4156)" style="fill: none; stroke: #1f77b4; stroke-width: 1.5; stroke-linecap: square"/>
   </g>
   <g id="patch_3">
    <path d="M 57.6 307.584 
L 57.6 41.472 
" style="fill: none; stroke: #000000; stroke-width: 0.8; stroke-linejoin: miter; stroke-linecap: square"/>
   </g>
   <g id="patch_4">
    <path d="M 414.72 307.584 
L 414.72 41.472 
" style="fill: none; stroke: #000000; stroke-width: 0.8; stroke-linejoin: miter; stroke-linecap: square"/>
   </g>
   <g id="patch_5">
    <path d="M 57.6 307.584 
L 414.72 307.584 
" style="fill: none; stroke: #000000; stroke-width: 0.8; stroke-linejoin: miter; stroke-linecap: square"/>
   </g>
   <g id="patch_6">
    <path d="M 57.6 41.472 
L 414.72 41.472 
" style="fill: none; stroke: #000000; stroke-width: 0.8; stroke-linejoin: miter; stroke-linecap: square"/>
   </g>
   <g id="text_20">
    <!-- QBER influence on mean number of required re-runs of TPM with L=2 -->
    <g transform="translate(27.479062 35.472)scale(0.12 -0.12)">
     <defs>
      <path id="DejaVuSans-51" d="M 2522 4238 
Q 1834 4238 1429 3725 
Q 1025 3213 1025 2328 
Q 1025 1447 1429 934 
Q 1834 422 2522 422 
Q 3209 422 3611 934 
Q 4013 1447 4013 2328 
Q 4013 3213 3611 3725 
Q 3209 4238 2522 4238 
z
M 3406 84 
L 4238 -825 
L 3475 -825 
L 2784 -78 
Q 2681 -84 2626 -87 
Q 2572 -91 2522 -91 
Q 1538 -91 948 567 
Q 359 1225 359 2328 
Q 359 3434 948 4092 
Q 1538 4750 2522 4750 
Q 3503 4750 4090 4092 
Q 4678 3434 4678 2328 
Q 4678 1516 4351 937 
Q 4025 359 3406 84 
z
" transform="scale(0.015625)"/>
      <path id="DejaVuSans-42" d="M 1259 2228 
L 1259 519 
L 2272 519 
Q 2781 519 3026 730 
Q 3272 941 3272 1375 
Q 3272 1813 3026 2020 
Q 2781 2228 2272 2228 
L 1259 2228 
z
M 1259 4147 
L 1259 2741 
L 2194 2741 
Q 2656 2741 2882 2914 
Q 3109 3088 3109 3444 
Q 3109 3797 2882 3972 
Q 2656 4147 2194 4147 
L 1259 4147 
z
M 628 4666 
L 2241 4666 
Q 2963 4666 3353 4366 
Q 3744 4066 3744 3513 
Q 3744 3084 3544 2831 
Q 3344 2578 2956 2516 
Q 3422 2416 3680 2098 
Q 3938 1781 3938 1306 
Q 3938 681 3513 340 
Q 3088 0 2303 0 
L 628 0 
L 628 4666 
z
" transform="scale(0.015625)"/>
      <path id="DejaVuSans-45" d="M 628 4666 
L 3578 4666 
L 3578 4134 
L 1259 4134 
L 1259 2753 
L 3481 2753 
L 3481 2222 
L 1259 2222 
L 1259 531 
L 3634 531 
L 3634 0 
L 628 0 
L 628 4666 
z
" transform="scale(0.015625)"/>
      <path id="DejaVuSans-52" d="M 2841 2188 
Q 3044 2119 3236 1894 
Q 3428 1669 3622 1275 
L 4263 0 
L 3584 0 
L 2988 1197 
Q 2756 1666 2539 1819 
Q 2322 1972 1947 1972 
L 1259 1972 
L 1259 0 
L 628 0 
L 628 4666 
L 2053 4666 
Q 2853 4666 3247 4331 
Q 3641 3997 3641 3322 
Q 3641 2881 3436 2590 
Q 3231 2300 2841 2188 
z
M 1259 4147 
L 1259 2491 
L 2053 2491 
Q 2509 2491 2742 2702 
Q 2975 2913 2975 3322 
Q 2975 3731 2742 3939 
Q 2509 4147 2053 4147 
L 1259 4147 
z
" transform="scale(0.015625)"/>
      <path id="DejaVuSans-63" d="M 3122 3366 
L 3122 2828 
Q 2878 2963 2633 3030 
Q 2388 3097 2138 3097 
Q 1578 3097 1268 2742 
Q 959 2388 959 1747 
Q 959 1106 1268 751 
Q 1578 397 2138 397 
Q 2388 397 2633 464 
Q 2878 531 3122 666 
L 3122 134 
Q 2881 22 2623 -34 
Q 2366 -91 2075 -91 
Q 1284 -91 818 406 
Q 353 903 353 1747 
Q 353 2603 823 3093 
Q 1294 3584 2113 3584 
Q 2378 3584 2631 3529 
Q 2884 3475 3122 3366 
z
" transform="scale(0.015625)"/>
      <path id="DejaVuSans-2d" d="M 313 2009 
L 1997 2009 
L 1997 1497 
L 313 1497 
L 313 2009 
z
" transform="scale(0.015625)"/>
      <path id="DejaVuSans-77" d="M 269 3500 
L 844 3500 
L 1563 769 
L 2278 3500 
L 2956 3500 
L 3675 769 
L 4391 3500 
L 4966 3500 
L 4050 0 
L 3372 0 
L 2619 2869 
L 1863 0 
L 1184 0 
L 269 3500 
z
" transform="scale(0.015625)"/>
      <path id="DejaVuSans-4c" d="M 628 4666 
L 1259 4666 
L 1259 531 
L 3531 531 
L 3531 0 
L 628 0 
L 628 4666 
z
" transform="scale(0.015625)"/>
      <path id="DejaVuSans-3d" d="M 678 2906 
L 4684 2906 
L 4684 2381 
L 678 2381 
L 678 2906 
z
M 678 1631 
L 4684 1631 
L 4684 1100 
L 678 1100 
L 678 1631 
z
" transform="scale(0.015625)"/>
     </defs>
     <use xlink:href="#DejaVuSans-51"/>
     <use xlink:href="#DejaVuSans-42" x="78.710938"/>
     <use xlink:href="#DejaVuSans-45" x="147.314453"/>
     <use xlink:href="#DejaVuSans-52" x="210.498047"/>
     <use xlink:href="#DejaVuSans-20" x="279.980469"/>
     <use xlink:href="#DejaVuSans-69" x="311.767578"/>
     <use xlink:href="#DejaVuSans-6e" x="339.550781"/>
     <use xlink:href="#DejaVuSans-66" x="402.929688"/>
     <use xlink:href="#DejaVuSans-6c" x="438.134766"/>
     <use xlink:href="#DejaVuSans-75" x="465.917969"/>
     <use xlink:href="#DejaVuSans-65" x="529.296875"/>
     <use xlink:href="#DejaVuSans-6e" x="590.820312"/>
     <use xlink:href="#DejaVuSans-63" x="654.199219"/>
     <use xlink:href="#DejaVuSans-65" x="709.179688"/>
     <use xlink:href="#DejaVuSans-20" x="770.703125"/>
     <use xlink:href="#DejaVuSans-6f" x="802.490234"/>
     <use xlink:href="#DejaVuSans-6e" x="863.671875"/>
     <use xlink:href="#DejaVuSans-20" x="927.050781"/>
     <use xlink:href="#DejaVuSans-6d" x="958.837891"/>
     <use xlink:href="#DejaVuSans-65" x="1056.25"/>
     <use xlink:href="#DejaVuSans-61" x="1117.773438"/>
     <use xlink:href="#DejaVuSans-6e" x="1179.052734"/>
     <use xlink:href="#DejaVuSans-20" x="1242.431641"/>
     <use xlink:href="#DejaVuSans-6e" x="1274.21875"/>
     <use xlink:href="#DejaVuSans-75" x="1337.597656"/>
     <use xlink:href="#DejaVuSans-6d" x="1400.976562"/>
     <use xlink:href="#DejaVuSans-62" x="1498.388672"/>
     <use xlink:href="#DejaVuSans-65" x="1561.865234"/>
     <use xlink:href="#DejaVuSans-72" x="1623.388672"/>
     <use xlink:href="#DejaVuSans-20" x="1664.501953"/>
     <use xlink:href="#DejaVuSans-6f" x="1696.289062"/>
     <use xlink:href="#DejaVuSans-66" x="1757.470703"/>
     <use xlink:href="#DejaVuSans-20" x="1792.675781"/>
     <use xlink:href="#DejaVuSans-72" x="1824.462891"/>
     <use xlink:href="#DejaVuSans-65" x="1863.326172"/>
     <use xlink:href="#DejaVuSans-71" x="1924.849609"/>
     <use xlink:href="#DejaVuSans-75" x="1988.326172"/>
     <use xlink:href="#DejaVuSans-69" x="2051.705078"/>
     <use xlink:href="#DejaVuSans-72" x="2079.488281"/>
     <use xlink:href="#DejaVuSans-65" x="2118.351562"/>
     <use xlink:href="#DejaVuSans-64" x="2179.875"/>
     <use xlink:href="#DejaVuSans-20" x="2243.351562"/>
     <use xlink:href="#DejaVuSans-72" x="2275.138672"/>
     <use xlink:href="#DejaVuSans-65" x="2314.001953"/>
     <use xlink:href="#DejaVuSans-2d" x="2375.525391"/>
     <use xlink:href="#DejaVuSans-72" x="2411.609375"/>
     <use xlink:href="#DejaVuSans-75" x="2452.722656"/>
     <use xlink:href="#DejaVuSans-6e" x="2516.101562"/>
     <use xlink:href="#DejaVuSans-73" x="2579.480469"/>
     <use xlink:href="#DejaVuSans-20" x="2631.580078"/>
     <use xlink:href="#DejaVuSans-6f" x="2663.367188"/>
     <use xlink:href="#DejaVuSans-66" x="2724.548828"/>
     <use xlink:href="#DejaVuSans-20" x="2759.753906"/>
     <use xlink:href="#DejaVuSans-54" x="2791.541016"/>
     <use xlink:href="#DejaVuSans-50" x="2852.625"/>
     <use xlink:href="#DejaVuSans-4d" x="2912.927734"/>
     <use xlink:href="#DejaVuSans-20" x="2999.207031"/>
     <use xlink:href="#DejaVuSans-77" x="3030.994141"/>
     <use xlink:href="#DejaVuSans-69" x="3112.78125"/>
     <use xlink:href="#DejaVuSans-74" x="3140.564453"/>
     <use xlink:href="#DejaVuSans-68" x="3179.773438"/>
     <use xlink:href="#DejaVuSans-20" x="3243.152344"/>
     <use xlink:href="#DejaVuSans-4c" x="3274.939453"/>
     <use xlink:href="#DejaVuSans-3d" x="3330.652344"/>
     <use xlink:href="#DejaVuSans-32" x="3414.441406"/>
    </g>
   </g>
   <g id="legend_1">
    <g id="patch_7">
     <path d="M 328.760625 302.584 
L 407.72 302.584 
Q 409.72 302.584 409.72 300.584 
L 409.72 140.124625 
Q 409.72 138.124625 407.72 138.124625 
L 328.760625 138.124625 
Q 326.760625 138.124625 326.760625 140.124625 
L 326.760625 300.584 
Q 326.760625 302.584 328.760625 302.584 
z
" style="fill: #ffffff; opacity: 0.8; stroke: #cccccc; stroke-linejoin: miter"/>
    </g>
    <g id="line2d_29">
     <path d="M 330.760625 146.223062 
L 340.760625 146.223062 
L 350.760625 146.223062 
" style="fill: none; stroke: #1f77b4; stroke-width: 1.5; stroke-linecap: square"/>
    </g>
    <g id="text_21">
     <!-- QBER: 1 -->
     <g transform="translate(358.760625 149.723062)scale(0.1 -0.1)">
      <defs>
       <path id="DejaVuSans-3a" d="M 750 794 
L 1409 794 
L 1409 0 
L 750 0 
L 750 794 
z
M 750 3309 
L 1409 3309 
L 1409 2516 
L 750 2516 
L 750 3309 
z
" transform="scale(0.015625)"/>
      </defs>
      <use xlink:href="#DejaVuSans-51"/>
      <use xlink:href="#DejaVuSans-42" x="78.710938"/>
      <use xlink:href="#DejaVuSans-45" x="147.314453"/>
      <use xlink:href="#DejaVuSans-52" x="210.498047"/>
      <use xlink:href="#DejaVuSans-3a" x="276.855469"/>
      <use xlink:href="#DejaVuSans-20" x="310.546875"/>
      <use xlink:href="#DejaVuSans-31" x="342.333984"/>
     </g>
    </g>
    <g id="line2d_30">
     <path d="M 330.760625 160.901188 
L 340.760625 160.901188 
L 350.760625 160.901188 
" style="fill: none; stroke: #ff7f0e; stroke-width: 1.5; stroke-linecap: square"/>
    </g>
    <g id="text_22">
     <!-- QBER: 2 -->
     <g transform="translate(358.760625 164.401188)scale(0.1 -0.1)">
      <use xlink:href="#DejaVuSans-51"/>
      <use xlink:href="#DejaVuSans-42" x="78.710938"/>
      <use xlink:href="#DejaVuSans-45" x="147.314453"/>
      <use xlink:href="#DejaVuSans-52" x="210.498047"/>
      <use xlink:href="#DejaVuSans-3a" x="276.855469"/>
      <use xlink:href="#DejaVuSans-20" x="310.546875"/>
      <use xlink:href="#DejaVuSans-32" x="342.333984"/>
     </g>
    </g>
    <g id="line2d_31">
     <path d="M 330.760625 175.579313 
L 340.760625 175.579313 
L 350.760625 175.579313 
" style="fill: none; stroke: #2ca02c; stroke-width: 1.5; stroke-linecap: square"/>
    </g>
    <g id="text_23">
     <!-- QBER: 3 -->
     <g transform="translate(358.760625 179.079313)scale(0.1 -0.1)">
      <use xlink:href="#DejaVuSans-51"/>
      <use xlink:href="#DejaVuSans-42" x="78.710938"/>
      <use xlink:href="#DejaVuSans-45" x="147.314453"/>
      <use xlink:href="#DejaVuSans-52" x="210.498047"/>
      <use xlink:href="#DejaVuSans-3a" x="276.855469"/>
      <use xlink:href="#DejaVuSans-20" x="310.546875"/>
      <use xlink:href="#DejaVuSans-33" x="342.333984"/>
     </g>
    </g>
    <g id="line2d_32">
     <path d="M 330.760625 190.257438 
L 340.760625 190.257438 
L 350.760625 190.257438 
" style="fill: none; stroke: #d62728; stroke-width: 1.5; stroke-linecap: square"/>
    </g>
    <g id="text_24">
     <!-- QBER: 4 -->
     <g transform="translate(358.760625 193.757438)scale(0.1 -0.1)">
      <use xlink:href="#DejaVuSans-51"/>
      <use xlink:href="#DejaVuSans-42" x="78.710938"/>
      <use xlink:href="#DejaVuSans-45" x="147.314453"/>
      <use xlink:href="#DejaVuSans-52" x="210.498047"/>
      <use xlink:href="#DejaVuSans-3a" x="276.855469"/>
      <use xlink:href="#DejaVuSans-20" x="310.546875"/>
      <use xlink:href="#DejaVuSans-34" x="342.333984"/>
     </g>
    </g>
    <g id="line2d_33">
     <path d="M 330.760625 204.935563 
L 340.760625 204.935563 
L 350.760625 204.935563 
" style="fill: none; stroke: #9467bd; stroke-width: 1.5; stroke-linecap: square"/>
    </g>
    <g id="text_25">
     <!-- QBER: 5 -->
     <g transform="translate(358.760625 208.435563)scale(0.1 -0.1)">
      <use xlink:href="#DejaVuSans-51"/>
      <use xlink:href="#DejaVuSans-42" x="78.710938"/>
      <use xlink:href="#DejaVuSans-45" x="147.314453"/>
      <use xlink:href="#DejaVuSans-52" x="210.498047"/>
      <use xlink:href="#DejaVuSans-3a" x="276.855469"/>
      <use xlink:href="#DejaVuSans-20" x="310.546875"/>
      <use xlink:href="#DejaVuSans-35" x="342.333984"/>
     </g>
    </g>
    <g id="line2d_34">
     <path d="M 330.760625 219.613688 
L 340.760625 219.613688 
L 350.760625 219.613688 
" style="fill: none; stroke: #8c564b; stroke-width: 1.5; stroke-linecap: square"/>
    </g>
    <g id="text_26">
     <!-- QBER: 6 -->
     <g transform="translate(358.760625 223.113688)scale(0.1 -0.1)">
      <defs>
       <path id="DejaVuSans-36" d="M 2113 2584 
Q 1688 2584 1439 2293 
Q 1191 2003 1191 1497 
Q 1191 994 1439 701 
Q 1688 409 2113 409 
Q 2538 409 2786 701 
Q 3034 994 3034 1497 
Q 3034 2003 2786 2293 
Q 2538 2584 2113 2584 
z
M 3366 4563 
L 3366 3988 
Q 3128 4100 2886 4159 
Q 2644 4219 2406 4219 
Q 1781 4219 1451 3797 
Q 1122 3375 1075 2522 
Q 1259 2794 1537 2939 
Q 1816 3084 2150 3084 
Q 2853 3084 3261 2657 
Q 3669 2231 3669 1497 
Q 3669 778 3244 343 
Q 2819 -91 2113 -91 
Q 1303 -91 875 529 
Q 447 1150 447 2328 
Q 447 3434 972 4092 
Q 1497 4750 2381 4750 
Q 2619 4750 2861 4703 
Q 3103 4656 3366 4563 
z
" transform="scale(0.015625)"/>
      </defs>
      <use xlink:href="#DejaVuSans-51"/>
      <use xlink:href="#DejaVuSans-42" x="78.710938"/>
      <use xlink:href="#DejaVuSans-45" x="147.314453"/>
      <use xlink:href="#DejaVuSans-52" x="210.498047"/>
      <use xlink:href="#DejaVuSans-3a" x="276.855469"/>
      <use xlink:href="#DejaVuSans-20" x="310.546875"/>
      <use xlink:href="#DejaVuSans-36" x="342.333984"/>
     </g>
    </g>
    <g id="line2d_35">
     <path d="M 330.760625 234.291812 
L 340.760625 234.291812 
L 350.760625 234.291812 
" style="fill: none; stroke: #e377c2; stroke-width: 1.5; stroke-linecap: square"/>
    </g>
    <g id="text_27">
     <!-- QBER: 7 -->
     <g transform="translate(358.760625 237.791812)scale(0.1 -0.1)">
      <use xlink:href="#DejaVuSans-51"/>
      <use xlink:href="#DejaVuSans-42" x="78.710938"/>
      <use xlink:href="#DejaVuSans-45" x="147.314453"/>
      <use xlink:href="#DejaVuSans-52" x="210.498047"/>
      <use xlink:href="#DejaVuSans-3a" x="276.855469"/>
      <use xlink:href="#DejaVuSans-20" x="310.546875"/>
      <use xlink:href="#DejaVuSans-37" x="342.333984"/>
     </g>
    </g>
    <g id="line2d_36">
     <path d="M 330.760625 248.969938 
L 340.760625 248.969938 
L 350.760625 248.969938 
" style="fill: none; stroke: #7f7f7f; stroke-width: 1.5; stroke-linecap: square"/>
    </g>
    <g id="text_28">
     <!-- QBER: 8 -->
     <g transform="translate(358.760625 252.469938)scale(0.1 -0.1)">
      <defs>
       <path id="DejaVuSans-38" d="M 2034 2216 
Q 1584 2216 1326 1975 
Q 1069 1734 1069 1313 
Q 1069 891 1326 650 
Q 1584 409 2034 409 
Q 2484 409 2743 651 
Q 3003 894 3003 1313 
Q 3003 1734 2745 1975 
Q 2488 2216 2034 2216 
z
M 1403 2484 
Q 997 2584 770 2862 
Q 544 3141 544 3541 
Q 544 4100 942 4425 
Q 1341 4750 2034 4750 
Q 2731 4750 3128 4425 
Q 3525 4100 3525 3541 
Q 3525 3141 3298 2862 
Q 3072 2584 2669 2484 
Q 3125 2378 3379 2068 
Q 3634 1759 3634 1313 
Q 3634 634 3220 271 
Q 2806 -91 2034 -91 
Q 1263 -91 848 271 
Q 434 634 434 1313 
Q 434 1759 690 2068 
Q 947 2378 1403 2484 
z
M 1172 3481 
Q 1172 3119 1398 2916 
Q 1625 2713 2034 2713 
Q 2441 2713 2670 2916 
Q 2900 3119 2900 3481 
Q 2900 3844 2670 4047 
Q 2441 4250 2034 4250 
Q 1625 4250 1398 4047 
Q 1172 3844 1172 3481 
z
" transform="scale(0.015625)"/>
      </defs>
      <use xlink:href="#DejaVuSans-51"/>
      <use xlink:href="#DejaVuSans-42" x="78.710938"/>
      <use xlink:href="#DejaVuSans-45" x="147.314453"/>
      <use xlink:href="#DejaVuSans-52" x="210.498047"/>
      <use xlink:href="#DejaVuSans-3a" x="276.855469"/>
      <use xlink:href="#DejaVuSans-20" x="310.546875"/>
      <use xlink:href="#DejaVuSans-38" x="342.333984"/>
     </g>
    </g>
    <g id="line2d_37">
     <path d="M 330.760625 263.648062 
L 340.760625 263.648062 
L 350.760625 263.648062 
" style="fill: none; stroke: #bcbd22; stroke-width: 1.5; stroke-linecap: square"/>
    </g>
    <g id="text_29">
     <!-- QBER: 9 -->
     <g transform="translate(358.760625 267.148062)scale(0.1 -0.1)">
      <defs>
       <path id="DejaVuSans-39" d="M 703 97 
L 703 672 
Q 941 559 1184 500 
Q 1428 441 1663 441 
Q 2288 441 2617 861 
Q 2947 1281 2994 2138 
Q 2813 1869 2534 1725 
Q 2256 1581 1919 1581 
Q 1219 1581 811 2004 
Q 403 2428 403 3163 
Q 403 3881 828 4315 
Q 1253 4750 1959 4750 
Q 2769 4750 3195 4129 
Q 3622 3509 3622 2328 
Q 3622 1225 3098 567 
Q 2575 -91 1691 -91 
Q 1453 -91 1209 -44 
Q 966 3 703 97 
z
M 1959 2075 
Q 2384 2075 2632 2365 
Q 2881 2656 2881 3163 
Q 2881 3666 2632 3958 
Q 2384 4250 1959 4250 
Q 1534 4250 1286 3958 
Q 1038 3666 1038 3163 
Q 1038 2656 1286 2365 
Q 1534 2075 1959 2075 
z
" transform="scale(0.015625)"/>
      </defs>
      <use xlink:href="#DejaVuSans-51"/>
      <use xlink:href="#DejaVuSans-42" x="78.710938"/>
      <use xlink:href="#DejaVuSans-45" x="147.314453"/>
      <use xlink:href="#DejaVuSans-52" x="210.498047"/>
      <use xlink:href="#DejaVuSans-3a" x="276.855469"/>
      <use xlink:href="#DejaVuSans-20" x="310.546875"/>
      <use xlink:href="#DejaVuSans-39" x="342.333984"/>
     </g>
    </g>
    <g id="line2d_38">
     <path d="M 330.760625 278.326187 
L 340.760625 278.326187 
L 350.760625 278.326187 
" style="fill: none; stroke: #17becf; stroke-width: 1.5; stroke-linecap: square"/>
    </g>
    <g id="text_30">
     <!-- QBER: 10 -->
     <g transform="translate(358.760625 281.826187)scale(0.1 -0.1)">
      <use xlink:href="#DejaVuSans-51"/>
      <use xlink:href="#DejaVuSans-42" x="78.710938"/>
      <use xlink:href="#DejaVuSans-45" x="147.314453"/>
      <use xlink:href="#DejaVuSans-52" x="210.498047"/>
      <use xlink:href="#DejaVuSans-3a" x="276.855469"/>
      <use xlink:href="#DejaVuSans-20" x="310.546875"/>
      <use xlink:href="#DejaVuSans-31" x="342.333984"/>
      <use xlink:href="#DejaVuSans-30" x="405.957031"/>
     </g>
    </g>
    <g id="line2d_39">
     <path d="M 330.760625 293.004312 
L 340.760625 293.004312 
L 350.760625 293.004312 
" style="fill: none; stroke: #1f77b4; stroke-width: 1.5; stroke-linecap: square"/>
    </g>
    <g id="text_31">
     <!-- QBER: 11 -->
     <g transform="translate(358.760625 296.504312)scale(0.1 -0.1)">
      <use xlink:href="#DejaVuSans-51"/>
      <use xlink:href="#DejaVuSans-42" x="78.710938"/>
      <use xlink:href="#DejaVuSans-45" x="147.314453"/>
      <use xlink:href="#DejaVuSans-52" x="210.498047"/>
      <use xlink:href="#DejaVuSans-3a" x="276.855469"/>
      <use xlink:href="#DejaVuSans-20" x="310.546875"/>
      <use xlink:href="#DejaVuSans-31" x="342.333984"/>
      <use xlink:href="#DejaVuSans-31" x="405.957031"/>
     </g>
    </g>
   </g>
  </g>
 </g>
 <defs>
  <clipPath id="p61ee5e4156">
   <rect x="57.6" y="41.472" width="357.12" height="266.112"/>
  </clipPath>
 </defs>
</svg>
