<?xml version="1.0" encoding="utf-8" standalone="no"?>
<!DOCTYPE svg PUBLIC "-//W3C//DTD SVG 1.1//EN"
  "http://www.w3.org/Graphics/SVG/1.1/DTD/svg11.dtd">
<svg xmlns:xlink="http://www.w3.org/1999/xlink" width="460.8pt" height="345.6pt" viewBox="0 0 460.8 345.6" xmlns="http://www.w3.org/2000/svg" version="1.1">
 <metadata>
  <rdf:RDF xmlns:dc="http://purl.org/dc/elements/1.1/" xmlns:cc="http://creativecommons.org/ns#" xmlns:rdf="http://www.w3.org/1999/02/22-rdf-syntax-ns#">
   <cc:Work>
    <dc:type rdf:resource="http://purl.org/dc/dcmitype/StillImage"/>
    <dc:date>2023-08-12T11:06:47.514772</dc:date>
    <dc:format>image/svg+xml</dc:format>
    <dc:creator>
     <cc:Agent>
      <dc:title>Matplotlib v3.5.3, https://matplotlib.org/</dc:title>
     </cc:Agent>
    </dc:creator>
   </cc:Work>
  </rdf:RDF>
 </metadata>
 <defs>
  <style type="text/css">*{stroke-linejoin: round; stroke-linecap: butt}</style>
 </defs>
 <g id="figure_1">
  <g id="patch_1">
   <path d="M 0 345.6 
L 460.8 345.6 
L 460.8 0 
L 0 0 
z
" style="fill: #ffffff"/>
  </g>
  <g id="axes_1">
   <g id="patch_2">
    <path d="M 57.6 307.584 
L 414.72 307.584 
L 414.72 41.472 
L 57.6 41.472 
z
" style="fill: #ffffff"/>
   </g>
   <g id="matplotlib.axis_1">
    <g id="xtick_1">
     <g id="line2d_1">
      <defs>
       <path id="mcef790fac3" d="M 0 0 
L 0 3.5 
" style="stroke: #000000; stroke-width: 0.8"/>
      </defs>
      <g>
       <use xlink:href="#mcef790fac3" x="73.351758" y="307.584" style="stroke: #000000; stroke-width: 0.8"/>
      </g>
     </g>
     <g id="text_1">
      <!-- 0 -->
      <g transform="translate(70.170508 322.182437)scale(0.1 -0.1)">
       <defs>
        <path id="DejaVuSans-30" d="M 2034 4250 
Q 1547 4250 1301 3770 
Q 1056 3291 1056 2328 
Q 1056 1369 1301 889 
Q 1547 409 2034 409 
Q 2525 409 2770 889 
Q 3016 1369 3016 2328 
Q 3016 3291 2770 3770 
Q 2525 4250 2034 4250 
z
M 2034 4750 
Q 2819 4750 3233 4129 
Q 3647 3509 3647 2328 
Q 3647 1150 3233 529 
Q 2819 -91 2034 -91 
Q 1250 -91 836 529 
Q 422 1150 422 2328 
Q 422 3509 836 4129 
Q 1250 4750 2034 4750 
z
" transform="scale(0.015625)"/>
       </defs>
       <use xlink:href="#DejaVuSans-30"/>
      </g>
     </g>
    </g>
    <g id="xtick_2">
     <g id="line2d_2">
      <g>
       <use xlink:href="#mcef790fac3" x="121.448727" y="307.584" style="stroke: #000000; stroke-width: 0.8"/>
      </g>
     </g>
     <g id="text_2">
      <!-- 2500 -->
      <g transform="translate(108.723727 322.182437)scale(0.1 -0.1)">
       <defs>
        <path id="DejaVuSans-32" d="M 1228 531 
L 3431 531 
L 3431 0 
L 469 0 
L 469 531 
Q 828 903 1448 1529 
Q 2069 2156 2228 2338 
Q 2531 2678 2651 2914 
Q 2772 3150 2772 3378 
Q 2772 3750 2511 3984 
Q 2250 4219 1831 4219 
Q 1534 4219 1204 4116 
Q 875 4013 500 3803 
L 500 4441 
Q 881 4594 1212 4672 
Q 1544 4750 1819 4750 
Q 2544 4750 2975 4387 
Q 3406 4025 3406 3419 
Q 3406 3131 3298 2873 
Q 3191 2616 2906 2266 
Q 2828 2175 2409 1742 
Q 1991 1309 1228 531 
z
" transform="scale(0.015625)"/>
        <path id="DejaVuSans-35" d="M 691 4666 
L 3169 4666 
L 3169 4134 
L 1269 4134 
L 1269 2991 
Q 1406 3038 1543 3061 
Q 1681 3084 1819 3084 
Q 2600 3084 3056 2656 
Q 3513 2228 3513 1497 
Q 3513 744 3044 326 
Q 2575 -91 1722 -91 
Q 1428 -91 1123 -41 
Q 819 9 494 109 
L 494 744 
Q 775 591 1075 516 
Q 1375 441 1709 441 
Q 2250 441 2565 725 
Q 2881 1009 2881 1497 
Q 2881 1984 2565 2268 
Q 2250 2553 1709 2553 
Q 1456 2553 1204 2497 
Q 953 2441 691 2322 
L 691 4666 
z
" transform="scale(0.015625)"/>
       </defs>
       <use xlink:href="#DejaVuSans-32"/>
       <use xlink:href="#DejaVuSans-35" x="63.623047"/>
       <use xlink:href="#DejaVuSans-30" x="127.246094"/>
       <use xlink:href="#DejaVuSans-30" x="190.869141"/>
      </g>
     </g>
    </g>
    <g id="xtick_3">
     <g id="line2d_3">
      <g>
       <use xlink:href="#mcef790fac3" x="169.545697" y="307.584" style="stroke: #000000; stroke-width: 0.8"/>
      </g>
     </g>
     <g id="text_3">
      <!-- 5000 -->
      <g transform="translate(156.820697 322.182437)scale(0.1 -0.1)">
       <use xlink:href="#DejaVuSans-35"/>
       <use xlink:href="#DejaVuSans-30" x="63.623047"/>
       <use xlink:href="#DejaVuSans-30" x="127.246094"/>
       <use xlink:href="#DejaVuSans-30" x="190.869141"/>
      </g>
     </g>
    </g>
    <g id="xtick_4">
     <g id="line2d_4">
      <g>
       <use xlink:href="#mcef790fac3" x="217.642667" y="307.584" style="stroke: #000000; stroke-width: 0.8"/>
      </g>
     </g>
     <g id="text_4">
      <!-- 7500 -->
      <g transform="translate(204.917667 322.182437)scale(0.1 -0.1)">
       <defs>
        <path id="DejaVuSans-37" d="M 525 4666 
L 3525 4666 
L 3525 4397 
L 1831 0 
L 1172 0 
L 2766 4134 
L 525 4134 
L 525 4666 
z
" transform="scale(0.015625)"/>
       </defs>
       <use xlink:href="#DejaVuSans-37"/>
       <use xlink:href="#DejaVuSans-35" x="63.623047"/>
       <use xlink:href="#DejaVuSans-30" x="127.246094"/>
       <use xlink:href="#DejaVuSans-30" x="190.869141"/>
      </g>
     </g>
    </g>
    <g id="xtick_5">
     <g id="line2d_5">
      <g>
       <use xlink:href="#mcef790fac3" x="265.739636" y="307.584" style="stroke: #000000; stroke-width: 0.8"/>
      </g>
     </g>
     <g id="text_5">
      <!-- 10000 -->
      <g transform="translate(249.833386 322.182437)scale(0.1 -0.1)">
       <defs>
        <path id="DejaVuSans-31" d="M 794 531 
L 1825 531 
L 1825 4091 
L 703 3866 
L 703 4441 
L 1819 4666 
L 2450 4666 
L 2450 531 
L 3481 531 
L 3481 0 
L 794 0 
L 794 531 
z
" transform="scale(0.015625)"/>
       </defs>
       <use xlink:href="#DejaVuSans-31"/>
       <use xlink:href="#DejaVuSans-30" x="63.623047"/>
       <use xlink:href="#DejaVuSans-30" x="127.246094"/>
       <use xlink:href="#DejaVuSans-30" x="190.869141"/>
       <use xlink:href="#DejaVuSans-30" x="254.492188"/>
      </g>
     </g>
    </g>
    <g id="xtick_6">
     <g id="line2d_6">
      <g>
       <use xlink:href="#mcef790fac3" x="313.836606" y="307.584" style="stroke: #000000; stroke-width: 0.8"/>
      </g>
     </g>
     <g id="text_6">
      <!-- 12500 -->
      <g transform="translate(297.930356 322.182437)scale(0.1 -0.1)">
       <use xlink:href="#DejaVuSans-31"/>
       <use xlink:href="#DejaVuSans-32" x="63.623047"/>
       <use xlink:href="#DejaVuSans-35" x="127.246094"/>
       <use xlink:href="#DejaVuSans-30" x="190.869141"/>
       <use xlink:href="#DejaVuSans-30" x="254.492188"/>
      </g>
     </g>
    </g>
    <g id="xtick_7">
     <g id="line2d_7">
      <g>
       <use xlink:href="#mcef790fac3" x="361.933576" y="307.584" style="stroke: #000000; stroke-width: 0.8"/>
      </g>
     </g>
     <g id="text_7">
      <!-- 15000 -->
      <g transform="translate(346.027326 322.182437)scale(0.1 -0.1)">
       <use xlink:href="#DejaVuSans-31"/>
       <use xlink:href="#DejaVuSans-35" x="63.623047"/>
       <use xlink:href="#DejaVuSans-30" x="127.246094"/>
       <use xlink:href="#DejaVuSans-30" x="190.869141"/>
       <use xlink:href="#DejaVuSans-30" x="254.492188"/>
      </g>
     </g>
    </g>
    <g id="xtick_8">
     <g id="line2d_8">
      <g>
       <use xlink:href="#mcef790fac3" x="410.030545" y="307.584" style="stroke: #000000; stroke-width: 0.8"/>
      </g>
     </g>
     <g id="text_8">
      <!-- 17500 -->
      <g transform="translate(394.124295 322.182437)scale(0.1 -0.1)">
       <use xlink:href="#DejaVuSans-31"/>
       <use xlink:href="#DejaVuSans-37" x="63.623047"/>
       <use xlink:href="#DejaVuSans-35" x="127.246094"/>
       <use xlink:href="#DejaVuSans-30" x="190.869141"/>
       <use xlink:href="#DejaVuSans-30" x="254.492188"/>
      </g>
     </g>
    </g>
    <g id="text_9">
     <!-- Number of input neurons multiplied by number of hidden neurons [N*K] -->
     <g transform="translate(56.102969 335.860562)scale(0.1 -0.1)">
      <defs>
       <path id="DejaVuSans-4e" d="M 628 4666 
L 1478 4666 
L 3547 763 
L 3547 4666 
L 4159 4666 
L 4159 0 
L 3309 0 
L 1241 3903 
L 1241 0 
L 628 0 
L 628 4666 
z
" transform="scale(0.015625)"/>
       <path id="DejaVuSans-75" d="M 544 1381 
L 544 3500 
L 1119 3500 
L 1119 1403 
Q 1119 906 1312 657 
Q 1506 409 1894 409 
Q 2359 409 2629 706 
Q 2900 1003 2900 1516 
L 2900 3500 
L 3475 3500 
L 3475 0 
L 2900 0 
L 2900 538 
Q 2691 219 2414 64 
Q 2138 -91 1772 -91 
Q 1169 -91 856 284 
Q 544 659 544 1381 
z
M 1991 3584 
L 1991 3584 
z
" transform="scale(0.015625)"/>
       <path id="DejaVuSans-6d" d="M 3328 2828 
Q 3544 3216 3844 3400 
Q 4144 3584 4550 3584 
Q 5097 3584 5394 3201 
Q 5691 2819 5691 2113 
L 5691 0 
L 5113 0 
L 5113 2094 
Q 5113 2597 4934 2840 
Q 4756 3084 4391 3084 
Q 3944 3084 3684 2787 
Q 3425 2491 3425 1978 
L 3425 0 
L 2847 0 
L 2847 2094 
Q 2847 2600 2669 2842 
Q 2491 3084 2119 3084 
Q 1678 3084 1418 2786 
Q 1159 2488 1159 1978 
L 1159 0 
L 581 0 
L 581 3500 
L 1159 3500 
L 1159 2956 
Q 1356 3278 1631 3431 
Q 1906 3584 2284 3584 
Q 2666 3584 2933 3390 
Q 3200 3197 3328 2828 
z
" transform="scale(0.015625)"/>
       <path id="DejaVuSans-62" d="M 3116 1747 
Q 3116 2381 2855 2742 
Q 2594 3103 2138 3103 
Q 1681 3103 1420 2742 
Q 1159 2381 1159 1747 
Q 1159 1113 1420 752 
Q 1681 391 2138 391 
Q 2594 391 2855 752 
Q 3116 1113 3116 1747 
z
M 1159 2969 
Q 1341 3281 1617 3432 
Q 1894 3584 2278 3584 
Q 2916 3584 3314 3078 
Q 3713 2572 3713 1747 
Q 3713 922 3314 415 
Q 2916 -91 2278 -91 
Q 1894 -91 1617 61 
Q 1341 213 1159 525 
L 1159 0 
L 581 0 
L 581 4863 
L 1159 4863 
L 1159 2969 
z
" transform="scale(0.015625)"/>
       <path id="DejaVuSans-65" d="M 3597 1894 
L 3597 1613 
L 953 1613 
Q 991 1019 1311 708 
Q 1631 397 2203 397 
Q 2534 397 2845 478 
Q 3156 559 3463 722 
L 3463 178 
Q 3153 47 2828 -22 
Q 2503 -91 2169 -91 
Q 1331 -91 842 396 
Q 353 884 353 1716 
Q 353 2575 817 3079 
Q 1281 3584 2069 3584 
Q 2775 3584 3186 3129 
Q 3597 2675 3597 1894 
z
M 3022 2063 
Q 3016 2534 2758 2815 
Q 2500 3097 2075 3097 
Q 1594 3097 1305 2825 
Q 1016 2553 972 2059 
L 3022 2063 
z
" transform="scale(0.015625)"/>
       <path id="DejaVuSans-72" d="M 2631 2963 
Q 2534 3019 2420 3045 
Q 2306 3072 2169 3072 
Q 1681 3072 1420 2755 
Q 1159 2438 1159 1844 
L 1159 0 
L 581 0 
L 581 3500 
L 1159 3500 
L 1159 2956 
Q 1341 3275 1631 3429 
Q 1922 3584 2338 3584 
Q 2397 3584 2469 3576 
Q 2541 3569 2628 3553 
L 2631 2963 
z
" transform="scale(0.015625)"/>
       <path id="DejaVuSans-20" transform="scale(0.015625)"/>
       <path id="DejaVuSans-6f" d="M 1959 3097 
Q 1497 3097 1228 2736 
Q 959 2375 959 1747 
Q 959 1119 1226 758 
Q 1494 397 1959 397 
Q 2419 397 2687 759 
Q 2956 1122 2956 1747 
Q 2956 2369 2687 2733 
Q 2419 3097 1959 3097 
z
M 1959 3584 
Q 2709 3584 3137 3096 
Q 3566 2609 3566 1747 
Q 3566 888 3137 398 
Q 2709 -91 1959 -91 
Q 1206 -91 779 398 
Q 353 888 353 1747 
Q 353 2609 779 3096 
Q 1206 3584 1959 3584 
z
" transform="scale(0.015625)"/>
       <path id="DejaVuSans-66" d="M 2375 4863 
L 2375 4384 
L 1825 4384 
Q 1516 4384 1395 4259 
Q 1275 4134 1275 3809 
L 1275 3500 
L 2222 3500 
L 2222 3053 
L 1275 3053 
L 1275 0 
L 697 0 
L 697 3053 
L 147 3053 
L 147 3500 
L 697 3500 
L 697 3744 
Q 697 4328 969 4595 
Q 1241 4863 1831 4863 
L 2375 4863 
z
" transform="scale(0.015625)"/>
       <path id="DejaVuSans-69" d="M 603 3500 
L 1178 3500 
L 1178 0 
L 603 0 
L 603 3500 
z
M 603 4863 
L 1178 4863 
L 1178 4134 
L 603 4134 
L 603 4863 
z
" transform="scale(0.015625)"/>
       <path id="DejaVuSans-6e" d="M 3513 2113 
L 3513 0 
L 2938 0 
L 2938 2094 
Q 2938 2591 2744 2837 
Q 2550 3084 2163 3084 
Q 1697 3084 1428 2787 
Q 1159 2491 1159 1978 
L 1159 0 
L 581 0 
L 581 3500 
L 1159 3500 
L 1159 2956 
Q 1366 3272 1645 3428 
Q 1925 3584 2291 3584 
Q 2894 3584 3203 3211 
Q 3513 2838 3513 2113 
z
" transform="scale(0.015625)"/>
       <path id="DejaVuSans-70" d="M 1159 525 
L 1159 -1331 
L 581 -1331 
L 581 3500 
L 1159 3500 
L 1159 2969 
Q 1341 3281 1617 3432 
Q 1894 3584 2278 3584 
Q 2916 3584 3314 3078 
Q 3713 2572 3713 1747 
Q 3713 922 3314 415 
Q 2916 -91 2278 -91 
Q 1894 -91 1617 61 
Q 1341 213 1159 525 
z
M 3116 1747 
Q 3116 2381 2855 2742 
Q 2594 3103 2138 3103 
Q 1681 3103 1420 2742 
Q 1159 2381 1159 1747 
Q 1159 1113 1420 752 
Q 1681 391 2138 391 
Q 2594 391 2855 752 
Q 3116 1113 3116 1747 
z
" transform="scale(0.015625)"/>
       <path id="DejaVuSans-74" d="M 1172 4494 
L 1172 3500 
L 2356 3500 
L 2356 3053 
L 1172 3053 
L 1172 1153 
Q 1172 725 1289 603 
Q 1406 481 1766 481 
L 2356 481 
L 2356 0 
L 1766 0 
Q 1100 0 847 248 
Q 594 497 594 1153 
L 594 3053 
L 172 3053 
L 172 3500 
L 594 3500 
L 594 4494 
L 1172 4494 
z
" transform="scale(0.015625)"/>
       <path id="DejaVuSans-73" d="M 2834 3397 
L 2834 2853 
Q 2591 2978 2328 3040 
Q 2066 3103 1784 3103 
Q 1356 3103 1142 2972 
Q 928 2841 928 2578 
Q 928 2378 1081 2264 
Q 1234 2150 1697 2047 
L 1894 2003 
Q 2506 1872 2764 1633 
Q 3022 1394 3022 966 
Q 3022 478 2636 193 
Q 2250 -91 1575 -91 
Q 1294 -91 989 -36 
Q 684 19 347 128 
L 347 722 
Q 666 556 975 473 
Q 1284 391 1588 391 
Q 1994 391 2212 530 
Q 2431 669 2431 922 
Q 2431 1156 2273 1281 
Q 2116 1406 1581 1522 
L 1381 1569 
Q 847 1681 609 1914 
Q 372 2147 372 2553 
Q 372 3047 722 3315 
Q 1072 3584 1716 3584 
Q 2034 3584 2315 3537 
Q 2597 3491 2834 3397 
z
" transform="scale(0.015625)"/>
       <path id="DejaVuSans-6c" d="M 603 4863 
L 1178 4863 
L 1178 0 
L 603 0 
L 603 4863 
z
" transform="scale(0.015625)"/>
       <path id="DejaVuSans-64" d="M 2906 2969 
L 2906 4863 
L 3481 4863 
L 3481 0 
L 2906 0 
L 2906 525 
Q 2725 213 2448 61 
Q 2172 -91 1784 -91 
Q 1150 -91 751 415 
Q 353 922 353 1747 
Q 353 2572 751 3078 
Q 1150 3584 1784 3584 
Q 2172 3584 2448 3432 
Q 2725 3281 2906 2969 
z
M 947 1747 
Q 947 1113 1208 752 
Q 1469 391 1925 391 
Q 2381 391 2643 752 
Q 2906 1113 2906 1747 
Q 2906 2381 2643 2742 
Q 2381 3103 1925 3103 
Q 1469 3103 1208 2742 
Q 947 2381 947 1747 
z
" transform="scale(0.015625)"/>
       <path id="DejaVuSans-79" d="M 2059 -325 
Q 1816 -950 1584 -1140 
Q 1353 -1331 966 -1331 
L 506 -1331 
L 506 -850 
L 844 -850 
Q 1081 -850 1212 -737 
Q 1344 -625 1503 -206 
L 1606 56 
L 191 3500 
L 800 3500 
L 1894 763 
L 2988 3500 
L 3597 3500 
L 2059 -325 
z
" transform="scale(0.015625)"/>
       <path id="DejaVuSans-68" d="M 3513 2113 
L 3513 0 
L 2938 0 
L 2938 2094 
Q 2938 2591 2744 2837 
Q 2550 3084 2163 3084 
Q 1697 3084 1428 2787 
Q 1159 2491 1159 1978 
L 1159 0 
L 581 0 
L 581 4863 
L 1159 4863 
L 1159 2956 
Q 1366 3272 1645 3428 
Q 1925 3584 2291 3584 
Q 2894 3584 3203 3211 
Q 3513 2838 3513 2113 
z
" transform="scale(0.015625)"/>
       <path id="DejaVuSans-5b" d="M 550 4863 
L 1875 4863 
L 1875 4416 
L 1125 4416 
L 1125 -397 
L 1875 -397 
L 1875 -844 
L 550 -844 
L 550 4863 
z
" transform="scale(0.015625)"/>
       <path id="DejaVuSans-2a" d="M 3009 3897 
L 1888 3291 
L 3009 2681 
L 2828 2375 
L 1778 3009 
L 1778 1831 
L 1422 1831 
L 1422 3009 
L 372 2375 
L 191 2681 
L 1313 3291 
L 191 3897 
L 372 4206 
L 1422 3572 
L 1422 4750 
L 1778 4750 
L 1778 3572 
L 2828 4206 
L 3009 3897 
z
" transform="scale(0.015625)"/>
       <path id="DejaVuSans-4b" d="M 628 4666 
L 1259 4666 
L 1259 2694 
L 3353 4666 
L 4166 4666 
L 1850 2491 
L 4331 0 
L 3500 0 
L 1259 2247 
L 1259 0 
L 628 0 
L 628 4666 
z
" transform="scale(0.015625)"/>
       <path id="DejaVuSans-5d" d="M 1947 4863 
L 1947 -844 
L 622 -844 
L 622 -397 
L 1369 -397 
L 1369 4416 
L 622 4416 
L 622 4863 
L 1947 4863 
z
" transform="scale(0.015625)"/>
      </defs>
      <use xlink:href="#DejaVuSans-4e"/>
      <use xlink:href="#DejaVuSans-75" x="74.804688"/>
      <use xlink:href="#DejaVuSans-6d" x="138.183594"/>
      <use xlink:href="#DejaVuSans-62" x="235.595703"/>
      <use xlink:href="#DejaVuSans-65" x="299.072266"/>
      <use xlink:href="#DejaVuSans-72" x="360.595703"/>
      <use xlink:href="#DejaVuSans-20" x="401.708984"/>
      <use xlink:href="#DejaVuSans-6f" x="433.496094"/>
      <use xlink:href="#DejaVuSans-66" x="494.677734"/>
      <use xlink:href="#DejaVuSans-20" x="529.882812"/>
      <use xlink:href="#DejaVuSans-69" x="561.669922"/>
      <use xlink:href="#DejaVuSans-6e" x="589.453125"/>
      <use xlink:href="#DejaVuSans-70" x="652.832031"/>
      <use xlink:href="#DejaVuSans-75" x="716.308594"/>
      <use xlink:href="#DejaVuSans-74" x="779.6875"/>
      <use xlink:href="#DejaVuSans-20" x="818.896484"/>
      <use xlink:href="#DejaVuSans-6e" x="850.683594"/>
      <use xlink:href="#DejaVuSans-65" x="914.0625"/>
      <use xlink:href="#DejaVuSans-75" x="975.585938"/>
      <use xlink:href="#DejaVuSans-72" x="1038.964844"/>
      <use xlink:href="#DejaVuSans-6f" x="1077.828125"/>
      <use xlink:href="#DejaVuSans-6e" x="1139.009766"/>
      <use xlink:href="#DejaVuSans-73" x="1202.388672"/>
      <use xlink:href="#DejaVuSans-20" x="1254.488281"/>
      <use xlink:href="#DejaVuSans-6d" x="1286.275391"/>
      <use xlink:href="#DejaVuSans-75" x="1383.6875"/>
      <use xlink:href="#DejaVuSans-6c" x="1447.066406"/>
      <use xlink:href="#DejaVuSans-74" x="1474.849609"/>
      <use xlink:href="#DejaVuSans-69" x="1514.058594"/>
      <use xlink:href="#DejaVuSans-70" x="1541.841797"/>
      <use xlink:href="#DejaVuSans-6c" x="1605.318359"/>
      <use xlink:href="#DejaVuSans-69" x="1633.101562"/>
      <use xlink:href="#DejaVuSans-65" x="1660.884766"/>
      <use xlink:href="#DejaVuSans-64" x="1722.408203"/>
      <use xlink:href="#DejaVuSans-20" x="1785.884766"/>
      <use xlink:href="#DejaVuSans-62" x="1817.671875"/>
      <use xlink:href="#DejaVuSans-79" x="1881.148438"/>
      <use xlink:href="#DejaVuSans-20" x="1940.328125"/>
      <use xlink:href="#DejaVuSans-6e" x="1972.115234"/>
      <use xlink:href="#DejaVuSans-75" x="2035.494141"/>
      <use xlink:href="#DejaVuSans-6d" x="2098.873047"/>
      <use xlink:href="#DejaVuSans-62" x="2196.285156"/>
      <use xlink:href="#DejaVuSans-65" x="2259.761719"/>
      <use xlink:href="#DejaVuSans-72" x="2321.285156"/>
      <use xlink:href="#DejaVuSans-20" x="2362.398438"/>
      <use xlink:href="#DejaVuSans-6f" x="2394.185547"/>
      <use xlink:href="#DejaVuSans-66" x="2455.367188"/>
      <use xlink:href="#DejaVuSans-20" x="2490.572266"/>
      <use xlink:href="#DejaVuSans-68" x="2522.359375"/>
      <use xlink:href="#DejaVuSans-69" x="2585.738281"/>
      <use xlink:href="#DejaVuSans-64" x="2613.521484"/>
      <use xlink:href="#DejaVuSans-64" x="2676.998047"/>
      <use xlink:href="#DejaVuSans-65" x="2740.474609"/>
      <use xlink:href="#DejaVuSans-6e" x="2801.998047"/>
      <use xlink:href="#DejaVuSans-20" x="2865.376953"/>
      <use xlink:href="#DejaVuSans-6e" x="2897.164062"/>
      <use xlink:href="#DejaVuSans-65" x="2960.542969"/>
      <use xlink:href="#DejaVuSans-75" x="3022.066406"/>
      <use xlink:href="#DejaVuSans-72" x="3085.445312"/>
      <use xlink:href="#DejaVuSans-6f" x="3124.308594"/>
      <use xlink:href="#DejaVuSans-6e" x="3185.490234"/>
      <use xlink:href="#DejaVuSans-73" x="3248.869141"/>
      <use xlink:href="#DejaVuSans-20" x="3300.96875"/>
      <use xlink:href="#DejaVuSans-5b" x="3332.755859"/>
      <use xlink:href="#DejaVuSans-4e" x="3371.769531"/>
      <use xlink:href="#DejaVuSans-2a" x="3446.574219"/>
      <use xlink:href="#DejaVuSans-4b" x="3496.574219"/>
      <use xlink:href="#DejaVuSans-5d" x="3562.150391"/>
     </g>
    </g>
   </g>
   <g id="matplotlib.axis_2">
    <g id="ytick_1">
     <g id="line2d_9">
      <defs>
       <path id="m334e700b25" d="M 0 0 
L -3.5 0 
" style="stroke: #000000; stroke-width: 0.8"/>
      </defs>
      <g>
       <use xlink:href="#m334e700b25" x="57.6" y="293.77769" style="stroke: #000000; stroke-width: 0.8"/>
      </g>
     </g>
     <g id="text_10">
      <!-- 0.0 -->
      <g transform="translate(34.696875 297.576909)scale(0.1 -0.1)">
       <defs>
        <path id="DejaVuSans-2e" d="M 684 794 
L 1344 794 
L 1344 0 
L 684 0 
L 684 794 
z
" transform="scale(0.015625)"/>
       </defs>
       <use xlink:href="#DejaVuSans-30"/>
       <use xlink:href="#DejaVuSans-2e" x="63.623047"/>
       <use xlink:href="#DejaVuSans-30" x="95.410156"/>
      </g>
     </g>
    </g>
    <g id="ytick_2">
     <g id="line2d_10">
      <g>
       <use xlink:href="#m334e700b25" x="57.6" y="258.714641" style="stroke: #000000; stroke-width: 0.8"/>
      </g>
     </g>
     <g id="text_11">
      <!-- 2.5 -->
      <g transform="translate(34.696875 262.513859)scale(0.1 -0.1)">
       <use xlink:href="#DejaVuSans-32"/>
       <use xlink:href="#DejaVuSans-2e" x="63.623047"/>
       <use xlink:href="#DejaVuSans-35" x="95.410156"/>
      </g>
     </g>
    </g>
    <g id="ytick_3">
     <g id="line2d_11">
      <g>
       <use xlink:href="#m334e700b25" x="57.6" y="223.651591" style="stroke: #000000; stroke-width: 0.8"/>
      </g>
     </g>
     <g id="text_12">
      <!-- 5.0 -->
      <g transform="translate(34.696875 227.450809)scale(0.1 -0.1)">
       <use xlink:href="#DejaVuSans-35"/>
       <use xlink:href="#DejaVuSans-2e" x="63.623047"/>
       <use xlink:href="#DejaVuSans-30" x="95.410156"/>
      </g>
     </g>
    </g>
    <g id="ytick_4">
     <g id="line2d_12">
      <g>
       <use xlink:href="#m334e700b25" x="57.6" y="188.588541" style="stroke: #000000; stroke-width: 0.8"/>
      </g>
     </g>
     <g id="text_13">
      <!-- 7.5 -->
      <g transform="translate(34.696875 192.38776)scale(0.1 -0.1)">
       <use xlink:href="#DejaVuSans-37"/>
       <use xlink:href="#DejaVuSans-2e" x="63.623047"/>
       <use xlink:href="#DejaVuSans-35" x="95.410156"/>
      </g>
     </g>
    </g>
    <g id="ytick_5">
     <g id="line2d_13">
      <g>
       <use xlink:href="#m334e700b25" x="57.6" y="153.525491" style="stroke: #000000; stroke-width: 0.8"/>
      </g>
     </g>
     <g id="text_14">
      <!-- 10.0 -->
      <g transform="translate(28.334375 157.32471)scale(0.1 -0.1)">
       <use xlink:href="#DejaVuSans-31"/>
       <use xlink:href="#DejaVuSans-30" x="63.623047"/>
       <use xlink:href="#DejaVuSans-2e" x="127.246094"/>
       <use xlink:href="#DejaVuSans-30" x="159.033203"/>
      </g>
     </g>
    </g>
    <g id="ytick_6">
     <g id="line2d_14">
      <g>
       <use xlink:href="#m334e700b25" x="57.6" y="118.462441" style="stroke: #000000; stroke-width: 0.8"/>
      </g>
     </g>
     <g id="text_15">
      <!-- 12.5 -->
      <g transform="translate(28.334375 122.26166)scale(0.1 -0.1)">
       <use xlink:href="#DejaVuSans-31"/>
       <use xlink:href="#DejaVuSans-32" x="63.623047"/>
       <use xlink:href="#DejaVuSans-2e" x="127.246094"/>
       <use xlink:href="#DejaVuSans-35" x="159.033203"/>
      </g>
     </g>
    </g>
    <g id="ytick_7">
     <g id="line2d_15">
      <g>
       <use xlink:href="#m334e700b25" x="57.6" y="83.399391" style="stroke: #000000; stroke-width: 0.8"/>
      </g>
     </g>
     <g id="text_16">
      <!-- 15.0 -->
      <g transform="translate(28.334375 87.19861)scale(0.1 -0.1)">
       <use xlink:href="#DejaVuSans-31"/>
       <use xlink:href="#DejaVuSans-35" x="63.623047"/>
       <use xlink:href="#DejaVuSans-2e" x="127.246094"/>
       <use xlink:href="#DejaVuSans-30" x="159.033203"/>
      </g>
     </g>
    </g>
    <g id="ytick_8">
     <g id="line2d_16">
      <g>
       <use xlink:href="#m334e700b25" x="57.6" y="48.336342" style="stroke: #000000; stroke-width: 0.8"/>
      </g>
     </g>
     <g id="text_17">
      <!-- 17.5 -->
      <g transform="translate(28.334375 52.13556)scale(0.1 -0.1)">
       <use xlink:href="#DejaVuSans-31"/>
       <use xlink:href="#DejaVuSans-37" x="63.623047"/>
       <use xlink:href="#DejaVuSans-2e" x="127.246094"/>
       <use xlink:href="#DejaVuSans-35" x="159.033203"/>
      </g>
     </g>
    </g>
    <g id="text_18">
     <!-- Mean number of required repetitions of TPM -->
     <g transform="translate(22.254687 284.968625)rotate(-90)scale(0.1 -0.1)">
      <defs>
       <path id="DejaVuSans-4d" d="M 628 4666 
L 1569 4666 
L 2759 1491 
L 3956 4666 
L 4897 4666 
L 4897 0 
L 4281 0 
L 4281 4097 
L 3078 897 
L 2444 897 
L 1241 4097 
L 1241 0 
L 628 0 
L 628 4666 
z
" transform="scale(0.015625)"/>
       <path id="DejaVuSans-61" d="M 2194 1759 
Q 1497 1759 1228 1600 
Q 959 1441 959 1056 
Q 959 750 1161 570 
Q 1363 391 1709 391 
Q 2188 391 2477 730 
Q 2766 1069 2766 1631 
L 2766 1759 
L 2194 1759 
z
M 3341 1997 
L 3341 0 
L 2766 0 
L 2766 531 
Q 2569 213 2275 61 
Q 1981 -91 1556 -91 
Q 1019 -91 701 211 
Q 384 513 384 1019 
Q 384 1609 779 1909 
Q 1175 2209 1959 2209 
L 2766 2209 
L 2766 2266 
Q 2766 2663 2505 2880 
Q 2244 3097 1772 3097 
Q 1472 3097 1187 3025 
Q 903 2953 641 2809 
L 641 3341 
Q 956 3463 1253 3523 
Q 1550 3584 1831 3584 
Q 2591 3584 2966 3190 
Q 3341 2797 3341 1997 
z
" transform="scale(0.015625)"/>
       <path id="DejaVuSans-71" d="M 947 1747 
Q 947 1113 1208 752 
Q 1469 391 1925 391 
Q 2381 391 2643 752 
Q 2906 1113 2906 1747 
Q 2906 2381 2643 2742 
Q 2381 3103 1925 3103 
Q 1469 3103 1208 2742 
Q 947 2381 947 1747 
z
M 2906 525 
Q 2725 213 2448 61 
Q 2172 -91 1784 -91 
Q 1150 -91 751 415 
Q 353 922 353 1747 
Q 353 2572 751 3078 
Q 1150 3584 1784 3584 
Q 2172 3584 2448 3432 
Q 2725 3281 2906 2969 
L 2906 3500 
L 3481 3500 
L 3481 -1331 
L 2906 -1331 
L 2906 525 
z
" transform="scale(0.015625)"/>
       <path id="DejaVuSans-54" d="M -19 4666 
L 3928 4666 
L 3928 4134 
L 2272 4134 
L 2272 0 
L 1638 0 
L 1638 4134 
L -19 4134 
L -19 4666 
z
" transform="scale(0.015625)"/>
       <path id="DejaVuSans-50" d="M 1259 4147 
L 1259 2394 
L 2053 2394 
Q 2494 2394 2734 2622 
Q 2975 2850 2975 3272 
Q 2975 3691 2734 3919 
Q 2494 4147 2053 4147 
L 1259 4147 
z
M 628 4666 
L 2053 4666 
Q 2838 4666 3239 4311 
Q 3641 3956 3641 3272 
Q 3641 2581 3239 2228 
Q 2838 1875 2053 1875 
L 1259 1875 
L 1259 0 
L 628 0 
L 628 4666 
z
" transform="scale(0.015625)"/>
      </defs>
      <use xlink:href="#DejaVuSans-4d"/>
      <use xlink:href="#DejaVuSans-65" x="86.279297"/>
      <use xlink:href="#DejaVuSans-61" x="147.802734"/>
      <use xlink:href="#DejaVuSans-6e" x="209.082031"/>
      <use xlink:href="#DejaVuSans-20" x="272.460938"/>
      <use xlink:href="#DejaVuSans-6e" x="304.248047"/>
      <use xlink:href="#DejaVuSans-75" x="367.626953"/>
      <use xlink:href="#DejaVuSans-6d" x="431.005859"/>
      <use xlink:href="#DejaVuSans-62" x="528.417969"/>
      <use xlink:href="#DejaVuSans-65" x="591.894531"/>
      <use xlink:href="#DejaVuSans-72" x="653.417969"/>
      <use xlink:href="#DejaVuSans-20" x="694.53125"/>
      <use xlink:href="#DejaVuSans-6f" x="726.318359"/>
      <use xlink:href="#DejaVuSans-66" x="787.5"/>
      <use xlink:href="#DejaVuSans-20" x="822.705078"/>
      <use xlink:href="#DejaVuSans-72" x="854.492188"/>
      <use xlink:href="#DejaVuSans-65" x="893.355469"/>
      <use xlink:href="#DejaVuSans-71" x="954.878906"/>
      <use xlink:href="#DejaVuSans-75" x="1018.355469"/>
      <use xlink:href="#DejaVuSans-69" x="1081.734375"/>
      <use xlink:href="#DejaVuSans-72" x="1109.517578"/>
      <use xlink:href="#DejaVuSans-65" x="1148.380859"/>
      <use xlink:href="#DejaVuSans-64" x="1209.904297"/>
      <use xlink:href="#DejaVuSans-20" x="1273.380859"/>
      <use xlink:href="#DejaVuSans-72" x="1305.167969"/>
      <use xlink:href="#DejaVuSans-65" x="1344.03125"/>
      <use xlink:href="#DejaVuSans-70" x="1405.554688"/>
      <use xlink:href="#DejaVuSans-65" x="1469.03125"/>
      <use xlink:href="#DejaVuSans-74" x="1530.554688"/>
      <use xlink:href="#DejaVuSans-69" x="1569.763672"/>
      <use xlink:href="#DejaVuSans-74" x="1597.546875"/>
      <use xlink:href="#DejaVuSans-69" x="1636.755859"/>
      <use xlink:href="#DejaVuSans-6f" x="1664.539062"/>
      <use xlink:href="#DejaVuSans-6e" x="1725.720703"/>
      <use xlink:href="#DejaVuSans-73" x="1789.099609"/>
      <use xlink:href="#DejaVuSans-20" x="1841.199219"/>
      <use xlink:href="#DejaVuSans-6f" x="1872.986328"/>
      <use xlink:href="#DejaVuSans-66" x="1934.167969"/>
      <use xlink:href="#DejaVuSans-20" x="1969.373047"/>
      <use xlink:href="#DejaVuSans-54" x="2001.160156"/>
      <use xlink:href="#DejaVuSans-50" x="2062.244141"/>
      <use xlink:href="#DejaVuSans-4d" x="2122.546875"/>
     </g>
    </g>
   </g>
   <g id="line2d_17">
    <path d="M 73.832727 295.488 
L 75.756606 292.471649 
L 75.756606 292.471649 
L 77.680485 289.757625 
L 77.680485 289.757625 
L 79.604364 287.322527 
L 79.604364 287.322527 
L 81.528242 285.143831 
L 81.528242 285.143831 
L 83.452121 283.199929 
L 83.452121 283.199929 
L 86.337939 280.679382 
L 86.337939 280.679382 
L 88.742788 278.899642 
L 88.742788 278.899642 
L 90.666667 277.660163 
L 90.666667 277.660163 
L 92.590545 276.566071 
L 92.590545 276.566071 
L 96.438303 274.751182 
L 96.438303 274.751182 
L 98.362182 274.001421 
L 98.362182 274.001421 
L 102.209939 272.752155 
L 102.209939 272.752155 
L 106.538667 271.65091 
L 106.538667 271.65091 
L 112.310303 270.50334 
L 121.448727 269.005219 
L 131.549091 267.30785 
L 140.687515 265.50974 
L 140.687515 265.50974 
L 150.306909 263.342972 
L 150.306909 263.342972 
L 179.165091 256.624127 
L 179.165091 256.624127 
L 184.455758 255.590357 
L 184.455758 255.590357 
L 194.556121 253.901688 
L 194.556121 253.901688 
L 200.327758 253.104401 
L 200.327758 253.104401 
L 210.428121 251.963878 
L 210.428121 251.963878 
L 221.490424 250.981939 
L 221.490424 250.981939 
L 265.739636 247.343967 
L 285.459394 245.573929 
L 306.141091 243.721665 
L 323.456 241.033165 
L 323.456 241.033165 
L 327.784727 239.933978 
L 348.466424 230.579469 
L 348.466424 230.579469 
L 350.390303 229.31628 
L 373.957818 212.146584 
L 398.487273 236.804787 
L 398.487273 236.804787 
" clip-path="url(#pf1948e9ae8)" style="fill: none; stroke: #1f77b4; stroke-width: 1.5; stroke-linecap: square"/>
   </g>
   <g id="line2d_18">
    <path d="M 73.832727 285.763975 
L 76.718545 281.58718 
L 76.718545 281.58718 
L 79.604364 277.79816 
L 79.604364 277.79816 
L 82.971152 273.808506 
L 82.971152 273.808506 
L 86.337939 270.221708 
L 86.337939 270.221708 
L 89.223758 267.42397 
L 89.223758 267.42397 
L 92.590545 264.436946 
L 92.590545 264.436946 
L 96.919273 260.965122 
L 100.76703 258.16547 
L 100.76703 258.16547 
L 104.614788 255.584722 
L 104.614788 255.584722 
L 110.386424 252.039534 
L 110.386424 252.039534 
L 115.677091 249.058644 
L 115.677091 249.058644 
L 121.448727 246.03602 
L 128.663273 242.534405 
L 128.663273 242.534405 
L 134.915879 239.722922 
L 134.915879 239.722922 
L 142.611394 236.544652 
L 142.611394 236.544652 
L 148.38303 234.376607 
L 148.38303 234.376607 
L 155.597576 231.947302 
L 155.597576 231.947302 
L 159.926303 230.648173 
L 159.926303 230.648173 
L 167.621818 228.643567 
L 173.874424 227.303561 
L 173.874424 227.303561 
L 181.569939 225.99545 
L 181.569939 225.99545 
L 188.784485 225.078642 
L 188.784485 225.078642 
L 196.48 224.374711 
L 205.618424 223.801914 
L 205.618424 223.801914 
L 229.666909 222.605646 
L 229.666909 222.605646 
L 239.286303 221.843597 
L 239.286303 221.843597 
L 248.424727 220.823795 
L 248.424727 220.823795 
L 258.044121 219.412255 
L 258.044121 219.412255 
L 265.739636 218.053824 
L 281.130667 214.915621 
L 281.130667 214.915621 
L 304.217212 210.043944 
L 304.217212 210.043944 
L 306.141091 209.662462 
L 327.784727 205.559832 
L 349.909333 200.316468 
L 349.909333 200.316468 
L 350.390303 200.171534 
L 373.957818 191.774429 
L 398.487273 195.640149 
L 398.487273 195.640149 
" clip-path="url(#pf1948e9ae8)" style="fill: none; stroke: #ff7f0e; stroke-width: 1.5; stroke-linecap: square"/>
   </g>
   <g id="line2d_19">
    <path d="M 73.832727 282.68133 
L 77.199515 276.022163 
L 77.199515 276.022163 
L 79.604364 271.650196 
L 79.604364 271.650196 
L 82.971152 266.030901 
L 82.971152 266.030901 
L 85.376 262.353049 
L 85.376 262.353049 
L 88.742788 257.641391 
L 88.742788 257.641391 
L 90.666667 255.164247 
L 90.666667 255.164247 
L 92.590545 252.834563 
L 92.590545 252.834563 
L 96.438303 248.589746 
L 96.438303 248.589746 
L 98.362182 246.66118 
L 98.362182 246.66118 
L 102.209939 243.159447 
L 102.209939 243.159447 
L 104.614788 241.193639 
L 104.614788 241.193639 
L 107.981576 238.70322 
L 107.981576 238.70322 
L 111.829333 236.195028 
L 111.829333 236.195028 
L 114.234182 234.791769 
L 114.234182 234.791769 
L 117.12 233.257386 
L 117.12 233.257386 
L 121.448727 231.225887 
L 125.296485 229.652614 
L 125.296485 229.652614 
L 131.068121 227.620321 
L 131.068121 227.620321 
L 136.839758 225.880341 
L 136.839758 225.880341 
L 144.054303 223.961622 
L 144.054303 223.961622 
L 165.697939 218.437853 
L 165.697939 218.437853 
L 173.874424 216.026587 
L 173.874424 216.026587 
L 181.569939 213.491436 
L 181.569939 213.491436 
L 188.784485 210.880064 
L 188.784485 210.880064 
L 198.403879 207.09994 
L 198.403879 207.09994 
L 212.352 201.286163 
L 224.857212 196.174655 
L 224.857212 196.174655 
L 229.666909 194.338968 
L 229.666909 194.338968 
L 234.957576 192.450489 
L 234.957576 192.450489 
L 242.653091 190.009554 
L 242.653091 190.009554 
L 248.424727 188.459028 
L 248.424727 188.459028 
L 253.715394 187.272707 
L 253.715394 187.272707 
L 261.410909 185.97231 
L 261.410909 185.97231 
L 265.739636 185.465838 
L 273.435152 184.954431 
L 273.435152 184.954431 
L 281.130667 184.901282 
L 281.130667 184.901282 
L 285.459394 185.045993 
L 301.812364 186.366057 
L 301.812364 186.366057 
L 306.141091 186.818975 
L 325.860848 188.502353 
L 325.860848 188.502353 
L 327.784727 188.58524 
L 349.909333 187.849571 
L 349.909333 187.849571 
L 350.390303 187.797644 
L 373.957818 184.039786 
L 398.487273 180.912378 
L 398.487273 180.912378 
" clip-path="url(#pf1948e9ae8)" style="fill: none; stroke: #2ca02c; stroke-width: 1.5; stroke-linecap: square"/>
   </g>
   <g id="line2d_20">
    <path d="M 73.832727 285.285328 
L 75.756606 276.565934 
L 75.756606 276.565934 
L 77.680485 269.055889 
L 77.680485 269.055889 
L 79.604364 262.607704 
L 79.604364 262.607704 
L 81.528242 257.087821 
L 81.528242 257.087821 
L 83.452121 252.375615 
L 83.452121 252.375615 
L 85.376 248.362458 
L 85.376 248.362458 
L 86.818909 245.75228 
L 86.818909 245.75228 
L 89.223758 242.053453 
L 89.223758 242.053453 
L 90.666667 240.170775 
L 90.666667 240.170775 
L 92.590545 237.991433 
L 92.590545 237.991433 
L 94.995394 235.711807 
L 94.995394 235.711807 
L 97.881212 233.4896 
L 97.881212 233.4896 
L 100.286061 231.961263 
L 100.286061 231.961263 
L 102.209939 230.896758 
L 102.209939 230.896758 
L 104.614788 229.712093 
L 104.614788 229.712093 
L 109.424485 227.645547 
L 109.424485 227.645547 
L 125.296485 221.230706 
L 125.296485 221.230706 
L 133.47297 217.526745 
L 133.47297 217.526745 
L 152.711758 208.594179 
L 152.711758 208.594179 
L 158.002424 206.388829 
L 158.002424 206.388829 
L 164.25503 204.029844 
L 164.25503 204.029844 
L 169.545697 202.257078 
L 169.545697 202.257078 
L 177.241212 200.025315 
L 177.241212 200.025315 
L 184.455758 198.240996 
L 184.455758 198.240996 
L 196.48 195.6472 
L 210.428121 192.646912 
L 210.428121 192.646912 
L 217.161697 191.028633 
L 217.161697 191.028633 
L 227.262061 188.314895 
L 227.262061 188.314895 
L 234.957576 186.051288 
L 234.957576 186.051288 
L 248.424727 181.981217 
L 248.424727 181.981217 
L 258.044121 179.338988 
L 258.044121 179.338988 
L 265.258667 177.711644 
L 265.258667 177.711644 
L 265.739636 177.617373 
L 273.435152 176.392818 
L 273.435152 176.392818 
L 277.763879 175.95929 
L 277.763879 175.95929 
L 283.535515 175.685432 
L 283.535515 175.685432 
L 285.459394 175.67147 
L 298.445576 176.489844 
L 298.445576 176.489844 
L 306.141091 177.528539 
L 323.456 179.83337 
L 323.456 179.83337 
L 327.784727 180.061594 
L 348.466424 176.50808 
L 348.466424 176.50808 
L 350.390303 175.686829 
L 373.957818 159.847279 
L 398.487273 152.290794 
L 398.487273 152.290794 
" clip-path="url(#pf1948e9ae8)" style="fill: none; stroke: #d62728; stroke-width: 1.5; stroke-linecap: square"/>
   </g>
   <g id="line2d_21">
    <path d="M 73.832727 283.327227 
L 75.756606 273.475998 
L 75.756606 273.475998 
L 77.680485 264.997586 
L 77.680485 264.997586 
L 79.604364 257.724184 
L 79.604364 257.724184 
L 81.528242 251.504095 
L 81.528242 251.504095 
L 83.452121 246.200544 
L 83.452121 246.200544 
L 85.376 241.690555 
L 85.376 241.690555 
L 86.818909 238.762069 
L 86.818909 238.762069 
L 89.223758 234.622021 
L 89.223758 234.622021 
L 90.666667 232.521256 
L 90.666667 232.521256 
L 92.590545 230.097722 
L 92.590545 230.097722 
L 94.995394 227.576771 
L 94.995394 227.576771 
L 97.881212 225.141374 
L 97.881212 225.141374 
L 100.286061 223.486004 
L 100.286061 223.486004 
L 102.209939 222.346272 
L 102.209939 222.346272 
L 104.614788 221.09397 
L 104.614788 221.09397 
L 109.424485 218.955884 
L 109.424485 218.955884 
L 128.663273 211.0284 
L 128.663273 211.0284 
L 134.915879 208.085447 
L 134.915879 208.085447 
L 148.38303 201.407262 
L 148.38303 201.407262 
L 158.002424 196.777363 
L 158.002424 196.777363 
L 165.697939 193.345785 
L 165.697939 193.345785 
L 173.393455 190.200024 
L 173.393455 190.200024 
L 181.08897 187.314745 
L 181.08897 187.314745 
L 188.784485 184.623531 
L 188.784485 184.623531 
L 234.957576 169.13714 
L 234.957576 169.13714 
L 245.057939 165.977852 
L 245.057939 165.977852 
L 248.424727 165.013747 
L 248.424727 165.013747 
L 253.715394 163.618735 
L 253.715394 163.618735 
L 261.410909 161.899055 
L 261.410909 161.899055 
L 265.739636 161.112057 
L 273.435152 160.049582 
L 273.435152 160.049582 
L 281.130667 159.400664 
L 281.130667 159.400664 
L 285.459394 159.194234 
L 306.141091 159.023088 
L 323.456 158.306525 
L 323.456 158.306525 
L 327.784727 157.850914 
L 350.390303 153.82746 
L 373.957818 151.608279 
L 398.487273 156.229282 
L 398.487273 156.229282 
" clip-path="url(#pf1948e9ae8)" style="fill: none; stroke: #9467bd; stroke-width: 1.5; stroke-linecap: square"/>
   </g>
   <g id="line2d_22">
    <path d="M 73.832727 272.212305 
L 75.756606 264.869223 
L 75.756606 264.869223 
L 77.680485 258.292002 
L 77.680485 258.292002 
L 79.604364 252.396041 
L 79.604364 252.396041 
L 81.528242 247.104736 
L 81.528242 247.104736 
L 83.452121 242.348875 
L 83.452121 242.348875 
L 85.376 238.066067 
L 85.376 238.066067 
L 86.818909 235.130431 
L 86.818909 235.130431 
L 90.185697 229.074599 
L 90.185697 229.074599 
L 92.590545 225.326936 
L 92.590545 225.326936 
L 94.995394 221.976965 
L 94.995394 221.976965 
L 98.362182 217.837377 
L 98.362182 217.837377 
L 100.76703 215.20282 
L 100.76703 215.20282 
L 104.614788 211.428344 
L 104.614788 211.428344 
L 107.981576 208.476465 
L 107.981576 208.476465 
L 112.310303 205.043203 
L 117.12 201.584501 
L 117.12 201.584501 
L 121.448727 198.711607 
L 127.220364 195.154511 
L 127.220364 195.154511 
L 133.47297 191.594043 
L 133.47297 191.594043 
L 138.282667 189.043706 
L 138.282667 189.043706 
L 144.054303 186.194271 
L 144.054303 186.194271 
L 150.787879 183.16208 
L 150.787879 183.16208 
L 157.521455 180.444961 
L 157.521455 180.444961 
L 163.293091 178.360993 
L 163.293091 178.360993 
L 169.545697 176.344133 
L 169.545697 176.344133 
L 177.241212 174.171119 
L 177.241212 174.171119 
L 184.455758 172.396088 
L 184.455758 172.396088 
L 195.037091 170.136842 
L 195.037091 170.136842 
L 205.618424 168.133886 
L 205.618424 168.133886 
L 234.957576 162.747359 
L 234.957576 162.747359 
L 246.981818 160.226828 
L 253.715394 158.65963 
L 253.715394 158.65963 
L 263.815758 156.039155 
L 263.815758 156.039155 
L 265.739636 155.498331 
L 277.763879 151.781854 
L 277.763879 151.781854 
L 285.459394 149.093504 
L 306.141091 141.064303 
L 323.456 135.15949 
L 323.456 135.15949 
L 327.784727 134.206171 
L 348.466424 135.813275 
L 348.466424 135.813275 
L 350.390303 136.654713 
L 373.957818 157.448483 
L 398.487273 169.772618 
L 398.487273 169.772618 
" clip-path="url(#pf1948e9ae8)" style="fill: none; stroke: #8c564b; stroke-width: 1.5; stroke-linecap: square"/>
   </g>
   <g id="line2d_23">
    <path d="M 73.832727 276.588444 
L 75.756606 265.990503 
L 75.756606 265.990503 
L 77.680485 256.951176 
L 77.680485 256.951176 
L 79.604364 249.25684 
L 79.604364 249.25684 
L 81.528242 242.716405 
L 81.528242 242.716405 
L 83.452121 237.159544 
L 83.452121 237.159544 
L 85.376 232.435032 
L 85.376 232.435032 
L 86.818909 229.356834 
L 86.818909 229.356834 
L 89.223758 224.964326 
L 89.223758 224.964326 
L 90.666667 222.699516 
L 90.666667 222.699516 
L 92.590545 220.031731 
L 92.590545 220.031731 
L 94.995394 217.151656 
L 94.995394 217.151656 
L 97.881212 214.190812 
L 97.881212 214.190812 
L 100.76703 211.598822 
L 100.76703 211.598822 
L 104.614788 208.478901 
L 104.614788 208.478901 
L 123.372606 193.891634 
L 123.372606 193.891634 
L 136.839758 183.081733 
L 136.839758 183.081733 
L 140.687515 180.217017 
L 140.687515 180.217017 
L 144.054303 177.864523 
L 144.054303 177.864523 
L 148.38303 175.093571 
L 148.38303 175.093571 
L 152.711758 172.643366 
L 152.711758 172.643366 
L 155.597576 171.199312 
L 155.597576 171.199312 
L 159.926303 169.32199 
L 159.926303 169.32199 
L 164.25503 167.782891 
L 164.25503 167.782891 
L 167.621818 166.805242 
L 169.545697 166.326091 
L 169.545697 166.326091 
L 173.874424 165.436867 
L 173.874424 165.436867 
L 179.646061 164.586897 
L 179.646061 164.586897 
L 184.455758 164.086847 
L 184.455758 164.086847 
L 204.656485 162.321285 
L 204.656485 162.321285 
L 210.428121 161.500759 
L 210.428121 161.500759 
L 212.352 161.172206 
L 217.161697 160.223181 
L 217.161697 160.223181 
L 224.857212 158.336295 
L 224.857212 158.336295 
L 229.666909 156.958613 
L 229.666909 156.958613 
L 242.653091 152.830427 
L 242.653091 152.830427 
L 248.424727 151.008051 
L 248.424727 151.008051 
L 253.715394 149.46533 
L 253.715394 149.46533 
L 261.410909 147.586507 
L 261.410909 147.586507 
L 265.739636 146.776241 
L 273.435152 145.841833 
L 273.435152 145.841833 
L 277.763879 145.606404 
L 277.763879 145.606404 
L 283.535515 145.590997 
L 283.535515 145.590997 
L 285.459394 145.651818 
L 306.141091 147.045477 
L 323.456 145.527767 
L 323.456 145.527767 
L 327.784727 144.200279 
L 348.466424 131.71221 
L 348.466424 131.71221 
L 350.390303 130.165496 
L 373.476848 116.252172 
L 373.476848 116.252172 
L 373.957818 116.236585 
L 398.487273 155.144313 
L 398.487273 155.144313 
" clip-path="url(#pf1948e9ae8)" style="fill: none; stroke: #e377c2; stroke-width: 1.5; stroke-linecap: square"/>
   </g>
   <g id="line2d_24">
    <path d="M 73.832727 277.593093 
L 75.756606 264.605162 
L 75.756606 264.605162 
L 77.680485 253.663887 
L 77.680485 253.663887 
L 79.604364 244.481432 
L 79.604364 244.481432 
L 81.528242 236.801807 
L 81.528242 236.801807 
L 83.452121 230.398173 
L 83.452121 230.398173 
L 85.376 225.070333 
L 85.376 225.070333 
L 86.818909 221.673764 
L 86.818909 221.673764 
L 89.223758 216.96042 
L 89.223758 216.96042 
L 90.666667 214.607332 
L 90.666667 214.607332 
L 92.590545 211.919843 
L 92.590545 211.919843 
L 94.995394 209.141062 
L 94.995394 209.141062 
L 97.881212 206.439158 
L 97.881212 206.439158 
L 100.286061 204.557141 
L 100.286061 204.557141 
L 102.209939 203.216419 
L 102.209939 203.216419 
L 106.538667 200.512684 
L 106.538667 200.512684 
L 121.448727 191.60888 
L 140.687515 179.550168 
L 140.687515 179.550168 
L 144.054303 177.664915 
L 144.054303 177.664915 
L 150.306909 174.5018 
L 150.306909 174.5018 
L 154.635636 172.5869 
L 158.002424 171.249806 
L 158.002424 171.249806 
L 163.293091 169.391462 
L 163.293091 169.391462 
L 167.621818 168.054321 
L 173.874424 166.322429 
L 173.874424 166.322429 
L 188.784485 162.38711 
L 188.784485 162.38711 
L 196.48 160.074516 
L 200.327758 158.794704 
L 200.327758 158.794704 
L 208.023273 155.990663 
L 208.023273 155.990663 
L 217.161697 152.362953 
L 217.161697 152.362953 
L 228.70497 147.81058 
L 228.70497 147.81058 
L 229.666909 147.456493 
L 229.666909 147.456493 
L 234.957576 145.634214 
L 234.957576 145.634214 
L 239.286303 144.338809 
L 239.286303 144.338809 
L 245.057939 142.950645 
L 245.057939 142.950645 
L 248.424727 142.341408 
L 248.424727 142.341408 
L 253.715394 141.69973 
L 253.715394 141.69973 
L 258.044121 141.459523 
L 258.044121 141.459523 
L 263.815758 141.505274 
L 263.815758 141.505274 
L 265.739636 141.601613 
L 273.435152 142.279397 
L 273.435152 142.279397 
L 285.459394 143.582061 
L 298.445576 143.685253 
L 298.445576 143.685253 
L 301.812364 143.273736 
L 301.812364 143.273736 
L 306.141091 142.42052 
L 323.456 135.692757 
L 323.456 135.692757 
L 327.784727 133.567219 
L 348.466424 128.670172 
L 348.466424 128.670172 
L 350.390303 129.193023 
L 373.476848 153.216212 
L 373.476848 153.216212 
L 373.957818 153.887311 
L 398.487273 109.669839 
L 398.487273 109.669839 
" clip-path="url(#pf1948e9ae8)" style="fill: none; stroke: #7f7f7f; stroke-width: 1.5; stroke-linecap: square"/>
   </g>
   <g id="line2d_25">
    <path d="M 73.832727 269.292889 
L 75.756606 258.576349 
L 75.756606 258.576349 
L 77.680485 249.175958 
L 77.680485 249.175958 
L 79.604364 240.948564 
L 79.604364 240.948564 
L 81.528242 233.762951 
L 81.528242 233.762951 
L 83.452121 227.4991 
L 83.452121 227.4991 
L 85.376 222.047482 
L 85.376 222.047482 
L 86.818909 218.431463 
L 86.818909 218.431463 
L 89.223758 213.191274 
L 89.223758 213.191274 
L 90.666667 210.462 
L 90.666667 210.462 
L 92.590545 207.240928 
L 92.590545 207.240928 
L 94.995394 203.791422 
L 94.995394 203.791422 
L 97.881212 200.344061 
L 97.881212 200.344061 
L 100.286061 197.929196 
L 100.286061 197.929196 
L 102.209939 196.234273 
L 102.209939 196.234273 
L 104.614788 194.349261 
L 104.614788 194.349261 
L 107.981576 192.034223 
L 107.981576 192.034223 
L 112.310303 189.410972 
L 120.967758 184.60357 
L 120.967758 184.60357 
L 128.663273 180.242145 
L 128.663273 180.242145 
L 134.915879 176.487947 
L 134.915879 176.487947 
L 146.940121 168.928884 
L 146.940121 168.928884 
L 155.597576 163.591275 
L 155.597576 163.591275 
L 159.926303 161.075406 
L 159.926303 161.075406 
L 167.140848 157.22589 
L 167.140848 157.22589 
L 169.545697 156.054446 
L 169.545697 156.054446 
L 173.874424 154.099986 
L 173.874424 154.099986 
L 179.646061 151.812211 
L 179.646061 151.812211 
L 184.455758 150.181596 
L 184.455758 150.181596 
L 188.784485 148.917422 
L 188.784485 148.917422 
L 195.037091 147.397307 
L 195.037091 147.397307 
L 200.327758 146.350125 
L 200.327758 146.350125 
L 208.023273 145.117029 
L 208.023273 145.117029 
L 217.161697 143.909869 
L 217.161697 143.909869 
L 229.666909 142.309742 
L 229.666909 142.309742 
L 239.286303 140.878707 
L 239.286303 140.878707 
L 248.424727 139.273344 
L 248.424727 139.273344 
L 261.410909 136.647267 
L 261.410909 136.647267 
L 277.763879 133.234955 
L 277.763879 133.234955 
L 285.459394 131.800968 
L 301.812364 129.411121 
L 301.812364 129.411121 
L 327.784727 126.295169 
L 348.466424 120.921348 
L 348.466424 120.921348 
L 350.390303 120.197281 
L 373.476848 111.891191 
L 373.476848 111.891191 
L 373.957818 111.836525 
L 398.487273 142.370594 
L 398.487273 142.370594 
" clip-path="url(#pf1948e9ae8)" style="fill: none; stroke: #bcbd22; stroke-width: 1.5; stroke-linecap: square"/>
   </g>
   <g id="line2d_26">
    <path d="M 73.832727 259.525365 
L 77.199515 248.184419 
L 77.199515 248.184419 
L 79.604364 240.690446 
L 79.604364 240.690446 
L 82.490182 232.362959 
L 82.490182 232.362959 
L 85.376 224.748471 
L 85.376 224.748471 
L 86.818909 221.201931 
L 86.818909 221.201931 
L 90.185697 213.577981 
L 90.185697 213.577981 
L 92.590545 208.667008 
L 92.590545 208.667008 
L 94.995394 204.176671 
L 94.995394 204.176671 
L 98.362182 198.550842 
L 98.362182 198.550842 
L 100.76703 194.969565 
L 100.76703 194.969565 
L 104.133818 190.511627 
L 104.133818 190.511627 
L 106.538667 187.688026 
L 106.538667 187.688026 
L 109.424485 184.654191 
L 109.424485 184.654191 
L 112.310303 181.964393 
L 112.310303 181.964393 
L 115.677091 179.202792 
L 115.677091 179.202792 
L 119.524848 176.46247 
L 119.524848 176.46247 
L 123.853576 173.800749 
L 123.853576 173.800749 
L 128.663273 171.229563 
L 128.663273 171.229563 
L 133.47297 168.931294 
L 133.47297 168.931294 
L 140.687515 165.751428 
L 140.687515 165.751428 
L 155.597576 159.227018 
L 155.597576 159.227018 
L 164.25503 155.142981 
L 164.25503 155.142981 
L 173.874424 150.34538 
L 173.874424 150.34538 
L 192.151273 141.157847 
L 192.151273 141.157847 
L 200.327758 137.375418 
L 200.327758 137.375418 
L 208.023273 134.163351 
L 208.023273 134.163351 
L 212.352 132.529818 
L 212.352 132.529818 
L 217.161697 130.869151 
L 217.161697 130.869151 
L 224.857212 128.546454 
L 224.857212 128.546454 
L 229.666909 127.28995 
L 229.666909 127.28995 
L 239.286303 125.150501 
L 239.286303 125.150501 
L 248.424727 123.439039 
L 248.424727 123.439039 
L 265.739636 120.422234 
L 265.739636 120.422234 
L 277.763879 118.103888 
L 277.763879 118.103888 
L 285.459394 116.476918 
L 285.459394 116.476918 
L 301.812364 113.014989 
L 301.812364 113.014989 
L 306.141091 112.229961 
L 306.141091 112.229961 
L 323.456 110.63388 
L 323.456 110.63388 
L 327.784727 110.781237 
L 327.784727 110.781237 
L 348.466424 114.79059 
L 348.466424 114.79059 
L 350.390303 115.339057 
L 350.390303 115.339057 
L 373.476848 116.097834 
L 373.476848 116.097834 
L 373.957818 115.823798 
L 373.957818 115.823798 
L 398.487273 53.568 
L 398.487273 53.568 
" clip-path="url(#pf1948e9ae8)" style="fill: none; stroke: #17becf; stroke-width: 1.5; stroke-linecap: square"/>
   </g>
   <g id="line2d_27">
    <path d="M 73.832727 270.155123 
L 75.756606 257.956374 
L 75.756606 257.956374 
L 77.680485 247.467147 
L 77.680485 247.467147 
L 79.604364 238.460934 
L 79.604364 238.460934 
L 81.528242 230.735082 
L 81.528242 230.735082 
L 83.452121 224.108881 
L 83.452121 224.108881 
L 85.376 218.421768 
L 85.376 218.421768 
L 86.818909 214.686578 
L 86.818909 214.686578 
L 89.223758 209.313266 
L 89.223758 209.313266 
L 90.666667 206.523702 
L 90.666667 206.523702 
L 92.590545 203.225037 
L 92.590545 203.225037 
L 94.995394 199.658816 
L 94.995394 199.658816 
L 97.881212 196.011388 
L 97.881212 196.011388 
L 100.286061 193.363226 
L 100.286061 193.363226 
L 102.209939 191.433523 
L 102.209939 191.433523 
L 104.614788 189.194768 
L 104.614788 189.194768 
L 109.424485 185.083849 
L 109.424485 185.083849 
L 117.12 178.936222 
L 117.12 178.936222 
L 130.587152 168.484149 
L 130.587152 168.484149 
L 136.839758 163.884366 
L 136.839758 163.884366 
L 142.130424 160.256819 
L 142.130424 160.256819 
L 146.940121 157.231989 
L 146.940121 157.231989 
L 150.787879 155.022565 
L 150.787879 155.022565 
L 155.597576 152.534231 
L 155.597576 152.534231 
L 159.926303 150.548532 
L 159.926303 150.548532 
L 165.697939 148.239882 
L 165.697939 148.239882 
L 169.545697 146.882919 
L 169.545697 146.882919 
L 177.241212 144.478923 
L 177.241212 144.478923 
L 198.403879 138.228763 
L 198.403879 138.228763 
L 205.618424 135.717417 
L 205.618424 135.717417 
L 212.352 133.116765 
L 212.352 133.116765 
L 224.857212 127.842217 
L 224.857212 127.842217 
L 234.957576 123.635361 
L 234.957576 123.635361 
L 242.653091 120.847713 
L 242.653091 120.847713 
L 246.981818 119.547518 
L 246.981818 119.547518 
L 248.424727 119.166361 
L 248.424727 119.166361 
L 253.715394 118.018619 
L 253.715394 118.018619 
L 258.044121 117.393778 
L 258.044121 117.393778 
L 263.815758 117.021639 
L 263.815758 117.021639 
L 265.739636 117.013727 
L 265.739636 117.013727 
L 273.435152 117.515095 
L 273.435152 117.515095 
L 281.130667 118.690899 
L 281.130667 118.690899 
L 285.459394 119.516352 
L 285.459394 119.516352 
L 298.445576 121.665164 
L 298.445576 121.665164 
L 301.812364 121.893317 
L 301.812364 121.893317 
L 306.141091 121.827975 
L 306.141091 121.827975 
L 323.456 115.605692 
L 323.456 115.605692 
L 327.303758 112.631595 
L 327.303758 112.631595 
L 327.784727 112.216636 
L 348.466424 87.137522 
L 348.466424 87.137522 
L 350.390303 84.445173 
L 350.390303 84.445173 
L 373.476848 66.934196 
L 373.476848 66.934196 
L 373.957818 67.188255 
L 373.957818 67.188255 
L 398.487273 155.282761 
L 398.487273 155.282761 
" clip-path="url(#pf1948e9ae8)" style="fill: none; stroke: #1f77b4; stroke-width: 1.5; stroke-linecap: square"/>
   </g>
   <g id="patch_3">
    <path d="M 57.6 307.584 
L 57.6 41.472 
" style="fill: none; stroke: #000000; stroke-width: 0.8; stroke-linejoin: miter; stroke-linecap: square"/>
   </g>
   <g id="patch_4">
    <path d="M 414.72 307.584 
L 414.72 41.472 
" style="fill: none; stroke: #000000; stroke-width: 0.8; stroke-linejoin: miter; stroke-linecap: square"/>
   </g>
   <g id="patch_5">
    <path d="M 57.6 307.584 
L 414.72 307.584 
" style="fill: none; stroke: #000000; stroke-width: 0.8; stroke-linejoin: miter; stroke-linecap: square"/>
   </g>
   <g id="patch_6">
    <path d="M 57.6 41.472 
L 414.72 41.472 
" style="fill: none; stroke: #000000; stroke-width: 0.8; stroke-linejoin: miter; stroke-linecap: square"/>
   </g>
   <g id="text_19">
    <!-- QBER influence on mean number of required re-runs of TPM with L=1 -->
    <g transform="translate(27.479062 35.472)scale(0.12 -0.12)">
     <defs>
      <path id="DejaVuSans-51" d="M 2522 4238 
Q 1834 4238 1429 3725 
Q 1025 3213 1025 2328 
Q 1025 1447 1429 934 
Q 1834 422 2522 422 
Q 3209 422 3611 934 
Q 4013 1447 4013 2328 
Q 4013 3213 3611 3725 
Q 3209 4238 2522 4238 
z
M 3406 84 
L 4238 -825 
L 3475 -825 
L 2784 -78 
Q 2681 -84 2626 -87 
Q 2572 -91 2522 -91 
Q 1538 -91 948 567 
Q 359 1225 359 2328 
Q 359 3434 948 4092 
Q 1538 4750 2522 4750 
Q 3503 4750 4090 4092 
Q 4678 3434 4678 2328 
Q 4678 1516 4351 937 
Q 4025 359 3406 84 
z
" transform="scale(0.015625)"/>
      <path id="DejaVuSans-42" d="M 1259 2228 
L 1259 519 
L 2272 519 
Q 2781 519 3026 730 
Q 3272 941 3272 1375 
Q 3272 1813 3026 2020 
Q 2781 2228 2272 2228 
L 1259 2228 
z
M 1259 4147 
L 1259 2741 
L 2194 2741 
Q 2656 2741 2882 2914 
Q 3109 3088 3109 3444 
Q 3109 3797 2882 3972 
Q 2656 4147 2194 4147 
L 1259 4147 
z
M 628 4666 
L 2241 4666 
Q 2963 4666 3353 4366 
Q 3744 4066 3744 3513 
Q 3744 3084 3544 2831 
Q 3344 2578 2956 2516 
Q 3422 2416 3680 2098 
Q 3938 1781 3938 1306 
Q 3938 681 3513 340 
Q 3088 0 2303 0 
L 628 0 
L 628 4666 
z
" transform="scale(0.015625)"/>
      <path id="DejaVuSans-45" d="M 628 4666 
L 3578 4666 
L 3578 4134 
L 1259 4134 
L 1259 2753 
L 3481 2753 
L 3481 2222 
L 1259 2222 
L 1259 531 
L 3634 531 
L 3634 0 
L 628 0 
L 628 4666 
z
" transform="scale(0.015625)"/>
      <path id="DejaVuSans-52" d="M 2841 2188 
Q 3044 2119 3236 1894 
Q 3428 1669 3622 1275 
L 4263 0 
L 3584 0 
L 2988 1197 
Q 2756 1666 2539 1819 
Q 2322 1972 1947 1972 
L 1259 1972 
L 1259 0 
L 628 0 
L 628 4666 
L 2053 4666 
Q 2853 4666 3247 4331 
Q 3641 3997 3641 3322 
Q 3641 2881 3436 2590 
Q 3231 2300 2841 2188 
z
M 1259 4147 
L 1259 2491 
L 2053 2491 
Q 2509 2491 2742 2702 
Q 2975 2913 2975 3322 
Q 2975 3731 2742 3939 
Q 2509 4147 2053 4147 
L 1259 4147 
z
" transform="scale(0.015625)"/>
      <path id="DejaVuSans-63" d="M 3122 3366 
L 3122 2828 
Q 2878 2963 2633 3030 
Q 2388 3097 2138 3097 
Q 1578 3097 1268 2742 
Q 959 2388 959 1747 
Q 959 1106 1268 751 
Q 1578 397 2138 397 
Q 2388 397 2633 464 
Q 2878 531 3122 666 
L 3122 134 
Q 2881 22 2623 -34 
Q 2366 -91 2075 -91 
Q 1284 -91 818 406 
Q 353 903 353 1747 
Q 353 2603 823 3093 
Q 1294 3584 2113 3584 
Q 2378 3584 2631 3529 
Q 2884 3475 3122 3366 
z
" transform="scale(0.015625)"/>
      <path id="DejaVuSans-2d" d="M 313 2009 
L 1997 2009 
L 1997 1497 
L 313 1497 
L 313 2009 
z
" transform="scale(0.015625)"/>
      <path id="DejaVuSans-77" d="M 269 3500 
L 844 3500 
L 1563 769 
L 2278 3500 
L 2956 3500 
L 3675 769 
L 4391 3500 
L 4966 3500 
L 4050 0 
L 3372 0 
L 2619 2869 
L 1863 0 
L 1184 0 
L 269 3500 
z
" transform="scale(0.015625)"/>
      <path id="DejaVuSans-4c" d="M 628 4666 
L 1259 4666 
L 1259 531 
L 3531 531 
L 3531 0 
L 628 0 
L 628 4666 
z
" transform="scale(0.015625)"/>
      <path id="DejaVuSans-3d" d="M 678 2906 
L 4684 2906 
L 4684 2381 
L 678 2381 
L 678 2906 
z
M 678 1631 
L 4684 1631 
L 4684 1100 
L 678 1100 
L 678 1631 
z
" transform="scale(0.015625)"/>
     </defs>
     <use xlink:href="#DejaVuSans-51"/>
     <use xlink:href="#DejaVuSans-42" x="78.710938"/>
     <use xlink:href="#DejaVuSans-45" x="147.314453"/>
     <use xlink:href="#DejaVuSans-52" x="210.498047"/>
     <use xlink:href="#DejaVuSans-20" x="279.980469"/>
     <use xlink:href="#DejaVuSans-69" x="311.767578"/>
     <use xlink:href="#DejaVuSans-6e" x="339.550781"/>
     <use xlink:href="#DejaVuSans-66" x="402.929688"/>
     <use xlink:href="#DejaVuSans-6c" x="438.134766"/>
     <use xlink:href="#DejaVuSans-75" x="465.917969"/>
     <use xlink:href="#DejaVuSans-65" x="529.296875"/>
     <use xlink:href="#DejaVuSans-6e" x="590.820312"/>
     <use xlink:href="#DejaVuSans-63" x="654.199219"/>
     <use xlink:href="#DejaVuSans-65" x="709.179688"/>
     <use xlink:href="#DejaVuSans-20" x="770.703125"/>
     <use xlink:href="#DejaVuSans-6f" x="802.490234"/>
     <use xlink:href="#DejaVuSans-6e" x="863.671875"/>
     <use xlink:href="#DejaVuSans-20" x="927.050781"/>
     <use xlink:href="#DejaVuSans-6d" x="958.837891"/>
     <use xlink:href="#DejaVuSans-65" x="1056.25"/>
     <use xlink:href="#DejaVuSans-61" x="1117.773438"/>
     <use xlink:href="#DejaVuSans-6e" x="1179.052734"/>
     <use xlink:href="#DejaVuSans-20" x="1242.431641"/>
     <use xlink:href="#DejaVuSans-6e" x="1274.21875"/>
     <use xlink:href="#DejaVuSans-75" x="1337.597656"/>
     <use xlink:href="#DejaVuSans-6d" x="1400.976562"/>
     <use xlink:href="#DejaVuSans-62" x="1498.388672"/>
     <use xlink:href="#DejaVuSans-65" x="1561.865234"/>
     <use xlink:href="#DejaVuSans-72" x="1623.388672"/>
     <use xlink:href="#DejaVuSans-20" x="1664.501953"/>
     <use xlink:href="#DejaVuSans-6f" x="1696.289062"/>
     <use xlink:href="#DejaVuSans-66" x="1757.470703"/>
     <use xlink:href="#DejaVuSans-20" x="1792.675781"/>
     <use xlink:href="#DejaVuSans-72" x="1824.462891"/>
     <use xlink:href="#DejaVuSans-65" x="1863.326172"/>
     <use xlink:href="#DejaVuSans-71" x="1924.849609"/>
     <use xlink:href="#DejaVuSans-75" x="1988.326172"/>
     <use xlink:href="#DejaVuSans-69" x="2051.705078"/>
     <use xlink:href="#DejaVuSans-72" x="2079.488281"/>
     <use xlink:href="#DejaVuSans-65" x="2118.351562"/>
     <use xlink:href="#DejaVuSans-64" x="2179.875"/>
     <use xlink:href="#DejaVuSans-20" x="2243.351562"/>
     <use xlink:href="#DejaVuSans-72" x="2275.138672"/>
     <use xlink:href="#DejaVuSans-65" x="2314.001953"/>
     <use xlink:href="#DejaVuSans-2d" x="2375.525391"/>
     <use xlink:href="#DejaVuSans-72" x="2411.609375"/>
     <use xlink:href="#DejaVuSans-75" x="2452.722656"/>
     <use xlink:href="#DejaVuSans-6e" x="2516.101562"/>
     <use xlink:href="#DejaVuSans-73" x="2579.480469"/>
     <use xlink:href="#DejaVuSans-20" x="2631.580078"/>
     <use xlink:href="#DejaVuSans-6f" x="2663.367188"/>
     <use xlink:href="#DejaVuSans-66" x="2724.548828"/>
     <use xlink:href="#DejaVuSans-20" x="2759.753906"/>
     <use xlink:href="#DejaVuSans-54" x="2791.541016"/>
     <use xlink:href="#DejaVuSans-50" x="2852.625"/>
     <use xlink:href="#DejaVuSans-4d" x="2912.927734"/>
     <use xlink:href="#DejaVuSans-20" x="2999.207031"/>
     <use xlink:href="#DejaVuSans-77" x="3030.994141"/>
     <use xlink:href="#DejaVuSans-69" x="3112.78125"/>
     <use xlink:href="#DejaVuSans-74" x="3140.564453"/>
     <use xlink:href="#DejaVuSans-68" x="3179.773438"/>
     <use xlink:href="#DejaVuSans-20" x="3243.152344"/>
     <use xlink:href="#DejaVuSans-4c" x="3274.939453"/>
     <use xlink:href="#DejaVuSans-3d" x="3330.652344"/>
     <use xlink:href="#DejaVuSans-31" x="3414.441406"/>
    </g>
   </g>
   <g id="legend_1">
    <g id="patch_7">
     <path d="M 328.760625 302.584 
L 407.72 302.584 
Q 409.72 302.584 409.72 300.584 
L 409.72 140.124625 
Q 409.72 138.124625 407.72 138.124625 
L 328.760625 138.124625 
Q 326.760625 138.124625 326.760625 140.124625 
L 326.760625 300.584 
Q 326.760625 302.584 328.760625 302.584 
z
" style="fill: #ffffff; opacity: 0.8; stroke: #cccccc; stroke-linejoin: miter"/>
    </g>
    <g id="line2d_28">
     <path d="M 330.760625 146.223062 
L 340.760625 146.223062 
L 350.760625 146.223062 
" style="fill: none; stroke: #1f77b4; stroke-width: 1.5; stroke-linecap: square"/>
    </g>
    <g id="text_20">
     <!-- QBER: 1 -->
     <g transform="translate(358.760625 149.723062)scale(0.1 -0.1)">
      <defs>
       <path id="DejaVuSans-3a" d="M 750 794 
L 1409 794 
L 1409 0 
L 750 0 
L 750 794 
z
M 750 3309 
L 1409 3309 
L 1409 2516 
L 750 2516 
L 750 3309 
z
" transform="scale(0.015625)"/>
      </defs>
      <use xlink:href="#DejaVuSans-51"/>
      <use xlink:href="#DejaVuSans-42" x="78.710938"/>
      <use xlink:href="#DejaVuSans-45" x="147.314453"/>
      <use xlink:href="#DejaVuSans-52" x="210.498047"/>
      <use xlink:href="#DejaVuSans-3a" x="276.855469"/>
      <use xlink:href="#DejaVuSans-20" x="310.546875"/>
      <use xlink:href="#DejaVuSans-31" x="342.333984"/>
     </g>
    </g>
    <g id="line2d_29">
     <path d="M 330.760625 160.901188 
L 340.760625 160.901188 
L 350.760625 160.901188 
" style="fill: none; stroke: #ff7f0e; stroke-width: 1.5; stroke-linecap: square"/>
    </g>
    <g id="text_21">
     <!-- QBER: 2 -->
     <g transform="translate(358.760625 164.401188)scale(0.1 -0.1)">
      <use xlink:href="#DejaVuSans-51"/>
      <use xlink:href="#DejaVuSans-42" x="78.710938"/>
      <use xlink:href="#DejaVuSans-45" x="147.314453"/>
      <use xlink:href="#DejaVuSans-52" x="210.498047"/>
      <use xlink:href="#DejaVuSans-3a" x="276.855469"/>
      <use xlink:href="#DejaVuSans-20" x="310.546875"/>
      <use xlink:href="#DejaVuSans-32" x="342.333984"/>
     </g>
    </g>
    <g id="line2d_30">
     <path d="M 330.760625 175.579313 
L 340.760625 175.579313 
L 350.760625 175.579313 
" style="fill: none; stroke: #2ca02c; stroke-width: 1.5; stroke-linecap: square"/>
    </g>
    <g id="text_22">
     <!-- QBER: 3 -->
     <g transform="translate(358.760625 179.079313)scale(0.1 -0.1)">
      <defs>
       <path id="DejaVuSans-33" d="M 2597 2516 
Q 3050 2419 3304 2112 
Q 3559 1806 3559 1356 
Q 3559 666 3084 287 
Q 2609 -91 1734 -91 
Q 1441 -91 1130 -33 
Q 819 25 488 141 
L 488 750 
Q 750 597 1062 519 
Q 1375 441 1716 441 
Q 2309 441 2620 675 
Q 2931 909 2931 1356 
Q 2931 1769 2642 2001 
Q 2353 2234 1838 2234 
L 1294 2234 
L 1294 2753 
L 1863 2753 
Q 2328 2753 2575 2939 
Q 2822 3125 2822 3475 
Q 2822 3834 2567 4026 
Q 2313 4219 1838 4219 
Q 1578 4219 1281 4162 
Q 984 4106 628 3988 
L 628 4550 
Q 988 4650 1302 4700 
Q 1616 4750 1894 4750 
Q 2613 4750 3031 4423 
Q 3450 4097 3450 3541 
Q 3450 3153 3228 2886 
Q 3006 2619 2597 2516 
z
" transform="scale(0.015625)"/>
      </defs>
      <use xlink:href="#DejaVuSans-51"/>
      <use xlink:href="#DejaVuSans-42" x="78.710938"/>
      <use xlink:href="#DejaVuSans-45" x="147.314453"/>
      <use xlink:href="#DejaVuSans-52" x="210.498047"/>
      <use xlink:href="#DejaVuSans-3a" x="276.855469"/>
      <use xlink:href="#DejaVuSans-20" x="310.546875"/>
      <use xlink:href="#DejaVuSans-33" x="342.333984"/>
     </g>
    </g>
    <g id="line2d_31">
     <path d="M 330.760625 190.257438 
L 340.760625 190.257438 
L 350.760625 190.257438 
" style="fill: none; stroke: #d62728; stroke-width: 1.5; stroke-linecap: square"/>
    </g>
    <g id="text_23">
     <!-- QBER: 4 -->
     <g transform="translate(358.760625 193.757438)scale(0.1 -0.1)">
      <defs>
       <path id="DejaVuSans-34" d="M 2419 4116 
L 825 1625 
L 2419 1625 
L 2419 4116 
z
M 2253 4666 
L 3047 4666 
L 3047 1625 
L 3713 1625 
L 3713 1100 
L 3047 1100 
L 3047 0 
L 2419 0 
L 2419 1100 
L 313 1100 
L 313 1709 
L 2253 4666 
z
" transform="scale(0.015625)"/>
      </defs>
      <use xlink:href="#DejaVuSans-51"/>
      <use xlink:href="#DejaVuSans-42" x="78.710938"/>
      <use xlink:href="#DejaVuSans-45" x="147.314453"/>
      <use xlink:href="#DejaVuSans-52" x="210.498047"/>
      <use xlink:href="#DejaVuSans-3a" x="276.855469"/>
      <use xlink:href="#DejaVuSans-20" x="310.546875"/>
      <use xlink:href="#DejaVuSans-34" x="342.333984"/>
     </g>
    </g>
    <g id="line2d_32">
     <path d="M 330.760625 204.935563 
L 340.760625 204.935563 
L 350.760625 204.935563 
" style="fill: none; stroke: #9467bd; stroke-width: 1.5; stroke-linecap: square"/>
    </g>
    <g id="text_24">
     <!-- QBER: 5 -->
     <g transform="translate(358.760625 208.435563)scale(0.1 -0.1)">
      <use xlink:href="#DejaVuSans-51"/>
      <use xlink:href="#DejaVuSans-42" x="78.710938"/>
      <use xlink:href="#DejaVuSans-45" x="147.314453"/>
      <use xlink:href="#DejaVuSans-52" x="210.498047"/>
      <use xlink:href="#DejaVuSans-3a" x="276.855469"/>
      <use xlink:href="#DejaVuSans-20" x="310.546875"/>
      <use xlink:href="#DejaVuSans-35" x="342.333984"/>
     </g>
    </g>
    <g id="line2d_33">
     <path d="M 330.760625 219.613688 
L 340.760625 219.613688 
L 350.760625 219.613688 
" style="fill: none; stroke: #8c564b; stroke-width: 1.5; stroke-linecap: square"/>
    </g>
    <g id="text_25">
     <!-- QBER: 6 -->
     <g transform="translate(358.760625 223.113688)scale(0.1 -0.1)">
      <defs>
       <path id="DejaVuSans-36" d="M 2113 2584 
Q 1688 2584 1439 2293 
Q 1191 2003 1191 1497 
Q 1191 994 1439 701 
Q 1688 409 2113 409 
Q 2538 409 2786 701 
Q 3034 994 3034 1497 
Q 3034 2003 2786 2293 
Q 2538 2584 2113 2584 
z
M 3366 4563 
L 3366 3988 
Q 3128 4100 2886 4159 
Q 2644 4219 2406 4219 
Q 1781 4219 1451 3797 
Q 1122 3375 1075 2522 
Q 1259 2794 1537 2939 
Q 1816 3084 2150 3084 
Q 2853 3084 3261 2657 
Q 3669 2231 3669 1497 
Q 3669 778 3244 343 
Q 2819 -91 2113 -91 
Q 1303 -91 875 529 
Q 447 1150 447 2328 
Q 447 3434 972 4092 
Q 1497 4750 2381 4750 
Q 2619 4750 2861 4703 
Q 3103 4656 3366 4563 
z
" transform="scale(0.015625)"/>
      </defs>
      <use xlink:href="#DejaVuSans-51"/>
      <use xlink:href="#DejaVuSans-42" x="78.710938"/>
      <use xlink:href="#DejaVuSans-45" x="147.314453"/>
      <use xlink:href="#DejaVuSans-52" x="210.498047"/>
      <use xlink:href="#DejaVuSans-3a" x="276.855469"/>
      <use xlink:href="#DejaVuSans-20" x="310.546875"/>
      <use xlink:href="#DejaVuSans-36" x="342.333984"/>
     </g>
    </g>
    <g id="line2d_34">
     <path d="M 330.760625 234.291812 
L 340.760625 234.291812 
L 350.760625 234.291812 
" style="fill: none; stroke: #e377c2; stroke-width: 1.5; stroke-linecap: square"/>
    </g>
    <g id="text_26">
     <!-- QBER: 7 -->
     <g transform="translate(358.760625 237.791812)scale(0.1 -0.1)">
      <use xlink:href="#DejaVuSans-51"/>
      <use xlink:href="#DejaVuSans-42" x="78.710938"/>
      <use xlink:href="#DejaVuSans-45" x="147.314453"/>
      <use xlink:href="#DejaVuSans-52" x="210.498047"/>
      <use xlink:href="#DejaVuSans-3a" x="276.855469"/>
      <use xlink:href="#DejaVuSans-20" x="310.546875"/>
      <use xlink:href="#DejaVuSans-37" x="342.333984"/>
     </g>
    </g>
    <g id="line2d_35">
     <path d="M 330.760625 248.969938 
L 340.760625 248.969938 
L 350.760625 248.969938 
" style="fill: none; stroke: #7f7f7f; stroke-width: 1.5; stroke-linecap: square"/>
    </g>
    <g id="text_27">
     <!-- QBER: 8 -->
     <g transform="translate(358.760625 252.469938)scale(0.1 -0.1)">
      <defs>
       <path id="DejaVuSans-38" d="M 2034 2216 
Q 1584 2216 1326 1975 
Q 1069 1734 1069 1313 
Q 1069 891 1326 650 
Q 1584 409 2034 409 
Q 2484 409 2743 651 
Q 3003 894 3003 1313 
Q 3003 1734 2745 1975 
Q 2488 2216 2034 2216 
z
M 1403 2484 
Q 997 2584 770 2862 
Q 544 3141 544 3541 
Q 544 4100 942 4425 
Q 1341 4750 2034 4750 
Q 2731 4750 3128 4425 
Q 3525 4100 3525 3541 
Q 3525 3141 3298 2862 
Q 3072 2584 2669 2484 
Q 3125 2378 3379 2068 
Q 3634 1759 3634 1313 
Q 3634 634 3220 271 
Q 2806 -91 2034 -91 
Q 1263 -91 848 271 
Q 434 634 434 1313 
Q 434 1759 690 2068 
Q 947 2378 1403 2484 
z
M 1172 3481 
Q 1172 3119 1398 2916 
Q 1625 2713 2034 2713 
Q 2441 2713 2670 2916 
Q 2900 3119 2900 3481 
Q 2900 3844 2670 4047 
Q 2441 4250 2034 4250 
Q 1625 4250 1398 4047 
Q 1172 3844 1172 3481 
z
" transform="scale(0.015625)"/>
      </defs>
      <use xlink:href="#DejaVuSans-51"/>
      <use xlink:href="#DejaVuSans-42" x="78.710938"/>
      <use xlink:href="#DejaVuSans-45" x="147.314453"/>
      <use xlink:href="#DejaVuSans-52" x="210.498047"/>
      <use xlink:href="#DejaVuSans-3a" x="276.855469"/>
      <use xlink:href="#DejaVuSans-20" x="310.546875"/>
      <use xlink:href="#DejaVuSans-38" x="342.333984"/>
     </g>
    </g>
    <g id="line2d_36">
     <path d="M 330.760625 263.648062 
L 340.760625 263.648062 
L 350.760625 263.648062 
" style="fill: none; stroke: #bcbd22; stroke-width: 1.5; stroke-linecap: square"/>
    </g>
    <g id="text_28">
     <!-- QBER: 9 -->
     <g transform="translate(358.760625 267.148062)scale(0.1 -0.1)">
      <defs>
       <path id="DejaVuSans-39" d="M 703 97 
L 703 672 
Q 941 559 1184 500 
Q 1428 441 1663 441 
Q 2288 441 2617 861 
Q 2947 1281 2994 2138 
Q 2813 1869 2534 1725 
Q 2256 1581 1919 1581 
Q 1219 1581 811 2004 
Q 403 2428 403 3163 
Q 403 3881 828 4315 
Q 1253 4750 1959 4750 
Q 2769 4750 3195 4129 
Q 3622 3509 3622 2328 
Q 3622 1225 3098 567 
Q 2575 -91 1691 -91 
Q 1453 -91 1209 -44 
Q 966 3 703 97 
z
M 1959 2075 
Q 2384 2075 2632 2365 
Q 2881 2656 2881 3163 
Q 2881 3666 2632 3958 
Q 2384 4250 1959 4250 
Q 1534 4250 1286 3958 
Q 1038 3666 1038 3163 
Q 1038 2656 1286 2365 
Q 1534 2075 1959 2075 
z
" transform="scale(0.015625)"/>
      </defs>
      <use xlink:href="#DejaVuSans-51"/>
      <use xlink:href="#DejaVuSans-42" x="78.710938"/>
      <use xlink:href="#DejaVuSans-45" x="147.314453"/>
      <use xlink:href="#DejaVuSans-52" x="210.498047"/>
      <use xlink:href="#DejaVuSans-3a" x="276.855469"/>
      <use xlink:href="#DejaVuSans-20" x="310.546875"/>
      <use xlink:href="#DejaVuSans-39" x="342.333984"/>
     </g>
    </g>
    <g id="line2d_37">
     <path d="M 330.760625 278.326187 
L 340.760625 278.326187 
L 350.760625 278.326187 
" style="fill: none; stroke: #17becf; stroke-width: 1.5; stroke-linecap: square"/>
    </g>
    <g id="text_29">
     <!-- QBER: 10 -->
     <g transform="translate(358.760625 281.826187)scale(0.1 -0.1)">
      <use xlink:href="#DejaVuSans-51"/>
      <use xlink:href="#DejaVuSans-42" x="78.710938"/>
      <use xlink:href="#DejaVuSans-45" x="147.314453"/>
      <use xlink:href="#DejaVuSans-52" x="210.498047"/>
      <use xlink:href="#DejaVuSans-3a" x="276.855469"/>
      <use xlink:href="#DejaVuSans-20" x="310.546875"/>
      <use xlink:href="#DejaVuSans-31" x="342.333984"/>
      <use xlink:href="#DejaVuSans-30" x="405.957031"/>
     </g>
    </g>
    <g id="line2d_38">
     <path d="M 330.760625 293.004312 
L 340.760625 293.004312 
L 350.760625 293.004312 
" style="fill: none; stroke: #1f77b4; stroke-width: 1.5; stroke-linecap: square"/>
    </g>
    <g id="text_30">
     <!-- QBER: 11 -->
     <g transform="translate(358.760625 296.504312)scale(0.1 -0.1)">
      <use xlink:href="#DejaVuSans-51"/>
      <use xlink:href="#DejaVuSans-42" x="78.710938"/>
      <use xlink:href="#DejaVuSans-45" x="147.314453"/>
      <use xlink:href="#DejaVuSans-52" x="210.498047"/>
      <use xlink:href="#DejaVuSans-3a" x="276.855469"/>
      <use xlink:href="#DejaVuSans-20" x="310.546875"/>
      <use xlink:href="#DejaVuSans-31" x="342.333984"/>
      <use xlink:href="#DejaVuSans-31" x="405.957031"/>
     </g>
    </g>
   </g>
  </g>
 </g>
 <defs>
  <clipPath id="pf1948e9ae8">
   <rect x="57.6" y="41.472" width="357.12" height="266.112"/>
  </clipPath>
 </defs>
</svg>
