<?xml version="1.0" encoding="utf-8" standalone="no"?>
<!DOCTYPE svg PUBLIC "-//W3C//DTD SVG 1.1//EN"
  "http://www.w3.org/Graphics/SVG/1.1/DTD/svg11.dtd">
<svg xmlns:xlink="http://www.w3.org/1999/xlink" width="460.8pt" height="345.6pt" viewBox="0 0 460.8 345.6" xmlns="http://www.w3.org/2000/svg" version="1.1">
 <metadata>
  <rdf:RDF xmlns:dc="http://purl.org/dc/elements/1.1/" xmlns:cc="http://creativecommons.org/ns#" xmlns:rdf="http://www.w3.org/1999/02/22-rdf-syntax-ns#">
   <cc:Work>
    <dc:type rdf:resource="http://purl.org/dc/dcmitype/StillImage"/>
    <dc:date>2023-09-06T21:23:30.483398</dc:date>
    <dc:format>image/svg+xml</dc:format>
    <dc:creator>
     <cc:Agent>
      <dc:title>Matplotlib v3.5.3, https://matplotlib.org/</dc:title>
     </cc:Agent>
    </dc:creator>
   </cc:Work>
  </rdf:RDF>
 </metadata>
 <defs>
  <style type="text/css">*{stroke-linejoin: round; stroke-linecap: butt}</style>
 </defs>
 <g id="figure_1">
  <g id="patch_1">
   <path d="M 0 345.6 
L 460.8 345.6 
L 460.8 0 
L 0 0 
z
" style="fill: #ffffff"/>
  </g>
  <g id="axes_1">
   <g id="patch_2">
    <path d="M 57.6 307.584 
L 414.72 307.584 
L 414.72 41.472 
L 57.6 41.472 
z
" style="fill: #ffffff"/>
   </g>
   <g id="matplotlib.axis_1">
    <g id="xtick_1">
     <g id="line2d_1">
      <defs>
       <path id="m64cdae1cee" d="M 0 0 
L 0 3.5 
" style="stroke: #000000; stroke-width: 0.8"/>
      </defs>
      <g>
       <use xlink:href="#m64cdae1cee" x="73.351758" y="307.584" style="stroke: #000000; stroke-width: 0.8"/>
      </g>
     </g>
     <g id="text_1">
      <!-- 0 -->
      <g transform="translate(70.170508 322.182437)scale(0.1 -0.1)">
       <defs>
        <path id="DejaVuSans-30" d="M 2034 4250 
Q 1547 4250 1301 3770 
Q 1056 3291 1056 2328 
Q 1056 1369 1301 889 
Q 1547 409 2034 409 
Q 2525 409 2770 889 
Q 3016 1369 3016 2328 
Q 3016 3291 2770 3770 
Q 2525 4250 2034 4250 
z
M 2034 4750 
Q 2819 4750 3233 4129 
Q 3647 3509 3647 2328 
Q 3647 1150 3233 529 
Q 2819 -91 2034 -91 
Q 1250 -91 836 529 
Q 422 1150 422 2328 
Q 422 3509 836 4129 
Q 1250 4750 2034 4750 
z
" transform="scale(0.015625)"/>
       </defs>
       <use xlink:href="#DejaVuSans-30"/>
      </g>
     </g>
    </g>
    <g id="xtick_2">
     <g id="line2d_2">
      <g>
       <use xlink:href="#m64cdae1cee" x="121.448727" y="307.584" style="stroke: #000000; stroke-width: 0.8"/>
      </g>
     </g>
     <g id="text_2">
      <!-- 2500 -->
      <g transform="translate(108.723727 322.182437)scale(0.1 -0.1)">
       <defs>
        <path id="DejaVuSans-32" d="M 1228 531 
L 3431 531 
L 3431 0 
L 469 0 
L 469 531 
Q 828 903 1448 1529 
Q 2069 2156 2228 2338 
Q 2531 2678 2651 2914 
Q 2772 3150 2772 3378 
Q 2772 3750 2511 3984 
Q 2250 4219 1831 4219 
Q 1534 4219 1204 4116 
Q 875 4013 500 3803 
L 500 4441 
Q 881 4594 1212 4672 
Q 1544 4750 1819 4750 
Q 2544 4750 2975 4387 
Q 3406 4025 3406 3419 
Q 3406 3131 3298 2873 
Q 3191 2616 2906 2266 
Q 2828 2175 2409 1742 
Q 1991 1309 1228 531 
z
" transform="scale(0.015625)"/>
        <path id="DejaVuSans-35" d="M 691 4666 
L 3169 4666 
L 3169 4134 
L 1269 4134 
L 1269 2991 
Q 1406 3038 1543 3061 
Q 1681 3084 1819 3084 
Q 2600 3084 3056 2656 
Q 3513 2228 3513 1497 
Q 3513 744 3044 326 
Q 2575 -91 1722 -91 
Q 1428 -91 1123 -41 
Q 819 9 494 109 
L 494 744 
Q 775 591 1075 516 
Q 1375 441 1709 441 
Q 2250 441 2565 725 
Q 2881 1009 2881 1497 
Q 2881 1984 2565 2268 
Q 2250 2553 1709 2553 
Q 1456 2553 1204 2497 
Q 953 2441 691 2322 
L 691 4666 
z
" transform="scale(0.015625)"/>
       </defs>
       <use xlink:href="#DejaVuSans-32"/>
       <use xlink:href="#DejaVuSans-35" x="63.623047"/>
       <use xlink:href="#DejaVuSans-30" x="127.246094"/>
       <use xlink:href="#DejaVuSans-30" x="190.869141"/>
      </g>
     </g>
    </g>
    <g id="xtick_3">
     <g id="line2d_3">
      <g>
       <use xlink:href="#m64cdae1cee" x="169.545697" y="307.584" style="stroke: #000000; stroke-width: 0.8"/>
      </g>
     </g>
     <g id="text_3">
      <!-- 5000 -->
      <g transform="translate(156.820697 322.182437)scale(0.1 -0.1)">
       <use xlink:href="#DejaVuSans-35"/>
       <use xlink:href="#DejaVuSans-30" x="63.623047"/>
       <use xlink:href="#DejaVuSans-30" x="127.246094"/>
       <use xlink:href="#DejaVuSans-30" x="190.869141"/>
      </g>
     </g>
    </g>
    <g id="xtick_4">
     <g id="line2d_4">
      <g>
       <use xlink:href="#m64cdae1cee" x="217.642667" y="307.584" style="stroke: #000000; stroke-width: 0.8"/>
      </g>
     </g>
     <g id="text_4">
      <!-- 7500 -->
      <g transform="translate(204.917667 322.182437)scale(0.1 -0.1)">
       <defs>
        <path id="DejaVuSans-37" d="M 525 4666 
L 3525 4666 
L 3525 4397 
L 1831 0 
L 1172 0 
L 2766 4134 
L 525 4134 
L 525 4666 
z
" transform="scale(0.015625)"/>
       </defs>
       <use xlink:href="#DejaVuSans-37"/>
       <use xlink:href="#DejaVuSans-35" x="63.623047"/>
       <use xlink:href="#DejaVuSans-30" x="127.246094"/>
       <use xlink:href="#DejaVuSans-30" x="190.869141"/>
      </g>
     </g>
    </g>
    <g id="xtick_5">
     <g id="line2d_5">
      <g>
       <use xlink:href="#m64cdae1cee" x="265.739636" y="307.584" style="stroke: #000000; stroke-width: 0.8"/>
      </g>
     </g>
     <g id="text_5">
      <!-- 10000 -->
      <g transform="translate(249.833386 322.182437)scale(0.1 -0.1)">
       <defs>
        <path id="DejaVuSans-31" d="M 794 531 
L 1825 531 
L 1825 4091 
L 703 3866 
L 703 4441 
L 1819 4666 
L 2450 4666 
L 2450 531 
L 3481 531 
L 3481 0 
L 794 0 
L 794 531 
z
" transform="scale(0.015625)"/>
       </defs>
       <use xlink:href="#DejaVuSans-31"/>
       <use xlink:href="#DejaVuSans-30" x="63.623047"/>
       <use xlink:href="#DejaVuSans-30" x="127.246094"/>
       <use xlink:href="#DejaVuSans-30" x="190.869141"/>
       <use xlink:href="#DejaVuSans-30" x="254.492188"/>
      </g>
     </g>
    </g>
    <g id="xtick_6">
     <g id="line2d_6">
      <g>
       <use xlink:href="#m64cdae1cee" x="313.836606" y="307.584" style="stroke: #000000; stroke-width: 0.8"/>
      </g>
     </g>
     <g id="text_6">
      <!-- 12500 -->
      <g transform="translate(297.930356 322.182437)scale(0.1 -0.1)">
       <use xlink:href="#DejaVuSans-31"/>
       <use xlink:href="#DejaVuSans-32" x="63.623047"/>
       <use xlink:href="#DejaVuSans-35" x="127.246094"/>
       <use xlink:href="#DejaVuSans-30" x="190.869141"/>
       <use xlink:href="#DejaVuSans-30" x="254.492188"/>
      </g>
     </g>
    </g>
    <g id="xtick_7">
     <g id="line2d_7">
      <g>
       <use xlink:href="#m64cdae1cee" x="361.933576" y="307.584" style="stroke: #000000; stroke-width: 0.8"/>
      </g>
     </g>
     <g id="text_7">
      <!-- 15000 -->
      <g transform="translate(346.027326 322.182437)scale(0.1 -0.1)">
       <use xlink:href="#DejaVuSans-31"/>
       <use xlink:href="#DejaVuSans-35" x="63.623047"/>
       <use xlink:href="#DejaVuSans-30" x="127.246094"/>
       <use xlink:href="#DejaVuSans-30" x="190.869141"/>
       <use xlink:href="#DejaVuSans-30" x="254.492188"/>
      </g>
     </g>
    </g>
    <g id="xtick_8">
     <g id="line2d_8">
      <g>
       <use xlink:href="#m64cdae1cee" x="410.030545" y="307.584" style="stroke: #000000; stroke-width: 0.8"/>
      </g>
     </g>
     <g id="text_8">
      <!-- 17500 -->
      <g transform="translate(394.124295 322.182437)scale(0.1 -0.1)">
       <use xlink:href="#DejaVuSans-31"/>
       <use xlink:href="#DejaVuSans-37" x="63.623047"/>
       <use xlink:href="#DejaVuSans-35" x="127.246094"/>
       <use xlink:href="#DejaVuSans-30" x="190.869141"/>
       <use xlink:href="#DejaVuSans-30" x="254.492188"/>
      </g>
     </g>
    </g>
    <g id="text_9">
     <!-- Number of input neurons multiplied by number of hidden neurons [N*K] -->
     <g transform="translate(56.102969 335.860562)scale(0.1 -0.1)">
      <defs>
       <path id="DejaVuSans-4e" d="M 628 4666 
L 1478 4666 
L 3547 763 
L 3547 4666 
L 4159 4666 
L 4159 0 
L 3309 0 
L 1241 3903 
L 1241 0 
L 628 0 
L 628 4666 
z
" transform="scale(0.015625)"/>
       <path id="DejaVuSans-75" d="M 544 1381 
L 544 3500 
L 1119 3500 
L 1119 1403 
Q 1119 906 1312 657 
Q 1506 409 1894 409 
Q 2359 409 2629 706 
Q 2900 1003 2900 1516 
L 2900 3500 
L 3475 3500 
L 3475 0 
L 2900 0 
L 2900 538 
Q 2691 219 2414 64 
Q 2138 -91 1772 -91 
Q 1169 -91 856 284 
Q 544 659 544 1381 
z
M 1991 3584 
L 1991 3584 
z
" transform="scale(0.015625)"/>
       <path id="DejaVuSans-6d" d="M 3328 2828 
Q 3544 3216 3844 3400 
Q 4144 3584 4550 3584 
Q 5097 3584 5394 3201 
Q 5691 2819 5691 2113 
L 5691 0 
L 5113 0 
L 5113 2094 
Q 5113 2597 4934 2840 
Q 4756 3084 4391 3084 
Q 3944 3084 3684 2787 
Q 3425 2491 3425 1978 
L 3425 0 
L 2847 0 
L 2847 2094 
Q 2847 2600 2669 2842 
Q 2491 3084 2119 3084 
Q 1678 3084 1418 2786 
Q 1159 2488 1159 1978 
L 1159 0 
L 581 0 
L 581 3500 
L 1159 3500 
L 1159 2956 
Q 1356 3278 1631 3431 
Q 1906 3584 2284 3584 
Q 2666 3584 2933 3390 
Q 3200 3197 3328 2828 
z
" transform="scale(0.015625)"/>
       <path id="DejaVuSans-62" d="M 3116 1747 
Q 3116 2381 2855 2742 
Q 2594 3103 2138 3103 
Q 1681 3103 1420 2742 
Q 1159 2381 1159 1747 
Q 1159 1113 1420 752 
Q 1681 391 2138 391 
Q 2594 391 2855 752 
Q 3116 1113 3116 1747 
z
M 1159 2969 
Q 1341 3281 1617 3432 
Q 1894 3584 2278 3584 
Q 2916 3584 3314 3078 
Q 3713 2572 3713 1747 
Q 3713 922 3314 415 
Q 2916 -91 2278 -91 
Q 1894 -91 1617 61 
Q 1341 213 1159 525 
L 1159 0 
L 581 0 
L 581 4863 
L 1159 4863 
L 1159 2969 
z
" transform="scale(0.015625)"/>
       <path id="DejaVuSans-65" d="M 3597 1894 
L 3597 1613 
L 953 1613 
Q 991 1019 1311 708 
Q 1631 397 2203 397 
Q 2534 397 2845 478 
Q 3156 559 3463 722 
L 3463 178 
Q 3153 47 2828 -22 
Q 2503 -91 2169 -91 
Q 1331 -91 842 396 
Q 353 884 353 1716 
Q 353 2575 817 3079 
Q 1281 3584 2069 3584 
Q 2775 3584 3186 3129 
Q 3597 2675 3597 1894 
z
M 3022 2063 
Q 3016 2534 2758 2815 
Q 2500 3097 2075 3097 
Q 1594 3097 1305 2825 
Q 1016 2553 972 2059 
L 3022 2063 
z
" transform="scale(0.015625)"/>
       <path id="DejaVuSans-72" d="M 2631 2963 
Q 2534 3019 2420 3045 
Q 2306 3072 2169 3072 
Q 1681 3072 1420 2755 
Q 1159 2438 1159 1844 
L 1159 0 
L 581 0 
L 581 3500 
L 1159 3500 
L 1159 2956 
Q 1341 3275 1631 3429 
Q 1922 3584 2338 3584 
Q 2397 3584 2469 3576 
Q 2541 3569 2628 3553 
L 2631 2963 
z
" transform="scale(0.015625)"/>
       <path id="DejaVuSans-20" transform="scale(0.015625)"/>
       <path id="DejaVuSans-6f" d="M 1959 3097 
Q 1497 3097 1228 2736 
Q 959 2375 959 1747 
Q 959 1119 1226 758 
Q 1494 397 1959 397 
Q 2419 397 2687 759 
Q 2956 1122 2956 1747 
Q 2956 2369 2687 2733 
Q 2419 3097 1959 3097 
z
M 1959 3584 
Q 2709 3584 3137 3096 
Q 3566 2609 3566 1747 
Q 3566 888 3137 398 
Q 2709 -91 1959 -91 
Q 1206 -91 779 398 
Q 353 888 353 1747 
Q 353 2609 779 3096 
Q 1206 3584 1959 3584 
z
" transform="scale(0.015625)"/>
       <path id="DejaVuSans-66" d="M 2375 4863 
L 2375 4384 
L 1825 4384 
Q 1516 4384 1395 4259 
Q 1275 4134 1275 3809 
L 1275 3500 
L 2222 3500 
L 2222 3053 
L 1275 3053 
L 1275 0 
L 697 0 
L 697 3053 
L 147 3053 
L 147 3500 
L 697 3500 
L 697 3744 
Q 697 4328 969 4595 
Q 1241 4863 1831 4863 
L 2375 4863 
z
" transform="scale(0.015625)"/>
       <path id="DejaVuSans-69" d="M 603 3500 
L 1178 3500 
L 1178 0 
L 603 0 
L 603 3500 
z
M 603 4863 
L 1178 4863 
L 1178 4134 
L 603 4134 
L 603 4863 
z
" transform="scale(0.015625)"/>
       <path id="DejaVuSans-6e" d="M 3513 2113 
L 3513 0 
L 2938 0 
L 2938 2094 
Q 2938 2591 2744 2837 
Q 2550 3084 2163 3084 
Q 1697 3084 1428 2787 
Q 1159 2491 1159 1978 
L 1159 0 
L 581 0 
L 581 3500 
L 1159 3500 
L 1159 2956 
Q 1366 3272 1645 3428 
Q 1925 3584 2291 3584 
Q 2894 3584 3203 3211 
Q 3513 2838 3513 2113 
z
" transform="scale(0.015625)"/>
       <path id="DejaVuSans-70" d="M 1159 525 
L 1159 -1331 
L 581 -1331 
L 581 3500 
L 1159 3500 
L 1159 2969 
Q 1341 3281 1617 3432 
Q 1894 3584 2278 3584 
Q 2916 3584 3314 3078 
Q 3713 2572 3713 1747 
Q 3713 922 3314 415 
Q 2916 -91 2278 -91 
Q 1894 -91 1617 61 
Q 1341 213 1159 525 
z
M 3116 1747 
Q 3116 2381 2855 2742 
Q 2594 3103 2138 3103 
Q 1681 3103 1420 2742 
Q 1159 2381 1159 1747 
Q 1159 1113 1420 752 
Q 1681 391 2138 391 
Q 2594 391 2855 752 
Q 3116 1113 3116 1747 
z
" transform="scale(0.015625)"/>
       <path id="DejaVuSans-74" d="M 1172 4494 
L 1172 3500 
L 2356 3500 
L 2356 3053 
L 1172 3053 
L 1172 1153 
Q 1172 725 1289 603 
Q 1406 481 1766 481 
L 2356 481 
L 2356 0 
L 1766 0 
Q 1100 0 847 248 
Q 594 497 594 1153 
L 594 3053 
L 172 3053 
L 172 3500 
L 594 3500 
L 594 4494 
L 1172 4494 
z
" transform="scale(0.015625)"/>
       <path id="DejaVuSans-73" d="M 2834 3397 
L 2834 2853 
Q 2591 2978 2328 3040 
Q 2066 3103 1784 3103 
Q 1356 3103 1142 2972 
Q 928 2841 928 2578 
Q 928 2378 1081 2264 
Q 1234 2150 1697 2047 
L 1894 2003 
Q 2506 1872 2764 1633 
Q 3022 1394 3022 966 
Q 3022 478 2636 193 
Q 2250 -91 1575 -91 
Q 1294 -91 989 -36 
Q 684 19 347 128 
L 347 722 
Q 666 556 975 473 
Q 1284 391 1588 391 
Q 1994 391 2212 530 
Q 2431 669 2431 922 
Q 2431 1156 2273 1281 
Q 2116 1406 1581 1522 
L 1381 1569 
Q 847 1681 609 1914 
Q 372 2147 372 2553 
Q 372 3047 722 3315 
Q 1072 3584 1716 3584 
Q 2034 3584 2315 3537 
Q 2597 3491 2834 3397 
z
" transform="scale(0.015625)"/>
       <path id="DejaVuSans-6c" d="M 603 4863 
L 1178 4863 
L 1178 0 
L 603 0 
L 603 4863 
z
" transform="scale(0.015625)"/>
       <path id="DejaVuSans-64" d="M 2906 2969 
L 2906 4863 
L 3481 4863 
L 3481 0 
L 2906 0 
L 2906 525 
Q 2725 213 2448 61 
Q 2172 -91 1784 -91 
Q 1150 -91 751 415 
Q 353 922 353 1747 
Q 353 2572 751 3078 
Q 1150 3584 1784 3584 
Q 2172 3584 2448 3432 
Q 2725 3281 2906 2969 
z
M 947 1747 
Q 947 1113 1208 752 
Q 1469 391 1925 391 
Q 2381 391 2643 752 
Q 2906 1113 2906 1747 
Q 2906 2381 2643 2742 
Q 2381 3103 1925 3103 
Q 1469 3103 1208 2742 
Q 947 2381 947 1747 
z
" transform="scale(0.015625)"/>
       <path id="DejaVuSans-79" d="M 2059 -325 
Q 1816 -950 1584 -1140 
Q 1353 -1331 966 -1331 
L 506 -1331 
L 506 -850 
L 844 -850 
Q 1081 -850 1212 -737 
Q 1344 -625 1503 -206 
L 1606 56 
L 191 3500 
L 800 3500 
L 1894 763 
L 2988 3500 
L 3597 3500 
L 2059 -325 
z
" transform="scale(0.015625)"/>
       <path id="DejaVuSans-68" d="M 3513 2113 
L 3513 0 
L 2938 0 
L 2938 2094 
Q 2938 2591 2744 2837 
Q 2550 3084 2163 3084 
Q 1697 3084 1428 2787 
Q 1159 2491 1159 1978 
L 1159 0 
L 581 0 
L 581 4863 
L 1159 4863 
L 1159 2956 
Q 1366 3272 1645 3428 
Q 1925 3584 2291 3584 
Q 2894 3584 3203 3211 
Q 3513 2838 3513 2113 
z
" transform="scale(0.015625)"/>
       <path id="DejaVuSans-5b" d="M 550 4863 
L 1875 4863 
L 1875 4416 
L 1125 4416 
L 1125 -397 
L 1875 -397 
L 1875 -844 
L 550 -844 
L 550 4863 
z
" transform="scale(0.015625)"/>
       <path id="DejaVuSans-2a" d="M 3009 3897 
L 1888 3291 
L 3009 2681 
L 2828 2375 
L 1778 3009 
L 1778 1831 
L 1422 1831 
L 1422 3009 
L 372 2375 
L 191 2681 
L 1313 3291 
L 191 3897 
L 372 4206 
L 1422 3572 
L 1422 4750 
L 1778 4750 
L 1778 3572 
L 2828 4206 
L 3009 3897 
z
" transform="scale(0.015625)"/>
       <path id="DejaVuSans-4b" d="M 628 4666 
L 1259 4666 
L 1259 2694 
L 3353 4666 
L 4166 4666 
L 1850 2491 
L 4331 0 
L 3500 0 
L 1259 2247 
L 1259 0 
L 628 0 
L 628 4666 
z
" transform="scale(0.015625)"/>
       <path id="DejaVuSans-5d" d="M 1947 4863 
L 1947 -844 
L 622 -844 
L 622 -397 
L 1369 -397 
L 1369 4416 
L 622 4416 
L 622 4863 
L 1947 4863 
z
" transform="scale(0.015625)"/>
      </defs>
      <use xlink:href="#DejaVuSans-4e"/>
      <use xlink:href="#DejaVuSans-75" x="74.804688"/>
      <use xlink:href="#DejaVuSans-6d" x="138.183594"/>
      <use xlink:href="#DejaVuSans-62" x="235.595703"/>
      <use xlink:href="#DejaVuSans-65" x="299.072266"/>
      <use xlink:href="#DejaVuSans-72" x="360.595703"/>
      <use xlink:href="#DejaVuSans-20" x="401.708984"/>
      <use xlink:href="#DejaVuSans-6f" x="433.496094"/>
      <use xlink:href="#DejaVuSans-66" x="494.677734"/>
      <use xlink:href="#DejaVuSans-20" x="529.882812"/>
      <use xlink:href="#DejaVuSans-69" x="561.669922"/>
      <use xlink:href="#DejaVuSans-6e" x="589.453125"/>
      <use xlink:href="#DejaVuSans-70" x="652.832031"/>
      <use xlink:href="#DejaVuSans-75" x="716.308594"/>
      <use xlink:href="#DejaVuSans-74" x="779.6875"/>
      <use xlink:href="#DejaVuSans-20" x="818.896484"/>
      <use xlink:href="#DejaVuSans-6e" x="850.683594"/>
      <use xlink:href="#DejaVuSans-65" x="914.0625"/>
      <use xlink:href="#DejaVuSans-75" x="975.585938"/>
      <use xlink:href="#DejaVuSans-72" x="1038.964844"/>
      <use xlink:href="#DejaVuSans-6f" x="1077.828125"/>
      <use xlink:href="#DejaVuSans-6e" x="1139.009766"/>
      <use xlink:href="#DejaVuSans-73" x="1202.388672"/>
      <use xlink:href="#DejaVuSans-20" x="1254.488281"/>
      <use xlink:href="#DejaVuSans-6d" x="1286.275391"/>
      <use xlink:href="#DejaVuSans-75" x="1383.6875"/>
      <use xlink:href="#DejaVuSans-6c" x="1447.066406"/>
      <use xlink:href="#DejaVuSans-74" x="1474.849609"/>
      <use xlink:href="#DejaVuSans-69" x="1514.058594"/>
      <use xlink:href="#DejaVuSans-70" x="1541.841797"/>
      <use xlink:href="#DejaVuSans-6c" x="1605.318359"/>
      <use xlink:href="#DejaVuSans-69" x="1633.101562"/>
      <use xlink:href="#DejaVuSans-65" x="1660.884766"/>
      <use xlink:href="#DejaVuSans-64" x="1722.408203"/>
      <use xlink:href="#DejaVuSans-20" x="1785.884766"/>
      <use xlink:href="#DejaVuSans-62" x="1817.671875"/>
      <use xlink:href="#DejaVuSans-79" x="1881.148438"/>
      <use xlink:href="#DejaVuSans-20" x="1940.328125"/>
      <use xlink:href="#DejaVuSans-6e" x="1972.115234"/>
      <use xlink:href="#DejaVuSans-75" x="2035.494141"/>
      <use xlink:href="#DejaVuSans-6d" x="2098.873047"/>
      <use xlink:href="#DejaVuSans-62" x="2196.285156"/>
      <use xlink:href="#DejaVuSans-65" x="2259.761719"/>
      <use xlink:href="#DejaVuSans-72" x="2321.285156"/>
      <use xlink:href="#DejaVuSans-20" x="2362.398438"/>
      <use xlink:href="#DejaVuSans-6f" x="2394.185547"/>
      <use xlink:href="#DejaVuSans-66" x="2455.367188"/>
      <use xlink:href="#DejaVuSans-20" x="2490.572266"/>
      <use xlink:href="#DejaVuSans-68" x="2522.359375"/>
      <use xlink:href="#DejaVuSans-69" x="2585.738281"/>
      <use xlink:href="#DejaVuSans-64" x="2613.521484"/>
      <use xlink:href="#DejaVuSans-64" x="2676.998047"/>
      <use xlink:href="#DejaVuSans-65" x="2740.474609"/>
      <use xlink:href="#DejaVuSans-6e" x="2801.998047"/>
      <use xlink:href="#DejaVuSans-20" x="2865.376953"/>
      <use xlink:href="#DejaVuSans-6e" x="2897.164062"/>
      <use xlink:href="#DejaVuSans-65" x="2960.542969"/>
      <use xlink:href="#DejaVuSans-75" x="3022.066406"/>
      <use xlink:href="#DejaVuSans-72" x="3085.445312"/>
      <use xlink:href="#DejaVuSans-6f" x="3124.308594"/>
      <use xlink:href="#DejaVuSans-6e" x="3185.490234"/>
      <use xlink:href="#DejaVuSans-73" x="3248.869141"/>
      <use xlink:href="#DejaVuSans-20" x="3300.96875"/>
      <use xlink:href="#DejaVuSans-5b" x="3332.755859"/>
      <use xlink:href="#DejaVuSans-4e" x="3371.769531"/>
      <use xlink:href="#DejaVuSans-2a" x="3446.574219"/>
      <use xlink:href="#DejaVuSans-4b" x="3496.574219"/>
      <use xlink:href="#DejaVuSans-5d" x="3562.150391"/>
     </g>
    </g>
   </g>
   <g id="matplotlib.axis_2">
    <g id="ytick_1">
     <g id="line2d_9">
      <defs>
       <path id="m1ac8cd3ff9" d="M 0 0 
L -3.5 0 
" style="stroke: #000000; stroke-width: 0.8"/>
      </defs>
      <g>
       <use xlink:href="#m1ac8cd3ff9" x="57.6" y="276.08579" style="stroke: #000000; stroke-width: 0.8"/>
      </g>
     </g>
     <g id="text_10">
      <!-- 10 -->
      <g transform="translate(37.875 279.885009)scale(0.1 -0.1)">
       <use xlink:href="#DejaVuSans-31"/>
       <use xlink:href="#DejaVuSans-30" x="63.623047"/>
      </g>
     </g>
    </g>
    <g id="ytick_2">
     <g id="line2d_10">
      <g>
       <use xlink:href="#m1ac8cd3ff9" x="57.6" y="243.467645" style="stroke: #000000; stroke-width: 0.8"/>
      </g>
     </g>
     <g id="text_11">
      <!-- 20 -->
      <g transform="translate(37.875 247.266864)scale(0.1 -0.1)">
       <use xlink:href="#DejaVuSans-32"/>
       <use xlink:href="#DejaVuSans-30" x="63.623047"/>
      </g>
     </g>
    </g>
    <g id="ytick_3">
     <g id="line2d_11">
      <g>
       <use xlink:href="#m1ac8cd3ff9" x="57.6" y="210.8495" style="stroke: #000000; stroke-width: 0.8"/>
      </g>
     </g>
     <g id="text_12">
      <!-- 30 -->
      <g transform="translate(37.875 214.648719)scale(0.1 -0.1)">
       <defs>
        <path id="DejaVuSans-33" d="M 2597 2516 
Q 3050 2419 3304 2112 
Q 3559 1806 3559 1356 
Q 3559 666 3084 287 
Q 2609 -91 1734 -91 
Q 1441 -91 1130 -33 
Q 819 25 488 141 
L 488 750 
Q 750 597 1062 519 
Q 1375 441 1716 441 
Q 2309 441 2620 675 
Q 2931 909 2931 1356 
Q 2931 1769 2642 2001 
Q 2353 2234 1838 2234 
L 1294 2234 
L 1294 2753 
L 1863 2753 
Q 2328 2753 2575 2939 
Q 2822 3125 2822 3475 
Q 2822 3834 2567 4026 
Q 2313 4219 1838 4219 
Q 1578 4219 1281 4162 
Q 984 4106 628 3988 
L 628 4550 
Q 988 4650 1302 4700 
Q 1616 4750 1894 4750 
Q 2613 4750 3031 4423 
Q 3450 4097 3450 3541 
Q 3450 3153 3228 2886 
Q 3006 2619 2597 2516 
z
" transform="scale(0.015625)"/>
       </defs>
       <use xlink:href="#DejaVuSans-33"/>
       <use xlink:href="#DejaVuSans-30" x="63.623047"/>
      </g>
     </g>
    </g>
    <g id="ytick_4">
     <g id="line2d_12">
      <g>
       <use xlink:href="#m1ac8cd3ff9" x="57.6" y="178.231355" style="stroke: #000000; stroke-width: 0.8"/>
      </g>
     </g>
     <g id="text_13">
      <!-- 40 -->
      <g transform="translate(37.875 182.030573)scale(0.1 -0.1)">
       <defs>
        <path id="DejaVuSans-34" d="M 2419 4116 
L 825 1625 
L 2419 1625 
L 2419 4116 
z
M 2253 4666 
L 3047 4666 
L 3047 1625 
L 3713 1625 
L 3713 1100 
L 3047 1100 
L 3047 0 
L 2419 0 
L 2419 1100 
L 313 1100 
L 313 1709 
L 2253 4666 
z
" transform="scale(0.015625)"/>
       </defs>
       <use xlink:href="#DejaVuSans-34"/>
       <use xlink:href="#DejaVuSans-30" x="63.623047"/>
      </g>
     </g>
    </g>
    <g id="ytick_5">
     <g id="line2d_13">
      <g>
       <use xlink:href="#m1ac8cd3ff9" x="57.6" y="145.613209" style="stroke: #000000; stroke-width: 0.8"/>
      </g>
     </g>
     <g id="text_14">
      <!-- 50 -->
      <g transform="translate(37.875 149.412428)scale(0.1 -0.1)">
       <use xlink:href="#DejaVuSans-35"/>
       <use xlink:href="#DejaVuSans-30" x="63.623047"/>
      </g>
     </g>
    </g>
    <g id="ytick_6">
     <g id="line2d_14">
      <g>
       <use xlink:href="#m1ac8cd3ff9" x="57.6" y="112.995064" style="stroke: #000000; stroke-width: 0.8"/>
      </g>
     </g>
     <g id="text_15">
      <!-- 60 -->
      <g transform="translate(37.875 116.794283)scale(0.1 -0.1)">
       <defs>
        <path id="DejaVuSans-36" d="M 2113 2584 
Q 1688 2584 1439 2293 
Q 1191 2003 1191 1497 
Q 1191 994 1439 701 
Q 1688 409 2113 409 
Q 2538 409 2786 701 
Q 3034 994 3034 1497 
Q 3034 2003 2786 2293 
Q 2538 2584 2113 2584 
z
M 3366 4563 
L 3366 3988 
Q 3128 4100 2886 4159 
Q 2644 4219 2406 4219 
Q 1781 4219 1451 3797 
Q 1122 3375 1075 2522 
Q 1259 2794 1537 2939 
Q 1816 3084 2150 3084 
Q 2853 3084 3261 2657 
Q 3669 2231 3669 1497 
Q 3669 778 3244 343 
Q 2819 -91 2113 -91 
Q 1303 -91 875 529 
Q 447 1150 447 2328 
Q 447 3434 972 4092 
Q 1497 4750 2381 4750 
Q 2619 4750 2861 4703 
Q 3103 4656 3366 4563 
z
" transform="scale(0.015625)"/>
       </defs>
       <use xlink:href="#DejaVuSans-36"/>
       <use xlink:href="#DejaVuSans-30" x="63.623047"/>
      </g>
     </g>
    </g>
    <g id="ytick_7">
     <g id="line2d_15">
      <g>
       <use xlink:href="#m1ac8cd3ff9" x="57.6" y="80.376919" style="stroke: #000000; stroke-width: 0.8"/>
      </g>
     </g>
     <g id="text_16">
      <!-- 70 -->
      <g transform="translate(37.875 84.176138)scale(0.1 -0.1)">
       <use xlink:href="#DejaVuSans-37"/>
       <use xlink:href="#DejaVuSans-30" x="63.623047"/>
      </g>
     </g>
    </g>
    <g id="ytick_8">
     <g id="line2d_16">
      <g>
       <use xlink:href="#m1ac8cd3ff9" x="57.6" y="47.758773" style="stroke: #000000; stroke-width: 0.8"/>
      </g>
     </g>
     <g id="text_17">
      <!-- 80 -->
      <g transform="translate(37.875 51.557992)scale(0.1 -0.1)">
       <defs>
        <path id="DejaVuSans-38" d="M 2034 2216 
Q 1584 2216 1326 1975 
Q 1069 1734 1069 1313 
Q 1069 891 1326 650 
Q 1584 409 2034 409 
Q 2484 409 2743 651 
Q 3003 894 3003 1313 
Q 3003 1734 2745 1975 
Q 2488 2216 2034 2216 
z
M 1403 2484 
Q 997 2584 770 2862 
Q 544 3141 544 3541 
Q 544 4100 942 4425 
Q 1341 4750 2034 4750 
Q 2731 4750 3128 4425 
Q 3525 4100 3525 3541 
Q 3525 3141 3298 2862 
Q 3072 2584 2669 2484 
Q 3125 2378 3379 2068 
Q 3634 1759 3634 1313 
Q 3634 634 3220 271 
Q 2806 -91 2034 -91 
Q 1263 -91 848 271 
Q 434 634 434 1313 
Q 434 1759 690 2068 
Q 947 2378 1403 2484 
z
M 1172 3481 
Q 1172 3119 1398 2916 
Q 1625 2713 2034 2713 
Q 2441 2713 2670 2916 
Q 2900 3119 2900 3481 
Q 2900 3844 2670 4047 
Q 2441 4250 2034 4250 
Q 1625 4250 1398 4047 
Q 1172 3844 1172 3481 
z
" transform="scale(0.015625)"/>
       </defs>
       <use xlink:href="#DejaVuSans-38"/>
       <use xlink:href="#DejaVuSans-30" x="63.623047"/>
      </g>
     </g>
    </g>
    <g id="text_18">
     <!-- Mean number of required iterations of TPM -->
     <g transform="translate(31.795312 281.894406)rotate(-90)scale(0.1 -0.1)">
      <defs>
       <path id="DejaVuSans-4d" d="M 628 4666 
L 1569 4666 
L 2759 1491 
L 3956 4666 
L 4897 4666 
L 4897 0 
L 4281 0 
L 4281 4097 
L 3078 897 
L 2444 897 
L 1241 4097 
L 1241 0 
L 628 0 
L 628 4666 
z
" transform="scale(0.015625)"/>
       <path id="DejaVuSans-61" d="M 2194 1759 
Q 1497 1759 1228 1600 
Q 959 1441 959 1056 
Q 959 750 1161 570 
Q 1363 391 1709 391 
Q 2188 391 2477 730 
Q 2766 1069 2766 1631 
L 2766 1759 
L 2194 1759 
z
M 3341 1997 
L 3341 0 
L 2766 0 
L 2766 531 
Q 2569 213 2275 61 
Q 1981 -91 1556 -91 
Q 1019 -91 701 211 
Q 384 513 384 1019 
Q 384 1609 779 1909 
Q 1175 2209 1959 2209 
L 2766 2209 
L 2766 2266 
Q 2766 2663 2505 2880 
Q 2244 3097 1772 3097 
Q 1472 3097 1187 3025 
Q 903 2953 641 2809 
L 641 3341 
Q 956 3463 1253 3523 
Q 1550 3584 1831 3584 
Q 2591 3584 2966 3190 
Q 3341 2797 3341 1997 
z
" transform="scale(0.015625)"/>
       <path id="DejaVuSans-71" d="M 947 1747 
Q 947 1113 1208 752 
Q 1469 391 1925 391 
Q 2381 391 2643 752 
Q 2906 1113 2906 1747 
Q 2906 2381 2643 2742 
Q 2381 3103 1925 3103 
Q 1469 3103 1208 2742 
Q 947 2381 947 1747 
z
M 2906 525 
Q 2725 213 2448 61 
Q 2172 -91 1784 -91 
Q 1150 -91 751 415 
Q 353 922 353 1747 
Q 353 2572 751 3078 
Q 1150 3584 1784 3584 
Q 2172 3584 2448 3432 
Q 2725 3281 2906 2969 
L 2906 3500 
L 3481 3500 
L 3481 -1331 
L 2906 -1331 
L 2906 525 
z
" transform="scale(0.015625)"/>
       <path id="DejaVuSans-54" d="M -19 4666 
L 3928 4666 
L 3928 4134 
L 2272 4134 
L 2272 0 
L 1638 0 
L 1638 4134 
L -19 4134 
L -19 4666 
z
" transform="scale(0.015625)"/>
       <path id="DejaVuSans-50" d="M 1259 4147 
L 1259 2394 
L 2053 2394 
Q 2494 2394 2734 2622 
Q 2975 2850 2975 3272 
Q 2975 3691 2734 3919 
Q 2494 4147 2053 4147 
L 1259 4147 
z
M 628 4666 
L 2053 4666 
Q 2838 4666 3239 4311 
Q 3641 3956 3641 3272 
Q 3641 2581 3239 2228 
Q 2838 1875 2053 1875 
L 1259 1875 
L 1259 0 
L 628 0 
L 628 4666 
z
" transform="scale(0.015625)"/>
      </defs>
      <use xlink:href="#DejaVuSans-4d"/>
      <use xlink:href="#DejaVuSans-65" x="86.279297"/>
      <use xlink:href="#DejaVuSans-61" x="147.802734"/>
      <use xlink:href="#DejaVuSans-6e" x="209.082031"/>
      <use xlink:href="#DejaVuSans-20" x="272.460938"/>
      <use xlink:href="#DejaVuSans-6e" x="304.248047"/>
      <use xlink:href="#DejaVuSans-75" x="367.626953"/>
      <use xlink:href="#DejaVuSans-6d" x="431.005859"/>
      <use xlink:href="#DejaVuSans-62" x="528.417969"/>
      <use xlink:href="#DejaVuSans-65" x="591.894531"/>
      <use xlink:href="#DejaVuSans-72" x="653.417969"/>
      <use xlink:href="#DejaVuSans-20" x="694.53125"/>
      <use xlink:href="#DejaVuSans-6f" x="726.318359"/>
      <use xlink:href="#DejaVuSans-66" x="787.5"/>
      <use xlink:href="#DejaVuSans-20" x="822.705078"/>
      <use xlink:href="#DejaVuSans-72" x="854.492188"/>
      <use xlink:href="#DejaVuSans-65" x="893.355469"/>
      <use xlink:href="#DejaVuSans-71" x="954.878906"/>
      <use xlink:href="#DejaVuSans-75" x="1018.355469"/>
      <use xlink:href="#DejaVuSans-69" x="1081.734375"/>
      <use xlink:href="#DejaVuSans-72" x="1109.517578"/>
      <use xlink:href="#DejaVuSans-65" x="1148.380859"/>
      <use xlink:href="#DejaVuSans-64" x="1209.904297"/>
      <use xlink:href="#DejaVuSans-20" x="1273.380859"/>
      <use xlink:href="#DejaVuSans-69" x="1305.167969"/>
      <use xlink:href="#DejaVuSans-74" x="1332.951172"/>
      <use xlink:href="#DejaVuSans-65" x="1372.160156"/>
      <use xlink:href="#DejaVuSans-72" x="1433.683594"/>
      <use xlink:href="#DejaVuSans-61" x="1474.796875"/>
      <use xlink:href="#DejaVuSans-74" x="1536.076172"/>
      <use xlink:href="#DejaVuSans-69" x="1575.285156"/>
      <use xlink:href="#DejaVuSans-6f" x="1603.068359"/>
      <use xlink:href="#DejaVuSans-6e" x="1664.25"/>
      <use xlink:href="#DejaVuSans-73" x="1727.628906"/>
      <use xlink:href="#DejaVuSans-20" x="1779.728516"/>
      <use xlink:href="#DejaVuSans-6f" x="1811.515625"/>
      <use xlink:href="#DejaVuSans-66" x="1872.697266"/>
      <use xlink:href="#DejaVuSans-20" x="1907.902344"/>
      <use xlink:href="#DejaVuSans-54" x="1939.689453"/>
      <use xlink:href="#DejaVuSans-50" x="2000.773438"/>
      <use xlink:href="#DejaVuSans-4d" x="2061.076172"/>
     </g>
    </g>
   </g>
   <g id="line2d_17">
    <path d="M 73.832727 295.488 
L 75.756606 282.464146 
L 75.756606 282.464146 
L 77.680485 271.101755 
L 77.680485 271.101755 
L 79.604364 261.21448 
L 79.604364 261.21448 
L 81.528242 252.632084 
L 81.528242 252.632084 
L 83.452121 245.199398 
L 83.452121 245.199398 
L 85.376 238.775334 
L 85.376 238.775334 
L 86.818909 234.541756 
L 86.818909 234.541756 
L 89.223758 228.453514 
L 89.223758 228.453514 
L 90.666667 225.308537 
L 90.666667 225.308537 
L 92.590545 221.624156 
L 92.590545 221.624156 
L 94.995394 217.716876 
L 94.995394 217.716876 
L 96.919273 215.057007 
L 98.362182 213.289616 
L 98.362182 213.289616 
L 100.76703 210.703294 
L 100.76703 210.703294 
L 103.652848 208.06927 
L 103.652848 208.06927 
L 106.538667 205.809553 
L 106.538667 205.809553 
L 110.386424 203.17777 
L 110.386424 203.17777 
L 115.677091 199.926821 
L 115.677091 199.926821 
L 127.220364 192.978955 
L 127.220364 192.978955 
L 134.915879 188.038719 
L 134.915879 188.038719 
L 150.787879 177.710062 
L 150.787879 177.710062 
L 155.597576 174.849738 
L 155.597576 174.849738 
L 159.926303 172.485914 
L 159.926303 172.485914 
L 165.697939 169.709835 
L 165.697939 169.709835 
L 169.545697 168.123829 
L 169.545697 168.123829 
L 173.874424 166.605175 
L 173.874424 166.605175 
L 179.646061 165.016254 
L 179.646061 165.016254 
L 184.455758 164.05316 
L 184.455758 164.05316 
L 188.784485 163.438962 
L 188.784485 163.438962 
L 195.037091 162.906103 
L 195.037091 162.906103 
L 200.327758 162.704012 
L 200.327758 162.704012 
L 212.352 162.649599 
L 221.490424 162.524416 
L 221.490424 162.524416 
L 227.262061 162.225444 
L 227.262061 162.225444 
L 229.666909 162.029717 
L 229.666909 162.029717 
L 234.957576 161.427746 
L 234.957576 161.427746 
L 239.286303 160.745745 
L 239.286303 160.745745 
L 245.057939 159.560154 
L 245.057939 159.560154 
L 248.424727 158.724773 
L 248.424727 158.724773 
L 253.715394 157.212158 
L 253.715394 157.212158 
L 261.410909 154.640428 
L 261.410909 154.640428 
L 265.739636 153.049082 
L 285.459394 145.561393 
L 298.445576 141.633686 
L 298.445576 141.633686 
L 304.217212 140.418614 
L 304.217212 140.418614 
L 306.141091 140.098844 
L 323.456 139.174334 
L 323.456 139.174334 
L 327.784727 139.426564 
L 350.390303 141.572627 
L 373.476848 137.363947 
L 373.476848 137.363947 
L 373.957818 137.121482 
L 398.487273 113.329027 
L 398.487273 113.329027 
" clip-path="url(#pcc4e7d40c4)" style="fill: none; stroke: #1f77b4; stroke-width: 1.5; stroke-linecap: square"/>
   </g>
   <g id="line2d_18">
    <path d="M 73.832727 277.07613 
L 75.756606 263.000806 
L 75.756606 263.000806 
L 77.680485 251.012011 
L 77.680485 251.012011 
L 79.604364 240.830518 
L 79.604364 240.830518 
L 81.528242 232.20666 
L 81.528242 232.20666 
L 83.452121 224.917934 
L 83.452121 224.917934 
L 85.376 218.766754 
L 85.376 218.766754 
L 86.818909 214.793941 
L 86.818909 214.793941 
L 89.223758 209.198727 
L 89.223758 209.198727 
L 90.666667 206.362929 
L 90.666667 206.362929 
L 92.590545 203.084336 
L 92.590545 203.084336 
L 94.995394 199.647381 
L 94.995394 199.647381 
L 97.881212 196.265701 
L 97.881212 196.265701 
L 100.286061 193.900389 
L 100.286061 193.900389 
L 102.209939 192.221828 
L 102.209939 192.221828 
L 104.614788 190.313803 
L 104.614788 190.313803 
L 109.424485 186.8721 
L 109.424485 186.8721 
L 142.611394 164.310115 
L 142.611394 164.310115 
L 146.940121 161.728966 
L 146.940121 161.728966 
L 150.787879 159.626342 
L 150.787879 159.626342 
L 155.597576 157.273399 
L 155.597576 157.273399 
L 159.926303 155.420926 
L 159.926303 155.420926 
L 165.697939 153.319637 
L 165.697939 153.319637 
L 169.545697 152.125757 
L 169.545697 152.125757 
L 173.874424 150.944996 
L 173.874424 150.944996 
L 181.569939 149.145192 
L 181.569939 149.145192 
L 200.327758 145.10228 
L 200.327758 145.10228 
L 210.428121 142.535078 
L 210.428121 142.535078 
L 217.161697 140.624016 
L 217.161697 140.624016 
L 234.957576 135.420596 
L 234.957576 135.420596 
L 242.653091 133.50198 
L 242.653091 133.50198 
L 248.424727 132.345744 
L 248.424727 132.345744 
L 253.715394 131.544615 
L 253.715394 131.544615 
L 258.044121 131.085113 
L 258.044121 131.085113 
L 263.815758 130.740096 
L 263.815758 130.740096 
L 265.739636 130.687625 
L 273.435152 130.725205 
L 273.435152 130.725205 
L 285.459394 131.111514 
L 298.445576 130.725068 
L 304.217212 129.878355 
L 304.217212 129.878355 
L 306.141091 129.473935 
L 323.456 122.891865 
L 323.456 122.891865 
L 327.784727 120.553672 
L 348.466424 110.046904 
L 348.466424 110.046904 
L 350.390303 109.499245 
L 373.476848 114.542527 
L 373.476848 114.542527 
L 373.957818 114.818876 
L 398.487273 90.370653 
L 398.487273 90.370653 
" clip-path="url(#pcc4e7d40c4)" style="fill: none; stroke: #ff7f0e; stroke-width: 1.5; stroke-linecap: square"/>
   </g>
   <g id="line2d_19">
    <path d="M 73.832727 261.354263 
L 75.756606 249.667681 
L 75.756606 249.667681 
L 77.680485 239.497383 
L 77.680485 239.497383 
L 79.604364 230.653368 
L 79.604364 230.653368 
L 81.528242 222.965093 
L 81.528242 222.965093 
L 83.452121 216.279922 
L 83.452121 216.279922 
L 85.376 210.461677 
L 85.376 210.461677 
L 86.818909 206.593541 
L 86.818909 206.593541 
L 89.223758 200.955432 
L 89.223758 200.955432 
L 90.666667 197.991722 
L 90.666667 197.991722 
L 92.590545 194.454533 
L 92.590545 194.454533 
L 94.995394 190.595029 
L 94.995394 190.595029 
L 97.881212 186.624515 
L 97.881212 186.624515 
L 100.286061 183.745397 
L 100.286061 183.745397 
L 102.209939 181.662037 
L 102.209939 181.662037 
L 104.614788 179.274489 
L 104.614788 179.274489 
L 107.981576 176.237417 
L 107.981576 176.237417 
L 112.310303 172.690398 
L 117.12 169.04185 
L 117.12 169.04185 
L 123.853576 164.241072 
L 123.853576 164.241072 
L 131.068121 159.398693 
L 131.068121 159.398693 
L 137.320727 155.483593 
L 137.320727 155.483593 
L 142.611394 152.423559 
L 142.611394 152.423559 
L 148.38303 149.391631 
L 148.38303 149.391631 
L 154.154667 146.701622 
L 154.154667 146.701622 
L 158.002424 145.097609 
L 158.002424 145.097609 
L 163.293091 143.123288 
L 163.293091 143.123288 
L 167.621818 141.68476 
L 173.874424 139.831822 
L 173.874424 139.831822 
L 184.455758 137.063549 
L 184.455758 137.063549 
L 198.403879 133.476014 
L 198.403879 133.476014 
L 205.618424 131.431084 
L 205.618424 131.431084 
L 212.352 129.358797 
L 224.857212 125.175102 
L 224.857212 125.175102 
L 239.286303 120.302061 
L 239.286303 120.302061 
L 246.981818 117.977581 
L 248.424727 117.578023 
L 248.424727 117.578023 
L 253.715394 116.230272 
L 253.715394 116.230272 
L 261.410909 114.632953 
L 261.410909 114.632953 
L 265.739636 113.931935 
L 273.435152 113.015665 
L 273.435152 113.015665 
L 281.130667 112.441176 
L 281.130667 112.441176 
L 304.217212 111.123787 
L 304.217212 111.123787 
L 306.141091 110.934746 
L 323.456 108.123001 
L 323.456 108.123001 
L 327.784727 107.15692 
L 348.466424 103.432939 
L 348.466424 103.432939 
L 350.390303 103.374076 
L 373.476848 110.463974 
L 373.476848 110.463974 
L 373.957818 110.748096 
L 398.487273 108.328076 
L 398.487273 108.328076 
" clip-path="url(#pcc4e7d40c4)" style="fill: none; stroke: #2ca02c; stroke-width: 1.5; stroke-linecap: square"/>
   </g>
   <g id="line2d_20">
    <path d="M 73.832727 257.836637 
L 75.756606 246.093542 
L 75.756606 246.093542 
L 77.680485 235.684132 
L 77.680485 235.684132 
L 79.604364 226.465317 
L 79.604364 226.465317 
L 81.528242 218.306944 
L 81.528242 218.306944 
L 83.452121 211.090849 
L 83.452121 211.090849 
L 85.376 204.709969 
L 85.376 204.709969 
L 86.818909 200.413822 
L 86.818909 200.413822 
L 89.223758 194.076105 
L 89.223758 194.076105 
L 90.666667 190.712226 
L 90.666667 190.712226 
L 92.590545 186.675898 
L 92.590545 186.675898 
L 94.995394 182.261686 
L 94.995394 182.261686 
L 97.881212 177.744699 
L 97.881212 177.744699 
L 100.286061 174.518555 
L 100.286061 174.518555 
L 102.209939 172.230642 
L 102.209939 172.230642 
L 104.614788 169.677939 
L 104.614788 169.677939 
L 107.981576 166.571116 
L 107.981576 166.571116 
L 110.386424 164.617711 
L 110.386424 164.617711 
L 114.234182 161.841802 
L 114.234182 161.841802 
L 117.12 159.97522 
L 117.12 159.97522 
L 121.448727 157.422462 
L 127.220364 154.330403 
L 127.220364 154.330403 
L 133.47297 151.230442 
L 133.47297 151.230442 
L 142.130424 147.204765 
L 142.130424 147.204765 
L 150.787879 143.416185 
L 150.787879 143.416185 
L 159.926303 139.662464 
L 159.926303 139.662464 
L 169.545697 135.980484 
L 169.545697 135.980484 
L 181.08897 131.885052 
L 181.08897 131.885052 
L 192.151273 128.210224 
L 192.151273 128.210224 
L 205.618424 123.955516 
L 205.618424 123.955516 
L 217.161697 120.464185 
L 217.161697 120.464185 
L 229.666909 116.888534 
L 229.666909 116.888534 
L 242.653091 113.500256 
L 242.653091 113.500256 
L 253.715394 110.925659 
L 253.715394 110.925659 
L 265.739636 108.413858 
L 285.459394 104.49079 
L 301.812364 100.796867 
L 301.812364 100.796867 
L 306.141091 99.709624 
L 327.784727 94.218927 
L 348.466424 92.011942 
L 348.466424 92.011942 
L 350.390303 92.130396 
L 373.957818 96.823737 
L 398.487273 67.215807 
L 398.487273 67.215807 
" clip-path="url(#pcc4e7d40c4)" style="fill: none; stroke: #d62728; stroke-width: 1.5; stroke-linecap: square"/>
   </g>
   <g id="line2d_21">
    <path d="M 73.832727 252.526462 
L 75.756606 240.755091 
L 75.756606 240.755091 
L 77.680485 230.338766 
L 77.680485 230.338766 
L 79.604364 221.118744 
L 79.604364 221.118744 
L 81.528242 212.952316 
L 81.528242 212.952316 
L 83.452121 205.711525 
L 83.452121 205.711525 
L 85.376 199.28195 
L 85.376 199.28195 
L 86.818909 194.930323 
L 86.818909 194.930323 
L 89.223758 188.4597 
L 89.223758 188.4597 
L 90.666667 184.990493 
L 90.666667 184.990493 
L 92.590545 180.783351 
L 92.590545 180.783351 
L 94.995394 176.107748 
L 94.995394 176.107748 
L 97.881212 171.211414 
L 97.881212 171.211414 
L 100.286061 167.620651 
L 100.286061 167.620651 
L 102.209939 165.014136 
L 102.209939 165.014136 
L 104.614788 162.036017 
L 104.614788 162.036017 
L 107.981576 158.297802 
L 107.981576 158.297802 
L 111.829333 154.513281 
L 111.829333 154.513281 
L 114.234182 152.35921 
L 114.234182 152.35921 
L 117.12 149.951144 
L 117.12 149.951144 
L 121.448727 146.643403 
L 125.296485 143.96388 
L 125.296485 143.96388 
L 130.587152 140.626568 
L 130.587152 140.626568 
L 134.915879 138.167471 
L 134.915879 138.167471 
L 138.282667 136.412766 
L 138.282667 136.412766 
L 144.054303 133.707002 
L 144.054303 133.707002 
L 150.306909 131.171482 
L 150.306909 131.171482 
L 155.597576 129.306367 
L 155.597576 129.306367 
L 159.926303 127.938941 
L 159.926303 127.938941 
L 167.621818 125.766246 
L 194.556121 118.555632 
L 194.556121 118.555632 
L 200.327758 116.743065 
L 200.327758 116.743065 
L 210.428121 113.259405 
L 210.428121 113.259405 
L 234.957576 104.401717 
L 234.957576 104.401717 
L 242.653091 102.094858 
L 242.653091 102.094858 
L 248.424727 100.675859 
L 248.424727 100.675859 
L 253.715394 99.647658 
L 253.715394 99.647658 
L 258.044121 99.010318 
L 258.044121 99.010318 
L 263.815758 98.441329 
L 263.815758 98.441329 
L 265.739636 98.318791 
L 273.435152 98.113301 
L 273.435152 98.113301 
L 284.978424 98.322933 
L 284.978424 98.322933 
L 285.459394 98.334923 
L 298.445576 98.291606 
L 298.445576 98.291606 
L 304.217212 97.823025 
L 304.217212 97.823025 
L 306.141091 97.576115 
L 323.456 92.904436 
L 323.456 92.904436 
L 327.784727 91.068422 
L 348.466424 81.362055 
L 348.466424 81.362055 
L 350.390303 80.67077 
L 373.476848 83.364671 
L 373.476848 83.364671 
L 373.957818 83.702005 
L 398.487273 106.826433 
L 398.487273 106.826433 
" clip-path="url(#pcc4e7d40c4)" style="fill: none; stroke: #9467bd; stroke-width: 1.5; stroke-linecap: square"/>
   </g>
   <g id="line2d_22">
    <path d="M 73.832727 255.53957 
L 75.756606 241.006511 
L 75.756606 241.006511 
L 77.680485 228.490735 
L 77.680485 228.490735 
L 79.604364 217.733864 
L 79.604364 217.733864 
L 81.528242 208.503763 
L 81.528242 208.503763 
L 83.452121 200.592511 
L 83.452121 200.592511 
L 85.376 193.814487 
L 85.376 193.814487 
L 86.818909 189.374596 
L 86.818909 189.374596 
L 89.223758 183.016434 
L 89.223758 183.016434 
L 90.666667 179.736356 
L 90.666667 179.736356 
L 92.590545 175.885174 
L 92.590545 175.885174 
L 94.995394 171.768773 
L 94.995394 171.768773 
L 97.881212 167.630021 
L 97.881212 167.630021 
L 100.286061 164.684238 
L 100.286061 164.684238 
L 102.209939 162.574186 
L 102.209939 162.574186 
L 104.614788 160.166638 
L 104.614788 160.166638 
L 107.981576 157.093965 
L 107.981576 157.093965 
L 113.753212 152.257693 
L 113.753212 152.257693 
L 127.220364 141.437169 
L 127.220364 141.437169 
L 134.915879 135.382247 
L 134.915879 135.382247 
L 140.687515 131.082524 
L 140.687515 131.082524 
L 144.054303 128.727808 
L 144.054303 128.727808 
L 148.38303 125.908357 
L 148.38303 125.908357 
L 152.711758 123.352803 
L 152.711758 123.352803 
L 157.521455 120.844126 
L 157.521455 120.844126 
L 159.926303 119.721703 
L 159.926303 119.721703 
L 165.697939 117.372016 
L 165.697939 117.372016 
L 169.545697 116.053054 
L 169.545697 116.053054 
L 173.874424 114.770612 
L 173.874424 114.770612 
L 181.08897 112.990471 
L 181.08897 112.990471 
L 188.784485 111.360669 
L 188.784485 111.360669 
L 198.403879 109.311232 
L 198.403879 109.311232 
L 205.618424 107.52745 
L 205.618424 107.52745 
L 212.352 105.563305 
L 217.161697 103.96777 
L 217.161697 103.96777 
L 224.857212 101.113991 
L 224.857212 101.113991 
L 234.957576 97.010901 
L 234.957576 97.010901 
L 245.057939 92.940508 
L 245.057939 92.940508 
L 248.424727 91.68835 
L 248.424727 91.68835 
L 253.715394 89.905244 
L 253.715394 89.905244 
L 258.044121 88.659027 
L 258.044121 88.659027 
L 263.815758 87.357699 
L 263.815758 87.357699 
L 265.739636 87.024991 
L 273.435152 86.235248 
L 273.435152 86.235248 
L 277.763879 86.175908 
L 277.763879 86.175908 
L 283.535515 86.506241 
L 283.535515 86.506241 
L 285.459394 86.711792 
L 298.445576 89.02838 
L 298.445576 89.02838 
L 306.141091 90.776025 
L 323.456 93.694342 
L 323.456 93.694342 
L 327.784727 93.90939 
L 348.466424 91.454307 
L 348.466424 91.454307 
L 350.390303 91.017831 
L 373.957818 87.605733 
L 398.487273 89.460966 
L 398.487273 89.460966 
" clip-path="url(#pcc4e7d40c4)" style="fill: none; stroke: #8c564b; stroke-width: 1.5; stroke-linecap: square"/>
   </g>
   <g id="line2d_23">
    <path d="M 73.832727 256.77746 
L 75.756606 241.339778 
L 75.756606 241.339778 
L 77.680485 227.942561 
L 77.680485 227.942561 
L 79.604364 216.347319 
L 79.604364 216.347319 
L 81.528242 206.337415 
L 81.528242 206.337415 
L 83.452121 197.716543 
L 83.452121 197.716543 
L 85.376 190.307294 
L 85.376 190.307294 
L 86.818909 185.448684 
L 86.818909 185.448684 
L 89.223758 178.500386 
L 89.223758 178.500386 
L 90.666667 174.93137 
L 90.666667 174.93137 
L 92.590545 170.770023 
L 92.590545 170.770023 
L 94.995394 166.382749 
L 94.995394 166.382749 
L 96.919273 163.412689 
L 98.362182 161.446978 
L 98.362182 161.446978 
L 100.76703 158.58172 
L 100.76703 158.58172 
L 103.652848 155.676637 
L 103.652848 155.676637 
L 104.614788 154.809357 
L 104.614788 154.809357 
L 107.981576 152.066218 
L 107.981576 152.066218 
L 112.310303 148.981348 
L 119.524848 144.277034 
L 119.524848 144.277034 
L 129.625212 137.648768 
L 129.625212 137.648768 
L 148.38303 125.110469 
L 148.38303 125.110469 
L 154.154667 121.659071 
L 154.154667 121.659071 
L 158.002424 119.566604 
L 158.002424 119.566604 
L 163.293091 117.004245 
L 163.293091 117.004245 
L 167.621818 115.195249 
L 169.545697 114.475025 
L 169.545697 114.475025 
L 173.874424 113.037774 
L 173.874424 113.037774 
L 179.646061 111.488176 
L 179.646061 111.488176 
L 184.455758 110.472557 
L 184.455758 110.472557 
L 192.151273 109.233118 
L 192.151273 109.233118 
L 204.656485 107.6686 
L 204.656485 107.6686 
L 212.352 106.607712 
L 217.161697 105.799886 
L 217.161697 105.799886 
L 224.857212 104.187701 
L 224.857212 104.187701 
L 229.666909 102.958151 
L 229.666909 102.958151 
L 234.957576 101.409795 
L 234.957576 101.409795 
L 242.653091 98.837361 
L 242.653091 98.837361 
L 248.424727 96.725424 
L 248.424727 96.725424 
L 265.739636 90.263479 
L 273.435152 87.766625 
L 273.435152 87.766625 
L 277.763879 86.564645 
L 277.763879 86.564645 
L 283.535515 85.235811 
L 283.535515 85.235811 
L 285.459394 84.86729 
L 298.445576 83.352247 
L 298.445576 83.352247 
L 306.141091 83.129118 
L 325.860848 83.032391 
L 325.860848 83.032391 
L 327.784727 82.913891 
L 348.466424 78.101867 
L 348.466424 78.101867 
L 350.390303 77.256465 
L 373.957818 63.906253 
L 398.487273 73.436175 
L 398.487273 73.436175 
" clip-path="url(#pcc4e7d40c4)" style="fill: none; stroke: #e377c2; stroke-width: 1.5; stroke-linecap: square"/>
   </g>
   <g id="line2d_24">
    <path d="M 73.832727 245.568137 
L 75.756606 232.825586 
L 75.756606 232.825586 
L 77.680485 221.51681 
L 77.680485 221.51681 
L 79.604364 211.505452 
L 79.604364 211.505452 
L 81.528242 202.664193 
L 81.528242 202.664193 
L 83.452121 194.874426 
L 83.452121 194.874426 
L 85.376 188.02591 
L 85.376 188.02591 
L 86.818909 183.445444 
L 86.818909 183.445444 
L 89.223758 176.751504 
L 89.223758 176.751504 
L 90.666667 173.238708 
L 90.666667 173.238708 
L 92.590545 169.07124 
L 92.590545 169.07124 
L 94.995394 164.587198 
L 94.995394 164.587198 
L 96.919273 161.49751 
L 98.362182 159.429955 
L 98.362182 159.429955 
L 100.76703 156.390124 
L 100.76703 156.390124 
L 103.652848 153.29312 
L 103.652848 153.29312 
L 104.614788 152.37022 
L 104.614788 152.37022 
L 107.981576 149.476104 
L 107.981576 149.476104 
L 111.829333 146.636901 
L 111.829333 146.636901 
L 115.677091 144.096136 
L 115.677091 144.096136 
L 134.915879 131.88922 
L 134.915879 131.88922 
L 144.054303 125.541357 
L 144.054303 125.541357 
L 154.635636 118.200434 
L 159.926303 114.78017 
L 159.926303 114.78017 
L 165.697939 111.389631 
L 165.697939 111.389631 
L 169.545697 109.372723 
L 169.545697 109.372723 
L 173.874424 107.364457 
L 173.874424 107.364457 
L 179.646061 105.137595 
L 179.646061 105.137595 
L 181.569939 104.510018 
L 181.569939 104.510018 
L 184.455758 103.672989 
L 184.455758 103.672989 
L 188.784485 102.639816 
L 188.784485 102.639816 
L 195.037091 101.562217 
L 195.037091 101.562217 
L 200.327758 100.952333 
L 200.327758 100.952333 
L 210.428121 100.211516 
L 210.428121 100.211516 
L 217.161697 99.748159 
L 217.161697 99.748159 
L 224.857212 98.962604 
L 224.857212 98.962604 
L 229.666909 98.233695 
L 229.666909 98.233695 
L 234.957576 97.163277 
L 234.957576 97.163277 
L 239.286303 96.059224 
L 239.286303 96.059224 
L 245.057939 94.265622 
L 245.057939 94.265622 
L 248.424727 93.060496 
L 248.424727 93.060496 
L 253.715394 90.966067 
L 253.715394 90.966067 
L 263.815758 86.542349 
L 263.815758 86.542349 
L 265.739636 85.681114 
L 273.435152 82.368984 
L 273.435152 82.368984 
L 277.763879 80.701316 
L 277.763879 80.701316 
L 283.535515 78.838627 
L 283.535515 78.838627 
L 285.459394 78.331545 
L 298.445576 76.762077 
L 298.445576 76.762077 
L 301.812364 76.926754 
L 301.812364 76.926754 
L 306.141091 77.475737 
L 327.784727 83.540791 
L 348.466424 82.771096 
L 348.466424 82.771096 
L 350.390303 81.701333 
L 373.957818 53.793556 
L 398.487273 82.940698 
L 398.487273 82.940698 
" clip-path="url(#pcc4e7d40c4)" style="fill: none; stroke: #7f7f7f; stroke-width: 1.5; stroke-linecap: square"/>
   </g>
   <g id="line2d_25">
    <path d="M 73.832727 247.340305 
L 75.756606 231.627591 
L 75.756606 231.627591 
L 77.680485 218.083314 
L 77.680485 218.083314 
L 79.604364 206.439071 
L 79.604364 206.439071 
L 81.528242 196.453151 
L 81.528242 196.453151 
L 83.452121 187.908459 
L 83.452121 187.908459 
L 85.376 180.61057 
L 85.376 180.61057 
L 86.818909 175.850206 
L 86.818909 175.850206 
L 89.223758 169.079943 
L 89.223758 169.079943 
L 90.666667 165.620382 
L 90.666667 165.620382 
L 92.590545 161.602271 
L 92.590545 161.602271 
L 94.995394 157.383172 
L 94.995394 157.383172 
L 96.919273 154.53518 
L 98.362182 152.652555 
L 98.362182 152.652555 
L 100.76703 149.908756 
L 100.76703 149.908756 
L 103.652848 147.121778 
L 103.652848 147.121778 
L 106.538667 144.72924 
L 106.538667 144.72924 
L 110.386424 141.932077 
L 110.386424 141.932077 
L 115.677091 138.460795 
L 115.677091 138.460795 
L 131.549091 128.304199 
L 144.054303 120.149405 
L 144.054303 120.149405 
L 150.787879 116.001177 
L 150.787879 116.001177 
L 155.597576 113.237218 
L 155.597576 113.237218 
L 159.926303 110.919292 
L 159.926303 110.919292 
L 165.697939 108.095789 
L 165.697939 108.095789 
L 169.545697 106.382915 
L 169.545697 106.382915 
L 173.874424 104.609868 
L 173.874424 104.609868 
L 181.08897 101.978543 
L 181.08897 101.978543 
L 184.455758 100.869335 
L 184.455758 100.869335 
L 192.151273 98.555878 
L 192.151273 98.555878 
L 200.327758 96.346831 
L 200.327758 96.346831 
L 212.352 93.40161 
L 224.857212 90.666011 
L 224.857212 90.666011 
L 229.666909 89.723886 
L 229.666909 89.723886 
L 239.286303 88.076802 
L 239.286303 88.076802 
L 248.424727 86.838285 
L 248.424727 86.838285 
L 258.044121 85.842051 
L 258.044121 85.842051 
L 273.435152 84.445535 
L 273.435152 84.445535 
L 281.130667 83.488522 
L 281.130667 83.488522 
L 285.459394 82.770672 
L 298.445576 79.487821 
L 304.217212 77.403398 
L 304.217212 77.403398 
L 306.141091 76.625131 
L 327.784727 66.570546 
L 348.466424 63.86163 
L 350.390303 64.552259 
L 373.476848 88.139168 
L 373.476848 88.139168 
L 373.957818 88.795778 
L 398.487273 69.741954 
L 398.487273 69.741954 
" clip-path="url(#pcc4e7d40c4)" style="fill: none; stroke: #bcbd22; stroke-width: 1.5; stroke-linecap: square"/>
   </g>
   <g id="line2d_26">
    <path d="M 73.832727 249.881706 
L 75.756606 234.363752 
L 75.756606 234.363752 
L 77.680485 220.776666 
L 77.680485 220.776666 
L 79.604364 208.90014 
L 79.604364 208.90014 
L 81.528242 198.534579 
L 81.528242 198.534579 
L 83.452121 189.499564 
L 83.452121 189.499564 
L 85.376 181.632401 
L 85.376 181.632401 
L 86.818909 176.409819 
L 86.818909 176.409819 
L 89.223758 168.831328 
L 89.223758 168.831328 
L 90.666667 164.877851 
L 90.666667 164.877851 
L 92.590545 160.205471 
L 92.590545 160.205471 
L 94.995394 155.194696 
L 94.995394 155.194696 
L 96.919273 151.747782 
L 96.919273 151.747782 
L 98.362182 149.441763 
L 98.362182 149.441763 
L 100.76703 146.049602 
L 100.76703 146.049602 
L 103.652848 142.59002 
L 103.652848 142.59002 
L 104.614788 141.558807 
L 104.614788 141.558807 
L 107.981576 138.330778 
L 107.981576 138.330778 
L 110.386424 136.315329 
L 110.386424 136.315329 
L 114.234182 133.449204 
L 114.234182 133.449204 
L 119.043879 130.279654 
L 119.043879 130.279654 
L 123.853576 127.381152 
L 123.853576 127.381152 
L 131.549091 123.040832 
L 131.549091 123.040832 
L 140.687515 118.186914 
L 140.687515 118.186914 
L 148.38303 114.368471 
L 148.38303 114.368471 
L 155.597576 111.069492 
L 155.597576 111.069492 
L 159.926303 109.234698 
L 159.926303 109.234698 
L 167.621818 106.238483 
L 167.621818 106.238483 
L 173.874424 104.027746 
L 173.874424 104.027746 
L 184.455758 100.614293 
L 184.455758 100.614293 
L 221.490424 89.152 
L 221.490424 89.152 
L 229.666909 86.59305 
L 229.666909 86.59305 
L 239.286303 83.791236 
L 239.286303 83.791236 
L 246.981818 81.846173 
L 246.981818 81.846173 
L 248.424727 81.519868 
L 248.424727 81.519868 
L 253.715394 80.442155 
L 253.715394 80.442155 
L 261.410909 79.234029 
L 261.410909 79.234029 
L 265.739636 78.747795 
L 265.739636 78.747795 
L 273.435152 78.208001 
L 273.435152 78.208001 
L 281.130667 78.013308 
L 281.130667 78.013308 
L 285.459394 78.008068 
L 285.459394 78.008068 
L 301.812364 78.063464 
L 301.812364 78.063464 
L 306.141091 77.947858 
L 306.141091 77.947858 
L 323.456 76.236259 
L 323.456 76.236259 
L 327.784727 75.475091 
L 327.784727 75.475091 
L 350.390303 71.012032 
L 350.390303 71.012032 
L 373.957818 71.651007 
L 373.957818 71.651007 
L 398.487273 60.673141 
L 398.487273 60.673141 
" clip-path="url(#pcc4e7d40c4)" style="fill: none; stroke: #17becf; stroke-width: 1.5; stroke-linecap: square"/>
   </g>
   <g id="line2d_27">
    <path d="M 73.832727 243.824697 
L 75.756606 228.622836 
L 75.756606 228.622836 
L 77.680485 215.460081 
L 77.680485 215.460081 
L 79.604364 204.083606 
L 79.604364 204.083606 
L 81.528242 194.265774 
L 81.528242 194.265774 
L 83.452121 185.802204 
L 83.452121 185.802204 
L 85.376 178.509952 
L 85.376 178.509952 
L 86.818909 173.710556 
L 86.818909 173.710556 
L 89.223758 166.80462 
L 89.223758 166.80462 
L 90.666667 163.227174 
L 90.666667 163.227174 
L 92.590545 159.01614 
L 92.590545 159.01614 
L 94.995394 154.508286 
L 94.995394 154.508286 
L 97.881212 149.983235 
L 97.881212 149.983235 
L 100.286061 146.782171 
L 100.286061 146.782171 
L 102.209939 144.509233 
L 102.209939 144.509233 
L 104.614788 141.94665 
L 104.614788 141.94665 
L 107.981576 138.740233 
L 107.981576 138.740233 
L 112.310303 135.03683 
L 112.310303 135.03683 
L 117.12 131.219678 
L 117.12 131.219678 
L 125.296485 125.025426 
L 125.296485 125.025426 
L 133.47297 119.061562 
L 133.47297 119.061562 
L 138.282667 115.725465 
L 138.282667 115.725465 
L 144.054303 111.988192 
L 144.054303 111.988192 
L 148.38303 109.428118 
L 148.38303 109.428118 
L 152.711758 107.108996 
L 152.711758 107.108996 
L 157.521455 104.834765 
L 157.521455 104.834765 
L 159.926303 103.818996 
L 159.926303 103.818996 
L 165.697939 101.701205 
L 165.697939 101.701205 
L 169.545697 100.522941 
L 169.545697 100.522941 
L 173.874424 99.392224 
L 173.874424 99.392224 
L 181.08897 97.869113 
L 181.08897 97.869113 
L 188.784485 96.552612 
L 188.784485 96.552612 
L 200.327758 94.672387 
L 200.327758 94.672387 
L 208.023273 93.203203 
L 208.023273 93.203203 
L 212.352 92.244839 
L 212.352 92.244839 
L 221.490424 89.870453 
L 221.490424 89.870453 
L 229.185939 87.533774 
L 229.185939 87.533774 
L 234.957576 85.637483 
L 234.957576 85.637483 
L 248.424727 81.097363 
L 248.424727 81.097363 
L 258.044121 78.119921 
L 258.044121 78.119921 
L 265.739636 76.090692 
L 265.739636 76.090692 
L 273.435152 74.445913 
L 273.435152 74.445913 
L 281.130667 73.176938 
L 281.130667 73.176938 
L 285.459394 72.60057 
L 285.459394 72.60057 
L 306.141091 70.295478 
L 306.141091 70.295478 
L 323.456 67.262853 
L 323.456 67.262853 
L 327.784727 66.220025 
L 327.784727 66.220025 
L 349.909333 60.628704 
L 349.909333 60.628704 
L 350.390303 60.540856 
L 350.390303 60.540856 
L 373.957818 61.364564 
L 373.957818 61.364564 
L 398.487273 53.568 
L 398.487273 53.568 
" clip-path="url(#pcc4e7d40c4)" style="fill: none; stroke: #1f77b4; stroke-width: 1.5; stroke-linecap: square"/>
   </g>
   <g id="patch_3">
    <path d="M 57.6 307.584 
L 57.6 41.472 
" style="fill: none; stroke: #000000; stroke-width: 0.8; stroke-linejoin: miter; stroke-linecap: square"/>
   </g>
   <g id="patch_4">
    <path d="M 414.72 307.584 
L 414.72 41.472 
" style="fill: none; stroke: #000000; stroke-width: 0.8; stroke-linejoin: miter; stroke-linecap: square"/>
   </g>
   <g id="patch_5">
    <path d="M 57.6 307.584 
L 414.72 307.584 
" style="fill: none; stroke: #000000; stroke-width: 0.8; stroke-linejoin: miter; stroke-linecap: square"/>
   </g>
   <g id="patch_6">
    <path d="M 57.6 41.472 
L 414.72 41.472 
" style="fill: none; stroke: #000000; stroke-width: 0.8; stroke-linejoin: miter; stroke-linecap: square"/>
   </g>
   <g id="legend_1">
    <g id="patch_7">
     <path d="M 328.760625 302.584 
L 407.72 302.584 
Q 409.72 302.584 409.72 300.584 
L 409.72 140.124625 
Q 409.72 138.124625 407.72 138.124625 
L 328.760625 138.124625 
Q 326.760625 138.124625 326.760625 140.124625 
L 326.760625 300.584 
Q 326.760625 302.584 328.760625 302.584 
z
" style="fill: #ffffff; opacity: 0.8; stroke: #cccccc; stroke-linejoin: miter"/>
    </g>
    <g id="line2d_28">
     <path d="M 330.760625 146.223062 
L 340.760625 146.223062 
L 350.760625 146.223062 
" style="fill: none; stroke: #1f77b4; stroke-width: 1.5; stroke-linecap: square"/>
    </g>
    <g id="text_19">
     <!-- QBER: 1 -->
     <g transform="translate(358.760625 149.723062)scale(0.1 -0.1)">
      <defs>
       <path id="DejaVuSans-51" d="M 2522 4238 
Q 1834 4238 1429 3725 
Q 1025 3213 1025 2328 
Q 1025 1447 1429 934 
Q 1834 422 2522 422 
Q 3209 422 3611 934 
Q 4013 1447 4013 2328 
Q 4013 3213 3611 3725 
Q 3209 4238 2522 4238 
z
M 3406 84 
L 4238 -825 
L 3475 -825 
L 2784 -78 
Q 2681 -84 2626 -87 
Q 2572 -91 2522 -91 
Q 1538 -91 948 567 
Q 359 1225 359 2328 
Q 359 3434 948 4092 
Q 1538 4750 2522 4750 
Q 3503 4750 4090 4092 
Q 4678 3434 4678 2328 
Q 4678 1516 4351 937 
Q 4025 359 3406 84 
z
" transform="scale(0.015625)"/>
       <path id="DejaVuSans-42" d="M 1259 2228 
L 1259 519 
L 2272 519 
Q 2781 519 3026 730 
Q 3272 941 3272 1375 
Q 3272 1813 3026 2020 
Q 2781 2228 2272 2228 
L 1259 2228 
z
M 1259 4147 
L 1259 2741 
L 2194 2741 
Q 2656 2741 2882 2914 
Q 3109 3088 3109 3444 
Q 3109 3797 2882 3972 
Q 2656 4147 2194 4147 
L 1259 4147 
z
M 628 4666 
L 2241 4666 
Q 2963 4666 3353 4366 
Q 3744 4066 3744 3513 
Q 3744 3084 3544 2831 
Q 3344 2578 2956 2516 
Q 3422 2416 3680 2098 
Q 3938 1781 3938 1306 
Q 3938 681 3513 340 
Q 3088 0 2303 0 
L 628 0 
L 628 4666 
z
" transform="scale(0.015625)"/>
       <path id="DejaVuSans-45" d="M 628 4666 
L 3578 4666 
L 3578 4134 
L 1259 4134 
L 1259 2753 
L 3481 2753 
L 3481 2222 
L 1259 2222 
L 1259 531 
L 3634 531 
L 3634 0 
L 628 0 
L 628 4666 
z
" transform="scale(0.015625)"/>
       <path id="DejaVuSans-52" d="M 2841 2188 
Q 3044 2119 3236 1894 
Q 3428 1669 3622 1275 
L 4263 0 
L 3584 0 
L 2988 1197 
Q 2756 1666 2539 1819 
Q 2322 1972 1947 1972 
L 1259 1972 
L 1259 0 
L 628 0 
L 628 4666 
L 2053 4666 
Q 2853 4666 3247 4331 
Q 3641 3997 3641 3322 
Q 3641 2881 3436 2590 
Q 3231 2300 2841 2188 
z
M 1259 4147 
L 1259 2491 
L 2053 2491 
Q 2509 2491 2742 2702 
Q 2975 2913 2975 3322 
Q 2975 3731 2742 3939 
Q 2509 4147 2053 4147 
L 1259 4147 
z
" transform="scale(0.015625)"/>
       <path id="DejaVuSans-3a" d="M 750 794 
L 1409 794 
L 1409 0 
L 750 0 
L 750 794 
z
M 750 3309 
L 1409 3309 
L 1409 2516 
L 750 2516 
L 750 3309 
z
" transform="scale(0.015625)"/>
      </defs>
      <use xlink:href="#DejaVuSans-51"/>
      <use xlink:href="#DejaVuSans-42" x="78.710938"/>
      <use xlink:href="#DejaVuSans-45" x="147.314453"/>
      <use xlink:href="#DejaVuSans-52" x="210.498047"/>
      <use xlink:href="#DejaVuSans-3a" x="276.855469"/>
      <use xlink:href="#DejaVuSans-20" x="310.546875"/>
      <use xlink:href="#DejaVuSans-31" x="342.333984"/>
     </g>
    </g>
    <g id="line2d_29">
     <path d="M 330.760625 160.901188 
L 340.760625 160.901188 
L 350.760625 160.901188 
" style="fill: none; stroke: #ff7f0e; stroke-width: 1.5; stroke-linecap: square"/>
    </g>
    <g id="text_20">
     <!-- QBER: 2 -->
     <g transform="translate(358.760625 164.401188)scale(0.1 -0.1)">
      <use xlink:href="#DejaVuSans-51"/>
      <use xlink:href="#DejaVuSans-42" x="78.710938"/>
      <use xlink:href="#DejaVuSans-45" x="147.314453"/>
      <use xlink:href="#DejaVuSans-52" x="210.498047"/>
      <use xlink:href="#DejaVuSans-3a" x="276.855469"/>
      <use xlink:href="#DejaVuSans-20" x="310.546875"/>
      <use xlink:href="#DejaVuSans-32" x="342.333984"/>
     </g>
    </g>
    <g id="line2d_30">
     <path d="M 330.760625 175.579313 
L 340.760625 175.579313 
L 350.760625 175.579313 
" style="fill: none; stroke: #2ca02c; stroke-width: 1.5; stroke-linecap: square"/>
    </g>
    <g id="text_21">
     <!-- QBER: 3 -->
     <g transform="translate(358.760625 179.079313)scale(0.1 -0.1)">
      <use xlink:href="#DejaVuSans-51"/>
      <use xlink:href="#DejaVuSans-42" x="78.710938"/>
      <use xlink:href="#DejaVuSans-45" x="147.314453"/>
      <use xlink:href="#DejaVuSans-52" x="210.498047"/>
      <use xlink:href="#DejaVuSans-3a" x="276.855469"/>
      <use xlink:href="#DejaVuSans-20" x="310.546875"/>
      <use xlink:href="#DejaVuSans-33" x="342.333984"/>
     </g>
    </g>
    <g id="line2d_31">
     <path d="M 330.760625 190.257438 
L 340.760625 190.257438 
L 350.760625 190.257438 
" style="fill: none; stroke: #d62728; stroke-width: 1.5; stroke-linecap: square"/>
    </g>
    <g id="text_22">
     <!-- QBER: 4 -->
     <g transform="translate(358.760625 193.757438)scale(0.1 -0.1)">
      <use xlink:href="#DejaVuSans-51"/>
      <use xlink:href="#DejaVuSans-42" x="78.710938"/>
      <use xlink:href="#DejaVuSans-45" x="147.314453"/>
      <use xlink:href="#DejaVuSans-52" x="210.498047"/>
      <use xlink:href="#DejaVuSans-3a" x="276.855469"/>
      <use xlink:href="#DejaVuSans-20" x="310.546875"/>
      <use xlink:href="#DejaVuSans-34" x="342.333984"/>
     </g>
    </g>
    <g id="line2d_32">
     <path d="M 330.760625 204.935563 
L 340.760625 204.935563 
L 350.760625 204.935563 
" style="fill: none; stroke: #9467bd; stroke-width: 1.5; stroke-linecap: square"/>
    </g>
    <g id="text_23">
     <!-- QBER: 5 -->
     <g transform="translate(358.760625 208.435563)scale(0.1 -0.1)">
      <use xlink:href="#DejaVuSans-51"/>
      <use xlink:href="#DejaVuSans-42" x="78.710938"/>
      <use xlink:href="#DejaVuSans-45" x="147.314453"/>
      <use xlink:href="#DejaVuSans-52" x="210.498047"/>
      <use xlink:href="#DejaVuSans-3a" x="276.855469"/>
      <use xlink:href="#DejaVuSans-20" x="310.546875"/>
      <use xlink:href="#DejaVuSans-35" x="342.333984"/>
     </g>
    </g>
    <g id="line2d_33">
     <path d="M 330.760625 219.613688 
L 340.760625 219.613688 
L 350.760625 219.613688 
" style="fill: none; stroke: #8c564b; stroke-width: 1.5; stroke-linecap: square"/>
    </g>
    <g id="text_24">
     <!-- QBER: 6 -->
     <g transform="translate(358.760625 223.113688)scale(0.1 -0.1)">
      <use xlink:href="#DejaVuSans-51"/>
      <use xlink:href="#DejaVuSans-42" x="78.710938"/>
      <use xlink:href="#DejaVuSans-45" x="147.314453"/>
      <use xlink:href="#DejaVuSans-52" x="210.498047"/>
      <use xlink:href="#DejaVuSans-3a" x="276.855469"/>
      <use xlink:href="#DejaVuSans-20" x="310.546875"/>
      <use xlink:href="#DejaVuSans-36" x="342.333984"/>
     </g>
    </g>
    <g id="line2d_34">
     <path d="M 330.760625 234.291812 
L 340.760625 234.291812 
L 350.760625 234.291812 
" style="fill: none; stroke: #e377c2; stroke-width: 1.5; stroke-linecap: square"/>
    </g>
    <g id="text_25">
     <!-- QBER: 7 -->
     <g transform="translate(358.760625 237.791812)scale(0.1 -0.1)">
      <use xlink:href="#DejaVuSans-51"/>
      <use xlink:href="#DejaVuSans-42" x="78.710938"/>
      <use xlink:href="#DejaVuSans-45" x="147.314453"/>
      <use xlink:href="#DejaVuSans-52" x="210.498047"/>
      <use xlink:href="#DejaVuSans-3a" x="276.855469"/>
      <use xlink:href="#DejaVuSans-20" x="310.546875"/>
      <use xlink:href="#DejaVuSans-37" x="342.333984"/>
     </g>
    </g>
    <g id="line2d_35">
     <path d="M 330.760625 248.969938 
L 340.760625 248.969938 
L 350.760625 248.969938 
" style="fill: none; stroke: #7f7f7f; stroke-width: 1.5; stroke-linecap: square"/>
    </g>
    <g id="text_26">
     <!-- QBER: 8 -->
     <g transform="translate(358.760625 252.469938)scale(0.1 -0.1)">
      <use xlink:href="#DejaVuSans-51"/>
      <use xlink:href="#DejaVuSans-42" x="78.710938"/>
      <use xlink:href="#DejaVuSans-45" x="147.314453"/>
      <use xlink:href="#DejaVuSans-52" x="210.498047"/>
      <use xlink:href="#DejaVuSans-3a" x="276.855469"/>
      <use xlink:href="#DejaVuSans-20" x="310.546875"/>
      <use xlink:href="#DejaVuSans-38" x="342.333984"/>
     </g>
    </g>
    <g id="line2d_36">
     <path d="M 330.760625 263.648062 
L 340.760625 263.648062 
L 350.760625 263.648062 
" style="fill: none; stroke: #bcbd22; stroke-width: 1.5; stroke-linecap: square"/>
    </g>
    <g id="text_27">
     <!-- QBER: 9 -->
     <g transform="translate(358.760625 267.148062)scale(0.1 -0.1)">
      <defs>
       <path id="DejaVuSans-39" d="M 703 97 
L 703 672 
Q 941 559 1184 500 
Q 1428 441 1663 441 
Q 2288 441 2617 861 
Q 2947 1281 2994 2138 
Q 2813 1869 2534 1725 
Q 2256 1581 1919 1581 
Q 1219 1581 811 2004 
Q 403 2428 403 3163 
Q 403 3881 828 4315 
Q 1253 4750 1959 4750 
Q 2769 4750 3195 4129 
Q 3622 3509 3622 2328 
Q 3622 1225 3098 567 
Q 2575 -91 1691 -91 
Q 1453 -91 1209 -44 
Q 966 3 703 97 
z
M 1959 2075 
Q 2384 2075 2632 2365 
Q 2881 2656 2881 3163 
Q 2881 3666 2632 3958 
Q 2384 4250 1959 4250 
Q 1534 4250 1286 3958 
Q 1038 3666 1038 3163 
Q 1038 2656 1286 2365 
Q 1534 2075 1959 2075 
z
" transform="scale(0.015625)"/>
      </defs>
      <use xlink:href="#DejaVuSans-51"/>
      <use xlink:href="#DejaVuSans-42" x="78.710938"/>
      <use xlink:href="#DejaVuSans-45" x="147.314453"/>
      <use xlink:href="#DejaVuSans-52" x="210.498047"/>
      <use xlink:href="#DejaVuSans-3a" x="276.855469"/>
      <use xlink:href="#DejaVuSans-20" x="310.546875"/>
      <use xlink:href="#DejaVuSans-39" x="342.333984"/>
     </g>
    </g>
    <g id="line2d_37">
     <path d="M 330.760625 278.326187 
L 340.760625 278.326187 
L 350.760625 278.326187 
" style="fill: none; stroke: #17becf; stroke-width: 1.5; stroke-linecap: square"/>
    </g>
    <g id="text_28">
     <!-- QBER: 10 -->
     <g transform="translate(358.760625 281.826187)scale(0.1 -0.1)">
      <use xlink:href="#DejaVuSans-51"/>
      <use xlink:href="#DejaVuSans-42" x="78.710938"/>
      <use xlink:href="#DejaVuSans-45" x="147.314453"/>
      <use xlink:href="#DejaVuSans-52" x="210.498047"/>
      <use xlink:href="#DejaVuSans-3a" x="276.855469"/>
      <use xlink:href="#DejaVuSans-20" x="310.546875"/>
      <use xlink:href="#DejaVuSans-31" x="342.333984"/>
      <use xlink:href="#DejaVuSans-30" x="405.957031"/>
     </g>
    </g>
    <g id="line2d_38">
     <path d="M 330.760625 293.004312 
L 340.760625 293.004312 
L 350.760625 293.004312 
" style="fill: none; stroke: #1f77b4; stroke-width: 1.5; stroke-linecap: square"/>
    </g>
    <g id="text_29">
     <!-- QBER: 11 -->
     <g transform="translate(358.760625 296.504312)scale(0.1 -0.1)">
      <use xlink:href="#DejaVuSans-51"/>
      <use xlink:href="#DejaVuSans-42" x="78.710938"/>
      <use xlink:href="#DejaVuSans-45" x="147.314453"/>
      <use xlink:href="#DejaVuSans-52" x="210.498047"/>
      <use xlink:href="#DejaVuSans-3a" x="276.855469"/>
      <use xlink:href="#DejaVuSans-20" x="310.546875"/>
      <use xlink:href="#DejaVuSans-31" x="342.333984"/>
      <use xlink:href="#DejaVuSans-31" x="405.957031"/>
     </g>
    </g>
   </g>
  </g>
 </g>
 <defs>
  <clipPath id="pcc4e7d40c4">
   <rect x="57.6" y="41.472" width="357.12" height="266.112"/>
  </clipPath>
 </defs>
</svg>
